<svg width="55" height="210" viewBox="0 0 55 210" fill="none" xmlns="http://www.w3.org/2000/svg">
<path d="M7.22788 102.735C5.69788 102.155 6.25788 99.0554 5.91788 97.7154C5.24788 94.0954 4.38788 90.5053 4.13788 86.8153C3.58788 81.5053 2.63788 76.2454 2.13788 70.9254C1.81788 65.4754 1.63788 60.0153 1.26788 54.5653C1.03788 48.1653 1.47788 41.7653 2.85788 35.5053C3.41788 32.3953 3.87788 29.3553 5.26788 26.5053C7.93788 20.7853 11.3379 15.4253 15.5979 10.7553C18.6479 7.92534 21.7779 5.18536 24.8079 2.33536C29.5179 -1.61464 32.3579 3.12539 35.6379 6.17538C39.7179 9.63539 42.7579 14.1754 44.5079 19.2254C47.0079 25.2354 48.8179 31.4854 49.8779 37.9054C51.0779 44.2754 51.9479 50.7354 52.0279 57.2254C52.1779 60.5254 51.8379 63.8153 51.3279 67.0753C50.5579 72.3853 50.0179 77.7154 49.2079 83.0254C48.5479 87.9254 48.0379 92.8454 47.8779 97.7854C47.7979 98.8854 47.6779 99.9753 47.5979 101.075C47.5379 101.625 47.6279 102.545 46.8679 102.505C46.5879 102.465 46.4079 102.225 46.3879 101.955C46.3779 100.685 46.5279 99.4154 46.6079 98.1554C46.7079 94.0454 46.9379 89.9354 47.4479 85.8554C48.4079 77.7454 49.5079 69.6653 50.4479 61.5553C50.7879 54.0953 50.0279 46.6453 48.7079 39.3153C47.7579 33.1653 46.2479 27.1153 43.8979 21.3653C42.1379 16.5053 39.8379 11.7253 35.9179 8.24533C34.2279 6.74533 32.6379 4.95535 31.0179 3.45535C30.2679 2.82535 29.4579 2.13536 28.4479 2.02536C25.7279 2.19536 24.1679 4.91534 22.2379 6.50534C20.2079 8.39534 17.9179 10.1453 16.0579 12.1253C14.2779 14.2853 12.5379 16.5054 10.9079 18.7954C8.94788 22.0554 7.00788 25.3854 5.63788 28.9054C4.88788 31.0854 4.52788 33.3253 4.12788 35.5653C3.54788 38.6753 2.90788 41.7854 2.72788 44.9554C2.22788 50.9454 2.68788 56.9254 3.06788 62.9054C3.08788 69.3454 3.91788 75.7153 4.83788 82.0753C5.27788 85.1954 5.52788 88.3354 5.94788 91.4554C5.99788 91.8054 6.05788 92.1553 6.11788 92.4953C6.11788 92.5753 6.12788 92.6454 6.12788 92.7254C6.12788 92.6754 6.11788 92.6254 6.11788 92.5753C6.15788 93.2753 6.18788 93.9554 6.28788 94.6454C6.28788 94.6354 6.28788 94.6353 6.28788 94.6253C6.28788 94.6353 6.28788 94.6354 6.28788 94.6454C6.28788 94.6454 6.28788 94.6453 6.28788 94.6353C6.28788 94.6453 6.28788 94.6454 6.28788 94.6554C6.36788 95.2254 6.42788 95.8053 6.49788 96.3853C6.56788 96.9453 6.66788 97.5053 6.76788 98.0653C6.86788 98.6853 6.97788 99.2954 7.06788 99.9154C7.11788 100.365 7.15788 100.825 7.21788 101.275C7.27788 101.755 7.34788 102.235 7.41788 102.715C7.39788 102.715 7.37788 102.715 7.35788 102.715C7.30788 102.755 7.26788 102.745 7.22788 102.735Z" fill="#00FCFF"/>
<path d="M10.7178 30.6955C9.8878 29.2155 11.6378 26.7355 12.1778 25.2755C13.5678 22.3455 15.3478 19.5155 17.4978 17.0955C18.3078 16.2855 19.1078 15.1055 20.2878 14.8955C20.9378 14.9155 21.0278 15.7155 20.6378 16.1155C20.0478 17.0155 19.3778 17.8655 18.6978 18.6955C17.7378 20.0055 16.8378 21.3755 16.0278 22.7955C15.2678 24.2155 14.6378 25.5655 14.0378 27.0355C13.5178 28.0955 12.3678 32.3855 10.7178 30.6955Z" fill="#00FCFF"/>
<path d="M17.5382 157.166C16.5482 156.936 15.5582 156.716 14.5982 156.376C14.0782 156.256 13.4982 155.876 13.9282 155.306C13.9082 155.326 13.9182 155.326 13.8982 155.356C13.9082 155.346 13.9082 155.336 13.9182 155.336C13.9182 155.336 13.9182 155.326 13.9282 155.326C14.0882 155.056 14.4982 155.066 14.6582 155.326C16.6182 155.856 18.5782 156.476 20.6182 156.536C20.8582 156.556 21.0382 156.786 21.0382 157.016C20.9882 158.036 18.2082 157.286 17.5382 157.166Z" fill="#00FCFF"/>
<path d="M32.088 158.385C31.718 158.365 31.148 158.265 31.208 157.785C31.238 157.575 31.428 157.385 31.648 157.405C32.678 157.405 33.578 156.835 34.518 156.555C36.118 156.075 37.688 155.525 39.208 154.815C39.778 154.575 40.208 155.415 39.668 155.725C38.398 156.475 36.998 156.975 35.588 157.375C34.378 157.675 33.328 158.305 32.088 158.385Z" fill="#00FCFF"/>
<path d="M49.7379 106.286C48.7179 105.556 48.1579 104.336 47.2879 103.436C46.2179 102.196 44.6379 101.406 43.6779 100.096C43.3679 99.3357 44.5279 98.9757 44.7079 99.7257C46.3479 100.946 48.0379 102.206 49.1979 103.916C49.5679 104.456 49.9579 104.966 50.3579 105.476C50.4979 105.676 50.5079 105.936 50.3579 106.126C50.2279 106.306 49.9579 106.386 49.7379 106.286Z" fill="#FF00BF"/>
<path d="M39.5879 156.035C39.4279 153.325 40.0479 150.675 40.0279 147.975C40.3179 142.305 40.4079 136.695 40.8079 131.035C41.0979 126.845 42.1079 122.735 42.2679 118.525C42.3279 115.885 42.5179 113.255 42.8179 110.625C42.8179 107.445 42.9279 104.265 43.1979 101.095C43.2779 100.535 43.1579 99.6853 43.8179 99.4853C44.1379 99.4353 44.4179 99.7852 44.2879 100.085C44.2279 103.795 44.1379 107.515 43.9979 111.225C43.5379 114.895 43.4579 118.585 43.1079 122.265C42.4379 126.965 41.7879 131.665 41.7679 136.415C41.2979 142.095 41.5379 147.875 40.6079 153.505C40.5879 153.845 40.5879 154.185 40.5879 154.525C40.5679 154.605 40.5579 154.695 40.5479 154.775C40.5279 154.965 40.5379 155.145 40.5879 155.325C40.5879 155.325 40.5879 155.325 40.5879 155.315V155.325C40.5879 155.325 40.5879 155.325 40.5879 155.335V155.325C40.5879 155.335 40.5879 155.335 40.5879 155.345C40.5879 155.575 40.5879 155.805 40.5879 156.035C40.5879 156.315 40.3579 156.545 40.0779 156.545C39.8079 156.545 39.5979 156.315 39.5879 156.035Z" fill="#FF00BF"/>
<path d="M41.9778 157.216C41.2178 156.746 40.1678 156.636 39.7078 155.866C39.5878 155.506 39.9878 155.156 40.3278 155.296C40.4278 155.326 40.5278 155.356 40.6278 155.386C40.6678 155.496 40.7278 155.616 40.8178 155.686C40.9378 155.796 41.0678 155.876 41.2078 155.946C41.5778 156.156 41.9778 156.286 42.3678 156.446C42.6078 156.556 42.8378 156.686 43.0778 156.806C43.3078 156.926 43.5478 157.046 43.7878 157.156C44.2678 157.386 44.7378 157.646 45.2078 157.906C45.1878 157.896 45.1778 157.886 45.1578 157.876C45.3278 157.966 45.4878 158.066 45.6578 158.166C45.8078 158.256 45.9678 158.336 46.1278 158.416C46.1278 158.416 46.1278 158.416 46.1178 158.416C46.3078 158.516 46.4878 158.616 46.6778 158.716C46.8878 158.826 47.1078 158.916 47.3178 159.016C47.2978 159.006 47.2778 158.996 47.2678 158.986C47.2878 158.996 47.3078 159.006 47.3278 159.016C47.3278 159.016 47.3278 159.016 47.3378 159.016C47.5578 159.126 47.7878 159.246 47.9978 159.376C48.2078 159.506 48.3978 159.666 48.6178 159.776C48.8278 159.886 49.0578 159.966 49.2778 160.046H49.2678H49.2778C49.2778 160.046 49.2778 160.046 49.2878 160.046H49.2978C49.3678 160.076 49.4278 160.106 49.4978 160.146C49.7378 160.286 49.9778 160.456 50.2278 160.596C50.4678 160.726 50.7278 160.846 50.9778 160.976C51.2578 161.126 51.5278 161.296 51.7978 161.476C51.9178 161.556 52.0378 161.626 52.1678 161.686C52.2378 161.726 52.3178 161.756 52.3978 161.796C52.5378 161.876 52.6678 161.956 52.8178 162.026C52.9478 162.086 53.0878 162.136 53.2278 162.166C53.2078 162.166 53.1878 162.156 53.1678 162.156C53.2578 162.176 53.3378 162.196 53.4278 162.196C53.4378 162.196 53.4378 162.196 53.4478 162.196C53.5778 162.196 53.6978 162.146 53.7978 162.066C53.9578 161.926 53.9478 161.696 53.9178 161.496C53.8878 161.336 53.8478 161.186 53.7978 161.026C53.6778 160.576 53.5178 160.136 53.3978 159.676C53.2678 159.196 53.1578 158.696 53.0578 158.206C53.0178 157.986 52.9778 157.776 52.9278 157.556C52.1178 147.496 50.6078 137.516 49.8678 127.456C49.6178 121.836 49.9678 116.216 49.9478 110.586C49.9178 109.016 50.1878 107.416 49.8178 105.896C49.8478 105.536 50.2778 105.376 50.5678 105.536C51.3978 106.386 51.0878 107.776 51.2378 108.866C51.5278 115.556 51.0678 122.366 51.4078 129.036C51.7778 132.196 52.1078 135.346 52.4478 138.506C53.0478 144.636 53.8078 150.786 54.1678 156.936C54.2378 158.096 54.1878 159.376 54.2678 160.496C54.2478 161.356 54.7878 163.206 53.5278 163.226C49.4578 161.686 45.7578 159.316 41.9778 157.216Z" fill="#FF00BF"/>
<path d="M53.5879 161.485C53.5979 161.485 53.5979 161.495 53.6079 161.495C53.5979 161.495 53.5879 161.485 53.5879 161.485Z" fill="#FF00BF"/>
<path d="M3.19801 107.766C2.53801 107.066 3.95801 106.326 4.31801 105.796C5.31801 104.746 6.39801 103.746 7.41801 102.726C7.42801 102.796 7.43801 102.876 7.44801 102.946C7.48801 103.336 7.51801 103.726 7.57801 104.116C7.50801 104.196 7.42801 104.276 7.35801 104.356C7.35801 104.356 7.35801 104.356 7.34801 104.366C7.34801 104.366 7.34801 104.366 7.33801 104.366C7.33801 104.366 7.33801 104.366 7.32801 104.376C7.32801 104.376 7.32801 104.376 7.32801 104.386C7.32801 104.386 7.32801 104.386 7.32801 104.396C7.32801 104.396 7.32801 104.396 7.31801 104.396C7.31801 104.396 7.31801 104.396 7.32801 104.396C7.32801 104.396 7.31801 104.396 7.31801 104.406C7.31801 104.406 7.31801 104.406 7.30801 104.416C7.29801 104.426 7.29801 104.426 7.28801 104.436C7.27801 104.446 7.27801 104.446 7.26801 104.456C7.26801 104.456 7.26801 104.466 7.25801 104.466C7.19801 104.536 7.12801 104.606 7.06801 104.676C6.66801 105.056 6.25801 105.436 5.85801 105.826C5.17801 106.466 4.53801 107.146 3.85801 107.786C3.75801 107.876 3.63801 107.916 3.50801 107.916C3.40801 107.886 3.28801 107.846 3.19801 107.766Z" fill="#FF00BF"/>
<path d="M9.3481 101.035C9.3381 100.925 9.31811 100.815 9.30811 100.705C9.35811 100.655 9.4081 100.605 9.4581 100.555C9.7981 100.265 10.3381 100.515 10.3181 100.955C10.3381 101.155 10.2381 101.345 10.0481 101.415C9.9581 101.545 9.8681 101.665 9.7681 101.785C9.6781 101.775 9.5981 101.815 9.5281 101.865C9.4981 101.895 9.4681 101.925 9.4381 101.955C9.4181 101.655 9.3881 101.345 9.3481 101.035Z" fill="#FF00BF"/>
<path d="M0.808164 160.885C-0.111836 160.775 0.388164 159.345 0.308164 158.715C0.408164 156.415 0.608163 154.135 0.658163 151.835C0.808163 143.335 1.52816 134.855 2.38816 126.415C2.78816 122.045 3.21816 117.685 3.34816 113.295C3.46816 111.375 3.21816 109.475 3.41816 107.575C3.42816 107.115 3.90816 106.485 4.35816 107.015C4.53816 107.385 4.37816 107.855 4.43816 108.235C4.92816 115.165 4.08816 122.105 3.39816 128.995C2.64816 135.865 2.28816 142.775 1.98816 149.675C1.90816 152.955 1.68816 156.235 1.46816 159.505C1.41816 160.015 1.53816 160.875 0.808164 160.885Z" fill="#FF00BF"/>
<path d="M13.5578 156.916C12.6278 152.316 12.5978 147.576 12.3678 142.896C12.0978 139.326 11.9578 135.756 11.7678 132.186C11.3778 125.106 11.0678 118.016 10.4378 110.956C10.2178 108.676 10.3078 106.406 10.0978 104.126C10.0578 103.696 10.0278 103.276 9.99782 102.846C9.99782 102.826 9.99782 102.806 10.0078 102.796C10.0178 102.736 10.0178 102.676 10.0178 102.626C10.0178 102.616 10.0178 102.606 10.0178 102.586C10.0178 102.596 10.0178 102.596 10.0178 102.596C10.0278 102.516 10.0378 102.446 10.0378 102.366C10.0378 102.306 10.0378 102.256 10.0378 102.196C10.0378 102.086 10.0078 101.966 9.92782 101.886C9.91782 101.726 9.89782 101.556 9.88782 101.396C9.80782 101.196 9.79783 100.976 9.91783 100.806C10.3278 100.306 10.8978 100.756 10.9578 101.296C11.5078 103.936 11.5478 106.606 11.7078 109.286C12.8478 121.406 13.2378 133.566 13.8778 145.716C14.0278 148.866 14.1478 152.066 14.5678 155.176C14.6078 155.736 14.8678 156.276 14.8078 156.826C14.7478 157.156 14.4478 157.346 14.1578 157.346C13.8978 157.326 13.6478 157.196 13.5578 156.916Z" fill="#FF00BF"/>
<path d="M0.488035 164.785C-0.371965 164.345 0.158034 163.125 0.198034 162.395C0.248034 161.865 0.198035 161.315 0.328035 160.785C0.378035 160.585 0.538033 160.425 0.748033 160.405C1.73803 160.455 1.24803 162.465 1.21803 163.125L1.20803 163.135C4.90803 160.345 9.05803 158.235 13.288 156.375C13.498 156.285 13.738 156.165 13.968 156.205C14.508 156.335 14.418 157.005 13.948 157.175C10.798 158.875 7.50803 160.435 4.49803 162.355C3.62803 162.895 2.72803 163.405 1.92803 164.055C1.48803 164.345 1.05804 164.925 0.488035 164.785Z" fill="#FF00BF"/>
<path d="M21.068 157.875C20.418 149.885 21.938 141.975 22.888 134.065C23.518 127.935 23.978 121.725 25.048 115.655C25.668 111.465 25.768 107.215 26.508 103.036C26.578 102.736 26.588 102.405 26.728 102.125C26.898 101.835 27.368 101.856 27.508 102.166C27.638 102.446 27.568 102.765 27.558 103.065C27.528 103.365 27.498 103.676 27.468 103.976C27.428 103.986 27.398 103.995 27.358 104.025C27.268 104.105 27.238 104.235 27.208 104.345C27.178 104.465 27.158 104.585 27.148 104.705C27.128 104.875 27.098 105.045 27.088 105.215C27.068 105.405 27.058 105.585 27.058 105.775C27.058 105.935 27.068 106.095 27.088 106.255C27.068 106.425 27.048 106.605 27.038 106.775C27.038 106.775 27.038 106.775 27.038 106.765C27.038 106.775 27.038 106.786 27.038 106.796C27.038 106.786 27.038 106.775 27.038 106.775C27.038 106.785 27.038 106.795 27.038 106.805C27.028 106.925 27.028 107.035 27.028 107.155C27.008 107.385 26.998 107.605 26.978 107.835C26.948 108.185 26.918 108.535 26.878 108.875C26.878 108.865 26.878 108.855 26.878 108.845C26.848 109.115 26.818 109.385 26.808 109.655C26.808 109.705 26.798 109.755 26.798 109.805V109.796C26.778 110.126 26.768 110.445 26.738 110.775C26.718 111.085 26.678 111.385 26.638 111.685C26.598 111.985 26.578 112.285 26.558 112.585C26.538 112.885 26.508 113.176 26.468 113.476C26.438 113.656 26.418 113.835 26.398 114.015V114.005C26.348 114.435 26.328 114.875 26.298 115.305C26.298 115.315 26.298 115.315 26.298 115.325C26.278 115.545 26.258 115.766 26.248 115.976C26.228 116.216 26.218 116.465 26.198 116.705C26.178 116.975 26.158 117.245 26.128 117.515C26.108 117.685 26.088 117.865 26.078 118.035C25.888 119.285 25.688 120.535 25.518 121.755C25.058 126.375 24.638 130.985 24.088 135.585C23.568 139.265 22.948 142.995 22.568 146.685C22.338 149.175 22.108 151.695 22.098 154.195C22.098 154.225 22.098 154.245 22.098 154.275C22.088 154.365 22.078 154.455 22.068 154.535C22.048 154.745 22.028 154.956 22.008 155.166C21.958 155.546 21.928 155.916 21.898 156.296C21.878 156.566 21.838 156.845 21.898 157.115C21.948 157.345 22.058 157.555 22.198 157.745C22.168 158.045 22.048 158.326 21.688 158.356C21.668 158.356 21.658 158.356 21.648 158.356C21.358 158.386 21.078 158.165 21.068 157.875Z" fill="#FF00BF"/>
<path d="M30.7779 159.365C30.7879 159.355 30.7879 159.355 30.7979 159.345C30.9679 159.195 31.0679 158.995 31.1179 158.775C31.1679 158.585 31.1479 158.385 31.1379 158.195C31.1279 157.975 31.1079 157.765 31.0879 157.545C31.0479 157.075 30.9979 156.605 30.9279 156.145C30.8879 155.915 30.8479 155.685 30.8079 155.445C30.7679 155.205 30.7479 154.955 30.7179 154.715C30.6579 154.195 30.5979 153.675 30.5379 153.155C30.5379 153.175 30.5379 153.195 30.5479 153.215C30.5479 153.185 30.5379 153.145 30.5379 153.115C30.5279 152.995 30.5079 152.875 30.4979 152.745C30.4979 152.735 30.4979 152.735 30.4979 152.725C30.4979 152.715 30.4979 152.715 30.4979 152.705V152.695V152.705C30.4979 152.685 30.4979 152.665 30.4879 152.645C30.4879 152.635 30.4879 152.635 30.4879 152.625C30.4879 152.615 30.4879 152.605 30.4879 152.605C30.4879 152.595 30.4879 152.585 30.4879 152.575C30.4879 152.585 30.4879 152.595 30.4879 152.605V152.615C30.4379 152.115 30.3979 151.615 30.3479 151.115C30.2979 150.585 30.2579 150.055 30.1879 149.525C30.1879 149.545 30.1879 149.565 30.1979 149.585C30.1679 149.325 30.1479 149.065 30.1179 148.795C30.0979 148.565 30.0579 148.335 30.0379 148.105C30.0179 147.755 30.0179 147.405 29.9979 147.055C29.9679 146.695 29.9179 146.345 29.8879 145.985C29.8879 145.925 29.8779 145.875 29.8779 145.815C29.8779 145.805 29.8779 145.795 29.8779 145.785C29.6579 138.845 29.6379 131.935 28.8779 125.045C28.7579 121.375 28.5179 117.715 28.2379 114.055C28.2379 113.975 28.2479 113.905 28.2479 113.825C28.2479 113.565 28.2479 113.295 28.2379 113.035C28.2179 112.525 28.2079 112.015 28.1779 111.505C28.1779 111.505 28.1779 111.505 28.1779 111.515C28.1679 111.275 28.1579 111.045 28.1479 110.805C28.1479 110.805 28.1479 110.805 28.1479 110.815C28.1379 110.455 28.1479 110.095 28.1279 109.745C28.1079 109.385 28.0979 109.025 28.0879 108.665C28.0879 108.675 28.0879 108.685 28.0879 108.705C28.0879 108.685 28.0879 108.665 28.0879 108.645C28.0779 108.395 28.0679 108.155 28.0579 107.905C28.0479 107.675 28.0279 107.445 28.0079 107.215C27.9779 106.755 27.9479 106.285 27.9079 105.825C27.8879 105.595 27.8779 105.355 27.8579 105.125C27.8379 104.875 27.8279 104.615 27.7779 104.365C27.7579 104.235 27.7179 104.075 27.5979 104.005C27.5479 103.975 27.4979 103.975 27.4379 103.985C27.4079 103.455 27.3679 102.935 27.2879 102.415C27.2579 102.005 27.7679 101.705 28.0979 101.995C28.5579 102.505 28.5779 103.295 28.6979 103.955C28.9079 105.915 29.0979 107.885 29.2879 109.845C29.6879 113.625 30.1379 117.415 30.2079 121.215C30.2379 125.075 30.9379 128.885 31.0179 132.735C31.0479 136.155 31.2279 139.545 31.2379 142.965C31.2879 147.135 31.2979 151.305 31.3279 155.475C31.2979 156.705 31.6279 157.845 31.7479 159.025C31.6979 159.335 31.4279 159.505 31.1479 159.505C31.0279 159.495 30.8879 159.455 30.7779 159.365Z" fill="#FF00BF"/>
<path d="M30.478 152.565C30.478 152.585 30.478 152.605 30.488 152.615V152.625C30.488 152.605 30.488 152.585 30.478 152.565Z" fill="#FF00BF"/>
<path d="M26.0983 163.326C24.1383 162.256 23.0383 160.166 21.5683 158.566C21.0883 158.236 21.0883 157.426 21.7783 157.436C21.8683 157.466 21.9583 157.506 22.0383 157.546C22.1083 157.666 22.1783 157.786 22.2683 157.896C22.2583 157.876 22.2383 157.856 22.2283 157.846C22.2683 157.896 22.2983 157.936 22.3383 157.986C22.4583 158.146 22.5883 158.296 22.7183 158.436C22.8383 158.556 22.9483 158.676 23.0583 158.806C23.1183 158.876 23.1683 158.956 23.2183 159.026C23.2883 159.126 23.3683 159.226 23.4383 159.326C23.5183 159.446 23.5883 159.566 23.6683 159.686C23.7783 159.846 23.8983 160.006 24.0283 160.156C24.2583 160.436 24.5183 160.686 24.7883 160.936L24.7783 160.926L24.7883 160.936C24.7883 160.936 24.7983 160.936 24.7983 160.946C24.7983 160.956 24.8083 160.956 24.8183 160.966C24.8383 160.986 24.8483 160.996 24.8683 161.016C24.8483 160.996 24.8383 160.986 24.8183 160.966C24.9183 161.066 25.0083 161.166 25.0983 161.266C25.2083 161.386 25.3183 161.496 25.4283 161.606C25.6783 161.856 25.9283 162.106 26.2383 162.266C26.3183 162.306 26.3983 162.336 26.4883 162.356C26.5183 162.376 26.5583 162.376 26.5983 162.376C26.6183 162.376 26.6483 162.376 26.6683 162.366C26.6983 162.366 26.7283 162.366 26.7583 162.356C26.8683 162.336 26.9683 162.286 27.0683 162.246C27.1983 162.186 27.3083 162.106 27.4283 162.036C27.5283 161.986 27.6183 161.946 27.7183 161.896C27.8583 161.826 27.9983 161.736 28.1183 161.636C28.2383 161.536 28.3583 161.436 28.4683 161.336C28.6383 161.176 28.7883 160.996 28.9583 160.826C29.1183 160.696 29.2783 160.566 29.4283 160.416C29.4383 160.406 29.4383 160.406 29.4483 160.396C29.5483 160.306 29.6583 160.216 29.7583 160.126C29.7483 160.136 29.7283 160.146 29.7183 160.156C29.9383 159.976 30.1683 159.816 30.3983 159.646C30.5283 159.556 30.6583 159.476 30.7783 159.366C30.9483 159.216 31.0483 159.016 31.0983 158.796C31.1083 158.756 31.1183 158.716 31.1183 158.676C31.2483 158.686 31.3783 158.736 31.5083 158.836C31.6783 159.026 31.6983 159.346 31.5183 159.536C31.3983 159.716 31.1583 159.746 31.0183 159.896C30.2683 160.816 29.3483 161.536 28.4283 162.266C27.7983 162.666 27.1383 163.376 26.3683 163.376C26.2983 163.356 26.1983 163.346 26.0983 163.326Z" fill="#FF00BF"/>
<path d="M27.258 103.586C26.158 103.806 26.528 101.536 27.398 101.536C28.288 101.506 28.448 102.776 27.948 103.316C27.808 103.546 27.518 103.696 27.258 103.586Z" fill="#FF00BF"/>
<path d="M50.508 109.846C49.638 109.726 50.098 108.516 49.938 107.956C49.888 107.126 49.418 106.426 49.018 105.726C49.028 105.736 49.038 105.756 49.048 105.766V105.776C48.918 105.576 48.788 105.366 48.668 105.166C48.668 105.166 48.668 105.166 48.668 105.176C48.018 104.346 47.158 103.676 46.498 102.826C45.728 102.046 44.968 101.386 44.308 100.526C44.278 100.666 44.308 100.826 44.268 100.966C44.268 100.956 44.268 100.956 44.268 100.946C44.268 100.936 44.268 100.936 44.268 100.926C44.228 101.666 43.258 101.426 43.358 100.756C43.188 100.476 43.278 100.126 43.308 99.8155C43.308 99.4455 43.438 98.9556 43.888 98.9256C44.278 98.8956 44.538 99.2556 44.758 99.5256C45.268 100.036 45.728 100.516 46.218 101.016C47.228 101.806 47.978 102.866 48.858 103.786C49.648 104.386 50.058 105.316 50.518 106.176C50.828 106.646 50.958 107.226 51.018 107.746C51.028 108.386 51.458 109.776 50.508 109.846Z" fill="#FF00BF"/>
<path d="M49.938 107.645C49.648 107.075 49.678 106.255 49.378 105.555C48.818 104.505 47.738 103.865 46.948 103.015C46.258 102.325 45.598 101.615 44.848 100.995C44.458 100.595 43.888 100.235 43.728 99.6754C43.668 99.1454 44.428 98.8554 44.618 99.4054C46.048 100.585 47.418 101.865 48.728 103.165C49.518 103.805 50.288 104.635 50.558 105.635C50.748 106.265 51.128 107.015 50.708 107.635C50.548 107.895 50.118 107.915 49.938 107.645Z" fill="#FF00BF"/>
<path d="M50.3381 107.435C50.1181 107.335 50.0281 107.075 49.9781 106.865C49.8581 106.605 49.7981 106.315 49.7081 106.045C49.6081 105.755 49.4681 105.425 49.2381 105.215C49.0081 104.975 48.6381 104.775 48.5981 104.415C48.5681 104.055 48.8881 103.805 49.1981 103.905C49.6681 104.235 50.1681 104.625 50.4481 105.145C50.7781 105.645 50.8381 106.235 51.0081 106.785C51.1181 107.165 50.7381 107.635 50.3381 107.435Z" fill="#FF00BF"/>
<path d="M3.57804 111.105C3.23804 110.865 3.36804 110.285 3.34804 109.955C3.36804 109.185 3.06804 108.465 3.03804 107.705C3.02804 107.345 3.18804 106.965 3.51804 106.785C3.83804 106.595 4.24804 106.915 4.17804 107.265C3.86804 107.875 4.24804 108.525 4.26804 109.155C4.28804 109.725 4.56804 111.545 3.56804 111.085C3.56804 111.095 3.57804 111.105 3.57804 111.105Z" fill="#FF00BF"/>
<path d="M3.73809 109.255C3.33809 108.965 3.53809 108.375 3.52809 107.965C3.40809 106.635 4.49809 105.655 5.32809 104.775C6.03809 104.055 6.71809 103.325 7.38809 102.585C7.40809 102.705 7.41809 102.825 7.43809 102.945C7.47809 103.305 7.50809 103.665 7.55809 104.015C7.29809 104.275 7.02809 104.525 6.74809 104.765C6.06809 105.455 5.40809 106.085 4.83809 106.855C4.61809 107.125 4.46809 107.455 4.49809 107.805C4.45809 108.265 4.59809 109.325 4.02809 109.325C3.94809 109.325 3.84809 109.305 3.73809 109.255Z" fill="#FF00BF"/>
<path d="M10.4581 107.255C10.3981 106.515 10.3381 105.785 10.2881 105.055C10.2081 104.325 10.0881 103.605 9.9981 102.885C9.9981 102.845 10.0081 102.815 10.0081 102.775C10.0181 102.715 10.0181 102.655 10.0181 102.605C10.0181 102.595 10.0181 102.575 10.0181 102.565C10.0181 102.575 10.0181 102.575 10.0181 102.575C10.0281 102.495 10.0381 102.425 10.0381 102.345C10.0381 102.285 10.0381 102.235 10.0381 102.175C10.0381 102.045 9.9981 101.905 9.8881 101.835C9.8881 101.835 9.87811 101.835 9.87811 101.825C9.86811 101.715 9.8581 101.605 9.8581 101.505C9.7181 101.655 9.5881 101.815 9.4581 101.965C9.4281 101.655 9.3981 101.345 9.3681 101.035C9.3481 100.845 9.32811 100.655 9.30811 100.475C10.1381 99.5654 10.9681 100.185 10.8481 101.575C10.8681 102.795 11.1781 103.955 11.3281 105.145C11.2581 105.805 11.9281 107.615 11.0281 107.735C11.0081 107.735 10.9981 107.735 10.9781 107.735C10.7081 107.725 10.4681 107.515 10.4581 107.255Z" fill="#FF00BF"/>
<path d="M3.5379 111.735C3.4479 110.735 3.3179 109.735 3.1379 108.755C3.0579 108.185 2.74791 107.695 2.98791 107.135C3.12791 106.685 3.7779 106.585 3.9079 107.085C3.9879 107.305 3.7379 107.445 3.8179 107.635C4.1779 108.965 4.38791 110.345 4.46791 111.715C4.45791 112.275 3.5679 112.305 3.5379 111.735Z" fill="#FF00BF"/>
<path d="M3.35799 108.506C3.10799 108.316 3.05799 107.936 3.03799 107.636C2.99799 107.436 2.99799 107.236 3.07799 107.046C3.52799 106.466 4.37799 105.936 4.94799 105.296C5.35799 104.986 5.89799 105.576 5.55799 105.956C5.10799 106.566 4.39799 106.926 3.96799 107.536C3.96799 107.546 3.96799 107.566 3.95799 107.576C3.95799 107.606 3.95799 107.636 3.94799 107.666C3.97799 107.766 4.00799 107.866 4.03799 107.966C4.15799 108.356 3.70799 108.746 3.35799 108.506Z" fill="#FF00BF"/>
<path d="M0.278182 163.295C0.0481822 162.705 0.178185 162.055 0.148185 161.435C0.168185 160.635 0.138184 159.845 0.288184 159.065C0.348184 158.555 0.228184 157.315 1.08818 157.685C1.35818 157.855 1.35818 158.235 1.33818 158.515C1.29818 158.925 1.27819 159.335 1.23819 159.735C1.10819 160.875 1.21818 162.045 1.18818 163.155C1.10818 163.595 0.458182 163.695 0.278182 163.295Z" fill="#FF00BF"/>
<path d="M0.58799 164.485C-0.46201 164.435 0.277988 161.425 0.187988 160.645C0.527988 158.225 0.437989 155.805 0.867989 153.425C1.09799 152.935 1.79799 153.115 1.77799 153.655C1.86799 155.175 1.63799 156.695 1.54799 158.215C1.66799 159.845 1.52799 161.545 1.15799 163.135C1.06799 163.585 1.25799 164.475 0.58799 164.485Z" fill="#FF00BF"/>
<path d="M6.43807 160.506C6.12807 159.936 6.83807 159.696 7.22807 159.466C7.83807 159.166 8.37807 158.946 8.97807 158.676C10.5381 157.866 12.1781 157.236 13.7981 156.576C13.7381 156.316 13.9681 156.056 14.2181 156.066C14.6181 156.066 14.8681 156.576 14.7281 156.926C14.5681 157.266 14.2881 157.366 14.0081 157.506C14.0181 157.496 14.0281 157.496 14.0381 157.486C11.9781 158.376 9.93807 159.326 7.88807 160.246C7.42807 160.416 6.83807 161.106 6.43807 160.506Z" fill="#FF00BF"/>
<path d="M25.658 163.035C24.928 162.415 24.278 161.635 23.588 161.005C22.828 160.085 22.018 159.265 21.088 158.525C21.088 158.525 21.088 158.525 21.098 158.535C21.108 158.535 21.108 158.545 21.118 158.545C21.108 158.535 21.098 158.525 21.088 158.515C20.178 157.695 20.708 156.275 20.798 155.215C20.968 154.155 21.018 153.095 21.128 152.035C21.208 151.465 21.238 150.905 21.238 150.335C21.238 149.715 22.178 149.715 22.188 150.335C22.108 151.855 22.028 153.365 21.858 154.875C21.738 155.805 21.548 156.705 21.578 157.645C22.048 158.125 22.618 158.495 23.088 158.975C23.288 159.195 23.478 159.415 23.678 159.645C23.688 159.655 23.688 159.665 23.698 159.665C23.808 159.825 23.928 159.985 24.058 160.135C24.288 160.415 24.548 160.655 24.808 160.905C24.808 160.905 24.808 160.915 24.818 160.915C24.818 160.915 24.818 160.915 24.808 160.905C24.818 160.915 24.828 160.925 24.838 160.935L24.828 160.925C24.838 160.935 24.838 160.935 24.848 160.945C24.948 161.045 25.038 161.145 25.128 161.245C25.238 161.365 25.348 161.475 25.458 161.585C25.648 161.785 25.848 161.975 26.078 162.125C26.308 162.345 26.548 162.635 26.358 162.945C26.278 163.085 26.128 163.155 25.978 163.155C25.848 163.165 25.738 163.125 25.658 163.035Z" fill="#FF00BF"/>
<path d="M25.9179 163.986C25.6579 163.806 25.4879 163.545 25.3679 163.255C25.1679 162.845 24.8979 162.586 24.7679 162.166C24.7479 161.926 24.6479 161.736 24.4479 161.586C24.1679 161.306 24.3779 160.895 24.6779 160.805C24.7179 160.835 24.7479 160.876 24.7779 160.906C24.7779 160.906 24.7779 160.916 24.7879 160.916C24.7879 160.916 24.7879 160.916 24.7779 160.916C24.7779 160.916 24.7779 160.916 24.7879 160.916C24.7979 160.916 24.7979 160.926 24.7979 160.926C24.7979 160.926 24.7979 160.925 24.8079 160.935C24.8279 160.955 24.8379 160.976 24.8579 160.986C24.8379 160.966 24.8279 160.955 24.8079 160.935C24.9079 161.035 24.9979 161.136 25.0879 161.236C25.1979 161.356 25.3079 161.466 25.4179 161.576C25.4979 161.656 25.5879 161.746 25.6679 161.826C25.6879 161.876 25.6979 161.935 25.7079 161.995C25.9079 162.275 26.0979 162.565 26.2479 162.875C26.4579 162.685 26.6679 162.495 26.8679 162.305C26.9379 162.285 27.0079 162.256 27.0779 162.226C27.2079 162.166 27.3179 162.086 27.4379 162.016C27.5279 161.966 27.6279 161.925 27.7279 161.875C27.8679 161.805 28.0079 161.715 28.1279 161.615C28.2479 161.515 28.3679 161.415 28.4779 161.315C28.6479 161.145 28.7979 160.975 28.9679 160.805C29.1279 160.675 29.2979 160.546 29.4379 160.396C29.4479 160.386 29.4479 160.385 29.4579 160.375C29.5579 160.285 29.6679 160.186 29.7779 160.106C29.7679 160.116 29.7479 160.125 29.7379 160.135C29.7979 160.085 29.8679 160.036 29.9279 159.986C30.1379 159.856 30.3379 159.705 30.5179 159.555C30.6179 159.485 30.7079 159.426 30.7979 159.346C30.9679 159.196 31.0679 158.996 31.1179 158.776C31.1679 158.586 31.1479 158.385 31.1379 158.195C31.1279 157.975 31.1079 157.766 31.0879 157.546C31.0479 157.076 30.9979 156.606 30.9279 156.146C30.8879 155.916 30.8479 155.685 30.8079 155.445C30.7779 155.265 30.7579 155.086 30.7379 154.896C30.8579 154.966 30.9379 155.095 30.9379 155.245C31.0379 156.265 31.2979 157.245 31.4679 158.245C32.0379 159.125 31.9279 159.706 31.0879 160.356C30.0479 161.056 28.9779 161.726 28.0879 162.606C27.6879 162.946 27.2779 163.286 26.8779 163.646C26.6979 163.846 26.4479 164.065 26.1779 164.065C26.0979 164.065 26.0079 164.046 25.9179 163.986Z" fill="#FF00BF"/>
<path d="M53.6481 163.995C50.9881 162.875 48.4881 161.295 46.0081 159.895C44.4381 159.025 42.7481 158.365 41.1781 157.495C40.6481 157.195 40.0781 156.875 39.7581 156.335C39.4981 155.945 39.6681 155.165 40.2481 155.245C40.5381 155.295 40.6781 155.595 40.6281 155.865C42.2881 157.215 44.4681 157.775 46.3181 158.825C48.8581 160.255 51.3281 161.875 53.9781 163.075C53.8981 162.755 53.8181 162.445 53.7481 162.125C53.7581 162.115 53.7781 162.105 53.7881 162.095C53.9481 161.955 53.9381 161.725 53.9081 161.525C53.8781 161.365 53.8381 161.215 53.7881 161.055C53.6681 160.605 53.5081 160.165 53.3881 159.705C53.2881 159.345 53.2081 158.975 53.1281 158.615C53.0781 158.185 53.0381 157.745 53.0181 157.315C52.9881 156.995 52.9381 156.665 52.9481 156.335C52.9481 156.115 52.9381 155.885 53.1781 155.765C53.6181 155.575 53.8381 156.025 53.7981 156.365C53.8281 156.645 53.8681 156.895 53.8981 157.165C54.0081 158.475 54.2081 159.805 54.4481 161.075C54.7281 161.975 55.4481 164.055 54.1081 164.055C53.9581 164.055 53.8181 164.035 53.6481 163.995Z" fill="#FF00BF"/>
<path d="M54.238 163.586C53.758 163.336 53.818 162.636 53.738 162.126C53.748 162.116 53.758 162.106 53.768 162.106C53.928 161.966 53.918 161.736 53.888 161.536C53.858 161.376 53.818 161.226 53.768 161.066C53.648 160.616 53.488 160.176 53.368 159.716C53.348 159.626 53.328 159.546 53.298 159.456C53.038 157.896 52.808 156.346 52.818 154.756C52.938 153.976 52.548 153.136 52.768 152.376C52.788 152.016 52.448 151.566 52.878 151.336C53.608 151.076 53.688 152.226 53.648 152.676C53.688 154.106 54.058 155.496 54.298 156.896C54.488 158.156 54.488 159.436 54.548 160.706C54.588 161.406 54.698 162.106 54.778 162.796C54.888 163.136 54.758 163.586 54.388 163.586C54.338 163.606 54.288 163.596 54.238 163.586Z" fill="#FF00BF"/>
<path d="M40.7079 157.066C40.2679 156.866 39.4379 156.236 39.9779 155.746C40.3979 155.476 40.8279 155.906 41.0779 156.206C41.2379 156.296 41.4079 156.426 41.4379 156.616C41.5679 157.036 41.0179 157.376 40.7079 157.066Z" fill="#FF00BF"/>
<path d="M40.6578 157.215C38.8978 156.495 39.2278 155.765 39.4178 154.185C39.5478 153.355 39.7978 152.545 39.8978 151.705C39.9378 151.445 40.1778 151.255 40.4378 151.295C41.1578 151.455 40.7178 152.355 40.6978 152.855C40.5078 153.615 40.3478 154.415 40.2478 155.185C40.1778 155.495 40.0778 155.935 40.4378 156.075C40.5278 156.115 40.6578 156.185 40.6878 156.205C40.8378 156.305 41.0078 156.375 41.1178 156.535C41.3578 156.865 41.0478 157.325 40.6578 157.215Z" fill="#FF00BF"/>
<path d="M31.1979 159.255C31.1179 159.195 31.0679 159.105 31.0379 159.015C31.0779 158.935 31.0979 158.855 31.1279 158.775C31.1479 158.705 31.1579 158.635 31.1579 158.565C31.1679 158.535 31.1879 158.515 31.1979 158.485C31.1679 157.645 31.0379 156.815 30.9779 155.975C30.7579 153.915 30.6779 151.825 30.5279 149.775C30.4679 148.475 30.3079 147.255 30.2179 145.965C30.0479 144.275 30.1979 142.575 30.0779 140.875C30.0979 140.355 29.9579 139.695 30.2079 139.245C30.3979 139.035 30.7279 139.055 30.8579 139.275C31.0379 139.625 30.9479 140.185 30.9979 140.535C31.1779 143.045 31.0379 145.565 31.3679 148.065C31.5779 150.545 31.6779 153.065 31.8879 155.535C31.9579 156.585 32.1079 157.575 32.0879 158.615C32.0579 158.935 31.7779 159.335 31.4479 159.335C31.3779 159.345 31.2879 159.315 31.1979 159.255Z" fill="#FF00BF"/>
<path d="M29.1778 160.995C29.0878 160.915 29.0378 160.835 29.0278 160.755C29.1678 160.635 29.3178 160.525 29.4478 160.385C29.4578 160.375 29.4578 160.375 29.4678 160.365C29.5678 160.275 29.6778 160.175 29.7878 160.095C29.7778 160.105 29.7578 160.115 29.7478 160.125C29.9678 159.945 30.1978 159.785 30.4278 159.615C30.5578 159.525 30.6878 159.445 30.8078 159.335C30.9778 159.185 31.0778 158.985 31.1278 158.765C31.1778 158.575 31.1578 158.375 31.1478 158.185C31.1378 157.965 31.1178 157.755 31.0978 157.535C31.0578 157.065 31.0078 156.595 30.9378 156.135C30.8978 155.905 30.8578 155.675 30.8178 155.435C30.7778 155.195 30.7578 154.945 30.7278 154.705C30.6678 154.185 30.6078 153.665 30.5478 153.145C30.5478 153.165 30.5478 153.185 30.5578 153.205C30.5578 153.175 30.5478 153.135 30.5478 153.105C30.5378 152.985 30.5178 152.865 30.5078 152.735C30.5078 152.725 30.5078 152.715 30.5078 152.705V152.695V152.705C30.5078 152.715 30.5078 152.725 30.5078 152.735C30.5078 152.725 30.5078 152.705 30.5078 152.695C30.5078 152.695 30.5078 152.695 30.5078 152.685C30.5078 152.675 30.5078 152.675 30.5078 152.675C30.5078 152.675 30.5078 152.675 30.5078 152.685C30.5078 152.665 30.5078 152.645 30.4978 152.625C30.4978 152.615 30.4978 152.615 30.4978 152.605V152.615C30.4978 152.595 30.4978 152.575 30.4878 152.555C30.4878 152.565 30.4878 152.565 30.4878 152.575C30.4578 152.295 30.4378 152.005 30.4078 151.725C30.6378 151.395 31.2678 151.485 31.2878 152.005C31.3378 153.475 31.5178 154.825 31.7578 156.255C31.9478 157.395 32.6178 158.875 31.6578 159.835C31.3778 160.115 30.9978 160.495 30.5678 160.345C30.2978 160.555 30.0278 160.745 29.7578 160.945C29.6778 161.025 29.5578 161.075 29.4478 161.075C29.3378 161.085 29.2478 161.055 29.1778 160.995Z" fill="#FF00BF"/>
<path d="M30.478 152.565C30.478 152.575 30.478 152.585 30.478 152.605V152.615C30.488 152.595 30.488 152.575 30.478 152.565Z" fill="#FF00BF"/>
<path d="M25.4178 79.1052C20.9078 78.8552 16.7578 75.5052 15.0278 71.4052C14.5578 70.1652 14.1778 68.8152 14.3878 67.4852C14.0978 66.6952 14.3778 65.7252 14.5478 64.9752C14.7178 62.7752 15.4578 60.7152 16.3478 58.7252C17.1878 55.4652 20.4078 54.0352 23.2678 52.9152C29.6078 50.6552 37.1678 54.7152 39.5778 60.8352C40.3878 62.5952 40.0878 64.5852 39.6578 66.4052C39.1878 68.4552 38.6678 70.5252 37.6378 72.3852C34.9178 77.2952 30.9478 79.4252 25.3678 79.0952C25.3778 79.1052 25.4178 79.1052 25.4178 79.1052ZM27.1778 77.6652C29.1478 77.4952 31.1878 77.0752 32.7878 75.8552C35.3378 73.8052 36.9778 70.8152 37.6878 67.6552C38.1478 65.5152 39.0678 63.0752 37.9278 61.0152C36.0278 56.9052 31.5078 54.0052 26.9978 53.9552C25.2778 53.8852 23.7778 54.3852 22.2678 55.1252C21.2878 55.5752 20.3778 55.8952 19.5778 56.5252C18.3078 57.4452 17.8978 58.9252 17.2878 60.2752C16.5378 61.6952 16.0778 63.2252 15.9078 64.8152C15.8078 65.4952 15.5178 66.1452 15.5378 66.8352C15.5478 67.3152 15.9078 68.0052 15.3078 68.2652C15.7478 71.3752 17.7378 74.1052 20.3178 75.7952C22.2878 77.3452 24.7278 77.9352 27.1778 77.6652Z" fill="#FF00BF"/>
<path d="M18.1778 75.1056C15.5378 73.3456 14.9878 69.8956 14.9178 66.9456C14.8078 62.7656 16.2978 58.5356 18.8378 55.2356C19.4078 54.5656 20.4178 55.5756 19.4878 55.8956C17.1678 59.2056 15.6878 63.2656 15.9278 67.3256C16.0278 69.8656 16.4978 72.8056 18.7278 74.3356C19.2178 74.6956 18.6878 75.4556 18.1778 75.1056Z" fill="#FF00BF"/>
<path d="M25.7482 78.8657C23.6782 78.7057 21.9282 77.5157 20.2482 76.4057C17.8282 74.9757 15.6282 73.0257 14.5682 70.3857C13.6482 67.3857 13.7282 63.9157 15.0082 61.0257C15.5682 58.9257 16.8182 57.1357 18.4382 55.7157C18.7682 55.3357 19.4182 55.7757 19.1682 56.2257C18.4282 57.3757 17.4382 58.3957 16.8882 59.6657C15.7982 62.5857 14.9782 65.7657 15.6382 68.8757C15.9282 70.0157 16.7082 71.0357 16.7982 72.2057C17.9882 73.5657 19.3382 74.7157 20.9082 75.6057C22.2082 76.4557 23.5782 77.4157 25.1082 77.7357C25.8082 77.9457 26.5082 77.8757 27.2082 77.8357C27.4582 77.8057 27.6882 78.0157 27.7282 78.2457C27.7782 79.1957 26.3482 78.8257 25.7482 78.8657Z" fill="#FF00BF"/>
<path d="M20.9081 77.2555C19.2481 76.2255 17.9781 74.7055 16.8581 73.1355C15.2081 70.1055 14.6481 66.4356 14.9581 63.0256C15.0681 62.5256 15.8381 62.6456 15.7881 63.1556C15.7781 63.2856 15.7781 63.3955 15.7681 63.5155C15.7981 67.5355 16.3581 71.9855 19.4881 74.8055C20.0581 75.3855 20.6381 76.0356 21.3581 76.4056C21.8981 76.7056 21.4681 77.5455 20.9081 77.2555Z" fill="#FF00BF"/>
<path d="M31.5378 77.8649C31.1778 77.7749 31.1578 77.185 31.4778 77.085C31.6278 77.055 31.8378 76.9549 31.9378 76.8649C33.0178 76.0549 34.2978 75.445 35.0678 74.285C36.4678 73.055 37.2878 71.415 38.0778 69.775C38.8078 67.425 39.1478 64.895 38.7178 62.485C38.6778 61.935 37.9978 60.9249 38.6878 60.6149C38.8978 60.5449 39.1478 60.645 39.2378 60.855C40.0178 62.645 39.9978 64.6449 39.7778 66.5549C39.5878 69.6349 38.1678 72.655 35.9378 74.785C35.1578 75.845 34.1178 76.6049 32.9778 77.2449C32.5378 77.5049 32.0978 78.0149 31.5278 77.8649C31.5178 77.8549 31.5378 77.8649 31.5378 77.8649Z" fill="#FF00BF"/>
<path d="M38.1382 69.4949C37.4482 69.1549 38.2082 68.2249 38.1782 67.6949C38.6582 63.5249 37.6582 58.945 34.3582 56.165C33.9382 55.815 34.1982 55.025 34.7882 55.285C37.7782 57.645 39.0482 61.125 39.2782 64.845C39.3582 65.715 39.4082 69.7449 38.1382 69.4949Z" fill="#FF00BF"/>
<path d="M19.1882 66.6351C17.7482 65.2751 18.9882 62.4051 19.7982 60.9551C20.2082 60.4751 20.4782 59.3651 21.2582 59.5251C21.7182 59.3651 22.1782 60.0052 22.0182 60.4252C21.5782 61.3352 21.0082 62.1951 20.6482 63.1251C20.2882 63.8451 20.1082 64.6351 20.0482 65.4151C20.0082 65.9251 19.9682 66.9551 19.1882 66.6351Z" fill="#FF00BF"/>
<path d="M24.8079 43.3457C21.1079 43.4057 17.4279 42.7857 13.8279 42.0157C10.6779 41.3157 7.65787 40.1457 4.57787 39.1957C4.06787 38.9757 3.50786 38.7357 3.18786 38.2657C2.89786 37.7057 3.38787 37.3257 3.92787 37.4057C4.91787 36.9957 5.88787 37.7957 6.80787 38.0757C9.22787 38.6857 11.4979 39.7357 13.9079 40.3757C17.6879 41.3057 21.6179 41.8257 25.4879 41.8057C29.9379 41.8357 34.2479 40.5457 38.4179 39.1557C41.3379 38.1657 44.1779 37.2157 46.9179 35.8357C47.6779 35.4357 49.1879 34.7657 48.8679 36.3157C49.0379 37.1157 48.6379 37.3957 47.8879 37.5157C47.7479 37.8757 47.3079 37.9557 46.9779 38.0657C44.2779 39.2457 41.4879 40.2257 38.7279 41.2257C36.9079 41.8757 35.1479 42.5958 33.2379 42.9158C30.4279 43.1758 27.6179 43.4657 24.8079 43.3457Z" fill="#FF00BF"/>
<path d="M4.5379 38.6158C3.8979 38.3258 2.7679 38.1059 2.7779 37.2359C3.1079 36.3259 5.0679 37.5658 5.6579 37.8358C6.0079 38.0858 5.7979 38.5058 5.5379 38.7158C5.2379 38.9358 4.8179 38.7258 4.5379 38.6158Z" fill="#FF00BF"/>
<path d="M6.35814 39.1759C5.18814 38.6159 4.08815 38.1158 2.98815 37.4958C2.74815 37.2758 2.85814 36.8259 3.17814 36.7559C4.04814 36.7959 4.84814 37.4059 5.63814 37.7359C6.08814 38.0559 7.18814 38.1859 6.97814 38.9259C6.87814 39.1659 6.58814 39.2759 6.35814 39.1759Z" fill="#FF00BF"/>
<path d="M45.1483 37.9255C44.8483 37.3855 45.3383 37.1855 45.7983 37.1555C46.1983 36.9455 46.6383 36.6155 47.0983 36.5755C47.5783 36.4355 48.0983 36.2255 48.5983 36.2455C49.1483 36.3855 49.3283 37.0055 48.7783 37.2555C48.6283 37.5455 48.2583 37.5955 47.9783 37.7155C47.6783 37.8055 47.3083 38.0255 47.0083 37.8355C46.9683 37.8355 46.9283 37.8255 46.8883 37.8155C46.8283 37.7955 46.7683 37.7655 46.7083 37.7255C46.2983 38.0055 45.5683 38.3455 45.1483 37.9255Z" fill="#FF00BF"/>
<path d="M48.868 38.7353C48.568 38.5353 48.578 38.1453 48.518 37.8453C48.518 37.8653 48.528 37.8953 48.528 37.9153C48.508 37.8253 48.508 37.7553 48.478 37.6653C48.478 37.6753 48.488 37.6953 48.498 37.7153C48.388 37.3953 48.358 37.0953 48.298 36.7853C48.228 36.3453 48.058 35.9352 47.998 35.4952C47.998 35.5252 47.998 35.5452 47.998 35.5652C47.748 34.4352 47.608 33.2652 47.338 32.1452C47.288 31.9052 47.468 31.6553 47.698 31.5953C47.948 31.5253 48.258 31.6752 48.318 31.9452C48.498 32.6752 48.618 33.4253 48.718 34.1753C48.988 34.1053 49.228 34.3253 49.238 34.5953C49.378 35.0853 49.448 35.4552 49.518 35.9352C49.668 36.3752 49.518 36.8053 49.648 37.2353C49.688 37.4653 49.718 37.7052 49.558 37.8952C49.558 38.1052 49.588 38.2653 49.548 38.4653C49.508 38.7453 49.118 38.8953 48.868 38.7353Z" fill="#00FCFF"/>
<path d="M2.16797 40.5055C2.24797 39.8355 2.43797 39.1855 2.46797 38.5055C2.36797 37.6155 2.72797 36.5456 2.91797 35.6556C2.98797 35.1356 3.68797 35.0156 3.83797 35.5456C4.07797 35.8356 3.97797 36.3056 3.91797 36.6456C3.83797 37.6456 3.56797 38.6156 3.29797 39.5756C3.24797 39.9056 3.19797 40.2255 3.18797 40.5655C3.09797 41.1855 2.16797 41.1255 2.16797 40.5055Z" fill="#00FCFF"/>
<path d="M6.44822 103.205C6.35822 102.695 6.31822 102.175 6.24822 101.665C6.05822 99.9252 5.91822 98.1751 5.75822 96.4551C5.62822 96.1951 5.64822 95.8352 5.95822 95.7152C6.14822 95.6652 6.29822 95.6952 6.41822 95.7952C6.43822 96.0052 6.46822 96.2152 6.48822 96.4252C6.55822 96.9852 6.65822 97.5452 6.75822 98.1052C6.85822 98.7252 6.96822 99.3351 7.05822 99.9551C7.10822 100.405 7.14822 100.865 7.20822 101.315C7.27822 101.865 7.36822 102.405 7.42822 102.955C7.44822 103.125 7.46822 103.305 7.47822 103.475C7.39822 103.745 7.22822 103.945 6.86822 103.955C6.52822 103.895 6.44822 103.505 6.44822 103.205Z" fill="#00FCFF"/>
<path d="M6.09823 104.656C5.82823 104.066 6.46823 103.546 6.85823 103.196C7.23823 102.606 8.12823 102.956 7.81823 103.636C7.74823 103.826 7.63823 104.016 7.50823 104.186C7.45823 104.246 7.39823 104.306 7.34823 104.366L7.35823 104.356L7.34823 104.366L7.33823 104.376L7.34823 104.366C7.33823 104.366 7.33823 104.376 7.33823 104.376C7.33823 104.376 7.33823 104.386 7.32823 104.386C7.32823 104.386 7.32823 104.386 7.31823 104.396C7.09823 104.606 6.82823 104.776 6.54823 104.856C6.51823 104.866 6.48823 104.866 6.45823 104.866C6.31823 104.856 6.17823 104.786 6.09823 104.656Z" fill="#FF00BF"/>
<path d="M3.24823 107.845C2.42823 107.535 3.34824 106.645 3.69824 106.325C4.70824 105.205 5.87823 104.235 6.90823 103.145C7.41823 102.585 7.85823 102.045 8.34823 101.475C8.68823 101.055 9.00823 100.565 9.52823 100.345C9.98823 100.075 10.5482 100.555 10.3482 101.055C10.6782 101.395 10.4582 102.045 10.0282 102.025C10.0082 101.945 9.96823 101.875 9.88823 101.825C9.77823 101.755 9.63824 101.795 9.53824 101.865C9.46824 101.925 9.40824 102.005 9.33823 102.075C9.28823 102.125 9.22823 102.175 9.18823 102.235C9.11823 102.325 9.05823 102.415 8.99823 102.515C8.99823 102.515 8.99823 102.515 8.99823 102.505C8.92823 102.605 8.85823 102.695 8.77823 102.785C8.69823 102.885 8.61823 102.985 8.52823 103.075C8.50823 103.095 8.49823 103.105 8.47823 103.125C8.48823 103.115 8.49823 103.105 8.50823 103.095C8.48823 103.115 8.46824 103.135 8.44824 103.155C8.45824 103.145 8.46823 103.135 8.47823 103.125C8.35823 103.245 8.24824 103.365 8.12824 103.485C8.02824 103.595 7.93823 103.705 7.83823 103.815C7.75823 103.895 7.67824 103.985 7.60824 104.075C7.51824 104.175 7.43823 104.265 7.34823 104.365C7.34823 104.365 7.34824 104.365 7.33823 104.375C7.33823 104.375 7.33824 104.375 7.32824 104.385C7.32824 104.395 7.31823 104.395 7.31823 104.395L7.32824 104.385C7.31824 104.395 7.30823 104.405 7.29823 104.415C7.29823 104.415 7.29824 104.415 7.30824 104.405C7.27824 104.435 7.25823 104.465 7.22823 104.495C6.83823 104.745 6.45824 104.975 6.08824 105.405C5.44824 106.085 4.84824 106.825 4.10824 107.395C3.90824 107.605 3.67824 107.855 3.37824 107.855C3.33824 107.865 3.28823 107.865 3.24823 107.845Z" fill="#FF00BF"/>
<path d="M7.32812 104.385C7.32812 104.385 7.32812 104.375 7.32812 104.385C7.33812 104.375 7.33812 104.375 7.32812 104.385C7.32812 104.375 7.32812 104.385 7.32812 104.385Z" fill="#FF00BF"/>
<path d="M8.85796 102.196C8.29796 101.856 8.74796 101.156 8.97796 100.776C9.24796 99.9857 10.448 99.8457 10.748 100.576C10.888 100.916 11.078 101.426 10.718 101.706C10.478 101.896 10.088 101.846 9.92796 101.576C9.87796 101.636 9.81796 101.716 9.75796 101.786C9.67796 101.776 9.58796 101.816 9.52796 101.866C9.45796 101.926 9.39796 102.006 9.32796 102.066C9.26796 102.116 9.21796 102.166 9.17796 102.226C9.16796 102.236 9.16796 102.246 9.15796 102.256C9.13796 102.256 9.12796 102.256 9.10796 102.256C9.03796 102.276 8.94796 102.246 8.85796 102.196Z" fill="#FF00BF"/>
<g filter="url(#filter0_d_61_1244)">
<path d="M28.1678 205.556C25.7478 204.396 24.0378 202.226 22.7478 199.956C20.6878 196.476 20.0578 192.406 20.5078 188.416C20.4978 186.256 21.8078 184.256 21.4678 182.106C21.2478 180.946 20.5278 179.876 19.4578 179.376C18.2978 179.096 17.1878 179.956 16.3378 180.656C15.4878 181.376 15.0178 182.396 14.4478 183.326C13.5578 184.706 12.5678 186.096 11.8578 187.566C11.4578 188.316 11.1478 189.116 10.9378 189.936C10.4178 190.596 9.91779 189.976 9.74779 189.396C8.73779 186.976 8.19779 184.366 7.76779 181.786C7.58779 177.236 8.30778 172.586 10.3678 168.506C11.0978 167.116 12.0278 165.816 13.0978 164.676C13.2778 164.496 13.5878 164.496 13.7678 164.676C13.9578 164.866 13.9478 165.156 13.7678 165.346C12.7978 166.536 11.8978 167.816 11.1878 169.186C9.29778 173.056 8.69779 177.366 8.83779 181.616C9.17779 183.796 9.73779 185.976 10.3978 188.086C10.9978 186.656 11.7678 185.286 12.6478 184.016C13.7578 182.466 14.4778 180.586 16.0578 179.436C17.2778 178.456 19.1378 177.596 20.5578 178.676C21.6478 179.446 22.4578 180.646 22.6678 181.976C22.9778 183.376 22.4778 184.736 22.1678 186.086C21.7478 188.126 21.7478 190.216 21.8078 192.286C22.2578 196.636 24.3478 201.056 27.8078 203.796C26.0178 195.416 32.8578 195.006 33.8378 188.146C34.3278 186.266 33.7478 184.346 32.7978 182.726C32.6178 182.176 31.8678 181.636 32.3978 181.056C32.8378 180.626 33.3978 181.066 33.5878 181.526C33.9778 181.996 34.4278 182.426 34.8778 182.846C35.9978 183.766 37.4478 184.176 38.5678 185.106C39.6078 185.916 40.2578 187.076 40.9378 188.176C41.3478 188.836 41.8578 189.496 41.9978 190.276C43.2378 188.326 44.4178 186.286 44.8978 184.026C45.2178 181.996 45.6778 179.906 45.3878 177.866C44.2978 173.956 42.2678 170.436 40.2578 166.946C39.5778 165.836 39.0078 164.656 38.4878 163.466C38.2078 162.756 37.7478 162.096 37.7478 161.316C37.7278 160.786 38.5078 160.556 38.7678 161.036C39.0978 161.656 39.5178 162.216 39.7978 162.846C40.6178 164.906 41.9178 166.676 42.9078 168.626C44.5678 171.786 46.5478 175.006 46.8578 178.636C46.7878 181.916 46.2878 185.296 44.6778 188.196C43.7978 189.756 42.8178 191.296 41.7878 192.746C41.3678 193.106 40.7378 192.706 40.8478 192.176C40.8678 191.586 40.9378 190.976 40.7678 190.406C40.5178 189.776 40.0378 189.266 39.7078 188.676C39.1778 187.816 38.6978 186.906 37.9178 186.246C37.0278 185.486 35.9378 185.066 34.9478 184.476C35.6978 187.446 34.9078 190.826 33.1478 193.306C31.7378 195.196 29.7778 196.756 29.0578 199.076C28.5978 200.876 28.6678 202.896 29.3878 204.576C29.8878 205.506 29.0178 206.066 28.1678 205.556Z" fill="#D6FF00"/>
</g>
<defs>
<filter id="filter0_d_61_1244" x="3.74121" y="156.773" width="47.1167" height="52.9756" filterUnits="userSpaceOnUse" color-interpolation-filters="sRGB">
<feFlood flood-opacity="0" result="BackgroundImageFix"/>
<feColorMatrix in="SourceAlpha" type="matrix" values="0 0 0 0 0 0 0 0 0 0 0 0 0 0 0 0 0 0 127 0" result="hardAlpha"/>
<feOffset/>
<feGaussianBlur stdDeviation="2"/>
<feComposite in2="hardAlpha" operator="out"/>
<feColorMatrix type="matrix" values="0 0 0 0 0.839216 0 0 0 0 1 0 0 0 0 0 0 0 0 0.7 0"/>
<feBlend mode="normal" in2="BackgroundImageFix" result="effect1_dropShadow_61_1244"/>
<feBlend mode="normal" in="SourceGraphic" in2="effect1_dropShadow_61_1244" result="shape"/>
</filter>
</defs>
</svg>
