<svg width="126" height="129" viewBox="0 0 126 129" fill="none" xmlns="http://www.w3.org/2000/svg">
<g filter="url(#filter0_d_24_3907)">
<path d="M21.3882 61.7643C18.0882 59.7443 15.2982 56.9943 11.9782 55.0143C10.2682 54.0143 8.71817 52.7943 7.25817 51.4743C6.35817 50.6043 5.06817 50.0443 4.43817 48.9443C4.16817 48.0843 5.06816 47.5943 5.80816 47.5743C8.96816 47.0843 11.9382 45.7243 15.1582 45.4443C17.9582 45.1243 20.7782 44.9743 23.5282 44.3143C24.4482 44.1343 25.3682 43.9843 26.2682 43.7243C26.4182 43.6543 26.6582 43.6643 26.6782 43.4743C26.7682 42.4343 26.1682 41.3243 25.8082 40.4343C24.9782 38.6443 24.0482 36.8943 23.1382 35.1443C22.2082 33.4143 21.4382 31.6143 20.6782 29.8043C19.8282 27.8743 18.6182 26.1243 17.8282 24.1743C17.5182 23.5543 17.4882 22.6843 18.2082 22.3443C18.8482 22.0443 19.6082 22.2243 20.2582 22.4043C21.7882 22.8843 23.0782 23.5243 24.5482 24.0943C26.4082 24.8343 28.1082 25.1643 29.9782 25.6643C33.1582 26.5443 36.2782 27.8343 38.9282 29.8043C39.5382 24.6543 40.1182 19.5643 40.2582 14.4043C40.3682 6.16432 42.4382 7.74432 46.3882 13.2043C47.5482 14.6243 48.8982 15.8843 50.0482 17.3243C51.9982 19.5443 53.5182 22.0743 55.1982 24.4943C56.1682 21.4843 58.2882 19.1143 60.0782 16.5843C61.3482 14.5643 62.4282 12.4343 63.9382 10.5643C64.8482 9.39432 65.6782 8.44431 66.4082 7.24431C70.6482 0.864313 70.3582 5.41432 71.5282 9.89432C71.9882 11.7643 72.3782 13.6443 72.6882 15.5343C73.4782 19.6143 74.7682 23.5843 75.5082 27.6743C78.4382 25.1543 81.6482 22.9643 85.3282 21.7143C87.7382 20.4243 90.4682 20.0843 92.9482 19.0043C100.078 15.6743 95.0782 25.1143 93.8982 27.8443C92.5082 30.6143 91.3182 33.4843 90.0082 36.2843C89.9382 36.9143 89.8182 37.7843 88.9882 37.7443C88.4982 37.7243 88.1682 37.3143 88.1582 36.8343C88.2682 35.0443 89.3082 33.4443 89.9482 31.8043C91.5382 27.9243 93.7182 24.2443 94.8682 20.1943C92.6682 21.4543 90.1282 21.7843 87.8282 22.7743C85.8082 23.7943 83.5982 24.3943 81.6582 25.5543C79.9482 26.5443 78.4882 27.8743 76.9382 29.0943C73.7882 31.3443 73.5182 27.5243 72.9882 25.3143C72.0481 21.5943 70.8782 17.6943 70.3782 13.9243C70.0182 11.5143 69.2982 9.18431 68.9682 6.77431C67.5482 9.00431 65.9682 11.1143 64.3982 13.2143C63.5882 14.3643 62.9382 15.6143 62.2382 16.8343C61.0282 18.9643 59.2882 20.7243 58.0182 22.8243C57.3882 23.9143 56.9982 25.1143 56.4782 26.2543C54.7882 28.7443 52.1582 23.0743 51.1782 21.9643C48.5082 18.1443 45.0982 14.9843 42.4182 11.1843C42.2182 16.3543 42.0482 21.5343 41.2182 26.6543C40.9282 28.1743 41.2782 31.5043 39.3582 31.8943C39.0282 31.9243 38.7382 31.7743 38.4582 31.6143C37.5682 31.0743 36.6782 30.5343 35.7782 30.0343C32.7782 28.3943 29.4682 27.5143 26.1682 26.7143C24.0582 26.1243 22.1182 25.0943 20.0882 24.3043C22.3582 28.0943 23.9082 32.2143 25.9782 36.0843C26.9182 38.3643 29.8882 42.7343 27.8382 44.9143C26.5982 45.7943 24.9782 45.9443 23.5282 46.3043C20.5982 47.0643 17.5682 47.1843 14.5782 47.5843C12.1382 47.9043 9.81817 48.7643 7.40817 49.2343C9.91817 51.2743 12.6182 53.0343 15.3382 54.7843C17.3182 56.2343 19.1682 57.8443 21.0682 59.3843C21.5082 59.7543 21.9382 60.1343 22.4082 60.4743C22.6882 60.5243 22.8882 60.7743 22.9582 61.0443C23.0582 61.9343 22.0182 62.1843 21.3882 61.7643Z" fill="#597FFC"/>
<path d="M66.1683 123.994C64.8783 122.914 64.2883 121.214 63.4683 119.784C62.3183 117.564 61.1483 115.354 59.8383 113.234C58.4083 110.924 56.8183 108.684 55.4283 106.344C54.5483 104.914 53.9183 103.284 52.7483 102.064C50.1683 104.014 48.3383 106.664 46.6383 109.384C45.7183 110.624 44.7183 111.794 43.7683 113.014C42.6883 114.464 41.8883 116.094 40.8283 117.564C38.3383 120.804 37.5483 118.444 36.9483 115.684C36.3083 112.124 35.9983 108.494 35.8383 104.884C35.7083 102.314 35.2583 100.004 34.8683 97.534C34.5783 96.114 34.6483 94.454 33.7983 93.244C30.8983 94.224 28.0083 95.624 25.1383 96.824C22.9083 97.794 21.0383 99.404 18.8083 100.344C17.5183 100.894 13.3783 102.094 13.1483 99.934C13.4483 97.624 14.5583 95.494 15.4483 93.364C16.7883 90.154 18.0283 86.884 19.6483 83.804C20.5783 82.084 21.5583 80.384 22.1583 78.514C18.7783 78.304 15.3783 78.404 12.0283 77.854C8.66827 77.354 0.00829029 77.144 6.13829 72.454C8.21829 70.714 10.5683 69.294 12.7383 67.764C14.7383 66.014 16.7883 64.294 18.9983 62.814C20.0083 62.184 21.0483 61.474 22.1483 61.084C22.7983 61.124 22.9183 61.964 22.4683 62.344C20.6583 63.644 18.8283 64.814 17.1083 66.244C15.6983 67.364 14.4283 68.654 12.9583 69.684C10.4283 71.284 7.85827 72.934 5.70827 75.024C8.38827 75.904 11.2283 75.764 13.9683 76.314C16.9383 76.694 19.9983 76.404 22.9383 77.034C25.3083 77.884 22.0783 82.634 21.4383 84.084C19.8983 87.034 18.6683 90.134 17.3783 93.204C16.4983 95.264 15.4983 97.274 14.8683 99.434C18.0283 99.334 20.4083 97.104 23.0583 95.674C26.4683 94.154 29.9183 92.584 33.5083 91.524C36.0283 91.434 36.2883 94.754 36.6583 96.614C38.1883 103.244 37.5083 110.144 39.0783 116.744C40.8183 113.734 42.6983 110.834 45.0383 108.234C46.5583 106.054 47.8983 103.704 49.9583 101.974C50.7683 101.364 51.4883 100.454 52.4983 100.204C54.1383 100.004 55.1483 101.964 55.8783 103.084C58.0983 106.994 60.8783 110.574 63.0283 114.544C64.4883 117.024 65.5383 119.734 66.8983 122.234C67.6983 120.294 67.7183 118.144 68.1683 116.104C68.4683 114.204 68.9183 112.324 69.1583 110.404C69.4383 107.774 69.5383 105.134 69.6483 102.494C69.8183 101.124 69.4683 99.584 70.3483 98.474C71.1183 97.574 72.1983 98.144 72.9383 98.754C74.3683 99.774 75.8883 100.654 77.3183 101.674C79.3483 103.164 81.2583 104.994 83.2683 106.384C84.5483 107.364 85.9183 108.234 87.1883 109.234C87.8083 109.824 89.1283 110.444 88.5283 111.464C88.2383 111.904 87.6483 112.024 87.2083 111.744C84.5683 109.794 81.7383 108.094 79.2283 105.944C76.9383 103.704 74.1683 102.124 71.6083 100.234C71.4883 105.384 71.2183 110.554 70.1283 115.594C69.5483 117.584 69.5583 125.484 66.1683 123.994Z" fill="#597FFC"/>
<path d="M88.0083 111.974C87.0283 111.684 87.2483 110.244 87.0783 109.434C86.8383 106.864 86.8883 104.274 86.7183 101.694C86.5183 98.3544 85.6583 95.1044 85.1683 91.8044C85.0283 91.0844 84.8983 90.1644 84.8083 89.4744C84.7083 89.0344 84.8283 88.5544 85.2283 88.3144C86.2683 87.7344 87.5383 88.3244 88.6183 88.5144C90.1583 88.8644 91.7083 89.1444 93.2883 89.2244C96.4583 89.2344 99.5183 88.9944 102.668 89.3844C104.778 89.6544 106.808 90.3444 108.918 90.6344C106.068 87.1144 103.538 83.3944 100.988 79.6544C99.5883 78.2344 98.2483 76.7444 96.9283 75.2644C96.1783 74.9644 96.0483 73.8944 96.7383 73.4444C97.3283 73.0344 98.0583 73.0144 98.7483 72.9444C101.578 72.7044 104.168 71.4844 106.808 70.5544C110.898 69.2044 114.978 67.8744 118.988 66.3044C115.758 64.9344 112.588 63.4444 109.518 61.7444C107.818 61.1644 106.028 60.9444 104.368 60.2444C102.308 59.4644 100.278 59.2044 98.2683 58.4844C96.4383 57.8344 97.5583 56.0644 98.4183 55.0644C100.778 52.1844 103.788 49.6844 106.308 46.9844C108.568 44.6544 110.738 42.2044 112.888 39.7644C110.898 39.6544 108.898 40.0744 106.898 39.9944C103.368 40.1644 99.8583 39.6944 96.3283 39.6744C94.3683 39.6944 92.3783 39.6144 90.5583 38.8144C89.5883 38.4544 87.1483 38.1644 88.0283 36.6544C88.3483 36.2644 88.8683 36.3044 89.2683 36.5244C90.3183 36.9044 91.3983 37.2044 92.4683 37.5544C94.2783 37.9044 96.1383 37.6844 97.9583 37.7544C99.6983 37.8244 101.438 38.0544 103.188 38.0544C105.058 38.0644 106.858 37.9744 108.678 37.9644C110.458 38.0644 114.248 36.9844 114.808 39.3444C114.788 40.4644 113.878 41.3444 113.238 42.1844C112.698 42.8444 112.138 43.4844 111.578 44.1344C107.768 48.6544 103.198 52.5044 99.3483 56.9644C102.058 57.4044 104.668 58.1844 107.268 59.0444C108.318 59.2944 109.398 59.4644 110.388 59.8844C112.178 60.6844 113.798 61.8144 115.598 62.6044C117.208 63.3544 118.828 64.0844 120.358 64.9944C121.878 65.8044 122.128 67.0244 120.268 67.5844C118.128 68.4444 116.118 69.6044 113.898 70.2644C110.598 71.3444 107.318 72.4644 104.048 73.6444C102.448 74.2044 100.778 74.6644 99.0783 74.7944C100.368 76.2744 101.818 77.6044 103.028 79.1544C105.058 82.0444 107.028 84.9844 109.118 87.8444C109.978 89.0044 112.168 91.4744 109.928 92.3344C107.358 92.6544 104.888 91.5244 102.358 91.2644C99.6083 91.0244 96.8483 91.0944 94.1483 91.1844C91.5683 91.1744 89.0483 90.5844 86.5683 89.9544C87.1283 93.0644 87.7083 96.1644 88.2383 99.2744C88.6683 102.654 88.5483 106.074 88.7583 109.474C88.7383 110.294 89.3383 112.034 88.0083 111.974Z" fill="#597FFC"/>
</g>
<defs>
<filter id="filter0_d_24_3907" x="0" y="0.0898438" width="125.582" height="128.09" filterUnits="userSpaceOnUse" color-interpolation-filters="sRGB">
<feFlood flood-opacity="0" result="BackgroundImageFix"/>
<feColorMatrix in="SourceAlpha" type="matrix" values="0 0 0 0 0 0 0 0 0 0 0 0 0 0 0 0 0 0 127 0" result="hardAlpha"/>
<feOffset/>
<feGaussianBlur stdDeviation="2"/>
<feComposite in2="hardAlpha" operator="out"/>
<feColorMatrix type="matrix" values="0 0 0 0 0 0 0 0 0 0.992157 0 0 0 0 1 0 0 0 1 0"/>
<feBlend mode="normal" in2="BackgroundImageFix" result="effect1_dropShadow_24_3907"/>
<feBlend mode="normal" in="SourceGraphic" in2="effect1_dropShadow_24_3907" result="shape"/>
</filter>
</defs>
</svg>
