<svg width="61" height="64" viewBox="0 0 61 64" fill="none" xmlns="http://www.w3.org/2000/svg">
<g filter="url(#filter0_d_24_3863)">
<path d="M32.7146 48.757C32.0146 48.657 32.0046 47.867 32.1746 47.327C32.3846 46.427 32.6345 45.527 32.8145 44.617C33.7145 41.187 34.4746 37.717 35.5446 34.327C34.3646 34.737 30.1646 35.557 31.3246 33.127C32.4746 29.477 33.9646 26.067 35.3846 22.537C35.7446 21.677 35.9846 20.987 36.2346 20.157C36.5246 19.647 37.2746 19.707 37.7246 19.807C40.1846 19.817 42.6145 19.627 45.0345 19.847C46.2445 19.997 49.4146 19.477 48.3846 21.637C47.1346 23.877 45.2646 25.747 43.6046 27.687C45.9446 27.417 50.4746 27.067 47.8046 30.637C46.3446 32.877 44.6046 34.917 42.9846 37.037C40.8046 39.637 38.5246 42.127 36.4046 44.777C35.6746 45.627 35.0346 46.557 34.3546 47.437C33.9046 47.947 33.4846 48.797 32.7146 48.757ZM37.0546 32.967C37.3746 33.387 37.1845 33.977 37.0645 34.437C36.8745 35.157 36.6746 35.877 36.4746 36.597C35.8046 39.227 35.1646 41.857 34.4746 44.487C38.6646 39.377 43.3246 34.617 46.9546 29.097C45.5146 28.977 44.0546 29.167 42.6546 29.257C42.2746 29.277 41.8446 29.307 41.5846 28.967C41.0546 27.977 42.3545 26.877 42.8745 26.197C44.1545 24.557 45.5845 22.997 46.8745 21.387C43.6845 21.247 40.5246 21.387 37.3846 21.177C36.2746 25.357 34.0946 29.197 32.7946 33.327C33.9646 33.327 35.0446 32.777 36.1846 32.687C36.4946 32.667 36.8346 32.687 37.0546 32.967Z" fill="#597FFC"/>
<path d="M24.7944 46.6472C20.0244 45.8272 18.3344 40.7672 18.4044 36.4672C18.3544 28.6572 23.4844 22.3472 26.4544 15.4972C27.4744 12.4972 29.6244 16.2172 30.4944 17.6472C31.6344 19.6972 33.5144 21.2872 34.3244 23.5272C34.5844 24.1472 34.7244 24.8372 35.0644 25.4172C35.6044 25.9472 34.8544 26.8072 34.2444 26.3472C33.1744 25.4272 32.9044 23.8272 32.1144 22.7072C31.1344 21.2572 29.9944 19.9072 29.0944 18.3972C28.6644 17.6472 28.2644 16.8672 27.6944 16.2072C25.5944 22.1772 21.2744 27.2672 20.3544 33.6472C19.7444 37.4172 20.0644 43.1172 24.1744 44.6972C27.0544 45.7672 30.4044 45.1372 32.8544 43.3472C33.1444 43.1472 33.4844 43.0072 33.8444 43.1172C34.2944 43.2572 34.4644 43.8272 34.1244 44.1672C31.5644 46.3072 28.0844 47.5572 24.7944 46.6472Z" fill="#597FFC"/>
<path d="M24.8546 40.7974C23.0746 40.0774 22.3546 38.0474 22.3246 36.2474C22.3246 35.7474 22.2045 35.0974 22.7545 34.8374C23.2145 34.5174 23.8846 34.9974 23.7146 35.5274C23.8646 37.0874 24.0746 38.8474 25.6846 39.5674C26.4046 40.1274 25.6346 41.2474 24.8546 40.7974Z" fill="#597FFC"/>
<path d="M24.6545 60.1369C24.1745 59.9669 23.7245 59.7169 23.2745 59.5169C22.9745 59.3969 22.6645 59.2969 22.3645 59.1769C22.0045 59.2469 21.6245 59.1069 21.3045 58.9269C20.4245 58.4669 19.5745 57.9669 18.7045 57.4969C17.3445 56.7269 15.8745 56.1769 14.5545 55.3269C10.1445 52.1869 5.40451 48.8769 3.67451 43.4969C3.13451 41.9869 2.55451 40.4769 2.23451 38.8969C1.87451 35.8569 2.04451 32.9269 2.01451 29.8969C2.29451 27.6769 2.34451 25.497 2.81451 23.317C3.42451 20.587 4.7245 18.147 5.9945 15.697C8.7145 10.287 13.6645 6.39694 19.0345 3.80694C21.0945 2.61694 23.3445 1.81693 25.7245 1.60693C28.1245 1.28693 30.5445 1.04696 32.9645 1.28696C40.6245 2.37696 47.8645 6.64695 52.5945 12.7469C54.5445 15.4669 56.9045 18.087 57.7145 21.417C58.1445 23.377 58.2345 25.417 58.4045 27.417C58.3145 29.617 57.8745 31.847 57.4945 34.007C57.2945 36.377 56.7145 38.677 55.9845 40.937C55.2345 42.837 54.0845 44.5769 52.9545 46.2669C51.3545 48.0969 49.7245 49.9369 47.8245 51.4569C45.2045 53.2269 42.6145 55.057 39.9845 56.817C36.8045 58.797 33.1045 59.6669 29.4145 59.9969C27.8545 60.1269 26.2045 60.6969 24.6545 60.1369ZM25.9045 58.7969C28.6345 58.4369 31.5845 58.1369 34.2145 57.4969C36.5745 56.8169 38.7845 55.6569 40.7745 54.2369C43.0145 52.5569 45.4245 51.117 47.6145 49.377C49.4745 47.507 51.5345 45.7069 52.8045 43.3669C55.0845 40.1469 55.4945 36.147 56.1045 32.347C56.6545 29.797 56.9445 27.1369 56.4945 24.5569C56.4445 22.6269 55.9945 20.667 55.0245 19.007C51.8345 14.067 47.9945 9.30694 42.7545 6.48694C36.9045 3.24694 32.5345 2.24694 25.9345 3.30694C23.6445 3.50694 21.5245 4.32695 19.5445 5.46695C14.7545 7.72695 10.3945 11.1669 7.7745 15.8269C6.4145 18.3469 5.01451 20.8369 4.33451 23.6469C3.85451 26.0169 3.6645 28.6369 3.5745 31.0169C3.6545 34.5569 3.22451 38.1269 4.61451 41.4569C6.07451 47.0769 9.91451 50.1469 14.4045 53.3669C16.8245 55.1069 19.6745 56.1069 22.1345 57.8069C23.4245 57.4469 24.6145 58.7369 25.9045 58.7969Z" fill="#597FFC"/>
</g>
<defs>
<filter id="filter0_d_24_3863" x="0" y="0.189453" width="60.4045" height="63.1895" filterUnits="userSpaceOnUse" color-interpolation-filters="sRGB">
<feFlood flood-opacity="0" result="BackgroundImageFix"/>
<feColorMatrix in="SourceAlpha" type="matrix" values="0 0 0 0 0 0 0 0 0 0 0 0 0 0 0 0 0 0 127 0" result="hardAlpha"/>
<feOffset dy="1"/>
<feGaussianBlur stdDeviation="1"/>
<feComposite in2="hardAlpha" operator="out"/>
<feColorMatrix type="matrix" values="0 0 0 0 0.133333 0 0 0 0 0.337255 0 0 0 0 1 0 0 0 1 0"/>
<feBlend mode="normal" in2="BackgroundImageFix" result="effect1_dropShadow_24_3863"/>
<feBlend mode="normal" in="SourceGraphic" in2="effect1_dropShadow_24_3863" result="shape"/>
</filter>
</defs>
</svg>
