<svg width="63" height="59" viewBox="0 0 63 59" fill="none" xmlns="http://www.w3.org/2000/svg">
<path d="M51.4315 58.111C50.7915 57.331 51.9515 56.711 52.4315 56.271C54.5715 54.471 56.1115 51.971 57.2715 49.461C59.0715 44.911 60.3715 40.001 60.8615 35.191C61.1215 32.781 61.3515 30.211 60.4015 27.911C59.1515 24.491 54.7415 24.831 52.3315 26.791C48.7615 29.611 45.9415 33.341 42.0215 35.741C38.7415 37.931 34.7415 38.531 30.8915 38.861C27.6715 39.041 24.5015 38.111 21.4415 37.201C15.4015 35.371 10.4015 32.111 6.39152 27.231C2.00152 22.391 -0.658476 15.421 0.141524 8.89102C0.411524 6.90102 3.05153 -0.608999 5.57153 0.221001C5.97153 0.401001 6.04153 0.961 5.72153 1.251C5.48153 1.441 5.15154 1.49099 4.95154 1.74099C4.07154 2.77099 3.51154 4.031 2.95154 5.251C0.241537 11.171 2.22154 18.151 5.62154 23.381C9.05154 27.981 13.3715 32.121 18.8115 34.211C22.7815 35.701 26.9715 37.241 31.2715 37.021C41.5315 36.351 43.6515 32.231 50.6415 25.991C53.2215 23.801 57.3915 22.671 60.2215 25.011C62.8515 27.361 62.9015 31.281 62.6115 34.541C62.2215 38.751 61.4215 42.931 59.9415 46.901C59.0015 50.101 57.4615 53.051 55.3515 55.641C54.7915 56.301 52.1715 59.081 51.4315 58.111Z" fill="#00FDFF"/>
</svg>
