<svg width="71" height="112" viewBox="0 0 71 112" fill="none" xmlns="http://www.w3.org/2000/svg">
<g filter="url(#filter0_d_27_1071)">
<path d="M19.214 19.5002C13.164 19.6002 9.75399 14.1101 10.264 8.51015C10.434 6.89015 10.534 3.68016 12.284 3.02016C12.064 2.02016 13.454 1.59016 14.204 1.36016C17.704 0.360155 21.574 1.52016 24.284 3.88016C27.034 6.49016 27.474 10.7702 26.654 14.3102C25.944 17.6202 22.554 19.9202 19.214 19.5002ZM20.624 17.8402C25.844 17.2402 26.314 10.4801 24.424 6.65015C22.484 3.10015 16.734 1.40015 13.244 3.48015C13.374 3.86015 13.084 4.27015 12.724 4.31015C12.084 5.47015 12.044 6.85015 11.924 8.14015C11.714 10.8102 12.284 13.6602 14.094 15.6902C15.674 17.5902 18.294 17.8902 20.624 17.8402Z" fill="#D6FF00"/>
<path d="M2.1639 84.0902C1.7639 78.8902 1.8839 73.3102 5.0039 68.8802C7.8039 65.2902 12.4139 62.6402 17.0739 63.3202C16.7039 58.5902 16.1739 53.7602 15.8539 49.0502C15.5339 44.5002 15.7539 39.9202 15.4939 35.3702C15.1739 31.3302 15.1639 27.1402 15.1039 23.1202C15.0339 22.1402 14.8839 21.1602 14.8139 20.1702C14.7639 19.5702 14.4839 18.6202 15.3139 18.4702C16.1939 18.4002 16.1239 19.4302 16.1939 20.0402C16.5639 22.4702 16.6039 24.9102 16.5939 27.3602C16.6439 30.9802 16.9839 34.3802 17.1039 37.9402C17.0639 44.6902 17.4539 51.3902 18.0639 58.0702C18.1539 59.3202 18.2839 60.5602 18.4039 61.8102C18.4139 62.7202 18.7839 63.9802 17.9339 64.6102C17.4739 64.8602 16.9439 64.6702 16.4639 64.6302C16.0239 64.6102 15.5839 64.6402 15.1939 64.6702C11.9539 64.8102 8.96391 66.7102 6.80391 69.0302C3.99391 72.3802 3.40392 76.8802 3.52392 81.1102C3.51392 81.8502 3.50391 82.5902 3.48391 83.3402C3.51391 83.8202 3.40389 84.5002 2.78389 84.5002C2.50389 84.4902 2.2639 84.3302 2.1639 84.0902Z" fill="#D6FF00"/>
<path d="M23.2739 56.3206C22.3739 53.3606 22.6539 50.1206 22.3839 47.1006C21.9139 41.1006 22.2439 35.0806 21.9739 29.0706C21.9039 27.5706 21.8239 26.0706 21.7339 24.5706C21.6939 22.4806 21.2639 20.3206 21.7639 18.2706C22.0139 17.5006 23.1439 17.4806 23.0839 18.4006C22.7439 19.5006 22.9739 20.7906 23.0139 21.9006C23.2239 24.7906 23.4639 27.6706 23.5339 30.5706C23.6839 36.3806 23.4439 42.1906 23.8539 47.9906C23.9639 50.5006 23.9539 52.9606 24.3639 55.4306C24.5039 55.8606 24.6639 56.4606 24.1239 56.6806C23.8039 56.8006 23.4039 56.6506 23.2739 56.3206Z" fill="#D6FF00"/>
<path d="M18.5979 14.55C15.1415 14.5054 14.3261 12.2569 14.3667 9.22235C14.4497 7.85022 15.0618 6.21186 16.5249 5.83533C17.8249 4.96093 19.4988 5.5198 20.5932 6.45964C21.7067 7.3878 22.4832 8.71625 22.9209 10.0738C23.4778 12.5854 20.7665 14.3236 18.5979 14.55Z" fill="#FF00BF"/>
</g>
<defs>
<filter id="filter0_d_27_1071" x="0" y="0" width="345.534" height="425.24" filterUnits="userSpaceOnUse" color-interpolation-filters="sRGB">
<feFlood flood-opacity="0" result="BackgroundImageFix"/>
<feColorMatrix in="SourceAlpha" type="matrix" values="0 0 0 0 0 0 0 0 0 0 0 0 0 0 0 0 0 0 127 0" result="hardAlpha"/>
<feOffset dy="1"/>
<feGaussianBlur stdDeviation="1"/>
<feComposite in2="hardAlpha" operator="out"/>
<feColorMatrix type="matrix" values="0 0 0 0 0.839216 0 0 0 0 1 0 0 0 0 0 0 0 0 1 0"/>
<feBlend mode="normal" in2="BackgroundImageFix" result="effect1_dropShadow_27_1071"/>
<feBlend mode="normal" in="SourceGraphic" in2="effect1_dropShadow_27_1071" result="shape"/>
</filter>
</defs>
</svg>
