<svg width="67" height="97" viewBox="0 0 67 97" fill="none" xmlns="http://www.w3.org/2000/svg">
<path d="M54.3424 72.2965C54.0424 72.0665 54.0223 71.7165 54.1023 71.3765C54.1923 63.7565 54.1624 56.1165 53.9124 48.4965C53.6624 43.9165 52.2124 39.3365 49.9024 35.4165C48.1624 32.9565 46.2224 30.6265 44.1624 28.4365C42.1024 26.8965 39.6024 25.6865 37.0524 25.4265C33.3024 25.4865 29.7924 25.8565 26.1324 26.3565C24.5724 26.5865 23.3424 27.5765 22.1924 28.5865C18.7824 31.1065 16.3724 34.6765 14.5024 38.4365C12.7324 42.5565 11.3524 46.9465 11.0024 51.4065C10.9024 54.7765 11.2024 58.1465 11.1724 61.5265C11.2424 64.1765 11.5323 66.8165 11.2923 69.4665C11.8023 69.9865 11.0924 70.9065 10.4524 70.6965C9.78238 70.5165 9.83238 69.6865 9.82238 69.1365C9.81238 68.0965 9.80236 67.0465 9.74236 66.0065C9.51236 63.4665 9.42237 60.9265 9.44237 58.3765C9.16237 54.1365 8.95239 49.8565 10.0824 45.7065C11.7824 38.7265 14.9624 31.7565 20.7424 27.2765C22.0524 26.1365 23.4424 25.0165 25.1724 24.6165C28.5624 23.9265 32.0424 23.7165 35.4924 23.4765C38.2324 23.1765 40.8524 24.2265 43.2424 25.4665C44.8724 26.2465 46.1824 27.5065 47.3024 28.9065C48.4224 30.2365 49.6024 31.5365 50.6124 32.9565C52.8024 35.7465 53.9324 39.1365 54.9924 42.4665C55.9524 45.8565 56.0023 49.3965 56.0423 52.8965C56.1223 57.8465 56.0724 62.7965 56.0224 67.7465C55.9224 68.9865 56.4324 73.1665 54.3424 72.2965Z" fill="#9A00FF"/>
<path d="M29.4127 96.8769C26.0427 96.7869 22.6826 96.6468 19.3226 96.5068C15.2826 96.2968 11.0127 96.0068 7.28267 94.3368C2.90267 92.5368 -0.417383 90.0268 0.0426174 84.8368C-0.0573827 81.9968 0.0226734 78.8568 2.16267 76.7068C4.47267 74.2168 7.45262 72.2468 10.7326 71.3268C13.4426 70.7068 16.4427 70.8268 19.1627 70.7968C23.5427 70.8668 27.8626 70.7968 32.2326 70.7668C35.6426 70.7868 39.0527 70.9668 42.4627 71.0068C45.5227 70.9968 48.5626 70.7468 51.6126 70.5968C52.0026 70.3668 52.5026 70.5268 52.9326 70.5268C53.5526 70.5368 54.3126 70.3668 54.8226 70.8268C62.4426 72.5968 67.2626 76.8369 66.2626 85.1269C66.0026 90.4069 61.6727 93.3768 57.0327 94.8268C54.6327 95.7768 52.0226 95.8968 49.4826 96.0868C42.8026 96.4668 36.1127 97.0569 29.4127 96.8769ZM37.5126 94.8968C40.8026 94.7168 44.1027 94.5068 47.3927 94.3268C50.6627 94.1568 54.0227 94.1269 57.0827 92.8169C59.0927 92.1669 60.9626 91.2268 62.4326 89.6768C64.8126 87.2268 64.7727 83.2869 64.2227 80.1269C63.3627 76.9569 61.2426 75.1768 58.3526 73.8468C56.4926 73.0568 54.5726 72.4068 52.5626 72.1468C49.7226 72.1268 46.8626 72.6268 44.0026 72.6068C40.2726 72.6568 36.5027 72.4468 32.7727 72.3668C28.7027 72.3768 24.5426 72.4369 20.4926 72.3769C14.5526 72.3869 10.6226 71.8668 5.68263 75.8368C4.12263 77.1368 2.38266 78.6168 2.02266 80.7168C1.83266 82.0268 1.89265 83.3468 1.89265 84.6668C1.91265 85.7968 1.76264 86.9868 2.19264 88.0568C3.75264 91.7468 9.92263 93.6968 13.6126 94.1568C18.3126 94.7168 23.0527 94.7668 27.7827 94.9268C31.0327 95.0568 34.2726 95.1168 37.5126 94.8968Z" fill="#9A00FF"/>
<path d="M50.8328 89.5067C48.9828 89.1167 46.9628 88.2668 46.2728 86.3568C45.6328 83.8568 46.1128 80.6568 48.2928 79.0468C50.6428 77.3868 54.2128 76.9768 56.6928 78.5668C57.5828 79.2068 58.3028 80.0668 58.9428 80.9368C59.1628 81.1568 59.2228 81.5468 59.0028 81.7968C59.6728 83.1468 58.7228 84.6368 58.3628 85.9568C57.4028 89.3768 54.0028 90.3567 50.8328 89.5067ZM53.2328 88.2868C56.2628 88.3668 57.0228 85.5767 57.7328 83.1967C57.8028 82.7267 57.5828 82.1368 57.9228 81.7368C57.0328 80.7868 56.1528 79.6868 54.8628 79.2968C52.5928 78.8068 49.6628 79.2468 48.3128 81.3168C47.6428 82.5468 47.5528 84.0068 47.6428 85.3768C48.1028 87.8268 51.2128 88.0868 53.2328 88.2868Z" fill="#597FFC"/>
<path d="M11.1725 89.3466C5.80251 89.0266 4.5325 83.2866 7.67251 79.5266C9.52251 77.2566 13.2125 76.9466 15.6425 78.4266C17.0825 79.4066 18.1925 81.0966 18.4425 82.8266C19.2025 84.0266 18.4525 85.5066 17.7525 86.5666C16.3225 88.6766 13.6725 89.6266 11.1725 89.3466ZM12.1925 87.7866C14.5025 87.8366 17.0825 86.1666 17.2325 83.7366C17.1125 83.6166 17.0425 83.4466 17.0425 83.2766C16.9025 82.1866 16.1325 81.2266 15.4325 80.4066C13.8825 78.8066 11.0725 78.8066 9.40255 80.2066C6.68255 83.5066 7.22252 87.8566 12.1925 87.7866Z" fill="#597FFC"/>
<g filter="url(#filter0_d_24_4017)">
<path d="M17.5425 83.8465C17.5725 82.8365 18.8725 83.2665 19.5325 83.1065C22.8325 82.9165 26.1425 82.7765 29.4425 82.7265C34.7825 82.3865 40.1625 82.5565 45.5025 82.6665C46.0125 82.6965 46.7825 82.8665 46.6525 83.5265C46.5825 83.8465 46.2525 84.0566 45.9325 83.9866C43.3325 83.9966 40.6025 84.1165 38.0625 83.9565C33.8425 83.9465 29.6325 84.1865 25.4125 84.2165C23.4525 84.2865 21.4925 84.3265 19.5325 84.4165C18.8925 84.3565 17.6825 84.7865 17.5425 83.8465Z" fill="#597FFC"/>
</g>
<path d="M22.6328 16.5368C18.1028 16.4468 10.9828 17.2268 7.8928 13.3468C5.9828 11.0068 5.90279 7.52676 7.94279 5.24676C10.7228 2.23676 15.0928 1.80678 18.9028 1.01678C20.4028 0.756784 21.9428 0.816773 23.4528 0.786773C26.5728 0.706773 29.6828 0.366776 32.8028 0.476776C35.9628 0.606776 39.1228 0.806775 42.2928 0.756775C46.2128 0.776775 50.3428 0.566771 54.0228 2.09677C55.4528 2.72677 57.3228 3.78678 57.0128 5.60678C58.4128 7.05678 57.6928 9.48678 57.3528 11.2268C56.5328 16.9668 45.7128 16.5068 41.3028 16.5668C35.0828 16.1768 28.8628 16.7468 22.6328 16.5368ZM21.1728 14.8468C28.2028 15.1268 35.2228 14.5768 42.2528 14.9368C45.0428 14.8968 47.9628 14.9268 50.6628 14.3168C52.1228 13.9868 53.7028 13.6668 54.8528 12.6368C55.4028 12.1568 55.7328 11.5368 55.7628 10.8068C55.9228 9.92676 56.1128 9.13678 56.1828 8.26678C56.2828 7.46678 55.6528 6.57676 56.0728 5.83676C55.7628 5.54676 55.7628 5.12676 55.5928 4.77676C52.1528 1.96676 47.3328 2.38677 43.1428 2.31677C40.0028 2.34677 36.8528 2.22677 33.7028 2.06677C30.5928 1.92677 27.4828 2.20678 24.3628 2.29678C21.8228 2.32678 19.2328 2.27679 16.7628 2.95679C14.0428 3.56679 11.0228 4.13676 9.07279 6.30676C7.19279 8.46676 7.92279 11.6868 10.1328 13.3168C13.4828 15.1468 17.5028 14.7968 21.1728 14.8468Z" fill="#597FFC"/>
<path d="M24.3627 22.8765C23.9727 21.3165 24.0327 19.6564 24.1127 18.0864C24.1327 17.6164 24.1027 17.0365 24.6427 16.8465C24.8827 16.7565 25.1727 16.8465 25.3327 17.0465C25.6027 17.4265 25.5427 17.9365 25.6027 18.3765C25.6127 19.8465 25.8327 21.3565 25.7427 22.8165C25.5927 23.5165 24.5827 23.5565 24.3627 22.8765Z" fill="#00FDFF"/>
<path d="M28.4328 22.3168C28.0628 21.1168 28.2528 19.8167 28.2228 18.5867C28.2328 18.2467 28.2228 17.8168 28.4428 17.5368C29.1128 16.8368 29.7528 17.5367 29.6828 18.3267C29.7828 19.2667 29.8228 20.2067 29.8428 21.1467C29.8728 21.7367 29.8728 22.7368 29.0728 22.7268C28.8128 22.7168 28.5528 22.5868 28.4328 22.3168Z" fill="#00FDFF"/>
<path d="M32.0526 22.1769C31.7426 20.9669 31.8927 19.6969 31.9527 18.4669C31.8927 17.9369 32.0827 17.1569 32.7727 17.3069C33.8927 17.6469 33.3626 20.9869 33.4826 22.0169C33.4326 22.7969 32.2626 22.9169 32.0526 22.1769Z" fill="#00FDFF"/>
<path d="M36.1725 22.5169C35.8625 21.0369 36.0126 19.4769 36.0226 17.9769C36.0926 17.1669 37.3326 16.9269 37.4126 17.8469C37.5926 18.9969 37.7025 20.1569 37.6325 21.3269C37.6425 21.9369 37.7225 22.9569 36.8825 23.0169C36.5525 23.0269 36.2825 22.8169 36.1725 22.5169Z" fill="#00FDFF"/>
<path d="M40.7624 23.0968C40.0624 21.7568 40.4824 20.1568 40.4924 18.7168C40.4324 18.1468 40.5224 17.2568 41.2024 17.1868C41.7124 17.0868 42.1124 17.6868 41.8624 18.1168C42.0524 19.7068 42.1524 21.3868 41.9424 22.9668C41.7424 23.4668 41.0424 23.5468 40.7624 23.0968Z" fill="#00FDFF"/>
<path d="M10.4029 72.4265C10.2529 72.3065 10.1629 72.1465 10.1429 71.9665C10.1329 71.8765 10.1329 71.7965 10.1329 71.7065C9.97287 71.2965 9.95286 70.8365 9.94286 70.3965C9.92286 70.0065 9.88287 69.5165 10.2029 69.2365C10.7429 68.7965 11.5329 69.4365 11.5129 70.0465C11.6129 70.6765 11.5329 71.2865 11.3729 71.8965C11.3929 72.3765 10.7929 72.7265 10.4029 72.4265Z" fill="#9A00FF"/>
<path d="M10.5828 72.2765C9.38281 72.1565 9.89278 70.3764 9.86278 69.5764C9.76278 68.6664 9.84281 67.7665 9.83281 66.8565C9.82281 66.6665 9.90281 66.4865 10.0228 66.3565C9.99281 65.5665 9.49282 63.1065 10.9028 63.5565C11.1828 63.7065 11.2328 63.9764 11.2628 64.2564C11.3328 64.9364 11.3728 65.6165 11.3928 66.3065C11.5428 67.9065 11.7328 69.5165 11.8328 71.1165C11.9328 71.5065 11.7928 71.9665 11.3428 72.0665C11.0628 72.0765 10.8528 72.2665 10.5828 72.2765Z" fill="#9A00FF"/>
<path d="M33.9331 57.8265C26.2031 56.2765 23.6931 47.5665 23.1931 40.6965C23.0931 38.1265 23.4931 35.4765 23.4531 32.9465C23.4531 32.5665 23.4231 32.1765 23.5231 31.8065C23.6931 31.2165 24.6431 31.2565 24.7431 31.8765C25.4031 35.2365 24.5531 38.6765 25.0531 42.0365C25.7631 46.3965 26.9031 51.1765 30.4631 54.1065C31.9831 55.1865 33.8031 56.2965 35.7331 55.9965C36.9331 55.7065 38.5931 55.5065 39.1131 54.2165C40.0231 51.9765 40.9731 49.7265 41.2331 47.2965C41.4731 44.5165 41.7631 41.7365 41.7931 38.9465C41.7131 36.7665 41.6131 34.5865 41.4831 32.4065C41.5331 31.4965 40.8431 29.5365 42.1231 29.3465C43.3931 29.3065 43.0931 31.4565 43.2931 32.3165C43.5431 35.6065 43.8931 38.9165 43.6331 42.2265C43.4331 44.7965 43.3731 47.3965 42.7531 49.8965C42.3931 51.3965 41.7431 52.7065 41.2231 54.1065C40.4231 57.2065 36.7831 58.2065 33.9331 57.8265Z" fill="#597FFC"/>
<path d="M35.3832 68.2665C30.5832 67.6865 25.9732 65.0265 22.9732 61.2465C20.5432 57.6765 19.4131 53.2765 18.6731 49.0665C18.6331 47.7965 17.1032 41.7065 18.7932 41.6665C19.1432 41.6865 19.3731 41.9765 19.3731 42.2765C19.2631 44.3965 19.8132 46.4665 20.1332 48.5465C20.8132 52.1965 21.8131 55.8865 23.5631 59.1765C26.5331 63.9065 32.2432 66.7165 37.7732 66.7665C45.6032 66.0665 45.9732 53.3365 47.0832 47.3965C47.2132 46.1565 47.3632 44.9865 47.3432 43.8365C47.4532 42.9765 46.7532 41.3165 47.9632 41.0865C49.9732 40.8565 48.4031 49.6265 48.2431 50.9465C47.3431 58.1365 45.0032 69.8665 35.3832 68.2665Z" fill="white"/>
<path d="M32.4831 45.9565C28.8531 45.0965 28.6532 40.3965 28.0332 37.3965C27.9132 36.3165 26.9431 28.9065 28.4931 29.2165C28.8031 29.2365 29.1031 29.4965 29.1131 29.8165C29.0731 33.1065 29.1732 36.4265 29.9432 39.6465C30.4932 42.4165 31.2432 45.3865 34.7732 44.4165C36.7632 43.7465 37.0631 41.2265 37.4931 39.4465C37.6131 37.7665 37.4432 36.0965 37.3832 34.4265C37.4232 33.4365 36.6932 29.6265 38.1932 29.7065C38.9732 29.8965 38.5632 30.7865 38.5932 31.3465C38.7732 34.2565 39.3431 37.2065 38.9231 40.1165C38.2631 43.7465 36.6431 46.6265 32.4831 45.9565Z" fill="white"/>
<defs>
<filter id="filter0_d_24_4017" x="11.5425" y="76.5254" width="41.1246" height="13.9384" filterUnits="userSpaceOnUse" color-interpolation-filters="sRGB">
<feFlood flood-opacity="0" result="BackgroundImageFix"/>
<feColorMatrix in="SourceAlpha" type="matrix" values="0 0 0 0 0 0 0 0 0 0 0 0 0 0 0 0 0 0 127 0" result="hardAlpha"/>
<feOffset/>
<feGaussianBlur stdDeviation="3"/>
<feComposite in2="hardAlpha" operator="out"/>
<feColorMatrix type="matrix" values="0 0 0 0 0.34974 0 0 0 0 0.499801 0 0 0 0 0.9875 0 0 0 1 0"/>
<feBlend mode="normal" in2="BackgroundImageFix" result="effect1_dropShadow_24_4017"/>
<feBlend mode="normal" in="SourceGraphic" in2="effect1_dropShadow_24_4017" result="shape"/>
</filter>
</defs>
</svg>
