<svg width="40" height="57" viewBox="0 0 40 57" fill="none" xmlns="http://www.w3.org/2000/svg">
<g filter="url(#filter0_d_24_3596)">
<path d="M8.96176 9.47607C8.00176 9.28607 8.50179 7.11607 8.36179 6.35607C8.23179 4.71607 8.31178 3.08604 8.23178 1.44604C8.07178 0.746039 9.16176 0.416073 9.40176 1.10607C9.55176 1.95607 9.60176 2.84605 9.52176 3.70605C9.58176 5.33605 9.73173 6.94604 9.68173 8.57604C9.72173 9.00604 9.49176 9.56607 8.96176 9.47607Z" fill="#FF7A00"/>
<path d="M30.2715 9.38579C29.9615 7.50579 29.9015 5.5458 29.8515 3.6458C29.8115 2.8358 29.7315 2.03581 29.7215 1.22581C29.7115 0.855813 29.7315 0.345815 30.1115 0.165815C30.5915 -0.094185 31.1115 0.375837 31.0015 0.875837C31.2915 3.35584 31.1715 5.86581 31.4415 8.34581C31.4715 8.64581 31.5115 8.93582 31.5015 9.23582C31.5015 9.95582 30.4215 10.0858 30.2715 9.38579Z" fill="#FF7A00"/>
<path d="M8.65149 52.8655C8.44149 52.7355 8.3515 52.5155 8.2915 52.2955C8.0315 51.1955 8.06152 49.9655 7.99152 48.8755C7.86152 46.8955 7.95149 44.8855 7.96149 42.9155C8.03149 42.5755 8.3015 42.3155 8.6615 42.3255C9.4715 42.3555 9.36146 43.3055 9.37146 43.8755C9.44146 45.1255 9.35147 46.3955 9.38147 47.6355C9.47147 49.0955 9.52148 50.5055 9.58148 51.9455C9.74148 52.5655 9.30149 53.2355 8.65149 52.8655Z" fill="#FF7A00"/>
<path d="M30.2719 54.1456C29.3719 53.7156 29.7319 52.4056 29.6219 51.5856C29.6119 50.1556 29.6319 48.7356 29.5619 47.3456C29.5519 46.3156 29.5219 45.2856 29.4419 44.2656C29.3919 43.6856 29.2419 42.7656 30.0419 42.6656C30.4319 42.6156 30.7819 42.9156 30.8319 43.2956C31.1019 46.5556 31.2019 49.8356 31.0819 53.1056C31.6519 53.6556 30.9019 54.3556 30.2719 54.1456Z" fill="#FF7A00"/>
<path d="M9.22177 20.006C6.81177 20.026 3.66177 20.0661 1.97177 18.0561C1.40177 17.1061 1.49176 15.926 1.39176 14.856C1.39176 13.236 1.14177 10.996 2.40177 9.77603C4.09177 8.46603 6.66175 8.55604 8.70175 8.47604C11.0418 8.04604 14.0918 8.30603 15.5318 10.466C16.9018 12.696 16.9317 15.716 16.0617 18.136C15.6517 19.156 14.6118 19.806 13.5318 19.696C12.1018 19.916 10.6818 20.136 9.22177 20.006ZM8.96176 18.416C10.4718 18.596 11.9618 18.3861 13.4718 18.2961C14.4518 18.4861 14.8018 17.986 14.9518 17.076C15.3118 15.736 15.2517 14.246 15.0617 12.906C14.5917 9.62604 11.2518 9.61604 8.64176 9.84604C7.37176 10.106 6.07176 9.91604 4.83176 10.286C4.25176 10.416 3.55173 10.516 3.18174 11.016C2.61174 12.956 2.83177 15.026 3.03177 17.006C3.78177 18.126 5.49176 18.1261 6.71176 18.3761C6.70176 18.3761 6.70175 18.3761 6.69174 18.3761C6.66174 18.3761 6.64179 18.3661 6.61179 18.3661C7.39179 18.4561 8.17176 18.366 8.96176 18.416Z" fill="#FF7A00"/>
<path d="M25.0218 19.2862C23.6518 19.1762 22.6418 17.9561 22.7218 16.5961C22.6718 15.1661 22.6118 13.7262 22.8818 12.3162C23.3618 8.99618 27.1718 8.45614 29.9218 8.64614C30.6818 8.35614 31.7418 8.71617 32.5118 8.67617C34.0318 8.65617 35.6718 8.90615 36.8218 9.97615C38.4118 11.6062 38.7418 15.5562 37.8218 17.5562C37.0918 18.6462 35.6018 18.5561 34.4418 18.6461C31.3318 19.1961 28.1518 19.0662 25.0218 19.2862ZM25.1318 17.7061C28.9218 17.3161 32.8018 17.4862 36.5418 16.9162C37.1118 15.4762 37.0619 11.4161 35.3619 10.7161C33.8019 9.92615 32.0418 10.4061 30.3918 10.0061C29.3218 10.2761 28.1218 10.0162 27.0718 10.2862C25.5618 10.6162 24.4918 11.0362 24.2918 12.7262C24.1318 13.5962 24.1918 14.6461 24.1318 15.4661C24.1818 16.3161 23.9318 17.7061 25.1318 17.7061Z" fill="#FF7A00"/>
<path d="M12.5417 42.8457C10.6817 42.7357 8.96169 42.8357 7.12169 42.7657C5.42169 42.7557 3.19172 43.1957 2.21172 41.4057C1.15172 39.4457 0.0717041 34.1257 2.3217 32.7557C2.6317 32.0757 3.39173 32.0157 4.03173 31.9257C4.67173 31.8257 5.30171 31.6957 5.95171 31.7157C8.02171 31.2857 10.1317 31.4457 12.1617 31.9757C13.4617 32.1557 14.8717 32.3457 15.8017 33.3757C16.7917 34.8157 16.6317 36.7657 16.4217 38.4257C16.3317 40.8857 15.2717 43.1657 12.4317 42.8457C12.4417 42.8457 12.5417 42.8457 12.5417 42.8457ZM13.4717 41.3257C14.9517 41.0757 14.7517 39.1557 15.0017 38.0257C15.1517 36.8157 15.2717 35.5457 14.8217 34.3957C14.0717 33.6457 12.9417 33.6257 11.9417 33.5757C10.8617 33.4257 9.81172 33.1357 8.71172 33.1057C7.58172 33.0857 6.47173 33.3557 5.35173 33.2857C4.67173 33.3457 4.17174 33.4657 3.54174 33.4857C3.30174 33.5357 3.19172 33.7857 2.96172 33.8757C1.88172 35.1657 2.50171 39.9157 3.76171 41.0357C4.80171 41.5657 6.25172 41.0557 7.34172 41.2057C9.45172 41.2057 11.3917 41.3557 13.4717 41.3257Z" fill="#FF7A00"/>
<path d="M28.7316 43.6261C25.7516 43.3961 22.7117 42.9161 22.4817 39.3161C22.3717 38.2761 22.3017 37.2261 22.4217 36.1861C22.5617 34.9661 22.5117 33.5561 23.3617 32.5861C24.3617 31.6861 25.9416 31.7661 27.1816 31.6961C28.9216 31.6261 30.6817 31.5561 32.4217 31.6861C33.7117 31.9761 35.1516 31.8661 36.2916 32.5461C38.0016 33.7861 37.9116 36.2761 37.8816 38.1861C37.7216 39.3161 37.6717 40.5461 36.9917 41.4961C34.8917 43.6061 31.5416 43.6761 28.7316 43.6261ZM30.2616 42.0761C31.7116 42.0661 33.2016 41.9161 34.5716 41.4361C35.0916 41.1661 35.7717 41.0161 35.9917 40.4161C36.5217 38.5761 36.5916 36.5161 36.1516 34.6761C35.7216 33.0461 33.6716 33.7361 32.4416 33.3161C30.0916 33.1961 27.7017 33.2561 25.3617 33.2461C24.9817 33.3661 24.4516 33.3361 24.2616 33.7561C23.7216 35.4161 23.7816 37.2261 23.8816 38.9461C24.0316 39.6761 24.0616 40.3661 24.5116 40.8961C26.1216 42.1461 28.3916 41.9361 30.3216 42.0861C30.3116 42.0761 30.2616 42.0761 30.2616 42.0761Z" fill="#FF7A00"/>
<path d="M25.6015 32.266C25.0415 29.856 25.0315 27.3761 24.9115 24.9261C24.7815 23.1061 24.6215 21.276 24.5215 19.456C24.5015 19.096 24.4515 18.7261 24.6515 18.4161C24.9515 17.9361 25.7415 18.156 25.7215 18.716C26.2915 22.116 26.2214 25.5661 26.4314 28.9961C26.4614 30.0161 26.5614 31.016 26.6914 32.006C26.7414 32.606 25.8315 32.826 25.6015 32.266Z" fill="#FF7A00"/>
<path d="M35.2919 32.8457C34.9419 29.6757 34.6719 26.4757 34.8319 23.2857C35.0919 21.5157 34.9419 19.7457 35.1319 18.2557V18.2657C35.2019 17.9957 35.4319 17.8057 35.7219 17.8257C36.0219 17.8557 36.2119 18.1057 36.2119 18.3957V18.3857C36.2119 18.3757 36.2119 18.3657 36.2119 18.3557C36.2119 18.3657 36.2119 18.3757 36.2119 18.3657C36.6519 21.5757 36.0019 24.7957 36.2219 28.0157C36.2719 29.6057 36.3919 31.1557 36.4619 32.7157C36.4819 33.4357 35.4419 33.5657 35.2919 32.8457Z" fill="#FF7A00"/>
<path d="M4.08152 31.9059C3.77152 29.3259 3.78153 26.7159 3.71153 24.1159C3.60153 22.5359 3.57151 20.9459 3.69151 19.4059C3.74151 19.1059 3.73152 18.7659 3.95152 18.5259C4.23152 18.2259 4.76151 18.2859 4.94151 18.6359C4.98151 22.0059 5.04152 25.5159 5.14152 28.9259C5.21152 29.8559 5.11152 30.7859 5.20152 31.7159C5.24152 32.3559 4.26152 32.5359 4.08152 31.9059Z" fill="#FF7A00"/>
<path d="M13.8115 33.286C13.4815 31.666 13.7815 29.976 13.5615 28.336C13.4715 26.226 13.2516 23.966 13.4016 21.876C13.4216 21.096 13.3516 20.306 13.4016 19.526C13.4116 19.256 13.4616 18.946 13.7016 18.776C14.1216 18.476 14.6316 18.866 14.5816 19.346C14.7916 21.146 14.7116 22.956 14.7916 24.766C14.7816 26.606 15.0515 28.526 14.9415 30.356C14.9215 31.266 14.8815 32.176 14.9415 33.086C14.9615 33.376 14.7416 33.626 14.4616 33.676C14.1816 33.726 13.8815 33.556 13.8115 33.286Z" fill="#FF7A00"/>
<path d="M11.7117 24.5063C9.91166 24.4763 8.13166 24.3663 6.34166 24.1363C5.57166 24.0663 4.65164 24.2463 4.01164 23.7563C3.66164 23.3263 4.07166 22.7463 4.59166 22.8163C5.92166 22.8463 7.18163 22.7763 8.43163 23.0763C10.3516 23.2163 12.2816 23.2063 14.1916 23.3963C14.4716 23.4463 14.6616 23.7463 14.6316 24.0163C14.5916 24.6163 13.8216 24.5563 13.4316 24.5263C12.8616 24.5463 12.2917 24.5563 11.7117 24.5063Z" fill="#FF7A00"/>
<path d="M31.1316 24.6762C29.9516 24.4462 25.2416 25.1162 25.5016 23.3162C25.5916 22.9062 26.1716 22.7762 26.4316 23.0962C28.1416 23.4262 29.8916 23.1762 31.6116 23.4262C32.8116 23.4262 34.0216 23.2962 35.2216 23.4962C35.8316 23.6162 35.8016 24.5662 35.1816 24.6562C33.8416 24.5962 32.4916 24.7562 31.1316 24.6762Z" fill="#FF7A00"/>
<path d="M36.9119 15.1462C33.7819 14.9362 30.7119 15.1263 27.5819 15.0663C26.1519 15.0663 24.6719 15.2663 23.2719 14.9263C22.9419 14.7963 22.7719 14.4062 22.9419 14.0762C23.1319 13.7162 23.5119 13.7462 23.8519 13.7562C26.3119 13.6162 28.9019 13.5763 31.3119 13.6863C33.3019 13.7963 35.2919 13.6863 37.2619 14.0463C38.0719 14.3463 37.6319 15.3262 36.8219 15.1362C36.8419 15.1462 36.9119 15.1462 36.9119 15.1462Z" fill="#FF7A00"/>
<path d="M36.5816 37.6861C33.1816 37.5661 29.9116 37.2561 26.5316 37.0261C25.3016 37.0261 24.2516 36.9861 23.0816 36.7261C22.3516 36.6361 22.4416 35.5361 23.1916 35.5961C26.9716 35.5661 30.5716 35.8561 34.3216 36.3261C35.0516 36.5061 37.2616 36.1861 37.1916 37.1861C37.1616 37.5261 36.8316 37.7361 36.5016 37.6861C36.5116 37.6861 36.5816 37.6861 36.5816 37.6861Z" fill="#FF7A00"/>
<path d="M12.3416 15.8056C10.0616 15.6756 7.81159 15.7556 5.54159 15.6556C4.78159 15.6456 1.99157 15.8056 2.14157 14.6756C2.39157 13.9356 3.29159 14.4256 3.85159 14.3456C5.70159 14.1956 7.61159 14.3156 9.41159 14.3456C11.5016 14.3756 13.5716 14.6456 15.6616 14.6656C15.9316 14.6856 16.1416 14.9255 16.1616 15.1955C16.1416 15.9755 15.1416 15.7656 14.6116 15.8056C13.8216 15.8056 13.0416 15.8356 12.2516 15.8056H12.3416Z" fill="#FF7A00"/>
<path d="M13.1019 37.8259C10.1919 37.5759 7.34186 37.6059 4.45186 37.3159C3.62186 37.2259 2.68189 37.4859 1.92189 37.1159C1.37189 36.7659 1.74187 35.8459 2.39187 36.0659C3.31187 36.0159 4.33188 35.8959 5.22188 35.9559C8.69188 36.1259 11.9719 36.4859 15.4019 36.7759C15.6819 36.8059 15.9019 37.0359 15.9119 37.3159C15.9419 38.3259 13.7719 37.7559 13.1019 37.8259Z" fill="#FF7A00"/>
<path d="M12.5518 14.8557C9.86183 14.7457 7.22182 14.7057 4.54182 14.6257C3.96182 14.6057 3.10179 14.9056 2.76179 14.2656C2.52179 13.8256 3.04183 13.3057 3.49183 13.5357C7.21183 13.1657 11.0118 13.7057 14.7418 13.7757C15.0118 13.8157 15.2118 14.0757 15.2018 14.3457C15.1818 14.7657 14.7518 14.9257 14.3818 14.8757C13.7718 14.9057 13.1618 14.8957 12.5518 14.8557Z" fill="#D6FF00"/>
<path d="M33.4817 14.2258C30.5117 14.1258 27.5316 14.0658 24.5616 14.1858C24.3216 14.2158 24.0117 14.0758 23.9517 13.8158C23.7917 12.9758 24.7317 12.9858 25.2917 12.9258C27.1617 12.8358 29.0417 12.9058 30.9217 12.9058C32.7817 12.9658 34.6517 13.0558 36.5117 13.1158C37.1217 13.2158 37.0817 14.1558 36.4617 14.1958C35.4517 14.2458 34.4817 14.2358 33.4817 14.2258Z" fill="#D6FF00"/>
<path d="M12.1118 38.7557C10.2918 38.6257 8.41178 38.6357 6.62178 38.4357C5.27178 38.2257 3.61183 38.4557 2.36183 37.9857C1.86183 37.6257 2.27178 36.7757 2.87178 37.0057C6.35178 37.0657 9.84179 37.5857 13.3218 37.5757C13.3118 37.5757 13.3018 37.5757 13.2818 37.5757C13.2718 37.5757 13.2518 37.5757 13.2418 37.5757C13.6918 37.5457 14.1518 37.5957 14.6018 37.5757C15.3018 37.6057 15.3118 38.6457 14.6218 38.7057C13.7818 38.7257 12.9518 38.7657 12.1118 38.7557Z" fill="#D6FF00"/>
<path d="M32.5719 38.4853C30.2619 38.3053 27.9419 38.1053 25.6319 37.9653C24.9119 37.8453 23.962 38.0753 23.422 37.4853C23.102 37.0353 23.5719 36.4353 24.0819 36.6353C26.3119 36.7353 28.5519 36.8453 30.7819 37.0753C32.6519 37.2753 34.5319 37.3153 36.3919 37.3253C36.6719 37.3753 36.872 37.6253 36.862 37.9053C36.812 38.5653 36.0319 38.4553 35.5619 38.4953C34.5519 38.5653 33.5619 38.5553 32.5719 38.4853Z" fill="#D6FF00"/>
</g>
<defs>
<filter id="filter0_d_24_3596" x="0" y="0.0917969" width="39.3291" height="56.0918" filterUnits="userSpaceOnUse" color-interpolation-filters="sRGB">
<feFlood flood-opacity="0" result="BackgroundImageFix"/>
<feColorMatrix in="SourceAlpha" type="matrix" values="0 0 0 0 0 0 0 0 0 0 0 0 0 0 0 0 0 0 127 0" result="hardAlpha"/>
<feOffset dy="1"/>
<feGaussianBlur stdDeviation="0.5"/>
<feComposite in2="hardAlpha" operator="out"/>
<feColorMatrix type="matrix" values="0 0 0 0 0.839216 0 0 0 0 1 0 0 0 0 0 0 0 0 0.25 0"/>
<feBlend mode="normal" in2="BackgroundImageFix" result="effect1_dropShadow_24_3596"/>
<feBlend mode="normal" in="SourceGraphic" in2="effect1_dropShadow_24_3596" result="shape"/>
</filter>
</defs>
</svg>
