<svg width="91" height="14" viewBox="0 0 91 14" fill="none" xmlns="http://www.w3.org/2000/svg">
<path d="M81.5852 13.0998C78.9752 12.4798 76.4552 10.3498 75.8252 7.67982C71.3052 7.90982 66.7952 7.88983 62.2752 7.78983C58.5352 7.80983 54.8052 8.09982 51.0652 7.86982C48.2152 7.81982 45.3752 8.15982 42.5252 8.17982C36.0752 8.14982 29.6252 7.87984 23.1852 7.60984C21.3552 7.56984 19.5252 7.79983 17.6952 7.87983C12.7052 7.95983 7.71516 7.49983 2.72516 7.34983C1.95516 7.24983 0.345181 7.03985 0.685181 5.95985C0.895181 5.55985 1.33516 5.56985 1.69516 5.73985C2.95516 5.88985 4.23517 5.83983 5.51517 5.78983C6.48517 5.74983 7.46517 5.70983 8.42517 5.75983C10.7852 5.79983 13.0852 5.87983 15.3252 5.90983C16.8452 5.90983 18.3652 5.80985 19.8752 5.70985C22.1252 5.55985 24.3752 5.41983 26.6352 5.59983C32.2052 5.75983 37.6652 5.87983 43.2052 5.90983C45.9952 5.86983 48.7852 5.54983 51.5752 5.68983C54.8952 5.93983 58.2152 5.80984 61.5352 5.79984C66.2952 5.93984 71.0552 6.05985 75.8152 5.95985C75.4052 4.55985 76.8052 3.59985 77.6452 2.70985C78.5452 1.72985 79.7252 1.10983 80.9952 0.819832C80.7252 0.919832 80.4652 1.03982 80.2052 1.17982C79.8052 1.38982 79.4352 1.63983 79.1252 1.96983C78.6052 2.52983 78.1552 3.16983 77.7752 3.81983C77.7852 3.79983 77.7952 3.78984 77.8052 3.76984C77.7852 3.80984 77.7652 3.83983 77.7452 3.87983C77.7452 3.88983 77.7352 3.88982 77.7352 3.89982C77.5152 4.29982 77.3352 4.71984 77.2352 5.16984C77.0552 6.00984 77.1852 6.84982 77.5052 7.61982C77.5252 7.69982 77.5352 7.77983 77.5552 7.84983C77.6652 8.28983 77.8752 8.71983 78.1152 9.09983C78.3352 9.43983 78.5752 9.76982 78.8552 10.0598C79.1552 10.3698 79.4752 10.6298 79.8452 10.8498C80.2052 11.0598 80.5852 11.2298 80.9852 11.3698C81.4752 11.5198 81.9852 11.5898 82.4952 11.5898C82.7652 11.5898 83.0252 11.5698 83.2952 11.5298C83.6552 11.5698 84.0552 11.4698 84.3852 11.2998C84.4852 11.2798 84.5752 11.2498 84.6652 11.2198C85.7852 10.9598 86.8252 10.3398 87.4552 9.33982C87.5052 9.23982 87.5652 9.14984 87.6152 9.04984C87.7452 8.80984 87.8552 8.55984 87.9452 8.29984C88.0452 7.98984 88.1152 7.65984 88.1452 7.32984C88.2352 6.92984 88.2352 6.49982 88.1652 6.08982C88.1052 5.68982 87.9652 5.30984 87.8052 4.94984C87.6552 4.60984 87.5052 4.26984 87.3252 3.94984C87.1452 3.61984 86.9452 3.28985 86.7152 2.98985C86.4752 2.67985 86.1852 2.40984 85.8852 2.16984C85.5852 1.92984 85.2652 1.71982 84.9252 1.52982C84.6052 1.34982 84.2652 1.19982 83.9252 1.05982C83.5552 0.899822 83.1652 0.739838 82.7652 0.669838C82.6452 0.649838 82.5152 0.62983 82.3852 0.62983C85.0752 0.49983 87.9052 1.67982 89.3752 3.86982C90.8252 6.03982 90.2352 9.15983 88.5952 11.0698C87.2852 12.6098 85.3152 13.2798 83.3452 13.2798C82.7652 13.2798 82.1652 13.2198 81.5852 13.0998Z" fill="white"/>
</svg>
