<svg width="96" height="97" viewBox="0 0 96 97" fill="none" xmlns="http://www.w3.org/2000/svg">
<g filter="url(#filter0_d_24_4043)">
<path d="M38.9414 59.2267C37.0814 58.1667 35.2014 56.9668 33.8114 55.3068C32.3514 53.6368 30.9114 51.8967 30.0814 49.8267C28.1214 44.4667 28.0614 38.5967 31.0514 33.5967C32.1514 31.8967 33.6314 30.4968 35.1014 29.1268C36.5314 27.5068 38.4114 26.3367 40.3614 25.4667C43.5014 24.5067 46.9214 24.3667 50.1614 24.7967C52.1714 25.6267 54.3314 26.1867 56.1514 27.4167C60.5614 30.1067 63.3714 34.8968 63.9714 39.9968C64.2114 41.3768 64.3314 42.7767 64.3014 44.1767C64.3114 45.6467 63.6814 47.0067 63.3114 48.4067C62.6714 50.1267 61.9514 51.7268 61.0514 53.2468C61.0114 53.2968 60.9714 53.3467 60.9314 53.3867C60.9214 53.3967 60.9214 53.4067 60.9114 53.4167C60.8314 53.5167 60.7514 53.6067 60.6814 53.7067C60.2714 54.2067 59.8214 54.6767 59.3414 55.1067C59.3314 55.1167 59.3214 55.1268 59.3114 55.1268C59.2614 55.1668 59.2114 55.2167 59.1614 55.2567C59.1614 55.2567 59.1614 55.2567 59.1514 55.2667C59.1414 55.2767 59.1314 55.2867 59.1214 55.2967C59.0914 55.3167 59.0714 55.3367 59.0514 55.3567C58.9914 55.4067 58.9414 55.4567 58.8914 55.5067L58.9014 55.4968C58.7514 55.6368 58.6014 55.7767 58.4414 55.9067C58.2514 56.0667 58.0614 56.2367 57.8714 56.3867C57.8314 56.4167 57.7914 56.4467 57.7414 56.4767C57.3514 56.7267 56.9414 56.9467 56.5714 57.2267C56.4214 57.3467 56.2714 57.4667 56.1214 57.5867C56.0014 57.6567 55.8814 57.7267 55.7614 57.7967C55.4414 57.9867 55.1214 58.1768 54.8114 58.3768C54.7014 58.4468 54.6114 58.5267 54.5214 58.6067C54.4414 58.6767 54.4014 58.7767 54.3714 58.8867V58.8967C54.2514 58.9467 54.1214 58.9967 54.0114 59.0367C53.5114 59.2367 53.0914 58.8167 53.1014 58.3967C53.1514 58.3767 53.2014 58.3567 53.2514 58.3267C53.3614 58.2767 53.4614 58.2167 53.5714 58.1567C53.8414 58.0067 54.1214 57.8467 54.4014 57.6967C54.4114 57.6867 54.4214 57.6867 54.4314 57.6767C54.4214 57.6767 54.4114 57.6868 54.4114 57.6868C54.6414 57.5668 54.8714 57.4667 55.0914 57.3467C55.3014 57.2267 55.5114 57.0967 55.7114 56.9567C56.1114 56.6867 56.5014 56.3967 56.8714 56.0867C57.0414 55.9467 57.2114 55.8167 57.3714 55.6667C57.5414 55.5267 57.6914 55.3667 57.8314 55.1967C57.9814 55.0167 58.1214 54.8267 58.2714 54.6467C58.4014 54.4667 58.5314 54.2867 58.6514 54.1067C59.8814 52.5667 60.6914 50.6567 61.4914 48.8667C62.6614 46.2467 63.2114 43.3967 62.6014 40.5467C62.2214 37.1267 60.9114 33.7967 58.5514 31.2667C56.6514 29.2367 54.2614 27.6367 51.5614 26.9167C50.7714 26.6167 50.0214 26.1367 49.1514 26.0867C46.2414 26.0267 43.2414 25.9167 40.5114 26.9867C39.4114 27.5967 38.2914 28.1967 37.3214 29.0067C36.5914 29.7067 35.8914 30.5068 35.1314 31.1268C32.5414 33.3568 31.0014 36.4267 30.3714 39.7567C29.8714 43.1867 30.4714 46.8167 31.8414 49.9567C32.9114 52.1067 34.5614 53.8567 36.2014 55.5267C36.9514 56.1867 37.8114 56.7168 38.6214 57.3068L38.6314 57.3168C38.7314 57.4068 38.8314 57.4967 38.9414 57.5767C38.9914 57.6167 39.0414 57.6567 39.0914 57.6967L39.1014 57.7067C39.1714 57.7667 39.2414 57.8267 39.3114 57.8867C39.3214 57.8967 39.3314 57.9067 39.3414 57.9167C39.3914 57.9567 39.4314 57.9967 39.4814 58.0367C39.5614 58.0967 39.6414 58.1667 39.7214 58.2267C39.8614 58.6567 39.6714 59.1967 39.1514 59.1967C39.0714 59.2567 39.0114 59.2467 38.9414 59.2267Z" fill="#9A00FF"/>
<path d="M57.3515 56.9365C57.3415 56.9365 57.3415 56.9465 57.3315 56.9465C57.3315 56.9465 57.3415 56.9365 57.3515 56.9365Z" fill="#9A00FF"/>
<path d="M60.0315 54.707C60.0215 54.717 60.0115 54.7271 60.0015 54.7371C60.0115 54.7171 60.0215 54.717 60.0315 54.707Z" fill="#9A00FF"/>
<path d="M51.2413 63.8772C49.2713 63.7872 47.3013 63.7172 45.3313 63.6172C45.3613 63.6172 45.4013 63.6072 45.4313 63.6072C45.6313 63.5872 45.8213 63.5672 46.0213 63.5572C46.2413 63.5472 46.4613 63.5372 46.6713 63.5272C46.8713 63.5272 47.0713 63.5172 47.2713 63.5172C47.4813 63.5172 47.7013 63.5172 47.9113 63.5072C47.9113 63.5072 47.9113 63.5072 47.9013 63.5072C47.9013 63.5072 47.9013 63.5072 47.8913 63.5072C47.8913 63.5072 47.8913 63.5072 47.9013 63.5072C48.1513 63.4972 48.4113 63.4872 48.6613 63.4772C48.9113 63.4672 49.1713 63.4772 49.4213 63.4772C49.8013 63.4772 50.1713 63.4672 50.5413 63.4972C50.6913 63.5072 50.8413 63.5372 50.9913 63.5372C51.1213 63.5472 51.2513 63.5472 51.3813 63.5372C51.5113 63.5272 51.6313 63.5172 51.7613 63.5072C51.8813 63.4972 52.0013 63.4772 52.1113 63.4572C52.2013 63.4372 52.2913 63.4272 52.3813 63.4172C52.4613 63.4072 52.5513 63.3872 52.6313 63.3672C52.6213 63.3672 52.6113 63.3672 52.6013 63.3672C52.6513 63.3572 52.6913 63.3472 52.7413 63.3372C52.8713 63.3072 53.0213 63.2572 53.0413 63.1072C53.0513 63.0272 53.0213 62.9472 52.9513 62.8972C52.8813 62.8372 52.7713 62.8272 52.6813 62.8072C52.4813 62.7672 52.2713 62.7472 52.0713 62.7472C51.8313 62.7472 51.5913 62.7372 51.3513 62.7272C51.1113 62.7172 50.8813 62.7072 50.6413 62.6872C50.4013 62.6672 50.1613 62.6572 49.9213 62.6472C49.5513 62.6372 49.1813 62.6572 48.8113 62.6672C48.7613 62.6672 48.7113 62.6672 48.6613 62.6572C48.6713 62.6572 48.6813 62.6572 48.6913 62.6572C48.4013 62.6472 48.1113 62.6372 47.8213 62.6372C47.5713 62.6272 47.3313 62.6272 47.0813 62.6372C46.9413 62.6372 46.7913 62.6472 46.6513 62.6472C46.4213 62.6572 46.2013 62.6572 45.9713 62.6572C45.9813 62.6572 45.9913 62.6572 46.0013 62.6572C45.9413 62.6572 45.8713 62.6572 45.8013 62.6572H45.8113C45.6713 62.6572 45.5313 62.6672 45.3813 62.6772C45.3813 62.6772 45.3813 62.6772 45.3913 62.6772C45.3613 62.6772 45.3313 62.6772 45.3013 62.6772C45.3113 62.6772 45.3213 62.6772 45.3313 62.6772C45.0513 62.6872 44.7713 62.6872 44.4913 62.7072C44.2113 62.7272 43.9313 62.7472 43.6513 62.7472C43.5213 62.7472 43.3813 62.7372 43.2513 62.7372C43.2613 62.7372 43.2713 62.7372 43.2813 62.7372C43.1313 62.7372 42.9913 62.7572 42.8513 62.7872C42.8413 62.7872 42.8313 62.7972 42.8113 62.7972C42.6313 62.8072 42.4513 62.8272 42.2613 62.8372C42.0513 62.8472 41.8413 62.8672 41.6413 62.8872C41.4813 62.9072 41.3313 62.9172 41.1713 62.9372C41.0413 62.9672 40.9013 62.9872 40.7713 63.0272C40.7113 63.0472 40.6513 63.0672 40.5913 63.1172C40.5213 63.1672 40.5013 63.2672 40.5313 63.3372C40.5713 63.4372 40.6613 63.4872 40.7513 63.5072C40.8513 63.5372 40.9613 63.5472 41.0713 63.5472C41.3013 63.5672 41.5413 63.5672 41.7813 63.5672C41.7713 63.5672 41.7613 63.5672 41.7413 63.5672C41.7813 63.5672 41.8213 63.5672 41.8513 63.5672C41.8413 63.5672 41.8313 63.5672 41.8113 63.5672C41.9813 63.5672 42.1413 63.5672 42.3113 63.5672C42.4613 63.5672 42.6013 63.5672 42.7413 63.5672C42.5713 63.5872 42.4113 63.6072 42.2413 63.6372C41.3713 63.7572 40.5013 63.8672 39.6213 63.7172C39.2813 63.6572 39.0413 63.4272 38.9313 63.1272C38.9713 63.1072 39.0013 63.0872 39.0413 63.0672C39.1013 63.0272 39.1513 62.9672 39.1513 62.8872C39.1513 62.8172 39.1113 62.7572 39.0613 62.7172C39.0113 62.6772 38.9413 62.6572 38.8813 62.6372C38.8713 62.6372 38.8613 62.6272 38.8513 62.6272C38.8113 61.7672 38.7713 60.8972 38.6513 60.0372C38.5113 59.3372 38.4213 57.6072 39.5513 58.1272C39.5913 58.1672 39.6413 58.1972 39.6913 58.2272C39.6913 58.2272 39.7013 58.2272 39.7013 58.2372C39.8013 58.3572 39.8513 58.4972 39.8613 58.6372C40.0413 59.9172 40.1413 61.1272 40.1313 62.3872C41.8613 62.2772 43.5513 61.9172 45.2913 62.0472C46.9113 62.2972 48.3813 62.2872 49.9913 62.3372C50.9913 62.4172 52.1013 62.6372 53.0713 62.3572C53.1013 61.1972 53.1213 60.0272 53.0713 58.8672C52.9613 58.0772 54.1213 57.8472 54.3413 58.6072C54.3513 58.6672 54.3613 58.7172 54.3713 58.7772C54.3613 58.7972 54.3513 58.8272 54.3513 58.8472V58.8572C54.3413 58.8972 54.3313 58.9272 54.3313 58.9672C54.3213 59.0272 54.3213 59.0872 54.3113 59.1472C54.3113 59.2572 54.3113 59.3572 54.3113 59.4672C54.3113 59.5772 54.3113 59.6872 54.3113 59.7972C54.3113 59.8772 54.3213 59.9572 54.3213 60.0372C54.3213 60.1972 54.2913 60.3472 54.2913 60.5072C54.2813 60.6072 54.2913 60.6972 54.3013 60.7972C54.3113 60.8572 54.3113 60.9272 54.3213 60.9872C54.3213 61.0772 54.3113 61.1572 54.3013 61.2472C54.2913 61.3972 54.2913 61.5472 54.2913 61.7072C54.2913 61.8672 54.2813 62.0272 54.2813 62.1872C54.2813 62.3172 54.2813 62.4572 54.2913 62.5872C54.2913 62.6172 54.3013 62.6372 54.3013 62.6572C54.0313 63.5272 53.3413 63.8072 51.9413 63.8072C51.7413 63.8972 51.5013 63.8972 51.2413 63.8772Z" fill="#9A00FF"/>
<path d="M52.7612 62.9468C52.7612 62.9468 52.7612 62.9368 52.7612 62.9468C52.7712 62.9368 52.7612 62.9468 52.7612 62.9468Z" fill="#9A00FF"/>
<path d="M51.5514 66.3268C50.9314 66.2768 50.3014 66.2269 49.6714 66.1769C49.9314 66.1669 50.1814 66.1669 50.4414 66.1669C50.8614 66.1769 51.2914 66.1869 51.7114 66.1669C51.9114 66.1569 52.1114 66.1369 52.3114 66.1169C52.4414 66.1069 52.5614 66.0869 52.6814 66.0469C52.6714 66.0469 52.6714 66.0469 52.6614 66.0569C52.6914 66.0469 52.7114 66.0368 52.7314 66.0268C52.8114 65.9968 52.8914 65.9168 52.8814 65.8268C52.8814 65.7468 52.8514 65.6869 52.7914 65.6269C52.7414 65.5869 52.6814 65.5568 52.6214 65.5268C52.5714 65.5068 52.5114 65.4869 52.4514 65.4769C52.2814 65.4469 52.1014 65.4169 51.9314 65.4169C51.7214 65.4169 51.5014 65.4269 51.2914 65.4269C51.1714 65.4269 51.0514 65.4269 50.9314 65.4269C50.7814 65.4269 50.6314 65.4368 50.4814 65.4468C50.3714 65.4468 50.2714 65.4369 50.1714 65.4269C49.8614 65.3969 49.5514 65.3869 49.2314 65.3769H49.2414C49.1814 65.3769 49.1214 65.3769 49.0714 65.3769C49.0814 65.3769 49.0914 65.3769 49.1114 65.3769C49.0614 65.3769 49.0114 65.3769 48.9614 65.3769C48.7814 65.3769 48.5914 65.3769 48.4114 65.3769C48.4214 65.3769 48.4414 65.3769 48.4514 65.3769C48.3214 65.3769 48.1914 65.3769 48.0614 65.3769C47.8714 65.3769 47.6714 65.3769 47.4814 65.3769C47.1714 65.3869 46.8614 65.3969 46.5414 65.4169C46.2414 65.4269 45.9314 65.4368 45.6214 65.4468C45.2914 65.4568 44.9614 65.4968 44.6314 65.5268C44.6414 65.5268 44.6514 65.5268 44.6614 65.5268C44.3914 65.5468 44.1114 65.5668 43.8414 65.5768C43.7614 65.5768 43.6914 65.5768 43.6114 65.5768C43.3814 65.5668 43.1514 65.5468 42.9214 65.5368C42.6914 65.5268 42.4514 65.5369 42.2114 65.5569C41.7414 65.5869 41.2614 65.6269 40.8014 65.7269C40.7114 65.7469 40.6014 65.7668 40.5214 65.8268C40.4514 65.8768 40.4214 65.9769 40.4614 66.0569C40.4814 66.1069 40.5314 66.1368 40.5814 66.1568C40.6114 66.1668 40.6314 66.1769 40.6614 66.1869C40.1814 66.3069 39.6714 66.2768 39.2614 66.0968C39.2514 66.0868 39.2414 66.0769 39.2314 66.0669C39.2314 66.0569 39.2214 66.0569 39.2214 66.0469C39.2214 66.0369 39.2114 66.0368 39.2114 66.0268V66.0168V66.0068C39.2114 65.9968 39.2114 65.9869 39.2114 65.9869C39.2114 65.9769 39.2114 65.9568 39.2214 65.9468C39.2414 65.8668 39.2714 65.7769 39.2814 65.6869C39.3014 65.6769 39.3114 65.6568 39.3214 65.6468C39.4114 65.5368 39.4214 65.3768 39.3214 65.2668C39.2814 65.2268 39.2314 65.1969 39.1814 65.1769H39.1714C39.1114 65.1369 39.0514 65.0969 38.9914 65.0569C38.9914 65.0569 38.9914 65.0569 38.9814 65.0569C38.9814 65.0569 38.9814 65.0569 38.9914 65.0569C38.9414 65.0169 38.8914 64.9769 38.8314 64.9369C38.7914 64.9069 38.7514 64.8869 38.7114 64.8569C38.7114 64.8569 38.7114 64.8569 38.7014 64.8569C38.7014 64.8569 38.6914 64.8568 38.6914 64.8468C38.6914 64.8468 38.6914 64.8469 38.7014 64.8569C38.6914 64.8569 38.6914 64.8468 38.6914 64.8468C38.6914 64.8468 38.6914 64.8469 38.7014 64.8569C38.6914 64.8469 38.6914 64.8468 38.6814 64.8368C38.6814 64.8368 38.6814 64.8268 38.6714 64.8268V64.8169C38.6714 64.8069 38.6714 64.7968 38.6714 64.7868C38.6714 64.7268 38.6814 64.6769 38.6914 64.6169C38.6914 64.6069 38.6914 64.6068 38.6914 64.5968C38.6914 64.5768 38.7014 64.5568 38.7014 64.5368C38.7014 64.5268 38.7014 64.5268 38.7114 64.5268C38.7714 64.5068 38.8314 64.4969 38.9014 64.4769C39.0114 64.4469 39.1414 64.4269 39.2114 64.3169C39.3014 64.1869 39.2514 64.0169 39.1214 63.9369C39.0614 63.8969 38.9814 63.8768 38.9114 63.8468C38.8814 63.8368 38.8514 63.8169 38.8214 63.8069C38.8014 63.7969 38.7914 63.7868 38.7814 63.7768C38.7614 63.7668 38.7414 63.7469 38.7314 63.7369C38.7414 63.7469 38.7514 63.7568 38.7614 63.7568C38.7414 63.7368 38.7314 63.7168 38.7114 63.6968C38.7114 63.6868 38.7014 63.6869 38.7014 63.6769C38.7014 63.6669 38.6914 63.6568 38.6914 63.6468C38.6914 63.6468 38.6914 63.6368 38.6814 63.6368C38.6814 63.6368 38.6814 63.6369 38.6814 63.6269V63.6169C38.6814 63.6069 38.6814 63.5868 38.6814 63.5768V63.5669V63.5569C38.6914 63.5169 38.6914 63.4868 38.7014 63.4468V63.4369C38.7014 63.4269 38.7014 63.4269 38.7114 63.4169C38.7114 63.4069 38.7214 63.4068 38.7214 63.3968L38.7314 63.3868L38.7414 63.3769C38.7414 63.3769 38.7414 63.3768 38.7314 63.3868C38.7414 63.3768 38.7414 63.3769 38.7514 63.3669C38.7514 63.3669 38.7514 63.3669 38.7514 63.3769C38.7614 63.3669 38.7814 63.3468 38.7914 63.3368C38.7814 63.3368 38.7814 63.3468 38.7714 63.3468C38.7814 63.3368 38.7814 63.3368 38.7914 63.3268C38.8014 63.3168 38.8114 63.3069 38.8214 63.3069C38.8214 63.3069 38.8214 63.3069 38.8314 63.3069C38.8314 63.3069 38.8314 63.3069 38.8414 63.3069C38.8514 63.3069 38.8414 63.3069 38.8414 63.3069C38.8514 63.3069 38.8614 63.2969 38.8614 63.2969C38.8614 63.2969 38.8614 63.2969 38.8514 63.2969C38.9314 63.2569 39.0214 63.2169 39.0914 63.1669C39.1514 63.1269 39.2014 63.0669 39.2014 62.9869C39.2014 62.9269 39.1714 62.8668 39.1314 62.8268C39.4614 62.5568 40.0014 62.5668 40.2614 62.9468C40.3414 63.1368 40.4414 63.2969 40.5714 63.4269C40.6014 63.4969 40.6614 63.5469 40.7314 63.5669C40.8214 63.6369 40.9214 63.6968 41.0314 63.7568C41.0614 63.7068 41.0914 63.6668 41.1314 63.6368C41.3614 63.6568 41.5914 63.6568 41.8314 63.6568C41.8214 63.6568 41.8114 63.6568 41.7914 63.6568C41.8314 63.6568 41.8714 63.6568 41.9014 63.6568C41.8914 63.6568 41.8814 63.6568 41.8614 63.6568C42.0314 63.6568 42.1914 63.6568 42.3614 63.6568C42.5214 63.6568 42.6814 63.6568 42.8414 63.6568C42.8314 63.6568 42.8314 63.6568 42.8214 63.6568C42.8314 63.6568 42.8314 63.6568 42.8414 63.6568C42.8514 63.6568 42.8514 63.6568 42.8614 63.6568C42.8514 63.6568 42.8514 63.6568 42.8414 63.6568C43.0514 63.6668 43.2714 63.6669 43.4914 63.6669C43.5214 63.6669 43.5514 63.6669 43.5814 63.6669C43.7714 63.6669 43.9514 63.6669 44.1414 63.6669C44.3614 63.6669 44.5814 63.6669 44.8014 63.6669C45.0214 63.6569 45.2314 63.6469 45.4514 63.6269C45.6514 63.6069 45.8414 63.5868 46.0414 63.5768C46.2614 63.5668 46.4814 63.5569 46.6914 63.5469C46.8914 63.5469 47.0914 63.5368 47.2914 63.5368C47.5014 63.5368 47.7014 63.5368 47.9114 63.5268C47.9014 63.5268 47.9014 63.5268 47.8914 63.5268C47.9014 63.5268 47.9114 63.5268 47.9214 63.5268C47.9214 63.5268 47.9214 63.5268 47.9114 63.5268C48.1714 63.5168 48.4214 63.5069 48.6814 63.4969C48.9314 63.4869 49.1914 63.4969 49.4414 63.4969C49.8214 63.4969 50.1914 63.4868 50.5614 63.5168C50.7114 63.5268 50.8614 63.5569 51.0114 63.5569C51.1414 63.5669 51.2714 63.5669 51.4014 63.5569C51.5314 63.5469 51.6514 63.5368 51.7814 63.5268C51.9014 63.5168 52.0214 63.4969 52.1314 63.4769C52.2214 63.4569 52.3114 63.4469 52.4014 63.4369C52.4814 63.4269 52.5714 63.4068 52.6514 63.3868C52.6414 63.3868 52.6314 63.3868 52.6214 63.3868C52.6714 63.3768 52.7114 63.3669 52.7614 63.3569C52.8914 63.3269 53.0414 63.2769 53.0614 63.1269C53.0614 63.1069 53.0614 63.0869 53.0614 63.0669C53.4814 63.0469 53.8814 63.1168 54.2214 63.4068C54.2714 63.4668 54.3114 63.5369 54.3514 63.6069C54.3114 63.6469 54.2814 63.6769 54.2614 63.7269C54.2614 63.7269 54.2614 63.7369 54.2514 63.7369C54.2314 63.7369 54.2214 63.7468 54.2014 63.7568C54.1614 63.7768 54.1214 63.8169 54.1114 63.8569C54.0814 63.9269 54.1114 64.0169 54.1814 64.0569C54.2514 64.0969 54.3314 64.0968 54.4014 64.0968C54.4314 64.0968 54.4614 64.1069 54.4814 64.1069L54.4914 64.1169L54.5014 64.1269L54.5114 64.1368C54.5214 64.1468 54.5214 64.1669 54.5314 64.1769C54.5414 64.1969 54.5414 64.2169 54.5414 64.2269C54.5414 64.2369 54.5414 64.2468 54.5414 64.2668C54.5414 64.3368 54.5414 64.4169 54.5314 64.4869C54.5314 64.4969 54.5314 64.4968 54.5314 64.5068C54.5314 64.5168 54.5214 64.5168 54.5214 64.5268C54.5214 64.5368 54.5114 64.5369 54.5114 64.5469C54.5014 64.5569 54.5014 64.5569 54.5014 64.5669C54.4914 64.5769 54.4914 64.5768 54.4814 64.5868C54.4814 64.5868 54.4814 64.5868 54.4914 64.5768C54.4814 64.5868 54.4814 64.5868 54.4714 64.5968L54.4814 64.5868C54.4714 64.5968 54.4714 64.5969 54.4614 64.6069C54.4414 64.6169 54.4214 64.6368 54.4014 64.6468H54.3914C54.3814 64.6568 54.3614 64.6669 54.3514 64.6669C54.3514 64.6669 54.3514 64.6669 54.3414 64.6669C54.3114 64.6769 54.2914 64.6868 54.2614 64.6968C54.1914 64.7168 54.1314 64.7869 54.1214 64.8569C54.1114 64.9369 54.1314 65.0169 54.1914 65.0669C54.2314 65.0969 54.2714 65.1168 54.3114 65.1468C54.3114 65.1468 54.3114 65.1468 54.3214 65.1468C54.3214 65.1468 54.3314 65.1468 54.3314 65.1568C54.3414 65.1668 54.3414 65.1669 54.3514 65.1769L54.3614 65.1869C54.3614 65.1969 54.3714 65.2068 54.3714 65.2168C54.3714 65.2168 54.3714 65.2169 54.3714 65.2269V65.2369C54.3714 65.2369 54.3714 65.2469 54.3814 65.2469C54.3814 65.2569 54.3814 65.2668 54.3814 65.2768C54.3814 65.3068 54.3914 65.3469 54.3914 65.3769C54.3914 65.3869 54.3914 65.3968 54.3914 65.4068C54.3914 65.4168 54.3914 65.4269 54.3814 65.4369C54.3614 65.4669 54.3414 65.4968 54.3314 65.5268C54.3214 65.5468 54.3214 65.5568 54.3114 65.5768C54.3114 65.5768 54.3114 65.5868 54.3014 65.5868C54.3014 65.5968 54.2914 65.5968 54.2914 65.5968C54.2214 65.6068 54.1514 65.6469 54.0914 65.6669C54.0714 65.6769 54.0514 65.6868 54.0414 65.6968C54.0014 65.7068 53.9714 65.7068 53.9314 65.7168C53.8014 65.7368 53.6614 65.7768 53.5414 65.8368C53.5014 65.8568 53.4614 65.8869 53.4214 65.9169C53.3714 65.9369 53.3214 65.9768 53.2914 66.0268C53.2614 66.0668 53.2514 66.0968 53.2414 66.1368C53.2314 66.1668 53.2214 66.1868 53.2214 66.2168C53.2014 66.2568 53.2014 66.2968 53.2114 66.3268C53.2114 66.3468 53.2114 66.3768 53.2014 66.3968C53.0114 66.4368 52.8014 66.4568 52.6014 66.4568C52.2314 66.4668 51.8714 66.4168 51.5514 66.3268ZM40.6714 64.9869C40.7614 64.9969 40.8514 64.9968 40.9514 65.0068C41.2414 65.0268 41.5314 65.0569 41.8314 65.0669C42.0514 65.0769 42.2714 65.0868 42.4914 65.0968C42.7214 65.1068 42.9514 65.1268 43.1914 65.1368C43.3314 65.1468 43.4614 65.1468 43.6014 65.1468C43.9314 65.1468 44.2614 65.1368 44.5914 65.1368C44.8414 65.1368 45.0914 65.1369 45.3414 65.1169C45.5714 65.0969 45.8014 65.0868 46.0414 65.0768C46.5014 65.0668 46.9714 65.0669 47.4414 65.0569C47.4514 65.0569 47.4714 65.0569 47.4814 65.0569C47.4914 65.0569 47.4914 65.0569 47.4914 65.0569C47.5314 65.0569 47.5614 65.0569 47.5914 65.0569C47.8214 65.0569 48.0514 65.0469 48.2814 65.0469C48.4914 65.0469 48.7014 65.0569 48.9014 65.0669C49.3314 65.0869 49.7614 65.0969 50.1914 65.1069C50.3614 65.1169 50.5414 65.1169 50.7114 65.1169C50.8714 65.1169 51.0314 65.1068 51.1814 65.0968C51.3214 65.0868 51.4614 65.0868 51.6014 65.0868C51.7214 65.0868 51.8514 65.0768 51.9714 65.0768C51.9614 65.0768 51.9614 65.0768 51.9514 65.0768H51.9414H51.9514C52.0514 65.0768 52.1514 65.0768 52.2514 65.0968H52.2414C52.2514 65.0968 52.2614 65.0968 52.2814 65.0968C52.3814 65.1068 52.4814 65.1169 52.5814 65.1169C52.6614 65.1169 52.7414 65.1068 52.8214 65.0868C52.9514 65.0568 53.0914 65.0269 53.2214 64.9869C53.3414 64.9469 53.4714 64.8968 53.5514 64.7868C53.6314 64.6868 53.6114 64.5568 53.5414 64.4668C53.4914 64.3968 53.4014 64.3668 53.3214 64.3468C53.1014 64.2968 52.8714 64.2469 52.6514 64.2369C52.4214 64.2169 52.1914 64.2168 51.9614 64.2068C51.7214 64.1968 51.4814 64.1869 51.2414 64.1669C50.9914 64.1469 50.7414 64.1268 50.4914 64.0968C50.2514 64.0768 50.0114 64.0469 49.7714 64.0469C49.5214 64.0469 49.2714 64.0668 49.0214 64.0768C49.0314 64.0768 49.0414 64.0768 49.0514 64.0768C48.7414 64.0868 48.4214 64.0869 48.1114 64.0669C47.9014 64.0569 47.7014 64.0468 47.4914 64.0368C47.5014 64.0368 47.5114 64.0368 47.5214 64.0368C47.1814 64.0368 46.8414 64.0768 46.5014 64.0968C46.5014 64.0968 46.5014 64.0968 46.4914 64.0968C46.3014 64.1068 46.1214 64.1068 45.9414 64.0968C45.9414 64.0968 45.9414 64.0968 45.9514 64.0968H45.9414C45.7114 64.0868 45.4814 64.0768 45.2414 64.0868C45.0214 64.0968 44.8014 64.1069 44.5914 64.1169C44.6014 64.1169 44.6114 64.1169 44.6214 64.1169C44.3114 64.1169 44.0114 64.1068 43.7014 64.0968C43.4214 64.0868 43.1414 64.1068 42.8614 64.1368C42.8714 64.1368 42.8814 64.1368 42.8914 64.1368C42.5414 64.1768 42.1814 64.1968 41.8314 64.2068C41.8314 64.2068 41.8314 64.2068 41.8414 64.2068C41.6014 64.2168 41.3614 64.2269 41.1214 64.2269C40.9114 64.2269 40.7114 64.2369 40.5014 64.2369C40.5114 64.2369 40.5214 64.2369 40.5314 64.2369C40.4014 64.2269 40.2614 64.2169 40.1314 64.2269C40.0514 64.2369 39.9614 64.2468 39.8714 64.2668C39.7714 64.2568 39.6814 64.2669 39.5814 64.3069C39.4514 64.3469 39.2914 64.4169 39.2514 64.5669C39.2314 64.6669 39.2814 64.7668 39.3614 64.8268C39.4214 64.8768 39.5114 64.9069 39.5914 64.9269C39.6314 64.9369 39.6614 64.9468 39.7014 64.9468C39.7314 64.9668 39.7614 64.9869 39.8014 64.9869C39.8714 64.9969 39.9414 64.9969 40.0214 64.9969C40.0714 65.0069 40.1314 65.0068 40.1814 65.0068C40.1914 65.0068 40.1914 65.0068 40.2014 65.0068C40.2414 65.0068 40.2714 65.0069 40.3114 64.9969H40.3214C40.4214 65.0169 40.5214 65.0169 40.6114 64.9969C40.6414 64.9969 40.6514 64.9869 40.6714 64.9869C40.6614 64.9869 40.6714 64.9869 40.6714 64.9869Z" fill="#9A00FF"/>
<path d="M39.2412 66.0566C39.2512 66.0666 39.2512 66.0666 39.2512 66.0766C39.2512 66.0666 39.2412 66.0666 39.2412 66.0566Z" fill="#9A00FF"/>
<path d="M38.9614 65.0166C38.9714 65.0266 38.9714 65.0266 38.9814 65.0266C38.9714 65.0266 38.9614 65.0266 38.9614 65.0166Z" fill="#9A00FF"/>
<path d="M38.6914 64.8271C38.7014 64.8371 38.7014 64.8371 38.6914 64.8271C38.7014 64.8371 38.7014 64.8371 38.6914 64.8271Z" fill="#9A00FF"/>
<path d="M38.6616 64.8066C38.6616 64.8066 38.6616 64.8166 38.6716 64.8266C38.6616 64.8166 38.6616 64.8166 38.6616 64.8066Z" fill="#9A00FF"/>
<path d="M38.6814 64.5068C38.6814 64.5168 38.6714 64.5269 38.6714 64.5269C38.6814 64.5269 38.6814 64.5168 38.6814 64.5068Z" fill="#9A00FF"/>
<path d="M38.7014 64.4766L38.6914 64.4866C38.6914 64.4866 38.7014 64.4866 38.7014 64.4766Z" fill="#9A00FF"/>
<path d="M38.6714 63.6465C38.6714 63.6565 38.6814 63.6565 38.6714 63.6465C38.6814 63.6565 38.6714 63.6565 38.6714 63.6465Z" fill="#9A00FF"/>
<path d="M38.6814 63.4268C38.6814 63.4268 38.6814 63.4368 38.6814 63.4268C38.6814 63.4368 38.6814 63.4367 38.6714 63.4467C38.6814 63.4467 38.6814 63.4368 38.6814 63.4268Z" fill="#9A00FF"/>
<path d="M54.5416 64.5273C54.5416 64.5373 54.5416 64.5374 54.5416 64.5374C54.5316 64.5274 54.5416 64.5273 54.5416 64.5273Z" fill="#9A00FF"/>
<path d="M54.4914 64.1266C54.4814 64.1166 54.4814 64.1166 54.4914 64.1266C54.4814 64.1166 54.4814 64.1166 54.4914 64.1266Z" fill="#9A00FF"/>
<path d="M45.6714 67.0664C44.3914 67.0364 43.1314 66.7964 41.8514 66.8564C41.7014 66.8564 41.5514 66.8564 41.4014 66.8564C40.7814 66.8564 40.1514 66.8664 39.5914 66.6164C39.6114 66.5964 39.6314 66.5764 39.6414 66.5464C39.6914 66.4364 39.6314 66.3064 39.5214 66.2664C39.5114 66.2664 39.5114 66.2564 39.5014 66.2564C39.4714 66.2364 39.4314 66.2164 39.3914 66.1964C39.4014 66.2064 39.4114 66.2064 39.4214 66.2164C39.3914 66.1964 39.3614 66.1764 39.3414 66.1664C39.3214 66.1464 39.3014 66.1364 39.2814 66.1164C39.2714 66.1064 39.2614 66.0964 39.2514 66.0764C39.2514 66.0764 39.2514 66.0664 39.2414 66.0664C39.2414 66.0664 39.2414 66.0764 39.2514 66.0764L39.2414 66.0664C39.2414 66.0564 39.2314 66.0564 39.2314 66.0464C39.2314 66.0364 39.2214 66.0364 39.2214 66.0264C39.2214 66.0264 39.2214 66.0164 39.2114 66.0164V66.0064C39.2114 65.9964 39.2114 65.9864 39.2114 65.9864C39.2114 65.9764 39.2114 65.9564 39.2214 65.9464C39.2214 65.9464 39.2214 65.9464 39.2214 65.9564C39.2414 65.8764 39.2714 65.7864 39.2814 65.6964C39.3014 65.6864 39.3114 65.6664 39.3214 65.6564C39.4114 65.5464 39.4214 65.3864 39.3214 65.2764C39.3114 65.2664 39.3014 65.2564 39.2914 65.2464C39.3614 65.1864 39.4514 65.1464 39.5514 65.1164C39.7814 65.0264 40.0014 65.1764 40.2314 65.1964C40.8914 65.2164 41.4114 65.1264 42.0214 65.0964C42.1814 65.1064 42.3414 65.1064 42.5014 65.1164C42.7314 65.1264 42.9614 65.1464 43.2014 65.1564C43.3414 65.1664 43.4714 65.1664 43.6114 65.1664C43.7114 65.1664 43.8114 65.1664 43.9014 65.1664C46.6814 65.2864 49.4314 65.3664 52.2114 65.1164C52.2314 65.1164 52.2514 65.1264 52.2814 65.1264H52.2714C52.2814 65.1264 52.3014 65.1264 52.3114 65.1264C52.4114 65.1364 52.5114 65.1464 52.6114 65.1464C52.6514 65.1464 52.6814 65.1464 52.7214 65.1364C53.1914 65.2764 53.5214 65.7664 53.1714 66.2564C52.8514 66.6764 52.2614 66.6764 51.7814 66.7364C50.0714 66.9764 48.3514 67.1064 46.6314 67.1064C46.2914 67.0764 45.9814 67.0664 45.6714 67.0664ZM41.2914 66.2464C41.3714 66.2464 41.4514 66.2464 41.5314 66.2564C41.6314 66.2664 41.7414 66.2664 41.8414 66.2664C41.9614 66.2664 42.0814 66.2664 42.2014 66.2664C42.2114 66.2664 42.2214 66.2664 42.2314 66.2664C42.5614 66.2664 42.8914 66.2664 43.2214 66.2464C43.5914 66.2164 43.9614 66.1964 44.3314 66.1964C44.5414 66.1964 44.7514 66.2064 44.9614 66.2064C45.1814 66.2064 45.3914 66.2064 45.6114 66.2064C45.8214 66.2064 46.0214 66.2064 46.2314 66.2164C46.4414 66.2264 46.6514 66.2364 46.8614 66.2464C46.8514 66.2464 46.8414 66.2464 46.8314 66.2464C47.1914 66.2564 47.5414 66.2464 47.9014 66.2364C47.8914 66.2364 47.8814 66.2364 47.8714 66.2364C48.3014 66.2164 48.7314 66.2164 49.1614 66.2064C49.5914 66.1864 50.0214 66.1664 50.4514 66.1764C50.8714 66.1864 51.3014 66.1964 51.7214 66.1764C51.9214 66.1664 52.1214 66.1464 52.3214 66.1264C52.4514 66.1164 52.5714 66.0964 52.6914 66.0564C52.6814 66.0564 52.6814 66.0564 52.6714 66.0664C52.7014 66.0564 52.7214 66.0464 52.7414 66.0364C52.8214 66.0064 52.9014 65.9264 52.8914 65.8364C52.8914 65.7564 52.8614 65.6964 52.8014 65.6364C52.7514 65.5964 52.6914 65.5664 52.6314 65.5364C52.5814 65.5164 52.5214 65.4964 52.4614 65.4864C52.2914 65.4564 52.1114 65.4264 51.9414 65.4264C51.7314 65.4264 51.5114 65.4364 51.3014 65.4364C51.1814 65.4364 51.0614 65.4364 50.9414 65.4364C50.7914 65.4364 50.6414 65.4564 50.4914 65.4564C50.3814 65.4564 50.2814 65.4464 50.1714 65.4364C49.8614 65.4064 49.5514 65.3964 49.2414 65.3864C49.2414 65.3864 49.2414 65.3864 49.2514 65.3864C49.1914 65.3864 49.1414 65.3864 49.0814 65.3764C49.0914 65.3764 49.1014 65.3764 49.1214 65.3764C49.0714 65.3764 49.0114 65.3764 48.9614 65.3764C48.9514 65.3764 48.9414 65.3764 48.9414 65.3764C48.9514 65.3764 48.9514 65.3764 48.9614 65.3764C48.7814 65.3764 48.6014 65.3764 48.4214 65.3764C48.4314 65.3764 48.4514 65.3764 48.4614 65.3764C48.3314 65.3764 48.2014 65.3764 48.0714 65.3764C47.8814 65.3764 47.6814 65.3764 47.4914 65.3764C47.1814 65.3864 46.8714 65.3964 46.5514 65.4164C46.2514 65.4264 45.9414 65.4364 45.6314 65.4464C45.3014 65.4564 44.9714 65.4964 44.6414 65.5264C44.6514 65.5264 44.6614 65.5264 44.6714 65.5264C44.4014 65.5464 44.1314 65.5664 43.8514 65.5764C43.7814 65.5764 43.7014 65.5764 43.6214 65.5764C43.3914 65.5664 43.1614 65.5464 42.9314 65.5364C42.7014 65.5264 42.4614 65.5364 42.2214 65.5564C41.7514 65.5864 41.2714 65.6264 40.8114 65.7264C40.7214 65.7464 40.6114 65.7664 40.5314 65.8264C40.4614 65.8764 40.4314 65.9764 40.4714 66.0564C40.4914 66.1164 40.5414 66.1464 40.5914 66.1564C40.6214 66.1764 40.6614 66.1864 40.7014 66.1964C40.6914 66.1964 40.6914 66.1964 40.6814 66.1864C40.7614 66.2164 40.8514 66.2364 40.9414 66.2364C40.9514 66.2364 40.9614 66.2364 40.9714 66.2364C40.9914 66.2464 41.0114 66.2564 41.0314 66.2564C41.0814 66.2564 41.1314 66.2564 41.1814 66.2564C41.2114 66.2564 41.2314 66.2564 41.2514 66.2564C41.2714 66.2464 41.2814 66.2464 41.2914 66.2464Z" fill="#9A00FF"/>
<path d="M39.2115 65.9973V65.9873C39.2015 65.9873 39.2115 65.9973 39.2115 65.9973Z" fill="#9A00FF"/>
<path d="M46.2514 73.2571C45.0314 73.2571 44.0515 72.2872 43.9515 71.0872C42.3115 71.5772 40.4915 71.2572 39.8815 69.4572C39.5315 68.6172 39.3815 67.6772 39.4115 66.7772C39.4115 66.7772 39.4115 66.7772 39.4215 66.7772C39.4615 66.7472 39.4815 66.7072 39.4915 66.6572C39.5015 66.6572 39.5015 66.6572 39.5115 66.6572C39.5715 66.6472 39.6214 66.6072 39.6514 66.5472C39.7014 66.4372 39.6414 66.3071 39.5314 66.2671C39.5314 66.2671 39.5215 66.2671 39.5215 66.2571C39.5515 66.1971 39.5915 66.1372 39.6415 66.0872C39.8715 65.8272 40.2115 65.8372 40.4615 65.9772C40.4615 65.9972 40.4615 66.0272 40.4715 66.0472C40.4915 66.0972 40.5315 66.1272 40.5815 66.1472C40.6115 66.1672 40.6515 66.1772 40.6915 66.1872C40.8115 66.3572 40.8515 66.5872 40.7215 66.8172C40.7615 67.8472 40.8815 69.0571 41.6415 69.8271C42.1415 70.0671 42.7615 69.9371 43.3015 69.8871C44.0915 69.6271 44.8915 69.0571 45.2015 70.2571C45.2415 71.5671 45.5115 72.0272 46.8915 71.9372C47.2115 71.8772 47.5315 71.6372 47.6915 71.3572C47.8315 70.7372 48.0015 69.5872 48.9115 69.9072C49.1615 70.0072 49.2815 70.2372 49.4715 70.4072C49.7515 70.6472 50.1915 70.6671 50.5115 70.5071C51.6615 69.8471 51.7915 68.3072 51.8615 67.1272C51.8615 66.8572 51.7815 66.4972 51.7615 66.1572C51.9415 66.1472 52.1314 66.1372 52.3114 66.1172C52.4414 66.1072 52.5614 66.0872 52.6814 66.0472C52.6714 66.0472 52.6715 66.0472 52.6615 66.0572C52.6915 66.0472 52.7115 66.0372 52.7315 66.0272C52.8115 65.9972 52.8915 65.9171 52.8815 65.8271C52.8815 65.7471 52.8515 65.6872 52.7915 65.6272C52.7415 65.5872 52.6814 65.5572 52.6214 65.5272C52.5714 65.5072 52.5115 65.4872 52.4515 65.4772C52.2815 65.4472 52.1014 65.4172 51.9314 65.4172C51.9214 65.4172 51.9114 65.4172 51.9014 65.4172C51.9914 65.2972 52.1215 65.2072 52.3215 65.1672C52.9215 65.1072 53.1114 65.7172 53.1814 66.3772C53.1814 66.3972 53.1814 66.4271 53.1814 66.4471C53.1814 66.4871 53.1815 66.5272 53.1915 66.5672V66.5771C53.2115 67.0071 53.2015 67.4272 53.2015 67.6772C53.0815 68.5272 53.0115 69.4072 52.6915 70.2072C52.0615 71.5672 50.4115 72.4872 48.9915 71.7172C48.6615 72.6872 47.6715 73.2772 46.6715 73.2772C46.5415 73.2972 46.3914 73.2871 46.2514 73.2571Z" fill="#9A00FF"/>
<path d="M40.7017 66.1868C40.6917 66.1868 40.6916 66.1868 40.6816 66.1768C40.6916 66.1768 40.6917 66.1868 40.7017 66.1868Z" fill="#9A00FF"/>
<path d="M41.8214 62.5469C41.3014 62.2469 41.6514 61.5068 41.7114 61.0768C42.3714 58.0868 42.7414 54.9969 42.0414 51.9769C40.6114 52.7769 39.7914 50.6169 39.2914 49.6269C38.7614 48.3569 38.5314 45.9968 40.1814 45.5068C40.6214 45.4768 40.8514 45.8968 41.0514 46.2168C41.6714 47.2368 42.1014 48.4168 42.5314 49.5068C43.0814 45.5768 43.6114 41.6369 44.0114 37.6869C44.0614 37.2269 44.7914 37.2268 44.8314 37.6968C44.8514 38.0568 44.8514 38.4168 44.8614 38.7168C45.0114 40.8568 45.3814 42.9869 45.6014 45.1269C45.7514 46.3969 45.9114 47.7868 46.7914 48.7768C48.4514 45.8468 48.2114 42.1768 48.9614 38.9468C49.1014 38.2168 49.2214 37.4868 49.4114 36.7768C49.4614 36.6068 49.6214 36.4769 49.8014 36.4869C50.4814 36.5769 50.0814 37.4369 50.1114 37.8769C49.9714 40.1469 49.9014 42.4269 49.6414 44.6869C49.6114 45.8969 48.6814 49.7168 50.6814 49.5768C51.1914 47.3968 51.7114 44.4069 54.1214 43.5969C55.8614 43.6669 55.2314 45.9168 54.6214 46.8868C53.8514 48.2068 52.8614 49.4969 51.4614 50.1769C50.6714 54.0969 49.7614 58.0469 49.8614 62.0669C49.8914 62.2669 49.7414 62.4468 49.5414 62.4668C48.7914 62.5068 49.2114 60.7568 49.1414 60.2568C49.2214 56.9268 49.9514 53.6769 50.5214 50.4069C48.7014 50.3869 48.4214 48.1868 48.5614 46.7668C47.9214 49.4668 46.6114 51.0969 45.1714 47.6669C44.6014 46.1369 44.5914 44.4569 44.4014 42.8469C43.8214 45.5869 44.0914 48.5868 42.8514 51.1468C43.7414 54.7968 43.3414 58.5768 42.3614 62.1468C42.4514 62.4268 42.0914 62.7269 41.8214 62.5469ZM41.4114 51.3268C41.4314 51.3268 41.4514 51.3169 41.4814 51.3169V51.3268C41.6514 51.2568 41.7814 51.1369 41.8814 50.9969C41.6714 49.3269 40.9514 47.7968 40.1714 46.3268C39.0214 47.7368 40.2814 50.2768 41.4114 51.3268ZM51.9114 48.1368C51.8314 48.4368 51.7614 48.7469 51.6914 49.0569C51.6914 49.0569 51.6914 49.0569 51.6914 49.0669C52.7614 48.2669 54.7614 45.8868 54.4014 44.5168C54.2814 44.2968 54.0714 44.4369 53.9114 44.5369C52.7414 45.3669 52.2614 46.8068 51.9114 48.1368Z" fill="#9A00FF"/>
<path d="M48.0514 62.7571C47.8814 62.7471 47.7614 62.7371 47.6414 62.7271C45.2614 62.8171 42.8314 62.6771 40.4614 62.7471C40.1714 62.7771 39.7514 62.8971 39.6414 62.5071C39.5414 61.9371 40.2514 62.0071 40.6314 61.9771C41.8614 61.7871 43.1114 61.9571 44.3614 61.9071C46.7014 61.8171 49.0914 62.0571 51.4214 61.8471C51.9814 61.9471 53.9614 61.2971 53.7814 62.2071C53.7214 62.4471 53.4714 62.4871 53.2614 62.4771C51.5214 62.7171 49.7614 62.8571 48.0114 62.7571H48.0514Z" fill="#9A00FF"/>
<path d="M43.4214 86.3268C40.8214 86.0268 38.2314 85.4369 35.7514 84.6169C33.2814 83.7569 31.1314 82.2368 28.7614 81.1469C26.3714 80.0968 24.0814 78.8569 22.1214 77.1169C20.6314 75.9069 19.0214 74.8169 17.7514 73.3469C15.6814 70.7369 13.9014 67.8369 12.5114 64.8069C11.5314 62.2769 10.8814 59.6369 10.4214 56.9669C9.47145 50.8269 10.2115 44.5169 11.8015 38.5369C12.9415 33.8269 14.9114 29.3569 17.1514 25.0669C18.4414 22.5969 20.5814 20.6168 22.6214 18.7568C24.9514 16.8068 27.4814 15.0669 30.3714 14.0569C31.6514 13.5569 32.9814 12.7669 34.2214 12.3169C35.9214 11.6869 37.7214 11.3269 39.4814 10.9169C41.9414 10.3169 44.4615 10.0968 46.9915 10.3268C48.7615 10.3268 50.5315 10.1569 52.3015 10.2269C58.3715 10.6269 64.5614 12.2869 69.7614 15.4969C72.0814 17.1269 73.5415 19.6769 75.7415 21.4569C77.7315 23.1868 79.0114 25.5269 80.3814 27.7369C81.5014 29.5569 82.8714 31.2769 83.4714 33.3569C85.1114 39.0269 86.0314 44.8969 85.8114 50.8069C85.7114 54.2969 84.7115 57.6769 83.8015 61.0269C82.7015 64.3169 81.2915 67.5668 79.3315 70.4468C77.2514 73.4568 74.2814 75.7469 71.3914 77.9269C63.0215 83.9369 53.7514 87.0068 43.4214 86.3268ZM47.8615 84.3669C57.0115 84.2569 65.9214 80.2768 72.8114 74.4468C77.3114 70.9968 79.9715 66.4469 81.7415 61.1269C82.6315 57.6669 83.6014 54.1769 83.7614 50.5969C83.8714 44.9669 83.1314 39.3869 81.6314 33.9769C81.0814 32.0269 79.7214 30.4469 78.7214 28.7169C77.5914 26.9669 76.5314 25.1468 75.1514 23.5768C74.3014 22.7168 73.3915 21.9269 72.5515 21.0569C71.2415 19.7569 70.2014 18.0769 68.6814 17.0469C65.4714 15.0169 61.8714 13.7668 58.1914 12.9468C54.9814 12.1868 51.7114 11.9068 48.4214 12.2068C46.7214 12.3168 45.0114 12.0069 43.3114 12.1469C39.6414 12.6769 35.8615 13.3369 32.5515 15.0369C27.1515 16.9469 22.3414 20.4069 18.9014 24.9769C17.9014 26.3369 17.3315 27.9769 16.6415 29.5269C15.8115 31.4369 14.8614 33.2969 14.2214 35.2969C12.0514 42.3369 10.7415 49.9468 12.0515 57.2568C12.5715 59.8468 13.2815 62.4169 14.3015 64.8569C15.7415 67.6469 17.4514 70.3468 19.5314 72.7068C22.4214 75.1968 25.4314 77.7269 28.9714 79.2369C31.3514 80.2669 33.5114 81.7469 35.9314 82.6869C39.7614 84.0369 43.8115 84.7269 47.8615 84.3669Z" fill="#9A00FF"/>
</g>
<defs>
<filter id="filter0_d_24_4043" x="0" y="0.209961" width="95.8438" height="96.21" filterUnits="userSpaceOnUse" color-interpolation-filters="sRGB">
<feFlood flood-opacity="0" result="BackgroundImageFix"/>
<feColorMatrix in="SourceAlpha" type="matrix" values="0 0 0 0 0 0 0 0 0 0 0 0 0 0 0 0 0 0 127 0" result="hardAlpha"/>
<feOffset/>
<feGaussianBlur stdDeviation="5"/>
<feComposite in2="hardAlpha" operator="out"/>
<feColorMatrix type="matrix" values="0 0 0 0 0.603922 0 0 0 0 0 0 0 0 0 1 0 0 0 1 0"/>
<feBlend mode="normal" in2="BackgroundImageFix" result="effect1_dropShadow_24_4043"/>
<feBlend mode="normal" in="SourceGraphic" in2="effect1_dropShadow_24_4043" result="shape"/>
</filter>
</defs>
</svg>
