<svg width="16" height="55" viewBox="0 0 16 55" fill="none" xmlns="http://www.w3.org/2000/svg">
<g filter="url(#filter0_d_24_4521)">
<path d="M3.98886 13.0105C0.708859 11.1905 0.488865 6.94056 1.83886 3.80056C2.29886 2.77056 2.88887 1.06055 4.27887 1.23055C9.70887 -2.00945 14.1288 3.88055 13.2888 9.10055C12.7088 13.4605 7.49886 15.5005 3.98886 13.0105ZM7.07886 12.3606C8.80886 12.3206 10.6589 11.5805 11.2689 9.83053C12.1189 7.31053 11.3289 4.06053 9.08887 2.52053C8.30887 2.07053 7.35885 1.89056 6.47885 2.17056C5.74885 2.29056 4.91887 2.90052 4.21887 2.51052C2.75887 4.59052 2.07886 7.61056 3.17886 9.99056C4.04886 11.2306 5.53886 12.2506 7.07886 12.3606Z" fill="white"/>
<path d="M6.96867 35.8608C2.93867 34.9808 0.0186687 30.8508 1.30867 26.7808C1.67867 25.6508 2.04866 24.1407 3.35866 23.8107C6.17866 21.2207 11.3187 22.4108 13.5487 25.2908C15.5787 27.9808 15.2787 32.3408 12.9187 34.7408C11.3187 36.0508 8.93867 36.4908 6.96867 35.8608ZM8.66865 34.3207C9.71865 34.2107 10.9087 34.0407 11.7187 33.3107C13.0487 31.8307 13.2987 29.5808 12.7687 27.7208C11.9387 25.2508 9.07866 24.0008 6.60866 24.3008C5.89866 24.4108 5.19868 24.6008 4.56868 24.9708C4.33868 25.1208 4.04866 25.1708 3.79866 25.0908C3.26866 25.3908 3.18866 26.0908 2.98866 26.6108C2.47866 28.1608 2.57865 29.8708 3.41865 31.2908C4.44865 33.1508 6.64865 34.0707 8.66865 34.3207Z" fill="white"/>
<path d="M8.10879 52.4704C7.59879 52.3304 7.6088 51.7004 7.5588 51.2604C7.2988 49.9004 7.2888 48.5204 7.3988 47.1404C7.4788 43.5204 7.23881 39.8904 7.43881 36.3204C7.40881 35.7404 7.43881 34.8804 8.18881 34.8204C8.55881 34.8004 8.90879 35.0605 8.97879 35.4305C9.04879 36.2205 8.95879 37.0204 8.94879 37.8204C8.95879 40.6004 9.12879 43.3704 9.10879 46.1504C9.05879 47.6404 8.92881 49.1205 9.02881 50.6105C8.99881 51.3005 9.22879 52.7204 8.10879 52.4704Z" fill="white"/>
<path d="M7.96885 34.76C4.84885 34.58 1.82883 31.88 2.00883 28.64C1.66883 28.36 1.78885 27.92 1.86885 27.55C2.05885 26.26 2.89885 25.09 3.92885 24.32C4.51885 24.07 5.07884 23.24 5.76884 23.6C7.64884 22.66 9.67885 23.93 10.9989 25.26C12.2989 24.23 13.8189 27.95 13.3089 28.85C13.1489 30.74 12.7089 33.18 10.7489 33.99C9.95885 34.33 9.17884 34.77 8.29884 34.77C8.17884 34.78 8.07885 34.77 7.96885 34.76ZM4.61885 26.17C4.33885 26.67 4.12885 27.2 3.96885 27.75C3.84885 28.18 3.74885 28.62 3.74885 29.07C3.74885 29.55 3.81884 30.04 3.98884 30.49C4.34884 31.45 5.08884 32.2 5.98884 32.66C6.73884 33.05 7.59883 33.31 8.44883 33.31C8.51883 33.31 8.59884 33.31 8.66884 33.3C9.29884 33.26 9.92884 33.07 10.4588 32.71C10.8888 32.41 11.2188 32.01 11.4588 31.55C11.7788 30.93 11.8889 30.25 11.8789 29.56C11.9889 28.94 11.9489 28.3 11.7489 27.68C11.4089 26.67 10.7088 25.84 9.76884 25.35C9.61884 25.27 9.46885 25.2 9.30885 25.14C9.28885 25.13 9.27883 25.12 9.25883 25.11C9.01883 24.97 8.74885 24.82 8.46885 24.75C8.27885 24.71 8.07884 24.68 7.88884 24.67C7.66884 24.6 7.44885 24.55 7.21885 24.53C7.14885 24.52 7.08884 24.52 7.01884 24.52C5.95884 24.54 5.10885 25.29 4.61885 26.17Z" fill="white"/>
<path d="M6.74859 12.4703C4.91859 12.2003 3.14857 10.8203 2.41857 9.13027C2.00857 7.80027 1.93857 6.33027 1.97857 4.95027C2.12857 3.63027 2.51857 2.23031 3.44857 1.24031C5.32857 -0.489688 8.46859 0.210278 9.99859 2.08028C12.6786 3.72028 12.9586 7.63028 11.5486 10.2103C10.6886 11.8103 8.74856 12.4703 7.00856 12.4703C6.91856 12.4803 6.82859 12.4803 6.74859 12.4703ZM7.77858 10.8803C7.84858 10.8803 7.92859 10.8803 7.99859 10.8703C9.13859 10.7703 10.0186 9.93028 10.4486 8.90028C10.8586 7.90028 10.9386 6.80027 10.6286 5.76027C10.3486 4.85027 9.76859 4.0903 8.99859 3.5403C8.58859 3.2503 8.09859 2.96031 7.59859 2.86031C7.11859 2.76031 6.65858 2.75029 6.17858 2.84029C5.25858 3.02029 4.31859 3.46027 3.71859 4.20027C3.08859 4.96027 2.79857 5.98028 2.82857 6.96028C2.85857 7.92028 3.29859 8.8903 3.99859 9.5403C4.72859 10.2203 5.66859 10.7603 6.68859 10.8303C6.87859 10.8403 7.05859 10.8403 7.24859 10.8203C7.40859 10.8603 7.59858 10.8803 7.77858 10.8803Z" fill="white"/>
</g>
<defs>
<filter id="filter0_d_24_4521" x="0" y="0.25" width="15.8984" height="54.25" filterUnits="userSpaceOnUse" color-interpolation-filters="sRGB">
<feFlood flood-opacity="0" result="BackgroundImageFix"/>
<feColorMatrix in="SourceAlpha" type="matrix" values="0 0 0 0 0 0 0 0 0 0 0 0 0 0 0 0 0 0 127 0" result="hardAlpha"/>
<feOffset dy="1"/>
<feGaussianBlur stdDeviation="0.5"/>
<feComposite in2="hardAlpha" operator="out"/>
<feColorMatrix type="matrix" values="0 0 0 0 1 0 0 0 0 1 0 0 0 0 1 0 0 0 0.77 0"/>
<feBlend mode="normal" in2="BackgroundImageFix" result="effect1_dropShadow_24_4521"/>
<feBlend mode="normal" in="SourceGraphic" in2="effect1_dropShadow_24_4521" result="shape"/>
</filter>
</defs>
</svg>
