<svg width="85" height="281" viewBox="0 0 85 281" fill="none" xmlns="http://www.w3.org/2000/svg">
<path d="M29.2405 232.547C28.7505 226.127 28.9505 219.667 28.9005 213.217C28.7805 206.337 28.4605 199.457 28.2605 192.577C28.2005 185.737 28.5305 178.907 28.8705 172.067C29.1405 165.997 28.9105 159.917 29.2805 153.857C29.3105 153.447 29.3505 152.947 29.7805 152.757C30.0205 152.647 30.3005 152.717 30.4905 152.897C30.9605 153.617 30.6905 154.787 30.8005 155.627C30.8705 158.187 30.8605 160.747 30.8605 163.297C30.9605 170.117 30.5105 176.927 30.2605 183.737C30.0405 197.387 31.0105 211.017 30.6205 224.667C30.5805 227.287 30.9705 229.937 30.6805 232.547C30.5005 233.237 29.4105 233.267 29.2405 232.547Z" fill="#FF00BF"/>
<path d="M28.721 175.937C27.351 175.837 26.281 174.896 25.101 174.286C24.251 173.866 23.371 173.507 22.611 172.927C19.251 170.187 16.051 167.117 13.881 163.327C12.401 160.297 11.421 156.997 10.991 153.647C10.771 151.167 10.621 148.667 10.511 146.187C10.481 145.497 10.481 144.127 11.531 144.557C11.761 144.677 11.831 144.907 11.881 145.147C11.961 145.747 12.001 146.347 12.081 146.947C12.431 149.587 12.491 152.317 12.951 154.927C13.451 157.427 14.271 159.796 15.301 162.096C17.231 165.636 20.211 168.476 23.211 171.106C24.641 172.336 26.431 172.947 27.961 174.027C28.471 174.297 29.261 174.376 29.381 175.046C29.641 175.476 29.211 176.067 28.721 175.937Z" fill="#FF00BF"/>
<path d="M12.0307 280.117C10.7307 280.127 9.44075 280.097 8.14075 280.077C6.98075 280.047 5.82074 280.027 4.66074 280.037C3.83074 280.017 3.01074 279.917 2.19074 279.827C1.15074 279.797 0.0807404 279.367 0.000740421 278.187C-0.0392596 275.747 1.55075 273.647 2.51075 271.497C3.69075 269.337 4.57075 267.047 5.51075 264.777C9.39075 257.157 11.8308 248.927 16.7008 241.867C18.6608 239.057 21.0907 236.577 23.9107 234.617C25.5607 233.467 27.4908 232.857 29.3308 232.087C29.6908 231.947 30.1108 231.747 30.4008 232.127C30.6108 232.387 30.5407 232.727 30.3507 232.927C30.0507 233.477 29.4208 233.687 28.8908 233.957C23.8708 235.847 20.1307 239.867 17.2807 244.277C13.7407 250.287 11.5007 256.867 8.47074 263.117C6.86074 266.237 5.73075 269.557 4.01075 272.617C3.19075 274.387 1.80074 276.057 1.66074 278.057C4.78074 278.467 7.95076 278.427 11.1108 278.387C12.0908 278.377 13.0708 278.357 14.0508 278.357C17.5408 278.267 20.9908 277.527 24.4908 277.547C25.9808 277.627 27.4607 277.427 28.9407 277.307C30.7007 277.127 32.3007 277.327 33.8807 276.597C35.0507 275.887 36.4307 275.427 37.3707 274.417C37.5207 274.207 37.6608 273.987 37.8008 273.767C37.8908 273.687 37.9707 273.607 38.0607 273.527C38.0707 273.517 38.0708 273.517 38.0808 273.507C38.0908 273.497 38.0907 273.497 38.1007 273.487C38.2607 273.317 38.4208 273.147 38.5508 272.947C38.6108 272.857 38.6707 272.767 38.7207 272.667C38.8907 272.427 39.0508 272.177 39.2008 271.917C39.2608 271.817 39.3308 271.707 39.4008 271.607C39.5208 271.427 39.6207 271.237 39.7207 271.047C39.9007 270.697 40.0708 270.337 40.1708 269.957C40.2808 269.567 40.3807 269.167 40.4407 268.777C40.4507 268.707 40.4607 268.627 40.4707 268.557C40.6107 268.067 40.6908 267.557 40.7408 267.047C40.7908 266.527 40.8107 265.997 40.8207 265.477C40.8407 264.937 40.8607 264.387 40.8807 263.847C40.8807 263.857 40.8807 263.867 40.8807 263.887V263.897C40.8807 263.887 40.8807 263.887 40.8807 263.877C40.8807 263.847 40.8807 263.817 40.8807 263.777C40.8807 263.767 40.8807 263.757 40.8807 263.747C41.2207 263.677 41.5707 263.837 41.7507 264.137C42.7507 265.767 41.8308 267.727 41.6708 269.467C41.2808 271.747 40.2107 273.977 38.8107 275.807C37.4407 277.147 35.5707 277.967 33.8207 278.717C32.0107 279.257 30.1008 279.147 28.2308 279.317C27.1808 279.397 26.1307 279.467 25.0707 279.447C22.8607 279.347 20.6708 279.567 18.4808 279.787C16.6608 279.967 14.8307 280.157 13.0007 280.157C12.6807 280.137 12.3507 280.127 12.0307 280.117Z" fill="#FF00BF"/>
<path d="M38.0708 273.486C38.0608 273.496 38.0608 273.496 38.0508 273.506C38.0608 273.506 38.0608 273.496 38.0708 273.486Z" fill="#FF00BF"/>
<path d="M38.1308 273.426C38.1208 273.436 38.1208 273.436 38.1108 273.446C38.1208 273.436 38.1308 273.426 38.1308 273.426Z" fill="#FF00BF"/>
<path d="M39.7309 270.996C39.7209 271.006 39.7209 271.026 39.7109 271.036C39.6909 271.066 39.6809 271.086 39.6709 271.116C39.6909 271.076 39.7109 271.036 39.7309 270.996Z" fill="#FF00BF"/>
<path d="M40.2709 270.626C40.1509 270.606 40.0509 270.556 39.9609 270.496C40.0409 270.316 40.1009 270.136 40.1509 269.946C40.2609 269.556 40.3609 269.156 40.4209 268.766C40.4309 268.696 40.4409 268.616 40.4509 268.536C40.5909 268.046 40.6709 267.536 40.7209 267.026C40.7709 266.506 40.7909 265.976 40.8009 265.456C40.8109 264.916 40.8409 264.366 40.8609 263.826C40.8609 263.836 40.8609 263.846 40.8609 263.866V263.876C40.8609 263.866 40.8609 263.866 40.8609 263.856C40.8609 263.826 40.8609 263.796 40.8609 263.756C40.8609 263.756 40.8609 263.756 40.8609 263.746C40.8609 263.726 40.8609 263.716 40.8609 263.696C40.8609 263.696 40.8609 263.696 40.8609 263.706C40.8609 263.686 40.8609 263.666 40.8609 263.656C40.8609 263.686 40.8609 263.716 40.8609 263.736C40.8909 263.046 40.9009 262.356 40.9209 261.676C40.9409 260.956 40.9709 260.236 40.9609 259.506C40.9609 259.556 40.9609 259.606 40.9609 259.656C40.9509 259.246 40.9409 258.836 40.9109 258.416V258.406C40.9109 258.406 40.9109 258.406 40.9109 258.396C40.8709 257.766 40.8209 257.126 40.7609 256.496C40.7509 256.416 40.7509 256.336 40.7409 256.256C40.7109 255.766 40.7309 255.286 40.7509 254.806C40.7609 254.316 40.7609 253.836 40.7309 253.346C40.7209 253.186 40.7109 253.026 40.7009 252.866C40.7409 249.986 40.7509 247.116 40.8209 244.276C40.5509 239.966 40.6709 235.636 40.5009 231.366C40.4409 228.156 40.5909 224.946 40.4909 221.736C40.3109 217.096 40.0509 212.446 39.9909 207.796C39.9209 203.786 40.3909 199.806 40.6809 195.816C40.9209 193.136 40.8909 190.436 41.1709 187.756C41.4809 185.146 41.8109 182.546 42.1509 179.946C42.5409 176.026 43.8509 172.036 47.1109 169.586C48.2609 168.666 49.5209 167.906 50.6909 167.006C52.2409 165.656 53.5809 164.066 54.8509 162.446C56.4309 160.146 57.8409 157.596 58.1209 154.766C58.3809 152.016 57.8009 149.306 58.0809 146.566C58.1609 146.056 58.1709 145.496 58.4709 145.056C58.7609 144.726 59.3609 144.736 59.5609 145.176C59.4009 149.256 60.4409 153.466 59.3309 157.496C58.2409 161.256 55.7509 164.436 53.0709 167.216C49.6009 170.436 45.5909 171.506 44.5909 176.836C43.9109 180.556 43.5909 184.566 43.1309 188.246C42.9109 190.926 42.9309 193.606 42.6909 196.286C42.3309 200.546 41.9009 204.816 42.0409 209.096C42.1509 214.706 42.5509 220.306 42.5109 225.916C42.3409 230.556 42.5309 235.196 42.5109 239.826C42.6809 243.626 42.6009 247.436 42.4009 251.236C42.2409 254.676 42.3509 258.116 42.0309 261.546C41.8309 263.896 41.9809 266.256 41.3509 268.556C41.1509 269.296 41.3309 270.626 40.3209 270.626C40.3109 270.626 40.2909 270.626 40.2709 270.626Z" fill="#FF00BF"/>
<path d="M40.1906 270.106C40.1706 270.096 40.1406 270.096 40.1206 270.086C40.1306 270.036 40.1506 269.996 40.1606 269.946C40.2706 269.556 40.3706 269.156 40.4306 268.766C40.4406 268.696 40.4506 268.616 40.4606 268.536C40.6006 268.046 40.6806 267.536 40.7306 267.026C40.7806 266.506 40.8006 265.976 40.8106 265.456C40.8206 264.916 40.8506 264.366 40.8706 263.826C40.8706 263.836 40.8706 263.856 40.8706 263.866V263.876C40.8706 263.866 40.8706 263.866 40.8706 263.856C40.8706 263.826 40.8706 263.796 40.8706 263.756C40.8706 263.756 40.8706 263.756 40.8706 263.746C40.8706 263.736 40.8706 263.736 40.8706 263.726V263.716C40.8706 263.696 40.8706 263.676 40.8706 263.666C40.8706 263.706 40.8706 263.736 40.8706 263.776C40.8706 263.736 40.8706 263.696 40.8706 263.656C40.8706 263.646 40.8706 263.636 40.8706 263.626C40.8906 262.976 40.9106 262.326 40.9306 261.666C40.9506 260.946 40.9806 260.226 40.9706 259.496C40.9706 259.546 40.9706 259.596 40.9706 259.646C40.9606 259.236 40.9506 258.816 40.9206 258.406V258.416V258.406C40.9206 258.406 40.9206 258.406 40.9206 258.396C40.8806 257.766 40.8306 257.126 40.7706 256.496C40.7606 256.416 40.7606 256.336 40.7506 256.256C40.7206 255.766 40.7406 255.286 40.7606 254.806C40.7706 254.316 40.7706 253.836 40.7406 253.346C40.7306 253.096 40.7106 252.846 40.6806 252.596C40.7506 252.416 40.8506 252.236 40.9806 252.076C41.1206 251.486 40.9406 250.696 41.4306 250.266C41.7906 250.016 42.3206 250.236 42.3806 250.676C42.5006 251.696 42.2506 252.746 42.1806 253.756C42.1806 255.176 42.1206 256.596 42.1806 258.006C42.5006 260.246 42.3106 262.506 42.2206 264.756C42.1806 265.806 42.0606 266.856 41.9106 267.896C41.8606 268.326 41.6906 268.856 41.2206 268.986C41.1506 269.476 40.9206 270.146 40.3706 270.146C40.3306 270.146 40.2606 270.136 40.1906 270.106Z" fill="#FF00BF"/>
<path d="M47.171 214.766C44.821 214.766 42.491 214.646 40.151 214.726C37.921 214.756 35.691 214.766 33.481 214.526C32.731 214.406 31.451 214.586 31.331 213.566C31.291 212.966 31.901 212.666 32.431 212.636C35.531 212.456 38.701 212.546 41.801 212.576C43.041 212.556 44.281 212.626 45.521 212.696C46.531 212.706 47.591 212.626 48.5609 212.966C49.4109 213.246 49.331 214.586 48.421 214.716C48.001 214.766 47.581 214.756 47.161 214.746H47.171V214.766Z" fill="#D6FF00"/>
<path d="M46.8708 204.717C43.9108 204.507 40.9508 204.207 37.9808 204.197C36.4108 204.197 34.8408 204.087 33.2708 204.097C32.9208 204.097 32.4508 204.147 32.1508 203.917C31.7008 203.617 31.7408 202.867 32.2508 202.657C33.5408 202.227 34.9408 202.237 36.2908 202.217C39.8208 202.187 43.3108 202.547 46.8308 202.827C47.5408 202.837 48.4308 202.667 48.9708 203.257C49.7108 204.527 47.7308 204.787 46.8708 204.717Z" fill="#D6FF00"/>
<path d="M41.7307 195.126C39.1407 194.856 36.5507 194.696 33.9507 194.536C33.1607 194.386 31.4907 194.876 31.5907 193.616C32.0107 191.826 40.2907 192.996 41.9507 193.086C43.6907 193.186 45.4307 193.196 47.1707 193.156C47.8107 193.226 48.6307 193.126 49.0507 193.716C49.2907 194.056 49.1707 194.526 48.8807 194.786C48.5707 195.076 48.1108 195.076 47.7108 195.076C45.7008 195.126 43.7307 195.236 41.7307 195.126Z" fill="#D6FF00"/>
<path d="M21.4509 271.186C17.8909 270.926 15.7008 268.646 15.9108 265.026C15.9908 263.786 16.5608 262.506 17.8108 262.086C19.7808 260.666 22.6808 261.336 24.4708 262.756C28.1908 265.766 26.7509 271.996 21.4509 271.186ZM22.7808 269.716C24.1908 269.606 25.2308 268.256 25.0908 266.876C24.9208 265.786 24.3708 264.726 23.6208 263.966C22.3908 262.936 20.8208 262.606 19.2908 262.916C18.8908 262.976 18.6009 263.376 18.1809 263.336C16.7909 264.396 17.3508 266.836 18.1608 268.116C19.1808 269.506 21.1908 269.636 22.7808 269.716Z" fill="#D6FF00"/>
<path d="M24.2506 167.696C22.6206 166.396 21.1806 164.856 19.8106 163.296C18.3506 161.426 17.3806 159.396 16.4906 157.226C15.5406 154.456 14.5206 151.496 14.7606 148.546C14.9606 147.606 16.1806 147.646 16.0806 148.686C16.4806 153.446 18.1606 158.116 20.8206 162.056C22.1706 163.646 23.5906 165.166 25.1406 166.556C25.8006 167.156 24.9806 168.206 24.2506 167.696Z" fill="#D6FF00"/>
<path d="M36.941 71.2659C36.041 71.1459 36.401 69.9459 36.301 69.3259C35.891 66.1059 36.071 62.8658 36.191 59.6258C36.241 57.8558 35.9809 56.1358 36.0309 54.3658C36.3209 48.6858 35.931 43.0258 35.631 37.3558C35.481 33.6458 35.721 30.0059 35.751 26.3359C35.821 25.4459 37.201 25.5058 37.151 26.4458C37.251 29.3958 37.331 32.3258 37.191 35.2858C37.351 40.0458 37.971 44.7958 37.851 49.5558C37.631 53.9158 37.911 58.2658 37.631 62.6158C37.591 64.1158 37.431 65.6058 37.541 67.1058C37.531 68.0158 38.281 71.3059 36.941 71.2659Z" fill="#FF00BF"/>
<path d="M40.201 32.4365C38.631 30.8065 38.211 28.2265 36.321 26.8465C35.861 27.7065 35.091 28.3065 34.441 29.0065C33.761 29.9065 33.261 30.9665 32.471 31.7665C32.111 32.0565 31.541 31.8765 31.401 31.4365C31.251 30.8065 31.841 30.2966 32.101 29.7766C32.801 28.6766 33.551 27.6565 34.531 26.7865C35.971 24.2265 37.621 25.5265 38.911 27.3765C39.581 28.2965 40.051 29.3365 40.551 30.3565C40.801 30.8065 41.181 31.2165 41.291 31.7365C41.401 32.3265 40.701 32.7865 40.201 32.4365Z" fill="#FF00BF"/>
<path d="M54.0709 23.0463C53.3909 22.9663 53.3809 21.9063 54.0709 21.8263C55.7609 21.4163 57.4309 20.9263 59.1709 20.7463C60.5209 20.4663 61.6309 19.8463 62.9009 19.3763C64.3209 18.8263 65.8309 18.5063 67.2109 17.8363C68.8409 16.9663 70.2909 15.8163 71.6909 14.6163C74.3309 12.5363 76.7709 10.4863 78.6209 7.6863C79.9409 5.8563 81.2909 4.01632 82.1009 1.89632C82.4709 1.25632 82.5609 -0.0937269 83.5609 0.0962731C84.3309 0.326273 84.0709 1.21632 83.8309 1.76632C82.2609 6.22632 79.3609 10.1363 75.9809 13.3863C73.4409 15.4663 71.0009 17.7263 68.1209 19.3363C66.8209 20.0363 65.3709 20.3563 63.9909 20.8263C62.7109 21.2463 61.4709 21.8463 60.1609 22.1763C59.0109 22.4563 57.8309 22.4663 56.6709 22.6763C55.8009 22.8363 54.9509 23.1763 54.0709 23.0463Z" fill="#FF00BF"/>
</svg>
