<svg width="35" height="51" viewBox="0 0 35 51" fill="none" xmlns="http://www.w3.org/2000/svg">
<g filter="url(#filter0_d_24_3495)">
<path d="M16.9572 38.8496C14.8872 38.5896 12.9972 37.5696 11.2972 36.4096C9.19724 35.1296 8.28725 33.3896 8.11725 30.9696C7.92725 29.8396 9.57725 29.4296 9.91725 30.5196C10.2073 31.4896 10.3273 32.3296 10.9472 33.0396C12.2372 34.1596 13.7272 35.0496 15.2472 35.8096C19.8672 37.8896 24.9272 35.0496 24.6172 29.7796C24.4572 27.2796 22.5372 25.1596 20.0472 24.7996C16.7772 24.4696 13.4772 26.5796 10.2472 25.2496C5.22724 23.2296 6.68725 15.8796 10.1772 13.0496C12.7272 10.9996 19.9572 9.03961 22.2772 12.0396C22.5872 12.2796 22.9572 12.5396 22.8372 12.9996C22.6672 13.7096 21.8672 13.6196 21.3572 13.3596C19.6972 12.0696 17.4473 12.6396 15.5573 13.0296C12.1073 13.8296 9.74724 15.4196 9.27724 19.1296C8.81724 21.2796 10.0272 23.3596 12.3772 23.3196C15.2272 23.2596 18.0172 21.8896 20.8872 22.5396C24.7272 23.3096 27.3472 27.1296 27.0072 30.9796C26.5772 36.2096 22.0772 39.5096 16.9572 38.8496Z" fill="#00FF09"/>
<path d="M14.2274 11.07C13.3174 10.93 13.2574 9.80999 13.2874 9.06999C13.2474 8.15999 13.6474 6.68998 14.8374 7.11998C16.0174 7.76998 15.8474 9.57998 15.7774 10.74C15.7274 11.55 14.5774 11.79 14.2274 11.07Z" fill="#00FF09"/>
<path d="M18.7574 42.9001C17.8374 42.1201 17.2874 38.9001 18.2374 38.0301C18.6574 37.6901 19.4374 37.6401 19.7474 38.1301C21.4274 38.4501 20.9374 44.1801 18.7574 42.9001Z" fill="#00FF09"/>
</g>
<defs>
<filter id="filter0_d_24_3495" x="0" y="0.0429688" width="34.0371" height="50.043" filterUnits="userSpaceOnUse" color-interpolation-filters="sRGB">
<feFlood flood-opacity="0" result="BackgroundImageFix"/>
<feColorMatrix in="SourceAlpha" type="matrix" values="0 0 0 0 0 0 0 0 0 0 0 0 0 0 0 0 0 0 127 0" result="hardAlpha"/>
<feOffset/>
<feGaussianBlur stdDeviation="3.5"/>
<feComposite in2="hardAlpha" operator="out"/>
<feColorMatrix type="matrix" values="0 0 0 0 0 0 0 0 0 1 0 0 0 0 0.0352941 0 0 0 1 0"/>
<feBlend mode="normal" in2="BackgroundImageFix" result="effect1_dropShadow_24_3495"/>
<feBlend mode="normal" in="SourceGraphic" in2="effect1_dropShadow_24_3495" result="shape"/>
</filter>
</defs>
</svg>
