<svg width="216" height="62" viewBox="0 0 216 62" fill="none" xmlns="http://www.w3.org/2000/svg">
<path d="M170.068 59.4233C164.638 59.2333 159.198 58.5133 153.768 58.6333C153.208 58.6433 152.648 57.9533 153.168 57.5033C153.328 57.3733 153.498 57.3733 153.688 57.3733C154.508 57.3533 155.328 57.2433 156.148 57.2033C163.178 56.9633 170.218 58.4333 177.228 57.4433C183.788 56.4233 190.548 56.4333 196.858 54.1733C199.258 53.3533 201.788 52.5633 203.958 51.2733C206.528 49.5433 209.098 47.4333 210.408 44.5533C211.598 41.9033 212.828 39.1633 213.088 36.2433C213.068 33.2733 213.018 30.2033 212.808 27.2633C212.638 25.0333 211.608 23.0933 210.678 21.1133C208.778 16.2233 205.328 11.8433 200.918 8.99331C194.478 5.25331 186.808 5.5933 179.628 4.8533C175.988 4.6933 172.338 4.49333 168.698 4.32333C163.808 4.19333 158.938 4.82331 154.058 4.80331C152.478 4.75331 150.908 4.5433 149.348 4.3533C148.978 4.3133 148.678 4.02334 148.658 3.64334C148.648 2.34334 151.018 2.92332 151.858 2.81332C155.898 3.09332 159.908 2.3933 163.938 2.4133C170.598 2.2233 177.268 2.7633 183.908 3.1633C189.198 3.6833 194.728 3.92333 199.588 6.20333C204.708 8.63333 209.188 13.3533 211.578 18.4733C212.398 20.4333 213.438 22.3033 214.148 24.3033C214.798 26.3433 214.868 28.5133 214.908 30.6433C214.878 33.1833 215.288 35.7733 214.688 38.2833C213.548 42.3233 212.078 46.6033 208.978 49.5733C205.928 52.7233 201.878 54.5433 197.728 55.7733C193.108 57.3933 188.078 57.9733 183.278 58.3933C178.888 58.9233 174.498 59.5533 170.068 59.4233Z" fill="#FF7A00"/>
<path d="M114.158 61.563C109.768 61.453 105.378 61.323 100.998 60.983C96.9481 60.703 92.8981 60.183 88.8381 60.153C82.4581 60.133 76.0881 59.583 69.7081 59.373C65.6881 59.393 61.5181 59.253 57.5881 59.123C53.7581 59.043 49.9281 59.363 46.0981 59.273C44.6081 59.203 42.8181 59.313 41.7981 58.043C41.5981 57.823 41.5781 57.483 41.7881 57.253C41.9981 57.023 42.3681 57.013 42.5981 57.223C43.1481 57.713 43.9181 57.693 44.6081 57.733C47.5681 57.723 50.5281 57.483 53.4881 57.363C62.5681 57.133 71.6581 57.343 80.7281 57.763C85.1481 58.143 89.5981 58.013 94.0181 58.333C104.308 59.293 114.648 59.803 124.988 59.473C135.208 59.523 145.698 59.183 155.518 56.173C158.418 55.423 161.458 54.483 163.858 52.653C166.298 50.993 168.458 49.003 170.358 46.743C171.488 45.493 172.708 44.313 173.698 42.943C175.348 40.293 176.388 37.433 177.518 34.563C178.418 30.263 178.598 22.703 175.908 19.083C172.898 15.103 169.218 11.413 164.648 9.36298C162.148 8.25298 159.538 7.60296 156.908 6.91296C154.248 6.17296 151.478 5.18301 148.748 4.83301C145.138 4.38301 141.478 4.19299 137.898 3.50299C135.028 3.01299 132.108 3.19296 129.208 3.09296C124.868 2.71296 120.528 2.94296 116.198 3.34296C111.918 3.45296 107.648 3.803 103.408 4.203C99.0681 4.523 94.7281 4.073 90.3881 4.203C83.8981 4.583 77.3481 4.07299 70.8681 4.19299C65.1581 4.27299 59.5381 5.63298 53.8081 5.49298C52.3081 5.53298 50.8081 5.533 49.3081 5.453C47.2081 5.323 44.9881 4.62297 42.9881 4.29297C41.2981 4.06297 39.6081 3.84297 37.9081 3.67297C37.2781 3.61297 36.6381 3.56299 36.0181 3.44299C35.6581 3.37299 35.3881 3.04298 35.3781 2.68298C35.3381 0.762983 41.1581 2.09295 42.3781 2.15295C44.9381 2.40295 47.3881 3.39298 49.9681 3.43298C53.1381 3.37298 56.3381 3.503 59.4981 3.203C62.4381 2.893 65.3781 2.44301 68.3281 2.21301C74.5181 1.88301 80.7881 2.42296 86.9581 2.28296C93.2981 1.80296 99.8581 2.58301 106.148 1.83301C109.158 1.41301 112.188 1.353 115.218 1.263C118.208 1.103 121.198 0.792969 124.188 0.792969C127.208 0.852969 130.218 1.123 133.238 1.133C136.028 1.103 138.898 1.61301 141.608 2.08301C144.508 2.48301 147.448 2.56297 150.328 3.10297C152.708 3.52297 155.078 4.373 157.368 5.013C161.518 6.143 165.838 7.193 169.338 9.823C172.788 12.323 175.868 15.433 178.178 19.023C180.438 23.383 180.178 28.553 179.788 33.313C179.558 35.253 178.728 37.033 177.938 38.793C177.228 40.393 176.748 41.823 175.888 43.273C174.738 45.193 173.088 46.733 171.598 48.383C169.218 51.203 166.318 53.513 163.188 55.443C161.298 56.523 159.208 57.183 157.118 57.773C151.558 59.483 145.838 60.523 140.038 60.953C135.688 61.223 131.328 61.623 126.958 61.463C122.698 61.433 118.438 61.693 114.168 61.533C114.138 61.563 114.158 61.563 114.158 61.563Z" fill="#FF00BF"/>
<path d="M29.158 60.8433C23.038 60.5133 14.468 57.4234 9.79802 53.4234C7.82802 51.7034 6.32802 49.5534 4.88802 47.3834C3.00802 44.4634 2.06802 41.1034 1.24802 37.7634C0.808021 36.0334 0.348026 34.2934 0.268026 32.5034C0.348026 31.0734 0.148016 29.6934 0.00801584 28.2734C-0.0419842 26.9334 0.148025 25.6134 0.408025 24.3134C0.598025 23.0234 0.728028 21.7134 1.20803 20.4834C1.79803 18.8934 3.05802 17.7234 4.07802 16.4134C5.20802 14.9634 6.62802 13.8034 8.00802 12.6134C9.30802 11.4034 10.508 10.0934 11.858 8.92337C13.898 7.20337 16.558 6.5434 18.898 5.3334C21.728 3.8234 24.818 2.86337 28.008 2.49337C31.108 1.89337 34.238 1.33339 37.388 1.94339C39.898 2.57339 42.418 3.57338 44.548 5.06338C45.938 6.10338 47.228 7.27341 48.488 8.46341C50.358 10.2634 52.218 12.1534 53.418 14.4834C56.068 19.8634 57.378 25.8734 57.728 31.8334C57.918 34.3534 57.498 36.8633 57.088 39.3433C56.708 41.8733 56.078 44.3634 55.088 46.7234C54.398 48.4634 53.288 49.9634 52.238 51.4934C51.328 52.9934 50.058 54.2234 48.738 55.3634C46.928 57.3034 44.588 58.5434 42.098 59.3734C40.448 59.9934 38.768 60.6034 36.998 60.7734C34.378 60.9534 31.768 60.8633 29.158 60.8433ZM30.328 59.1234C32.738 59.0234 35.188 59.2534 37.578 58.9134C40.018 58.3634 42.118 57.3833 44.358 56.4033C45.768 55.7133 46.838 54.5434 47.968 53.4834C51.828 49.9734 54.248 45.0334 55.108 39.9134C55.428 38.0334 55.778 36.1634 55.958 34.2634C56.088 30.2334 55.458 26.2234 54.308 22.3734C53.068 17.1234 51.058 13.1634 46.918 9.62338C44.888 7.69338 42.808 5.67335 40.058 4.84335C36.528 3.07335 32.548 3.47337 28.838 4.36337C26.928 4.58337 25.048 4.99335 23.218 5.59335C21.808 6.09335 20.478 6.77337 19.138 7.42337C17.268 8.33337 15.268 8.96338 13.528 10.1234C12.168 11.1334 11.028 12.3934 9.77802 13.5334C7.92802 15.1334 5.92802 16.7734 4.46802 18.7334C4.06802 19.1934 3.65802 19.6834 3.30802 20.1834C2.18802 22.0034 2.21803 24.2234 1.78803 26.2634C1.60803 27.3734 1.78802 28.4934 1.74802 29.6034C1.72802 30.1734 1.99802 30.8334 1.71802 31.3534C1.58802 33.7334 2.35802 36.0034 2.94802 38.2734C4.08802 43.5834 6.68802 48.4034 10.668 52.0534C12.758 53.9634 15.178 55.1334 17.758 56.1934C21.698 57.9234 25.998 59.1134 30.328 59.1234Z" fill="#9A00FF"/>
<path d="M35.3279 60.0228C34.5879 59.8928 33.1179 60.2927 32.9379 59.2827C28.4679 59.4027 23.9779 59.1527 19.6279 58.0627C19.0179 57.8827 17.8279 58.1527 17.8179 57.2527C17.8979 56.6427 18.5779 56.7327 19.0379 56.7227C20.0979 56.7327 21.2479 57.0027 22.2379 57.1727C24.5979 57.5727 26.9879 57.7427 29.3679 57.7427C35.2879 58.0327 41.3179 56.9627 46.4379 53.8827C47.0679 53.3527 47.6079 52.7327 48.2279 52.1827C48.8079 51.5627 49.7479 51.3327 50.1779 50.5727C50.2779 50.4227 50.3779 50.2627 50.5379 50.1727C50.9979 49.9127 51.5879 50.1628 51.6779 50.7028C51.7479 51.2528 51.3979 51.7528 51.1279 52.2128C49.6479 54.4028 47.5279 56.1028 45.2879 57.4528C42.2979 59.1928 38.7579 59.8928 35.3279 60.0228Z" fill="#9A00FF"/>
<path d="M35.808 59.4529C35.368 59.3829 34.688 59.3029 34.738 58.7129C34.768 58.4229 35.048 58.1729 35.348 58.2129C35.698 58.2629 36.028 58.2428 36.348 58.1028C39.578 56.6229 42.798 55.0528 45.568 52.7828C49.408 49.6728 52.478 45.8029 54.238 41.1729C54.418 40.5729 55.178 40.2528 55.568 40.8528C55.888 41.5928 55.488 42.4729 55.408 43.2529C56.218 43.8729 55.098 44.9028 54.858 45.5928C54.238 47.7128 53.088 49.6829 51.678 51.3729C50.238 52.8529 48.618 54.3929 46.718 55.2129C46.258 55.3129 45.838 54.8129 45.998 54.3729C43.768 56.0029 41.388 57.4429 38.818 58.4529C37.838 58.8229 36.888 59.5029 35.808 59.4529Z" fill="#9A00FF"/>
<path d="M49.2479 50.2926C49.1279 50.0926 49.1379 49.7826 49.3179 49.6226C50.0679 48.8626 50.6179 47.9126 51.2179 47.0326C52.6479 44.8126 53.9479 42.5126 54.4979 39.9326C54.5579 36.6126 54.4979 33.2626 54.2079 29.9526C54.0879 26.8126 54.0979 23.5926 52.4279 20.8126C50.7379 16.0926 46.9879 12.4126 43.3679 9.1226C41.2179 7.5226 38.5079 6.62263 36.0579 5.83263C33.4879 4.99263 31.0579 4.56259 28.4079 4.79259C27.6679 4.83259 26.9279 4.82263 26.1879 4.77263C25.2379 4.99263 24.2979 5.24259 23.3479 5.48259C22.6779 5.65259 22.0079 5.84263 21.3279 6.02263C20.9679 6.11263 20.5779 6.22263 20.2379 6.02263C19.8679 5.84263 19.7479 5.32258 19.9579 4.97258C21.6279 3.31258 24.1679 2.9126 26.4379 3.0526C28.1579 2.6326 29.9379 2.46257 31.7079 2.59257C35.2979 2.98257 39.2079 3.25259 42.1679 5.54259C43.5379 6.92259 45.0979 8.04259 46.5179 9.36259C47.0479 9.10259 47.5679 9.54259 47.9679 9.86259C48.3679 10.0326 48.8779 10.3026 48.9179 10.7926C49.7879 11.9826 53.4079 15.4326 52.4979 16.8826C53.2879 18.0326 53.6479 19.3826 54.1979 20.6426C54.5079 21.3526 54.9079 22.0426 55.1079 22.7926C55.9979 26.6226 55.7579 30.6126 56.0279 34.5126C55.8379 36.8826 56.3479 39.3426 55.5179 41.6226C54.6779 44.2626 53.1579 46.6326 51.5379 48.8526C51.0279 49.4426 50.6079 50.2626 49.8679 50.5526C49.6479 50.6126 49.3779 50.4926 49.2479 50.2926Z" fill="#9A00FF"/>
<path d="M29.8678 60.9833C21.8578 60.7133 13.9178 57.2433 8.46779 51.3433C6.05779 48.7833 4.53778 45.5433 3.24778 42.3033C2.42778 39.7533 1.64779 37.2033 1.56779 34.5233C1.05779 29.4833 1.62779 24.1133 4.21779 19.6733C5.02779 18.5833 5.66778 17.4133 6.25778 16.1933C7.12778 14.7033 8.10779 13.2633 9.29779 12.0033C10.7578 10.6533 12.4478 9.57332 13.8878 8.19332C15.7678 6.36332 18.0578 4.99329 20.5178 4.10329C23.0178 3.18329 25.6878 3.1633 28.2878 2.7933C29.1978 2.6733 29.5878 3.91332 28.7378 4.31332C26.2678 5.48332 23.4078 5.1533 20.8678 6.1133C17.8378 7.1433 15.5278 9.37332 13.2078 11.4433C12.2278 12.3033 11.0778 12.9933 10.2178 13.9933C9.00779 15.5033 7.92779 17.1133 7.06779 18.8433C6.51779 19.8733 5.68779 20.7333 5.18779 21.7933C4.76779 22.7533 4.43778 23.7433 4.11778 24.7333C2.66778 29.7933 2.96778 35.2233 4.33778 40.2633C5.50778 43.9533 7.11779 47.5933 9.76779 50.4233C12.8978 53.6533 16.8078 56.3033 21.0778 57.7533C28.1778 60.0833 32.7178 59.9033 39.8478 58.0033C40.5178 57.7533 40.9478 57.1233 41.5778 56.8133C42.2178 56.4233 43.0978 56.9633 42.4778 57.6633C42.3278 57.7433 42.0578 57.8933 41.9778 58.0033C40.8078 59.4333 38.8278 59.7033 37.1678 60.0233C34.7878 60.6933 32.3478 61.1533 29.8678 60.9833C29.8578 60.9833 29.8678 60.9833 29.8678 60.9833Z" fill="#9A00FF"/>
<path d="M2.31781 25.0332C1.31781 24.8232 1.94781 23.6933 2.20781 23.1033C2.55781 22.0233 2.8578 20.9232 3.3578 19.9032C3.5178 19.6032 3.68781 19.2532 4.03781 19.1532C4.23781 18.8332 4.6178 18.5933 4.9978 18.7633C5.7078 19.0733 5.21779 19.9133 4.97779 20.3933C4.59779 21.1833 4.1178 21.9933 3.8778 22.8233C3.5678 23.6533 3.42781 24.9932 2.31781 25.0332Z" fill="#9A00FF"/>
<path d="M2.19783 26.2125C1.88783 26.1425 1.73784 25.8525 1.77784 25.5525C1.94784 24.5225 2.22783 23.5125 2.55783 22.5225C2.91783 21.7625 3.52784 18.6625 4.63784 19.1225C4.93784 19.2425 5.12785 19.5825 5.03785 19.9025C4.75785 20.8625 4.37784 21.7825 3.99784 22.7025C3.63784 23.5725 3.31784 24.4525 3.04784 25.2725C2.92784 25.7225 2.76783 26.3525 2.19783 26.2125Z" fill="#9A00FF"/>
<path d="M2.34786 24.8132C2.07786 24.6632 1.95785 24.2932 2.11785 24.0232C2.56785 23.2732 2.99786 22.5032 3.40786 21.7332C4.07786 20.4932 4.62785 19.1832 5.21785 17.9032C5.35785 17.6132 5.73785 17.5032 6.02785 17.6132C7.17785 18.1332 5.43785 20.7332 5.05785 21.5032C4.43785 22.5432 3.77785 23.5632 3.13785 24.5932C2.96785 24.8632 2.62786 24.9732 2.34786 24.8132Z" fill="#9A00FF"/>
<path d="M2.59791 22.8729C1.78791 22.3229 2.9479 21.2729 3.1179 20.6029C3.5879 19.9029 4.2279 17.0329 5.2579 17.4529C5.5879 17.5829 5.7479 17.9628 5.6179 18.2828C5.3179 19.0628 4.99791 19.8329 4.59791 20.5729C4.23791 21.2829 3.7979 21.9529 3.3979 22.6329C3.2279 22.9229 2.86791 23.0329 2.59791 22.8729Z" fill="#9A00FF"/>
<path d="M2.89806 21.0926C2.50806 20.7326 2.85807 20.2527 3.12807 19.9827C3.34807 19.6827 3.56807 19.3827 3.77807 19.0727C4.31807 18.2627 4.77807 17.4127 5.24807 16.5727C5.40807 16.2927 5.74808 16.1727 6.03807 16.2827C7.12808 16.8327 5.56807 18.5627 5.21807 19.2627C4.75807 19.7827 3.69806 21.7926 2.89806 21.0926Z" fill="#9A00FF"/>
<path d="M2.5082 21.7032C2.2282 21.6832 2.00821 21.4331 1.99821 21.1531C1.98821 20.7331 2.44821 20.6031 2.54821 20.2331C3.26821 17.9531 4.2382 15.9631 5.7582 14.0931C9.6582 8.50311 15.6582 4.64312 22.2182 2.91312C24.8182 2.29312 27.4882 1.21316 30.1882 1.83316C31.4482 2.12316 32.7082 2.43312 33.9882 2.60312C34.3282 2.66312 34.5582 3.03312 34.5182 3.35312C34.3582 4.46312 32.4482 3.82311 31.6782 3.78311C30.3882 3.50311 29.0782 3.16311 27.7482 3.28311C22.9882 4.23311 18.1982 5.68311 14.0582 8.28311C12.1382 9.76311 10.1882 11.2631 8.54821 13.0431C7.43821 14.4431 6.37821 15.8931 5.34821 17.3531C4.37821 18.4831 4.1182 21.5432 2.5082 21.7032Z" fill="#9A00FF"/>
<path d="M45.4181 9.52322C44.9081 9.02322 44.3481 8.56321 43.7781 8.13321C43.4981 7.92321 43.4381 7.52319 43.6481 7.24319C43.8581 6.95319 44.2481 6.92319 44.5381 7.11319C45.1981 7.55319 45.8281 8.03321 46.3481 8.64321C46.5881 8.74321 46.7181 8.98318 46.7081 9.23318C46.7081 9.23318 46.7081 9.24317 46.7081 9.16317C46.7081 9.90317 45.8281 10.0232 45.4181 9.52322Z" fill="#9A00FF"/>
<path d="M45.808 9.6531C45.668 9.6131 45.548 9.55312 45.428 9.48312C45.248 9.39312 45.148 9.21316 45.118 9.02316C44.288 8.31316 43.408 7.67311 42.578 6.97311C42.328 6.76311 42.228 6.41312 42.388 6.11312C43.068 4.98312 45.238 7.27311 45.868 7.79311C46.268 8.17311 46.918 8.8331 46.468 9.4031C46.318 9.6031 46.048 9.7231 45.808 9.6531Z" fill="#9A00FF"/>
<path d="M44.6178 8.02289C43.2578 7.57289 42.1879 6.50287 40.9879 5.75287C40.6779 5.54287 40.5978 5.09289 40.7778 4.77289C41.4478 3.79289 42.5679 4.98283 43.2379 5.40283C43.8479 5.86283 44.3678 6.44284 45.0078 6.85284C45.2778 6.98284 45.4378 7.26286 45.3678 7.56286C45.2878 7.88286 44.9378 8.12289 44.6178 8.02289Z" fill="#9A00FF"/>
<path d="M44.0882 8.0426C42.4082 7.2626 41.1782 5.64263 39.4082 5.01263C39.1882 5.17263 38.8982 5.16263 38.6382 5.13263C37.6182 5.02263 36.6482 4.70263 35.6782 4.38263C34.1882 3.77263 32.5882 3.60263 30.9982 3.51263C29.8282 3.50263 28.6082 3.4326 27.4982 3.8526C26.7082 4.0026 25.2082 4.81261 24.6082 4.05261C23.3982 4.14261 22.3482 4.66264 21.2482 5.08264C20.4982 5.24264 19.4782 6.22259 18.8582 5.40259C18.3782 4.40259 19.8582 4.05264 20.5182 3.71264C21.9882 3.06264 23.6682 2.56262 25.2282 2.31262C27.2882 1.70262 29.4182 1.43264 31.5682 1.58264C35.0582 1.67264 38.4282 2.75262 41.4382 4.50262C42.6882 5.26262 43.6982 6.37261 44.8982 7.17261C45.1882 7.67261 44.6082 8.2426 44.0882 8.0426Z" fill="#9A00FF"/>
<path d="M25.1781 59.2327C23.1581 58.3227 21.0081 57.7927 18.9681 56.9527C15.5081 55.6127 12.4881 53.4827 10.2381 50.5727C9.33808 49.3827 8.29808 48.2927 7.27808 47.2127C5.05807 44.6127 3.54808 41.5127 2.60808 38.2427C1.15808 33.4527 -0.0819149 28.1627 1.28809 23.2227C2.11809 21.2127 2.60808 18.8927 4.26808 17.3827C4.77808 16.9027 5.64807 16.4127 6.19807 17.1027C6.82807 17.9227 5.84808 18.6127 5.35808 19.1827C4.59808 20.0627 4.27807 21.2127 3.83807 22.2727C3.50807 23.1327 3.11808 23.9727 2.95808 24.8827C2.51808 27.4727 2.70808 29.8927 3.21808 32.4127C3.78808 35.6327 4.65807 38.8227 5.91807 41.8427C6.99807 43.9227 8.35807 45.8227 10.0081 47.4827C11.0281 48.6227 11.8681 49.9127 12.8981 51.0427C14.5981 52.8427 16.6681 54.2727 18.8981 55.3327C21.1281 56.3627 23.5881 56.8827 25.7281 58.1027C26.0681 58.0127 26.4081 58.3027 26.4081 58.6427C26.4381 59.3027 25.6781 59.5127 25.1781 59.2327Z" fill="#9A00FF"/>
<path d="M10.6979 52.363C9.79787 51.643 9.23787 50.5929 8.57787 49.6629C7.82787 48.6629 6.85788 47.823 6.20788 46.733C5.68788 45.833 5.19787 44.913 4.72787 43.993C4.57787 43.663 4.70788 43.263 5.01788 43.083C5.35788 42.873 5.79788 42.993 6.01788 43.323C6.75788 44.383 7.30787 45.5729 8.10787 46.5929C9.78787 47.8129 10.9079 49.743 12.0379 51.443C12.5979 51.573 12.6179 52.403 12.0679 52.563C11.6079 52.753 11.0879 52.663 10.6979 52.363Z" fill="#9A00FF"/>
<path d="M52.068 48.623C51.388 48.583 51.338 47.843 51.528 47.333C51.798 46.253 52.138 45.193 52.448 44.123C53.508 40.813 54.308 37.293 54.538 33.843C54.518 28.673 53.248 23.673 51.718 18.803C50.988 17.293 50.088 15.983 49.158 14.613C48.798 14.023 48.198 13.503 48.158 12.773C48.138 12.503 48.228 12.253 48.178 11.983C47.988 11.683 47.708 11.413 47.628 11.063C47.468 10.263 48.658 10.003 48.878 10.783C51.698 14.253 53.558 18.263 54.968 22.463C56.368 27.833 56.848 33.563 55.828 39.043C55.068 41.983 54.788 45.213 53.028 47.753C52.768 48.103 52.578 48.663 52.068 48.623Z" fill="#9A00FF"/>
<path d="M64.558 20.5826C62.108 19.1526 63.488 15.5026 66.318 17.0226C69.048 18.2826 67.138 21.8626 64.558 20.5826Z" fill="#9A00FF"/>
<path d="M75.6778 21.0333C74.3878 20.9133 73.9478 19.2834 74.5278 18.2634C74.6578 17.6334 75.0378 17.0134 75.6478 16.7634C77.0178 16.1934 78.1778 17.7233 78.0978 18.9933C77.9078 19.9633 76.7378 21.1633 75.6778 21.0333Z" fill="#9A00FF"/>
<path d="M85.9179 20.3028C84.6079 18.7428 86.2679 15.8628 88.2379 17.1928C90.2679 18.6628 87.8179 22.1928 85.9179 20.3028Z" fill="#9A00FF"/>
<path d="M98.2679 20.8132C95.4779 20.5332 96.5079 15.8632 99.1579 16.7532C101.478 17.6332 100.678 20.9332 98.2679 20.8132Z" fill="#9A00FF"/>
<path d="M108.788 20.2733C106.578 19.8833 106.608 16.5033 108.948 16.3633C111.788 16.4033 111.568 20.4633 108.788 20.2733Z" fill="#9A00FF"/>
<path d="M118.348 20.4327C116.098 19.0427 118.208 15.7327 120.398 17.2427C122.678 18.7127 120.548 21.8227 118.348 20.4327Z" fill="#9A00FF"/>
<path d="M130.548 20.7228C130.178 20.5728 129.928 20.2328 129.808 19.8628C129.568 19.6028 129.428 19.2028 129.398 18.8428C129.258 18.6028 129.248 18.2928 129.358 18.0128C129.688 17.3228 130.568 16.8028 131.338 17.0428C132.308 17.3628 133.028 18.4228 132.818 19.4528C132.638 20.4428 131.498 21.1728 130.548 20.7228Z" fill="#9A00FF"/>
<path d="M138.838 20.3931C137.968 19.9331 137.488 18.7531 138.038 17.8831C138.588 17.0031 139.668 16.3131 140.608 17.0831C142.548 18.5131 141.168 21.5431 138.838 20.3931Z" fill="#9A00FF"/>
<path d="M150.938 20.1331C149.628 19.9831 148.378 18.3931 148.898 17.1031C149.018 16.8531 149.228 16.6631 149.478 16.5631C149.858 16.0731 150.508 15.8231 151.118 15.9231C153.528 16.4131 153.738 20.2531 150.938 20.1331Z" fill="#9A00FF"/>
<path d="M159.478 19.0031C157.468 17.5731 159.268 14.6131 161.438 16.0131C163.388 17.4331 161.608 20.3931 159.478 19.0031Z" fill="#9A00FF"/>
<path d="M150.978 29.9325C148.938 28.8525 150.038 25.8525 152.318 26.7725C154.568 27.5825 153.198 30.8525 150.978 29.9325Z" fill="#9A00FF"/>
<path d="M161.478 30.2329C159.898 30.0529 159.168 27.7029 160.648 26.8729C161.108 26.7129 161.558 26.3529 162.068 26.4429C162.678 26.6129 164.048 27.153 163.378 27.953C164.038 29.223 162.778 30.4929 161.478 30.2329Z" fill="#9A00FF"/>
<path d="M162.178 29.5629C161.508 29.3929 160.848 29.0029 160.608 28.3329C160.378 27.7729 160.758 27.0329 161.398 27.0629C161.738 26.2529 162.788 26.5629 163.238 27.1029C164.248 27.9829 163.648 29.9229 162.178 29.5629Z" fill="#9A00FF"/>
<path d="M66.1981 31.8127C63.8781 31.5227 64.2981 27.8827 66.6581 28.5327C69.0181 29.2627 68.7281 32.0027 66.1981 31.8127Z" fill="#9A00FF"/>
<path d="M75.3081 31.3927C72.8981 31.1827 73.7181 27.4027 75.9781 28.0827C78.0081 28.7527 77.3681 31.4827 75.3081 31.3927Z" fill="#9A00FF"/>
<path d="M85.1979 32.0128C83.4679 31.4528 83.4279 28.1728 85.3679 27.8928C86.4279 27.7628 87.3179 28.6328 87.7179 29.5428C88.3779 31.1128 86.7479 32.6328 85.1979 32.0128Z" fill="#9A00FF"/>
<path d="M95.3879 30.5131C94.0479 28.9431 96.1879 26.2431 97.7279 28.1331C98.9779 29.6931 96.8779 31.9131 95.3879 30.5131Z" fill="#9A00FF"/>
<path d="M104.898 31.223C102.868 29.463 104.768 26.063 107.158 28.133C109.118 29.823 107.028 32.503 104.898 31.223Z" fill="#9A00FF"/>
<path d="M115.628 30.3828C113.398 30.1128 113.858 26.5428 116.098 26.9228C118.578 27.3128 118.088 30.5928 115.628 30.3828Z" fill="#9A00FF"/>
<path d="M125.548 30.9326C123.298 30.1026 123.858 26.6426 126.358 27.1226C128.778 27.8826 128.108 31.4426 125.548 30.9326Z" fill="#9A00FF"/>
<path d="M136.448 30.0325C135.598 29.6225 135.468 28.4026 135.868 27.6426C136.078 26.9226 137.068 26.7326 137.708 26.9526C139.898 27.8826 138.618 30.8925 136.448 30.0325Z" fill="#9A00FF"/>
<path d="M137.308 29.7927C134.888 29.4227 135.648 25.5727 137.928 25.7827C140.388 26.2527 139.988 30.2227 137.308 29.7927Z" fill="#9A00FF"/>
<path d="M65.1779 40.8831C63.0679 39.7231 65.1579 36.5231 67.0979 37.8531C69.0179 39.2431 67.2479 41.9731 65.1779 40.8831Z" fill="#9A00FF"/>
<path d="M73.2581 40.2326C71.3781 38.3426 74.5081 35.8326 76.0781 37.7626C77.4781 39.6026 74.8481 41.7426 73.2581 40.2326Z" fill="#9A00FF"/>
<path d="M83.2282 40.7732C82.8682 40.5232 82.6382 40.1332 82.5482 39.7032C82.5382 39.6432 82.5282 39.5832 82.5182 39.5232C82.0082 38.9432 82.4682 38.0632 83.0382 37.7032C83.8382 37.1432 84.9082 37.6231 85.5282 38.2331C86.3082 38.8431 86.2782 40.2031 85.2582 40.5431C84.6982 41.0131 83.8682 41.2632 83.2282 40.7732Z" fill="#9A00FF"/>
<path d="M135.628 41.0526C134.578 40.6326 134.198 39.2026 135.208 38.5126C135.718 37.7026 136.928 37.3026 137.698 37.9826C139.478 39.3926 137.548 42.3926 135.628 41.0526Z" fill="#9A00FF"/>
<path d="M149.388 39.9725C147.598 37.5525 151.738 35.3725 153.018 37.8525C154.008 39.9225 150.718 41.8625 149.388 39.9725Z" fill="#9A00FF"/>
<path d="M160.368 41.1131C158.088 40.6331 158.398 37.2731 160.808 37.4031C163.078 37.8731 162.918 41.4331 160.368 41.1131Z" fill="#9A00FF"/>
<path d="M102.178 41.7534C100.008 41.7234 97.8181 41.8034 95.6681 41.6934C94.6881 41.6134 89.7181 42.0534 90.9381 40.1034C91.4381 38.7234 94.0581 38.8934 95.2681 39.0034C98.2381 38.9434 101.208 39.2534 104.178 39.1434C108.698 39.1334 113.218 39.2434 117.738 39.1734C121.258 39.1434 124.808 38.9434 128.318 39.3334C128.508 39.3634 128.718 39.3834 128.908 39.4534C129.508 39.6334 129.598 40.5234 129.038 40.8134C128.078 41.2234 126.978 41.1433 125.958 41.2833C122.148 41.6933 118.298 41.6334 114.458 41.6334C110.358 41.4834 106.268 41.9334 102.178 41.7534Z" fill="#9A00FF"/>
</svg>
