<svg width="39" height="75" viewBox="0 0 39 75" fill="none" xmlns="http://www.w3.org/2000/svg">
<path d="M31.2212 16.8997C25.4812 16.9998 21.9711 11.8297 23.8111 6.48975C24.2011 5.33975 24.8012 4.27975 25.4612 3.26975C25.8412 2.70975 26.2212 2.06973 26.8612 1.78973C28.1612 0.389734 30.5212 0.769728 32.2112 1.18973C34.3412 1.65973 36.3312 2.91974 37.4912 4.79974C40.1712 9.87974 37.8012 17.2897 31.2212 16.8997ZM31.3812 14.8698C35.9212 15.0298 37.4111 10.7397 36.4011 6.92975C35.3811 3.34975 30.9912 2.25975 27.7212 2.89975C26.3812 4.85975 25.1012 7.10974 25.1412 9.54974C25.3212 13.0297 28.0612 14.9798 31.3812 14.8698Z" fill="white"/>
<path d="M26.9011 2.72946C26.9211 2.39946 27.1911 2.18945 27.5011 2.18945C27.8111 2.18945 28.0611 2.48946 28.0411 2.78946C28.0211 3.11946 27.7511 3.32947 27.4411 3.32947C27.1211 3.32947 26.8811 3.02946 26.9011 2.72946Z" fill="white"/>
<path d="M8.52122 74.5298C5.15122 74.3698 1.8012 72.5097 0.6212 69.2297C-0.7088 66.1997 0.171223 63.0698 2.55122 60.8598C6.77122 56.4098 14.7512 56.0497 17.5812 62.1697C18.5412 64.1997 19.6412 66.4898 19.0212 68.7698C17.6112 73.0798 12.7712 75.0398 8.52122 74.5298ZM10.5512 72.7798C13.2612 72.7398 15.8512 71.3297 17.2212 68.9697C14.5512 69.6697 14.5212 65.1397 16.9812 65.1297C16.1712 63.1797 15.3112 60.9698 13.2512 60.0498C9.1912 58.0298 4.23121 60.5497 2.16121 64.2897C1.24121 66.1397 1.94121 68.3398 2.97121 69.9898C4.64121 72.3698 7.81122 72.9898 10.5512 72.7798Z" fill="white"/>
<path d="M15.9714 69.5593C13.1814 69.0193 14.1414 63.4293 17.0714 64.7393C17.9914 64.4293 18.5514 65.6593 18.7714 66.3893C19.1914 67.9893 17.7014 69.9993 15.9714 69.5593ZM16.7114 67.5093C17.1914 67.3993 17.0414 66.7293 16.9014 66.4093H16.8914C16.8114 66.3993 16.7314 66.3693 16.6614 66.3393C16.6514 66.3393 16.6414 66.3493 16.6414 66.3393C16.2814 66.5993 16.0214 67.5293 16.7114 67.5093Z" fill="white"/>
<path d="M12.631 72.2499C9.021 70.2999 9.21102 62.8299 13.551 61.8699C14.921 61.6399 16.851 61.7199 17.531 63.1399C17.691 63.6699 17.071 64.1399 16.601 63.8499C16.291 63.6299 16.001 63.3799 15.631 63.2499C15.071 63.0699 14.461 63.2599 13.891 63.3299C11.361 64.1699 11.361 67.7699 12.241 69.8299C13.041 71.3499 14.661 71.1899 15.901 70.3099C16.401 69.9099 16.541 69.1999 17.071 68.8499C17.541 68.5099 18.211 68.9899 18.051 69.5499C17.691 70.5299 17.171 71.4699 16.211 71.9699C15.131 72.5099 13.751 72.8499 12.631 72.2499Z" fill="white"/>
<path d="M11.1213 74.0801C7.72126 74.0301 5.05126 70.8701 4.34126 67.7401C3.77126 64.6201 5.20128 61.1301 7.92128 59.4501C8.68128 59.0701 9.30128 58.4601 10.0813 58.1801C11.1113 57.7901 13.9213 57.9401 14.4613 59.0201C14.6113 59.4001 14.4013 59.8801 13.9713 59.9301C13.7713 59.9501 13.6113 59.8901 13.4713 59.7801C12.6513 59.7101 11.8413 59.5201 11.0213 59.6201C8.70128 60.5101 6.59127 62.4001 6.04127 64.9001C5.58127 66.9801 6.14126 69.1501 7.59126 70.7201C8.88126 72.3001 11.1913 73.3601 12.9613 71.9101C13.3013 71.7301 13.6613 71.6001 14.0313 71.4901C14.7913 71.2601 15.2613 72.3701 14.5713 72.7601C13.4513 73.3101 12.4513 74.2501 11.1213 74.0801Z" fill="white"/>
</svg>
