<svg width="113" height="141" viewBox="0 0 113 141" fill="none" xmlns="http://www.w3.org/2000/svg">
<path d="M35.4648 113.58C27.6148 113.25 24.7248 109.01 23.4548 101.73C21.7748 93.1902 22.1948 84.4302 22.0348 75.7702C21.9248 71.4002 22.2748 67.0502 22.5848 62.6902C22.7048 58.3402 23.5648 54.0702 24.3848 49.8102C25.1848 46.0402 25.5348 41.8202 28.2248 38.8402C30.3048 36.8502 33.3448 35.4902 36.2548 35.8802C36.7848 35.5202 37.4648 35.7102 38.0548 35.8102C39.1548 36.0502 40.3948 36.0902 41.3048 36.8302C42.3448 37.8302 43.3848 38.8602 44.2848 39.9902C45.5048 41.6702 46.2348 43.8402 46.8348 45.7202C47.8448 48.7202 48.2448 51.8802 48.3148 55.0302C48.7148 60.1802 48.8148 65.3302 49.2148 70.4402C49.3648 75.7102 49.9748 80.9602 49.9748 86.2302C50.0648 90.7402 49.3148 95.2002 48.6548 99.6502C47.7848 104.45 46.5748 110.12 41.9048 112.6C39.9048 113.51 37.6248 113.56 35.4648 113.58ZM36.4248 111.89C38.1648 111.78 40.0248 111.78 41.5748 110.87C45.8648 107.81 46.4348 102.03 47.2048 97.2102C48.3448 90.8502 48.3148 84.3802 47.7048 77.9702C47.4948 72.7002 46.9548 67.4402 46.8348 62.1602C46.7148 58.5602 46.3848 55.0202 46.2048 51.4802C45.7548 47.9002 44.7448 44.4302 43.0248 41.3002C42.5948 40.5902 41.9548 40.0602 41.3848 39.4702C40.7448 38.8102 40.2348 37.9502 39.2248 37.8602C38.3248 37.6402 37.3449 37.6502 36.4849 37.2802C36.1149 37.2402 35.7448 37.2002 35.3748 37.2102C33.1548 37.3702 30.9148 38.3302 29.3148 39.8802C26.8048 42.8502 26.5848 46.9502 25.7948 50.6002C24.8448 55.3302 24.1748 60.0902 24.0048 64.9102C23.2848 73.9002 23.6848 82.9302 23.8348 91.9402C24.1648 96.8902 24.5848 101.99 26.3948 106.65C28.0648 110.76 32.3148 112.07 36.4248 111.89Z" fill="#FF7A00"/>
<path d="M34.7448 46.6603C33.8548 46.0603 34.0249 44.7203 34.5349 43.9303C34.9349 43.6303 35.5249 43.5603 36.0049 43.6903C38.1149 44.5403 36.8148 47.8003 34.7448 46.6603Z" fill="#FF7A00"/>
<path d="M34.6446 59.8303C34.0646 59.4303 33.8546 58.6302 34.0846 57.9802C33.8046 57.3202 34.3646 56.5602 35.0946 56.7302C35.4846 56.8302 35.9246 56.8202 36.2246 57.1502C36.6846 57.7802 37.1946 58.6802 36.6646 59.4202C36.2246 60.0502 35.2846 60.2703 34.6446 59.8303Z" fill="#FF7A00"/>
<path d="M34.1447 75.46C33.4947 74.99 33.2647 74.09 33.5547 73.35C33.5347 72.76 33.9447 72.16 34.5547 72.08C35.1247 72.04 36.2747 72.13 36.0647 72.95C38.1247 74.65 36.1947 76.8 34.1447 75.46Z" fill="#FF7A00"/>
<path d="M35.8448 89.3697C35.4048 89.3397 35.0248 89.1098 34.7448 88.7698C34.1948 88.0998 34.2748 87.0597 34.8148 86.4097C34.6348 85.5597 35.3448 84.8897 36.1548 85.3397C36.4248 85.4097 36.6148 85.6497 36.6048 85.9297C37.1948 86.1697 37.5948 86.9197 37.3248 87.5297C37.5748 88.4397 36.8248 89.4697 35.8448 89.3697Z" fill="#FF7A00"/>
<path d="M33.9148 101.24C33.6148 100.73 33.6748 100.06 34.0848 99.6297C34.1648 99.0697 34.9148 98.7598 35.3148 99.1998C36.8548 99.3598 37.2648 101.99 35.3748 101.77C34.8448 102.13 34.1748 101.75 33.9148 101.24Z" fill="#FF7A00"/>
<path d="M34.9147 102.77C33.5447 102.25 33.3147 100.52 33.9347 99.3499C34.2447 98.7699 34.9147 98.7099 35.4947 98.6599C36.9747 98.5799 38.3747 100.29 37.6347 101.68C37.1047 102.56 35.9147 103.18 34.9147 102.77ZM35.9347 100.89C35.9447 100.85 35.9347 100.79 35.9347 100.76C35.8647 100.55 35.6747 100.44 35.5047 100.34C35.4647 100.35 35.4247 100.37 35.4047 100.4C35.5347 100.6 35.7247 100.77 35.9347 100.89Z" fill="#FF7A00"/>
<path d="M35.1346 89.9405C33.4646 89.2705 33.7146 86.9405 34.9946 86.0105C35.2446 85.3805 36.0846 85.1705 36.6946 85.3805C37.3946 85.6505 37.8246 86.4105 38.1646 87.0505C38.5746 88.0805 38.1146 89.4605 37.0546 89.8905C36.4346 90.0305 35.7546 90.1705 35.1346 89.9405ZM36.0946 88.0505C36.1646 87.9205 36.2046 87.7705 36.2146 87.6205L36.1446 87.6405C36.1246 87.6505 36.1046 87.6505 36.0846 87.6605C36.0346 87.7905 36.0446 87.9305 36.0946 88.0505Z" fill="#FF7A00"/>
<path d="M35.2049 76.1005C32.9849 75.6805 33.6049 71.7006 35.9049 72.1406C36.4249 72.0306 37.0949 72.1406 36.9549 72.8106C37.3249 73.3106 37.4249 74.0006 37.0849 74.5506C37.0449 75.4806 36.1149 76.2605 35.2049 76.1005Z" fill="#FF7A00"/>
<path d="M35.2151 60.1901C34.6251 60.0701 34.2351 59.5801 34.0151 59.0501C33.8251 58.5801 33.8351 57.9201 34.1951 57.5401C34.5751 55.9601 36.6751 55.9101 37.1851 57.4701C37.7651 58.7201 36.6251 60.4701 35.2151 60.1901Z" fill="#FF7A00"/>
<path d="M35.9048 47.1003C35.3448 47.0003 34.9048 46.6403 34.6548 46.1303C34.5348 45.8803 34.4648 45.5903 34.4648 45.3003C33.7448 44.0603 35.8249 43.1903 36.6649 44.0403C37.9249 44.9803 37.7848 47.2603 35.9048 47.1003Z" fill="#FF7A00"/>
<path d="M35.4049 47.6503C35.2949 47.6203 35.1949 47.5903 35.0949 47.5503C35.0149 47.5203 34.9449 47.4903 34.8649 47.4603C34.3149 47.8403 33.6749 47.0303 33.4849 46.5603C33.2649 46.1203 33.3049 45.6203 33.4349 45.1603C33.4549 44.0203 34.3649 42.8303 35.5449 42.7803C38.7049 43.1203 38.8349 47.8103 35.4049 47.6503ZM35.6349 46.8103C37.1249 46.7403 37.2349 44.2103 35.9149 43.7903C33.8849 43.7703 33.5049 46.6403 35.6349 46.8103Z" fill="#FF00BF"/>
<path d="M35.265 47.7605C34.155 47.7705 33.315 46.7205 33.185 45.6805C33.105 44.6805 33.805 43.8705 34.555 43.2905C34.845 43.0405 35.165 42.7505 35.575 42.7305C38.855 43.1205 38.585 47.8305 35.265 47.7605C35.255 47.7605 35.265 47.7605 35.265 47.7605ZM35.755 46.9505C36.085 46.8405 36.395 46.6804 36.665 46.4604C36.785 46.3204 36.845 46.1105 37.015 46.0205C37.595 45.0405 36.835 43.7905 35.815 43.5205C35.695 43.4805 35.565 43.4505 35.455 43.5305C35.425 43.6805 35.285 43.7805 35.135 43.7805C33.905 45.0305 33.415 46.8805 35.755 46.9505Z" fill="#FF00BF"/>
<path d="M35.4949 76.4104C34.2249 76.4204 32.9349 75.3104 32.7949 74.0404C32.8349 72.2704 34.8549 71.2104 36.4349 71.7404C36.8049 71.9104 37.0349 72.2604 37.3249 72.5304C37.7749 73.0404 37.7349 73.7504 37.6749 74.3804C37.6849 75.5704 36.6549 76.4304 35.4949 76.4104ZM35.3749 75.4504C36.1049 75.4404 36.4649 74.6804 36.5849 74.0604C36.7349 73.4404 36.6249 72.8904 36.1049 72.5004C35.3149 72.4104 34.1849 72.5704 33.8749 73.4104C33.6049 74.3704 34.3849 75.4204 35.3749 75.4504Z" fill="#FF00BF"/>
<path d="M35.0348 60.2701C33.5148 59.8701 33.2948 57.7701 34.0248 56.5901C34.5248 55.9601 35.4148 55.6601 36.1948 55.7601C37.0148 55.7201 37.6748 56.5501 37.8448 57.2801C38.5648 58.9501 36.7348 60.8301 35.0348 60.2701ZM35.7148 59.4501C36.3948 59.2301 37.0148 58.7201 37.1048 57.9801C37.1248 57.8001 37.1548 57.5901 37.0248 57.4301C36.6948 57.0101 36.1548 56.8401 35.7048 56.5701C35.5848 56.4901 35.4148 56.5501 35.3048 56.5901C34.3848 56.8601 34.1948 58.0701 34.5748 58.8201C34.7748 59.2501 35.2948 59.3601 35.7148 59.4501Z" fill="#FF00BF"/>
<path d="M35.705 90.1302C34.165 90.0602 33.4851 88.5202 33.6351 87.1402C33.7751 86.2102 34.125 85.0802 35.175 84.8702C35.955 84.6702 36.805 85.0302 37.345 85.6002C37.825 85.9102 38.3051 86.2802 38.4451 86.8702C38.9851 88.8602 37.835 90.4902 35.705 90.1302ZM35.835 89.0502C36.375 88.9502 37.0551 88.9602 37.3251 88.4402C37.8951 87.1502 36.8751 85.7902 35.5151 85.8602C35.3951 86.0202 35.1951 86.0502 35.0151 86.1202C34.8751 86.2702 34.795 86.4402 34.705 86.6102C34.465 87.2302 34.4851 88.0502 34.8251 88.6202C35.1451 88.8302 35.465 89.0202 35.835 89.0502Z" fill="#FF00BF"/>
<path d="M35.6549 103.07C32.8249 103.13 32.5749 98.3504 35.3849 98.2004C36.7749 97.8304 38.0249 99.0404 38.3049 100.33C38.6449 101.95 37.1649 103.12 35.6549 103.07ZM36.3849 101.86C38.5549 101.61 36.5049 98.6104 35.0649 99.1104C35.0249 99.1804 34.9649 99.2404 34.8849 99.2604C34.8349 99.2704 34.7949 99.2804 34.7449 99.2704C33.7949 100.86 34.7049 101.82 36.3849 101.86Z" fill="#FF00BF"/>
<path d="M79.2644 132.48C78.0244 131.07 81.6544 129.03 82.3344 127.87C83.9544 125.85 84.5644 123.36 86.1944 121.36C87.9544 118.2 88.8344 114.7 89.0744 111.11C90.1244 103.36 90.3144 95.5399 90.8744 87.7499C91.6344 78.7499 92.1844 69.7399 92.6744 60.7199C92.6444 58.4599 92.5744 56.08 91.5644 54.02C91.0244 52.71 87.4944 50.7699 88.8944 49.3499C89.8644 48.8499 90.5444 50.1299 91.1644 50.6799C94.1744 52.9099 94.7344 56.7699 94.7444 60.2799C94.3144 72.4499 93.0744 84.5799 92.4444 96.7399C92.2044 101.07 91.9844 105.41 91.3544 109.7C91.0144 112.32 90.8544 114.99 90.0644 117.52C89.4844 119.17 88.8444 120.83 87.9944 122.37C87.2144 123.42 86.4844 124.48 85.9944 125.7C85.0244 127.5 83.9544 129.29 82.4344 130.69C81.5744 131.27 80.3244 133.34 79.2644 132.48Z" fill="#597FFC"/>
<path d="M53.4546 139.63C49.9246 139.52 46.5346 138.3 43.2946 137.01C41.1146 136.11 38.9246 135.18 36.9746 133.83C35.6346 132.88 34.4646 131.91 33.2746 130.82C32.0346 129.69 30.7246 128.58 29.9646 127.05C29.0946 125.57 28.1446 124.13 27.3546 122.6C26.6646 121.09 26.4846 119.41 25.9946 117.83C25.6646 116.27 25.3646 114.67 25.2546 113.07C25.2246 112.5 25.5146 112 25.4746 111.44C25.6546 110.13 27.3646 110.45 27.2946 111.71C27.1746 112.55 26.9546 113.37 27.2146 114.22C27.4546 115.84 27.8046 117.47 28.2646 119.01C28.5646 121.07 29.6246 122.8 30.7146 124.52C31.6646 126.35 32.8646 127.86 34.4646 129.17C37.5746 132.21 41.3846 134.12 45.3646 135.64C47.3346 136.39 49.3646 137.05 51.4446 137.44C53.3246 137.71 55.2246 137.59 57.1146 137.5C64.7646 137.23 73.5046 135.09 79.5346 130.28C81.2046 128.95 82.2846 127.27 83.5346 125.59C84.3646 124.49 85.2146 123.41 85.9546 122.25C86.8246 120.45 87.4446 118.64 88.3346 116.88C88.5746 116.3 89.4246 116.18 89.5246 116.94C89.5146 117.15 89.4746 117.37 89.4346 117.58C88.4846 120.4 87.6646 123.29 85.7446 125.62C83.9046 128 82.3246 130.66 79.8446 132.46C72.2546 137.88 62.6346 139.77 53.4546 139.63C53.5846 139.64 53.4546 139.63 53.4546 139.63Z" fill="#597FFC"/>
<path d="M55.9046 140.32C51.4346 139.62 46.9046 138.28 42.7046 136.62C40.7346 135.52 38.6546 134.66 36.6446 133.64C34.7846 132.49 33.5846 130.58 32.1646 128.96C31.4546 128.16 30.9246 127.23 30.3146 126.35C29.4746 125.36 28.7046 124.31 28.0446 123.18C27.5746 122.4 28.6146 121.59 29.2446 122.29C29.5146 122.58 29.7246 122.91 29.9346 123.25C31.4146 125.25 32.7846 127.32 34.3946 129.21C35.3146 130.3 36.0346 131.37 37.2146 132.11C38.5246 132.84 39.7846 133.27 41.0946 133.93C42.4046 134.54 43.6846 135.41 45.0846 135.76C49.0846 136.99 53.1045 138.44 57.3145 138.7C61.2745 138.78 65.1746 137.86 69.0446 137.12C74.3846 135.55 79.3846 132.28 82.5846 127.71C82.8146 127.35 83.3846 127.43 83.5446 127.81C83.8046 128.77 82.8045 129.53 82.3845 130.31C78.6845 135.01 73.0846 138.29 67.1846 139.26C63.4746 139.95 59.6946 140.76 55.9046 140.32Z" fill="#597FFC"/>
<path d="M26.7148 118.82C26.6048 117.42 26.0849 116.09 26.0449 114.68C25.9849 113.61 26.0149 112.61 26.0449 111.57C25.6349 111.35 25.3449 110.81 25.7349 110.43C26.1549 110.06 26.8249 110.43 27.1349 110.8C27.3849 111.19 27.4248 111.64 27.3348 112.08C27.2748 113.24 27.3248 114.4 27.4548 115.55C27.4348 116.49 28.7049 118.93 27.4849 119.33C27.1649 119.4 26.7748 119.17 26.7148 118.82Z" fill="#597FFC"/>
<path d="M26.1144 118.39C25.5144 115.88 24.8844 113.36 25.1044 110.75C25.0644 109.78 26.0944 109.14 26.5844 110.21C27.1744 110.59 27.5944 111.46 26.7444 111.82C26.3244 114.01 27.4444 116.1 27.4244 118.28C27.4044 119.04 26.2544 119.14 26.1144 118.39Z" fill="#597FFC"/>
<path d="M49.8246 60.0494C49.1846 59.6794 49.4446 58.7894 49.4546 58.1694C49.3846 56.9994 49.8446 56.1495 50.1346 55.0795C51.6146 49.3695 56.0547 44.9094 61.2347 42.3594C62.7247 41.6794 64.3647 41.5094 65.9047 40.9594C66.8247 40.6994 67.7847 40.6894 68.7247 40.4894C69.6547 40.3694 70.7547 40.1594 71.6047 40.6194C72.1247 40.8394 72.5147 41.5294 71.9047 41.8994C71.7547 42.3894 71.1947 42.8794 70.6647 42.7094C70.0947 42.9294 69.4246 42.7995 68.8946 42.7695C67.4046 42.8995 65.9046 43.0695 64.5146 43.6295C61.5546 44.1395 58.8646 45.7695 56.7646 47.8795C54.8446 49.9295 53.3946 52.4194 52.2746 54.9794C51.9146 56.1894 51.5446 57.1995 51.3146 58.3795C51.0746 59.0595 50.8146 60.4294 49.8246 60.0494Z" fill="#597FFC"/>
<path d="M21.7046 53.6798C20.5846 44.4498 22.8747 35.2998 23.1347 26.0998C23.2147 20.8598 22.3247 15.3697 19.3547 10.9597C16.5947 7.58975 12.7347 5.13979 8.51466 4.06979C7.39466 3.81979 6.29464 3.49977 5.18464 3.23977C3.72464 3.12978 2.28464 2.87977 0.904643 2.35977C0.434643 2.24977 -0.095341 1.89975 0.014659 1.33975C0.204659 0.46975 1.24466 0.719748 1.82466 0.899748C3.54466 1.24975 5.32465 1.25977 7.03465 1.66977C12.5146 2.63977 17.7346 5.3698 21.2146 9.7698C23.2746 12.6898 24.2546 16.2798 24.9346 19.7198C25.8446 25.9598 24.6946 32.0998 23.8446 38.2598C23.1246 42.4198 22.8546 46.7898 22.8446 50.9798C22.8346 51.8698 22.9646 52.7598 22.8646 53.6497C22.8246 53.8898 22.6746 54.1298 22.4346 54.2198C22.0846 54.3498 21.6646 54.0798 21.7046 53.6798Z" fill="#597FFC"/>
<path d="M85.0248 36.5496C80.8448 36.1696 76.4947 36.6697 72.4547 35.3297C68.2847 34.1897 65.8748 30.3396 67.0448 26.1096C66.9148 25.9296 66.8548 25.7097 66.9048 25.4997C67.0948 24.5897 67.4148 23.6797 68.1048 23.0197C68.9548 22.1697 70.1847 22.0097 71.3247 21.8897C72.6247 21.6597 74.1648 21.5496 75.4248 21.4096C79.4748 20.5096 83.7048 19.7697 87.8548 20.5097C91.4948 21.1397 95.2047 21.1797 98.8847 21.3197C101.735 21.0897 104.685 20.6996 107.345 22.0396C109.535 22.9196 111.135 24.8396 111.785 27.0896C113.155 31.1796 108.465 33.8597 105.175 34.8797C101.905 35.8797 98.4448 35.5097 95.0948 36.0097C91.7648 36.5197 88.3948 36.8696 85.0248 36.5496ZM81.0147 34.4196C83.5847 34.4596 86.1348 34.7596 88.7048 34.7296C91.2148 34.6796 93.6848 34.1896 96.1748 33.9296C99.0048 33.6096 101.915 33.8996 104.665 33.0396C106.655 32.3696 110.015 30.9397 110.165 28.5597C109.895 26.0597 107.975 24.0296 105.575 23.4096C103.025 22.4796 100.355 23.4096 97.7348 23.2296C94.9548 23.0396 92.1648 22.9896 89.3948 22.6696C86.3448 22.0096 83.0148 22.0296 79.9848 22.4296C78.3548 22.6996 76.7548 23.1597 75.1048 23.3297C73.9348 23.4297 72.7648 23.4897 71.6048 23.6997C70.8648 23.8197 70.0248 23.7997 69.4248 24.3197C69.5248 24.5897 69.4248 24.9097 69.1548 25.0597C69.0648 25.1097 68.9747 25.1297 68.8847 25.1297C66.1247 33.8597 74.7047 34.4196 81.0147 34.4196Z" fill="#00FF09"/>
<path d="M68.6945 72.5098C58.8345 70.6998 58.8845 64.2498 61.8445 56.2098C63.8345 51.4998 66.9746 47.3798 69.4346 42.9198C71.1246 40.1598 73.1145 37.6098 75.3645 35.2898C75.7845 34.4698 76.7445 34.9498 76.5945 35.7998C76.2745 37.0798 75.0445 38.0598 74.3345 39.1598C72.3345 41.8498 70.5445 44.6898 68.8845 47.5898C66.5245 51.7398 63.5445 55.6698 62.6345 60.4598C61.5045 64.6998 61.7645 68.2998 66.4545 69.8898C67.6545 70.2998 68.9145 70.7698 70.2145 70.5798C72.8945 69.9998 74.9645 67.9498 76.8545 66.0698C79.8645 62.6598 82.5145 58.7798 84.7445 54.8398C85.7345 52.9598 86.8846 51.1798 88.1246 49.4598C89.9046 46.5398 91.3445 43.6998 93.1145 40.8298C94.2445 39.0398 94.7345 36.6098 96.6645 35.4898C96.9645 35.1298 97.5445 35.0998 97.8945 35.3998C98.7745 36.3398 97.6545 36.9198 97.0045 37.4698C96.3545 38.4198 95.9645 39.2998 95.4745 40.2998C94.5245 42.2498 93.2845 44.1198 92.2545 45.9898C90.8045 48.9898 88.8445 51.6698 87.1745 54.5398C83.8245 60.2998 76.3145 73.3698 68.6945 72.5098Z" fill="#00FF09"/>
<path d="M69.6448 64.0698C67.9848 63.0698 67.8048 60.6198 69.0948 59.2498C69.6448 58.1998 70.9948 56.9998 72.1648 57.8898C73.2948 58.6898 74.0047 59.9298 73.5047 61.2898C74.1547 63.4998 71.5148 65.3298 69.6448 64.0698Z" fill="#D6FF00"/>
<path d="M69.9745 64.7695C67.9445 64.2995 66.8945 61.6595 67.8345 59.8595C68.6045 58.6395 70.0745 57.7295 71.5445 57.8795C73.9445 58.1995 74.7445 61.0595 73.8845 63.0495C73.2945 64.5195 71.4145 65.0395 69.9745 64.7695ZM71.7345 62.1295C71.9145 61.4495 71.6345 60.7295 71.0845 60.3095C71.0745 60.3095 71.0545 60.3095 71.0445 60.3095C71.1745 60.4495 71.2845 60.6195 71.3745 60.7895C71.5745 61.1995 71.6245 61.6495 71.5345 62.0695C71.5745 62.0895 71.6245 62.0995 71.6745 62.1095C71.6945 62.1195 71.7145 62.1195 71.7345 62.1295Z" fill="#D6FF00"/>
</svg>
