<svg width="65" height="121" viewBox="0 0 65 121" fill="none" xmlns="http://www.w3.org/2000/svg">
<path d="M58.1202 63.9836C57.0602 63.2536 58.4302 62.1136 58.9402 61.4636C59.4202 60.8036 59.6302 59.9936 59.9302 59.2436C61.9702 54.4436 62.9202 49.1036 62.8102 43.9236C62.8102 41.9336 63.0202 39.9436 63.0402 37.9536C62.9902 33.7036 62.4202 29.5236 61.7802 25.3736C60.7802 19.6436 59.8502 13.6236 56.0102 9.04363C54.2202 7.03363 52.6102 4.72362 50.3202 3.25362C49.8902 3.26362 49.5502 2.7436 49.7102 2.3336C50.8802 0.333605 54.9102 5.10363 55.7802 6.07363C58.0402 8.56363 59.9602 11.2436 61.1502 14.3936C62.5602 18.4636 63.3002 22.6936 63.8902 26.9436C64.6402 32.0236 65.0902 37.0736 64.6002 42.1936C64.6302 48.0836 64.0002 54.0336 61.6002 59.4736C61.1002 60.9736 60.4102 62.3836 59.2402 63.4736C59.0202 63.8636 58.5902 64.2336 58.1202 63.9836Z" fill="white"/>
<path d="M7.24018 72.1039C0.970177 71.5538 0.960158 62.8238 0.470158 58.0838C-0.209842 52.8738 -0.0298435 47.6438 0.250157 42.4138C0.140157 39.4438 0.210171 36.4838 0.390171 33.5238C0.430171 31.4738 0.520153 29.4038 0.840153 27.3738C1.52015 21.6138 2.86017 15.8338 5.98017 10.8738C6.51017 9.52384 12.4002 3.28383 13.3902 5.17383C13.8502 6.12383 12.0602 6.67384 11.5702 7.21384C10.0202 8.57384 8.40016 9.94384 7.41016 11.7838C2.45016 19.9438 2.23018 29.7139 1.99018 38.9839C2.18018 42.4239 1.85016 45.8438 1.75016 49.2838C1.76016 52.4838 1.96017 55.6938 2.29017 58.8738C2.51017 61.0438 2.54017 63.2338 3.05017 65.3638C3.60017 67.0538 4.09017 69.0639 5.67017 70.1039C6.38017 70.5439 7.33016 70.5938 8.07016 70.9238C8.49016 70.9238 8.96018 71.0338 8.99018 71.5338C9.01018 71.8238 8.80016 72.1438 8.50016 72.1838C8.07016 72.2638 7.66018 72.2038 7.24018 72.1039Z" fill="white"/>
<path d="M32.5004 119.894C32.0904 110.274 32.2604 100.644 32.3004 91.0236C32.6804 83.5436 32.7504 76.0536 32.6604 68.5636C32.4804 61.0436 32.7204 53.5236 32.4704 46.0036C32.4504 44.6436 32.3904 43.2836 32.4004 41.9136C32.2704 41.6436 32.4104 41.3436 32.4404 41.0736C32.4104 40.5636 32.8804 40.0936 33.4004 40.2736C34.2004 40.5836 33.8704 41.6936 33.9804 42.3636C34.0504 43.5636 34.1404 44.7736 34.1704 45.9836C34.4004 50.9936 34.4304 56.0036 34.3604 61.0136C34.4004 70.9936 34.6404 80.9836 34.0604 90.9536C33.9404 97.4636 33.8904 103.984 33.8704 110.494C33.8204 113.594 34.0104 116.694 33.9404 119.794C33.9304 120.184 33.6204 120.524 33.2204 120.524C32.8804 120.524 32.5304 120.264 32.5004 119.894Z" fill="white"/>
<path d="M29.1504 22.7939C25.9404 18.5139 22.9104 14.1039 19.6404 9.86386C18.2504 7.82386 16.8304 5.81388 15.4904 3.75388C15.3604 3.54388 15.2104 3.30386 15.1904 3.05387C15.1204 2.52387 15.7504 2.10387 16.2104 2.40387C17.8004 4.06387 19.0404 6.06388 20.4104 7.91388C22.1904 10.4039 24.1104 12.7839 25.7904 15.3439C27.3904 17.5439 29.1304 19.6839 30.5004 22.0339C30.8304 22.8439 29.6704 23.5139 29.1504 22.7939Z" fill="#FF7A00"/>
<path d="M29.6502 22.9437C28.6402 22.1337 30.2602 20.9837 30.6902 20.2537C31.4702 19.1637 32.3302 18.2437 33.1702 17.2337C34.7302 15.6637 35.9402 13.8137 37.3002 12.0737C39.0002 9.82372 40.8102 7.66372 42.5502 5.44372C43.9002 3.81371 45.3802 2.25369 46.5102 0.453694C46.7202 0.263694 47.0102 0.20372 47.2702 0.32372C48.5902 1.04372 46.3302 3.4337 45.8002 4.2137C41.4602 9.2337 37.5502 14.6537 33.1002 19.5637C32.2602 20.4837 31.5502 21.5037 30.7802 22.4737C30.5702 22.9037 30.0902 23.2137 29.6502 22.9437Z" fill="#FF7A00"/>
<path d="M32.7103 39.2636C28.1603 38.8536 23.5403 36.8436 20.5603 33.3136C15.3703 26.8936 14.3703 18.0836 14.5303 10.0836C14.6903 8.87356 14.0103 2.36358 15.7203 2.73358C16.3903 2.93358 16.0903 3.62358 16.0503 4.10358C15.9803 5.83358 16.1903 7.56358 16.2303 9.29358C16.3103 12.0736 16.2403 14.8736 16.6503 17.6436C18.2203 29.3436 23.0603 37.3336 35.8403 37.5136C37.3503 37.2536 38.8503 36.6836 40.2003 35.9536C41.6803 34.7036 42.8603 33.0636 43.9203 31.4436C44.9603 29.0836 45.4303 26.5436 45.6503 23.9936C46.0103 21.0836 46.1503 18.2136 46.1203 15.2936C46.0503 13.0436 46.2403 10.8136 46.5703 8.58356C46.6303 7.34356 46.6103 6.10357 46.5403 4.87357C46.4503 3.47357 46.1003 2.07355 46.4403 0.703555C46.6603 0.123555 47.5603 0.123555 47.7803 0.703555C48.1203 2.27355 48.2303 3.92357 48.3803 5.53357C48.6503 8.25357 47.9703 10.9236 48.1103 13.6436C48.1403 19.6836 48.2903 26.1036 45.9203 31.7636C44.9003 33.7836 43.3803 35.5636 41.7703 37.1336C39.2303 39.0636 35.8503 39.7636 32.7103 39.2636Z" fill="#FF7A00"/>
</svg>
