<svg width="42" height="7" viewBox="0 0 42 7" fill="none" xmlns="http://www.w3.org/2000/svg">
<path d="M1.29114 5.46064C0.461143 5.02064 -0.518858 3.13062 0.321142 2.38062C1.15114 1.61062 2.50114 0.92063 3.57114 1.67063C5.80114 3.28063 3.79114 6.93064 1.29114 5.46064Z" fill="#D6FF00"/>
<path d="M13.5113 5.88016C11.4613 4.99016 11.5813 1.77016 13.9113 1.41016C14.4713 1.14016 15.1513 1.19017 15.6813 1.51017C18.0113 3.12017 16.3213 7.14016 13.5113 5.88016Z" fill="#D6FF00"/>
<path d="M26.9311 5.69C25.1011 5.28 24.7211 2.85002 26.1611 1.74002C26.7211 1.35002 27.4811 0.740023 28.2211 0.990023C29.0911 1.40002 29.9612 2.42002 29.4512 3.42002C29.6012 4.75002 28.2711 6.02 26.9311 5.69Z" fill="#D6FF00"/>
<path d="M38.3311 4.79021C35.0211 3.88021 37.2211 -0.839769 40.0111 0.970231C40.5211 1.30023 41.4111 1.77022 40.9311 2.49022C41.0011 3.85022 39.6811 5.10021 38.3311 4.79021Z" fill="#D6FF00"/>
</svg>
