<svg width="103" height="47" viewBox="0 0 103 47" fill="none" xmlns="http://www.w3.org/2000/svg">
<path d="M101.213 46.4955C100.263 45.5955 100.113 44.2156 100.163 42.9756C100.173 40.1556 100.343 37.3355 100.583 34.5155C100.813 28.0855 100.313 20.9755 95.9529 15.8756C94.0529 13.8256 92.5329 11.2956 90.1629 9.75556C88.4829 8.88556 86.7929 8.35555 85.0929 7.59555C82.6429 6.41555 79.9429 5.44553 77.2329 5.26553C74.3729 5.02553 71.5829 4.34556 68.7529 3.88556C64.4029 3.48556 60.0229 3.52554 55.6829 3.08554C46.9629 2.23554 38.1029 2.03556 29.3929 2.63556C25.1529 2.74556 20.8629 2.58554 16.6329 2.92554C11.9629 3.07554 7.36287 2.08553 2.68287 2.35553C2.33287 2.70553 1.8629 2.32554 1.4629 2.27554C0.832903 2.21554 -0.197121 2.07556 0.0328793 1.22556C0.122879 0.945556 0.412903 0.725555 0.712903 0.755555C3.3729 1.01555 6.05288 0.495545 8.72288 0.745545C12.8429 1.28555 16.9829 1.16553 21.1229 0.85553C25.3329 0.82553 29.5229 0.825559 33.7129 0.415559C38.0529 0.235559 42.4129 0.41555 46.7629 0.37555C51.1229 0.41555 55.4529 1.02553 59.8029 1.26553C62.4329 1.42553 65.0829 1.38553 67.7029 1.60553C69.8729 1.76553 71.9829 2.37554 74.1229 2.73554C76.7829 3.19554 79.4729 3.21554 82.0429 4.08554C83.7529 4.65554 85.3629 5.49556 87.0429 6.16556C89.4029 7.08556 91.9129 7.94555 93.5729 9.96555C95.7029 12.4755 98.1429 14.7756 99.7729 17.6656C102.743 23.4056 103.023 30.1656 102.583 36.5056C102.323 39.1456 102.203 41.7855 102.063 44.4255C102.223 44.9355 102.453 45.4455 102.413 45.9855C102.383 46.5455 101.653 46.8955 101.213 46.4955Z" fill="#00FF09"/>
<path d="M67.2831 44.4855C66.7531 44.4555 66.5431 43.9455 66.5731 43.4755C66.5931 42.2455 66.773 40.9855 66.743 39.7655C66.693 35.6955 66.3731 31.6855 65.2531 27.7755C64.5231 24.9755 63.803 22.1555 62.673 19.4855C61.523 16.9655 59.9531 14.6855 58.2531 12.5155C55.0731 7.80546 54.0431 6.33548 48.7031 3.93548C47.1731 3.17548 45.643 2.31547 43.983 1.89547C43.693 1.86547 43.4131 1.61548 43.3931 1.31548C43.6531 -0.714519 48.2231 1.85547 49.2631 2.27547C55.1431 4.69547 56.3731 6.43548 59.8531 11.4755C64.3931 16.7855 66.3131 23.3055 67.7131 30.0155C68.1931 31.6955 69.4431 44.7555 67.2831 44.4855Z" fill="#00FF09"/>
<path d="M77.5428 44.6055C77.2428 44.4655 77.1329 44.1255 77.2429 43.8255C77.2329 43.3255 77.0529 42.8355 77.0829 42.3255C77.0329 38.7255 76.6929 35.0956 75.9529 31.5956C75.5429 29.3356 74.7629 27.1855 73.9629 25.0455C72.9629 22.1555 71.7529 19.3255 69.9829 16.8255C68.8729 15.1855 67.4229 13.8156 66.0029 12.4456C64.6929 11.1556 63.5529 9.69554 62.1429 8.51554C59.8529 6.45554 56.7529 6.06554 53.9829 4.98554C52.3129 4.34554 50.6829 3.61556 49.1129 2.75556C48.8329 3.22556 48.0329 3.01556 47.9929 2.53556C47.7329 1.80556 47.8729 0.865548 48.8629 0.995548C50.0529 1.33555 51.1729 1.99554 52.3229 2.42554C55.7029 3.93554 59.6829 4.18555 62.6929 6.40555C64.5529 7.67555 65.9729 9.53555 67.4829 10.9955C69.4029 12.7655 71.1229 14.5056 72.4429 16.6856C76.0229 22.7456 78.1629 29.6356 78.7829 36.6256C78.8529 38.1056 79.8328 45.0655 77.5428 44.6055Z" fill="#00FF09"/>
<path d="M90.1831 45.7359C89.7731 45.3859 89.7831 44.8259 89.7531 44.3259C89.5331 41.4759 90.0331 38.6459 90.0931 35.8059C90.0131 33.4459 89.5331 31.1259 89.0531 28.8259C88.6231 26.6159 88.1431 24.3959 87.1931 22.3359C84.6431 17.0959 80.3431 12.6559 75.3931 9.62595C71.3031 7.77595 66.7031 7.54593 62.5531 5.67593C60.6531 4.90593 58.6231 4.61595 56.6231 4.25595C55.6131 4.00595 50.9831 3.35595 52.7631 1.78595C53.0431 1.65595 53.3731 1.55595 53.6331 1.78595C54.3731 1.94595 55.1031 2.11595 55.8531 2.22595C57.7131 2.53595 59.6231 2.65594 61.4531 3.15594C63.4531 3.71594 65.3731 4.54593 67.4031 5.01593C70.1631 5.72593 73.0131 6.19594 75.6531 7.30594C79.6831 9.24594 82.9931 12.5959 85.7731 15.9959C88.7431 19.5259 90.3631 23.6659 91.1031 28.0859C92.0031 32.1259 92.5331 36.0459 91.8631 40.1059C91.8631 40.0759 91.8731 40.0459 91.8731 40.0159C91.8631 40.0859 91.8631 40.1059 91.8531 40.1559C91.7231 41.2659 91.6931 42.366 91.7031 43.446C91.6431 44.306 91.9731 45.0559 91.3831 45.7159C91.0531 46.0159 90.5231 46.0259 90.1831 45.7359Z" fill="#00FF09"/>
</svg>
