<svg width="35" height="19" viewBox="0 0 35 19" fill="none" xmlns="http://www.w3.org/2000/svg">
<path d="M5.94 9.38623C3.55 9.23623 2.09999 7.33626 1.04999 5.41626C0.679988 4.82626 0.03 4.28621 0 3.55621C0.03 3.32621 0.249971 3.19625 0.469971 3.22625C1.01997 3.28625 1.61997 3.40623 2.15997 3.32623C3.31997 3.25623 4.53998 2.94625 5.66998 3.28625C6.89998 3.65625 8.05002 4.48622 8.65002 5.62622C8.92002 6.27622 8.79998 7.03623 8.66998 7.70623C8.87998 7.91623 8.64001 8.2362 8.51001 8.4262C7.89001 9.1462 6.86 9.44623 5.94 9.38623ZM6.09998 8.82623C6.80998 8.77623 7.60998 8.61622 8.09998 8.06622C8.22998 7.35622 8.44001 6.58623 8.20001 5.88623C7.53001 4.70623 6.28999 3.93622 4.98999 3.69622C3.48999 3.65622 2.01999 4.11622 0.549988 3.75622C1.34999 4.91622 2.12001 6.11622 2.95001 7.25622C3.72001 8.20622 4.91998 8.68623 6.09998 8.82623Z" fill="#00FF09"/>
<path d="M27.4 6.18607C26.93 6.00607 26.4699 5.72609 26.1599 5.32609C25.6999 5.01609 25.6299 4.32608 25.5399 3.81608C25.2399 1.32608 28.3999 0.606092 30.3399 0.646092C31.4699 0.736092 32.5799 1.32609 33.7199 1.14609C33.9699 1.10609 34.3 0.86607 34.45 1.18607C34.5 1.29607 34.4599 1.4161 34.4199 1.5261C33.9099 2.6261 33.65 3.90606 32.64 4.67606C31.91 5.25606 30.9799 5.4761 30.1099 5.7761C29.2599 6.0461 28.3 6.28607 27.4 6.18607ZM27.64 5.69608C29.28 5.53608 30.9699 5.12611 32.3499 4.22611C33.1699 3.55611 33.3799 2.55609 33.7999 1.64609C32.4899 1.93609 31.23 1.2261 29.94 1.2161C27.83 1.3461 25.14 2.13611 26.33 4.78611C26.46 4.82611 26.5199 4.99609 26.6099 5.07609C26.8799 5.36609 27.26 5.61608 27.64 5.69608Z" fill="#00FF09"/>
<path d="M17.7 17.3059C17.37 15.5759 17.57 13.756 17.52 11.996C17.65 6.95595 20.98 4.76598 25.62 4.14598C25.84 4.08598 26 4.36599 25.85 4.53599C25.63 4.75599 25.28 4.79595 24.99 4.86595C21.82 5.33595 19.18 6.89597 18.32 10.136C17.91 12.196 18.05 14.3459 18.08 16.4259C18.05 16.7259 18.3 17.346 17.89 17.416C17.81 17.406 17.73 17.3759 17.7 17.3059Z" fill="#00FF09"/>
<path d="M17.7199 17.1857C17.5999 16.8957 17.6999 16.5257 17.5899 16.2357C17.0399 14.8757 16.4099 13.4657 15.4199 12.3857C13.5299 10.4757 11.2099 8.9257 8.71986 7.9557C8.51986 7.8957 8.21988 7.77569 8.30988 7.51569C8.34988 7.42569 8.45988 7.36569 8.55988 7.38569C10.3699 7.73569 11.8599 8.92568 13.3799 9.87568C15.6599 11.5057 17.5999 13.8457 18.1099 16.6557C18.0999 16.8257 18.1499 17.0057 18.0899 17.1657C18.0199 17.3157 17.7999 17.3357 17.7199 17.1857Z" fill="#00FF09"/>
<path d="M17.7997 18.2364C17.3297 17.8264 17.5397 17.0664 17.4097 16.5164C17.3397 16.0964 17.2297 15.6664 17.2197 15.2464C17.2297 15.2064 17.2497 15.1664 17.2797 15.1364C17.0897 14.8064 17.5298 14.4964 17.6398 14.8964C17.6398 14.9064 17.6498 14.9064 17.6898 14.9964C17.4598 12.1464 17.6598 8.93639 19.8898 6.86639C21.5098 5.54639 23.5198 4.4464 25.6298 4.3164C25.9898 4.2164 26.2497 4.65638 25.8397 4.79638C25.6297 4.79638 25.4098 4.8764 25.1998 4.8764C23.4198 5.2664 21.7598 6.18638 20.3298 7.29638C19.3998 8.17638 18.7698 9.37643 18.4498 10.5964C17.9298 12.6164 18.2797 14.7564 18.2997 16.8164C18.2497 17.3364 18.7797 18.5564 17.7997 18.2364Z" fill="#00FF09"/>
<path d="M17.5899 18.2163C17.3799 18.1263 17.3399 17.8963 17.3499 17.6963C17.3099 17.2763 17.24 16.8963 17.19 16.4763C16.8 13.7363 14.6599 11.6563 12.4899 10.1463C11.4099 9.54628 10.3699 8.85627 9.22993 8.38627C8.92993 8.27627 8.55994 8.25624 8.35994 7.98624C8.25994 7.83624 8.38996 7.59627 8.56996 7.63627C8.67996 7.67627 8.82994 7.72624 8.92994 7.73624C10.3899 8.05624 11.7 8.98624 12.96 9.73624C15.05 11.1962 16.9799 13.2163 17.5899 15.7663C17.7999 15.8463 17.7899 16.1563 17.7999 16.3263C17.8299 16.7863 17.8299 17.2262 17.8599 17.6762C18.4099 17.8962 18.0499 18.4563 17.5599 18.2063L17.5899 18.2163Z" fill="#00FF09"/>
<path d="M6.14981 8.9463C3.76981 9.0763 2.0398 7.21631 1.0098 5.26631C0.899798 4.93631 -0.000201762 3.72633 0.509798 3.59633C0.589798 3.52633 0.689757 3.5563 0.779757 3.5663C0.769757 3.5663 0.769798 3.5663 0.759798 3.5663C0.759798 3.5663 0.759788 3.5663 0.749788 3.5663C1.35979 3.5463 1.98981 3.55628 2.57981 3.48628C4.60981 2.94628 6.97978 3.59631 8.11978 5.45631C9.02978 7.22631 8.27981 8.9663 6.14981 8.9463ZM6.02976 8.41633C6.79976 8.43633 7.8098 8.15628 7.9498 7.29628C7.9798 7.11628 7.91976 6.93631 7.90976 6.76631C7.91976 6.37631 7.8598 5.99628 7.6398 5.67628C7.1498 5.03628 6.50978 4.45632 5.73978 4.15632C4.99978 3.90632 4.17976 3.83628 3.40976 3.92628C2.57976 4.07628 1.75976 4.13629 0.909762 4.05629C1.92976 6.09629 3.44976 8.52633 6.02976 8.41633Z" fill="#00FF09"/>
<path d="M10.4298 8.72587C9.8998 8.49587 9.39979 8.19582 8.85979 7.98582C8.53979 8.07582 7.94982 7.52586 8.20982 7.21586V7.20585C8.21982 7.16585 8.23981 7.12587 8.25981 7.09587C8.25981 7.06587 8.27978 7.03584 8.28978 7.00584C8.06978 6.61584 7.99978 6.16585 7.78978 5.76585C7.71978 5.35585 8.18981 5.42587 8.31981 5.72587C8.63981 6.20587 8.68983 6.84583 9.14983 7.24583C9.65983 7.68583 10.2498 7.95585 10.7598 8.38585C10.9198 8.58585 10.6598 8.83587 10.4298 8.72587Z" fill="#00FF09"/>
<path d="M27.8302 6.2857C26.8802 6.2857 26.0402 5.57566 25.6502 4.74566C25.6002 4.60566 25.5002 4.42565 25.6102 4.29565C25.7402 4.14565 25.9402 4.25571 25.9902 4.41571C26.2802 5.17571 27.0302 5.87569 27.8502 5.83569C27.8402 5.83569 27.8402 5.83569 27.8302 5.83569H27.8202C29.0602 5.69569 30.3802 5.5257 31.4502 4.9057C31.8902 4.6657 32.2802 4.35567 32.6302 4.00567C32.7702 3.82567 33.0802 4.01569 32.9802 4.21569C32.5102 4.82569 31.8302 5.25568 31.1502 5.57568C31.1502 5.57568 31.1502 5.57568 31.1602 5.57568C30.1202 6.03568 28.9602 6.2057 27.8302 6.2857Z" fill="#00FF09"/>
<path d="M27.82 5.96639C26.65 5.83639 25.54 4.69635 25.81 3.48635C25.97 1.88635 27.9 1.13635 29.3 0.986346C30.36 0.906346 31.4 1.16638 32.4 1.45638C32.87 1.57638 33.33 1.46638 33.78 1.45638C34.15 1.55638 34.05 2.12634 33.68 1.85634C32.43 2.26634 31.22 1.4464 29.96 1.4764C28.59 1.4264 26.9 1.94636 26.32 3.24636C26.29 3.59636 26.19 3.96634 26.32 4.29634C26.49 4.85634 27.03 5.29638 27.58 5.45638C28.2 5.65638 28.9 5.47639 29.52 5.46639C29.62 5.41639 29.76 5.44636 29.8 5.56636C29.97 6.07636 28.13 5.96639 27.8 5.96639H27.82Z" fill="#00FF09"/>
</svg>
