<svg width="72" height="65" viewBox="0 0 72 65" fill="none" xmlns="http://www.w3.org/2000/svg">
<g filter="url(#filter0_d_24_3912)">
<path d="M15.7207 55.7707C14.0107 51.4507 13.5907 46.7807 12.4407 42.3107C7.83073 46.7007 7.06074 42.8607 8.98074 42.8907C10.1407 42.2607 11.0507 41.2607 11.9707 40.3407C11.3807 37.7407 10.8907 35.2107 10.4007 32.6007C9.94073 30.1907 9.70073 27.6707 10.3707 25.2707C10.9107 23.0107 12.9507 21.2807 15.1107 22.9407C19.7507 26.6407 17.6107 37.0607 13.9107 40.8607C14.0307 41.3807 14.1607 41.9007 14.2807 42.4207C14.5207 43.4707 14.7407 44.5107 14.9507 45.5607C15.1107 44.7307 15.3507 43.8707 15.8607 43.1707C17.0707 41.5307 19.9807 40.6207 21.3807 42.4807C22.6507 44.1607 22.6907 46.4507 23.8907 48.1707C25.8707 51.2007 28.7207 48.8407 29.4307 46.2007C27.8207 43.7207 27.2707 40.6607 27.5407 37.7407C27.6207 35.1207 29.4907 33.6307 31.2807 36.1707C32.8007 38.7907 31.9607 43.0207 31.3207 45.8607C35.0007 49.1807 36.8707 40.2307 37.2307 37.8407C36.2407 35.4807 35.6107 32.9807 35.1807 30.4507C34.3507 25.7507 33.5807 20.9407 34.3707 16.1707C34.5507 14.9007 35.1407 12.0307 36.9407 13.1507C37.6907 13.9007 38.0107 15.0007 38.3807 15.9707C38.9807 17.8107 39.3407 19.7107 39.5307 21.6407C40.1607 26.9407 39.8807 32.3207 39.1807 37.6007C40.0707 39.3007 41.1107 41.8107 43.2007 42.1707C44.6207 41.6507 44.7407 39.6907 45.1407 38.4207C45.3607 37.3607 45.5207 36.4507 45.6607 35.4007C45.1707 34.0907 44.7907 32.7507 44.4407 31.4007C42.6807 24.7707 40.6807 16.9907 42.7907 10.2507C43.0707 9.46069 43.7707 8.26068 44.7907 8.70068C46.5007 9.89068 46.9207 15.1707 47.3207 17.2507C48.0407 23.1907 48.1507 29.3607 47.5207 35.2807C48.0207 36.4907 48.9707 37.6107 50.2907 37.9307C52.0007 37.8807 53.0207 35.0207 53.5407 33.6507C54.2407 31.4707 54.5407 29.2007 54.5407 26.9207C54.4407 25.4807 54.2607 23.9507 54.6907 22.5607C54.5207 20.8407 56.8607 21.2507 57.8907 21.5807C60.0807 20.6807 61.5807 18.5607 62.5207 16.4507C62.8907 15.6007 64.1707 16.0507 63.9407 16.9407C63.4107 19.2607 61.8307 21.3207 59.8407 22.6107C65.5507 28.4907 60.0607 40.2607 55.7607 31.7907C54.9607 36.0507 51.7507 42.6307 47.0907 37.7007C46.6007 39.6907 46.2307 42.0607 44.4907 43.3607C42.1507 44.7907 39.7707 42.2907 38.6207 40.4407L38.6307 40.4507C37.7807 43.9607 35.3107 50.2307 30.7207 47.5607C28.6907 52.1407 23.7607 52.6207 21.7707 47.7307C21.1207 46.5607 20.8107 43.1807 19.4107 42.9707C15.9307 43.1307 16.4707 47.5007 16.5207 49.9707C16.6207 51.3807 16.8007 52.7807 17.0307 54.1807C17.0707 54.7207 17.3007 55.3007 17.0607 55.8207C16.7807 56.3807 15.9407 56.3207 15.7207 55.7707ZM30.0407 43.6007C30.2607 41.6107 31.0907 37.9107 29.4307 36.4507C28.7907 38.7707 29.1807 41.3907 30.0407 43.6007ZM13.4107 38.5907C15.6607 35.6007 17.6907 25.7207 13.4207 23.8307C13.4407 23.8307 13.4607 23.8407 13.4807 23.8407C13.5007 23.8507 13.5307 23.8607 13.5507 23.8707C13.3307 23.7807 13.0807 23.8107 12.8807 23.9407C12.9107 23.9207 12.9307 23.9007 12.9607 23.8807C10.8907 25.7607 11.5807 29.5507 12.0307 32.0207C12.5307 34.3107 12.9507 36.4007 13.4107 38.5907ZM59.0807 33.1707C59.1507 33.1707 59.2207 33.1407 59.2907 33.1107C59.9807 32.5507 60.2507 31.6107 60.4807 30.7907C60.8907 28.9207 60.5907 26.9807 59.7107 25.2907C59.3107 24.5807 58.9507 23.7507 58.1807 23.3707C57.7307 23.4907 57.2707 23.5607 56.8007 23.5707C56.6007 23.5707 56.4007 23.5607 56.2007 23.5307C56.2907 24.7507 56.2607 25.9907 56.2407 27.2107C56.6307 29.1407 57.0007 31.2707 58.3207 32.8007C58.5307 32.9807 58.7807 33.1807 59.0807 33.1707ZM37.7307 32.7307C38.0407 26.8507 38.1507 20.7107 36.2307 15.0807C34.9207 20.9707 36.7107 26.9407 37.7307 32.7307ZM45.9907 30.1907C45.9907 30.2007 45.9907 30.2107 46.0007 30.2207C46.0107 23.7007 45.9607 17.0307 44.3107 10.6807C42.8107 15.2607 43.9807 20.1607 44.7207 24.7807C44.7207 24.7607 44.7207 24.7607 44.7107 24.7507C45.0807 26.5707 45.5207 28.3807 45.9907 30.1907Z" fill="#FF00BF"/>
</g>
<defs>
<filter id="filter0_d_24_3912" x="0" y="0.606445" width="71.9683" height="63.6064" filterUnits="userSpaceOnUse" color-interpolation-filters="sRGB">
<feFlood flood-opacity="0" result="BackgroundImageFix"/>
<feColorMatrix in="SourceAlpha" type="matrix" values="0 0 0 0 0 0 0 0 0 0 0 0 0 0 0 0 0 0 127 0" result="hardAlpha"/>
<feOffset/>
<feGaussianBlur stdDeviation="4"/>
<feComposite in2="hardAlpha" operator="out"/>
<feColorMatrix type="matrix" values="0 0 0 0 1 0 0 0 0 0 0 0 0 0 0.74902 0 0 0 1 0"/>
<feBlend mode="normal" in2="BackgroundImageFix" result="effect1_dropShadow_24_3912"/>
<feBlend mode="normal" in="SourceGraphic" in2="effect1_dropShadow_24_3912" result="shape"/>
</filter>
</defs>
</svg>
