<svg width="96" height="119" viewBox="0 0 96 119" fill="none" xmlns="http://www.w3.org/2000/svg">
<path d="M30.6877 15.7423C29.7277 13.1023 32.1678 10.7923 34.3178 9.67229C38.1078 7.12229 42.3678 11.5123 42.0678 15.4223C42.0478 16.2623 40.8278 16.3523 40.6978 15.5123C40.5978 13.3723 39.5977 11.2123 37.4277 10.5223C36.2877 10.0823 35.1978 10.9523 34.2378 11.4623C33.1178 12.3223 31.5978 13.5123 31.8878 15.1023C32.2978 16.0623 31.1077 16.7323 30.6877 15.7423Z" fill="#9A00FF"/>
<path d="M59.8278 53.5421C58.7578 51.0721 58.3278 48.3921 57.4778 45.8521C55.6878 40.6821 53.8678 35.4821 51.3178 30.6321C50.0378 27.5021 48.8178 24.2421 47.2378 21.2521C46.4478 19.9721 46.0678 17.9321 44.5978 17.3221C41.7378 16.6421 38.7378 17.3021 35.8978 16.9221C34.8178 16.8821 33.7478 16.7621 32.6678 16.7721C31.4878 16.9121 30.3578 17.3321 29.1878 17.5221C25.7478 18.4621 24.0278 21.9521 22.7078 24.9721C21.6878 26.8421 20.8878 28.8121 19.8978 30.6921C19.2078 32.0021 18.2878 33.1721 17.6178 34.5021C16.1078 37.7821 14.3178 40.9221 12.7078 44.1521C11.1878 46.9921 9.9378 49.9421 8.2678 52.7021C8.2378 53.1621 7.6178 53.4321 7.2578 53.1321C6.5878 52.5221 7.4078 51.6321 7.6478 51.0021C8.4778 49.4721 9.1878 47.8921 9.9278 46.3121C11.4978 43.3021 12.9378 40.2221 14.6378 37.2721C15.5878 35.2721 16.4378 33.2021 17.7678 31.4221C19.2078 29.1021 20.2678 26.5121 21.5378 24.1521C22.8378 21.2221 24.5178 18.1421 27.5378 16.7021C29.0978 16.0021 30.8578 15.6321 32.5478 15.3621C34.0478 15.3221 35.6278 15.4721 37.1178 15.5621C40.1178 15.8821 44.9978 14.5321 46.9178 17.4821C49.1078 21.2221 50.8678 25.1921 52.4178 29.2321C53.1178 30.8721 54.0778 32.2821 54.6878 33.9521C56.3278 37.9421 57.8578 41.9821 59.1578 46.0821C59.7778 48.0821 60.1178 50.1421 60.7878 52.1321C61.0078 52.7021 61.4778 53.5621 60.7178 53.9221C60.3978 54.0621 59.9778 53.9021 59.8278 53.5421Z" fill="#9A00FF"/>
<path d="M60.3078 54.7321C54.3778 52.6621 48.8178 49.6921 42.6078 48.5321C37.5678 47.6021 32.5078 48.2221 27.4878 48.9121C23.5278 49.1621 19.6478 49.7321 15.7378 50.3621C13.8278 50.7621 12.0078 51.5621 10.2678 52.4021C9.62782 52.7321 8.97782 53.0321 8.33782 53.3521C8.19782 53.4221 8.02782 53.4121 7.87782 53.3821C7.25782 53.2221 7.29782 52.3421 7.85782 52.1121C9.55782 51.1121 11.3178 50.1921 13.1878 49.5421C15.2478 48.7321 17.4678 48.6521 19.6278 48.2721C23.1978 47.6021 26.8278 47.6121 30.3978 47.0421C33.2678 46.6621 36.1578 46.5321 39.0578 46.5921C43.3478 46.7821 47.5078 48.1421 51.4978 49.6421C54.5878 50.9821 57.6578 52.3921 60.8378 53.5121C61.6078 53.8521 61.1378 55.0521 60.3078 54.7321Z" fill="#9A00FF"/>
<path d="M35.0681 65.5221C30.2481 65.6621 25.5381 64.6121 21.0081 63.0521C16.5281 61.4921 12.4281 58.9521 9.15814 55.5021C8.60814 54.8221 6.57814 53.1321 7.33814 52.3421C8.06814 51.6921 8.60813 52.8621 9.02813 53.2621C10.0481 54.3721 11.1481 55.3921 12.2681 56.3921C17.4281 60.8021 24.6981 63.0321 31.3581 63.7321C34.2081 63.8621 37.0881 64.0321 39.9281 63.6821C44.0281 62.9721 48.0081 61.8521 51.8081 60.1821C53.2581 59.6321 54.6281 58.9621 55.8881 58.0621C56.7581 57.5321 57.7681 57.0821 58.5381 56.4121C59.0281 55.8721 59.9181 55.1721 60.1681 54.5521C60.1181 54.2621 60.2981 53.9521 60.5681 53.8421C61.1781 53.5921 61.6481 54.2521 61.5181 54.8221C61.4781 55.4721 60.9181 55.9321 60.5281 56.3621C59.6481 57.5121 58.4681 58.3521 57.2081 59.0521C54.6581 60.7521 51.8581 62.0621 48.9581 63.0321C44.4881 64.6021 39.8281 65.7721 35.0681 65.5221Z" fill="#9A00FF"/>
<path d="M94.4578 20.3124C93.5778 20.2224 92.6878 20.2224 91.8278 20.0524H91.8378C91.8578 20.0524 91.8678 20.0624 91.8878 20.0624C87.4578 19.2024 83.1578 17.7824 78.7078 17.0024C72.2878 15.1124 65.7578 13.4824 59.4578 11.2524C52.7978 9.29238 45.9478 8.1924 39.2078 6.6124C38.8778 7.7524 39.3278 9.14239 38.5578 10.1324C37.9378 10.6424 37.0878 9.8124 37.5278 9.1824C37.7478 8.2224 37.5878 7.19239 37.8878 6.23239C37.8878 5.75239 38.0878 5.25238 38.6278 5.19238C40.2678 5.27238 41.9278 5.64241 43.5178 6.06241C48.1478 7.03241 52.8078 7.87241 57.3878 9.06241C59.9978 9.72241 62.5278 10.6524 65.0878 11.4724C67.9578 12.3424 70.8678 13.0924 73.7478 13.9224C75.8478 14.5024 77.7278 15.2024 79.8278 15.6924C83.8278 16.4924 87.7778 17.4924 91.6978 18.6524C92.6178 19.2124 95.0978 18.3524 95.1178 19.7124C95.0578 20.0324 94.7778 20.3224 94.4578 20.3124Z" fill="#9A00FF"/>
<path d="M93.8681 16.6922C89.0181 15.6822 84.2981 14.1523 79.5181 12.9323C74.9881 11.8423 70.4281 10.8722 65.9181 9.72224C61.1581 8.58224 56.4081 7.39226 51.5981 6.46227C46.6781 5.12226 41.7981 3.59227 36.8381 2.40227C36.7281 3.42227 36.4481 4.42226 36.3781 5.45226C36.2981 7.11226 36.4181 9.13226 35.2181 10.4223C34.6581 10.7823 34.0281 10.1423 34.2481 9.55226C34.3981 9.10226 34.5881 8.65226 34.6481 8.17226C34.9481 6.42226 34.7781 4.63226 35.3081 2.92226C35.4781 0.412257 37.2781 0.892247 39.0881 1.41225C41.5981 2.09225 44.1281 2.69225 46.6481 3.29225C49.1981 4.01225 51.7181 4.86226 54.3381 5.33226C61.9381 7.00226 69.4881 8.84227 77.0481 10.6523C81.0181 11.5723 84.9081 12.7523 88.8081 13.8123C90.6881 14.3123 92.5381 14.9423 94.3981 15.4623C94.6981 15.5123 95.0281 15.5423 95.2381 15.7923C95.5481 16.1623 95.3281 16.7723 94.8481 16.8323C94.5181 16.8623 94.1881 16.7522 93.8681 16.6922Z" fill="#9A00FF"/>
<path d="M94.1581 20.0828C93.6181 19.6528 93.4181 18.9228 93.5481 18.2628C93.6681 17.5628 93.7281 16.7428 94.1281 16.1528C94.7481 15.4228 95.5681 16.2228 95.1281 16.9928C94.9781 17.6928 94.5281 18.5428 94.9781 19.1928C95.4581 19.7128 94.7081 20.5328 94.1581 20.0828Z" fill="#9A00FF"/>
<g filter="url(#filter0_d_61_1666)">
<path d="M30.0979 59.5518C26.5379 58.6018 26.0479 57.0118 24.5379 53.9718C24.1179 52.9918 22.6779 49.3318 24.3279 49.0818C24.6779 49.0718 25.0379 49.3318 25.0779 49.7018C25.0679 51.3018 25.7279 52.8118 26.4479 54.2218C27.0379 55.2818 27.3279 56.3818 28.2979 57.1018C30.6079 58.1818 33.3479 59.2118 35.8779 58.3518C37.7579 57.5218 39.6979 56.4718 40.8779 54.7418C41.8079 53.0218 42.6379 51.1418 42.7679 49.1718C42.8179 48.8218 42.5079 48.5318 42.7179 48.1918C42.8679 47.9118 43.1979 47.7918 43.4979 47.9018C44.9479 48.6418 43.8879 51.7418 43.4479 52.9218C42.5379 56.3118 39.6679 58.6418 36.4779 59.8418C34.4279 60.6218 32.1479 60.2218 30.0979 59.5518Z" fill="#D6FF00"/>
<path d="M57.4779 104.462C56.1179 98.6819 55.4979 92.7219 54.6179 86.8419C53.9579 82.0919 52.6179 77.4519 52.1579 72.6819C51.9079 72.2219 52.4079 71.6419 52.8979 71.8519C53.3479 72.0219 53.4379 72.5719 53.5079 72.9819C53.9979 76.8619 55.1179 80.6219 55.7179 84.4919C56.5379 89.4919 57.2179 94.5219 57.9379 99.5419C58.0779 100.672 58.2079 101.812 58.5679 102.892C58.6779 103.572 59.2479 104.772 58.2679 105.022C57.9079 105.082 57.5279 104.832 57.4779 104.462Z" fill="#D6FF00"/>
<path d="M35.558 107.632C35.478 105.372 35.788 102.942 35.838 100.722C35.848 98.1419 35.578 95.5719 35.748 93.0019C35.798 89.7519 35.538 86.4319 35.718 83.1919C35.808 80.4219 35.528 77.592 35.928 74.842C36.288 74.022 37.318 74.5119 37.088 75.3519C37.038 78.6719 37.288 81.992 37.108 85.302C37.028 88.232 37.298 91.2019 37.198 94.1319C37.208 98.6419 37.398 103.172 36.858 107.672C36.788 108.452 35.608 108.432 35.558 107.632Z" fill="#D6FF00"/>
<path d="M11.448 99.8119C10.328 99.4819 11.408 97.6619 11.478 96.8719C11.848 95.4919 12.208 94.1018 12.498 92.6918C14.128 85.4418 16.328 78.3419 17.808 71.0619C17.908 70.8019 18.018 70.5918 18.278 70.4518C18.728 70.2218 19.278 70.6918 19.148 71.1618C18.248 77.0018 16.568 82.6618 15.028 88.3518C14.278 91.1418 13.798 93.9918 12.958 96.7618C12.718 97.6318 12.488 98.5118 12.228 99.3818C12.128 99.7118 11.758 99.8819 11.448 99.8119Z" fill="#D6FF00"/>
</g>
<defs>
<filter id="filter0_d_61_1666" x="0.942383" y="37.8613" width="67.8901" height="80.3838" filterUnits="userSpaceOnUse" color-interpolation-filters="sRGB">
<feFlood flood-opacity="0" result="BackgroundImageFix"/>
<feColorMatrix in="SourceAlpha" type="matrix" values="0 0 0 0 0 0 0 0 0 0 0 0 0 0 0 0 0 0 127 0" result="hardAlpha"/>
<feOffset/>
<feGaussianBlur stdDeviation="5"/>
<feComposite in2="hardAlpha" operator="out"/>
<feColorMatrix type="matrix" values="0 0 0 0 0.839216 0 0 0 0 1 0 0 0 0 0 0 0 0 1 0"/>
<feBlend mode="normal" in2="BackgroundImageFix" result="effect1_dropShadow_61_1666"/>
<feBlend mode="normal" in="SourceGraphic" in2="effect1_dropShadow_61_1666" result="shape"/>
</filter>
</defs>
</svg>
