<svg width="94" height="116" viewBox="0 0 94 116" fill="none" xmlns="http://www.w3.org/2000/svg">
<path d="M28.6877 15.4933C27.7277 12.8533 30.1678 10.5433 32.3178 9.42327C36.1078 6.87327 40.3678 11.2633 40.0678 15.1733C40.0478 16.0133 38.8278 16.1033 38.6978 15.2633C38.5978 13.1233 37.5977 10.9633 35.4277 10.2733C34.2877 9.83327 33.1978 10.7033 32.2378 11.2133C31.1178 12.0733 29.5978 13.2633 29.8878 14.8533C30.2978 15.8133 29.1077 16.4833 28.6877 15.4933Z" fill="#9A00FF"/>
<path d="M57.8278 53.2931C56.7578 50.8231 56.3278 48.1431 55.4778 45.6031C53.6878 40.4331 51.8678 35.2331 49.3178 30.3831C48.0378 27.2531 46.8178 23.9931 45.2378 21.0031C44.4478 19.7231 44.0678 17.6831 42.5978 17.0731C39.7378 16.3931 36.7378 17.0531 33.8978 16.6731C32.8178 16.6331 31.7478 16.5131 30.6678 16.5231C29.4878 16.6631 28.3578 17.0831 27.1878 17.2731C23.7478 18.2131 22.0278 21.7031 20.7078 24.7231C19.6878 26.5931 18.8878 28.5631 17.8978 30.4431C17.2078 31.7531 16.2878 32.9231 15.6178 34.2531C14.1078 37.5331 12.3178 40.6731 10.7078 43.9031C9.1878 46.7431 7.9378 49.6931 6.2678 52.4531C6.2378 52.9131 5.6178 53.1831 5.2578 52.8831C4.5878 52.2731 5.4078 51.3831 5.6478 50.7531C6.4778 49.2231 7.1878 47.6431 7.9278 46.0631C9.4978 43.0531 10.9378 39.9731 12.6378 37.0231C13.5878 35.0231 14.4378 32.9531 15.7678 31.1731C17.2078 28.8531 18.2678 26.2631 19.5378 23.9031C20.8378 20.9731 22.5178 17.8931 25.5378 16.4531C27.0978 15.7531 28.8578 15.3831 30.5478 15.1131C32.0478 15.0731 33.6278 15.2231 35.1178 15.3131C38.1178 15.6331 42.9978 14.2831 44.9178 17.2331C47.1078 20.9731 48.8678 24.9431 50.4178 28.9831C51.1178 30.6231 52.0778 32.0331 52.6878 33.7031C54.3278 37.6931 55.8578 41.7331 57.1578 45.8331C57.7778 47.8331 58.1178 49.8931 58.7878 51.8831C59.0078 52.4531 59.4778 53.3131 58.7178 53.6731C58.3978 53.8131 57.9778 53.6531 57.8278 53.2931Z" fill="#9A00FF"/>
<path d="M58.3078 54.4831C52.3778 52.4131 46.8178 49.4431 40.6078 48.2831C35.5678 47.3531 30.5078 47.9731 25.4878 48.6631C21.5278 48.9131 17.6478 49.4831 13.7378 50.1131C11.8278 50.5131 10.0078 51.3131 8.26782 52.1531C7.62782 52.4831 6.97782 52.7831 6.33782 53.1031C6.19782 53.1731 6.02782 53.1631 5.87782 53.1331C5.25782 52.9731 5.29782 52.0931 5.85782 51.8631C7.55782 50.8631 9.31782 49.9431 11.1878 49.2931C13.2478 48.4831 15.4678 48.4031 17.6278 48.0231C21.1978 47.3531 24.8278 47.3631 28.3978 46.7931C31.2678 46.4131 34.1578 46.2831 37.0578 46.3431C41.3478 46.5331 45.5078 47.8931 49.4978 49.3931C52.5878 50.7331 55.6578 52.1431 58.8378 53.2631C59.6078 53.6031 59.1378 54.8031 58.3078 54.4831Z" fill="#9A00FF"/>
<path d="M33.0681 65.2731C28.2481 65.4131 23.5381 64.3631 19.0081 62.8031C14.5281 61.2431 10.4281 58.7031 7.15814 55.2531C6.60814 54.5731 4.57814 52.8831 5.33814 52.0931C6.06814 51.4431 6.60813 52.6131 7.02813 53.0131C8.04813 54.1231 9.14814 55.1431 10.2681 56.1431C15.4281 60.5531 22.6981 62.7831 29.3581 63.4831C32.2081 63.6131 35.0881 63.7831 37.9281 63.4331C42.0281 62.7231 46.0081 61.6031 49.8081 59.9331C51.2581 59.3831 52.6281 58.7131 53.8881 57.8131C54.7581 57.2831 55.7681 56.8331 56.5381 56.1631C57.0281 55.6231 57.9181 54.9231 58.1681 54.3031C58.1181 54.0131 58.2981 53.7031 58.5681 53.5931C59.1781 53.3431 59.6481 54.0031 59.5181 54.5731C59.4781 55.2231 58.9181 55.6831 58.5281 56.1131C57.6481 57.2631 56.4681 58.1031 55.2081 58.8031C52.6581 60.5031 49.8581 61.8131 46.9581 62.7831C42.4881 64.3531 37.8281 65.5231 33.0681 65.2731Z" fill="#9A00FF"/>
<path d="M92.4578 20.0634C91.5778 19.9734 90.6878 19.9734 89.8278 19.8034H89.8378C89.8578 19.8034 89.8678 19.8134 89.8878 19.8134C85.4578 18.9534 81.1578 17.5334 76.7078 16.7534C70.2878 14.8634 63.7578 13.2334 57.4578 11.0034C50.7978 9.04336 43.9478 7.94337 37.2078 6.36337C36.8778 7.50337 37.3278 8.89336 36.5578 9.88336C35.9378 10.3934 35.0878 9.56338 35.5278 8.93338C35.7478 7.97338 35.5878 6.94337 35.8878 5.98337C35.8878 5.50337 36.0878 5.00336 36.6278 4.94336C38.2678 5.02336 39.9278 5.39339 41.5178 5.81339C46.1478 6.78339 50.8078 7.62338 55.3878 8.81339C57.9978 9.47338 60.5278 10.4034 63.0878 11.2234C65.9578 12.0934 68.8678 12.8434 71.7478 13.6734C73.8478 14.2534 75.7278 14.9534 77.8278 15.4434C81.8278 16.2434 85.7778 17.2434 89.6978 18.4034C90.6178 18.9634 93.0978 18.1034 93.1178 19.4634C93.0578 19.7834 92.7778 20.0734 92.4578 20.0634Z" fill="#9A00FF"/>
<path d="M91.8681 16.4432C87.0181 15.4332 82.2981 13.9032 77.5181 12.6832C72.9881 11.5932 68.4281 10.6232 63.9181 9.47322C59.1581 8.33322 54.4081 7.14324 49.5981 6.21324C44.6781 4.87324 39.7981 3.34324 34.8381 2.15324C34.7281 3.17324 34.4481 4.17323 34.3781 5.20323C34.2981 6.86323 34.4181 8.88323 33.2181 10.1732C32.6581 10.5332 32.0281 9.89324 32.2481 9.30324C32.3981 8.85324 32.5881 8.40323 32.6481 7.92323C32.9481 6.17323 32.7781 4.38323 33.3081 2.67323C33.4781 0.163233 35.2781 0.643223 37.0881 1.16322C39.5981 1.84322 42.1281 2.44323 44.6481 3.04323C47.1981 3.76323 49.7181 4.61324 52.3381 5.08324C59.9381 6.75324 67.4881 8.59324 75.0481 10.4032C79.0181 11.3232 82.9081 12.5032 86.8081 13.5632C88.6881 14.0632 90.5381 14.6932 92.3981 15.2132C92.6981 15.2632 93.0281 15.2932 93.2381 15.5432C93.5481 15.9132 93.3281 16.5232 92.8481 16.5832C92.5181 16.6132 92.1881 16.5032 91.8681 16.4432Z" fill="#9A00FF"/>
<path d="M92.1581 19.8328C91.6181 19.4028 91.4181 18.6728 91.5481 18.0128C91.6681 17.3128 91.7281 16.4928 92.1281 15.9028C92.7481 15.1728 93.5681 15.9728 93.1281 16.7428C92.9781 17.4428 92.5281 18.2928 92.9781 18.9428C93.4581 19.4628 92.7081 20.2828 92.1581 19.8328Z" fill="#9A00FF"/>
<g filter="url(#filter0_d_61_1652)">
<path d="M28.0979 59.3037C24.5379 58.3537 24.0479 56.7637 22.5379 53.7237C22.1179 52.7437 20.6779 49.0837 22.3279 48.8337C22.6779 48.8237 23.0379 49.0837 23.0779 49.4537C23.0679 51.0537 23.7279 52.5637 24.4479 53.9737C25.0379 55.0337 25.3279 56.1337 26.2979 56.8537C28.6079 57.9337 31.3479 58.9637 33.8779 58.1037C35.7579 57.2737 37.6979 56.2238 38.8779 54.4938C39.8079 52.7738 40.6379 50.8937 40.7679 48.9237C40.8179 48.5737 40.5079 48.2837 40.7179 47.9437C40.8679 47.6637 41.1979 47.5438 41.4979 47.6538C42.9479 48.3938 41.8879 51.4937 41.4479 52.6737C40.5379 56.0637 37.6679 58.3938 34.4779 59.5938C32.4279 60.3738 30.1479 59.9737 28.0979 59.3037Z" fill="#D6FF00"/>
<path d="M33.558 107.384C33.478 105.124 33.788 102.694 33.838 100.474C33.848 97.8939 33.578 95.3239 33.748 92.7539C33.798 89.5039 33.538 86.1839 33.718 82.9439C33.808 80.1739 33.528 77.3439 33.928 74.5939C34.288 73.7739 35.318 74.2639 35.088 75.1039C35.038 78.4239 35.288 81.7439 35.108 85.0539C35.028 87.9839 35.298 90.9539 35.198 93.8839C35.208 98.3939 35.398 102.924 34.858 107.424C34.788 108.204 33.608 108.184 33.558 107.384Z" fill="#D6FF00"/>
<path d="M9.44801 99.5638C8.32801 99.2338 9.408 97.4138 9.478 96.6238C9.848 95.2438 10.208 93.8538 10.498 92.4438C12.128 85.1938 14.328 78.0938 15.808 70.8138C15.908 70.5538 16.018 70.3438 16.278 70.2038C16.728 69.9738 17.278 70.4438 17.148 70.9138C16.248 76.7538 14.568 82.4138 13.028 88.1038C12.278 90.8938 11.798 93.7438 10.958 96.5138C10.718 97.3838 10.488 98.2638 10.228 99.1338C10.128 99.4638 9.75801 99.6338 9.44801 99.5638Z" fill="#D6FF00"/>
</g>
<defs>
<filter id="filter0_d_61_1652" x="0.942383" y="39.6133" width="49.293" height="76.3838" filterUnits="userSpaceOnUse" color-interpolation-filters="sRGB">
<feFlood flood-opacity="0" result="BackgroundImageFix"/>
<feColorMatrix in="SourceAlpha" type="matrix" values="0 0 0 0 0 0 0 0 0 0 0 0 0 0 0 0 0 0 127 0" result="hardAlpha"/>
<feOffset/>
<feGaussianBlur stdDeviation="4"/>
<feComposite in2="hardAlpha" operator="out"/>
<feColorMatrix type="matrix" values="0 0 0 0 0.839216 0 0 0 0 1 0 0 0 0 0 0 0 0 1 0"/>
<feBlend mode="normal" in2="BackgroundImageFix" result="effect1_dropShadow_61_1652"/>
<feBlend mode="normal" in="SourceGraphic" in2="effect1_dropShadow_61_1652" result="shape"/>
</filter>
</defs>
</svg>
