<svg width="92" height="108" viewBox="0 0 92 108" fill="none" xmlns="http://www.w3.org/2000/svg">
<path d="M26.6877 15.2443C25.7277 12.6043 28.1678 10.2942 30.3178 9.17424C34.1078 6.62424 38.3678 11.0142 38.0678 14.9242C38.0478 15.7642 36.8278 15.8542 36.6978 15.0142C36.5978 12.8742 35.5977 10.7142 33.4277 10.0242C32.2877 9.58425 31.1978 10.4543 30.2378 10.9643C29.1178 11.8243 27.5978 13.0142 27.8878 14.6042C28.2978 15.5642 27.1077 16.2343 26.6877 15.2443Z" fill="#9A00FF"/>
<path d="M55.8278 53.0441C54.7578 50.5741 54.3278 47.8941 53.4778 45.3541C51.6878 40.1841 49.8678 34.9841 47.3178 30.1341C46.0378 27.0041 44.8178 23.744 43.2378 20.754C42.4478 19.474 42.0678 17.4341 40.5978 16.8241C37.7378 16.1441 34.7378 16.8041 31.8978 16.4241C30.8178 16.3841 29.7478 16.2641 28.6678 16.2741C27.4878 16.4141 26.3578 16.8341 25.1878 17.0241C21.7478 17.9641 20.0278 21.454 18.7078 24.474C17.6878 26.344 16.8878 28.3141 15.8978 30.1941C15.2078 31.5041 14.2878 32.674 13.6178 34.004C12.1078 37.284 10.3178 40.4241 8.7078 43.6541C7.1878 46.4941 5.9378 49.4441 4.2678 52.2041C4.2378 52.6641 3.6178 52.9341 3.2578 52.6341C2.5878 52.0241 3.4078 51.134 3.6478 50.504C4.4778 48.974 5.1878 47.3941 5.9278 45.8141C7.4978 42.8041 8.9378 39.7241 10.6378 36.7741C11.5878 34.7741 12.4378 32.7041 13.7678 30.9241C15.2078 28.6041 16.2678 26.0141 17.5378 23.6541C18.8378 20.7241 20.5178 17.6441 23.5378 16.2041C25.0978 15.5041 26.8578 15.1341 28.5478 14.8641C30.0478 14.8241 31.6278 14.9741 33.1178 15.0641C36.1178 15.3841 40.9978 14.0341 42.9178 16.9841C45.1078 20.7241 46.8678 24.6941 48.4178 28.7341C49.1178 30.3741 50.0778 31.7841 50.6878 33.4541C52.3278 37.4441 53.8578 41.4841 55.1578 45.5841C55.7778 47.5841 56.1178 49.6441 56.7878 51.6341C57.0078 52.2041 57.4778 53.0641 56.7178 53.4241C56.3978 53.5641 55.9778 53.4041 55.8278 53.0441Z" fill="#9A00FF"/>
<path d="M56.3078 54.234C50.3778 52.164 44.8178 49.194 38.6078 48.034C33.5678 47.104 28.5078 47.724 23.4878 48.414C19.5278 48.664 15.6478 49.2341 11.7378 49.8641C9.82783 50.2641 8.00782 51.0641 6.26782 51.9041C5.62782 52.2341 4.97782 52.534 4.33782 52.854C4.19782 52.924 4.02782 52.914 3.87782 52.884C3.25782 52.724 3.29782 51.8441 3.85782 51.6141C5.55782 50.6141 7.31782 49.694 9.18782 49.044C11.2478 48.234 13.4678 48.1541 15.6278 47.7741C19.1978 47.1041 22.8278 47.114 26.3978 46.544C29.2678 46.164 32.1578 46.0341 35.0578 46.0941C39.3478 46.2841 43.5078 47.644 47.4978 49.144C50.5878 50.484 53.6578 51.894 56.8378 53.014C57.6078 53.354 57.1378 54.554 56.3078 54.234Z" fill="#9A00FF"/>
<path d="M31.0681 65.0241C26.2481 65.1641 21.5381 64.1141 17.0081 62.5541C12.5281 60.9941 8.42813 58.454 5.15814 55.004C4.60814 54.324 2.57814 52.6341 3.33814 51.8441C4.06814 51.1941 4.60813 52.3641 5.02813 52.7641C6.04813 53.8741 7.14814 54.8941 8.26814 55.8941C13.4281 60.3041 20.6981 62.5341 27.3581 63.2341C30.2081 63.3641 33.0881 63.5341 35.9281 63.1841C40.0281 62.4741 44.0081 61.3541 47.8081 59.6841C49.2581 59.1341 50.6281 58.4641 51.8881 57.5641C52.7581 57.0341 53.7681 56.584 54.5381 55.914C55.0281 55.374 55.9181 54.6741 56.1681 54.0541C56.1181 53.7641 56.2981 53.4541 56.5681 53.3441C57.1781 53.0941 57.6481 53.754 57.5181 54.324C57.4781 54.974 56.9181 55.4341 56.5281 55.8641C55.6481 57.0141 54.4681 57.8541 53.2081 58.5541C50.6581 60.2541 47.8581 61.564 44.9581 62.534C40.4881 64.104 35.8281 65.2741 31.0681 65.0241Z" fill="#9A00FF"/>
<path d="M90.4578 19.8144C89.5778 19.7244 88.6878 19.7244 87.8278 19.5544H87.8378C87.8578 19.5544 87.8678 19.5644 87.8878 19.5644C83.4578 18.7044 79.1578 17.2843 74.7078 16.5043C68.2878 14.6143 61.7578 12.9843 55.4578 10.7543C48.7978 8.79433 41.9478 7.69435 35.2078 6.11435C34.8778 7.25435 35.3278 8.64434 34.5578 9.63434C33.9378 10.1443 33.0878 9.31436 33.5278 8.68436C33.7478 7.72436 33.5878 6.69434 33.8878 5.73434C33.8878 5.25434 34.0878 4.75434 34.6278 4.69434C36.2678 4.77434 37.9278 5.14436 39.5178 5.56436C44.1478 6.53436 48.8078 7.37436 53.3878 8.56436C55.9978 9.22436 58.5278 10.1543 61.0878 10.9743C63.9578 11.8443 66.8678 12.5943 69.7478 13.4243C71.8478 14.0043 73.7278 14.7043 75.8278 15.1943C79.8278 15.9943 83.7778 16.9944 87.6978 18.1544C88.6178 18.7144 91.0978 17.8544 91.1178 19.2144C91.0578 19.5344 90.7778 19.8244 90.4578 19.8144Z" fill="#9A00FF"/>
<path d="M89.8681 16.1942C85.0181 15.1842 80.2981 13.6542 75.5181 12.4342C70.9881 11.3442 66.4281 10.3742 61.9181 9.2242C57.1581 8.0842 52.4081 6.89422 47.5981 5.96422C42.6781 4.62422 37.7981 3.09422 32.8381 1.90422C32.7281 2.92422 32.4481 3.92421 32.3781 4.95421C32.2981 6.61421 32.4181 8.63421 31.2181 9.92421C30.6581 10.2842 30.0281 9.64421 30.2481 9.05421C30.3981 8.60421 30.5881 8.15421 30.6481 7.67421C30.9481 5.92421 30.7781 4.13421 31.3081 2.42421C31.4781 -0.0857903 33.2781 0.3942 35.0881 0.9142C37.5981 1.5942 40.1281 2.1942 42.6481 2.7942C45.1981 3.5142 47.7181 4.36421 50.3381 4.83421C57.9381 6.50421 65.4881 8.34422 73.0481 10.1542C77.0181 11.0742 80.9081 12.2542 84.8081 13.3142C86.6881 13.8142 88.5381 14.4442 90.3981 14.9642C90.6981 15.0142 91.0281 15.0442 91.2381 15.2942C91.5481 15.6642 91.3281 16.2742 90.8481 16.3342C90.5181 16.3642 90.1881 16.2542 89.8681 16.1942Z" fill="#9A00FF"/>
<path d="M90.1581 19.5848C89.6181 19.1548 89.4181 18.4248 89.5481 17.7648C89.6681 17.0648 89.7281 16.2448 90.1281 15.6548C90.7481 14.9248 91.5681 15.7248 91.1281 16.4948C90.9781 17.1948 90.5281 18.0448 90.9781 18.6948C91.4581 19.2148 90.7081 20.0348 90.1581 19.5848Z" fill="#9A00FF"/>
<g filter="url(#filter0_d_61_1638)">
<g filter="url(#filter1_d_61_1638)">
<path d="M26.0979 59.0537C22.5379 58.1037 22.0479 56.5137 20.5379 53.4737C20.1179 52.4937 18.6779 48.8337 20.3279 48.5837C20.6779 48.5737 21.0379 48.8337 21.0779 49.2037C21.0679 50.8037 21.7279 52.3137 22.4479 53.7237C23.0379 54.7837 23.3279 55.8837 24.2979 56.6037C26.6079 57.6837 29.3479 58.7137 31.8779 57.8537C33.7579 57.0237 35.6979 55.9738 36.8779 54.2438C37.8079 52.5238 38.6379 50.6437 38.7679 48.6737C38.8179 48.3237 38.5079 48.0337 38.7179 47.6937C38.8679 47.4137 39.1979 47.2938 39.4979 47.4038C40.9479 48.1438 39.8879 51.2437 39.4479 52.4237C38.5379 55.8137 35.6679 58.1438 32.4779 59.3438C30.4279 60.1238 28.1479 59.7237 26.0979 59.0537Z" fill="#D6FF00"/>
</g>
<path d="M7.44801 99.3138C6.32801 98.9838 7.408 97.1638 7.478 96.3738C7.848 94.9938 8.208 93.6038 8.498 92.1938C10.128 84.9438 12.328 77.8438 13.808 70.5638C13.908 70.3038 14.018 70.0938 14.278 69.9538C14.728 69.7238 15.278 70.1938 15.148 70.6638C14.248 76.5038 12.568 82.1638 11.028 87.8538C10.278 90.6438 9.798 93.4938 8.958 96.2638C8.718 97.1338 8.488 98.0138 8.228 98.8838C8.128 99.2138 7.75801 99.3838 7.44801 99.3138Z" fill="#D6FF00"/>
</g>
<defs>
<filter id="filter0_d_61_1638" x="0.942383" y="41.3633" width="45.293" height="63.9658" filterUnits="userSpaceOnUse" color-interpolation-filters="sRGB">
<feFlood flood-opacity="0" result="BackgroundImageFix"/>
<feColorMatrix in="SourceAlpha" type="matrix" values="0 0 0 0 0 0 0 0 0 0 0 0 0 0 0 0 0 0 127 0" result="hardAlpha"/>
<feOffset/>
<feGaussianBlur stdDeviation="3"/>
<feComposite in2="hardAlpha" operator="out"/>
<feColorMatrix type="matrix" values="0 0 0 0 0.839216 0 0 0 0 1 0 0 0 0 0 0 0 0 0.5 0"/>
<feBlend mode="normal" in2="BackgroundImageFix" result="effect1_dropShadow_61_1638"/>
<feBlend mode="normal" in="SourceGraphic" in2="effect1_dropShadow_61_1638" result="shape"/>
</filter>
<filter id="filter1_d_61_1638" x="14.5547" y="43.3633" width="30.6807" height="22.4082" filterUnits="userSpaceOnUse" color-interpolation-filters="sRGB">
<feFlood flood-opacity="0" result="BackgroundImageFix"/>
<feColorMatrix in="SourceAlpha" type="matrix" values="0 0 0 0 0 0 0 0 0 0 0 0 0 0 0 0 0 0 127 0" result="hardAlpha"/>
<feOffset dy="1"/>
<feGaussianBlur stdDeviation="2.5"/>
<feComposite in2="hardAlpha" operator="out"/>
<feColorMatrix type="matrix" values="0 0 0 0 0.839216 0 0 0 0 1 0 0 0 0 0 0 0 0 1 0"/>
<feBlend mode="normal" in2="BackgroundImageFix" result="effect1_dropShadow_61_1638"/>
<feBlend mode="normal" in="SourceGraphic" in2="effect1_dropShadow_61_1638" result="shape"/>
</filter>
</defs>
</svg>
