<svg width="89" height="108" viewBox="0 0 89 108" fill="none" xmlns="http://www.w3.org/2000/svg">
<path d="M23.6877 14.9952C22.7277 12.3552 25.1678 10.0452 27.3178 8.92522C31.1078 6.37522 35.3678 10.7652 35.0678 14.6752C35.0478 15.5152 33.8278 15.6052 33.6978 14.7652C33.5978 12.6252 32.5977 10.4652 30.4277 9.77523C29.2877 9.33523 28.1978 10.2052 27.2378 10.7152C26.1178 11.5752 24.5978 12.7652 24.8878 14.3552C25.2978 15.3152 24.1077 15.9852 23.6877 14.9952Z" fill="#9A00FF"/>
<path d="M52.8278 52.795C51.7578 50.325 51.3278 47.645 50.4778 45.105C48.6878 39.935 46.8678 34.735 44.3178 29.885C43.0378 26.755 41.8178 23.495 40.2378 20.505C39.4478 19.225 39.0678 17.185 37.5978 16.575C34.7378 15.895 31.7378 16.555 28.8978 16.175C27.8178 16.135 26.7478 16.015 25.6678 16.025C24.4878 16.165 23.3578 16.585 22.1878 16.775C18.7478 17.715 17.0278 21.205 15.7078 24.225C14.6878 26.095 13.8878 28.065 12.8978 29.945C12.2078 31.255 11.2878 32.425 10.6178 33.755C9.1078 37.035 7.3178 40.175 5.7078 43.405C4.1878 46.245 2.9378 49.195 1.2678 51.955C1.2378 52.415 0.617796 52.685 0.257796 52.385C-0.412204 51.775 0.407799 50.885 0.647799 50.255C1.4778 48.725 2.1878 47.1451 2.9278 45.5651C4.4978 42.5551 5.9378 39.475 7.6378 36.525C8.5878 34.525 9.4378 32.455 10.7678 30.675C12.2078 28.355 13.2678 25.765 14.5378 23.405C15.8378 20.475 17.5178 17.395 20.5378 15.955C22.0978 15.255 23.8578 14.885 25.5478 14.615C27.0478 14.575 28.6278 14.7251 30.1178 14.8151C33.1178 15.1351 37.9978 13.785 39.9178 16.735C42.1078 20.475 43.8678 24.445 45.4178 28.485C46.1178 30.125 47.0778 31.535 47.6878 33.205C49.3278 37.195 50.8578 41.235 52.1578 45.335C52.7778 47.335 53.1178 49.395 53.7878 51.385C54.0078 51.955 54.4778 52.815 53.7178 53.175C53.3978 53.315 52.9778 53.155 52.8278 52.795Z" fill="#9A00FF"/>
<path d="M53.3078 53.985C47.3778 51.915 41.8178 48.945 35.6078 47.785C30.5678 46.855 25.5078 47.475 20.4878 48.165C16.5278 48.415 12.6478 48.985 8.73783 49.615C6.82783 50.015 5.00782 50.815 3.26782 51.655C2.62782 51.985 1.97782 52.285 1.33782 52.605C1.19782 52.675 1.02782 52.665 0.877825 52.635C0.257825 52.475 0.297825 51.595 0.857825 51.365C2.55782 50.365 4.31782 49.445 6.18782 48.795C8.24782 47.985 10.4678 47.905 12.6278 47.525C16.1978 46.855 19.8278 46.865 23.3978 46.295C26.2678 45.915 29.1578 45.785 32.0578 45.845C36.3478 46.035 40.5078 47.395 44.4978 48.895C47.5878 50.235 50.6578 51.645 53.8378 52.765C54.6078 53.105 54.1378 54.305 53.3078 53.985Z" fill="#9A00FF"/>
<path d="M28.0681 64.775C23.2481 64.915 18.5381 63.865 14.0081 62.305C9.52813 60.745 5.42813 58.205 2.15814 54.755C1.60814 54.075 -0.421865 52.385 0.338135 51.595C1.06814 50.945 1.60813 52.115 2.02813 52.515C3.04813 53.625 4.14814 54.645 5.26814 55.645C10.4281 60.055 17.6981 62.285 24.3581 62.985C27.2081 63.115 30.0881 63.285 32.9281 62.935C37.0281 62.225 41.0081 61.105 44.8081 59.435C46.2581 58.885 47.6281 58.215 48.8881 57.315C49.7581 56.785 50.7681 56.335 51.5381 55.665C52.0281 55.125 52.9181 54.425 53.1681 53.805C53.1181 53.515 53.2981 53.205 53.5681 53.095C54.1781 52.845 54.6481 53.505 54.5181 54.075C54.4781 54.725 53.9181 55.185 53.5281 55.615C52.6481 56.765 51.4681 57.605 50.2081 58.305C47.6581 60.005 44.8581 61.315 41.9581 62.285C37.4881 63.855 32.8281 65.025 28.0681 64.775Z" fill="#9A00FF"/>
<path d="M87.4578 19.5653C86.5778 19.4753 85.6878 19.4753 84.8278 19.3053H84.8378C84.8578 19.3053 84.8678 19.3153 84.8878 19.3153C80.4578 18.4553 76.1578 17.0353 71.7078 16.2553C65.2878 14.3653 58.7578 12.7353 52.4578 10.5053C45.7978 8.54531 38.9478 7.44533 32.2078 5.86533C31.8778 7.00533 32.3278 8.39531 31.5578 9.38531C30.9378 9.89532 30.0878 9.06533 30.5278 8.43533C30.7478 7.47533 30.5878 6.44532 30.8878 5.48532C30.8878 5.00532 31.0878 4.50531 31.6278 4.44531C33.2678 4.52531 34.9278 4.89534 36.5178 5.31534C41.1478 6.28534 45.8078 7.12534 50.3878 8.31534C52.9978 8.97534 55.5278 9.90531 58.0878 10.7253C60.9578 11.5953 63.8678 12.3453 66.7478 13.1753C68.8478 13.7553 70.7278 14.4553 72.8278 14.9453C76.8278 15.7453 80.7778 16.7453 84.6978 17.9053C85.6178 18.4653 88.0978 17.6053 88.1178 18.9653C88.0578 19.2853 87.7778 19.5753 87.4578 19.5653Z" fill="#9A00FF"/>
<path d="M86.8681 15.9452C82.0181 14.9352 77.2981 13.4052 72.5181 12.1852C67.9881 11.0952 63.4281 10.1252 58.9181 8.97517C54.1581 7.83517 49.4081 6.64519 44.5981 5.71519C39.6781 4.37519 34.7981 2.8452 29.8381 1.6552C29.7281 2.6752 29.4481 3.67518 29.3781 4.70518C29.2981 6.36518 29.4181 8.38519 28.2181 9.67519C27.6581 10.0352 27.0281 9.39519 27.2481 8.80519C27.3981 8.35519 27.5881 7.90519 27.6481 7.42519C27.9481 5.67519 27.7781 3.88519 28.3081 2.17519C28.4781 -0.334814 30.2781 0.145176 32.0881 0.665176C34.5981 1.34518 37.1281 1.94518 39.6481 2.54518C42.1981 3.26518 44.7181 4.11519 47.3381 4.58519C54.9381 6.25519 62.4881 8.0952 70.0481 9.9052C74.0181 10.8252 77.9081 12.0052 81.8081 13.0652C83.6881 13.5652 85.5381 14.1952 87.3981 14.7152C87.6981 14.7652 88.0281 14.7952 88.2381 15.0452C88.5481 15.4152 88.3281 16.0252 87.8481 16.0852C87.5181 16.1152 87.1881 16.0052 86.8681 15.9452Z" fill="#9A00FF"/>
<path d="M87.1581 19.3348C86.6181 18.9048 86.4181 18.1748 86.5481 17.5148C86.6681 16.8148 86.7281 15.9948 87.1281 15.4048C87.7481 14.6748 88.5681 15.4748 88.1281 16.2448C87.9781 16.9448 87.5281 17.7948 87.9781 18.4448C88.4581 18.9648 87.7081 19.7848 87.1581 19.3348Z" fill="#9A00FF"/>
<g filter="url(#filter0_d_24_3791)">
<path d="M23.0979 58.8057C19.5379 57.8557 19.0479 56.2657 17.5379 53.2257C17.1179 52.2457 15.6779 48.5857 17.3279 48.3357C17.6779 48.3257 18.0379 48.5857 18.0779 48.9557C18.0679 50.5557 18.7279 52.0657 19.4479 53.4757C20.0379 54.5357 20.3279 55.6357 21.2979 56.3557C23.6079 57.4357 26.3479 58.4657 28.8779 57.6057C30.7579 56.7757 32.6979 55.7257 33.8779 53.9957C34.8079 52.2757 35.6379 50.3957 35.7679 48.4257C35.8179 48.0757 35.5079 47.7857 35.7179 47.4457C35.8679 47.1657 36.1979 47.0457 36.4979 47.1557C37.9479 47.8957 36.8879 50.9957 36.4479 52.1757C35.5379 55.5657 32.6679 57.8957 29.4779 59.0957C27.4279 59.8757 25.1479 59.4757 23.0979 58.8057Z" fill="#D6FF00"/>
</g>
<defs>
<filter id="filter0_d_24_3791" x="12.5547" y="43.1152" width="28.6807" height="20.4082" filterUnits="userSpaceOnUse" color-interpolation-filters="sRGB">
<feFlood flood-opacity="0" result="BackgroundImageFix"/>
<feColorMatrix in="SourceAlpha" type="matrix" values="0 0 0 0 0 0 0 0 0 0 0 0 0 0 0 0 0 0 127 0" result="hardAlpha"/>
<feOffset/>
<feGaussianBlur stdDeviation="2"/>
<feComposite in2="hardAlpha" operator="out"/>
<feColorMatrix type="matrix" values="0 0 0 0 0.839216 0 0 0 0 1 0 0 0 0 0 0 0 0 1 0"/>
<feBlend mode="normal" in2="BackgroundImageFix" result="effect1_dropShadow_24_3791"/>
<feBlend mode="normal" in="SourceGraphic" in2="effect1_dropShadow_24_3791" result="shape"/>
</filter>
</defs>
</svg>
