<svg width="102" height="44" viewBox="0 0 102 44" fill="none" xmlns="http://www.w3.org/2000/svg">
<path d="M29.2851 43.8094C26.2651 43.2994 23.4951 41.5394 21.1951 39.5894C18.2951 42.9094 12.1151 44.1094 8.05511 42.5594C4.41511 41.0394 2.7851 37.1194 1.6051 33.6294C1.2951 32.6794 0.925099 31.7294 0.715099 30.7494C0.665099 30.4294 0.645101 30.0694 0.905101 29.8294C1.2951 29.4294 2.06511 29.7594 2.00511 30.3094C2.32511 31.2394 2.7451 32.1294 3.1051 33.0394C4.4351 36.2094 5.95511 40.2494 9.72511 41.0394C13.0751 41.5094 17.5551 40.6194 19.7551 37.8594C15.8051 31.6394 13.4051 24.1594 14.3751 16.7594C14.6851 14.0794 15.3751 11.3494 17.0351 9.17941C19.1151 6.31941 22.4751 5.13942 24.8951 8.34942C26.6951 10.3794 27.8151 12.9194 27.9251 15.6494C28.4951 20.0294 27.4751 24.3594 26.3351 28.5594C25.5151 31.7994 24.5451 35.0794 22.5951 37.8394C24.1851 39.4194 26.2751 40.4594 28.3151 41.3394C29.9751 41.9394 31.7651 41.5694 33.4351 41.2094C37.5851 40.3794 40.1451 36.7994 42.3251 33.4794C40.6451 29.3994 38.9951 25.1994 38.8551 20.7294C38.7351 16.9794 38.4951 13.0494 39.8251 9.47943C40.7851 7.40943 42.3951 5.34942 44.6551 4.65942C47.2651 3.92942 49.7551 6.15942 50.4451 8.55942C52.9651 18.8994 50.7451 25.1994 44.8951 33.6894C45.5651 35.0994 46.6151 36.1494 47.7351 37.1794C50.5651 39.8794 54.1851 42.2494 58.2551 41.1094C62.0151 39.6494 64.7551 34.2494 66.9751 30.9894C65.9551 27.8594 64.7351 24.7494 64.3851 21.4594C64.0251 17.1594 64.0451 12.7394 65.1951 8.55942C65.8251 6.43942 66.8551 4.24942 68.8151 3.05942C70.3451 2.14942 72.5251 2.19942 73.8251 3.49942C75.3551 5.27942 75.5851 7.80942 75.8551 10.0594C76.2751 16.6894 72.9951 25.6494 69.4851 31.2394C71.7251 36.1794 77.2451 40.0894 82.7751 39.4194C87.4851 38.5694 90.2651 34.1194 92.7151 30.4094C91.2651 28.4594 90.5351 26.1194 90.1251 23.7494C89.5351 20.6294 89.2151 17.4594 89.0151 14.2894C88.8851 12.1594 88.8251 9.98941 89.3051 7.89941C90.0451 4.24941 93.4551 0.35944 97.4651 0.98944C100.715 1.88944 101.325 6.70943 101.645 9.56943C101.935 12.9294 101.235 16.2394 100.375 19.4694C99.5351 23.4594 97.5551 27.0294 95.3751 30.4194C96.3951 31.7894 97.4051 33.1894 98.6451 34.3694C99.3651 35.0594 100.265 35.6794 100.715 36.5794C101.335 37.5594 100.035 38.6394 99.2251 37.7894C98.2851 36.7594 97.1151 35.9494 96.1851 34.9094C95.4551 34.0994 94.8051 33.2294 94.1451 32.3694C91.4951 36.4994 88.0151 40.9394 82.8251 41.6294C76.8851 42.2794 71.0051 38.4494 68.0851 33.4194C65.4851 37.1494 63.0451 42.0494 58.3551 43.3494C54.8151 44.0994 51.0251 42.8994 48.2951 40.5794C46.5451 39.1494 44.7551 37.6594 43.4951 35.7494C40.2251 40.9994 35.6451 44.1894 29.2851 43.8094ZM21.1251 35.8994C22.6651 33.4294 23.4151 30.5894 24.1351 27.7894C25.1251 24.1094 26.1951 20.3694 25.8351 16.5194C25.7351 15.2894 25.7051 14.0494 25.3751 12.8494C24.8251 11.3194 23.8351 9.94944 22.7051 8.79944C20.4451 6.86944 17.8251 10.7094 17.1851 12.6494C14.7251 20.5094 16.9051 29.0494 21.1251 35.8994ZM43.4251 30.1094C43.5651 30.4694 43.6951 30.8294 43.8351 31.1794C48.9551 23.6094 50.2551 17.9694 48.3351 8.98944C46.5251 4.43944 42.9051 7.07941 41.6151 10.3994C40.6951 13.3394 40.8951 16.4994 40.9751 19.5394C41.0951 23.1994 42.0251 26.7494 43.4251 30.1094ZM68.5051 28.4794C69.6951 26.4594 70.5251 24.3894 71.2851 22.1994C72.3551 19.1794 73.3951 16.1294 73.6151 12.9094C73.7751 11.3194 73.6751 9.55944 73.3651 8.01944C73.0751 6.93944 73.0051 5.61942 72.1651 4.80942C70.4851 3.73942 68.8151 5.35944 68.1151 6.82944C66.4451 10.4894 66.2751 14.6494 66.4251 18.6094C66.4751 21.9994 67.4351 25.3194 68.5051 28.4794ZM93.9851 28.3794C96.5751 24.5194 98.0851 20.2694 98.9451 15.7394C99.6451 12.2494 100.005 5.51943 97.1051 3.00943C95.2651 2.53943 93.5951 4.09943 92.5951 5.47943C90.1851 9.22943 91.3451 13.9594 91.6251 18.1094C92.0651 21.5694 92.1751 25.2894 93.9851 28.3794Z" fill="white"/>
</svg>
