<svg width="157" height="52" viewBox="0 0 157 52" fill="none" xmlns="http://www.w3.org/2000/svg">
<path d="M112.505 51.2903C99.9952 51.1603 87.4952 50.2403 74.9852 49.9003C70.3152 49.8203 65.6452 49.9203 60.9852 49.7403C53.5252 49.8503 46.0752 49.9603 38.6252 49.6403C35.3352 49.4303 32.0352 49.1303 28.7652 48.6803C24.2152 48.2603 19.7552 46.9403 15.9952 44.2703C14.6952 43.2503 13.6052 41.9903 12.2652 41.0203C10.3852 39.5103 8.99523 37.5103 7.36523 35.7503C6.29523 34.5403 5.42523 33.1903 4.68523 31.7603C4.16523 30.7703 3.56523 29.8003 3.11523 28.7803C3.17523 28.8503 3.23523 28.9103 3.29523 28.9803C3.62523 29.3703 3.96523 29.7503 4.32523 30.1103C4.41523 30.2203 4.51522 30.3203 4.60522 30.4203C4.73522 30.5703 4.88523 30.7003 5.03523 30.8403C5.24523 31.0403 5.44523 31.2503 5.65523 31.4503C5.89523 31.6903 6.13524 31.9203 6.38524 32.1403C6.71524 32.4303 7.02523 32.7303 7.36523 33.0103C7.72523 33.3003 8.08523 33.6103 8.45523 33.8903C8.65523 34.0403 8.86523 34.1903 9.06523 34.3403C9.43523 34.7903 9.82523 35.2203 10.2252 35.6403C11.2152 36.7603 12.0652 37.9803 13.1652 39.0003C14.3052 39.9603 15.4152 40.9403 16.4552 42.0003C19.0252 44.1303 22.0752 45.4703 25.2752 46.2403C36.4752 48.3403 47.9252 48.2103 59.2752 47.9603C63.9652 48.0103 68.6552 48.1003 73.3352 48.0203C86.6652 48.3003 99.9852 49.3803 113.325 49.4703C118.155 49.5603 122.985 49.2903 127.805 49.0103C128.805 48.9803 129.805 49.0003 130.815 49.0203C132.085 49.0403 133.355 49.0603 134.615 49.0003C139.365 48.7503 144.105 48.7403 148.865 48.7803C150.475 48.7703 152.075 48.7403 153.685 48.7303C154.465 48.7803 155.415 48.6103 155.965 49.2703C156.295 49.7203 155.875 50.3703 155.345 50.2503C153.465 50.1303 151.565 50.4403 149.675 50.4603C148.105 50.5303 146.545 50.5303 144.975 50.5203C143.605 50.5103 142.245 50.5103 140.885 50.5603C136.645 50.7103 132.645 50.9703 128.455 50.8303C124.075 50.9903 119.695 51.3303 115.315 51.3303C114.365 51.3403 113.435 51.3303 112.505 51.2903Z" fill="#00FDFF"/>
<path d="M62.5151 49.46C59.7051 49.3 56.8551 48.5 54.3151 47.31C52.8351 46.49 51.5051 45.43 50.2151 44.35C47.7251 42.11 45.2951 39.67 43.6151 36.75C42.8251 35.21 42.1851 33.61 41.5951 31.97C39.9751 27.95 38.4451 23.84 37.6051 19.57C37.3551 17.2 37.1651 14.81 37.2151 12.43C37.2351 12.14 37.2451 11.85 37.2651 11.56C37.2651 11.55 37.2651 11.55 37.2651 11.54C37.3051 11.29 37.3251 10.93 37.3251 10.49C37.3451 10.14 37.3751 9.78997 37.4051 9.43997C37.4051 9.40997 37.4151 9.36996 37.4151 9.33996C37.4551 8.87996 37.4751 8.40997 37.4951 7.93997C37.5151 7.46997 37.5151 6.98999 37.5651 6.51999C37.6151 6.05999 37.6751 5.59998 37.7151 5.13998C37.7451 4.70998 37.7551 4.27996 37.7451 3.83996C37.9051 3.54996 38.1251 3.39997 38.4151 3.43997C38.9551 3.52997 39.0351 4.10996 38.9551 4.55996C38.7551 6.44996 39.0851 8.23998 39.0651 10.11C39.0451 11.31 38.9451 12.5 39.0151 13.7C39.1751 15.69 39.2951 17.7 39.5551 19.68C40.5051 23.36 41.6251 27 43.1251 30.49C43.8751 32.45 44.5751 34.64 45.6051 36.4C48.0051 39.94 51.1051 42.93 54.5651 45.34C56.6351 46.79 59.1751 47.34 61.5851 47.94C62.1651 48.13 63.1751 47.95 63.1951 48.79C63.1851 49.15 62.8851 49.45 62.5251 49.45C62.5251 49.46 62.5251 49.46 62.5151 49.46Z" fill="#00FDFF"/>
<path d="M2.56517 2.81947C2.30517 2.66947 2.02516 2.58948 1.71516 2.60948C1.69516 2.60948 1.68517 2.60948 1.67517 2.60948C1.63517 2.57948 1.58517 2.54947 1.54517 2.52947C1.91517 1.94947 2.77517 2.24948 2.86517 2.88948C2.87517 2.93948 2.88517 2.98949 2.89517 3.04949C2.79517 2.95949 2.68517 2.87947 2.56517 2.81947Z" fill="#00FDFF"/>
<path d="M37.7651 12.8799C37.3551 12.5899 37.3251 12.0099 37.2851 11.5599C37.2851 11.4999 37.2851 11.4399 37.2851 11.3799C37.3151 10.7299 37.3651 10.0899 37.4151 9.44992C37.4151 9.44992 37.4151 9.44993 37.4151 9.45993C37.4151 9.45993 37.4151 9.45992 37.4151 9.44992C37.4151 9.44992 37.4151 9.44991 37.4151 9.43991C37.4151 9.42991 37.4151 9.42992 37.4151 9.41992C37.4151 9.38992 37.4151 9.3699 37.4251 9.3399C37.4251 9.3499 37.4251 9.36991 37.4251 9.37991C37.4251 9.38991 37.4251 9.39991 37.4251 9.40991C37.4251 9.39991 37.4251 9.38991 37.4251 9.37991C37.4251 9.38991 37.4251 9.3899 37.4251 9.3999C37.4251 9.3799 37.4251 9.34993 37.4351 9.32993C37.4751 8.86993 37.4951 8.40991 37.5151 7.93991C37.5351 7.46991 37.5351 6.98993 37.5851 6.51993C37.6351 6.05993 37.6951 5.59992 37.7351 5.13992C37.7751 4.67992 37.7751 4.21992 37.7651 3.75992C37.7651 3.50992 37.7651 3.24991 37.7451 2.99991C37.7351 2.80991 37.6851 2.62992 37.5651 2.47992C37.4751 2.36992 37.3651 2.30991 37.2351 2.27991C37.3251 1.60991 37.5451 1.01992 38.1951 0.919922C38.7551 0.939922 39.0251 1.52992 39.0751 2.00992C39.2051 3.96992 39.1751 5.9699 38.9951 7.9299C38.9251 8.4199 39.0251 8.98991 38.7551 9.43991C38.8351 10.3599 38.8651 11.2899 38.8551 12.1999C38.9251 12.6299 38.5351 12.9899 38.1351 12.9899C37.9951 12.9799 37.8751 12.9499 37.7651 12.8799Z" fill="#00FDFF"/>
<path d="M18.135 5.76002C16.075 5.74002 14.025 5.54003 11.995 5.24003C11.965 5.23003 11.935 5.23001 11.895 5.22001C11.915 5.23001 11.935 5.23003 11.965 5.24003C11.605 5.15003 11.255 5.06001 10.895 4.97001C10.545 4.89001 10.205 4.82002 9.85503 4.73002C9.87503 4.74002 9.89503 4.74001 9.92503 4.75001C9.88503 4.74001 9.83503 4.73001 9.79503 4.72001C9.79503 4.72001 9.79503 4.72001 9.78503 4.72001C9.21503 4.58001 8.65503 4.38003 8.07503 4.24003C7.53503 4.11003 6.96504 4.06003 6.41504 3.99003C6.43504 3.99003 6.45504 3.99001 6.47504 4.00001C5.94504 3.93001 5.42503 3.83002 4.90503 3.73002C4.64503 3.68002 4.37504 3.65003 4.11504 3.61003C3.99504 3.59003 3.86504 3.57003 3.74504 3.55003C3.64504 3.53003 3.54503 3.52001 3.45503 3.53001C3.41503 3.49001 3.36503 3.45002 3.32503 3.42002C3.08503 3.21002 2.84503 2.99003 2.56503 2.83003C2.35503 2.71003 2.13503 2.64001 1.90503 2.62001C1.93503 2.54001 1.97503 2.47002 2.03503 2.41002C2.30503 2.13002 2.74503 2.15002 3.10503 2.17002C4.02503 2.20002 4.96503 2.38002 5.85503 2.54002C12.115 3.73002 18.485 4.48003 24.855 3.89003C27.755 3.59003 30.615 2.97002 33.405 2.17002C34.485 1.89002 35.545 1.56003 36.615 1.24003C37.225 1.03003 38.305 0.65001 38.525 1.53001C38.575 1.84001 38.385 2.18002 38.065 2.26002C37.865 2.30002 37.665 2.36002 37.465 2.42002C37.305 2.27002 37.075 2.24002 36.855 2.32002C36.705 2.38002 36.565 2.45003 36.435 2.55003C36.365 2.60003 36.305 2.66001 36.235 2.72001C36.235 2.72001 36.225 2.72002 36.225 2.73002C36.195 2.74002 36.165 2.76003 36.135 2.77003C35.975 2.84003 35.835 2.93003 35.685 3.02003C30.675 4.86003 25.385 5.83003 20.055 5.83003C19.425 5.80003 18.775 5.79002 18.135 5.76002Z" fill="#00FDFF"/>
<path d="M9.2851 36.5797C8.4251 36.4797 8.1851 35.4996 7.5451 35.0596C5.3451 32.7696 3.48511 30.0897 2.44511 27.0697C0.195107 20.5997 -0.314891 13.5897 0.165109 6.78965C0.255109 4.18965 0.325103 0.529663 3.9251 2.57966C4.4551 2.64966 4.62511 3.25965 4.38511 3.62965C4.29511 3.61965 4.2151 3.59964 4.1251 3.58964C4.0051 3.56964 3.87511 3.54964 3.75511 3.52964C3.63511 3.50964 3.5051 3.49967 3.3951 3.51967C3.3451 3.50967 3.30511 3.50965 3.25511 3.49965C3.10511 3.46965 2.95511 3.42965 2.80511 3.40965C2.59511 3.38965 2.38511 3.40966 2.19511 3.50966C2.18511 3.50966 2.17511 3.49965 2.16511 3.49965C2.15511 3.50965 2.1551 3.52965 2.1451 3.53965C2.1251 3.54965 2.1151 3.55965 2.1051 3.56965C1.8951 3.73965 1.8051 3.99966 1.8151 4.25966C1.8251 4.46966 1.84511 4.68964 1.86511 4.89964C1.86511 4.90964 1.86511 4.90966 1.86511 4.91966C1.85511 5.13966 1.85511 5.34965 1.83511 5.53965C1.82511 6.99965 1.6951 8.45966 1.7651 9.91966C1.7451 13.0997 1.8351 16.2897 2.4051 19.4197C2.9751 22.8397 3.4551 26.1796 5.2151 29.1796C6.4051 30.8896 7.4351 32.6196 8.8151 34.1596C9.1351 34.5396 9.35511 34.9697 9.63511 35.3797C9.87511 35.4997 10.0351 35.7396 9.99511 36.0296C9.95511 36.3196 9.68511 36.5697 9.38511 36.5697C9.34511 36.5897 9.3151 36.5797 9.2851 36.5797Z" fill="#00FDFF"/>
</svg>
