<svg width="30" height="62" viewBox="0 0 30 62" fill="none" xmlns="http://www.w3.org/2000/svg">
<path d="M14.7576 32.107C11.0576 31.957 6.52758 28.847 6.82758 24.807C6.61758 24.287 6.87752 23.687 7.14752 23.237C7.46752 22.187 8.12753 21.257 8.90753 20.497C11.2475 18.307 16.0076 17.197 18.5076 19.637C22.7376 23.007 20.5276 32.087 14.7576 32.107ZM15.0275 30.987C18.9075 30.757 20.5776 24.747 18.9476 21.807C17.6276 19.577 15.8476 19.057 13.3876 19.467C10.7476 19.937 8.53758 21.767 7.76758 24.347C7.85758 24.477 7.86755 24.637 7.79755 24.777C7.77755 25.297 7.79758 25.717 7.95758 26.197C9.02758 29.027 11.9975 31.007 15.0275 30.987Z" fill="#00FF09"/>
<path d="M12.4374 27.5265C11.0874 27.3365 10.0374 26.1065 10.2374 24.7265C10.2774 24.3165 10.2574 23.8165 10.5874 23.5165C10.7874 23.3665 11.0474 23.4165 11.2074 23.5965C11.3674 23.7765 11.3074 24.0165 11.2774 24.2365C11.2674 24.6165 11.2474 25.0065 11.3074 25.3865C11.4574 26.3065 12.8474 26.8665 13.5974 26.3465C13.5974 26.3565 13.5874 26.3565 13.5874 26.3665C13.5874 26.3665 13.5874 26.3665 13.5574 26.4065C13.9874 25.5065 13.4174 24.3965 13.6574 23.4865C14.0974 22.2365 16.1174 22.4465 16.7074 23.4865C17.2274 24.4165 17.4574 25.6265 16.7974 26.5365C16.6474 26.7765 16.3274 26.8765 16.0774 26.7265C15.5174 26.3765 16.0574 25.8165 16.1374 25.3665C16.1674 24.8665 15.9874 24.3265 15.7474 23.8965C15.4674 23.6465 14.9874 23.5565 14.6474 23.7165C14.9074 25.5965 15.1474 28.0065 12.4374 27.5265Z" fill="#00FF09"/>
<path d="M9.71728 25.9262C9.31728 25.8562 9.17731 25.3162 9.49731 25.0662C9.64731 24.9262 9.84728 25.0062 10.0273 24.9962C10.3273 24.9562 10.7073 25.0462 10.7473 25.3962C10.7973 25.9362 10.1073 26.0162 9.71728 25.9262Z" fill="#00FF09"/>
<path d="M16.8872 25.4171C16.3872 25.4171 16.0371 24.6971 16.5671 24.4571C16.6971 24.4071 16.8071 24.4171 16.9271 24.4671C17.1271 24.4771 17.3172 24.4171 17.5172 24.4171C18.0072 24.4071 18.1472 25.1171 17.6971 25.2971C17.4471 25.3871 17.1672 25.4471 16.8872 25.4171Z" fill="#00FF09"/>
<path d="M13.6575 13.2465C13.5975 13.1965 13.5376 13.1465 13.4876 13.0865C13.1476 12.9765 13.0376 12.5065 13.2576 12.2265C13.5976 11.8065 14.4576 11.7065 14.7576 12.2265C15.2876 13.0565 14.4075 13.8165 13.6575 13.2465Z" fill="#00FF09"/>
<path d="M6.68737 44.9369C5.63737 45.0069 5.17733 44.677 5.33733 43.557C5.35733 42.637 5.36736 41.587 5.29736 40.697C4.60736 34.297 4.25734 27.8569 4.27734 21.4369C4.26734 18.7169 4.24736 15.9769 3.92736 13.2769C3.83736 12.2469 3.71739 11.217 3.57739 10.197C3.46739 9.57696 3.60738 8.97695 4.38738 9.10695C4.95738 9.14695 5.61734 9.42696 6.15734 9.19696C7.14734 8.32696 6.82737 6.91695 6.68737 5.76695C6.53737 5.01695 7.29738 4.87695 7.88738 4.90695C10.4974 4.84695 13.0674 4.07695 15.6074 3.73695C16.7574 3.47695 17.9273 3.27696 19.0873 3.08696C19.5973 2.96696 20.3074 2.96695 20.4474 3.60695C20.7774 5.56695 21.4574 7.92695 23.6374 8.46695C23.8174 8.50695 23.9773 8.55695 24.0973 8.70695C24.3873 9.20695 24.1774 9.87695 24.1874 10.427C24.0974 11.607 24.0574 12.767 24.0674 13.947C24.1274 18.197 24.5174 22.3869 24.4374 26.6369C24.6274 30.3369 24.9174 34.127 25.0474 37.787C25.1474 39.387 25.4974 41.007 25.3574 42.597C24.9074 43.6069 23.4573 43.097 22.5973 43.147C21.8873 43.197 19.1573 43.797 19.2873 42.587C19.4373 42.097 19.9074 42.2669 20.2474 42.3569C21.0574 42.3969 21.7573 42.2269 22.5373 42.1569C23.1773 42.1369 23.8373 42.347 24.4773 42.227C23.7573 34.977 23.3274 27.747 23.1974 20.477C23.0974 16.777 22.7573 13.0669 23.2273 9.37695C20.8373 8.87695 19.7874 6.24695 19.5074 4.06695C17.0574 4.59695 14.6574 5.09695 12.1874 5.46695C10.7374 5.81695 9.25739 6.05695 7.76739 5.96695C8.36739 8.26695 7.51738 11.0569 4.63738 10.1869C5.69738 15.9769 5.21739 21.9569 5.51739 27.7969C5.60739 30.3369 5.69738 32.9569 5.88738 35.4669C6.10738 38.2969 6.57738 41.1169 6.31738 43.9669C6.96738 43.9769 7.64735 43.8769 8.28735 43.9969C8.46735 44.0769 8.57737 44.2669 8.55737 44.4669C8.36737 45.1569 7.23737 44.8569 6.68737 44.9369Z" fill="#00FF09"/>
<path d="M8.23721 51.2363C8.24721 46.9563 8.12723 42.6663 8.25723 38.3863C8.32723 37.8963 8.14719 37.1963 8.59719 36.8663C8.91719 36.6863 9.29722 36.9163 9.30722 37.2763C9.28722 40.9963 9.33723 44.7263 9.31723 48.4563C9.31723 49.4063 9.29724 50.3663 9.20724 51.3163C9.18724 51.5563 8.9572 51.7363 8.7272 51.7363C8.4472 51.7163 8.24721 51.4963 8.23721 51.2363Z" fill="#00FF09"/>
<path d="M13.6875 60.6164C13.4175 55.1264 13.5275 49.6364 13.5675 44.1464C13.5975 42.5164 13.5575 40.8864 13.6375 39.2564C13.7275 38.6664 13.5775 37.7163 14.3075 37.4963C14.7275 37.3763 15.0575 37.9264 14.7375 38.2264C14.6075 44.7964 14.6175 51.3963 14.6575 57.9763C14.6875 58.8363 14.7175 59.6863 14.6675 60.5463C14.6475 60.7863 14.4975 60.9963 14.2375 61.0363C13.9875 61.0663 13.7075 60.8764 13.6875 60.6164Z" fill="#00FF09"/>
<path d="M19.4476 55.2863C19.1376 52.4363 19.2076 49.6463 19.1376 46.7963C19.2076 43.5563 18.8776 40.2163 19.3176 37.0063C19.4876 36.4763 20.2875 36.6663 20.1575 37.2263C20.0975 41.5763 20.2275 45.9363 20.2775 50.2863C20.2775 51.9963 20.3975 53.5563 20.4675 55.2163C20.4775 55.8363 19.5076 55.9063 19.4476 55.2863Z" fill="#00FF09"/>
<path d="M5.22743 49.5969C4.28743 49.4369 3.14744 49.5569 2.36744 48.9669C1.89744 48.3769 1.92744 47.5369 1.79744 46.8269C1.55744 45.2169 1.45743 43.5869 1.28743 41.9769C0.527428 35.7369 -0.00254565 29.4869 0.127454 23.2169C0.0674543 17.7369 -0.102585 12.2669 0.0874153 6.78689C0.117415 5.55689 0.0774275 4.4169 0.287427 3.2569C0.387427 2.8069 0.55743 2.27689 0.97743 2.02689C1.27743 1.83689 1.62747 1.83689 1.95747 1.84689C2.68747 1.85689 3.36747 1.70689 4.07747 1.56689C6.63747 1.05689 9.26744 1.4469 11.8674 1.3369C15.6474 1.4069 19.3575 0.466889 23.1375 0.546889C24.6075 0.646889 26.1575 0.336893 27.5775 0.706893C27.8975 0.886893 27.9274 1.2669 27.8674 1.5869C27.7774 2.4069 27.6875 3.21689 27.6375 3.96689C27.5175 6.17689 27.5274 8.40689 27.4874 10.6269C27.1274 17.5269 28.0374 24.4469 28.6174 31.2969C28.8974 34.6769 28.7074 38.0769 28.9674 41.4669C29.0574 43.2769 29.2574 45.0769 29.1074 46.8869C29.0874 47.1369 29.0375 47.4269 28.8275 47.5869C28.6875 47.6969 28.5274 47.7169 28.3574 47.7269C27.2774 47.7369 26.2974 47.9269 25.2474 48.0169C24.0075 48.0669 22.7774 48.1369 21.5574 48.1769C21.1874 48.1569 20.7975 48.2369 20.4375 48.1369C20.1475 48.0169 20.0574 47.6569 20.2474 47.4069C20.9074 46.8969 21.9574 47.1769 22.7474 47.0369C24.5975 47.0169 26.2874 46.8169 28.0974 46.7469C28.1374 45.5369 28.0574 44.2969 27.9674 43.1269C27.6174 39.2569 27.7774 35.2769 27.4874 31.4169C27.1274 27.1669 26.6975 22.8669 26.3875 18.6269C26.2375 16.3869 26.2575 14.1269 26.3275 11.8869C26.4075 8.47689 26.2875 5.04688 26.8175 1.66688C22.5875 1.66688 18.4475 2.0169 14.2575 2.4769C10.3975 2.7269 6.50745 2.10689 2.68745 2.90689C2.32745 2.94689 1.95742 2.92688 1.58742 2.91688C1.53742 2.93688 1.52745 2.98689 1.49745 3.02689C1.08745 4.45688 1.33747 5.99689 1.26747 7.45689C1.25747 9.75689 1.17745 12.0669 1.18745 14.3669C1.46745 20.0469 1.18743 25.7369 1.47743 31.4069C1.57743 34.6469 1.97747 37.7469 2.26747 40.9569C2.56747 43.3669 2.56743 45.8469 3.09742 48.2169C4.30743 48.4369 5.55746 48.6169 6.75746 48.5569C7.34746 48.6069 8.41746 48.0069 8.63746 48.8269C8.76746 49.8069 5.88743 49.6069 5.22743 49.5969Z" fill="#00FF09"/>
</svg>
