<svg width="75" height="118" viewBox="0 0 75 118" fill="none" xmlns="http://www.w3.org/2000/svg">
<path d="M39.9 84.285C33.79 84.055 27.67 83.955 21.56 83.585C18.27 83.495 14.99 83.3149 11.71 82.9549C9.54 82.8449 7.36001 82.725 5.22001 82.335C0.820006 82.075 -0.120006 77.695 0.0199944 74.025C-0.0500057 71.875 0.060009 69.7249 0.410009 67.6049C0.860009 64.3149 0.419987 60.9249 1.19999 57.6649C1.67999 55.6649 2.98999 54.1149 4.13999 52.4849C5.82999 50.4749 8.68996 49.9649 11.17 49.7049C12.47 49.6249 13.77 49.665 15.06 49.725C15.63 49.715 16.55 49.675 16.55 50.465C16.44 51.625 14.75 51.085 13.95 51.185C11.86 51.115 9.60997 51.315 7.67997 52.035C6.25997 52.405 5.25997 53.435 4.55997 54.675C2.98997 56.475 2.42996 58.835 2.41996 61.175C2.16996 63.035 2.41999 64.915 2.19999 66.775C1.70999 70.515 1.16999 74.445 2.07999 78.145C2.41999 78.955 2.67999 79.695 3.38999 80.195C4.93999 81.025 6.96 80.9949 8.59 81.2049C11.03 81.2949 13.49 81.4849 15.91 81.7049C19.88 81.8849 23.88 81.985 27.84 82.275C31.59 82.505 35.3499 82.345 39.0999 82.565C44.8499 82.835 50.61 82.445 56.32 82.035C61.21 81.825 66.18 82.205 70.95 81.005C71.72 80.825 71.97 80.055 71.85 79.335C71.6899 77.875 71.47 76.4249 71.37 74.9549C71.05 71.7149 70.69 68.335 70.15 65.155C69.25 61.435 69.16 57.535 67.96 53.895C67.38 51.425 65.17 51.8349 63.18 51.8549C60.86 51.8549 58.55 51.8449 56.23 51.7949C55.65 52.0449 55.08 51.365 55.44 50.865C55.78 50.365 56.46 50.3749 56.99 50.3549C57.7 50.3149 58.41 50.315 59.12 50.315C60.66 50.305 62.2 50.285 63.74 50.305C65.3 50.355 67.15 50.185 68.3 51.425C70.11 53.835 70.27 57.055 70.78 59.925C71.87 65.6749 72.73 71.3149 73.18 77.1349C73.49 79.0249 73.84 81.545 71.7 82.405C69.91 83.065 67.95 83.2149 66.06 83.3849C62.67 83.6949 59.36 83.565 55.98 83.725C50.65 84.175 45.27 84.445 39.9 84.285Z" fill="#00FCFF"/>
<path d="M26.7703 74.3649C22.6503 74.3349 18.4904 73.8249 14.4004 73.6849C12.3404 73.7049 11.7403 73.7949 11.8603 71.4749C12.1603 68.4949 11.5503 65.5649 11.4903 62.6049C11.2703 60.8849 13.5704 61.0049 14.6604 60.9049C15.3404 60.9149 16.5403 60.4449 16.7303 61.4149C16.7803 61.7949 16.5103 62.1549 16.1303 62.2049C15.0503 62.3449 13.9604 62.3549 12.9004 62.5649C12.9404 64.4449 13.2903 66.2949 13.4303 68.1649C13.5003 69.5149 13.3103 70.8549 13.3203 72.2049C15.8603 72.0949 18.5603 72.3949 21.0403 72.5649C24.0803 72.7249 27.1204 72.7949 30.1604 72.7649C36.2404 72.8049 42.3003 72.2849 48.3703 72.2149C52.3803 72.1149 56.4004 72.2849 60.4104 72.1349C60.0504 70.1749 59.5403 68.2549 59.4903 66.2649C59.4803 64.8149 59.4103 63.5549 59.2003 62.1549C59.1203 61.8049 59.0503 61.4249 58.7503 61.1949C57.8903 60.9749 55.2203 61.6649 55.1803 60.4249C55.1803 60.1549 55.3404 59.9149 55.5904 59.8049C56.3804 59.6049 57.2303 59.7449 58.0403 59.7449C58.5803 59.7849 59.1503 59.7849 59.6103 60.0949C61.6003 61.6749 60.5403 66.4949 61.2703 68.9349C61.4303 70.1749 61.8403 71.4149 61.8103 72.6649C61.7003 73.3449 60.9403 73.5449 60.3503 73.6049C55.2303 73.9349 50.0904 73.6949 44.9604 73.9349C38.9004 74.2649 32.8303 74.4449 26.7703 74.3649Z" fill="#00FCFF"/>
<path d="M39.4902 90.6551C35.2702 90.6651 30.9302 90.2751 26.7602 89.9351C21.6802 89.6851 16.5902 89.7851 11.5002 89.6851C10.5902 89.6551 10.5402 88.2951 11.5002 88.2551C14.5002 88.1451 17.5102 88.405 20.5102 88.335C24.6902 88.165 28.9802 88.5151 33.0602 88.8751C36.0602 89.0651 39.0602 89.035 42.0602 89.105C46.5102 89.105 50.9602 89.165 55.4002 88.895C56.9302 88.845 58.4602 88.7951 59.9902 88.6851C61.0602 88.6451 62.2002 88.4351 63.2402 88.7251C63.8202 88.9251 63.7002 89.8451 63.1002 89.8751C62.7402 89.9151 62.3702 89.9051 62.0102 89.9351C54.5002 90.7951 47.0302 90.7651 39.4902 90.6551Z" fill="#00FCFF"/>
<path d="M17.6898 107.215C15.9998 107.185 14.2098 107.135 12.5598 106.955C11.7898 106.825 10.2498 107.185 10.2598 106.045C10.2998 105.715 10.5998 105.455 10.9298 105.465C11.8498 105.455 12.9498 105.525 13.8198 105.605C18.2298 105.785 22.6398 105.625 27.0498 105.535C34.5898 105.565 42.1098 104.995 49.6498 104.955C53.9198 104.905 58.1698 105.325 62.4298 105.215C63.0298 105.305 64.0998 105.285 64.0598 106.095C64.0198 106.415 63.7098 106.655 63.3898 106.605C61.9298 106.475 60.4698 106.685 58.9998 106.705C55.9698 106.755 52.9398 106.475 49.9098 106.515C45.9298 106.495 41.9598 106.725 37.9898 106.945C31.2298 107.165 24.4598 107.205 17.6898 107.215Z" fill="#00FCFF"/>
<path d="M9.56988 117.585C8.01988 117.525 6.49988 117.185 5.00988 116.795C3.20988 116.575 1.87985 115.535 1.28985 113.805C0.52985 111.895 0.66987 109.795 0.55987 107.785C0.33987 103.775 0.509894 99.7752 0.709894 95.7652C0.999894 90.6352 0.729892 85.4952 1.01989 80.3652C1.05989 79.9952 1.12989 79.5452 1.45989 79.3152C2.14989 78.9152 2.60987 79.5652 2.36987 80.2152C2.59987 88.1752 2.25987 96.1352 2.05987 104.095C2.06987 105.725 2.12987 107.355 2.17987 108.985C2.24987 111.025 2.17987 113.135 3.61987 114.715C4.21987 115.175 5.03987 115.185 5.74987 115.385C7.05987 115.755 8.4399 115.955 9.7799 116.035C11.8599 116.155 13.9399 115.755 16.0099 115.625C20.8099 115.445 25.6399 115.065 30.4299 114.835C34.4299 114.555 38.4199 114.185 42.4299 114.105C44.7399 114.165 47.0499 114.275 49.3599 114.235C55.3899 114.065 61.4299 114.275 67.4599 114.075C74.0599 114.025 72.4998 109.735 72.8498 104.925C73.0598 99.5552 73.0999 94.1752 72.4299 88.8252C72.2399 86.4752 71.8199 84.1652 71.3099 81.8652C71.0799 81.0552 72.2899 80.6152 72.6299 81.4052C74.6499 88.4552 74.8199 95.9452 74.5499 103.235C74.5199 104.815 74.4399 106.385 74.4099 107.965C74.3499 110.345 74.2399 113.315 71.8599 114.575C68.3399 116.355 64.1699 115.555 60.3599 115.805C55.6399 115.725 50.9199 115.835 46.1999 115.785C44.1999 115.615 42.0899 115.795 40.1799 115.955C36.2999 116.145 32.4299 116.335 28.5499 116.495C24.4299 116.615 20.5299 117.015 16.4599 117.095C14.1599 117.245 11.8799 117.755 9.56988 117.585Z" fill="#00FCFF"/>
<path d="M9.85002 105.864C9.47002 104.114 9.86006 102.254 9.83006 100.474C9.76006 97.9745 10.2601 95.5245 10.5301 93.0545C10.6101 91.9945 10.5601 90.9245 10.7001 89.8645C10.7501 89.5745 10.9201 89.3145 11.2101 89.2345C11.6601 89.1045 12.1401 89.5345 12.0101 89.9945C12.3201 93.5345 11.22 96.9645 11.23 100.484C11.18 102.164 10.94 103.864 11.06 105.544C11.18 106.244 10.12 106.544 9.85002 105.864Z" fill="#00FCFF"/>
<path d="M63.37 106.444C63.11 106.224 63.1701 105.694 63.1501 105.444C63.0501 102.884 63.09 100.314 63.2 97.7544C63.26 95.3244 63.2701 92.8844 63.2701 90.4544C63.2701 90.0744 63.22 89.6144 63.5 89.3044C63.91 88.8644 64.69 89.2444 64.62 89.8344C64.83 92.6344 64.76 95.4544 64.63 98.2544C64.51 100.514 64.48 102.884 64.5 105.134C64.52 105.414 64.5401 105.694 64.5301 105.974C64.5201 106.554 63.78 106.874 63.37 106.444Z" fill="#00FCFF"/>
<path d="M15.4399 101.344C14.4299 101.164 15.0599 99.3544 14.9899 98.6144C15.1299 97.0044 15.2699 95.3944 15.3999 93.7844C15.4399 93.4844 15.4699 93.1544 15.6899 92.9344C16.2499 92.4044 17.1999 93.0544 16.7599 93.7444C16.7599 95.5544 16.6099 97.3544 16.3899 99.1444C16.2199 99.8444 16.4999 101.384 15.4399 101.344Z" fill="#00FCFF"/>
<path d="M20.6501 100.776C20.6301 98.8056 20.8001 96.8356 20.8401 94.8656C20.8801 94.3556 20.8201 93.7456 21.2001 93.3356C21.4401 93.0756 21.88 93.0456 22.13 93.3056C22.32 93.4956 22.37 93.7957 22.24 94.0357C22.19 94.5957 22.2201 95.1657 22.2201 95.7257C22.2301 97.4457 22.21 99.1657 22.04 100.876C22 101.216 21.69 101.476 21.35 101.476C20.96 101.476 20.6601 101.156 20.6501 100.776Z" fill="#00FCFF"/>
<path d="M27.7296 101.126C26.5696 100.956 27.4197 98.7157 27.3597 97.8757C27.4897 96.5257 27.5697 95.3257 27.6497 94.0457C27.6697 93.7257 27.6497 93.3657 27.8997 93.1257C28.2297 92.8057 28.7897 92.9057 28.9697 93.3357C29.1497 94.5057 28.9997 95.7157 28.9697 96.8957C28.8797 98.1357 28.7697 99.3856 28.5097 100.606C28.4397 100.956 28.0696 101.166 27.7296 101.126Z" fill="#00FCFF"/>
<path d="M34.33 101.585C33.94 101.535 33.66 101.165 33.72 100.775C33.86 99.6254 33.92 98.4754 34.03 97.3354C34.09 96.5554 34.12 95.8554 34.16 95.0954C34.22 94.5154 34.11 93.6554 34.75 93.3854C35.05 93.2654 35.41 93.4054 35.54 93.6554C35.61 93.7954 35.64 93.9654 35.63 94.1054C35.58 95.2354 35.64 96.3654 35.56 97.4954C35.49 98.6954 35.41 99.9054 35.13 101.075C35.03 101.415 34.67 101.635 34.33 101.585Z" fill="#00FCFF"/>
<path d="M40.6599 100.355C40.2899 100.305 40.0399 99.9647 40.0799 99.5947C40.1499 98.6147 40.1999 97.6347 40.3299 96.6647C40.5499 95.8347 40.3299 92.7947 41.8199 93.6047C42.0499 93.7947 42.1199 94.0547 42.0599 94.3147C41.9299 95.2447 41.8999 96.1847 41.8099 97.1247C41.6299 97.9247 41.8499 100.465 40.6599 100.355Z" fill="#00FCFF"/>
<path d="M45.97 100.925C45.44 100.785 45.45 100.215 45.51 99.7755C45.64 97.7255 45.59 95.6654 45.76 93.6054C45.77 93.0654 46.4099 92.6855 46.8499 93.0355C47.1699 93.2855 47.11 93.6955 47.12 94.0555C47.01 95.1855 47.74 101.335 45.97 100.925Z" fill="#00FCFF"/>
<path d="M52.3597 100.925C51.2397 100.675 51.9097 99.1546 51.8697 98.3546C51.9897 97.2246 52.0797 96.0946 52.1897 94.9646C52.2397 94.5246 52.2397 93.9546 52.6197 93.6646C53.2497 93.1346 54.2097 94.1446 53.5997 94.7246C53.5097 96.6946 53.5397 98.4846 53.1597 100.385C53.0897 100.745 52.7097 100.965 52.3597 100.925Z" fill="#00FCFF"/>
<path d="M58.6602 101.155C58.2902 101.105 58.0001 100.745 58.0601 100.365C58.2301 99.325 58.3402 98.285 58.4602 97.245C58.6802 96.445 58.4101 93.4051 59.7401 93.8451C60.0001 93.9551 60.1401 94.225 60.1201 94.415C60.0401 95.535 60.0201 96.6051 59.9201 97.7251C59.7301 98.5551 59.8702 101.285 58.6602 101.155Z" fill="#00FCFF"/>
<path d="M41.76 68.5152C37.11 68.4052 32.45 68.6252 27.83 67.9452C24.59 67.7952 21.39 67.6652 18.21 67.1052C17.68 67.3852 16.99 66.7852 17.25 66.2052C17.42 65.8052 17.87 65.7552 18.25 65.7752C22.8 66.3752 27.4 66.3752 31.94 66.9452C37.69 67.0652 43.45 67.0752 49.2 66.9552C51.09 66.8652 52.94 66.3452 54.85 66.3852C55.41 66.3852 55.74 67.1152 55.32 67.5152C55.02 67.8052 54.57 67.6952 54.19 67.7352C50.08 68.5752 45.92 68.5252 41.76 68.5152Z" fill="#00FCFF"/>
<path d="M35.5862 37.7286C34.7162 37.5186 35.0562 36.2886 35.8862 36.3886C37.0362 36.4386 36.6262 38.0886 35.5862 37.7286Z" fill="#00FF09"/>
<path d="M32.0464 56.1488C31.0064 55.4588 30.5064 54.2688 29.9264 53.1988C28.5464 50.9688 28.7564 48.0188 29.9064 45.7288C31.5064 41.6388 36.1164 40.7088 39.7864 42.5888C41.1264 43.5188 42.3964 44.7388 42.9064 46.3288C43.2664 47.1188 43.6464 47.9088 43.6464 48.7988C43.5864 49.8288 43.8064 50.8788 43.5764 51.8988C43.1664 53.3888 42.5764 54.9188 41.4764 56.0288C41.1464 56.4588 40.4464 56.0488 40.6664 55.5588C41.0464 54.8588 41.6064 54.2888 41.8164 53.4988C42.6764 51.9788 42.5664 50.3888 42.5064 48.7288C42.3364 47.6088 41.7564 46.5588 41.2664 45.5588C40.4964 44.6388 39.6464 43.6688 38.4664 43.2988C36.9064 42.7888 35.0564 42.6588 33.5364 43.3188C32.3064 43.9288 31.4864 44.9588 30.9464 46.1888C30.0564 47.8888 29.8764 49.8088 30.3664 51.6388C31.0864 52.9488 31.5564 54.6288 32.8264 55.4888C33.2564 55.9988 32.5264 56.5588 32.0464 56.1488Z" fill="#00FF09"/>
<path d="M35.1564 51.8187C33.7264 51.8387 32.1864 50.8987 32.2864 49.3187C32.2964 48.7887 32.2964 47.9887 32.9764 47.9087C33.4464 47.8287 33.6764 48.4087 33.3164 48.7087C33.2464 49.3887 33.3264 50.2387 34.0564 50.5287C34.6664 50.7587 35.5364 50.9787 36.0564 50.4687C36.4864 49.9887 36.3764 49.2987 36.4664 48.7187C36.5564 48.0087 37.1364 47.4287 37.8363 47.3187C39.0464 47.1987 39.9063 48.4287 40.0063 49.5287C40.0463 50.0987 40.1764 51.2887 39.3564 51.2987C38.8364 51.2187 38.9164 50.6687 38.9864 50.2887C38.9964 49.6287 38.9564 48.9387 38.4364 48.4887C38.0364 48.1187 37.4964 48.3787 37.4964 48.9087C37.6064 50.3687 36.8164 51.9587 35.1564 51.8187Z" fill="#00FF09"/>
<path d="M31.8564 50.6987C31.2264 50.5687 31.4264 49.5687 32.0564 49.7687C32.4564 49.6087 32.9664 49.9487 32.7764 50.3987C32.6364 50.7487 32.1764 50.7587 31.8564 50.6987Z" fill="#00FF09"/>
<path d="M39.8564 49.859C39.5164 49.729 39.4364 49.269 39.6364 48.989C39.7664 48.819 39.9564 48.819 40.1364 48.839C40.4364 48.849 40.7764 48.809 41.0164 49.029C41.2464 49.259 41.1564 49.649 40.8664 49.779C40.5464 49.889 40.1764 49.969 39.8564 49.859Z" fill="#00FF09"/>
<path d="M50.7463 58.7092C50.4463 53.1092 50.4763 47.5292 49.9763 41.9592C49.8063 37.0292 49.9663 32.0891 49.7363 27.1591C45.9663 27.2791 42.1563 27.0492 38.3963 27.2792C36.1263 27.5892 33.7363 27.2891 31.4763 27.5091C29.5163 27.5791 27.6263 28.1192 25.7063 28.3892C24.1463 28.5892 22.6063 28.2592 21.0663 28.0792C21.0063 36.4492 21.4863 44.8092 21.3763 53.1692C21.3663 54.7692 21.3863 56.3692 21.4763 57.9592C21.6063 58.1492 21.5563 58.4391 21.3363 58.5691C20.0963 59.1391 20.4463 56.3891 20.3163 55.7291C20.2663 53.5891 20.3463 51.4591 20.3063 49.3191C20.2963 43.1091 19.8763 36.9192 20.0363 30.7092C20.0463 26.3492 19.5463 26.8892 23.8463 27.3292C26.4763 27.4692 28.9063 26.3592 31.5263 26.3592C36.3863 26.2992 41.2163 25.8392 46.0663 26.0592C47.4563 26.1092 48.8563 26.0592 50.2463 26.1392C51.0663 26.5192 50.8263 27.6991 50.9263 28.4491C51.1663 33.8191 50.8463 39.2891 51.3363 44.6291C51.6663 47.9491 51.4863 51.2391 51.6863 54.5391C51.7663 55.9391 51.8063 57.3191 51.7763 58.7191C51.7663 58.9991 51.5463 59.2392 51.2563 59.2392C50.9663 59.2192 50.7663 58.9892 50.7463 58.7092Z" fill="#00FF09"/>
<path d="M26.6661 58.7588C26.3361 58.0188 26.5161 57.1288 26.4561 56.3288C26.4261 54.5188 26.4861 52.6888 26.3761 50.8788C26.2561 47.6588 25.8861 44.5688 25.3861 41.4088C25.1861 39.6188 24.7361 37.8688 24.5561 36.0688C24.4361 35.5388 24.4761 34.7488 25.1861 34.7188C25.8961 34.7288 26.8561 35.0888 27.2961 34.3188C27.7961 33.4488 27.7661 32.4188 27.7761 31.4688C27.7561 31.2388 27.7661 31.0188 27.9361 30.8488C28.3761 30.4288 29.0361 30.7488 29.5661 30.7388C31.3961 30.8088 33.1661 30.1888 34.9761 30.0488C36.7261 29.8988 38.4661 29.6288 40.1761 29.2488C40.4561 29.1588 40.7361 29.0488 41.0261 29.1788C41.3161 29.2988 41.4861 29.6088 41.6461 29.8588C42.2461 30.8588 42.9761 31.8388 44.1961 32.0188C46.1161 32.1588 45.7261 32.4988 45.6261 34.1588C45.3561 39.0488 46.1061 43.8488 46.7061 48.6788C47.0161 51.8388 47.3361 54.9888 47.6361 58.1488C47.6461 58.8088 46.6261 58.8988 46.5461 58.2188C46.3161 56.1688 46.0761 54.1188 45.9061 52.0688C45.4061 45.7488 43.8961 39.4088 44.6861 33.0688C42.7861 33.1588 41.3961 31.8188 40.5961 30.2188C38.6761 30.7788 36.6661 31.0088 34.6761 31.1888C32.7161 31.4088 30.7561 32.0888 28.7761 31.6988C28.9761 33.8788 28.1861 36.3988 25.5061 35.7788C26.9861 43.1588 27.7661 50.6588 27.4661 58.1988C28.0461 58.7588 27.0561 59.3188 26.6661 58.7588Z" fill="#00FF09"/>
</svg>
