<svg width="46" height="4" viewBox="0 0 46 4" fill="none" xmlns="http://www.w3.org/2000/svg">
<path d="M41.8449 3.58761C36.9049 3.22761 31.935 3.64762 27.005 3.21762C23.995 2.87762 20.965 2.75757 17.935 2.73757C15.335 2.71757 12.7549 2.31761 10.1649 2.33761C6.97494 2.33761 3.75492 2.36757 0.574916 2.47757C0.0549161 2.34757 -0.185057 1.66758 0.164943 1.24758C0.514943 0.837585 1.10495 0.827565 1.60495 0.727565C5.14495 0.347565 8.68495 0.317589 12.235 0.377589C15.155 0.617589 18.065 0.727585 20.995 0.747585C23.695 0.807585 26.375 1.14759 29.065 1.37759C32.745 1.61759 36.4349 1.48759 40.1049 1.75759C41.5849 1.87759 43.0649 2.03761 44.5449 2.14761C44.9249 2.17761 45.2049 2.54762 45.2049 2.90762C45.2149 4.20762 42.6849 3.5176 41.8349 3.5776C41.8349 3.5876 41.8449 3.58761 41.8449 3.58761Z" fill="#FF7A00"/>
</svg>
