<svg width="39" height="53" viewBox="0 0 39 53" fill="none" xmlns="http://www.w3.org/2000/svg">
<path d="M0.0513455 51.7201C-0.158654 51.1701 0.31134 50.7801 0.81134 50.7501C2.37134 50.6601 3.76134 49.8901 5.20134 49.3701C7.04134 48.7201 8.77135 47.8501 10.3813 46.7501C13.5113 44.4401 16.4113 41.8501 19.5013 39.4901C21.3713 37.7701 22.7513 35.8801 24.3913 33.9901C25.9313 32.2501 27.3413 30.4001 28.5213 28.3901C30.6513 25.0301 32.7313 21.7001 34.1513 18.0301C34.8813 15.8401 35.3213 13.7701 35.7213 11.6001C36.1913 8.93008 36.5013 6.22008 36.5113 3.51008C36.5213 2.77008 36.5713 2.03008 36.5413 1.29008C36.5313 0.960078 36.8013 0.670075 37.1213 0.630075C38.2613 0.610075 37.8313 2.16009 37.9813 2.90009C38.1513 5.60009 37.9113 8.31009 37.6213 10.9901C37.2913 13.3601 36.7913 15.7201 36.1613 18.0301C34.6413 22.4701 32.0413 26.4501 29.5413 30.3901C27.2413 33.9701 24.3113 37.1301 21.4613 40.2701C19.5613 42.0601 17.3313 43.4601 15.3913 45.2101C12.2613 47.7801 8.92134 50.1301 4.98134 51.2901C3.80134 51.6701 0.831345 52.9901 0.0513455 51.7201Z" fill="#FF7A00"/>
</svg>
