<svg width="52" height="71" viewBox="0 0 52 71" fill="none" xmlns="http://www.w3.org/2000/svg">
<path d="M14.1205 43.6873C13.2205 43.1773 12.1505 42.9772 11.2805 42.3772C7.8605 40.2272 5.5405 36.6173 4.2505 32.8373C2.3205 28.4373 2.03051 23.5873 1.63051 18.8673C1.44051 14.3173 1.35051 9.73727 1.60051 5.18727C1.69051 4.14727 1.7605 3.11727 1.9405 2.08727C2.0105 1.69727 2.0705 1.19725 2.4405 0.977252C3.2205 0.507252 3.8405 1.74727 3.3605 2.30727C2.8705 8.29727 3.0205 14.4873 3.3905 20.4573C3.8605 23.8973 3.9405 27.4473 5.2205 30.7073C5.8505 32.2773 6.3905 33.8773 7.1705 35.3873C8.6605 37.8573 10.6105 40.1973 13.2705 41.4373C13.9305 41.7573 14.8205 41.8573 15.1405 42.6173C15.4405 43.2373 14.7705 43.9573 14.1205 43.6873Z" fill="white"/>
<path d="M35.6803 45.5471C35.2103 44.1572 37.0703 43.6972 38.0003 43.2172C38.8703 42.7472 39.6303 42.1172 40.3803 41.4672C41.6603 40.0772 43.2003 38.8972 44.2403 37.3072C45.9703 34.3972 46.9603 31.1271 48.1703 27.9771C49.7403 22.6271 49.0603 17.0271 48.9403 11.5471C48.6803 8.81715 48.2603 5.99715 48.8003 3.29715C48.8503 2.85715 49.0603 2.33715 49.5703 2.32715C50.7703 2.45715 50.2603 4.03714 50.2803 4.84714C50.1103 7.26714 50.7103 9.62716 50.8003 12.0272C50.8903 15.2272 51.2503 18.4271 51.1303 21.6271C50.9803 23.2571 50.7303 24.8872 50.5003 26.5172C50.2703 28.2572 49.4703 29.8272 48.8803 31.4572C47.9303 33.8372 47.0403 36.2972 45.6403 38.4572C44.7003 39.8072 43.3803 40.8072 42.2703 42.0172C40.8203 43.5572 38.9903 44.5771 37.0503 45.3471C37.0703 46.1171 35.9503 46.2071 35.6803 45.5471Z" fill="white"/>
<path d="M24.9405 29.0576C22.8205 28.9576 22.6405 25.9776 24.4405 25.2276C25.4705 23.6876 27.6605 24.7376 27.7005 26.4076C27.7005 27.7976 26.3305 29.1076 24.9405 29.0576Z" fill="white"/>
<path d="M14.7404 54.2575C14.2404 52.5875 14.8703 50.7675 14.5903 49.0375C14.1103 45.0075 14.1003 40.9075 14.4503 36.8675C14.5603 32.3875 14.4904 27.5875 16.8004 23.5875C18.0604 21.6675 19.6903 19.7975 21.7803 18.7675C26.2203 16.8575 32.0903 16.2975 34.3903 21.5275C37.3503 28.2375 36.5103 35.7975 36.8303 42.9475C36.8403 45.4375 36.7104 47.9175 36.7704 50.4075C36.6804 51.3675 37.1903 53.9575 35.8703 54.0275C34.5003 53.9375 35.1203 52.1775 34.9803 51.2675C34.8103 48.8775 34.8103 46.4875 34.8103 44.0975C34.4803 38.0175 34.8003 31.8275 33.6703 25.8275C32.0303 19.1075 29.2503 18.2675 22.9703 20.4375C20.8003 21.4475 19.1104 23.4975 18.0504 25.6075C16.6504 28.6275 16.6704 32.0275 16.4404 35.2875C16.3704 39.0275 15.9304 42.7475 16.1804 46.4975C16.4304 48.9275 16.3903 51.3275 16.0103 53.7475C16.2803 54.4875 15.1004 54.9275 14.7404 54.2575Z" fill="white"/>
<path d="M20.6604 70.6172C17.5304 70.2972 14.3904 70.0472 11.2604 69.7872C9.56043 69.8472 7.85044 69.8172 6.24044 69.2372C5.81044 69.4672 5.30044 69.1972 4.92044 68.9772C4.34044 68.6472 3.79044 68.2572 3.25044 67.8672C0.310438 66.0072 -1.09957 61.6572 1.01043 58.6872C1.72043 57.7772 2.76044 57.2272 3.69044 56.5872C7.88044 53.8372 13.1204 53.5572 17.9904 53.7272C20.1204 53.7072 22.4404 53.5772 24.5104 53.6572C24.4904 53.6572 24.4804 53.6572 24.4604 53.6572C24.4604 53.6572 24.4604 53.6572 24.4504 53.6572C29.9804 53.4772 35.6304 52.5972 41.0704 54.0872C43.3304 54.7172 45.6804 55.4772 47.3904 57.1472C50.0804 59.7172 49.1604 64.1372 46.6904 66.5372C44.9004 68.2372 42.3904 68.6972 40.0904 69.3472C35.6004 70.6172 30.9004 70.6372 26.2604 70.7072C24.3904 70.7572 22.5204 70.7872 20.6604 70.6172ZM25.9904 68.4972C30.5004 68.3572 35.0404 68.4472 39.4404 67.2472C41.3304 66.7172 43.3604 66.4472 45.0304 65.3472C46.8404 63.9272 47.8604 61.0972 46.5604 59.0272C45.3704 57.3572 43.2804 56.8472 41.4304 56.2472C38.4504 55.3472 35.3004 55.2572 32.2104 55.4172C30.3804 55.4672 28.5504 55.6472 26.7304 55.8172C24.3504 55.9972 21.9704 55.8172 19.5904 55.9572C15.9704 55.9672 12.3404 55.8172 8.79045 56.6872C6.77045 57.2672 4.89044 58.2172 3.16044 59.3872C2.75044 59.6672 2.40044 60.0172 2.22044 60.4872C1.70044 61.7472 1.74044 63.2972 2.42044 64.4972C3.13044 65.4372 4.06043 65.9472 5.01043 66.5772C5.95043 67.1172 6.95044 67.5972 8.03044 67.7472C9.83044 68.0072 11.6504 67.6372 13.4504 67.9072C17.6304 68.0872 21.8004 68.6472 25.9904 68.4972Z" fill="#FF00BF"/>
<path d="M17.5604 70.3375C15.3504 70.1975 13.1504 70.0075 10.9404 69.9075C9.39037 69.8475 7.83036 69.7375 6.31036 69.4075C5.77036 69.3075 5.02036 69.1875 4.73036 68.6575C3.97036 68.3375 3.35037 67.7775 2.75037 67.2175C2.48037 67.0175 2.12036 66.7875 2.12036 66.4175C2.20036 65.4275 3.21037 65.7475 3.68037 66.2575C5.52037 68.0975 8.11036 68.2775 10.5604 68.3775C12.4604 68.4875 14.3504 68.5875 16.2504 68.7175C17.0904 68.8975 19.2404 68.4475 19.3504 69.5875C19.3404 70.5875 18.2204 70.3875 17.5604 70.3375Z" fill="#FF00BF"/>
</svg>
