<svg width="74" height="96" viewBox="0 0 74 96" fill="none" xmlns="http://www.w3.org/2000/svg">
<g filter="url(#filter0_d_24_4003)">
<path d="M31.973 69.9534C31.883 69.8034 31.8629 69.6434 31.9029 69.5034C32.5329 69.4934 33.163 69.4834 33.793 69.4934C33.753 69.4934 33.713 69.4934 33.673 69.4934C33.853 69.4934 34.033 69.4934 34.203 69.4934C33.673 69.9034 33.0729 70.2734 32.5929 70.2734C32.3429 70.2734 32.133 70.1734 31.973 69.9534Z" fill="#9A00FF"/>
<path d="M38.2827 19.8936C38.3527 19.9036 38.4127 19.9336 38.4627 19.9636C38.4027 19.9336 38.3427 19.9136 38.2827 19.8936Z" fill="#9A00FF"/>
<path d="M48.6628 70.8632C48.6128 70.8232 48.5528 70.7832 48.4928 70.7532C48.4528 70.7332 48.4128 70.7232 48.3728 70.7032C48.2728 70.6532 48.1628 70.6232 48.0528 70.6032C47.8828 70.5632 47.7228 70.5432 47.5528 70.5232C47.3228 70.5032 47.0928 70.5032 46.8628 70.4832C46.6228 70.4732 46.3828 70.4632 46.1428 70.4532C46.1328 70.4532 46.1228 70.4532 46.1128 70.4532C46.1028 70.4532 46.0928 70.4532 46.0728 70.4532C46.0728 70.4532 46.0728 70.4532 46.0828 70.4532C45.9928 70.4532 45.9028 70.4432 45.8128 70.4432C45.5528 70.4432 45.2928 70.4632 45.0328 70.4632C44.7928 70.4632 44.5528 70.4632 44.3128 70.4632C43.8728 70.4632 43.4328 70.4632 42.9828 70.4532C42.7328 70.4432 42.4828 70.4332 42.2228 70.4432C42.0028 70.4532 41.7828 70.4532 41.5628 70.4632C41.0928 70.4832 40.6128 70.4932 40.1328 70.4932C40.1528 70.4932 40.1828 70.4932 40.2028 70.4932C39.9628 70.4932 39.7128 70.4732 39.4728 70.4732C39.3028 70.4732 39.1428 70.4732 38.9728 70.4732C38.7528 70.4732 38.5328 70.4632 38.3128 70.4532C38.0828 70.4432 37.8528 70.4432 37.6228 70.4532C37.4928 70.4532 37.3528 70.4532 37.2228 70.4532C37.1428 70.4532 37.0728 70.4532 36.9928 70.4532C36.7728 70.4532 36.5528 70.4632 36.3428 70.4532C35.8728 70.4332 35.4128 70.4332 34.9428 70.4232C34.7228 70.4232 34.4928 70.4132 34.2728 70.4032C34.0328 70.3932 33.7928 70.3832 33.5528 70.3732C33.2828 70.3632 33.0128 70.3632 32.7328 70.3632C32.5328 70.3632 32.3328 70.3632 32.1328 70.3632C32.1528 70.3632 32.1728 70.3632 32.1828 70.3632C32.1528 70.3632 32.1228 70.3632 32.0928 70.3632H32.0828C32.0728 70.3632 32.0628 70.3632 32.0528 70.3632C32.0628 70.3632 32.0728 70.3632 32.0828 70.3632H32.0728H32.0828C32.0728 70.3632 32.0628 70.3632 32.0528 70.3632H32.0428H32.0328H32.0428C32.0328 70.3632 32.0128 70.3632 32.0028 70.3632H31.9928C31.9828 70.3632 31.9828 70.3632 31.9828 70.3632C31.9828 70.3632 31.9828 70.3632 31.9728 70.3632H31.9628H31.9528H31.9428H31.9528C31.9428 70.3632 31.9228 70.3632 31.9128 70.3632C31.9228 70.3632 31.9228 70.3632 31.9328 70.3632C31.9028 70.3632 31.8728 70.3632 31.8328 70.3632C31.8228 70.3632 31.8128 70.3632 31.8128 70.3632H31.8228C31.8128 70.3632 31.8128 70.3632 31.8028 70.3632C31.8028 70.3632 31.8028 70.3632 31.7928 70.3632C31.7828 70.3632 31.7928 70.3632 31.7928 70.3632C31.7828 70.3632 31.7828 70.3632 31.7728 70.3632C31.7828 70.3632 31.7828 70.3632 31.7928 70.3632C31.7928 70.3632 31.7928 70.3632 31.7828 70.3632C31.7728 70.3632 31.7528 70.3632 31.7428 70.3632C31.2528 70.3332 30.7628 70.3332 30.2728 70.3932C30.2828 70.3932 30.2928 70.3932 30.3028 70.3932C30.1628 70.4132 30.0128 70.4332 29.8728 70.4432C29.6728 70.4632 29.4728 70.4832 29.2728 70.5032C29.2028 70.4932 29.1428 70.4932 29.0728 70.4932C28.6028 70.4632 28.1228 70.4532 27.6428 70.4632C27.4028 70.4632 27.1628 70.4832 26.9228 70.5032C26.7028 70.5332 26.4728 70.5432 26.2528 70.5732C26.1628 70.5832 26.0728 70.6032 25.9828 70.6232C25.8628 70.6332 25.7428 70.6332 25.6228 70.6432C25.0128 70.5832 24.8428 69.6832 25.3928 69.4132C25.7928 69.3032 26.1928 69.2232 26.6028 69.1532C26.7928 69.4232 27.1228 69.5732 27.4628 69.6132C27.6228 69.6332 27.7828 69.6432 27.9428 69.6432C28.0528 69.6432 28.1628 69.6432 28.2728 69.6332C28.5428 69.6232 28.8128 69.5832 29.0728 69.5132C29.1228 69.5032 29.1728 69.4932 29.2228 69.4732C29.4128 69.4732 29.5928 69.4832 29.7828 69.4832C29.7728 69.4832 29.7728 69.4832 29.7628 69.4832C29.7728 69.4832 29.7728 69.4832 29.7828 69.4832C29.8028 69.4832 29.8128 69.4832 29.8328 69.4832C29.8428 69.4832 29.8628 69.4832 29.8728 69.4832H29.8628C30.4028 69.4932 30.9528 69.5132 31.4928 69.5132C31.6028 69.5132 31.7028 69.5132 31.8128 69.5132C32.4528 69.5032 33.1028 69.4932 33.7428 69.5032C33.7028 69.5032 33.6628 69.5032 33.6228 69.5032C34.5028 69.5132 35.3828 69.5032 36.2528 69.4532C36.6528 69.4332 37.0528 69.4032 37.4528 69.3632C37.5628 69.3532 37.6728 69.3432 37.7828 69.3232C40.8428 69.4332 43.8928 69.5432 46.9528 69.5532C46.9928 69.5632 47.0328 69.5732 47.0728 69.5832C47.2228 69.6232 47.3728 69.6632 47.5328 69.6632C47.5328 69.6632 47.5328 69.6632 47.5428 69.6632C47.6928 69.6632 47.8428 69.6232 47.9728 69.5532C48.1028 69.5532 48.2328 69.5532 48.3628 69.5532C48.3728 69.3932 48.3828 69.2432 48.3928 69.0832C48.4828 68.8432 48.4828 68.5732 48.4928 68.3232C48.4928 68.2232 48.4928 68.1232 48.4928 68.0232C48.5528 67.4032 48.5928 66.7932 48.5628 66.1732C48.5228 65.2232 48.5028 64.2432 48.7528 63.3232C48.9428 62.6232 50.0328 62.7832 50.0028 63.5132C49.9328 65.7732 50.2628 68.0832 49.6528 70.2832C49.4828 70.7332 49.0728 70.8532 48.6428 70.8832C48.6728 70.8732 48.6628 70.8632 48.6628 70.8632Z" fill="#9A00FF"/>
<path d="M31.7827 70.3535C31.7927 70.3535 31.7927 70.3535 31.8027 70.3535C31.7927 70.3635 31.7827 70.3635 31.7827 70.3535Z" fill="#9A00FF"/>
<path d="M25.4728 70.734C24.1928 70.374 24.9828 66.594 25.0728 65.524C25.1628 64.774 24.6828 62.444 25.7928 62.464C25.8228 62.464 25.8528 62.464 25.8828 62.474C25.9328 62.544 25.9828 62.624 26.0228 62.694C26.0628 62.754 26.1028 62.814 26.1428 62.874C26.1428 62.934 26.1428 63.004 26.1528 63.064C26.1728 63.374 26.1928 63.684 26.2028 63.994V63.984C26.2028 64.004 26.2028 64.034 26.2028 64.054C26.2028 64.054 26.2028 64.054 26.2028 64.044V64.054V64.064V64.054C26.2028 64.074 26.2028 64.094 26.2028 64.104C26.2028 64.114 26.2028 64.114 26.2028 64.124C26.2028 64.114 26.2028 64.114 26.2028 64.104C26.2128 64.394 26.2328 64.674 26.2528 64.964C26.2928 65.424 26.2828 65.894 26.3028 66.354C26.3128 66.554 26.3128 66.754 26.3228 66.954C26.2528 67.884 26.1728 68.814 26.1528 69.744C26.3028 70.054 26.2328 70.414 26.0128 70.604C25.9328 70.624 25.8628 70.644 25.7828 70.674C25.7228 70.694 25.6628 70.724 25.6128 70.754C25.5828 70.754 25.5228 70.744 25.4728 70.734Z" fill="#9A00FF"/>
<path d="M48.5429 63.7335C48.5629 63.3835 48.6129 63.0335 48.6729 62.6835C48.6929 62.6435 48.7228 62.6035 48.7428 62.5635C48.8328 62.4235 48.9229 62.2835 49.0129 62.1435C49.0929 62.0335 49.1828 61.9335 49.2728 61.8235C49.3028 61.8135 49.3228 61.8035 49.3528 61.7835C49.5928 61.6635 49.8428 61.5535 50.0828 61.4235C50.3128 61.2935 50.5429 61.1535 50.7629 61.0135C51.0129 60.8535 51.2528 60.6735 51.4928 60.4935C51.9028 60.1935 52.3128 59.8835 52.7228 59.5835C52.8128 59.5235 52.8929 59.4635 52.9829 59.3935C53.0129 59.3835 53.0328 59.3735 53.0628 59.3635C54.0028 58.8035 54.7529 57.9735 55.7029 57.4135C57.6629 56.2035 58.8828 54.1835 60.3328 52.4535C62.3428 48.9335 63.5728 45.0735 64.1028 41.1035C64.2328 37.6235 63.5628 34.1735 62.3628 30.9135C61.7428 28.9935 61.3228 27.0035 60.3928 25.2035C59.5728 23.6735 58.7728 22.1035 57.7228 20.7235C55.9428 18.6335 53.9728 16.7035 51.8828 14.9335C49.3828 13.0435 46.4428 11.8435 43.6128 10.5335C38.8328 8.77352 33.4328 9.65352 28.8628 11.6335C26.6928 12.7935 24.5128 14.0035 22.5628 15.5035C21.0328 16.7335 19.7828 18.0435 18.3528 19.3435C14.9628 22.4935 11.6728 26.1935 10.3428 30.7135C8.62284 39.1635 10.7528 48.6335 16.2928 55.2935C18.8028 58.1135 21.8928 60.2335 25.1528 62.0835C25.5028 62.3335 25.5728 62.8135 25.4428 63.1935C25.2228 63.7235 24.4928 63.6935 24.3128 63.2035C12.0428 57.9135 6.44284 44.1235 8.37284 31.3835C9.60284 25.3935 14.0829 20.7735 18.4529 16.7835C20.8529 14.2935 23.7128 12.3535 26.7428 10.7135C31.9728 7.89352 38.5228 6.75352 44.2128 8.79352C46.6028 9.75352 48.9129 10.9535 51.2029 12.1335C53.4329 13.4135 55.2229 15.2735 57.0129 17.1035C58.8929 18.8835 60.3529 21.0135 61.5129 23.3235C63.3229 26.2335 63.8229 29.6635 64.9829 32.8335C65.9329 36.0735 66.2528 39.5635 65.6928 42.9035C65.3528 44.5335 64.8528 46.1435 64.3828 47.7435C63.7228 49.7035 62.9929 51.5835 61.9529 53.3635C60.9629 54.7135 59.9329 55.7835 58.9229 57.0735C57.9629 58.1435 56.8228 58.7135 55.7528 59.5435C54.6628 60.6135 53.2529 61.0935 51.9529 61.8035C51.0229 62.2235 50.2528 62.8635 49.4128 63.4135C49.2328 63.6035 48.9728 63.7435 48.7128 63.7435C48.6228 63.7435 48.5829 63.7435 48.5429 63.7335Z" fill="#9A00FF"/>
<path d="M25.3626 64.1931C24.9126 63.9431 24.4826 63.5131 24.0426 63.2531C23.3626 62.7931 22.6326 62.3831 21.9826 61.9031C21.5426 61.6231 21.0226 61.4131 20.6226 61.0831C20.2026 60.7431 20.4126 60.0231 20.9426 59.9531C21.2326 59.9031 21.5426 60.0231 21.8026 60.1331C22.8526 60.6631 23.8826 61.2331 24.9426 61.7531C24.9726 61.7731 25.0026 61.7931 25.0226 61.8131C25.1626 61.9031 25.3026 61.9931 25.4426 62.0731C25.5326 62.1231 25.6326 62.1731 25.7226 62.2231C25.7326 62.2331 25.7326 62.2331 25.7426 62.2431C25.8426 62.3931 25.9326 62.5431 26.0326 62.6931C26.0726 62.7531 26.1126 62.8131 26.1526 62.8731C26.1526 62.9331 26.1526 63.0031 26.1626 63.0631C26.1726 63.3131 26.1926 63.5531 26.2026 63.8031C26.1126 64.0531 25.8526 64.2431 25.5926 64.2431C25.5126 64.2431 25.4426 64.2331 25.3626 64.1931Z" fill="#9A00FF"/>
<path d="M25.3926 70.6034C25.0126 70.3534 24.8727 69.7034 25.3227 69.4434C25.7527 69.3034 26.2127 69.2334 26.6727 69.1934C26.8727 69.4434 27.1727 69.5734 27.5027 69.6134C27.6627 69.6334 27.8227 69.6434 27.9827 69.6434C28.0927 69.6434 28.2026 69.6434 28.3126 69.6334C28.5826 69.6234 28.8526 69.5834 29.1126 69.5134C29.1626 69.5034 29.2126 69.4834 29.2726 69.4734C29.4526 69.4734 29.6327 69.4834 29.8227 69.4834C29.8227 69.4834 29.8126 69.4834 29.8026 69.4834C29.8226 69.4834 29.8526 69.4834 29.8726 69.4834C29.8826 69.4834 29.8926 69.4834 29.9026 69.4834C30.4426 69.4934 30.9927 69.5134 31.5327 69.5134C31.6427 69.5134 31.7527 69.5134 31.8527 69.5134C32.4027 69.5034 32.9426 69.5034 33.4926 69.5034C33.5026 69.8234 33.2727 70.1434 32.9427 70.1834C32.1727 70.2234 31.4127 70.2934 30.6627 70.3734C30.5327 70.3834 30.4127 70.3934 30.2827 70.4034H30.2927C30.1527 70.4234 30.0227 70.4434 29.8827 70.4534C29.6827 70.4734 29.4827 70.4934 29.2827 70.5134C29.2227 70.5034 29.1526 70.5034 29.0926 70.5034C28.6226 70.4734 28.1427 70.4634 27.6627 70.4734C27.4227 70.4734 27.1827 70.4934 26.9427 70.5134C26.7227 70.5434 26.4926 70.5534 26.2726 70.5834C26.1026 70.6034 25.9427 70.6334 25.7827 70.6934C25.7427 70.7134 25.7027 70.7234 25.6627 70.7434C25.5827 70.6934 25.4926 70.6534 25.3926 70.6034Z" fill="#9A00FF"/>
<path d="M48.353 70.4638C48.013 70.4338 47.8429 70.0938 47.7729 69.6338C48.0029 69.5838 48.223 69.4538 48.353 69.2538C48.523 68.9838 48.533 68.6338 48.533 68.3138C48.543 67.9038 48.483 67.5038 48.483 67.1038C48.483 66.9138 48.493 66.7238 48.503 66.5338V66.5438C48.513 66.1338 48.533 65.7238 48.543 65.3138C48.553 64.8238 48.543 64.3438 48.543 63.8538C48.543 63.8638 48.543 63.8638 48.543 63.8738C48.543 63.8438 48.543 63.8238 48.543 63.8038C48.543 63.8138 48.543 63.8338 48.543 63.8438C48.553 63.4638 48.603 63.0838 48.673 62.7038C48.683 62.6738 48.703 62.6538 48.713 62.6338C48.843 62.6738 48.9729 62.7538 49.0529 62.8638C49.3529 63.4038 49.283 64.0138 49.323 64.5838C49.413 65.8038 49.473 67.0638 49.263 68.2738C49.203 68.9438 49.363 70.4738 48.413 70.4738C48.393 70.4638 48.373 70.4638 48.353 70.4638Z" fill="#9A00FF"/>
<path d="M48.903 64.1236C48.703 63.9836 48.593 63.8236 48.543 63.6536C48.553 63.4536 48.5829 63.2436 48.6129 63.0436C48.8129 62.5636 49.303 62.0336 49.913 61.5236C49.973 61.4936 50.0329 61.4636 50.0829 61.4336C50.3129 61.3036 50.543 61.1636 50.763 61.0236C51.013 60.8636 51.253 60.6836 51.493 60.5036C51.743 60.3136 51.993 60.1336 52.253 59.9436C52.863 59.6136 53.383 59.3836 53.663 59.3236C54.423 58.9636 55.223 59.6736 54.543 60.3336C53.653 60.8736 52.6429 61.1336 51.8629 61.8336C51.1429 62.3836 50.373 62.7236 49.873 63.4936C49.803 63.8436 49.503 64.1736 49.153 64.1736C49.063 64.1836 48.983 64.1636 48.903 64.1236Z" fill="#9A00FF"/>
<path d="M25.0431 70.1132C24.6831 69.3532 24.9131 68.5832 24.8131 67.7932C24.6531 66.3232 24.8831 64.8532 24.4931 63.4232C24.3531 63.1332 24.0031 62.9832 24.0331 62.6132C24.1831 61.6532 25.2131 61.9632 25.5631 62.6232C25.7531 62.5932 25.9031 62.6132 26.0131 62.6632C26.0531 62.7232 26.0931 62.7832 26.1331 62.8432C26.1331 62.9032 26.133 62.9732 26.143 63.0332C26.163 63.3432 26.1831 63.6532 26.1931 63.9632V63.9532C26.1931 63.9832 26.1931 64.0132 26.1931 64.0332C26.1931 64.0232 26.1931 64.0232 26.1931 64.0132C26.1931 64.0232 26.1931 64.0432 26.1931 64.0532C26.1931 64.0432 26.1931 64.0432 26.1931 64.0332C26.1931 64.0432 26.1931 64.0432 26.1931 64.0532C26.1931 64.0632 26.1931 64.0632 26.1931 64.0732C26.1931 64.0832 26.1931 64.0832 26.1931 64.0932C26.1931 64.0832 26.1931 64.0832 26.1931 64.0732C26.2031 64.3632 26.2231 64.6432 26.2431 64.9332C26.2831 65.3932 26.2731 65.8632 26.2931 66.3232C26.3031 66.5732 26.3031 66.8332 26.3131 67.0832C26.3131 67.2032 26.3031 67.3332 26.3131 67.4532C26.3231 67.6632 26.3331 67.8732 26.3531 68.0832C26.3831 68.3432 26.4231 68.6032 26.4931 68.8532C26.5131 68.9032 26.5331 68.9532 26.5531 68.9932C26.5631 69.3032 26.5131 69.5932 26.2431 69.7732C26.1731 70.1132 25.8431 70.3332 25.5331 70.3332C25.3631 70.3832 25.1731 70.3032 25.0431 70.1132Z" fill="#9A00FF"/>
<path d="M48.2927 73.504C48.2027 73.484 48.1226 73.464 48.0326 73.444C48.0126 73.434 47.9827 73.424 47.9527 73.414C47.7727 73.354 47.5626 73.324 47.3726 73.304C46.9826 73.264 46.5926 73.234 46.1926 73.224C46.1726 73.224 46.1526 73.224 46.1326 73.224H46.1426C45.7626 73.214 45.3927 73.214 45.0127 73.204C44.6527 73.194 44.2926 73.164 43.9326 73.164C43.7126 73.164 43.4926 73.164 43.2726 73.154C43.0126 73.154 42.7526 73.154 42.4926 73.154C42.0426 73.144 41.5926 73.104 41.1426 73.114C40.9326 73.124 40.7227 73.134 40.5127 73.134C40.2927 73.134 40.0626 73.134 39.8326 73.144C39.3726 73.154 38.9127 73.184 38.4527 73.204C37.9727 73.234 37.4927 73.254 37.0127 73.254C36.5027 73.254 36.0026 73.254 35.5026 73.234C35.0226 73.214 34.5326 73.194 34.0526 73.164C33.5526 73.134 33.0426 73.104 32.5426 73.064C32.5126 73.064 32.4827 73.064 32.4527 73.054C32.4727 73.054 32.4826 73.054 32.4926 73.054C31.9126 73.014 31.3427 72.984 30.7627 72.974C30.7727 72.974 30.7926 72.974 30.8026 72.974C30.2126 72.964 29.6126 72.984 29.0226 73.014C28.7426 73.024 28.4726 73.044 28.1926 73.054C27.9126 73.064 27.6326 73.054 27.3526 73.064C27.3126 73.064 27.2626 73.074 27.2226 73.074C26.7626 73.054 26.3026 73.034 25.8526 73.024C23.3626 72.774 23.5026 71.074 25.1326 69.674C25.6926 69.174 26.6526 69.374 26.4026 70.234C26.3426 70.374 26.2526 70.474 26.1426 70.564C26.0126 70.584 25.8927 70.614 25.7627 70.654C25.5527 70.724 25.3726 70.854 25.3426 71.084C25.3326 71.204 25.3526 71.294 25.4126 71.374C25.3926 71.404 25.3726 71.444 25.3626 71.474C25.4126 71.474 25.4627 71.484 25.5127 71.484C25.5627 71.524 25.6227 71.564 25.6727 71.594C25.7227 71.664 25.8026 71.714 25.8726 71.754C26.1826 71.924 26.5526 71.924 26.9026 71.964C27.1626 72.004 27.4226 72.034 27.6926 72.054C27.8826 72.064 28.0726 72.074 28.2526 72.064C28.4126 72.054 28.5826 72.044 28.7426 72.034C28.7526 72.034 28.7626 72.034 28.7726 72.034C28.7626 72.034 28.7526 72.034 28.7426 72.034C28.8226 72.034 28.8926 72.034 28.9726 72.044C29.2126 72.064 29.4527 72.094 29.7027 72.104C29.9627 72.114 30.2126 72.114 30.4726 72.104C30.7226 72.094 30.9827 72.074 31.2327 72.074C31.4727 72.064 31.7026 72.064 31.9426 72.054C32.2926 72.054 32.6426 72.074 32.9926 72.084C33.3626 72.094 33.7326 72.084 34.1026 72.104C34.4926 72.124 34.8727 72.114 35.2627 72.094C35.5527 72.084 35.8426 72.074 36.1426 72.084C36.1226 72.084 36.1026 72.084 36.0926 72.084C36.4726 72.094 36.8527 72.124 37.2327 72.124C37.5727 72.134 37.9227 72.144 38.2627 72.144C38.9327 72.144 39.6026 72.144 40.2726 72.164H40.2627C40.2727 72.164 40.2826 72.164 40.3026 72.164H40.2927C40.3027 72.164 40.3026 72.164 40.3026 72.164C40.3126 72.164 40.3126 72.164 40.3226 72.164C40.5426 72.174 40.7726 72.174 40.9926 72.174C41.1526 72.174 41.3227 72.174 41.4827 72.174C41.6727 72.174 41.8626 72.174 42.0626 72.174C42.0426 72.174 42.0226 72.174 42.0026 72.174C42.2626 72.174 42.5226 72.174 42.7927 72.164C43.0326 72.144 43.2826 72.134 43.5226 72.124C43.5126 72.124 43.4927 72.124 43.4827 72.124C43.7527 72.124 44.0126 72.144 44.2826 72.144C44.5326 72.144 44.7826 72.124 45.0326 72.114H45.0427C45.0527 72.114 45.0626 72.114 45.0726 72.114C45.0726 72.114 45.0726 72.114 45.0626 72.114C45.0726 72.114 45.0726 72.114 45.0826 72.114C45.0826 72.114 45.0826 72.114 45.0726 72.114C45.3626 72.104 45.6426 72.084 45.9326 72.084C46.2126 72.084 46.4926 72.054 46.7826 72.054C46.7626 72.054 46.7426 72.054 46.7226 72.054C46.8926 72.054 47.0526 72.054 47.2126 72.044C47.2326 72.044 47.2427 72.044 47.2627 72.044C47.2527 72.044 47.2427 72.044 47.2327 72.044C47.3227 72.044 47.4227 72.044 47.5127 72.044C47.6027 72.044 47.6926 72.054 47.7927 72.054C47.9827 72.054 48.1726 72.024 48.3626 71.974C48.5026 71.934 48.6526 71.884 48.7526 71.764C48.7926 71.734 48.8426 71.694 48.8826 71.644C48.8826 71.614 48.8726 71.584 48.8726 71.554C48.8826 71.534 48.8926 71.514 48.8926 71.494C48.9126 71.444 48.9326 71.384 48.9326 71.324C48.9326 71.214 48.8926 71.124 48.8226 71.044C48.8226 71.044 48.8226 71.034 48.8126 71.034C48.7726 70.964 48.7026 70.904 48.6426 70.854C48.6226 70.834 48.5926 70.814 48.5726 70.804C48.5726 70.604 48.6526 70.404 48.8026 70.264C49.1026 69.984 49.5626 70.014 49.8526 70.304C51.0026 71.784 49.8726 73.274 48.3426 73.514C48.3326 73.514 48.3127 73.504 48.2927 73.504Z" fill="#9A00FF"/>
<path d="M34.0729 76.5739C34.0629 76.5739 34.0629 76.5739 34.0629 76.5739C34.0629 76.5739 34.0629 76.5739 34.0729 76.5739C34.0829 76.5739 34.0829 76.5739 34.0929 76.5739C34.0629 76.5739 34.0329 76.5739 34.0029 76.5739C34.0029 76.5739 34.0029 76.5739 34.0129 76.5739H34.0029C33.9929 76.5739 33.9729 76.5739 33.9629 76.5739C33.9729 76.5739 33.9829 76.5739 33.9929 76.5739C33.6729 76.5639 33.3429 76.5539 33.0229 76.5339C33.0229 76.5339 33.0229 76.5339 33.0129 76.5339C33.0029 76.5339 32.9929 76.5339 32.9729 76.5339C32.7229 76.5139 32.4829 76.4939 32.2329 76.4839C31.9729 76.4739 31.7129 76.4639 31.4529 76.4639C31.4629 76.4639 31.4629 76.4639 31.4729 76.4639C31.0829 76.4539 30.6929 76.4439 30.3029 76.4539H30.3129C30.2429 76.4539 30.1629 76.4639 30.0929 76.4639C30.0829 76.4639 30.0729 76.4639 30.0529 76.4639H30.0429C30.0129 76.4639 29.9729 76.4639 29.9329 76.4639C29.9029 76.4639 29.8729 76.4639 29.8529 76.4639C29.8729 76.4639 29.8929 76.4639 29.9129 76.4639C29.6629 76.4539 29.4029 76.4339 29.1529 76.4139C29.1629 76.4139 29.1629 76.4139 29.1729 76.4139H29.1629H29.1729C28.7729 76.3839 28.3729 76.3539 27.9629 76.3439C27.7729 76.3439 27.5929 76.3439 27.4029 76.3439C27.1929 76.3439 26.9729 76.3439 26.7529 76.3739C26.6629 76.3839 26.5829 76.3939 26.4929 76.4139C26.1929 76.4039 25.8829 76.4039 25.5829 76.4039C22.9829 76.1139 23.0029 73.7939 24.9129 72.4639C25.2829 72.1639 25.7529 71.8139 26.2629 71.9439C26.8829 72.0539 26.9329 72.8239 26.5129 73.1039C26.3929 73.1039 26.2829 73.1039 26.1629 73.1139C25.9529 73.1439 25.7529 73.2039 25.5529 73.2839C25.3729 73.3539 25.2029 73.4439 25.0629 73.5839C24.9729 73.6639 24.8829 73.7539 24.8229 73.8639C24.7429 73.9839 24.6829 74.1339 24.7029 74.2839C24.7429 74.5739 25.0129 74.7839 25.2829 74.8739C25.3729 74.9239 25.4729 74.9739 25.5729 75.0039C25.7029 75.0439 25.8329 75.0539 25.9629 75.0639H25.9529C25.9629 75.0639 25.9729 75.0639 25.9929 75.0639H25.9829H25.9929C26.1529 75.0739 26.3229 75.0839 26.4829 75.0839C26.4629 75.0839 26.4429 75.0839 26.4229 75.0839C26.5329 75.0839 26.6329 75.0939 26.7429 75.1039C26.8829 75.1239 27.0329 75.1439 27.1729 75.1539C27.2629 75.1639 27.3529 75.1639 27.4329 75.1739C27.6629 75.1939 27.8929 75.2039 28.1229 75.2039C28.2429 75.2039 28.3629 75.2139 28.4829 75.2139C28.6629 75.2139 28.8329 75.2139 29.0129 75.2139C29.1529 75.2139 29.2929 75.2139 29.4329 75.2139C29.4129 75.2139 29.4029 75.2139 29.3829 75.2139C29.7929 75.2239 30.2029 75.2239 30.6129 75.2339C30.6429 75.2339 30.6729 75.2339 30.6929 75.2339C31.0529 75.2339 31.4129 75.1939 31.7729 75.1539C31.7629 75.1539 31.7529 75.1539 31.7429 75.1539C31.9129 75.1439 32.0829 75.1439 32.2529 75.1339C32.4029 75.1239 32.5529 75.1139 32.7129 75.0939C32.7729 75.0839 32.8329 75.0839 32.8829 75.0739C33.0129 75.0839 33.1429 75.0939 33.2729 75.0939C33.4329 75.0939 33.6029 75.0939 33.7629 75.0839C34.0729 75.0839 34.3829 75.0839 34.6929 75.0939H34.6829C34.7729 75.0939 34.8629 75.0939 34.9529 75.0939C34.9329 75.0939 34.9129 75.0939 34.9029 75.0939C35.1329 75.0939 35.3529 75.0939 35.5829 75.0839C35.5629 75.0839 35.5429 75.0839 35.5329 75.0839C35.6229 75.0839 35.7229 75.0839 35.8129 75.0839C35.9829 75.0839 36.1529 75.0839 36.3229 75.0839C36.5829 75.0739 36.8329 75.0539 37.0929 75.0539C37.3129 75.0439 37.5429 75.0539 37.7629 75.0539C37.9729 75.0539 38.1829 75.0639 38.4029 75.0539C38.6429 75.0539 38.8829 75.0439 39.1329 75.0439C39.3429 75.0539 39.5629 75.0539 39.7829 75.0539C40.2329 75.0439 40.6729 75.0339 41.1229 75.0439C41.1129 75.0439 41.1029 75.0439 41.0929 75.0439C41.4129 75.0539 41.7229 75.0639 42.0429 75.0639C42.6929 75.0839 43.3329 75.0839 43.9729 75.0439C44.1429 75.0539 44.3029 75.0639 44.4729 75.0839C44.6629 75.1039 44.8629 75.1139 45.0529 75.1139C45.2329 75.1139 45.4129 75.1239 45.5929 75.1239C45.7729 75.1339 45.9529 75.1539 46.1329 75.1539C46.3129 75.1639 46.5029 75.1639 46.6829 75.1639C47.0329 75.1639 47.3729 75.1439 47.7229 75.1039C47.9229 75.0739 48.1329 75.0639 48.3329 75.0239C48.5229 74.9839 48.7429 74.9439 48.8829 74.8039C48.9729 74.7239 49.0329 74.6239 49.0829 74.5239C49.1129 74.5139 49.1329 74.5039 49.1629 74.4939C49.1529 74.4739 49.1429 74.4539 49.1329 74.4239C49.2029 74.2639 49.2029 74.0839 49.1229 73.9239C49.0329 73.7539 48.8529 73.6439 48.6729 73.5839C48.5429 73.5439 48.4129 73.5239 48.2829 73.4939C48.2729 73.4939 48.2529 73.4839 48.2429 73.4839C48.2129 73.2939 48.2729 73.0939 48.3929 72.9439C48.9629 72.3239 49.9929 73.0739 50.3629 73.6139C51.4329 75.5339 49.5029 76.2739 47.9129 76.4639C47.8029 76.4239 47.6929 76.3939 47.5729 76.3739C47.3429 76.3339 47.1029 76.3139 46.8629 76.3039C46.6129 76.2839 46.3629 76.2739 46.1229 76.2739C46.0129 76.2739 45.9029 76.2739 45.7929 76.2739C45.6829 76.2739 45.5729 76.2739 45.4629 76.2739C45.0429 76.2639 44.6329 76.2439 44.2129 76.2439C43.7929 76.2439 43.3729 76.2339 42.9529 76.2339C42.4929 76.2339 42.0429 76.2439 41.5829 76.2539C41.1429 76.2639 40.7029 76.2739 40.2629 76.3239H40.2729C40.2629 76.3239 40.2529 76.3239 40.2429 76.3239H40.2529C40.2529 76.3239 40.2529 76.3239 40.2629 76.3239C40.2629 76.3239 40.2629 76.3239 40.2529 76.3239C40.0329 76.3439 39.8129 76.3439 39.5929 76.3639C39.6229 76.3639 39.6429 76.3639 39.6629 76.3539C39.4229 76.3739 39.1829 76.4039 38.9429 76.4239H38.9329C38.9229 76.4239 38.9029 76.4239 38.8929 76.4239C38.7229 76.4339 38.5529 76.4539 38.3729 76.4639C38.1829 76.4739 38.0029 76.4739 37.8129 76.4739C37.5629 76.4839 37.3129 76.4939 37.0729 76.5039C37.0929 76.5039 37.1129 76.5039 37.1329 76.5039C37.0429 76.5039 36.9429 76.5139 36.8529 76.5139C36.7829 76.5139 36.7029 76.5139 36.6329 76.5239C36.6029 76.5239 36.5729 76.5239 36.5529 76.5239C36.4729 76.5239 36.3929 76.5339 36.3129 76.5339C36.3229 76.5339 36.3229 76.5339 36.3329 76.5339C36.3429 76.5339 36.3529 76.5339 36.3529 76.5339C36.3429 76.5339 36.3329 76.5339 36.3329 76.5339C35.9129 76.5439 35.4829 76.5439 35.0629 76.5539C34.8229 76.5639 34.5729 76.5639 34.3329 76.5639C34.2529 76.5839 34.1629 76.5839 34.0729 76.5739Z" fill="#9A00FF"/>
<path d="M25.6331 78.9636C23.4631 78.3836 24.5331 76.2136 25.9631 75.4536C26.5531 75.0836 27.1931 75.9036 26.7431 76.3636C26.4831 76.3936 26.2431 76.4536 26.0031 76.5636C25.8231 76.6536 25.6131 76.7736 25.5031 76.9536C25.3731 77.1636 25.3831 77.4036 25.5231 77.6036C25.5931 77.7136 25.6831 77.8136 25.7831 77.8936C25.9031 77.9936 26.0731 78.0336 26.2231 78.0736C26.4331 78.1236 26.6531 78.1436 26.8731 78.1536C27.0831 78.1636 27.2931 78.1736 27.5031 78.1736C27.5431 78.1736 27.5731 78.1736 27.6131 78.1736H27.6231H27.6131C27.9131 78.2236 28.2131 78.2836 28.5131 78.3136C28.8331 78.3436 29.1531 78.3336 29.4731 78.3436C29.7231 78.3636 29.9631 78.3936 30.2131 78.4136C30.4631 78.4436 30.7131 78.4536 30.9631 78.4636C30.9631 78.4636 30.9631 78.4636 30.9731 78.4636C30.9731 78.4636 30.9731 78.4636 30.9631 78.4636C30.9531 78.4636 30.9531 78.4636 30.9531 78.4636C30.9631 78.4636 30.9731 78.4636 30.9831 78.4636H30.9731C30.9831 78.4636 30.9831 78.4636 30.9931 78.4636C30.9931 78.4636 30.9931 78.4636 31.0031 78.4636C31.3731 78.4936 31.7331 78.5436 32.1031 78.5536C32.2931 78.5536 32.4831 78.5536 32.6831 78.5536C32.8731 78.5436 33.0631 78.5436 33.2531 78.5536C33.7231 78.5736 34.1831 78.5736 34.6531 78.6136C34.8231 78.6336 35.0031 78.6536 35.1731 78.6636C35.3231 78.6736 35.4631 78.6736 35.6231 78.6836C36.1531 78.7136 36.6831 78.7536 37.2031 78.7936C37.6931 78.8336 38.1731 78.8336 38.6631 78.8336C39.1831 78.8336 39.6931 78.8136 40.2031 78.8136C40.4531 78.8136 40.7131 78.8136 40.9631 78.8036C41.2031 78.7936 41.4331 78.7736 41.6731 78.7536C42.1531 78.7136 42.6431 78.7036 43.1331 78.6736C43.5731 78.6436 44.0131 78.5936 44.4431 78.5536C44.4231 78.5536 44.4031 78.5536 44.3831 78.5636C44.5931 78.5436 44.7931 78.5336 45.0031 78.5136C45.2031 78.4936 45.4031 78.4936 45.6031 78.4736C45.6131 78.4736 45.6331 78.4736 45.6431 78.4736C45.8531 78.4736 46.0731 78.4736 46.2831 78.4536C46.6431 78.4236 46.9931 78.3836 47.3431 78.3536C47.6031 78.3336 47.8631 78.2936 48.1131 78.2136C48.2131 78.1836 48.3131 78.1536 48.4031 78.1036C48.5431 78.0436 48.6931 77.9836 48.8131 77.8936C48.9331 77.8036 49.0431 77.7036 49.0931 77.5536C49.1231 77.4436 49.1331 77.3436 49.0931 77.2436C49.0531 77.1136 48.9531 77.0236 48.8431 76.9536C48.7431 76.8836 48.6431 76.8236 48.5331 76.7636C48.4531 76.7136 48.3631 76.6636 48.2831 76.6136C48.1431 76.0636 48.8131 75.4736 49.3731 75.9236C50.0531 76.4336 50.3431 77.4136 50.0431 78.2136C49.7831 78.8036 49.1131 79.0536 48.5531 79.2836C47.3431 79.6836 46.0731 79.6336 44.8131 79.5836C44.2331 79.5636 43.6531 79.5336 43.0731 79.5536C39.9131 79.5336 36.7631 79.5836 33.6031 79.6236C30.9531 79.4236 28.2431 79.5036 25.6331 78.9636Z" fill="#9A00FF"/>
<path d="M49.0728 77.6137C49.0728 77.6037 49.0828 77.5937 49.0828 77.5837C49.1128 77.4737 49.1228 77.3737 49.0828 77.2737C49.0428 77.1437 48.9428 77.0537 48.8328 76.9837C48.7328 76.9137 48.6328 76.8537 48.5228 76.7937C48.4028 76.7237 48.2828 76.6437 48.1528 76.5837C48.0028 76.5137 47.8628 76.4537 47.7028 76.4237C47.4728 76.2537 47.2628 76.0837 47.1128 75.8737C47.0028 75.6337 47.0228 75.3537 47.1728 75.1537C47.3528 75.1437 47.5328 75.1237 47.7028 75.1037C47.8628 75.0837 48.0228 75.0737 48.1828 75.0537C48.3728 75.1537 48.5528 75.2837 48.7328 75.3637C49.1728 75.7337 49.4828 76.2437 49.7228 76.7537C49.9228 77.2337 49.5028 77.6137 49.0928 77.6137C49.1028 77.6137 49.0828 77.6137 49.0728 77.6137Z" fill="#9A00FF"/>
<path d="M48.1329 75.8331C48.0029 75.5831 48.0429 75.2431 48.2529 75.0431C48.2829 75.0431 48.3129 75.0331 48.3429 75.0331C48.5329 74.9931 48.7529 74.9531 48.8929 74.8131C49.0029 74.7031 49.0729 74.5831 49.1429 74.4331C49.2129 74.2731 49.2129 74.0931 49.1329 73.9331C49.0429 73.7631 48.8629 73.6531 48.6829 73.5931C48.5529 73.5531 48.4229 73.5331 48.2929 73.5031C48.2029 73.4831 48.1229 73.4631 48.0329 73.4431C48.0129 73.4331 47.9829 73.4231 47.9529 73.4131C47.7829 73.3531 47.6029 73.3331 47.4229 73.3131C47.3529 73.2331 47.3029 73.1431 47.2729 73.0231C47.1829 72.6131 47.4829 72.2531 47.8829 72.2231C48.7729 72.2031 49.5829 72.8031 50.0229 73.5431C50.7429 74.5531 49.9829 75.8831 48.8729 76.1531C48.8229 76.1731 48.7729 76.1731 48.7229 76.1731C48.4729 76.1831 48.2429 76.0331 48.1329 75.8331Z" fill="#9A00FF"/>
<path d="M48.0227 76.0833C47.6827 76.0333 47.4227 75.7133 47.4327 75.3733C47.4327 75.2833 47.4528 75.2033 47.4828 75.1333C47.5628 75.1233 47.6528 75.1133 47.7328 75.1033C47.9328 75.0733 48.1428 75.0633 48.3428 75.0233C48.5328 74.9833 48.7527 74.9433 48.8927 74.8033C49.0027 74.6933 49.0727 74.5733 49.1427 74.4233C49.2127 74.2633 49.2128 74.0833 49.1328 73.9233C49.0428 73.7533 48.8627 73.6433 48.6827 73.5833C48.5527 73.5433 48.4228 73.5233 48.2928 73.4933C48.2028 73.4733 48.1228 73.4533 48.0328 73.4333C48.0028 73.4233 47.9828 73.4133 47.9528 73.4033C47.7728 73.3433 47.5627 73.3133 47.3727 73.2933C47.2827 73.2833 47.1828 73.2733 47.0928 73.2633C46.8628 73.0233 46.8627 72.5833 47.1227 72.3533C47.6727 71.9333 48.4827 72.2633 48.9927 72.6133C50.5227 73.6933 50.3427 76.0933 48.3927 76.0933C48.2727 76.1033 48.1527 76.0933 48.0227 76.0833Z" fill="#9A00FF"/>
<path d="M48.1127 72.8937C47.9027 72.5037 48.1228 72.1837 48.4228 71.9637C48.5728 71.9237 48.7127 71.8537 48.8027 71.7237C48.8527 71.6537 48.8727 71.5837 48.9027 71.5037C48.9227 71.4537 48.9428 71.3937 48.9428 71.3337C48.9428 71.2137 48.8928 71.1237 48.8228 71.0537C48.7828 70.9837 48.7127 70.9237 48.6527 70.8737C48.6027 70.8337 48.5428 70.7937 48.4828 70.7637C48.4428 70.7437 48.4027 70.7337 48.3627 70.7137C48.2627 70.6637 48.1528 70.6337 48.0428 70.6137C47.8728 70.5737 47.7128 70.5537 47.5428 70.5337C47.4728 70.5237 47.3928 70.5237 47.3228 70.5137C47.1828 70.1537 47.3828 69.6837 47.7928 69.6037C48.3828 69.5737 49.0128 69.8637 49.4728 70.2337C50.4328 71.0837 50.2427 72.8337 48.9327 73.2037C48.8527 73.2337 48.7828 73.2437 48.7028 73.2437C48.4628 73.2437 48.2327 73.1237 48.1127 72.8937Z" fill="#9A00FF"/>
<path d="M25.3527 72.6337C24.3127 72.2237 24.3327 70.9137 24.8827 70.1037C25.0827 69.7137 25.4826 69.2637 25.9626 69.4837C26.3026 69.6337 26.4227 70.0537 26.2327 70.3637C26.1927 70.4437 26.1526 70.5137 26.1126 70.5937C26.0126 70.6137 25.9026 70.6437 25.8026 70.6737C25.5926 70.7437 25.4127 70.8737 25.3827 71.1037C25.3527 71.3537 25.5226 71.5037 25.7126 71.6137C25.7626 71.6837 25.8427 71.7337 25.9127 71.7737C26.0227 71.8337 26.1427 71.8737 26.2627 71.9037C26.3227 72.2737 26.0427 72.6937 25.6327 72.6937C25.5327 72.6937 25.4427 72.6737 25.3527 72.6337Z" fill="#9A00FF"/>
<path d="M36.4631 86.383C34.0431 86.283 32.4731 84.843 31.6631 82.633C30.5231 83.653 28.6731 83.683 27.3831 82.923C27.0031 82.683 26.743 82.313 26.583 81.903C26.213 81.053 25.7631 80.163 25.8831 79.213C25.8231 78.583 26.6931 78.223 27.0731 78.753C27.3431 79.183 27.1631 79.723 27.3731 80.183C27.6331 80.683 27.7531 81.353 28.1631 81.733C28.8831 82.053 29.8031 82.123 30.4831 81.673C30.7831 81.473 31.0031 81.163 31.3231 81.003C31.7231 80.773 32.2331 80.893 32.5031 81.273C33.2631 82.323 33.6231 83.793 34.8131 84.463C36.0231 84.953 37.373 85.123 38.643 84.873C39.433 84.483 39.9731 83.863 40.5731 83.273C41.3631 82.613 41.5931 80.293 42.9831 81.113C43.8131 81.833 44.9031 81.963 45.8431 81.413C46.7731 81.063 47.1131 80.093 47.0631 79.163C46.8731 78.483 47.7931 77.963 48.2831 78.483C48.8831 79.313 48.593 80.563 48.143 81.403C47.113 83.133 44.4531 83.883 42.7531 82.713C41.6331 85.063 39.1531 87.043 36.4631 86.383Z" fill="#9A00FF"/>
<path d="M42.8326 69.6536C42.0826 64.1836 42.6026 58.6836 43.3726 53.2536C41.0026 53.1536 40.8026 50.4336 40.3626 48.6436C39.6926 51.5836 36.9226 52.8636 34.7426 50.4336C32.7826 48.5536 32.3926 45.6636 31.5026 43.2036C31.0326 46.5836 31.7226 50.7336 29.5826 53.5936C30.3226 56.4836 30.5726 59.4536 30.9926 62.3936C31.4226 64.7336 31.5826 67.2036 31.3826 69.5536C31.2626 70.0736 30.5026 70.2036 30.2026 69.7636C29.9526 69.4536 29.9726 68.9936 29.9726 68.6136C30.0126 66.5936 29.8826 64.5836 29.4926 62.6036C29.0526 59.8736 28.7826 57.1136 28.1526 54.4136C24.3726 55.4736 20.2726 49.5736 22.6526 46.4836C23.2226 45.9036 24.0626 46.1236 24.7526 46.3336C27.3226 46.7736 28.5226 49.2836 29.0626 51.5936C30.0326 47.9036 29.6626 44.0236 30.1426 40.2536C30.2226 38.6836 30.4426 37.1036 30.2826 35.5236C30.1026 33.9836 29.6626 32.5836 29.7626 31.1136C29.8526 30.6536 30.4326 30.4236 30.8226 30.6936C31.1326 30.9336 31.2426 31.3336 31.3826 31.6836C31.9926 33.4736 32.2526 35.3536 32.5326 37.2236C32.8126 40.0436 32.7926 42.9136 33.9326 45.5636C34.5726 47.3136 35.0926 49.4336 36.9726 50.2236C36.9526 50.2136 36.9226 50.2136 36.9026 50.2036C36.8826 50.1936 36.8626 50.1836 36.8526 50.1836C37.0126 50.2536 37.1826 50.2736 37.3526 50.2536C37.3326 50.2536 37.3126 50.2536 37.3026 50.2636C37.2826 50.2636 37.2626 50.2636 37.2326 50.2636C40.1926 50.0736 39.7226 39.0836 39.8026 36.7436C40.1226 33.5236 39.6526 30.2836 40.0026 27.0736C39.9726 26.2936 40.8326 25.7536 41.3226 26.5336C41.9126 31.2236 41.6526 36.0636 41.4726 40.7936C41.6626 43.6436 41.4726 46.5636 42.1226 49.3636C42.3226 50.0736 42.5026 50.7936 42.7526 51.4936C42.8726 51.7936 43.2626 51.8236 43.5426 51.8836C43.9226 48.8936 45.0726 43.6736 47.6926 41.9336C50.9926 40.8136 50.2026 45.9536 49.1526 47.5736C48.0026 49.5436 47.0626 52.0636 44.8926 53.1136C44.2926 57.0036 43.8626 60.9636 43.8726 64.8936C43.8226 66.4736 43.9426 67.9636 44.1026 69.5136C44.1526 70.2736 42.9726 70.4236 42.8326 69.6536ZM27.2726 53.0536C27.4026 53.0436 27.5226 53.0436 27.6526 53.0236C27.6926 53.0136 27.7426 53.0136 27.7826 53.0036C27.1126 50.3036 26.7526 47.9836 23.5626 47.4636C22.5726 49.4436 25.0726 53.1436 27.2726 53.0536ZM45.0826 51.2636C46.0526 50.2336 46.6426 49.0236 47.3226 47.8436C48.0926 46.4336 49.1326 44.7736 48.4926 43.1236C46.4526 44.3336 45.5126 49.0036 45.0826 51.2636Z" fill="#9A00FF"/>
</g>
<defs>
<filter id="filter0_d_24_4003" x="0" y="0.755859" width="73.9688" height="94.7559" filterUnits="userSpaceOnUse" color-interpolation-filters="sRGB">
<feFlood flood-opacity="0" result="BackgroundImageFix"/>
<feColorMatrix in="SourceAlpha" type="matrix" values="0 0 0 0 0 0 0 0 0 0 0 0 0 0 0 0 0 0 127 0" result="hardAlpha"/>
<feOffset dy="1"/>
<feGaussianBlur stdDeviation="4"/>
<feComposite in2="hardAlpha" operator="out"/>
<feColorMatrix type="matrix" values="0 0 0 0 0.603922 0 0 0 0 0 0 0 0 0 1 0 0 0 1 0"/>
<feBlend mode="normal" in2="BackgroundImageFix" result="effect1_dropShadow_24_4003"/>
<feBlend mode="normal" in="SourceGraphic" in2="effect1_dropShadow_24_4003" result="shape"/>
</filter>
</defs>
</svg>
