<svg width="68" height="118" viewBox="0 0 68 118" fill="none" xmlns="http://www.w3.org/2000/svg">
<path d="M45.9798 117.205C42.0198 117.035 38.3398 115.255 34.9998 113.245C32.3698 111.555 30.4698 108.985 28.6498 106.485C24.5498 100.575 22.0098 93.4246 22.8298 86.1746C18.8098 84.4646 15.0898 82.1046 11.5998 79.4946C9.11982 77.6146 7.13983 75.1846 5.28983 72.7046C2.43983 68.6446 0.0598274 63.9046 0.00982743 58.8546C-0.120173 55.1046 1.05982 51.4946 2.34982 48.0146C3.43982 45.1046 4.55982 42.1446 6.34982 39.5746C10.2398 34.0546 19.3898 29.0046 26.0798 28.2946C27.3198 20.0846 31.4898 12.1146 38.2098 7.10458C44.5098 2.98458 52.1998 1.5946 59.5198 0.374597C61.8998 0.0645968 64.3198 0.0545798 66.7098 0.29458C67.1898 0.30458 67.8898 0.404601 67.8698 1.0346C67.8398 1.5646 67.2998 1.70461 66.8498 1.66461C66.0298 1.67461 65.1998 1.65461 64.3798 1.66461C60.8498 1.68461 57.3898 2.42458 53.9698 3.20458C48.8098 4.35458 43.4498 5.7946 39.0698 8.8446C33.1798 13.5846 29.4298 20.6946 28.2298 28.1046C34.4798 28.1046 42.1198 28.9646 47.2398 32.7946C49.8398 35.0046 52.2798 38.0546 52.4298 41.5946C52.4498 45.4346 50.6998 49.6246 47.2798 51.5946C43.8798 53.3346 39.7098 52.7846 36.2098 51.6246C30.1698 49.4246 26.6198 43.1646 25.6698 37.0646C25.4098 34.9146 25.6498 32.7546 25.8098 30.6046C22.0598 31.1646 18.5698 32.7446 15.3898 34.7746C13.0998 36.2446 10.7598 37.7546 9.02982 39.8946C6.60982 42.8846 5.41983 46.6346 4.08983 50.1846C3.34983 52.2546 2.64983 54.3646 2.42983 56.5646C1.76983 61.7446 3.93982 66.7546 6.87982 70.9146C8.50982 73.1746 10.2698 75.3946 12.4198 77.1946C15.7198 79.7346 19.2998 81.9446 23.0598 83.7446C23.6898 78.1546 27.2698 71.4346 32.2898 68.6546C37.1598 65.6146 44.1198 66.9946 47.3098 71.8046C50.8298 76.4046 49.7498 83.7446 45.3698 87.4246C42.2398 90.3146 37.6198 90.7546 33.5798 90.1046C30.5798 89.6246 27.8398 88.2246 25.0398 87.1046C24.4398 93.1446 26.6098 98.9446 29.7298 103.985C33.0598 109.245 35.7998 111.935 41.6798 114.155C44.0698 115.185 46.6798 115.295 49.2398 115.305C49.9098 115.315 50.6898 115.065 51.2598 115.535C51.8898 116.045 51.3998 117.075 50.6398 117.095C49.0898 117.205 47.5298 117.325 45.9798 117.205ZM35.9398 88.0546C40.1598 88.2646 44.0298 86.7446 46.1398 82.9246C47.7598 79.6146 47.7398 75.1646 45.1398 72.3546C42.2698 68.5246 36.4498 68.2946 32.7498 71.0346C28.6398 73.7946 25.6198 79.7646 25.2098 84.6346C28.7098 85.9846 32.1198 87.9346 35.9398 88.0546ZM41.6198 50.6446C44.7198 50.9946 47.6698 49.9246 49.0898 47.0246C50.9898 43.5846 51.1098 39.8746 48.4598 36.7946C46.2998 33.7546 42.8098 32.1646 39.2498 31.4046C35.5398 30.6046 31.7098 30.1446 27.9098 30.3546C27.7298 32.9546 27.3798 35.6146 27.9898 38.1846C29.6698 45.1046 34.1398 50.3746 41.6198 50.6446Z" fill="#597FFC"/>
</svg>
