<svg width="88" height="75" viewBox="0 0 88 75" fill="none" xmlns="http://www.w3.org/2000/svg">
<g filter="url(#filter0_d_24_3217)">
<path d="M41.0925 13.1701C40.4125 13.0801 39.2225 13.1201 39.2725 12.1801C39.4625 10.5701 39.5325 8.93008 39.8625 7.33008C40.2725 5.76008 40.5725 4.14008 41.1425 2.62008C41.3425 1.91008 42.1725 1.30008 42.8025 1.93008C43.7525 3.02008 43.8225 4.54008 44.5025 5.78008C45.1625 7.57008 46.0225 9.34008 46.4225 11.2101C46.5025 12.1001 45.6125 12.5101 44.8525 12.5501C43.6225 12.8801 42.3525 13.1401 41.0925 13.1701ZM40.8325 11.4001C42.1125 11.4001 43.3525 11.0501 44.6125 10.8901C43.7825 8.79008 42.9625 6.68008 42.2325 4.55008C41.5825 6.80008 41.0825 9.07008 40.8225 11.4001H40.8325Z" fill="#D6FF00"/>
<path d="M65.8729 21.4896C64.5829 20.6696 63.4729 19.4396 62.3929 18.4196C61.9129 18.1296 61.9829 17.3996 62.4529 17.1396C62.5129 16.7496 62.9429 16.5896 63.2329 16.3996C64.4729 15.5796 65.8429 14.9696 67.1729 14.3096C68.9729 13.2796 73.8929 11.1496 71.6729 15.3296C70.7029 17.3396 69.2629 19.0596 68.0629 20.9196C67.6229 21.9096 66.7229 22.1796 65.8729 21.4896ZM66.6729 20.1096C67.7629 18.2196 69.2029 16.5696 70.2329 14.6396C68.1129 15.5996 66.0029 16.5496 63.9629 17.6696C64.3829 18.0196 64.7729 18.4196 65.1629 18.7996C65.6529 19.2396 66.1529 19.6896 66.6729 20.1096Z" fill="#D6FF00"/>
<path d="M77.4527 45.7796C75.8727 45.7196 76.3527 43.2996 76.1527 42.2096C76.0227 41.3596 75.9827 40.4996 75.9327 39.6496C75.7727 39.1296 76.1527 38.7196 76.6127 38.6796C78.0727 38.2696 79.6627 39.0096 81.1327 39.1896C82.2427 39.4096 86.3827 40.1396 84.8727 41.8996C82.5127 43.3296 80.2327 45.2996 77.4527 45.7796ZM77.8327 43.8296C77.8427 43.9096 77.8527 43.9896 77.8527 44.0596C79.6827 43.3796 81.2227 42.2096 82.8927 41.2396C81.1127 40.7696 79.3027 40.4096 77.4927 40.0496C77.6627 41.3096 77.7327 42.5696 77.8327 43.8296Z" fill="#D6FF00"/>
<path d="M21.7826 22.8304C20.2426 21.0604 19.6525 18.7404 18.5925 16.6904C18.2925 15.9204 17.2825 14.6304 18.4025 14.1004C18.7925 13.9704 19.2425 14.1704 19.5925 14.3304C20.5925 14.8104 21.5125 15.4304 22.4525 15.9904C23.7525 16.8204 24.9525 17.3904 26.2125 18.1704C27.2025 18.8004 26.6025 19.7704 25.9625 20.4104C25.1125 21.3804 24.0725 22.2204 23.0525 22.9604C22.7025 23.3404 22.0126 23.3404 21.7826 22.8304ZM22.4426 21.3804C23.3026 20.7204 24.1625 20.0004 24.8925 19.2204C23.2325 18.4104 21.7225 17.3504 20.1425 16.4004C20.9825 18.0304 21.3826 19.8604 22.4426 21.3804Z" fill="#D6FF00"/>
<path d="M8.0327 48.1498C6.1427 47.6898 4.05269 47.6898 2.30269 46.8498C1.37269 45.9198 2.81271 45.2698 3.57271 44.9998C5.35271 44.2398 7.19268 43.6198 8.98268 42.8998C11.2327 41.9098 11.3827 44.0398 11.2927 45.6998C11.2027 46.5398 11.5127 48.2298 10.2927 48.2298C9.55268 48.3998 8.7627 48.2498 8.0327 48.1498ZM9.58269 46.8398C9.60269 45.9998 9.63268 45.1698 9.64268 44.3298C8.14268 44.9498 6.61269 45.4898 5.08269 46.0498C6.59269 46.2798 8.06269 46.7598 9.58269 46.8398Z" fill="#D6FF00"/>
<path d="M11.2526 70.3801C9.88259 69.4601 12.3226 66.6601 12.7926 65.5701C13.4726 64.6401 13.8726 63.0901 14.9626 62.6101C16.0726 62.4301 16.7926 63.6201 17.5426 64.2601C18.0026 64.8001 19.1026 65.5401 18.4726 66.3101C18.4526 66.4601 18.3926 66.6101 18.2826 66.7301C17.3926 67.6201 16.2926 68.2601 15.1826 68.8201C14.2126 69.3201 13.3126 69.9701 12.3026 70.3701C11.9726 70.4701 11.5726 70.5601 11.2526 70.3801ZM14.7226 65.4401C14.1626 66.4001 13.5626 67.3401 13.0126 68.3001C14.3226 67.4801 15.8226 66.9601 17.0226 65.9701C16.4426 65.4301 15.9226 64.8301 15.3526 64.2801C15.1326 64.6701 14.9326 65.0601 14.7226 65.4401Z" fill="#D6FF00"/>
<path d="M75.3828 71.1201C73.6828 70.4501 72.0528 69.5901 70.4228 68.7601C69.6028 68.3601 69.6228 67.3601 69.9628 66.6401C70.2928 65.6701 71.0128 64.9501 71.6528 64.1901C71.8228 63.7401 72.4728 63.6101 72.8128 63.9501C73.3528 64.0201 73.5628 64.6501 73.8728 65.0301C74.4828 65.9001 75.1228 66.7601 75.7328 67.6401C76.2528 68.4301 76.8028 69.2501 77.1028 70.1601C77.3928 71.3601 76.2428 71.5601 75.3828 71.1201ZM72.4828 67.9901C72.9628 68.2201 73.4428 68.4501 73.9128 68.6901C74.2528 68.8601 74.5928 69.0401 74.9328 69.2201C74.5228 68.5901 74.0928 67.9801 73.6728 67.3601C73.2828 66.7901 72.8828 66.2301 72.5128 65.6501C72.0428 66.2101 71.6528 66.8101 71.3528 67.4801C71.7228 67.6501 72.1028 67.8201 72.4828 67.9901Z" fill="#D6FF00"/>
</g>
<defs>
<filter id="filter0_d_24_3217" x="0" y="0.666992" width="87.2002" height="73.667" filterUnits="userSpaceOnUse" color-interpolation-filters="sRGB">
<feFlood flood-opacity="0" result="BackgroundImageFix"/>
<feColorMatrix in="SourceAlpha" type="matrix" values="0 0 0 0 0 0 0 0 0 0 0 0 0 0 0 0 0 0 127 0" result="hardAlpha"/>
<feOffset dy="1"/>
<feGaussianBlur stdDeviation="1"/>
<feComposite in2="hardAlpha" operator="out"/>
<feColorMatrix type="matrix" values="0 0 0 0 0.839216 0 0 0 0 1 0 0 0 0 0 0 0 0 1 0"/>
<feBlend mode="normal" in2="BackgroundImageFix" result="effect1_dropShadow_24_3217"/>
<feBlend mode="normal" in="SourceGraphic" in2="effect1_dropShadow_24_3217" result="shape"/>
</filter>
</defs>
</svg>
