<svg width="139" height="230" viewBox="0 0 139 230" fill="none" xmlns="http://www.w3.org/2000/svg">
<g filter="url(#filter0_d_24_4478)">
<path d="M111.845 223.651C111.225 217.121 111.705 210.521 111.705 203.971C111.595 192.221 112.865 180.521 112.955 168.771C112.995 153.051 112.525 137.341 111.685 121.651C111.525 116.351 111.655 111.051 111.475 105.751C111.335 100.391 110.795 95.0507 110.305 89.7107C109.755 84.3007 109.495 78.8407 108.415 73.4907C107.105 67.0307 105.025 60.9007 102.155 55.0007C99.8249 50.4207 96.4549 46.4907 93.1749 42.6207C91.3949 40.5307 89.0749 38.8307 86.6549 37.6107C85.8549 37.2207 85.0449 36.8507 84.2349 36.4607C83.6649 36.1907 82.9348 35.8307 83.0148 35.1207C83.1048 34.5107 83.8248 34.2507 84.3348 34.5807C85.6548 35.1307 86.9948 35.6607 88.2748 36.3207C90.6348 37.5807 92.8148 39.2407 94.5748 41.2607C97.7148 44.8507 100.745 48.5607 103.115 52.7107C108.635 62.9607 111.255 74.4807 112.015 86.0407C112.595 91.8807 113.225 97.7107 113.485 103.571C113.825 111.221 113.565 118.881 114.025 126.521C114.835 142.241 115.205 158.001 114.915 173.751C114.665 181.591 114.115 189.411 113.765 197.241C113.705 203.411 113.465 209.591 113.395 215.761C113.355 218.351 113.305 220.941 113.595 223.521C113.595 224.001 113.185 224.411 112.705 224.401C112.285 224.411 111.935 224.081 111.845 223.651Z" fill="#FF00BF"/>
<path d="M131.685 219.66C131.335 201.44 131.345 183.16 130.365 164.94C130.295 147.63 130.435 130.31 130.255 112.99C129.895 98.49 130.505 83.92 128.795 69.49C128.175 63.54 126.745 57.73 125.295 51.94C124.415 48.2 123.675 44.4 122.255 40.81C120.935 37.6 119.465 34.45 117.605 31.54C115.135 28.1 112.425 24.69 109.465 21.75C107.585 20.2 105.645 18.72 103.675 17.29C101.275 15.83 98.795 14.49 96.395 13.03C96.355 12.97 96.295 12.92 96.245 12.87C96.205 12.83 96.1551 12.79 96.1151 12.75C96.0051 12.66 95.895 12.57 95.785 12.49C95.595 12.34 95.395 12.2 95.195 12.07C95.185 12.06 95.185 12.06 95.175 12.06L95.185 12.07L95.175 12.06C95.125 12.02 95.065 11.99 95.015 11.95C95.015 11.95 95.005 11.95 95.005 11.94C94.995 11.94 94.995 11.93 94.985 11.93C94.975 11.93 94.975 11.92 94.965 11.92C94.965 11.92 94.965 11.92 94.955 11.91C94.955 11.91 94.955 11.91 94.965 11.92C94.705 11.74 94.435 11.57 94.165 11.39C94.335 10.06 96.245 10.86 97.105 11.41C101.585 13.79 105.935 16.37 109.875 19.59C112.305 21.48 114.115 24 116.085 26.32C121.505 32.77 124.905 40.76 126.685 48.95C127.655 53.25 128.795 57.5 129.685 61.82C130.795 68.11 131.475 74.48 131.775 80.86C132.555 106.8 132.335 132.75 132.355 158.7C132.235 167.36 132.905 176 133.035 184.67C133.235 191.03 133.095 197.38 133.215 203.75C133.195 207.21 133.205 210.67 133.215 214.13C133.145 215.97 133.335 217.85 133.115 219.67C133.005 219.98 132.705 220.14 132.405 220.14C132.105 220.14 131.805 219.97 131.685 219.66Z" fill="#FF00BF"/>
<path d="M95.1748 12.0508C95.1848 12.0508 95.1848 12.0508 95.1748 12.0508C95.1848 12.0508 95.1848 12.0508 95.1748 12.0508C95.1848 12.0508 95.1848 12.0608 95.1848 12.0608C95.1848 12.0508 95.1848 12.0508 95.1748 12.0508Z" fill="#FF00BF"/>
<path d="M99.5451 14.4799C99.0651 14.2099 98.6051 13.8999 98.1551 13.5899C98.0251 13.6399 97.8851 13.6399 97.7551 13.5999C97.1151 13.4499 94.2551 11.9999 92.6851 10.6399C92.7451 10.5299 92.8051 10.4099 92.8651 10.2999C92.9751 10.0799 93.0951 9.85991 93.1951 9.62991C93.2851 9.42991 93.3751 9.22994 93.4651 9.02994C93.4751 8.98994 93.4951 8.95992 93.5051 8.91992C94.2551 9.32992 94.9951 9.74991 95.7151 10.2199C97.2351 11.2699 98.7751 12.3299 100.265 13.3999C100.785 13.8099 100.405 14.5699 99.8651 14.5699C99.7751 14.5799 99.6651 14.5499 99.5451 14.4799Z" fill="#FF00BF"/>
<path d="M85.4849 36.4904C85.0349 36.3804 84.5549 36.3004 84.1149 36.2804C83.3049 36.0804 82.5249 35.7603 81.7549 35.4103C81.7649 35.3703 81.7649 35.3303 81.7749 35.2903C81.7749 35.3003 81.7749 35.3004 81.7749 35.3104C81.7749 35.3004 81.7749 35.2903 81.7749 35.2903V35.2804C81.8249 34.9304 81.8549 34.5704 81.8649 34.2104C81.8749 34.0404 81.8749 33.8703 81.8749 33.7003C81.8749 33.6703 81.8749 33.6404 81.8749 33.6104C82.2549 33.7204 82.6449 33.9304 82.9849 34.0204C83.9349 34.5004 84.8149 34.6904 85.7549 35.1204C86.6849 35.3904 86.6549 36.5304 85.8049 36.5304C85.7049 36.5304 85.5949 36.5204 85.4849 36.4904Z" fill="#FF00BF"/>
<path d="M19.4349 8.1004C14.8649 7.9404 10.2649 7.48041 5.69492 7.83041C4.95492 7.86041 4.73489 6.78041 5.38489 6.46041C5.92489 6.15041 6.76492 6.14041 7.31492 6.08041C11.8549 5.72041 16.3949 6.1504 20.9349 6.2004C26.9249 6.1904 32.8849 5.6704 38.8549 5.3504C39.5149 5.3104 40.1849 5.33041 40.8449 5.24041C41.2549 5.11041 41.7349 5.30041 41.8549 5.74041C42.1449 7.14041 39.5549 6.78041 38.7949 6.96041C32.2949 7.40041 25.9449 8.1704 19.4349 8.1004Z" fill="#FF00BF"/>
</g>
<defs>
<filter id="filter0_d_24_4478" x="0" y="0.200195" width="138.225" height="229.201" filterUnits="userSpaceOnUse" color-interpolation-filters="sRGB">
<feFlood flood-opacity="0" result="BackgroundImageFix"/>
<feColorMatrix in="SourceAlpha" type="matrix" values="0 0 0 0 0 0 0 0 0 0 0 0 0 0 0 0 0 0 127 0" result="hardAlpha"/>
<feOffset/>
<feGaussianBlur stdDeviation="2.5"/>
<feComposite in2="hardAlpha" operator="out"/>
<feColorMatrix type="matrix" values="0 0 0 0 1 0 0 0 0 0 0 0 0 0 0.74902 0 0 0 0.5 0"/>
<feBlend mode="normal" in2="BackgroundImageFix" result="effect1_dropShadow_24_4478"/>
<feBlend mode="normal" in="SourceGraphic" in2="effect1_dropShadow_24_4478" result="shape"/>
</filter>
</defs>
</svg>
