<svg width="64" height="65" viewBox="0 0 64 65" fill="none" xmlns="http://www.w3.org/2000/svg">
<g filter="url(#filter0_d_24_3854)">
<path d="M32.8289 61.5005C27.1389 61.4105 21.7889 59.5405 16.8689 56.8405C13.3189 54.5805 9.79886 52.0806 6.96886 48.9306C0.688862 40.5406 0.268867 28.0706 6.23887 19.4006C10.3189 13.5406 15.1389 7.24056 21.7489 4.17056C25.5889 2.36056 29.7689 0.730545 34.0889 1.44054C35.8889 1.17054 37.7189 2.55056 39.2789 3.17056C41.3189 3.93056 43.4489 4.42055 45.4089 5.40055C49.1289 7.90055 52.3589 11.1906 54.8989 14.8706C57.1589 17.8406 58.5689 21.3006 59.7689 24.8106C60.7389 27.3606 61.4489 30.0406 61.4989 32.7906C61.5589 37.4706 60.7689 42.1805 59.1289 46.5605C57.3389 50.8205 53.8989 54.4405 49.8489 56.6305C47.4089 57.9905 44.8289 59.0906 42.1889 59.9906C39.2389 61.2706 36.0389 61.6805 32.8289 61.5005ZM35.1789 59.5206C37.3589 59.5406 39.4489 58.9506 41.4589 58.1506C44.2289 57.2006 46.8889 55.9905 49.4589 54.5905C52.3489 52.9805 54.6889 50.4306 56.4189 47.6406C58.1489 44.3106 58.8189 40.5105 59.3189 36.8205C59.7589 32.9005 59.2489 28.9505 57.7289 25.3005C55.6589 18.7605 51.7489 12.8706 46.4289 8.53056C44.3189 6.23056 41.0989 5.86055 38.3789 4.65055C36.7689 3.92055 35.1489 2.86056 33.3589 2.83056C29.7889 2.60056 26.4489 3.98055 23.2789 5.44055C19.5389 6.98055 16.4589 9.63055 13.7589 12.6005C9.84887 17.1105 5.72886 21.9606 4.40886 27.9305C3.43886 32.7705 3.65887 37.9006 5.64887 42.4606C6.66887 45.0606 8.02886 47.5706 10.1889 49.4006C13.2889 52.0106 16.5489 54.5606 20.2489 56.2706C25.0189 58.4506 29.9289 59.8106 35.1789 59.5206Z" fill="#FF00BF"/>
<path d="M29.7989 40.6208C24.8589 39.0308 24.7889 33.7808 23.9689 29.5308C23.5489 27.2208 20.8889 23.9208 18.4089 25.7008C16.0189 28.1508 15.6689 32.0508 14.8489 35.2508C14.3089 39.1908 11.1589 40.2608 7.73888 38.8208C5.70888 37.9208 4.34888 36.0308 3.54888 34.0208C3.30888 33.3008 2.79888 32.4308 3.18888 31.7008C3.66888 30.9908 4.77888 31.7508 4.53888 32.4708C5.22888 34.1808 6.18888 35.9208 7.79888 36.9208C9.03888 37.6108 10.7789 38.0408 12.0689 37.2808C13.1789 36.1508 13.0489 34.3308 13.4289 32.8808C13.9889 30.1108 14.7589 27.2208 16.5989 25.0108C19.0289 22.3008 22.6189 23.7108 24.4189 26.3608C27.1489 30.1308 25.1789 36.6808 30.1089 38.8608C35.3989 41.4308 34.4689 30.5208 35.8189 27.6808C36.8989 24.1108 40.6689 21.1508 43.6589 24.7608C45.5189 27.0508 45.3589 30.2308 45.6889 33.0108C45.7189 34.4808 46.7689 37.3308 48.6389 36.1508C51.2189 33.6508 50.3289 29.5708 51.5789 26.4608C52.6889 23.8108 55.2289 22.7508 57.5889 24.7008C58.1689 25.2008 58.5989 25.8508 59.0289 26.4808C59.2689 26.7608 59.2989 27.1708 59.0389 27.4508C58.7889 27.7208 58.3089 27.7708 58.0389 27.4908C57.3389 26.8208 56.8889 25.8608 55.9989 25.4108C55.5789 25.2608 55.1189 25.1008 54.6689 25.1508C53.8689 25.5408 53.2789 26.3408 53.0089 27.1808C52.1289 30.4408 52.4489 34.2508 50.1689 36.9808C47.9889 39.4808 44.6689 37.5308 44.1189 34.7108C43.3389 31.7608 44.7289 24.7808 40.2489 24.6908C36.4589 26.6308 37.1889 32.1308 36.1989 35.6808C35.5989 38.8908 33.4889 42.0608 29.7989 40.6208Z" fill="#FF00BF"/>
<path d="M4.42892 35.2508C4.18892 35.0808 4.07892 34.7608 3.96892 34.5008C3.91892 34.3808 3.86892 34.2508 3.81892 34.1308C3.53892 34.0008 3.42892 33.6808 3.29892 33.4108C2.71892 31.9608 2.63892 30.3808 2.63892 28.8408C2.71892 28.1108 2.44892 26.5708 3.35892 26.4708C3.69892 26.4508 3.96892 26.7208 3.98892 27.0408C4.36892 27.4008 4.10892 27.9708 4.12892 28.4308C4.11892 29.5708 4.34893 30.8308 4.58893 31.9108C4.83893 32.8708 5.27891 33.8108 5.41891 34.7908C5.38891 35.2708 4.80892 35.5308 4.42892 35.2508Z" fill="#FF00BF"/>
<path d="M59.6189 32.4007C59.4789 31.0107 58.9789 29.6607 58.4289 28.4007C58.1289 27.6207 57.8889 27.0207 57.5089 26.3207C57.3689 26.0407 57.2389 25.7307 57.3989 25.4307C57.5689 25.0807 58.0889 24.9707 58.3789 25.2407C58.6889 25.5607 58.8289 26.0107 59.0489 26.3907C59.8589 28.3507 60.7089 30.2307 60.9189 32.3507C60.9389 33.1807 59.6789 33.2407 59.6189 32.4007Z" fill="#FF00BF"/>
</g>
<defs>
<filter id="filter0_d_24_3854" x="0" y="0.270508" width="63.502" height="64.2705" filterUnits="userSpaceOnUse" color-interpolation-filters="sRGB">
<feFlood flood-opacity="0" result="BackgroundImageFix"/>
<feColorMatrix in="SourceAlpha" type="matrix" values="0 0 0 0 0 0 0 0 0 0 0 0 0 0 0 0 0 0 127 0" result="hardAlpha"/>
<feOffset dy="1"/>
<feGaussianBlur stdDeviation="1"/>
<feComposite in2="hardAlpha" operator="out"/>
<feColorMatrix type="matrix" values="0 0 0 0 1 0 0 0 0 0 0 0 0 0 0.74902 0 0 0 1 0"/>
<feBlend mode="normal" in2="BackgroundImageFix" result="effect1_dropShadow_24_3854"/>
<feBlend mode="normal" in="SourceGraphic" in2="effect1_dropShadow_24_3854" result="shape"/>
</filter>
</defs>
</svg>
