<svg width="163" height="205" viewBox="0 0 163 205" fill="none" xmlns="http://www.w3.org/2000/svg">
<path d="M41.2537 27.7796C36.6037 26.9196 31.9137 26.4596 27.1937 26.9296C25.0837 26.9296 22.9737 26.9496 20.8637 26.9596C19.0937 26.8596 17.2937 26.6896 15.5337 26.8396C14.4437 26.7296 11.4537 27.9896 11.5237 26.1396C11.6337 25.4996 12.3137 25.2596 12.7537 24.8596C15.5637 21.9596 17.4637 18.3396 19.6837 15.0096C21.8637 12.0196 23.8337 8.91959 25.6037 5.66959C26.4637 3.90959 27.0837 1.99958 28.2237 0.399582C28.7737 -0.190418 29.8737 0.37958 29.6937 1.17958C29.6237 1.50958 29.4837 1.81959 29.3637 2.12959C28.1837 4.64958 27.3337 7.23959 25.8437 9.59959C24.3837 12.0196 22.7837 14.3396 21.1037 16.6096C19.3237 19.5296 17.4737 22.4196 15.2737 25.0396C18.0937 24.8096 20.9137 25.1696 23.7337 25.0196C26.8637 25.0796 29.9937 24.7096 33.1237 24.8296C34.5437 24.9896 42.5737 25.2796 42.0337 27.2696C41.9237 27.5796 41.5937 27.8196 41.2537 27.7796Z" fill="#9A00FF"/>
<path d="M14.0837 26.3892C12.8637 25.6392 14.6537 24.5192 15.2337 23.9792C17.6537 21.8692 20.6737 20.7292 23.7237 19.8492C28.9137 17.9492 34.3937 16.9992 39.7337 15.7392C46.7437 14.1292 54.0237 14.0592 61.1637 14.6792C62.5237 14.8192 63.8937 14.9592 65.2637 15.0192C66.1337 15.1892 67.8137 14.7292 67.9537 15.9192C67.9337 17.2592 65.5337 16.5692 64.6637 16.6492C62.3437 16.4992 60.0337 16.2792 57.7137 16.1792C54.0037 15.8992 50.2837 16.1592 46.5837 16.3692C41.4737 16.9092 36.4337 18.3792 31.4637 19.3692C29.1337 19.8692 26.8537 20.5392 24.5937 21.3092C22.0837 22.1092 19.4837 22.7792 17.3037 24.3292C16.5137 24.8892 15.7037 25.4392 14.9837 26.0992C14.8037 26.3992 14.4037 26.4892 14.0837 26.3892Z" fill="#9A00FF"/>
<path d="M136.324 53.55C133.674 50.47 131.134 47.27 128.164 44.48C125.774 42.4 123.334 40.38 120.874 38.38C115.934 34.34 110.744 30.57 105.134 27.51C101.644 25.78 98.0935 23.9 94.1335 23.65C93.4535 23.5 92.5635 23.74 92.0535 23.18C91.6635 22.66 92.2635 21.94 92.8535 22.12C104.364 21.69 121.134 36 129.584 43.47C131.904 45.61 133.824 48.11 135.854 50.51C136.324 51.27 138.214 52.78 137.374 53.59C137.094 53.85 136.594 53.86 136.324 53.55Z" fill="#9A00FF"/>
<path d="M111.514 44.4993C108.994 41.1493 105.864 38.2593 103.074 35.1193C100.424 32.3893 98.0836 29.3293 95.0936 26.9493C93.6836 25.5393 91.5436 24.5093 90.7136 22.6593C90.0636 19.8693 99.2336 19.5293 101.194 18.8393C105.244 18.2193 109.374 18.0393 113.414 17.3193C115.874 16.9793 118.314 16.5293 120.794 16.3493C121.834 16.3693 122.924 15.9993 123.934 16.3693C124.554 16.5993 124.444 17.5893 123.804 17.7093C120.724 18.3093 117.614 18.7093 114.514 19.1793C112.744 19.4793 110.994 19.8793 109.204 19.9893C106.994 20.2493 104.614 20.5693 102.424 20.7293C99.2236 21.4093 95.7836 21.6993 92.6836 22.5393C94.7136 24.1993 96.8036 25.7893 98.7436 27.5693C100.584 29.4493 102.334 31.4193 104.104 33.3693C105.324 34.6393 106.544 35.8893 107.664 37.2493C109.284 39.0993 111.104 40.8293 112.334 42.9893C112.514 43.3393 112.744 43.7293 112.684 44.1393C112.564 44.6793 111.874 44.8893 111.514 44.4993Z" fill="#9A00FF"/>
<path d="M137.874 126.99C136.854 126.47 137.884 125.2 138.164 124.59C139.704 121.49 140.784 118.27 141.734 114.97C143.044 109.45 144.114 103.85 144.784 98.2197C144.974 94.8897 145.224 91.5597 145.294 88.2197C145.374 82.5097 144.284 76.9797 143.704 71.3397C143.764 70.8497 144.414 70.5897 144.784 70.9297C145.124 71.2497 145.184 71.7797 145.264 72.2197C145.764 75.0797 146.274 77.9397 146.624 80.8197C147.384 87.4997 147.054 94.2497 146.354 100.92C145.594 105.87 144.714 110.84 143.394 115.68C142.464 118.92 141.294 122.11 139.754 125.11C139.274 125.8 138.964 127.36 137.874 126.99Z" fill="#9A00FF"/>
<path d="M134.293 99.3696C133.803 98.8296 134.443 98.3096 134.673 97.8196C136.303 94.7596 137.873 91.6496 138.863 88.3096C140.193 83.7896 141.063 79.3095 142.093 74.7395C142.363 73.3995 142.513 71.9796 142.803 70.6496C142.893 70.1796 143.073 69.6396 143.563 69.4696C145.063 69.1296 146.103 71.6695 146.883 72.6595C147.713 73.9495 148.583 75.2096 149.453 76.4796C153.623 82.5596 158.013 88.5595 162.773 94.1595C163.043 94.4495 163.033 94.9396 162.733 95.2096C162.433 95.4896 161.963 95.4596 161.683 95.1696C161.003 94.4496 160.383 93.6696 159.733 92.9196C154.023 86.2096 149.023 78.9396 144.223 71.5596C143.913 74.2496 143.323 76.8996 142.713 79.5296C141.453 85.6496 139.983 91.8396 136.763 97.2596C136.243 97.9696 135.403 100.26 134.293 99.3696Z" fill="#9A00FF"/>
<path d="M1.14378 203.84C-3.21622 195.48 5.83379 190.58 12.4038 187.92C21.6038 184.73 31.3338 183.47 40.9238 181.99C48.8638 180.89 56.9538 181.09 64.8338 179.49C78.4838 176.35 92.8038 173.33 104.154 164.65C107.484 161.92 110.604 158.93 113.764 155.99C115.784 153.84 118.124 152 120.074 149.78C121.544 148 122.824 146.08 124.104 144.16C125.034 142.72 125.924 141.25 126.764 139.75C127.554 138.64 128.654 135.39 129.994 135.96C130.394 136.17 130.404 136.71 130.124 136.98C130.054 137.03 129.954 137.19 129.944 137.2C126.864 143.02 123.794 149.11 118.864 153.62C114.254 157.93 109.794 162.43 104.904 166.42C94.9338 174.04 82.6638 177.67 70.5438 180.22C63.3138 182.15 55.8338 182.9 48.3738 183.22C42.8438 183.65 37.3738 184.52 31.9238 185.51C27.5738 186.21 23.5038 186.86 19.3138 187.97C15.9038 188.72 12.3638 189.83 9.3238 191.45C5.6938 193.37 0.73379 196.35 2.06379 201.16C2.22379 201.89 2.43378 202.61 2.61378 203.34C2.70378 203.71 2.52378 204.1 2.17378 204.25C1.78378 204.42 1.32378 204.23 1.14378 203.84Z" fill="#9A00FF"/>
<path d="M129.874 164.649C129.504 164.639 129.144 164.329 129.134 163.949C129.094 162.919 129.114 161.899 129.134 160.869C129.164 159.089 129.054 157.319 129.084 155.539C129.384 149.079 129.084 142.619 129.174 136.149C126.524 138.219 123.544 139.759 120.884 141.799C117.444 144.139 113.494 145.649 109.624 147.129C108.094 147.599 106.554 148.019 105.084 148.659C104.674 148.829 104.274 149.009 103.864 149.179C103.434 149.369 102.794 149.719 102.374 149.329C101.724 148.659 102.364 148.109 103.034 147.839C104.924 146.769 106.974 146.039 109.044 145.419C112.254 144.139 115.434 142.759 118.454 141.069C120.884 139.459 123.414 137.649 125.914 136.259C126.674 135.789 127.414 135.299 128.174 134.819C128.804 134.479 129.474 133.679 130.224 134.149C130.584 134.379 130.714 134.839 130.774 135.239C130.914 136.169 130.914 137.109 130.924 138.049C130.914 140.789 130.974 143.539 131.054 146.279C131.134 150.759 130.744 155.239 130.874 159.719C130.874 160.619 130.844 161.519 130.814 162.429C130.724 163.209 130.964 164.609 129.874 164.649Z" fill="#9A00FF"/>
</svg>
