<svg width="71" height="164" viewBox="0 0 71 164" fill="none" xmlns="http://www.w3.org/2000/svg">
<path d="M32.7226 162.568C32.5326 160.548 32.9126 158.348 33.1326 156.398C33.3126 146.768 32.9826 137.128 32.5926 127.508C32.5126 124.148 32.6126 120.788 32.9826 117.458C33.0626 115.068 34.8026 107.958 32.7126 106.738V106.728C27.9926 106.718 23.5026 110.448 18.6926 108.738C15.8826 107.878 13.4026 105.638 12.7726 102.708C12.0426 99.5579 13.7726 95.9479 16.9926 95.0679C19.9826 94.0979 23.2126 94.1479 26.3026 94.4979C30.1526 94.9279 33.6426 96.1479 37.4926 96.0979C43.1626 95.8479 56.9226 97.1279 50.9926 87.6379C42.7126 77.0879 26.4126 86.2079 15.3426 85.5579C11.3826 85.4879 7.23257 84.8979 3.91257 82.5979C0.322571 80.2779 -1.01743 76.698 0.822575 72.7179C2.61257 68.658 6.25258 65.2479 10.5426 63.9879C12.9426 63.3379 15.4726 63.5679 17.9326 63.5079C21.5126 63.5279 25.0926 63.2879 28.6626 63.4779C38.8026 64.2579 56.6626 68.1379 64.4326 59.9879C66.4826 57.548 68.8526 54.7479 68.8426 51.3979C68.6926 49.8079 67.4326 48.5879 66.2526 47.6779C63.8626 45.9379 61.2426 44.4179 58.3926 43.5879C56.1326 42.9879 53.7726 43.3379 51.4726 43.2979C48.1526 43.2579 44.8226 43.3379 41.5126 43.2479C38.7326 42.9679 34.1026 43.4479 33.5126 39.8279C32.9026 35.7579 33.2526 31.6079 33.0126 27.5079C32.5426 18.9379 32.8426 10.3579 32.5026 1.77794C32.5226 1.26794 32.5126 0.637946 32.9426 0.287946C33.5226 -0.152054 34.3526 0.627943 33.9326 1.23794C34.0926 5.50794 34.4726 9.67794 34.4226 13.9379C34.3226 19.6879 34.6026 25.4179 34.8126 31.1479C34.8726 33.4079 34.7826 35.6679 34.8826 37.9279C34.9926 38.7379 34.9726 39.6679 35.4326 40.3679C36.2026 41.0779 37.3526 41.0679 38.3326 41.2279C40.4726 41.4379 42.6226 41.4679 44.7726 41.4579C47.3226 41.4179 49.8726 41.3979 52.4226 41.3679C54.8926 41.2979 57.4226 41.1179 59.7926 41.9679C70.4026 46.2179 74.8026 51.0079 66.2326 60.8779C59.9926 67.7779 49.6626 67.2379 41.1326 66.8079C36.5526 66.5879 32.0626 65.5179 27.4726 65.3879C24.2426 65.3179 21.0126 65.498 17.7826 65.488C14.8126 65.518 11.6626 65.1779 8.94257 66.6379C4.04257 69.1679 -1.83743 76.9579 4.82257 80.9179C8.06257 83.0879 11.9626 83.518 15.7626 83.518C24.9326 83.5779 33.7826 79.228 42.9826 80.738C46.9826 81.348 50.9226 83.5179 53.0126 87.0679C54.7426 90.0679 55.3026 93.9579 51.9626 96.0679C48.0626 98.4079 43.2426 97.9379 38.8626 98.2079C33.7226 98.5379 28.8326 96.5379 23.7426 96.298C21.0526 96.298 17.6526 96.1079 15.5526 98.0379C13.9126 99.9179 14.1526 102.918 15.7926 104.718C19.7326 108.948 24.3526 106.638 28.9926 105.338C34.2026 103.778 35.8326 105.988 35.5726 111.038C35.2526 116.018 34.3926 120.948 34.4826 125.958C34.6726 135.718 35.0326 145.478 34.7826 155.238C34.6726 157.688 34.1426 160.108 34.2026 162.568C34.1926 162.978 33.8726 163.318 33.4526 163.318C33.0426 163.318 32.7526 162.978 32.7226 162.568Z" fill="white"/>
</svg>
