<svg width="59" height="142" viewBox="0 0 59 142" fill="none" xmlns="http://www.w3.org/2000/svg">
<path d="M31.7911 141.362C24.4011 141.212 16.9811 141.252 9.62106 140.522C6.43106 140.222 2.63106 139.292 0.901063 136.342C-0.0889371 134.592 -0.248925 132.442 0.351075 130.542C0.741075 129.562 1.65106 128.942 2.52106 128.422C5.50106 126.612 9.06108 126.632 12.4211 126.432C15.3511 126.252 18.2911 126.112 21.2211 125.982C24.0411 126.092 26.8311 125.852 29.6411 125.712C32.3111 125.572 34.9911 125.652 37.6511 125.422C40.1411 125.332 42.6211 124.952 45.1111 125.062C50.7211 125.322 58.2211 127.182 58.3711 134.022C58.2611 134.762 57.9511 135.462 57.7111 136.162C57.1711 137.502 55.9411 138.372 54.7911 139.162C53.2411 140.132 51.3711 140.372 49.6211 140.782C47.9611 140.962 46.1911 140.732 44.5511 140.822C40.3011 141.182 36.0511 141.552 31.7911 141.362ZM31.5611 139.632C36.0211 139.892 40.4711 139.462 44.9211 139.192C47.9311 139.142 51.1611 139.232 53.8611 137.712C54.6511 137.172 55.4811 136.622 55.9711 135.792C56.2411 135.112 56.5611 134.422 56.6711 133.702C56.4111 131.472 54.9811 129.652 53.0011 128.642C49.4211 126.982 45.3911 126.722 41.5111 127.052C35.9511 127.602 30.3311 127.432 24.7711 127.892C22.7311 127.902 20.7111 127.802 18.7011 127.962C16.2011 128.052 13.7011 128.192 11.2011 128.312C8.85108 128.372 6.45107 128.422 4.28107 129.442C3.43107 129.862 2.47107 130.242 1.91107 131.032C1.50107 132.362 1.50106 133.862 2.12106 135.132C3.46106 138.122 7.84108 138.792 10.7611 138.942C13.2211 139.122 15.6811 139.372 18.1611 139.342C22.6211 139.362 27.0811 139.682 31.5611 139.632Z" fill="#FF00BF"/>
<path d="M27.0212 31.672C25.0112 31.412 22.8512 31.292 21.1412 30.102C17.7112 27.442 15.8012 24.022 15.9012 19.632C16.0112 14.462 19.1212 9.55205 22.6312 5.93205C24.4112 4.11205 26.0512 2.29204 28.1612 0.862042C28.3312 0.272042 29.0212 0.0420432 29.5412 0.332043C30.0112 0.732043 30.5712 1.01203 30.9712 1.50203C32.2212 3.09203 33.8812 4.30204 35.0712 5.92204C37.0512 8.09204 38.2312 10.802 39.3812 13.472C40.3812 15.382 40.9012 17.522 40.9112 19.672C40.9512 21.662 40.9112 23.732 40.1812 25.612C39.1112 27.972 37.0912 29.942 34.7212 30.992C32.2712 31.752 29.5712 31.802 27.0212 31.672ZM28.9312 29.572C30.5012 29.492 32.0912 29.492 33.6212 29.082C35.6512 28.302 37.4312 26.732 38.3712 24.762C39.1612 21.802 39.2412 18.432 38.0512 15.572C36.7812 13.092 35.9712 10.3221 34.2012 8.12205C33.2812 7.05205 32.5012 5.89204 31.3812 5.01204C30.5212 4.14204 29.9512 3.11203 29.0312 2.35203C24.3812 6.33203 19.6412 11.002 18.0612 17.112C17.6112 19.442 17.8812 21.972 18.8612 24.132C19.7712 25.872 21.1512 27.4921 22.7912 28.5621C24.7012 29.4221 26.8912 29.502 28.9312 29.572Z" fill="#597FFC"/>
<path d="M27.841 25.2216C25.131 25.0616 23.031 22.6916 22.741 20.0716C22.231 18.0116 22.751 15.7516 24.441 14.3716C25.241 13.7316 26.301 12.9016 27.381 13.1816C28.001 13.0116 28.671 12.9616 29.301 13.1116C30.221 13.4216 30.941 14.1716 31.741 14.7016C35.481 17.9216 33.151 25.7416 27.841 25.2216ZM28.4511 23.5416C31.7011 23.4116 32.921 18.9716 31.261 16.5516C30.661 15.7116 29.701 15.1616 28.841 14.6416C28.321 14.5516 27.771 14.7316 27.271 14.4916C25.831 14.9816 24.441 16.2416 24.221 17.8016C24.081 20.4716 25.3011 23.6716 28.4511 23.5416Z" fill="#597FFC"/>
<path d="M44.881 119.022C44.671 118.962 44.531 118.822 44.431 118.642C43.511 117.032 42.851 115.282 42.251 113.532C39.091 104.952 38.201 95.8523 37.491 86.8023C36.381 75.8923 36.081 64.9423 35.481 54.0023C35.431 48.9323 35.491 43.8623 35.251 38.8023C35.271 38.5923 35.261 38.2823 35.251 37.9123C35.381 37.9123 35.501 37.9023 35.631 37.9023C35.881 37.8923 36.141 37.8723 36.391 37.8623C36.551 37.8523 36.711 37.8423 36.871 37.8223C37.191 43.2423 37.251 48.6623 37.251 54.0923C37.801 63.1923 37.991 72.3023 38.831 81.3823C39.581 89.2223 39.801 97.1823 41.521 104.882C42.201 107.792 42.941 110.462 43.871 113.232C44.291 114.402 44.731 115.562 45.221 116.702C45.401 117.122 45.591 117.532 45.781 117.942C46.041 118.442 45.641 119.052 45.111 119.052C45.041 119.062 44.961 119.052 44.881 119.022Z" fill="#00FDFF"/>
<path d="M11.6013 116.402C12.8013 115.082 13.0012 113.102 13.6212 111.472C14.5212 108.562 15.1112 105.772 15.4912 102.792C16.4812 96.8023 16.8512 90.7923 17.4112 84.7723C17.7812 79.4623 17.8013 74.1323 18.1713 68.8123C18.8413 60.1523 19.7813 51.5123 20.3213 42.8523C20.4713 41.6023 20.6612 40.3623 20.8612 39.1123C20.9512 39.1123 21.0413 39.1223 21.1313 39.1223C21.2013 39.1223 21.2712 39.1223 21.3412 39.1223C21.7912 39.1223 22.2312 39.1023 22.6812 39.0723C22.4912 40.4123 22.2712 41.7423 22.1212 43.0823C21.6812 51.6823 20.6613 60.2423 20.0113 68.8323C19.6613 74.1123 19.6512 79.4223 19.2712 84.7023C18.9612 87.9623 18.6412 91.4323 18.3612 94.6323C17.5912 100.882 16.9312 107.242 14.7712 113.192C14.1512 114.602 13.7712 117.212 11.9912 117.472C11.4612 117.472 11.1913 116.752 11.6013 116.402Z" fill="#00FDFF"/>
<path d="M41.4512 120.102C37.3112 119.522 33.4212 117.102 31.4112 113.402C30.7812 118.752 25.6612 120.012 24.0412 114.362C22.7812 116.472 20.9712 118.672 18.3912 119.032C16.6812 119.222 14.7912 119.152 13.3512 118.112C12.8912 117.812 12.5512 117.372 12.1212 117.062C11.9912 116.982 11.8912 116.842 11.8612 116.692C11.7212 116.122 12.4112 115.712 12.9012 115.992C13.5512 116.362 14.0812 116.952 14.8112 117.212C15.4412 117.462 16.3112 117.512 16.9312 117.522C19.2512 117.722 20.9112 116.042 22.1512 114.292C22.9612 113.212 23.3412 111.832 23.5612 110.562C23.7112 110.082 24.2912 109.862 24.7212 110.132C25.4312 110.752 25.1312 111.892 25.3612 112.732C25.5912 114.022 26.0312 115.392 27.0512 116.272C27.3312 116.492 27.7212 116.512 28.0412 116.362C29.5612 115.622 29.7912 113.712 29.9712 112.202C30.0412 111.422 30.1112 110.622 30.0012 109.842C29.9412 109.592 29.9912 109.332 30.1612 109.132C30.7112 108.512 31.4912 109.062 31.6112 109.742C32.7212 113.232 35.2012 116.432 38.7012 117.712C40.5412 118.382 42.6212 119.032 44.5112 118.172C44.9012 117.992 45.3912 117.732 45.7412 118.132C45.9612 118.372 45.9612 118.752 45.7512 119.002C44.6712 120.142 42.9012 120.272 41.4512 120.102Z" fill="#00FDFF"/>
<path d="M14.981 118.872C13.741 118.542 12.301 118.182 11.481 117.132C11.241 116.702 11.571 116.122 12.061 116.122C12.481 116.062 12.851 116.292 13.201 116.492C13.471 116.662 13.771 116.802 13.951 117.072C14.571 117.212 15.141 117.482 15.781 117.462C16.131 117.462 16.411 117.762 16.451 118.092C16.511 118.852 15.561 118.942 14.981 118.872Z" fill="#00FDFF"/>
<path d="M35.691 40.272C35.631 38.162 35.351 36.112 35.201 34.012C32.411 36.372 28.441 35.992 25.211 34.852C24.121 34.592 21.711 34.112 21.831 32.662C21.901 32.352 22.221 32.132 22.531 32.192C22.821 32.242 22.961 32.512 23.211 32.622C24.101 33.102 25.121 33.172 26.081 33.422C27.401 33.852 28.931 34.162 30.301 34.112C31.491 34.132 32.661 33.742 33.651 33.172C34.461 32.782 35.501 31.292 36.381 32.282C36.851 33.322 36.671 34.722 36.811 35.792C36.951 37.272 37.031 38.752 37.041 40.232C37.011 41.062 35.771 41.102 35.691 40.272Z" fill="#00FDFF"/>
<path d="M21.271 41.752C20.601 41.632 20.781 40.912 20.791 40.422C20.881 38.852 21.021 37.252 21.211 35.742C21.261 35.222 21.311 34.692 21.371 34.192C21.421 33.462 21.511 31.902 22.601 32.452C22.931 32.502 23.151 32.8221 23.101 33.1521C23.111 33.0521 23.111 33.0521 23.101 33.1521C23.071 33.3321 22.961 33.492 22.811 33.582C22.701 35.352 22.411 37.262 22.241 38.992C22.021 39.762 22.431 41.852 21.271 41.752Z" fill="#00FDFF"/>
<path d="M21.2309 40.5818C21.0809 40.3718 21.1209 40.1318 21.1509 39.8918C21.3009 38.4918 21.4409 37.1618 21.6709 35.7818C21.7809 35.1918 21.8909 34.6118 22.0209 34.0318C22.1109 33.6218 22.1909 33.0618 22.6809 32.9518C23.1809 32.8318 23.6409 33.4018 23.3809 33.8618C23.3409 35.5018 23.0209 37.1218 22.7809 38.7518C22.6009 39.3918 22.5809 40.1518 22.1609 40.6918C21.9009 40.9318 21.4409 40.8918 21.2309 40.5818Z" fill="#00FDFF"/>
<path d="M35.4712 40.6119C35.1912 38.5219 34.7812 36.4719 34.6812 34.3719C34.7012 33.9519 34.6012 33.4419 34.9312 33.1219C35.2012 32.8919 35.6512 32.9119 35.8512 33.2319C36.0512 33.5919 35.9811 34.0219 36.0211 34.4219C36.0511 35.3919 36.1812 36.3519 36.2612 37.3119C36.1612 38.2519 37.5112 40.9619 36.1712 41.1919C35.8312 41.2219 35.4912 40.9619 35.4712 40.6119Z" fill="#00FDFF"/>
</svg>
