<svg width="206" height="115" viewBox="0 0 206 115" fill="none" xmlns="http://www.w3.org/2000/svg">
<path d="M170.11 114.106C164.12 114.236 158.15 113.616 152.17 113.586C150.32 113.546 148.48 113.636 146.64 113.726C144.7 113.826 142.77 113.916 140.83 113.866C135.22 113.456 129.59 113.556 123.98 113.186C114.72 112.946 105.46 113.146 96.1995 112.856C93.2595 112.656 90.3195 112.586 87.3895 112.376C84.4095 112.106 81.6896 111.726 78.7795 112.016C74.6295 112.436 70.4796 112.706 66.3096 112.806C59.9096 113.186 53.4995 113.376 47.0795 113.256C44.9295 113.266 42.7695 113.276 40.6195 113.216C36.3595 113.116 32.1495 112.406 27.8995 112.166C21.2095 111.586 13.8896 111.566 8.25956 107.426C4.52956 104.706 0.85957 101.156 0.23957 96.3558C-0.52043 90.0458 0.38956 86.7158 4.97956 82.1958C6.59956 80.4058 7.96956 78.3258 10.0396 76.9858C11.9196 75.8058 13.9096 74.6658 16.0996 74.2158C17.4796 73.9258 18.8996 73.9258 20.2996 73.8058C24.2896 73.1059 28.1596 74.5758 31.3596 76.9058C36.1196 80.1658 40.2195 84.2458 44.9495 87.5358C49.0095 90.3958 52.9496 93.4258 57.0496 96.2258C59.9796 98.1558 63.1196 99.7158 66.2196 101.336C69.4796 103.066 72.6596 104.946 75.8596 106.496C80.1296 108.496 84.7696 109.546 89.4396 109.986C90.9596 110.126 92.4796 110.646 93.9796 110.506C94.2096 110.426 94.4496 110.486 94.6196 110.636C103.51 111.116 112.34 110.946 121.23 111.076C127.63 111.396 133.91 111.456 140.24 111.906C142.46 112.006 144.68 111.906 146.9 111.806C148.8 111.716 150.71 111.626 152.61 111.676C160.62 111.866 168.63 112.476 176.65 112.316C179.36 112.276 182.06 112.056 184.73 111.616C188.49 111.086 192.26 110.746 195.43 108.586C201.64 104.346 208.17 96.8058 200.54 90.3958C197.9 88.1058 194.92 85.9758 191.4 85.4058C189.27 85.0058 187.11 85.0958 184.96 84.9458C181.75 84.5758 178.54 84.5958 175.33 84.8858C173.24 85.0058 171.16 85.0858 169.07 85.1858C165.44 85.6958 161.9 86.0758 158.28 86.1758C155.86 86.1358 153.48 86.3258 151.1 86.5058C147.8 86.7658 144.52 87.0258 141.2 86.6758C138.4 86.4958 135.87 86.7458 133.16 86.9158C130.08 86.9958 127 86.5458 123.95 86.1658C117.08 85.0658 110.22 82.4658 105.03 77.7258C101.04 73.1958 97.3896 68.1858 95.2496 62.4858C94.3296 59.7058 93.6995 56.8158 93.2695 53.9258C92.6895 49.0458 92.9595 44.1258 92.6495 39.2258C92.1195 32.9058 92.3196 26.5658 92.1096 20.2358C92.0496 16.4058 91.8995 12.5558 92.1395 8.72583C92.2595 7.89583 92.3696 7.05582 92.4696 6.21582C92.4895 6.24582 92.5096 6.27585 92.5295 6.30585C92.8195 6.79585 93.1296 7.28581 93.4396 7.76581C93.6396 8.07581 93.8396 8.38579 94.0396 8.68579C93.9196 9.90579 93.8796 11.1358 93.9196 12.3658C93.9896 22.4458 94.1395 32.5258 94.7595 42.5858C94.9795 46.7458 94.7696 50.9458 95.5596 55.0558C96.4996 60.1258 98.1596 64.9458 101.12 69.1658C102.71 71.3058 104.24 73.5058 105.94 75.5658C107.23 76.9858 108.86 78.0358 110.44 79.1058C115.46 82.1558 121.31 83.8058 127.14 84.3558C130.31 84.7658 133.56 84.8958 136.7 84.5158C139.03 84.3758 141.38 84.5558 143.69 84.6958C146.02 84.8658 148.26 84.5858 150.51 84.4158C155.81 83.8758 161.08 84.2058 166.32 83.3858C169.22 82.9258 172.18 82.9358 175.11 82.8158C178.81 82.5058 182.49 82.6658 186.17 83.0458C190.02 83.1358 194.02 83.5758 197.33 85.7058C200.54 87.8558 204.06 90.2358 205.38 94.0458C207.75 101.046 200.98 107.136 195.68 110.556C192.26 112.436 188.31 112.866 184.51 113.416C181.18 113.996 177.8 114.146 174.42 114.146C172.99 114.166 171.55 114.136 170.11 114.106ZM20.0096 75.7958C18.3896 75.9258 16.7395 75.9558 15.1795 76.4958C13.8195 77.0359 12.5595 77.7558 11.3095 78.5058C9.56955 79.6458 8.37957 81.3758 7.04957 82.9358C4.71957 85.3958 2.00955 88.0958 2.02955 91.7258C1.86955 94.9458 2.26956 98.2558 4.19956 100.936C7.16956 104.526 11.1996 107.466 15.7996 108.496C19.9096 109.346 24.1196 109.566 28.2896 109.876C34.0496 110.286 39.7696 111.116 45.5596 110.916C51.9696 110.886 58.3795 110.966 64.7695 110.516C66.9695 110.376 69.1696 110.356 71.3696 110.336C73.9696 110.296 76.5495 109.896 79.1395 109.766C74.5195 108.396 70.3795 105.846 66.1495 103.606C62.4695 101.636 58.6596 99.8758 55.2296 97.4558C53.5596 96.2658 51.8895 95.0558 50.1995 93.8858C44.7995 90.0858 39.5795 86.0558 34.5595 81.7658C30.7295 78.7658 27.0795 75.5458 22.2495 75.5458C21.5495 75.5658 20.7996 75.6358 20.0096 75.7958Z" fill="#9A00FF"/>
<path d="M94.0396 0.62616C94.0396 0.62616 94.0396 0.61616 94.0396 0.62616C94.0696 0.60616 94.0996 0.586172 94.1196 0.576172C94.1396 0.656172 94.1596 0.736162 94.1796 0.816162C94.1396 0.746162 94.0896 0.68616 94.0396 0.62616Z" fill="#9A00FF"/>
<path d="M22.2095 103.267C16.8195 103.157 13.9796 100.847 12.3196 95.7665C11.8496 94.0265 12.2996 92.1865 12.5496 90.4465C12.7396 89.7365 12.7396 88.7666 13.3596 88.2966C15.0796 84.6166 19.5696 82.9365 23.4196 83.3465C26.5996 83.6665 29.6195 86.2066 30.9395 89.0566C32.4995 92.7566 31.1096 96.8965 28.6996 99.8965C27.2596 102.237 25.0095 103.617 22.2095 103.267ZM23.4096 101.597C25.6696 101.537 26.9596 99.2265 28.0996 97.6565C29.9796 95.0765 30.5995 91.3665 28.7795 88.5965C27.4995 87.0465 25.8596 85.6065 23.8496 85.1665C19.9196 84.4965 14.9096 86.5365 14.4496 90.9165C13.9896 93.1465 13.9596 95.4665 15.1296 97.4565C15.5196 98.2965 16.2196 98.8865 16.8796 99.5065C17.2296 99.8465 17.7096 100.237 17.6696 100.767C19.4596 101.547 21.4696 101.627 23.4096 101.597Z" fill="#FF7A00"/>
<path d="M18.1694 101.857C17.5094 101.637 15.9394 101.387 16.4994 100.387C16.7394 100.077 17.1394 100.107 17.3994 100.317C17.7594 100.447 18.1394 100.537 18.4994 100.647C19.2894 100.877 18.9594 102.067 18.1694 101.857Z" fill="#FF7A00"/>
<path d="M18.8596 102.357C18.0796 101.937 14.9596 100.777 16.0096 99.6167C16.3496 99.3467 16.7396 99.5567 16.9796 99.8567C17.4796 100.237 18.0396 100.517 18.5296 100.767C19.0296 101.047 19.9996 101.247 19.6996 102.017C19.5696 102.337 19.1796 102.497 18.8596 102.357Z" fill="#FF7A00"/>
<path d="M20.7495 102.626C19.1195 102.416 17.7695 101.746 16.4095 100.906C16.0195 100.686 15.4395 100.386 15.6695 99.8464C15.8195 99.4264 16.3995 99.4163 16.6995 99.6363C18.1095 100.366 19.3595 101.126 20.9195 101.356C21.7595 101.476 21.5895 102.726 20.7495 102.626Z" fill="#FF7A00"/>
<path d="M189.66 104.496C183.3 104.176 180.55 97.3563 185.25 92.9563C186.61 91.0763 187.76 91.3863 189.82 91.6563C191.91 91.7663 193.39 93.5363 194.28 95.2763C196.34 98.8163 194.6 105.346 189.66 104.496ZM190.82 102.866C192.19 102.736 193.09 101.256 193.37 100.026C193.92 97.7363 192.87 95.3163 191.17 93.7963C190.25 92.9963 188.94 93.1863 187.81 92.9763C187.64 93.2663 187.25 93.2663 186.97 93.4363C185.64 94.3463 184.56 95.9663 184.44 97.5863C184.09 101.206 187.64 103.036 190.82 102.866Z" fill="#597FFC"/>
</svg>
