<svg width="123" height="209" viewBox="0 0 123 209" fill="none" xmlns="http://www.w3.org/2000/svg">
<path d="M82.7559 60.4064C82.0659 59.8064 82.4759 58.8464 82.5459 58.0764C82.7259 56.8664 82.9359 55.6664 83.1559 54.4564C83.4359 52.9364 83.6559 51.4064 84.0159 49.9064C84.1759 48.9964 84.8359 47.7764 85.9159 48.2964C87.8459 49.4964 89.6359 50.9564 91.4559 52.3264C92.0559 52.8064 92.6559 53.2964 93.2659 53.7564C93.5759 53.9864 93.6559 54.4364 93.4659 54.7664C92.6359 55.8664 91.3759 54.2164 90.5959 53.7764C88.9459 52.5264 87.2559 51.3164 85.6259 50.0464C84.9659 53.1564 84.6059 56.3364 83.9259 59.4464C84.4859 60.1864 83.3759 60.9564 82.7559 60.4064Z" fill="#00FF09"/>
<path d="M90.1463 82.7469C89.7563 82.2169 90.1963 81.5769 90.2963 81.0169C90.8563 79.1169 91.1663 77.1469 91.9063 75.3069C92.6363 73.3169 94.0063 73.3169 95.3363 74.8069C97.4163 76.8069 99.2263 79.0569 100.666 81.5569C101.156 82.3769 99.9563 83.1869 99.3763 82.4269C97.7263 79.8569 95.9663 77.4269 93.6263 75.4469C92.8163 77.2569 92.6163 79.2669 92.0063 81.1369C91.7563 81.7669 91.7563 82.6469 91.0863 82.9869C90.7563 83.1469 90.3563 83.0269 90.1463 82.7469Z" fill="#00FF09"/>
<path d="M92.756 118.307C90.936 117.707 93.5061 114.197 93.9061 113.097C94.3661 112.187 94.7461 111.287 95.1661 110.477C95.6161 109.627 96.1061 108.637 97.0461 108.257C99.3861 107.637 101.476 112.657 102.366 114.347C102.626 115.197 103.766 116.447 102.776 117.157C102.386 117.387 101.856 117.257 101.636 116.857C100.296 114.467 99.5061 111.907 97.5461 109.987C96.6661 111.327 96.176 112.927 95.396 114.327C94.846 115.407 94.306 116.327 93.876 117.417C93.996 118.017 93.286 118.457 92.756 118.307Z" fill="#00FF09"/>
<path d="M92.7163 155.866C92.1363 154.966 93.0663 154.016 93.4163 153.206C93.9363 152.246 94.4263 151.276 94.8863 150.386C96.2163 147.856 97.8263 143.136 100.506 147.616C101.776 149.676 102.786 151.906 103.766 154.116C104.166 155.056 102.786 155.756 102.276 154.866C100.916 152.416 100.076 149.786 98.3563 147.606C96.9063 150.136 95.9163 152.886 94.2663 155.306C94.3963 156.066 93.1463 156.486 92.7163 155.866Z" fill="#00FF09"/>
<path d="M92.7363 189.597C92.4263 189.037 92.8363 188.407 93.0263 187.877C93.7263 186.297 94.5963 184.747 95.3563 183.217C95.4863 182.957 95.6163 182.687 95.7163 182.497C96.2163 181.567 96.6463 180.297 97.7963 180.067C99.1863 179.997 99.7663 181.627 100.316 182.647C101.046 184.207 101.756 185.767 102.386 187.367C102.776 188.387 101.306 189.007 100.846 188.017C99.8363 186.017 99.1163 183.837 97.9463 181.927C96.8663 184.077 95.8263 186.287 94.6863 188.387C94.3363 189.127 93.6463 190.707 92.7363 189.597Z" fill="#00FF09"/>
<path d="M112.536 208.227C111.546 208.167 111.466 207.267 111.806 206.517C112.346 204.877 112.916 203.247 113.616 201.667C114.456 199.467 115.306 195.737 117.516 199.557C118.856 202.067 120.656 204.347 121.666 207.017C121.926 207.837 120.696 208.357 120.286 207.597C118.966 205.047 117.346 202.677 115.936 200.177C115.146 202.557 114.336 204.927 113.346 207.227C113.576 207.767 113.066 208.267 112.536 208.227Z" fill="#00FF09"/>
<path d="M120.386 177.927C118.906 175.287 117.586 172.487 115.776 170.117C115.016 172.387 113.866 174.487 112.866 176.657C113.106 177.897 111.136 177.777 111.196 176.617C111.346 175.517 111.916 174.657 112.346 173.677C113.076 172.237 113.666 170.747 114.326 169.267C114.746 168.097 115.736 167.327 116.676 168.547C118.736 171.167 120.446 174.067 121.726 177.147C121.866 177.507 121.736 177.927 121.396 178.127C121.076 178.317 120.606 178.247 120.386 177.927Z" fill="#00FF09"/>
<path d="M120.816 138.787C119.186 134.987 117.656 131.097 115.776 127.417C114.076 130.457 112.996 133.867 110.706 136.557C110.656 137.207 109.766 137.407 109.346 136.967C108.646 136.127 109.756 135.237 110.166 134.527C111.256 132.917 111.966 131.337 112.766 129.637C113.496 128.277 114.126 126.827 115.056 125.587C116.126 124.597 117.016 126.177 117.436 127.047C118.206 128.507 118.826 130.027 119.486 131.537C120.416 133.797 121.506 135.997 122.286 138.317C122.476 139.217 121.176 139.647 120.816 138.787Z" fill="#00FF09"/>
<path d="M120.526 101.796C118.626 98.556 117.076 95.096 115.136 91.876C114.396 93.556 113.746 95.266 112.736 96.816C112.166 97.936 111.626 99.086 111.056 100.206C111.006 100.386 110.896 100.536 110.716 100.646C110.306 100.896 109.736 100.616 109.636 100.166C109.556 99.806 109.706 99.456 109.846 99.126C110.326 98.046 110.756 96.956 111.326 95.916C112.556 94.146 113.026 91.956 114.296 90.226C116.386 88.386 118.666 95.496 119.706 96.796C120.436 98.216 121.216 99.616 121.856 101.086C122.156 101.886 121.046 102.516 120.526 101.796Z" fill="#00FF09"/>
<path d="M108.236 66.3663C107.946 65.7263 108.256 64.9363 108.376 64.3063C108.946 61.6363 110.126 59.0263 110.826 56.4163C111.636 54.4263 113.166 56.4763 113.986 57.3263C114.926 58.2763 115.886 59.3063 116.706 60.3363C117.696 61.5163 118.766 62.6263 119.746 63.8063C120.196 64.4163 121.286 65.3264 120.446 66.0364C120.136 66.2564 119.696 66.2164 119.436 65.9464C118.736 65.1764 118.096 64.3564 117.386 63.5964C115.616 61.6464 113.956 59.6364 112.116 57.7564C111.406 60.4164 110.326 62.9663 109.706 65.6463C109.636 65.8463 109.616 66.0563 109.586 66.2663C109.436 66.8763 108.496 66.9263 108.236 66.3663Z" fill="#00FF09"/>
<path d="M95.1364 29.1669C94.1664 26.7569 93.6864 24.1569 92.9264 21.6669C91.7564 19.0069 94.1864 19.1669 96.0364 19.5169C97.5864 19.8169 99.1564 20.0369 100.706 20.3369C101.776 20.5469 102.816 20.8669 103.866 21.1669C104.456 21.3369 105.406 21.4369 105.286 22.2669C105.016 23.6469 102.406 22.2869 101.496 22.1969C99.1764 21.7269 96.8264 21.3969 94.4864 21.0469C95.2964 23.4669 95.9064 25.9569 96.5264 28.4269C97.4264 29.4569 95.7264 30.2269 95.1364 29.1669Z" fill="#00FF09"/>
<path d="M20.7063 10.8765C19.5863 10.4365 18.6064 9.60645 17.5464 9.02645C16.7064 8.34645 14.4263 7.46645 15.2863 6.12645C16.7363 4.48645 18.3163 2.89645 19.9563 1.43645C20.6563 0.876449 21.6463 1.85644 21.0763 2.55644C19.8163 4.01644 18.4163 5.35646 17.0363 6.69646C18.4863 7.79646 20.3263 8.50643 21.5363 9.85643C21.7563 10.3864 21.2563 10.9465 20.7063 10.8765Z" fill="#00FF09"/>
<path d="M6.94611 12.1065C5.55611 11.2365 4.24612 10.2165 2.80612 9.41645C2.15612 9.01645 1.51614 8.60645 0.886139 8.16645C0.666139 7.99645 0.516113 7.71647 0.516113 7.43647C0.666113 6.39647 1.74613 5.81646 2.34613 5.01646C3.35613 3.65646 4.5361 2.40647 5.5061 1.02647C5.7061 0.676467 6.15613 0.516461 6.53613 0.676461C7.74613 1.32646 6.46615 2.67646 5.92615 3.36646C4.81615 4.69646 3.87613 6.17645 2.56613 7.32645C4.26613 8.34645 5.9761 9.36645 7.5061 10.6365C8.1061 10.4965 8.49614 11.1765 8.29614 11.6965C8.14614 12.2865 7.41611 12.4065 6.94611 12.1065Z" fill="#00FF09"/>
</svg>
