<svg width="23" height="25" viewBox="0 0 23 25" fill="none" xmlns="http://www.w3.org/2000/svg">
<path d="M20.0253 21.3613C19.0734 20.942 17.9537 20.3898 17.072 19.9218C15.9063 19.3916 14.8116 19.1013 13.6653 18.5662C13.4564 18.4746 13.1434 18.4197 13.0472 18.6916C12.2396 20.3917 11.1161 21.9035 9.92456 23.35C8.53505 25.1148 7.37773 24.1286 7.25338 22.2105C6.937 20.145 7.51789 18.0381 7.17242 15.9799C5.34094 15.0199 3.42478 14.1329 1.80341 12.8618C1.5823 12.7218 1.34892 12.5333 1.3287 12.2496C0.615269 12.1206 0.23853 10.9988 0.875079 10.5385C1.54071 10.071 2.40003 10.328 3.13693 10.1828C3.8083 10.0232 4.52173 10.1522 5.17581 9.8835C5.63869 9.75605 6.00403 9.44698 6.4279 9.24688C6.80574 9.06875 7.22749 8.98261 7.56387 8.72213C7.90893 6.41704 7.94108 4.09833 8.48026 1.82664C8.97951 0.00860524 10.3958 -0.0197315 11.3896 1.46174C12.5698 3.63875 13.5563 5.94731 15.1601 7.883C16.6413 7.62165 18.1246 7.28748 19.5836 6.89766C21.7078 5.91656 23.3636 6.50847 21.9858 8.97176C21.3006 10.2179 20.4429 11.353 19.5827 12.4785C18.8581 13.5283 17.9064 14.0477 18.965 15.2961C19.7286 16.8461 20.8337 18.2375 21.3914 19.8706C21.768 20.9512 21.2273 21.8308 20.0253 21.3613ZM8.78653 22.3177C9.34153 21.3314 10.2708 20.6011 10.7675 19.5883C11.6974 18.2492 12.2522 16.3655 14.2966 17.1479C16.1321 17.7975 17.9334 18.3938 19.5881 19.4295C15.2027 12.5759 16.9491 14.3002 20.6519 8.14368C19.511 8.64901 18.3138 8.97261 17.0822 9.11924C16.1731 9.27708 15.1047 9.70218 14.2615 9.14192C12.9605 7.9548 12.1144 6.36375 11.2297 4.86499C10.7541 3.96412 10.5425 2.92424 9.91926 2.09171C9.59661 3.75158 9.42205 5.4668 9.22799 7.14571C9.14125 8.18887 9.12075 9.49377 8.09164 10.074C7.18084 10.4695 6.358 11.0903 5.39101 11.3453C4.45789 11.5712 3.47325 11.5934 2.52273 11.6689C3.39676 11.9841 4.09947 12.6005 4.88907 13.0712C6.07427 13.6378 7.36857 14.1871 8.29052 15.14C8.74363 15.8299 8.74612 16.6958 8.73144 17.4938C8.81619 19.1331 8.57342 20.7418 8.78653 22.3177Z" fill="#D6FF00"/>
</svg>
