<svg width="19" height="31" viewBox="0 0 19 31" fill="none" xmlns="http://www.w3.org/2000/svg">
<path d="M16.7944 12.545C15.4544 11.405 14.4644 9.94506 13.2344 8.70506C12.2644 7.69506 11.1445 6.82504 10.2545 5.74504C10.0045 5.40504 9.8745 4.96501 9.6045 4.65501C8.1245 6.83501 5.92447 8.33502 4.00447 10.105C3.08447 10.825 2.18445 11.595 1.11445 12.095C0.984451 12.145 0.884476 12.265 0.764476 12.365C0.684476 12.435 0.544498 12.425 0.474498 12.345C0.114498 12.555 0.0244952 12.1251 0.284495 11.8951C1.2445 10.6951 2.1145 9.42505 3.1045 8.25504C4.3245 6.61505 5.72448 5.11502 6.95448 3.47502C7.54448 2.68502 8.05448 1.82505 8.70448 1.07505C8.85448 0.915052 9.0445 0.705025 9.2845 0.735025C10.3245 0.455025 19.0144 13.175 16.7944 12.545ZM1.92445 10.485C1.62445 10.885 1.31446 11.285 0.994456 11.675C2.70446 10.765 4.0645 9.37505 5.5345 8.13505C6.5245 7.23505 7.60447 6.42505 8.44447 5.38505C8.83447 5.04505 9.1645 4.00501 9.7845 4.21501C10.1745 4.48501 10.3245 5.00505 10.5945 5.38505C10.9745 5.91505 11.4545 6.33504 11.9545 6.74504C13.5845 8.18504 14.9345 9.87501 16.3945 11.465C15.3645 9.14501 13.8545 7.08502 12.4645 4.97502C11.4245 3.69502 10.5445 2.16505 9.25447 1.13505C8.20447 2.29505 7.45446 3.71502 6.43446 4.91502C4.86446 6.73502 3.37445 8.59503 1.92445 10.485Z" fill="#00FF09"/>
<path d="M18.2245 30.4549C16.8445 29.6749 15.8744 28.3349 14.8144 27.2049C13.2744 25.6049 11.9544 23.8549 10.8044 21.9549C9.06442 23.8249 6.82443 25.1249 4.87443 26.7549C3.61443 27.6649 2.15445 28.3149 0.964453 29.2949C0.774453 29.4449 0.524467 29.4849 0.354467 29.6449C0.204467 29.7649 -0.0355695 29.6249 0.00443052 29.4349C0.0244305 28.7449 0.784452 28.3849 1.21445 27.9349C2.07445 27.1449 2.88442 26.3149 3.68442 25.4649C4.76442 24.2649 5.95444 23.1949 7.07444 22.0349C8.32444 20.7749 9.46446 19.2849 11.0345 18.4049C11.8845 18.1549 12.3544 19.2449 12.7944 19.7749C14.0744 21.4749 15.2144 23.2649 16.2544 25.1249C16.4344 25.7549 19.5645 30.6649 18.2245 30.4549ZM17.9444 29.7049C16.2944 26.0849 14.2445 22.6949 11.9145 19.4849C11.7045 19.2649 11.5245 18.8049 11.1645 18.8549H11.1744C9.69441 19.8149 8.59447 21.2349 7.35447 22.4749C5.36447 24.3949 3.51444 26.4649 1.45444 28.3049C4.40444 26.6249 7.08441 24.4749 9.73441 22.3449C10.4444 21.7149 10.7745 20.8649 11.4645 22.1049C13.3045 24.8949 15.5544 27.4049 17.9444 29.7049Z" fill="#00FF09"/>
</svg>
