<svg width="27" height="23" viewBox="0 0 27 23" fill="none" xmlns="http://www.w3.org/2000/svg">
<path d="M3.164 22.3499C2.724 22.1499 2.65401 21.5599 2.89401 21.1799C3.70401 19.4899 4.42399 17.7199 5.49399 16.1699C4.99399 15.8399 4.364 15.8099 3.824 15.5599C2.524 14.9399 1.064 14.4399 0.0740022 13.3699C-0.255998 12.6099 0.583994 11.9899 1.28399 12.3799C2.32399 13.0099 3.374 13.5699 4.474 14.0699C5.314 14.3899 6.314 14.6099 6.824 15.4299C7.474 16.1899 6.704 17.1199 6.324 17.7599C5.714 18.8399 5.21401 19.9699 4.64401 21.0799C4.36401 21.6699 4.024 22.7399 3.164 22.3499Z" fill="#00FF09"/>
<path d="M15.154 17.2402C14.114 16.7602 15.034 15.4502 15.084 14.6302C15.394 13.1302 15.664 11.6202 16.234 10.2002H16.244C14.224 10.2202 12.264 9.75014 10.314 9.28014C9.274 9.55014 9.104 8.09018 10.004 7.82018C10.314 7.71018 10.634 7.76013 10.954 7.83013C12.264 8.13013 13.584 8.30017 14.904 8.56017C15.824 8.73017 16.974 8.39013 17.724 9.08013C18.164 9.57013 17.864 10.2702 17.694 10.8102C17.504 11.4002 17.314 11.9801 17.174 12.4701C16.754 13.4501 16.654 17.7402 15.154 17.2402Z" fill="#00FF09"/>
<path d="M25.4139 7C24.9139 6.34 24.9939 5.44998 24.8939 4.66998C24.8139 3.61998 24.2939 2.68001 24.1839 1.64001C22.6839 2.10001 21.0339 2.21 19.6239 2.87C19.4039 3.01 19.0839 3.00999 18.8739 2.85999C18.5239 2.66999 18.4339 2.18997 18.6039 1.83997C19.0239 1.17997 19.9339 1.1 20.6239 0.869995C22.0139 0.579995 23.3939 0.14 24.7639 0C25.4639 0.01 25.6939 0.730007 25.7039 1.32001C26.0639 2.80001 26.5739 4.22997 26.5639 5.77997C26.5839 5.94997 26.6439 6.11001 26.7039 6.26001C26.9939 7.03001 25.9239 7.63 25.4139 7Z" fill="#00FF09"/>
</svg>
