<svg width="56" height="42" viewBox="0 0 56 42" fill="none" xmlns="http://www.w3.org/2000/svg">
<path d="M28.3694 41.3831C21.4994 41.1931 14.2494 41.7331 7.89944 38.7331C5.54944 37.5431 3.9394 35.243 2.8594 32.893C1.9494 30.683 1.67945 28.2831 1.08945 25.9731C-0.0205538 19.8631 -0.140595 13.6231 0.109405 7.44306C0.259405 5.60306 0.169388 3.70306 0.529388 1.88306C0.799388 1.24306 1.78945 1.39305 1.83945 2.09305C1.71945 10.0431 1.19944 18.0631 2.76944 25.9131C3.44944 28.7231 3.67943 31.7031 5.38943 34.1231C7.18943 37.0031 9.57939 37.763 12.7194 38.523C17.6694 39.433 22.7394 39.383 27.7594 39.393C31.1894 39.603 34.5894 39.003 38.0094 38.903C39.6294 38.863 41.1794 38.733 42.7694 38.583C44.4794 38.523 46.1594 38.2231 47.7594 37.5931C48.1994 37.4531 48.6094 37.2131 48.8994 36.8431C50.7894 34.5631 52.3094 31.8731 53.0394 28.9831C53.3894 25.7631 53.7094 22.503 53.8294 19.303C54.0194 15.523 54.0294 11.713 53.8094 7.93305C53.7094 6.39305 53.4694 4.85306 53.2794 3.32306C53.2394 2.89306 53.1794 2.43305 53.3394 2.02305C53.5594 1.45305 54.4194 1.39305 54.7194 1.93305C55.0194 2.53305 54.9694 3.26306 55.0994 3.91306C55.9294 8.67306 55.9994 13.5131 55.7694 18.3231C55.6094 22.0331 55.3294 25.753 54.8694 29.4331C54.0594 32.6131 52.3694 35.5831 50.2894 38.0931C49.6594 38.8431 48.7894 39.283 47.8594 39.553C46.6694 39.993 45.4494 40.383 44.1694 40.433C41.9694 40.613 39.7694 40.8631 37.5594 40.8831C34.4694 41.0031 31.4694 41.6231 28.3694 41.3831Z" fill="#FF7A00"/>
<path d="M44.7894 3.55301C38.9294 3.53301 33.0794 3.363 27.2294 3.173C23.0894 2.903 18.9595 2.49302 14.8295 2.37302C11.0795 2.51302 7.33948 2.50302 3.58948 2.59302C2.73948 2.57302 1.83947 3.08302 1.01947 2.78302C0.80947 2.66302 0.669434 2.413 0.669434 2.173C0.729434 1.163 2.56946 1.21301 3.31946 1.02301C5.54946 0.82301 7.80944 0.963016 10.0494 0.873016C12.8294 0.703016 15.6095 0.623015 18.3895 0.903015C21.3795 1.09301 24.3394 1.26301 27.2794 1.55301C31.7694 1.72301 36.2595 1.94301 40.7495 1.96301C45.1894 2.02301 49.5895 1.91301 53.9995 1.61301C54.8494 1.61301 54.9794 2.90302 54.0994 3.03302C50.9794 3.30302 47.8994 3.55301 44.7894 3.55301Z" fill="#FF7A00"/>
<path d="M12.2493 14.733C9.69927 13.913 8.22927 11.133 9.93927 8.80297C11.3093 7.06297 12.2793 6.62297 14.4393 7.39297C15.9793 8.05297 17.3493 9.54298 16.9793 11.313C16.8393 14.003 14.8693 15.553 12.2493 14.733ZM13.8593 13.483C15.3593 13.473 15.5693 11.573 15.6093 10.453C15.2893 9.223 13.8393 8.44299 12.6193 8.41299C11.4193 8.55299 10.6193 9.89299 10.5693 11.033C10.6693 12.543 12.4193 13.613 13.8593 13.483Z" fill="#FF7A00"/>
<path d="M29.3692 15.0726C26.4592 15.1526 24.3693 12.0426 25.3993 9.35255C25.6393 8.58255 25.8793 7.68254 26.5793 7.21254C26.9293 6.47254 27.9392 6.54253 28.6292 6.42253C29.8392 6.10253 30.9593 6.63254 31.8293 7.46254C34.4793 10.0325 33.7292 15.4026 29.3692 15.0726ZM29.9292 13.6026C31.9292 13.6226 32.4592 10.9326 31.5392 9.54255C31.1892 8.76255 30.5593 7.97254 29.7093 7.74254C29.1093 7.68254 28.5192 7.85253 27.9192 7.89253C27.8292 8.15253 27.5692 8.30254 27.2992 8.31254C25.8092 10.8225 26.5892 13.8726 29.9292 13.6026Z" fill="#FF7A00"/>
<path d="M42.9192 14.5832C41.3392 14.0032 40.0092 12.1832 40.3592 10.4632C40.6592 9.0132 41.5791 7.46321 43.0991 7.07321C43.3991 6.68321 43.9892 6.76321 44.4192 6.79321C45.3992 6.88321 46.0692 7.70319 46.7492 8.33319C48.1492 9.68319 48.1292 12.2132 46.6192 13.4732C45.5992 14.2532 44.2292 14.9332 42.9192 14.5832ZM43.7092 13.2532C44.6192 13.1032 45.6592 12.7332 46.1692 11.9232C46.5592 11.0332 46.5392 10.0332 45.8092 9.3432C45.1892 8.7232 44.5492 7.95319 43.5892 8.08319C42.5292 8.73319 41.8391 9.83319 41.7191 11.0832C41.8491 12.0332 42.6992 13.1932 43.7092 13.2532Z" fill="#FF7A00"/>
<path d="M20.4596 39.8729C19.7896 37.2129 20.2496 34.4329 20.1496 31.7129C18.5196 31.7629 16.8896 31.8029 15.2596 31.6829C14.4196 31.6429 13.3496 31.4628 13.4096 30.3928C12.7496 25.2728 12.8796 20.1629 12.6396 15.0229C12.6296 14.5629 12.5396 14.1628 12.8296 13.8328C13.1396 13.4728 13.8096 13.7129 13.8596 14.1329C14.3096 16.8729 14.1596 19.6529 14.2196 22.4129C14.2896 25.0229 14.4496 27.6229 14.6696 30.2329C16.0496 30.3529 17.3796 30.3729 18.7596 30.3529C19.5796 30.4429 20.6296 30.0829 21.2596 30.7529C21.5096 31.0529 21.5196 31.5228 21.5196 31.8928C21.6296 34.3328 21.1796 36.8029 21.6096 39.2229C21.6596 39.4029 21.6796 39.5929 21.6396 39.7829C21.5896 40.4329 20.6196 40.5029 20.4596 39.8729Z" fill="#FF7A00"/>
<path d="M38.0996 38.773C38.4296 32.573 34.6996 29.083 43.7996 30.373C43.9896 28.193 43.7396 26.003 43.7496 23.813C43.6996 21.233 43.7496 18.553 43.5696 16.013C43.5696 15.473 43.4096 15.033 43.5796 14.543C43.8196 13.943 44.7496 14.073 44.8196 14.713C45.3096 17.523 45.0896 20.393 45.1596 23.233C45.0896 25.853 45.5096 28.553 44.9396 31.123C44.5696 32.033 43.5296 31.623 42.7996 31.553C41.5596 31.523 40.2896 31.433 39.0596 31.643C38.8096 33.873 39.7396 36.173 39.3296 38.513C39.3696 38.903 39.1296 39.313 38.6996 39.313C38.4296 39.313 38.1296 39.083 38.0996 38.773Z" fill="#FF7A00"/>
<path d="M29.5795 40.243C29.2495 33.783 28.9095 27.303 28.8695 20.833C28.8495 18.663 28.5795 16.483 28.7895 14.313C28.8095 13.873 29.1695 13.473 29.6295 13.603C30.0695 13.703 30.1395 14.193 30.0895 14.563C30.2895 18.713 30.3995 22.863 30.4795 27.013C30.6395 31.133 30.7795 35.243 30.8095 39.363C30.8395 39.883 30.9895 40.673 30.2895 40.773C29.9595 40.833 29.6195 40.593 29.5795 40.243Z" fill="#FF7A00"/>
<path d="M12.9794 12.2734C12.3694 12.2534 11.9894 11.5834 11.8594 11.0634C11.7494 10.2634 12.5894 9.57344 13.3394 9.94344C14.4194 10.4034 14.2894 12.3134 12.9794 12.2734Z" fill="#D6FF00"/>
<path d="M28.8696 12.4328C27.4696 11.8728 27.9396 9.62279 29.4396 9.77279C29.9196 9.80279 30.5096 10.1728 30.3296 10.7128C30.8696 11.6328 29.8996 12.9028 28.8696 12.4328Z" fill="#D6FF00"/>
<path d="M43.3493 11.8034C42.9593 11.3534 42.8393 10.4334 43.3993 10.0534C43.9593 9.65345 44.7793 9.90347 45.0693 10.5135C45.6693 11.5335 44.0693 12.9834 43.3493 11.8034Z" fill="#D6FF00"/>
</svg>
