<svg width="73" height="48" viewBox="0 0 73 48" fill="none" xmlns="http://www.w3.org/2000/svg">
<path d="M0.299684 47.3714C-2.55032 46.0514 15.8197 30.6315 17.6497 28.8015C24.1497 23.5915 30.6397 18.3115 37.9297 14.2315C41.1297 12.3815 44.6797 10.9814 47.9697 9.37142C53.5297 6.99142 59.2897 5.10145 64.8397 2.71145C66.3697 2.09145 67.9397 1.56147 69.4797 0.981469C70.3097 0.731469 71.1197 0.211479 72.0097 0.241479C72.5897 0.311479 72.7697 1.16146 72.2797 1.47146C69.3997 2.97146 66.0697 3.94143 63.1697 5.32143C53.3997 9.30144 43.3797 12.8414 34.4797 18.6314C30.2397 21.2514 26.3897 24.4415 22.4497 27.4915C16.6997 32.0115 11.3597 36.8714 6.05969 41.8714C4.86969 43.0214 3.65969 44.1615 2.67969 45.4815C1.99969 46.1315 1.38968 47.9414 0.299684 47.3714Z" fill="white"/>
</svg>
