<svg width="174" height="55" viewBox="0 0 174 55" fill="none" xmlns="http://www.w3.org/2000/svg">
<path d="M151.119 50.6095C150.149 50.6995 149.659 49.5795 148.999 49.0495C148.389 48.3195 149.399 47.4895 149.969 48.2295C150.269 48.2295 150.489 48.4795 150.709 48.6495C151.219 48.9895 152.089 49.3995 151.959 50.1295C151.869 50.4895 151.469 50.7195 151.119 50.6095Z" fill="white"/>
<path d="M159.469 54.0199C157.329 53.9399 155.249 53.4199 153.429 52.2799C152.519 51.7499 151.579 51.2499 150.709 50.6499C150.139 50.2499 149.479 49.7799 149.349 49.0499C149.299 48.4399 149.669 47.6399 150.399 47.9199C150.799 48.1499 151.119 48.4999 151.459 48.7999C152.619 49.3699 153.609 50.2899 154.639 51.0799C156.739 52.2199 159.309 52.5499 161.639 52.1899C163.429 51.7999 164.989 51.2999 166.509 50.3599C167.569 49.5299 168.579 48.6199 169.489 47.6299C171.979 45.1299 172.269 41.0699 170.739 38.0099C168.249 34.2599 162.089 34.1299 158.049 32.8199C149.829 31.2299 141.399 31.9299 133.069 31.8399C129.829 31.9199 126.599 31.6899 123.359 31.6999C118.909 31.8999 114.529 32.2799 110.089 32.2299C106.839 32.2199 103.559 32.3999 100.329 32.0099C99.9689 31.9399 99.679 31.6599 99.679 31.2699C99.759 30.2299 101.039 30.5099 101.759 30.5499C102.469 30.5899 103.179 30.6299 103.889 30.6499C110.629 30.5999 117.409 30.1799 124.119 29.8799C132.999 30.2399 141.889 29.7799 150.769 30.1099C155.039 30.1499 159.169 31.1999 163.279 32.2499C166.469 33.0499 170.049 33.8899 172.039 36.7599C174.079 40.0499 174.049 44.5799 171.799 47.7599C169.029 51.6399 164.329 54.3199 159.469 54.0199Z" fill="white"/>
<path d="M38.0889 32.2996C34.9389 32.2996 31.7989 31.9697 28.6489 32.0597C21.3189 32.0597 13.6089 32.1697 6.81893 29.0196C3.93893 27.4096 2.32894 24.4597 1.07894 21.5196C-1.27106 16.4296 0.468941 10.4696 3.87894 6.29965C4.88894 4.86965 9.97894 -0.700334 11.6689 0.0996663C12.1889 0.389666 12.0489 1.21967 11.4589 1.31967C9.75893 2.38967 8.32893 3.85967 6.95893 5.31967C3.44893 9.18967 0.688938 14.6097 2.46894 19.8697C3.50894 22.2697 4.38894 24.6696 6.41893 26.3596C7.64893 27.5396 9.29894 27.9497 10.8889 28.4097C13.8689 29.3697 17.0189 29.5796 20.1289 29.7996C20.0989 29.7996 20.0689 29.7997 20.0489 29.7897C24.2289 30.0397 28.4189 29.7897 32.5989 29.9697C41.6989 30.3797 50.8189 30.2697 59.9189 29.8497C70.3989 28.6297 80.9589 29.1297 91.4589 29.8197C94.6089 30.2997 97.8389 29.8197 100.969 30.3697C101.479 30.4597 102.149 30.7996 101.979 31.4196C101.879 31.7696 101.559 31.9497 101.209 31.9297C100.709 31.8697 100.089 31.7597 99.6189 31.7397C90.2689 31.7097 80.9689 30.6097 71.6189 30.9397C67.6889 30.8697 63.5889 31.5096 59.7189 31.7596C57.6489 31.8696 55.7589 32.0196 53.7389 32.1696C48.5189 32.3596 43.2989 32.2296 38.0889 32.2996Z" fill="white"/>
</svg>
