<svg width="61" height="100" viewBox="0 0 61 100" fill="none" xmlns="http://www.w3.org/2000/svg">
<path d="M35.84 22.7584C28.4 22.6584 20.84 22.4884 13.58 20.7284C10.8 20.1284 8.19 18.9484 5.98 17.1484C4.31 15.8184 3.22 14.5184 3.45 12.2584C3.54 3.76843 17.15 2.05846 23.63 1.56846C27.43 1.19846 31.24 1.57845 35.03 1.89845C38.85 2.29845 42.66 2.95845 46.35 4.05845C49.45 4.89845 58.73 8.53845 60.07 11.2384C61.73 14.9584 58.41 18.8484 55.12 20.2684C51.58 21.5584 47.85 22.3385 44.07 22.2785C41.31 22.3585 38.59 22.8184 35.84 22.7584ZM37.5 20.5285C40.11 20.3885 42.69 19.9985 45.31 20.1585C48.44 20.1185 51.51 19.2985 54.48 18.3485C56.86 17.2885 59.55 14.6684 58.47 11.8584C57.83 10.6584 56.43 10.2084 55.32 9.54844C48.16 5.91844 40.4 4.08844 32.44 3.63844C27.8 3.12844 23.16 3.54845 18.54 4.02845C13.9 4.93845 8.20998 5.86844 5.55998 10.2284C5.11998 11.3784 5.13 12.8085 5.39 13.9685C6.48 15.5185 8.23 16.4684 9.8 17.4784C11.59 18.3684 13.54 18.7285 15.47 19.1185C18.2 19.7985 21 19.9285 23.79 20.1285C28.36 20.3385 32.95 20.5385 37.5 20.5285Z" fill="#D6FF00"/>
<path d="M23.02 34.5382C16.49 34.2682 9.63997 32.5282 4.44997 28.4182C3.79997 27.7282 3.41997 26.8582 3.01997 26.0082C2.55997 25.1382 2.26996 24.1482 2.53996 23.1782C3.36996 19.1082 7.49996 17.2482 10.85 15.5282C14.42 13.9482 18.25 12.8582 22.08 12.1282C25.01 11.7582 27.95 11.4382 30.91 11.4082C33.87 11.5282 36.84 11.7682 39.77 12.1682C45 12.9882 50.23 14.2182 54.86 16.8682C55.55 17.3282 56.63 17.4982 56.94 18.3382C58.61 19.5782 61.09 21.0982 60.89 23.4582C60.49 27.8982 55.92 30.1282 52.27 31.6682C49.57 32.5282 46.77 33.0882 43.99 33.5982C41.99 33.9482 40 34.4082 37.96 34.4482C32.98 34.5382 28 34.9382 23.02 34.5382ZM21.49 32.1782C23.6 32.2082 25.7 32.3482 27.81 32.3482C31 32.3382 34.18 31.9882 37.38 32.1282C40.16 32.1382 42.87 31.4582 45.6 31.0182C47.9 30.4582 50.27 30.2082 52.42 29.3182C54.54 28.2982 56.97 27.2682 58.36 25.3282C58.87 24.4582 59.5 23.2382 58.92 22.2682C57.93 21.0382 56.66 20.0482 55.3 19.2582C55.08 19.1182 54.97 18.8782 54.96 18.6282C52.55 17.5582 50.06 16.5082 47.59 15.7482C44.96 15.0882 42.12 14.5682 39.48 14.1582C33.74 13.3582 27.94 13.3682 22.2 14.1882C17.43 15.1682 5.05998 18.2582 4.33998 23.8282C4.26998 24.4282 4.71998 24.9182 4.95998 25.4282C5.41998 26.5082 6.16997 27.3482 7.22997 27.8482C9.65997 29.4482 12.56 30.4782 15.26 31.2282C17.31 31.7082 19.38 32.2282 21.49 32.1782Z" fill="#D6FF00"/>
<path d="M34.13 45.4589C29 45.2189 23.83 45.4188 18.73 44.6988C14.2 43.7788 9.59001 42.5889 5.52001 40.3789C3.37001 39.0989 2.66001 36.3888 3.08001 34.0388C3.51001 32.4488 5.00999 31.5189 6.37999 30.8189C7.17999 30.4789 8.87001 29.4288 9.27001 30.6388C9.38001 31.0788 9.00001 31.4188 8.62001 31.5188C7.66001 31.9688 6.68 32.3988 5.82 33.0388C4.68 33.8788 4.46 34.7889 4.73 36.1589C4.81 37.8089 6.11 38.9289 7.57 39.4889C11.6 41.1189 15.73 42.3589 20 43.0189C24.77 43.4889 29.61 43.3289 34.4 43.5189C41.25 43.4489 48.28 42.6388 54.56 39.7588C55.84 39.0088 56.85 37.8889 57.94 36.9089C58.5 36.3489 59.04 35.7089 59.16 34.8989C59.37 32.5589 57.73 30.4189 55.65 29.5989C55.41 29.3389 55.47 28.9088 55.75 28.6988C56.45 28.0988 57.44 28.8088 58.05 29.2288C59.96 30.4988 61.02 32.8989 60.76 35.1589C60.32 37.5089 58.17 38.9789 56.53 40.5289C50.68 44.3689 41.04 45.4489 34.13 45.4589Z" fill="#D6FF00"/>
<path d="M31.4001 55.2684C26.2101 54.8884 20.9401 55.2185 15.8201 54.0985C14.1501 53.7885 12.5101 53.3484 10.8901 52.8384C9.21012 52.3284 7.47013 51.9185 6.02013 50.8785C4.52013 49.9285 3.09011 48.5785 2.88011 46.7185C2.66011 44.8985 3.05013 42.6984 4.87013 41.8284C7.06013 40.5984 9.73012 40.4984 12.0101 41.3884C12.8201 41.5684 12.6501 42.7585 11.8301 42.7185C11.3501 42.6785 10.8701 42.5784 10.4101 42.4184C9.81011 42.2284 9.16013 42.2684 8.55013 42.3684C7.20013 42.4784 5.75011 42.9184 4.88011 44.0084C3.82011 46.7084 5.13012 48.3785 7.45012 49.6885C11.0001 51.1485 14.8401 52.0084 18.6001 52.6084C21.9901 52.9584 25.4101 52.9685 28.8101 53.0685C33.1901 53.4285 37.5901 53.5785 41.9701 53.0985C45.7901 52.3885 49.8001 51.7385 53.4201 50.3485C55.3301 49.3785 57.9001 48.6484 58.7601 46.4984C58.9301 44.8784 58.4101 42.8484 56.9601 41.9284C55.9001 41.2484 54.6701 41.7384 53.5401 41.9584C53.2101 42.0184 52.8701 42.0885 52.5401 42.0985C51.9201 42.1685 51.6501 41.2884 52.1601 40.9784C53.8201 40.3584 55.7101 39.6384 57.4101 40.4284C59.6701 41.4884 60.6501 44.3784 60.3701 46.7284C59.9901 48.4884 58.4601 49.6884 56.9601 50.5184C53.9301 52.3684 50.4701 53.2284 47.0401 53.9884C41.9401 55.2884 36.6401 55.4584 31.4001 55.2684Z" fill="#D6FF00"/>
<path d="M15.6702 64.928C13.3702 64.628 11.1202 64.138 8.92016 63.418C7.00016 62.878 5.09015 62.188 3.69015 60.698C-0.339851 57.408 0.0501637 51.838 5.58016 50.718C7.71016 50.448 9.89016 51.028 11.8902 51.718C12.3902 51.958 12.3602 52.738 11.8302 52.908C10.0002 52.868 8.17017 52.088 6.30017 52.238C2.62017 52.808 1.60016 56.048 4.11016 58.718C4.83016 59.398 5.52017 60.138 6.37017 60.658C7.34017 61.118 8.39017 61.408 9.40017 61.778C12.2802 62.748 15.2702 63.338 18.3002 63.508C18.6602 63.538 18.9502 63.818 18.9802 64.178C18.9902 65.518 16.4102 64.938 15.5502 64.908C15.5602 64.908 15.6702 64.928 15.6702 64.928Z" fill="#D6FF00"/>
<path d="M7.95022 18.4488C5.24022 17.6588 2.54021 16.0188 1.07021 13.5488C0.790211 12.9188 -0.299795 11.9388 0.470205 11.3288C1.1502 10.9088 1.55021 11.7388 1.82021 12.2288C2.79021 13.6288 3.84023 14.8788 5.34023 15.6988C6.12023 16.3388 8.79023 16.7988 8.59023 17.9488C8.54023 18.2488 8.23022 18.4788 7.95022 18.4488Z" fill="#D6FF00"/>
<path d="M3.6701 14.7483C2.6601 13.8783 1.57011 12.8683 1.11011 11.5983C0.980107 11.4883 0.850092 11.5783 0.720092 11.5283C0.690092 11.5783 0.630104 11.6383 0.670104 11.6883C0.700104 11.7183 0.760109 11.7383 0.800109 11.7483C0.950109 11.7883 0.890112 12.0283 0.740112 11.9883C0.680112 11.9683 0.620088 11.9383 0.560088 11.9183C0.640088 12.0183 0.760101 12.1083 0.760101 12.2383C0.830101 12.3383 0.980102 12.4183 0.980102 12.5483C1.0701 12.6783 1.4001 12.8483 1.2601 13.0283C1.2101 13.0783 1.13011 13.0683 1.08011 13.0183C0.970108 12.8883 0.850102 12.7683 0.730102 12.6583C0.320102 12.4183 0.0400884 11.9083 0.0600884 11.4283C0.240088 10.8983 0.970097 10.7883 1.3501 11.1883C1.6501 11.4183 1.78009 11.7683 1.91009 12.0983C2.31009 12.7883 2.75011 13.4683 3.30011 14.0483C3.47011 14.2783 3.80009 14.3683 3.94009 14.6083C3.97009 14.7683 3.7801 14.8183 3.6701 14.7483Z" fill="#D6FF00"/>
<path d="M4.29006 15.8483C2.78006 15.1283 0.350053 13.3983 5.33022e-05 11.6883C-0.0099467 10.4783 1.39008 10.7683 1.71008 11.6583C1.90008 12.1783 2.05008 12.7283 2.34008 13.1983C2.79008 13.7383 3.22007 14.3783 3.80007 14.7783C3.88007 14.7283 3.95005 14.7883 4.00005 14.8483C4.08005 15.5683 2.90005 14.3583 2.81005 14.1383C2.34005 13.6683 1.94006 13.1283 1.73006 12.4983C1.58006 12.1683 1.55005 11.7583 1.31005 11.4883C1.12005 11.1983 0.610059 10.9583 0.350059 11.2783C5.94258e-05 11.9083 0.610053 12.5883 1.00005 13.0483C1.78005 13.8983 2.66007 14.6983 3.67007 15.2483C3.90007 15.3783 4.12007 15.5383 4.36007 15.6083C4.52007 15.6683 4.44006 15.9083 4.29006 15.8483Z" fill="#D6FF00"/>
<path d="M4.86023 16.5188C2.97023 15.7988 0.500215 13.9288 0.220215 11.8188C0.230215 11.6588 0.490225 11.6488 0.480225 11.8288C0.470225 11.8788 0.450215 11.9188 0.470215 11.9688C1.02021 14.0088 2.95023 15.3788 4.77023 16.2488C4.81023 16.2588 4.86022 16.2688 4.91022 16.2788C5.06022 16.2988 5.02023 16.5488 4.86023 16.5188Z" fill="#D6FF00"/>
<path d="M30.5201 82.0988C29.3901 81.9088 29.9201 80.4588 30.0301 79.6988C29.8801 75.9388 31.4601 68.9588 27.8001 66.7488C25.4701 65.5988 22.7901 65.3288 20.2901 64.9888C18.9501 64.8688 17.5601 64.9888 16.2401 64.7288C14.5501 64.4888 12.8901 64.2788 11.2601 63.8188C10.8101 63.7188 10.1501 63.6288 10.1301 63.0588C10.0901 62.5988 10.6101 62.2688 11.0101 62.4688C12.8101 62.8488 14.6601 63.1688 16.4701 63.3788C19.8101 63.5688 23.0801 63.5588 26.3001 64.5588C32.4101 65.8788 31.9901 72.1488 31.7701 77.0888C31.6601 78.1988 31.8001 79.3888 31.5001 80.4588C31.3901 81.0788 31.3501 82.1088 30.5201 82.0988Z" fill="#D6FF00"/>
<path d="M29.7201 69.3787C29.6401 68.3087 28.6701 67.8087 27.9201 67.2087C26.0601 65.8587 23.8401 65.4787 21.6101 65.4687C20.5401 65.3687 19.4901 65.1787 18.4301 65.0687C17.8301 64.9387 17.1301 65.0087 16.6101 64.6487C16.1601 64.2987 16.4501 63.5087 17.0201 63.5287C19.4601 63.6487 21.9101 63.9487 24.3001 64.2287C26.6501 64.6587 28.8901 65.8987 30.5101 67.6487C30.8501 68.2687 31.5101 69.5987 30.5201 69.9087C30.1501 69.9687 29.8001 69.7287 29.7201 69.3787Z" fill="#D6FF00"/>
<path d="M35.3701 91.928C34.4401 91.768 34.75 90.658 34.68 89.988C34.6 88.458 34.55 86.958 34.27 85.458C33.19 81.658 30.36 82.5279 28.47 85.1979C27.64 86.5479 27.24 88.138 26.95 89.688C27.34 90.288 26.6 90.9279 26.03 90.5479C24.6 89.6379 26.39 85.058 27.27 83.998C29.44 80.818 33.31 79.6479 35.45 83.5379C36.16 84.9579 36.17 86.578 36.27 88.128C36.18 89.058 36.8401 92.048 35.3701 91.928Z" fill="#FF7A00"/>
<path d="M21.52 97.7488C21.31 97.5088 21.2499 97.2188 21.2899 96.8988C21.4199 95.8288 21.7999 94.8088 22.2299 93.8188C22.8799 91.6488 24.48 89.8788 26.71 89.2988C28.82 88.5788 31.1399 88.4088 33.2799 89.0888C34.4199 89.4288 35.68 89.7388 36.49 90.6888C37.86 92.3888 39.17 94.3287 39.45 96.5387C39.72 97.3987 38.82 98.2388 38.08 97.5588C37.52 96.7588 37.26 95.7788 36.83 94.9088C36.17 93.7888 35.5799 92.6688 34.6299 91.8088C31.9399 90.3588 28.7099 90.3988 25.9399 91.6488C24.6999 92.2088 24.24 93.5188 23.74 94.6788C23.4 95.4588 23.08 96.2488 22.83 97.0688C23.04 97.7688 21.97 98.2388 21.52 97.7488Z" fill="#FF7A00"/>
<path d="M32.8499 99.578C29.9499 99.328 27.0399 99.628 24.1399 99.328C23.2699 99.148 21.0699 99.4781 21.3899 98.0581C21.5599 97.6381 22.0399 97.5881 22.4399 97.6581C23.1999 97.6881 23.9599 97.688 24.7199 97.768C26.6299 97.838 28.4499 97.788 30.3299 97.768C32.6899 97.908 35.04 97.7981 37.4 97.7481C38.0599 97.8081 38.8099 97.608 39.4199 97.798C39.9899 98.028 40.0399 98.8581 39.5099 99.1581C37.3499 99.5281 35.0699 99.468 32.8499 99.578Z" fill="#FF7A00"/>
<path d="M38.8102 98.7789C38.4802 98.3989 38.6502 97.8389 38.6002 97.3789C38.5802 96.6489 39.7002 96.4789 39.8702 97.1989C40.1202 97.9289 39.8402 99.5089 38.8102 98.7789Z" fill="#FF7A00"/>
<path d="M21.1803 98.9681C20.5603 98.3981 20.8503 97.2781 21.3403 96.7081C21.7003 96.2981 22.4703 96.6581 22.4003 97.1681C22.3903 97.3481 22.3703 97.5281 22.3303 97.6981C22.6603 97.6881 22.9503 97.9881 22.9403 98.3181C22.9003 99.0881 21.7303 99.3581 21.1803 98.9681Z" fill="#FF7A00"/>
<path d="M39.0201 98.9787C38.8501 98.9287 38.6801 98.8187 38.5901 98.6587C38.4601 98.3987 38.4801 98.1087 38.6701 97.8887C38.4601 96.9787 37.9201 96.1787 37.7601 95.2487C37.5301 94.8587 37.3901 94.2687 37.8601 93.9987C39.0001 93.4087 39.3001 95.8387 39.7301 96.5287C39.9201 97.0487 40.3401 97.6187 40.1501 98.1887C39.9501 98.6287 39.5801 99.1587 39.0201 98.9787Z" fill="#FF7A00"/>
<path d="M38.8201 98.5982C38.4001 97.3982 40.3301 97.1182 40.2701 98.3982C40.2001 99.1482 39.1101 99.2982 38.8201 98.5982Z" fill="#FF7A00"/>
<path d="M21.4402 98.4982C21.3502 98.3882 21.2802 98.2782 21.1702 98.1782C20.8402 97.8882 20.9502 97.3882 21.0202 97.0082C21.3702 95.6782 21.7302 94.4782 22.4802 93.3582C22.9202 92.7582 23.9002 93.3282 23.6002 94.0082C23.3602 94.6382 23.0802 95.1382 22.8602 95.7582C23.0602 96.4082 22.6802 97.0782 22.5502 97.7182C22.8902 98.3382 21.9302 99.0282 21.4402 98.4982Z" fill="#FF7A00"/>
<path d="M23.3399 98.8181C22.2199 98.7781 21.6699 97.4681 21.9199 96.4981C22.0999 95.5981 22.0999 94.5281 22.7399 93.8181C23.2399 93.2581 24.0699 93.8981 23.7399 94.5481C23.4499 95.1681 23.4099 95.8681 23.2699 96.5381C23.1999 96.8581 23.1299 97.2181 23.3899 97.4781C24.4399 97.5281 24.4399 98.9481 23.3399 98.8181Z" fill="#FF7A00"/>
<path d="M36.59 98.2189C36.55 97.9089 36.75 97.5889 37.05 97.5089C37.23 97.4689 37.41 97.4489 37.59 97.4189C37.83 96.7689 37.4699 96.0589 37.1899 95.4689C36.7199 94.3489 35.84 93.3889 35.59 92.1889C35.53 91.5589 36.37 91.1689 36.77 91.6889C37.44 93.6689 40.21 96.4489 38.4 98.4589C37.93 98.8189 36.73 99.0289 36.59 98.2189Z" fill="#FF7A00"/>
<path d="M35.3702 99.1288C35.1002 99.0888 34.7902 99.1188 34.5802 98.9088C34.2202 98.5488 34.4202 97.9588 34.8902 97.8288C35.5802 97.7088 36.3302 97.9188 36.9802 97.6688C37.3102 97.3188 37.4801 96.7288 37.4701 96.2688C37.0401 95.4388 36.4301 94.6988 36.1601 93.7788C35.8601 93.0388 36.9102 92.5088 37.3202 93.1988C37.6402 93.8288 37.9002 94.4988 38.3202 95.0788C38.9402 95.8388 38.8902 96.8188 38.5202 97.6788C38.3602 98.1488 38.0602 98.5888 37.6302 98.8488C36.9002 99.1988 36.1202 99.1288 35.3702 99.1288Z" fill="#FF7A00"/>
<path d="M35.3599 98.678C35.3599 98.308 35.6499 98.0379 36.0099 98.0179C37.1599 97.9379 37.0399 96.488 36.8499 95.678C36.4699 93.828 34.9599 92.588 33.6299 91.378C33.3399 91.338 33.1299 91.0579 33.1299 90.7679C33.1399 89.9079 34.0999 89.898 34.5799 90.428C35.7399 91.448 37.0099 92.478 37.6299 93.928C38.4399 95.538 38.8299 98.1979 36.8899 99.1379C36.3499 99.3879 35.3899 99.468 35.3599 98.678Z" fill="#FF7A00"/>
</svg>
