<svg width="66" height="35" viewBox="0 0 66 35" fill="none" xmlns="http://www.w3.org/2000/svg">
<path d="M36.3113 34.835C31.9213 34.715 27.6513 33.4149 23.5113 32.0449C19.8713 30.6449 16.6112 28.355 13.5212 26.015C9.95125 22.925 6.66126 19.315 4.60126 15.025C2.42126 11.095 0.681264 6.66499 0.101264 2.22499C0.0412644 1.82499 -0.0387527 1.42496 0.0212473 1.01496C0.101247 0.454964 0.871279 0.254938 1.24128 0.674938C2.29128 2.11494 2.19127 4.08494 2.79127 5.73494C3.94127 9.15494 5.49129 12.615 7.31129 15.705C10.7613 21.305 15.9312 25.5749 21.6412 28.7349C24.4212 30.2849 27.5713 30.915 30.6213 31.715C33.2913 32.475 35.8012 32.665 38.5212 32.705C40.5512 32.735 42.5413 32.155 44.4713 31.645C47.2413 30.915 49.9113 29.825 52.3613 28.325C56.6813 25.395 60.6413 21.735 63.6613 17.465C64.0413 16.985 64.2313 16.315 64.7813 16.015C66.0013 15.765 65.9013 17.255 65.4113 17.975C64.5813 19.675 63.4113 21.1749 62.1313 22.5549C60.2013 24.7749 58.0913 26.815 55.7513 28.595C50.4413 32.615 42.9913 35.365 36.3113 34.835Z" fill="#D6FF00"/>
</svg>
