<svg width="64" height="18" viewBox="0 0 64 18" fill="none" xmlns="http://www.w3.org/2000/svg">
<path d="M6.84613 16.8406C4.68613 14.9806 2.57614 12.9906 0.91614 10.6606C-0.17386 9.03058 -0.433881 8.0106 0.926119 6.4306C2.36612 4.5606 4.44613 3.35059 6.02612 1.61059C6.59613 1.03059 7.96613 -0.729408 8.49613 0.770592C8.55613 1.18059 8.20612 1.44059 7.95612 1.71059C6.08612 4.24059 2.92612 5.6006 1.36612 8.3406C2.68612 11.3706 5.51611 13.4606 7.79611 15.7606C8.41611 16.3806 7.53613 17.3806 6.84613 16.8406Z" fill="#D6FF00"/>
<path d="M21.6462 17.0909C19.3162 15.4109 17.2962 13.3408 15.3062 11.2708C12.5562 8.68084 14.8062 7.38085 16.8562 5.56085C18.4462 4.33085 19.8062 2.86085 21.2362 1.46085C21.7762 0.970846 22.8162 1.33084 22.5162 2.14084C22.3662 2.44084 22.0462 2.59085 21.8562 2.87085C20.5862 4.51085 18.9862 5.81085 17.4062 7.12085C16.8162 7.79085 15.6662 8.13084 15.4962 9.08084C16.1562 10.1508 17.2362 10.9009 18.0562 11.8409C19.4562 13.4009 21.1962 14.6008 22.6062 16.1308C22.9762 16.7108 22.2362 17.4709 21.6462 17.0909Z" fill="#D6FF00"/>
<path d="M34.726 16.8807C33.346 15.4707 31.806 14.2307 30.456 12.7807C29.536 11.7507 28.746 10.7107 27.716 9.81075C27.026 9.30075 26.786 8.60072 27.396 7.91072C29.326 6.14072 31.526 4.63073 33.286 2.67073C33.796 2.09073 34.246 1.48073 34.706 0.860735C34.926 0.580735 35.206 0.310745 35.596 0.370745C36.926 0.780745 35.596 2.21072 35.166 2.88072C33.426 5.21072 31.036 6.96073 28.716 8.67073C30.556 10.2107 31.906 12.2407 33.726 13.8107C34.246 14.4807 36.566 16.1107 35.586 16.9407C35.346 17.1207 34.936 17.1207 34.726 16.8807Z" fill="#D6FF00"/>
<path d="M49.4363 15.5202C48.0663 14.3002 46.3763 13.6202 44.9563 12.4902C43.9463 11.6802 42.9663 10.8002 42.1063 9.83016C41.3663 9.05016 40.7563 8.26016 41.7363 7.36016C42.9063 5.89016 44.4363 4.91015 45.8563 3.72015C46.5363 3.09015 47.1863 2.42016 47.6963 1.64016C47.8063 1.45016 47.9263 1.27017 48.1363 1.18017C48.4863 1.04017 48.8663 1.21015 49.0263 1.54015C49.2563 2.24015 48.6063 2.88017 48.2563 3.43017C46.7863 5.42017 44.5363 6.57015 42.8563 8.35015C44.0363 9.65015 45.1963 10.6901 46.5763 11.6901C47.8863 12.5601 49.3163 13.2602 50.3963 14.4202C51.0063 15.0602 50.1363 16.0602 49.4363 15.5202Z" fill="#D6FF00"/>
<path d="M62.1362 17.1603C60.6462 15.5403 59.0762 13.9903 57.5762 12.3803C56.5462 11.0803 53.5962 9.20031 54.9662 7.35031C55.5462 6.63031 56.4362 6.0803 57.0862 5.4703C58.8662 3.8803 60.5362 2.16032 62.2162 0.490322C62.6662 0.200322 63.3462 0.500329 63.3462 1.06033C63.3262 1.48033 62.9462 1.74033 62.7462 2.09033C60.8962 4.53033 58.3362 6.31033 56.0862 8.31033C58.1162 11.2403 60.9162 13.5203 63.1362 16.2803C63.6362 16.9303 62.7162 17.7403 62.1362 17.1603Z" fill="#D6FF00"/>
</svg>
