<svg width="57" height="40" viewBox="0 0 57 40" fill="none" xmlns="http://www.w3.org/2000/svg">
<g filter="url(#filter0_d_2_251)">
<path d="M11.0024 29.8407C10.8124 30.8007 8.64244 30.3006 7.88244 30.4406C6.24244 30.5706 4.61241 30.4906 2.97241 30.5706C2.27241 30.7306 1.94244 29.6407 2.63244 29.4007C3.48244 29.2507 4.37242 29.2007 5.23242 29.2807C6.86242 29.2207 8.47241 29.0707 10.1024 29.1207C10.5324 29.0807 11.0924 29.3107 11.0024 29.8407Z" fill="#2B3F83"/>
<path d="M10.9124 8.53068C9.0324 8.84068 7.07241 8.90067 5.17241 8.95067C4.36241 8.99067 3.56243 9.07067 2.75243 9.08067C2.38243 9.09067 1.87243 9.07066 1.69243 8.69066C1.43243 8.21066 1.90245 7.6907 2.40245 7.8007C4.88245 7.5107 7.39242 7.6307 9.87242 7.3607C10.1724 7.3307 10.4624 7.2907 10.7624 7.3007C11.4824 7.3007 11.6124 8.38068 10.9124 8.53068Z" fill="#2B3F83"/>
<path d="M54.3924 30.1507C54.2624 30.3607 54.0424 30.4507 53.8224 30.5107C52.7224 30.7707 51.4924 30.7407 50.4024 30.8107C48.4224 30.9407 46.4124 30.8507 44.4424 30.8407C44.1024 30.7707 43.8424 30.5007 43.8524 30.1407C43.8824 29.3307 44.8324 29.4407 45.4024 29.4307C46.6524 29.3607 47.9224 29.4507 49.1624 29.4207C50.6224 29.3307 52.0324 29.2807 53.4724 29.2207C54.0924 29.0607 54.7624 29.5007 54.3924 30.1507Z" fill="#2B3F83"/>
<path d="M55.6725 8.53069C55.2425 9.43069 53.9325 9.07071 53.1125 9.18071C51.6825 9.19071 50.2625 9.17071 48.8725 9.24071C47.8425 9.25071 46.8125 9.2807 45.7925 9.3607C45.2125 9.4107 44.2925 9.56067 44.1925 8.76067C44.1425 8.37067 44.4425 8.02069 44.8225 7.97069C48.0825 7.70069 51.3625 7.60069 54.6325 7.72069C55.1825 7.15069 55.8825 7.90069 55.6725 8.53069Z" fill="#2B3F83"/>
<path d="M21.5324 29.5807C21.5524 31.9907 21.5924 35.1407 19.5824 36.8307C18.6324 37.4007 17.4524 37.3107 16.3824 37.4107C14.7624 37.4107 12.5224 37.6607 11.3024 36.4007C9.9924 34.7107 10.0824 32.1407 10.0024 30.1007C9.57242 27.7607 9.83241 24.7107 11.9924 23.2707C14.2224 21.9007 17.2424 21.8707 19.6624 22.7407C20.6824 23.1507 21.3324 24.1907 21.2224 25.2707C21.4424 26.7007 21.6624 28.1207 21.5324 29.5807ZM19.9424 29.8407C20.1224 28.3307 19.9124 26.8407 19.8224 25.3307C20.0124 24.3507 19.5124 24.0007 18.6024 23.8507C17.2624 23.4907 15.7724 23.5507 14.4324 23.7407C11.1524 24.2107 11.1424 27.5507 11.3724 30.1607C11.6324 31.4307 11.4424 32.7307 11.8124 33.9707C11.9424 34.5507 12.0424 35.2507 12.5424 35.6207C14.4824 36.1907 16.5524 35.9707 18.5324 35.7707C19.6524 35.0207 19.6524 33.3107 19.9024 32.0907C19.9024 32.1007 19.9024 32.1007 19.9024 32.1107C19.9024 32.1407 19.8924 32.1607 19.8924 32.1907C19.9824 31.4107 19.8924 30.6307 19.9424 29.8407Z" fill="#2B3F83"/>
<path d="M20.8125 13.7807C20.7025 15.1507 19.4825 16.1607 18.1225 16.0807C16.6925 16.1307 15.2525 16.1907 13.8425 15.9207C10.5225 15.4407 9.98245 11.6307 10.1724 8.88069C9.88245 8.12069 10.2425 7.06072 10.2025 6.29072C10.1825 4.77072 10.4325 3.13073 11.5025 1.98073C13.1325 0.390727 17.0825 0.0607272 19.0825 0.980727C20.1725 1.71073 20.0824 3.20073 20.1724 4.36073C20.7224 7.47073 20.5925 10.6507 20.8125 13.7807ZM19.2324 13.6707C18.8424 9.88073 19.0125 6.0007 18.4425 2.2607C17.0025 1.6907 12.9425 1.74069 12.2425 3.44069C11.4525 5.00069 11.9324 6.76072 11.5324 8.41072C11.8024 9.48072 11.5425 10.6807 11.8125 11.7307C12.1425 13.2407 12.5625 14.3107 14.2525 14.5107C15.1225 14.6707 16.1725 14.6107 16.9925 14.6707C17.8425 14.6207 19.2324 14.8707 19.2324 13.6707Z" fill="#2B3F83"/>
<path d="M44.3724 26.2607C44.2624 28.1207 44.3624 29.8407 44.2924 31.6807C44.2824 33.3807 44.7224 35.6107 42.9324 36.5907C40.9724 37.6507 35.6524 38.7307 34.2824 36.4807C33.6024 36.1707 33.5425 35.4107 33.4525 34.7707C33.3525 34.1307 33.2224 33.5007 33.2424 32.8507C32.8124 30.7807 32.9724 28.6707 33.5024 26.6407C33.6824 25.3407 33.8725 23.9307 34.9025 23.0007C36.3425 22.0107 38.2925 22.1707 39.9525 22.3807C42.4125 22.4707 44.6924 23.5307 44.3724 26.3707C44.3724 26.3607 44.3724 26.2607 44.3724 26.2607ZM42.8524 25.3307C42.6024 23.8507 40.6824 24.0507 39.5524 23.8007C38.3424 23.6507 37.0724 23.5307 35.9224 23.9807C35.1724 24.7307 35.1524 25.8607 35.1024 26.8607C34.9524 27.9407 34.6624 28.9907 34.6324 30.0907C34.6124 31.2207 34.8824 32.3307 34.8124 33.4507C34.8724 34.1307 34.9925 34.6307 35.0125 35.2607C35.0625 35.5007 35.3125 35.6107 35.4025 35.8407C36.6925 36.9207 41.4424 36.3007 42.5624 35.0407C43.0924 34.0007 42.5824 32.5507 42.7324 31.4607C42.7324 29.3507 42.8824 27.4107 42.8524 25.3307Z" fill="#2B3F83"/>
<path d="M45.1525 10.0706C44.9225 13.0506 44.4425 16.0906 40.8425 16.3206C39.8025 16.4306 38.7525 16.5006 37.7125 16.3806C36.4925 16.2406 35.0825 16.2906 34.1125 15.4406C33.2125 14.4406 33.2924 12.8607 33.2224 11.6207C33.1524 9.88069 33.0825 8.12064 33.2125 6.38064C33.5025 5.09064 33.3925 3.65065 34.0725 2.51065C35.3125 0.800648 37.8025 0.890682 39.7125 0.920682C40.8425 1.08068 42.0725 1.13064 43.0225 1.81064C45.1325 3.91064 45.2025 7.26065 45.1525 10.0706ZM43.6024 8.54068C43.5924 7.09068 43.4425 5.60068 42.9625 4.23068C42.6925 3.71068 42.5425 3.03064 41.9425 2.81064C40.1025 2.28064 38.0425 2.21066 36.2025 2.65066C34.5725 3.08066 35.2625 5.13068 34.8425 6.36068C34.7225 8.71068 34.7825 11.1006 34.7725 13.4406C34.8925 13.8206 34.8624 14.3507 35.2824 14.5407C36.9424 15.0807 38.7524 15.0207 40.4724 14.9207C41.2024 14.7707 41.8925 14.7407 42.4225 14.2907C43.6725 12.6807 43.4625 10.4107 43.6125 8.48068C43.6025 8.49068 43.6024 8.54068 43.6024 8.54068Z" fill="#2B3F83"/>
<path d="M33.7924 13.2007C31.3824 13.7607 28.9024 13.7707 26.4524 13.8907C24.6324 14.0207 22.8024 14.1807 20.9824 14.2807C20.6224 14.3007 20.2524 14.3507 19.9424 14.1507C19.4624 13.8507 19.6824 13.0607 20.2424 13.0807C23.6424 12.5107 27.0924 12.5807 30.5224 12.3707C31.5424 12.3407 32.5424 12.2407 33.5324 12.1107C34.1324 12.0607 34.3524 12.9707 33.7924 13.2007Z" fill="#2B3F83"/>
<path d="M34.3724 3.51064C31.2024 3.86064 28.0024 4.13067 24.8124 3.97067C23.0424 3.71067 21.2724 3.86068 19.7824 3.67068H19.7924C19.5224 3.60068 19.3324 3.37065 19.3524 3.08065C19.3824 2.78065 19.6324 2.59066 19.9224 2.59066H19.9124C19.9024 2.59066 19.8924 2.59066 19.8824 2.59066C19.8924 2.59066 19.9024 2.59066 19.8924 2.59066C23.1024 2.15066 26.3224 2.80065 29.5424 2.58065C31.1324 2.53065 32.6824 2.41066 34.2424 2.34066C34.9624 2.32066 35.0924 3.36064 34.3724 3.51064Z" fill="#2B3F83"/>
<path d="M33.4324 34.7207C30.8524 35.0307 28.2424 35.0207 25.6424 35.0907C24.0624 35.2007 22.4724 35.2307 20.9324 35.1107C20.6324 35.0607 20.2924 35.0707 20.0524 34.8507C19.7524 34.5707 19.8124 34.0407 20.1624 33.8607C23.5324 33.8207 27.0424 33.7607 30.4524 33.6607C31.3824 33.5907 32.3124 33.6907 33.2424 33.6007C33.8824 33.5607 34.0624 34.5407 33.4324 34.7207Z" fill="#2B3F83"/>
<path d="M34.8124 24.9907C33.1924 25.3207 31.5024 25.0207 29.8624 25.2407C27.7524 25.3307 25.4924 25.5507 23.4024 25.4007C22.6224 25.3807 21.8324 25.4507 21.0524 25.4007C20.7824 25.3907 20.4724 25.3407 20.3024 25.1007C20.0024 24.6807 20.3924 24.1707 20.8724 24.2207C22.6724 24.0107 24.4824 24.0906 26.2924 24.0106C28.1324 24.0206 30.0524 23.7507 31.8824 23.8607C32.7924 23.8807 33.7024 23.9207 34.6124 23.8607C34.9024 23.8407 35.1524 24.0607 35.2024 24.3407C35.2524 24.6207 35.0824 24.9207 34.8124 24.9907Z" fill="#2B3F83"/>
<path d="M26.0324 27.0907C26.0024 28.8907 25.8924 30.6707 25.6624 32.4607C25.5924 33.2307 25.7724 34.1507 25.2824 34.7907C24.8524 35.1407 24.2725 34.7307 24.3425 34.2107C24.3725 32.8807 24.3024 31.6207 24.6024 30.3707C24.7424 28.4507 24.7324 26.5207 24.9224 24.6107C24.9724 24.3307 25.2724 24.1407 25.5424 24.1707C26.1424 24.2107 26.0824 24.9807 26.0524 25.3707C26.0724 25.9407 26.0824 26.5107 26.0324 27.0907Z" fill="#2B3F83"/>
<path d="M26.2024 7.67072C25.9724 8.85072 26.6425 13.5607 24.8425 13.3007C24.4325 13.2107 24.3024 12.6307 24.6224 12.3707C24.9524 10.6607 24.7024 8.91068 24.9524 7.19068C24.9524 5.99068 24.8225 4.78069 25.0225 3.58069C25.1425 2.97069 26.0924 3.00073 26.1824 3.62073C26.1224 4.96073 26.2824 6.31072 26.2024 7.67072Z" fill="#2B3F83"/>
<path d="M16.6724 1.89069C16.4624 5.02069 16.6525 8.0907 16.5925 11.2207C16.5925 12.6507 16.7925 14.1307 16.4525 15.5307C16.3225 15.8607 15.9324 16.0307 15.6024 15.8607C15.2424 15.6707 15.2724 15.2907 15.2824 14.9507C15.1424 12.4907 15.1025 9.90072 15.2125 7.49072C15.3225 5.50072 15.2125 3.51071 15.5725 1.54071C15.8725 0.730711 16.8524 1.17071 16.6624 1.98071C16.6724 1.96071 16.6724 1.89069 16.6724 1.89069Z" fill="#2B3F83"/>
<path d="M39.2125 2.22072C39.0925 5.62072 38.7824 8.89071 38.5524 12.2707C38.5524 13.5007 38.5124 14.5507 38.2524 15.7207C38.1624 16.4507 37.0624 16.3607 37.1224 15.6107C37.0924 11.8307 37.3824 8.23073 37.8524 4.48073C38.0324 3.75073 37.7125 1.54074 38.7125 1.61074C39.0525 1.64074 39.2625 1.97074 39.2125 2.30074C39.2125 2.29074 39.2125 2.22072 39.2125 2.22072Z" fill="#2B3F83"/>
<path d="M17.3324 26.4607C17.2024 28.7407 17.2824 30.9906 17.1824 33.2606C17.1724 34.0206 17.3324 36.8107 16.2024 36.6607C15.4624 36.4107 15.9524 35.5106 15.8724 34.9506C15.7224 33.1006 15.8424 31.1906 15.8724 29.3906C15.9024 27.3006 16.1724 25.2306 16.1924 23.1406C16.2124 22.8706 16.4524 22.6606 16.7224 22.6406C17.5024 22.6606 17.2924 23.6606 17.3324 24.1906C17.3324 24.9806 17.3624 25.7607 17.3324 26.5507C17.3324 26.5507 17.3324 26.4607 17.3324 26.4607Z" fill="#2B3F83"/>
<path d="M39.3524 25.7007C39.1024 28.6107 39.1325 31.4607 38.8425 34.3507C38.7525 35.1807 39.0125 36.1206 38.6425 36.8806C38.2925 37.4306 37.3725 37.0607 37.5925 36.4107C37.5425 35.4907 37.4224 34.4707 37.4824 33.5807C37.6524 30.1107 38.0124 26.8307 38.3024 23.4007C38.3324 23.1207 38.5625 22.9007 38.8425 22.8907C39.8525 22.8607 39.2824 25.0307 39.3524 25.7007Z" fill="#2B3F83"/>
<path d="M16.3825 26.2506C16.2725 28.9406 16.2325 31.5807 16.1525 34.2607C16.1325 34.8407 16.4324 35.7007 15.7924 36.0407C15.3524 36.2807 14.8325 35.7606 15.0625 35.3106C14.6925 31.5906 15.2325 27.7906 15.3025 24.0606C15.3425 23.7906 15.6025 23.5907 15.8725 23.6007C16.2925 23.6207 16.4525 24.0507 16.4025 24.4207C16.4325 25.0307 16.4225 25.6406 16.3825 26.2506Z" fill="#8CA28F"/>
<path d="M15.7524 5.32066C15.6524 8.29066 15.5925 11.2707 15.7125 14.2407C15.7425 14.4807 15.6025 14.7907 15.3425 14.8507C14.5025 15.0107 14.5124 14.0707 14.4524 13.5107C14.3624 11.6407 14.4324 9.76066 14.4324 7.88066C14.4924 6.02066 14.5824 4.1507 14.6424 2.2907C14.7424 1.6807 15.6824 1.72068 15.7224 2.34068C15.7724 3.35068 15.7624 4.32066 15.7524 5.32066Z" fill="#8CA28F"/>
<path d="M40.2824 26.6906C40.1524 28.5106 40.1625 30.3907 39.9625 32.1807C39.7525 33.5307 39.9825 35.1906 39.5125 36.4406C39.1525 36.9406 38.3024 36.5307 38.5324 35.9307C38.5924 32.4507 39.1124 28.9607 39.1024 25.4807C39.1024 25.4907 39.1024 25.5007 39.1024 25.5207C39.1024 25.5307 39.1024 25.5506 39.1024 25.5606C39.0724 25.1106 39.1224 24.6507 39.1024 24.2007C39.1324 23.5007 40.1724 23.4907 40.2324 24.1807C40.2524 25.0207 40.2924 25.8506 40.2824 26.6906Z" fill="#8CA28F"/>
<path d="M40.0124 6.23068C39.8324 8.54068 39.6324 10.8607 39.4924 13.1707C39.3724 13.8907 39.6024 14.8406 39.0124 15.3806C38.5624 15.7006 37.9624 15.2307 38.1624 14.7207C38.2624 12.4907 38.3724 10.2507 38.6024 8.02066C38.8024 6.15066 38.8424 4.27068 38.8524 2.41068C38.9024 2.13068 39.1524 1.93064 39.4324 1.94064C40.0924 1.99064 39.9825 2.77069 40.0225 3.24069C40.0925 4.25069 40.0824 5.24068 40.0124 6.23068Z" fill="#8CA28F"/>
</g>
<defs>
<filter id="filter0_d_2_251" x="0.618412" y="0.473385" width="56.0922" height="39.329" filterUnits="userSpaceOnUse" color-interpolation-filters="sRGB">
<feFlood flood-opacity="0" result="BackgroundImageFix"/>
<feColorMatrix in="SourceAlpha" type="matrix" values="0 0 0 0 0 0 0 0 0 0 0 0 0 0 0 0 0 0 127 0" result="hardAlpha"/>
<feOffset dy="1"/>
<feGaussianBlur stdDeviation="0.5"/>
<feComposite in2="hardAlpha" operator="out"/>
<feColorMatrix type="matrix" values="0 0 0 0 0.839216 0 0 0 0 1 0 0 0 0 0 0 0 0 0.25 0"/>
<feBlend mode="normal" in2="BackgroundImageFix" result="effect1_dropShadow_2_251"/>
<feBlend mode="normal" in="SourceGraphic" in2="effect1_dropShadow_2_251" result="shape"/>
</filter>
</defs>
</svg>
