<svg width="70" height="237" viewBox="0 0 70 237" fill="none" xmlns="http://www.w3.org/2000/svg">
<path d="M35.6618 131.266C31.352 131.511 26.1372 134.904 26.5723 139.169C26.3385 139.723 26.6542 140.352 26.9784 140.821C27.3737 141.924 28.1627 142.892 29.088 143.677C31.862 145.938 37.4342 147.001 40.2968 144.363C45.1564 140.701 42.3883 131.152 35.6618 131.266ZM36.0002 132.444C40.5279 132.596 42.6017 138.912 40.7638 142.058C39.2723 144.447 37.2083 145.038 34.3321 144.662C31.2447 144.226 28.6299 142.343 27.6778 139.633C27.7799 139.494 27.7882 139.324 27.7036 139.178C27.6693 138.629 27.6838 138.184 27.8601 137.673C29.0476 134.656 32.4678 132.493 36.0002 132.444Z" fill="#00FF09"/>
<path d="M33.1567 141.278C31.579 141.109 30.329 139.833 30.533 138.369C30.5709 137.935 30.537 137.407 30.9153 137.082C31.1453 136.919 31.4495 136.965 31.6398 137.152C31.8301 137.339 31.7652 137.594 31.7349 137.827C31.7313 138.229 31.7162 138.642 31.7942 139.042C31.9885 140.011 33.6206 140.571 34.4839 140.004C34.4841 140.014 34.4724 140.015 34.4727 140.025C34.4727 140.025 34.4727 140.025 34.4386 140.068C34.9208 139.107 34.2328 137.946 34.4934 136.979C34.9798 135.647 37.339 135.822 38.0488 136.907C38.6746 137.879 38.9682 139.153 38.2181 140.13C38.0483 140.387 37.6775 140.501 37.3829 140.348C36.7227 139.991 37.3403 139.386 37.4241 138.908C37.4485 138.379 37.2272 137.812 36.9384 137.363C36.6067 137.106 36.0452 137.022 35.6523 137.199C35.9951 139.18 36.3258 141.723 33.1567 141.278Z" fill="#00FF09"/>
<path d="M29.9174 137.918C29.4526 138.001 29.3009 138.576 29.6792 138.832C29.857 138.977 30.0884 138.888 30.2984 138.894C30.649 138.929 31.0901 138.825 31.1293 138.454C31.1762 137.882 30.3701 137.814 29.9174 137.918Z" fill="#00FF09"/>
<path d="M38.2863 138.289C37.7034 138.301 37.3106 139.07 37.9335 139.312C38.0861 139.362 38.2141 139.348 38.353 139.293C38.5859 139.277 38.8087 139.336 39.0418 139.332C39.6132 139.331 39.7614 138.577 39.233 138.397C38.9397 138.308 38.612 138.251 38.2863 138.289Z" fill="#00FF09"/>
<path d="M34.7783 151.232C34.7094 151.287 34.6405 151.341 34.5835 151.405C34.1895 151.53 34.0712 152.029 34.3336 152.32C34.7388 152.756 35.7434 152.842 36.0821 152.285C36.6824 151.395 35.6405 150.612 34.7783 151.232Z" fill="#00FF09"/>
<path d="M25.9836 117.889C24.7581 117.839 24.2288 118.199 24.439 119.379C24.4818 120.352 24.5157 121.461 24.4529 122.404C23.7839 129.187 23.512 136.004 23.671 142.791C23.7169 145.667 23.7515 148.565 23.4356 151.427C23.3525 152.518 23.2344 153.61 23.0927 154.692C22.9776 155.35 23.1535 155.981 24.06 155.825C24.7236 155.77 25.487 155.458 26.1213 155.689C27.2937 156.586 26.9505 158.084 26.8117 159.303C26.6527 160.099 27.5416 160.23 28.2287 160.184C31.2724 160.187 34.2845 160.941 37.2525 161.241C38.5985 161.489 39.9666 161.674 41.3228 161.847C41.9198 161.962 42.7475 161.946 42.8972 161.266C43.2404 159.186 43.9832 156.675 46.513 156.053C46.722 156.007 46.9074 155.95 47.0441 155.789C47.3716 155.253 47.1126 154.55 47.1127 153.968C46.9828 152.723 46.9117 151.497 46.8984 150.249C46.8785 145.754 47.2445 141.315 47.0614 136.824C47.2046 132.907 47.4625 128.893 47.5367 125.02C47.6194 123.326 47.9932 121.606 47.7964 119.928C47.2505 118.87 45.571 119.443 44.5674 119.411C43.7387 119.374 40.5437 118.803 40.7209 120.08C40.9061 120.594 41.4504 120.404 41.8448 120.301C42.7882 120.239 43.6077 120.403 44.5184 120.459C45.2649 120.465 46.0298 120.227 46.7784 120.339C46.0924 128.022 45.744 135.676 45.7462 143.365C45.7078 147.28 45.3899 151.21 46.0158 155.101C43.2403 155.685 42.072 158.49 41.7917 160.801C38.9246 160.298 36.1163 159.826 33.2293 159.492C31.5316 159.156 29.8014 158.936 28.0664 159.066C28.7172 156.621 27.6674 153.69 24.3286 154.677C25.4418 148.531 24.7559 142.22 24.9821 136.038C25.0333 133.35 25.0828 130.578 25.2512 127.92C25.4479 124.923 25.9361 121.93 25.5728 118.923C26.3303 118.897 27.125 118.987 27.8685 118.845C28.0766 118.757 28.2009 118.553 28.1733 118.342C27.9373 117.617 26.6264 117.961 25.9836 117.889Z" fill="#00FF09"/>
<path d="M27.6573 111.192C27.7594 115.717 27.7103 120.256 27.9523 124.778C28.0443 125.295 27.8492 126.039 28.3807 126.377C28.7575 126.56 29.1957 126.308 29.1997 125.927C29.0978 121.995 29.0772 118.05 28.975 114.106C28.9549 113.102 28.9114 112.088 28.7864 111.085C28.758 110.832 28.486 110.647 28.2179 110.652C27.8919 110.68 27.6635 110.917 27.6573 111.192Z" fill="#00FF09"/>
<path d="M33.812 101.148C33.6134 106.959 33.8577 112.761 34.0204 118.564C34.0898 120.287 34.0776 122.011 34.2054 123.733C34.3227 124.355 34.1679 125.362 35.0236 125.578C35.5157 125.695 35.8887 125.106 35.5094 124.796C35.2189 117.853 35.091 110.874 34.9985 103.917C35.0153 103.007 35.0323 102.107 34.9559 101.199C34.9275 100.946 34.7482 100.727 34.4443 100.691C34.1522 100.665 33.8299 100.873 33.812 101.148Z" fill="#00FF09"/>
<path d="M40.6389 106.649C40.3378 109.67 40.4784 112.618 40.457 115.633C40.6071 119.057 40.293 122.596 40.8738 125.979C41.0832 126.536 42.0117 126.316 41.8483 125.727C41.6864 121.129 41.7457 116.517 41.7121 111.916C41.6759 110.108 41.7828 108.456 41.8293 106.699C41.8279 106.044 40.6957 105.992 40.6389 106.649Z" fill="#00FF09"/>
<path d="M24.1832 112.996C23.0909 113.187 21.7594 113.087 20.8627 113.729C20.3273 114.363 20.38 115.251 20.2435 116.005C19.9978 117.712 19.9156 119.438 19.7515 121.144C18.9975 127.76 18.5119 134.38 18.7959 141.006C18.8419 146.801 18.7593 152.589 19.0966 158.378C19.1576 159.678 19.1351 160.884 19.4044 162.106C19.5305 162.579 19.7399 163.136 20.2347 163.39C20.5885 163.584 20.9965 163.576 21.381 163.558C22.2317 163.53 23.0275 163.673 23.8581 163.804C26.8531 164.284 29.9106 163.81 32.9437 163.866C37.3485 163.704 41.6931 164.611 46.0977 164.439C47.8091 164.299 49.6225 164.59 51.2699 164.166C51.6392 163.968 51.6661 163.566 51.5894 163.229C51.4671 162.364 51.3451 161.51 51.271 160.718C51.0844 158.384 51.0488 156.026 50.9553 153.68C50.3898 146.393 51.3042 139.055 51.8355 131.799C52.0905 128.219 51.7971 124.629 52.0285 121.038C52.0951 119.123 52.2902 117.215 52.0771 115.305C52.0485 115.041 51.9841 114.735 51.7359 114.571C51.5704 114.458 51.3835 114.441 51.1851 114.434C49.9259 114.449 48.7796 114.27 47.5537 114.2C46.1072 114.176 44.6719 114.13 43.2489 114.117C42.818 114.146 42.3617 114.071 41.9442 114.185C41.6087 114.319 41.5114 114.701 41.7381 114.961C42.5183 115.485 43.7363 115.165 44.6602 115.294C46.8171 115.272 48.7913 115.444 50.9027 115.476C50.9749 116.755 50.9079 118.067 50.8277 119.307C50.5015 123.406 50.7722 127.611 50.5157 131.699C50.186 136.201 49.7756 140.757 49.5039 145.247C49.3764 147.619 49.4475 150.008 49.5765 152.375C49.7418 155.978 49.6744 159.607 50.3637 163.169C45.4329 163.267 40.5995 162.994 35.7056 162.605C31.2007 162.431 26.6793 163.177 22.2095 162.42C21.789 162.386 21.3581 162.416 20.927 162.435C20.8683 162.415 20.8556 162.363 20.8198 162.321C20.3116 160.819 20.5705 159.184 20.458 157.642C20.3978 155.211 20.2556 152.77 20.2187 150.338C20.425 144.327 19.9783 138.317 20.1964 132.315C20.2445 128.887 20.6453 125.601 20.9155 122.2C21.2142 119.645 21.1618 117.023 21.7295 114.505C23.1353 114.244 24.5886 114.024 25.9887 114.06C26.6754 113.993 27.9354 114.603 28.1745 113.731C28.3053 112.691 24.9524 112.97 24.1832 112.996Z" fill="#00FF09"/>
<path d="M37.1208 203.773C32.8109 204.015 27.595 207.358 28.0288 211.555C27.7949 212.101 28.1104 212.72 28.4345 213.182C28.8293 214.267 29.618 215.22 30.5431 215.993C33.3164 218.217 38.8882 219.262 41.7516 216.664C46.6123 213.058 43.8472 203.659 37.1208 203.773ZM37.4588 204.932C41.9864 205.081 44.0583 211.297 42.2194 214.395C40.7271 216.747 38.663 217.33 35.7869 216.96C32.6997 216.533 30.0854 214.679 29.1341 212.012C29.2364 211.875 29.2446 211.708 29.1601 211.564C29.126 211.023 29.1406 210.586 29.3171 210.082C30.5055 207.112 33.9263 204.982 37.4588 204.932Z" fill="#00FF09"/>
<path d="M34.6125 213.63C33.0349 213.464 31.7853 212.208 31.9897 210.767C32.0278 210.339 31.9941 209.82 32.3725 209.5C32.6025 209.339 32.9067 209.385 33.097 209.568C33.2872 209.752 33.2222 210.003 33.1918 210.233C33.1881 210.629 33.1729 211.035 33.2508 211.429C33.4448 212.383 35.0767 212.934 35.9401 212.375C35.9403 212.385 35.9287 212.386 35.9289 212.396C35.9289 212.396 35.9289 212.396 35.8948 212.438C36.3773 211.492 35.6897 210.35 35.9505 209.397C36.4374 208.086 38.7965 208.257 39.5059 209.326C40.1315 210.282 40.4247 211.536 39.6743 212.498C39.5044 212.751 39.1335 212.863 38.839 212.713C38.1789 212.361 38.7967 211.766 38.8806 211.296C38.9052 210.775 38.6841 210.217 38.3954 209.775C38.0638 209.521 37.5024 209.439 37.1093 209.613C37.4516 211.564 37.7815 214.066 34.6125 213.63Z" fill="#00FF09"/>
<path d="M31.3743 210.323C30.9095 210.405 30.7576 210.971 31.1358 211.223C31.3136 211.366 31.545 211.278 31.755 211.284C32.1056 211.318 32.5467 211.216 32.586 210.851C32.6331 210.288 31.8271 210.22 31.3743 210.323Z" fill="#00FF09"/>
<path d="M39.743 210.686C39.1602 210.698 38.7671 211.455 39.39 211.692C39.5425 211.741 39.6705 211.729 39.8094 211.674C40.0423 211.659 40.2651 211.717 40.4982 211.712C41.0696 211.711 41.218 210.969 40.6897 210.792C40.3964 210.704 40.0688 210.648 39.743 210.686Z" fill="#00FF09"/>
<path d="M36.231 223.428C36.1621 223.481 36.0932 223.535 36.0362 223.598C35.6421 223.721 35.5237 224.213 35.786 224.499C36.1911 224.928 37.1956 225.012 37.5345 224.464C38.1351 223.588 37.0934 222.817 36.231 223.428Z" fill="#00FF09"/>
<path d="M27.4468 190.608C26.2213 190.56 25.6919 190.914 25.9018 192.076C25.9442 193.033 25.9777 194.125 25.9147 195.053C25.2435 201.73 24.9695 208.441 25.1265 215.122C25.1714 217.953 25.2052 220.806 24.8883 223.623C24.8048 224.697 24.6864 225.772 24.5445 226.837C24.4291 227.485 24.6048 228.106 25.5113 227.952C26.175 227.897 26.9384 227.591 27.5727 227.817C28.7448 228.7 28.4012 230.175 28.2619 231.375C28.1027 232.159 28.9915 232.287 29.6787 232.242C32.7223 232.244 35.7341 232.985 38.7021 233.28C40.048 233.524 41.416 233.704 42.7722 233.875C43.3692 233.988 44.1968 233.972 44.3467 233.302C44.6906 231.255 45.4342 228.783 47.9641 228.17C48.1731 228.124 48.3585 228.068 48.4953 227.909C48.8229 227.382 48.5642 226.69 48.5644 226.117C48.435 224.891 48.3642 223.685 48.3513 222.456C48.3328 218.032 48.7002 213.662 48.5185 209.24C48.663 205.385 48.9222 201.434 48.9975 197.621C49.0808 195.954 49.4551 194.26 49.2588 192.608C48.7132 191.567 47.0336 192.132 46.03 192.1C45.2014 192.065 42.0066 191.504 42.1833 192.76C42.3683 193.267 42.9127 193.079 43.3071 192.977C44.2505 192.917 45.07 193.077 45.9807 193.132C46.7272 193.138 47.4921 192.904 48.2407 193.014C47.5523 200.576 47.2015 208.111 47.2013 215.68C47.1617 219.534 46.8425 223.403 47.4672 227.232C44.6916 227.808 43.5224 230.57 43.2414 232.845C40.3744 232.351 37.5664 231.887 34.6794 231.559C32.9819 231.229 31.2517 231.013 29.5167 231.142C30.1683 228.734 29.1194 225.85 25.7803 226.823C26.8954 220.772 26.2114 214.559 26.4396 208.474C26.4917 205.828 26.5421 203.099 26.7113 200.483C26.9089 197.532 27.398 194.586 27.0356 191.626C27.7931 191.601 28.5878 191.689 29.3314 191.549C29.5395 191.462 29.6638 191.261 29.6364 191.054C29.4005 190.34 28.0895 190.678 27.4468 190.608Z" fill="#00FF09"/>
<path d="M29.1226 184.016C29.2233 188.47 29.1727 192.938 29.4133 197.389C29.5051 197.897 29.3098 198.63 29.8412 198.963C30.218 199.143 30.6562 198.895 30.6604 198.52C30.5596 194.649 30.5403 190.765 30.4394 186.884C30.4196 185.895 30.3763 184.896 30.2517 183.91C30.2233 183.66 29.9514 183.478 29.6833 183.484C29.3574 183.511 29.1288 183.745 29.1226 184.016Z" fill="#00FF09"/>
<path d="M35.2804 174.126C35.0799 179.846 35.3224 185.557 35.4833 191.27C35.5522 192.966 35.5395 194.664 35.6667 196.358C35.7839 196.97 35.6288 197.962 36.4843 198.174C36.9764 198.289 37.3496 197.709 36.9703 197.404C36.6821 190.57 36.5563 183.7 36.466 176.851C36.4831 175.955 36.5004 175.07 36.4242 174.176C36.3959 173.927 36.2167 173.712 35.9128 173.676C35.6207 173.651 35.2983 173.855 35.2804 174.126Z" fill="#00FF09"/>
<path d="M42.1055 179.539C41.8034 182.513 41.9431 185.415 41.9208 188.383C42.0698 191.753 41.7547 195.237 42.3344 198.568C42.5436 199.115 43.4721 198.899 43.3089 198.319C43.1485 193.793 43.2093 189.252 43.177 184.724C43.1414 182.944 43.2489 181.318 43.2959 179.588C43.2947 178.943 42.1625 178.893 42.1055 179.539Z" fill="#00FF09"/>
<path d="M25.6479 185.792C24.5555 185.98 23.2242 185.882 22.3272 186.514C21.7916 187.139 21.8441 188.013 21.7073 188.755C21.461 190.436 21.3784 192.135 21.2137 193.815C20.4577 200.327 19.9699 206.844 20.252 213.366C20.2961 219.071 20.2117 224.768 20.5472 230.467C20.6078 231.747 20.5849 232.934 20.8538 234.137C20.9798 234.603 21.189 235.15 21.6837 235.401C22.0374 235.591 22.4454 235.583 22.8299 235.565C23.6807 235.538 24.4764 235.678 25.307 235.807C28.3018 236.278 31.3594 235.811 34.3925 235.865C38.7973 235.704 43.1416 236.596 47.5462 236.424C49.2577 236.286 51.0709 236.573 52.7185 236.154C53.0878 235.96 53.1148 235.563 53.0382 235.232C52.9163 234.38 52.7945 233.539 52.7206 232.76C52.5347 230.463 52.5 228.142 52.4071 225.832C51.8439 218.659 52.7607 211.436 53.2942 204.293C53.5503 200.769 53.258 197.234 53.4905 193.7C53.5578 191.814 53.7535 189.936 53.5409 188.056C53.5124 187.796 53.4481 187.496 53.2 187.334C53.0345 187.223 52.8476 187.206 52.6492 187.199C51.39 187.214 50.2437 187.039 49.0179 186.97C47.5714 186.947 46.1361 186.902 44.7132 186.889C44.2823 186.919 43.826 186.845 43.4084 186.957C43.0729 187.089 42.9755 187.465 43.2021 187.721C43.9821 188.237 45.2003 187.921 46.1241 188.048C48.281 188.026 50.2551 188.194 52.3665 188.225C52.4383 189.484 52.3708 190.776 52.2903 191.996C51.9628 196.032 52.2322 200.17 51.9745 204.194C51.6433 208.626 51.2315 213.111 50.9584 217.532C50.8302 219.866 50.9005 222.218 51.0287 224.548C51.193 228.095 51.1245 231.668 51.8126 235.173C46.8818 235.272 42.0485 235.004 37.1547 234.623C32.65 234.452 28.1284 235.188 23.6588 234.445C23.2383 234.412 22.8074 234.441 22.3763 234.46C22.3176 234.44 22.3049 234.389 22.2691 234.348C21.7614 232.869 22.0208 231.26 21.9088 229.742C21.8493 227.349 21.708 224.947 21.6718 222.553C21.8799 216.634 21.4351 210.719 21.6552 204.811C21.7043 201.437 22.1061 198.201 22.3774 194.853C22.6769 192.338 22.6253 189.757 23.1937 187.278C24.5996 187.021 26.053 186.804 27.4531 186.839C28.1398 186.773 29.3996 187.373 29.639 186.514C29.7701 185.491 26.4171 185.766 25.6479 185.792Z" fill="#00FF09"/>
<path d="M32.4048 30.2687C37.9393 30.3617 43.4805 30.3368 49.0177 30.5565C51.9971 30.5759 54.9693 30.677 57.9448 30.941C59.9109 30.9997 61.8863 31.0672 63.8306 31.3798C67.8179 31.5322 68.7513 35.4788 68.6938 38.8032C68.7977 40.7478 68.7387 42.6959 68.4619 44.6213C68.1166 47.6076 68.5788 50.6676 67.9343 53.6329C67.5375 55.4522 66.3811 56.8798 65.3709 58.3768C63.8792 60.2279 61.3002 60.7434 59.0605 61.0255C57.8854 61.1224 56.708 61.1107 55.5392 61.0808C55.0235 61.1006 54.1916 61.1541 54.1767 60.4391C54.2544 59.3871 55.7942 59.844 56.5164 59.7384C58.4094 59.7623 60.4421 59.5389 62.1754 58.8508C63.4536 58.4892 64.3393 57.5381 64.9495 56.4025C66.3366 54.7437 66.799 52.5971 66.7639 50.479C66.9551 48.7908 66.6933 47.0939 66.8574 45.4063C67.2304 42.0119 67.645 38.4447 66.7516 35.113C66.4286 34.3863 66.1793 33.7214 65.5273 33.2822C64.1087 32.5602 62.281 32.6255 60.8017 32.4661C58.5915 32.4307 56.3614 32.3051 54.1669 32.1516C50.5702 32.0635 46.948 32.0484 43.3583 31.8606C39.9598 31.7231 36.5597 31.9388 33.1614 31.8104C27.9519 31.6744 22.7459 32.136 17.5855 32.6148C13.1635 32.8971 8.65792 32.6468 4.3632 33.8229C3.66967 34.0003 3.45794 34.702 3.58013 35.3514C3.75247 36.6698 3.97892 37.9781 4.09715 39.3067C4.44787 42.2332 4.83741 45.2857 5.38612 48.1537C6.27085 51.5037 6.42585 55.0319 7.5806 58.3039C8.15214 60.5286 10.1447 60.1158 11.9455 60.0602C14.0453 60.0164 16.1363 59.9819 18.2371 59.9835C18.7574 59.7462 19.2861 60.351 18.9697 60.8103C18.6713 61.2693 18.0557 61.273 17.5764 61.3011C16.9345 61.3507 16.2919 61.3641 15.6492 61.3775C14.2556 61.4156 12.8621 61.4627 11.4679 61.4736C10.055 61.4578 8.38372 61.6466 7.31947 60.5459C5.63579 58.3987 5.43023 55.4873 4.91451 52.8993C3.81953 47.7155 2.93484 42.6269 2.41781 37.3677C2.10159 35.6629 1.73727 33.3886 3.65798 32.5699C5.26567 31.9388 7.03686 31.7661 8.7443 31.5766C11.8068 31.2321 14.8051 31.2873 17.8614 31.0788C22.6771 30.571 27.5414 30.2252 32.4048 30.2687Z" fill="white"/>
<path d="M44.4756 38.9999C48.2052 38.9494 51.98 39.3326 55.6845 39.3822C57.5486 39.3252 58.09 39.2325 58.0252 41.3346C57.8098 44.0374 58.4172 46.6779 58.5273 49.3559C58.7589 50.9085 56.6748 50.8432 55.6901 50.9543C55.0745 50.9581 53.9973 51.4061 53.807 50.5318C53.7546 50.1888 53.9922 49.8578 54.3352 49.8054C55.31 49.6583 56.2964 49.6287 57.2518 49.4186C57.1802 47.7178 56.8285 46.05 56.6666 44.3601C56.5778 43.1395 56.7244 41.9231 56.6899 40.7014C54.3931 40.8488 51.9436 40.6282 49.6958 40.5211C46.9412 40.4336 44.1884 40.4276 41.4374 40.512C35.9336 40.5905 30.4585 41.1754 24.9659 41.3532C21.3383 41.5193 17.6965 41.4412 14.0699 41.6526C14.4327 43.4198 14.9305 45.148 15.0133 46.9482C15.0497 48.2604 15.1368 49.3995 15.3533 50.6627C15.4323 50.978 15.5028 51.3206 15.7787 51.5231C16.5612 51.706 18.9648 51.0312 19.0244 52.1528C19.0295 52.3971 18.8892 52.6174 18.665 52.7216C17.9537 52.9176 17.1818 52.8069 16.4487 52.8221C15.9591 52.7961 15.4432 52.8069 15.021 52.535C13.1901 51.1424 14.0586 46.7598 13.3519 44.5651C13.1837 43.4458 12.7892 42.3312 12.7928 41.1993C12.8795 40.5818 13.5637 40.3864 14.0965 40.321C18.7244 39.9258 23.3812 40.046 28.0198 39.7321C33.4985 39.3192 38.9891 39.0418 44.4756 38.9999Z" fill="white"/>
<path d="M32.4874 24.4952C36.3067 24.4066 40.2422 24.6777 44.0229 24.9068C48.6256 25.0373 53.2307 24.8509 57.8395 24.8454C58.6637 24.8554 58.7346 26.0854 57.8665 26.1397C55.1533 26.2958 52.424 26.1172 49.71 26.2372C45.9299 26.4698 42.0404 26.2339 38.3408 25.985C35.6219 25.8696 32.9071 25.9534 30.1905 25.9466C26.1628 26.0305 22.1339 26.0601 18.1203 26.3882C16.7365 26.4623 15.3526 26.5363 13.9699 26.6648C13.0022 26.7211 11.1735 26.8578 10.2267 26.615C9.69798 26.4449 9.78925 25.6099 10.3318 25.5715C10.6568 25.5285 11.7927 25.6054 12.118 25.5715C18.8991 24.6515 25.6608 24.5378 32.4874 24.4952Z" fill="white"/>
<path d="M59 10.9997C59.3769 12.5764 59.2553 13.4378 59.316 15.0483C59.4265 17.3097 59.0201 19.5367 58.8223 21.7774C58.7699 22.7383 58.8353 23.7058 58.7286 24.6678C58.6888 24.9313 58.261 25.9215 58 25.9994C57.5952 26.1255 57.4315 24.9937 57.5405 24.5749C57.1932 21.3767 58.1241 18.2514 58.0487 15.0656C58.0623 13.5441 58.2474 12.0009 58.1071 10.4826C58.1382 10.9063 58.7428 10.3893 59 10.9997Z" fill="white"/>
<path d="M10.7442 10.6547C10.9837 10.8489 10.9393 11.3298 10.9622 11.5557C11.1009 13.8709 11.1132 16.1977 11.0619 18.5169C11.0534 20.7174 11.0904 22.9261 11.1362 25.1255C11.1433 25.4694 11.1973 25.8848 10.9497 26.1707C10.5869 26.5766 9.87377 26.2474 9.926 25.7121C9.68314 23.1818 9.69331 20.628 9.75819 18.0913C9.82419 16.0435 9.80666 13.8978 9.74613 11.8617C9.72275 11.6087 9.69934 11.3556 9.70312 11.102C9.70123 10.5768 10.365 10.2733 10.7442 10.6547Z" fill="white"/>
<path d="M54.2221 14.3668C55.1397 14.5107 54.6036 16.1608 54.6809 16.8293C54.5845 18.2891 54.4882 19.749 54.4008 21.2087C54.3703 21.4809 54.3494 21.7802 54.1544 21.9835C53.6575 22.4737 52.7854 21.9033 53.1707 21.2705C53.1365 19.6323 53.2384 18.0003 53.4037 16.376C53.5444 15.7392 53.262 14.3506 54.2221 14.3668Z" fill="white"/>
<path d="M43.1027 14.7967C44.1559 14.9287 43.4288 16.9722 43.4989 17.7313C43.4067 18.9557 43.3569 20.0433 43.3086 21.2034C43.2965 21.4934 43.3214 21.8188 43.0997 22.0408C42.807 22.3366 42.2983 22.2567 42.1272 21.8709C41.9423 20.8153 42.0552 19.7173 42.0601 18.6487C42.1182 17.5247 42.1942 16.3912 42.4065 15.2821C42.4633 14.964 42.7943 14.7669 43.1027 14.7967Z" fill="white"/>
<path d="M31.4141 15.7385C31.7499 15.7768 31.9826 16.0798 31.9534 16.4154C31.9085 17.3037 31.8817 18.1917 31.7823 19.0721C31.5989 19.8275 31.8553 22.5749 30.4914 21.8698C30.2797 21.7022 30.2114 21.4682 30.2608 21.2317C30.361 20.3875 30.3704 19.5361 30.4341 18.6837C30.582 17.9562 30.3349 15.6614 31.4141 15.7385Z" fill="white"/>
<path d="M26.5971 15.3219C27.0794 15.4386 27.0812 15.9547 27.0351 16.3541C26.9561 18.212 27.0402 20.0755 26.9252 21.9433C26.9263 22.4322 26.3543 22.7882 25.9494 22.4797C25.6551 22.2595 25.7016 21.8872 25.6858 21.5616C25.764 20.5368 24.9873 14.9841 26.5971 15.3219Z" fill="white"/>
<path d="M20.8138 15.4431C21.8322 15.6483 21.2544 17.0367 21.3057 17.76C21.2184 18.785 21.1583 19.8095 21.08 20.8343C21.043 21.2335 21.0538 21.7494 20.7153 22.0191C20.1551 22.5107 19.2672 21.6146 19.8084 21.0781C19.8527 19.2934 19.7917 17.6738 20.0998 15.947C20.1564 15.6198 20.4962 15.4135 20.8138 15.4431Z" fill="white"/>
<path d="M15.1068 15.353C15.4427 15.3913 15.712 15.7117 15.6648 16.0568C15.5306 17.0013 15.4506 17.9447 15.3616 18.8882C15.1775 19.6165 15.4793 22.3629 14.2672 21.9897C14.0298 21.895 13.898 21.6533 13.9125 21.481C13.9638 20.4658 13.9617 19.4969 14.0311 18.4813C14.1874 17.7265 14.0092 15.2582 15.1068 15.353Z" fill="white"/>
<path d="M31.0187 44.5775C35.2295 44.5894 39.4431 44.3024 43.6375 44.8308C46.5729 44.9054 49.4717 44.9628 52.3604 45.4097C52.8349 45.1463 53.4707 45.6763 53.2463 46.2062C53.1 46.5714 52.6937 46.6252 52.3493 46.6142C48.2198 46.157 44.0563 46.2437 39.9364 45.8134C34.7298 45.8132 29.5162 45.9127 24.3141 46.1298C22.6052 46.2469 20.9406 46.7524 19.2111 46.7522C18.7042 46.7628 18.3917 46.1083 18.7643 45.7383C19.0304 45.4702 19.4398 45.5612 19.7829 45.5179C23.4871 44.6801 27.2533 44.6469 31.0187 44.5775Z" fill="white"/>
<path d="M37.1871 72.3257C37.9785 72.4994 37.6939 73.6191 36.9408 73.5442C35.899 73.5206 36.239 72.0195 37.1871 72.3257Z" fill="#00FF09"/>
<path d="M40.0436 55.5861C40.998 56.191 41.4729 57.2587 42.0181 58.2162C43.3092 60.2086 43.1747 62.8826 42.177 64.9769C40.806 68.709 36.651 69.6376 33.2938 68.0052C32.0634 67.1888 30.891 66.1085 30.3994 64.679C30.0586 63.9707 29.6998 63.2629 29.683 62.4573C29.7179 61.5239 29.499 60.5777 29.688 59.6502C30.031 58.2938 30.5361 56.8979 31.5108 55.8725C31.8014 55.4771 32.4427 55.835 32.2528 56.2826C31.922 56.9234 31.4259 57.4499 31.2507 58.1689C30.501 59.5608 30.6306 60.9979 30.7162 62.4992C30.8912 63.5097 31.4359 64.4491 31.8983 65.345C32.6126 66.1632 33.4002 67.0251 34.4752 67.3377C35.8968 67.7699 37.5736 67.8527 38.937 67.2267C40.0387 66.6514 40.7615 65.7037 41.2271 64.5802C42.0006 63.0248 42.1273 61.2835 41.6492 59.6364C40.9729 58.4643 40.5158 56.9526 39.3501 56.1982C38.9513 55.7447 39.6015 55.2241 40.0436 55.5861Z" fill="#00FF09"/>
<path d="M37.3105 59.5647C38.6044 59.5196 40.016 60.3414 39.9552 61.7733C39.9562 62.2532 39.9713 62.9773 39.3573 63.0625C38.9334 63.1438 38.7143 62.6232 39.0345 62.3449C39.085 61.7281 38.9966 60.9602 38.3304 60.7115C37.7739 60.5148 36.9823 60.3321 36.5213 60.8036C36.1411 61.2461 36.2537 61.8686 36.1832 62.3952C36.1151 63.0395 35.6011 63.5754 34.9696 63.6882C33.8767 63.8196 33.0752 62.7225 32.9639 61.7288C32.9169 61.2136 32.7768 60.139 33.5188 60.1145C33.991 60.1771 33.9289 60.6765 33.8727 61.0217C33.8761 61.6193 33.9253 62.243 34.4045 62.6405C34.7735 62.9679 35.2573 62.7224 35.2474 62.2427C35.1203 60.9233 35.8053 59.4693 37.3105 59.5647Z" fill="#00FF09"/>
<path d="M40.3184 60.5159C40.8911 60.6216 40.7289 61.5305 40.1549 61.3614C39.7959 61.5137 39.3279 61.2156 39.4914 60.8047C39.6115 60.4853 40.0276 60.4676 40.3184 60.5159Z" fill="#00FF09"/>
<path d="M33.0934 61.4265C33.4036 61.5377 33.4847 61.9526 33.3089 62.2098C33.1945 62.3661 33.0225 62.3697 32.8592 62.355C32.5875 62.3516 32.2805 62.3942 32.0591 62.1996C31.8466 61.9957 31.9207 61.6411 32.1807 61.5179C32.4683 61.4123 32.8017 61.333 33.0934 61.4265Z" fill="#00FF09"/>
<path d="M23.07 53.622C23.4471 58.6849 23.5252 63.736 24.0828 68.768C24.3296 73.2269 24.2779 77.7012 24.579 82.159C27.989 81.9793 31.4418 82.1156 34.8407 81.8365C36.8894 81.5132 39.0582 81.7396 41.0996 81.4979C42.8723 81.3976 44.5728 80.8732 46.3055 80.5926C47.7137 80.3822 49.1137 80.6518 50.511 80.7857C50.4075 73.2089 49.8154 65.6512 49.7573 58.0825C49.7362 56.6342 49.688 55.1864 49.5765 53.7489C49.4553 53.5794 49.4951 53.316 49.6918 53.1942C50.8033 52.6549 50.5384 55.1505 50.6685 55.7455C50.7541 57.6814 50.7218 59.6108 50.7984 61.547C50.9245 67.1675 51.4214 72.7622 51.3937 78.3859C51.4668 82.3323 51.9092 81.8341 48.009 81.517C45.6259 81.4398 43.4474 82.4903 41.0761 82.5397C36.6784 82.6857 32.3154 83.1931 27.9215 83.0854C26.6624 83.0663 25.3962 83.138 24.1366 83.0918C23.3873 82.7633 23.5823 81.6908 23.4776 81.0138C23.1591 76.1579 23.3457 71.201 22.8015 66.377C22.4402 63.3783 22.5411 60.3971 22.2978 57.414C22.199 56.1484 22.1368 54.9001 22.1376 53.6324C22.1413 53.3788 22.336 53.1574 22.5984 53.1519C22.8613 53.1645 23.0466 53.3689 23.07 53.622Z" fill="#00FF09"/>
<path d="M44.8642 53.123C45.1768 53.7866 45.0307 54.5955 45.1001 55.3184C45.1614 56.9561 45.1415 58.6136 45.2752 60.2498C45.4445 63.1619 45.8377 65.9517 46.3499 68.8024C46.5646 70.4188 47.0049 71.9942 47.2017 73.62C47.3203 74.0975 47.299 74.8133 46.657 74.8538C46.0142 74.8581 45.1385 74.5504 44.7548 75.2556C44.3186 76.0525 44.3652 76.9842 44.3741 77.8442C44.3965 78.052 44.3916 78.2513 44.2409 78.4084C43.8506 78.7968 43.2472 78.5196 42.7677 78.5387C41.11 78.5098 39.5197 79.1044 37.8841 79.2652C36.303 79.434 34.7332 79.7112 33.1926 80.0874C32.9409 80.1741 32.6895 80.2789 32.4246 80.1667C32.1599 80.0636 32.0002 79.7862 31.8506 79.5629C31.2887 78.6692 30.6095 77.7959 29.5019 77.656C27.7615 77.5655 28.108 77.2504 28.1672 75.7461C28.3194 71.315 27.5501 66.9846 26.916 62.6243C26.5758 59.77 26.2268 56.925 25.8957 54.0705C25.8742 53.4733 26.7957 53.3726 26.8809 53.9866C27.1277 55.8377 27.3836 57.6887 27.5761 59.5409C28.1478 65.2517 29.6341 70.9616 29.0386 76.7149C30.7566 76.5976 32.0399 77.7842 32.7942 79.2173C34.5214 78.6743 36.3363 78.4282 38.1341 78.2278C39.904 77.9917 41.6652 77.3392 43.4646 77.6549C43.2425 75.6855 43.91 73.3898 46.3474 73.9004C44.8687 67.2486 44.0213 60.4751 44.1507 53.6449C43.6151 53.149 44.5006 52.6235 44.8642 53.123Z" fill="#00FF09"/>
</svg>
