<svg width="38" height="214" viewBox="0 0 38 214" fill="none" xmlns="http://www.w3.org/2000/svg">
<line x1="1.99999" y1="0.00469478" x2="0.999989" y2="213.005" stroke="white" stroke-width="2"/>
<line x1="37" x2="37" y2="213" stroke="white" stroke-width="2"/>
<path d="M11.0537 201.571C12.9227 203.724 14.9214 205.825 17.2582 207.476C18.8927 208.559 19.9137 208.815 21.4881 207.448C23.3522 206.001 24.5536 203.916 26.287 202.328C26.8647 201.756 28.619 200.379 27.1168 199.855C26.7066 199.797 26.448 200.148 26.179 200.399C23.6568 202.279 22.3098 205.445 19.5763 207.016C16.5409 205.709 14.4392 202.887 12.1298 200.617C11.5073 200 10.5109 200.884 11.0537 201.571Z" fill="#00FCFF"/>
<path d="M10.7426 186.773C12.4322 189.096 14.5106 191.107 16.5888 193.088C19.1901 195.828 20.4808 193.572 22.2923 191.515C23.5157 189.92 24.9801 188.554 26.3742 187.118C26.8619 186.576 26.4977 185.537 25.6889 185.841C25.3895 185.992 25.2408 186.313 24.9616 186.504C23.3269 187.781 22.0335 189.386 20.73 190.971C20.0625 191.564 19.7272 192.715 18.778 192.889C17.7052 192.234 16.9508 191.157 16.0074 190.341C14.4416 188.947 13.2345 187.212 11.6987 185.809C11.1171 185.441 10.3602 186.184 10.7426 186.773Z" fill="#00FCFF"/>
<path d="M10.8986 173.692C12.3143 175.066 13.5607 176.601 15.0162 177.945C16.05 178.861 17.0932 179.646 17.9975 180.673C18.5103 181.36 19.2113 181.598 19.8988 180.985C21.6608 179.047 23.1617 176.841 25.1144 175.073C25.6923 174.561 26.3005 174.108 26.9185 173.646C27.1976 173.424 27.4665 173.143 27.4049 172.754C26.9894 171.425 25.5649 172.761 24.8967 173.194C22.5739 174.944 20.8338 177.341 19.1334 179.668C17.5858 177.834 15.5502 176.493 13.9727 174.679C13.3006 174.162 11.661 171.849 10.8351 172.832C10.6561 173.073 10.6577 173.483 10.8986 173.692Z" fill="#00FCFF"/>
<path d="M12.1978 158.976C13.4235 160.341 14.1104 162.028 15.2463 163.444C16.0605 164.45 16.9445 165.427 17.9181 166.283C18.7011 167.02 19.4936 167.626 20.3896 166.643C21.8547 165.466 22.8284 163.932 24.0125 162.508C24.6397 161.825 25.307 161.172 26.0849 160.659C26.2744 160.548 26.4539 160.427 26.5431 160.217C26.6816 159.867 26.5101 159.487 26.1794 159.329C25.4785 159.101 24.8411 159.754 24.2926 160.106C22.3087 161.585 21.168 163.839 19.395 165.527C18.0901 164.352 17.0453 163.196 16.0396 161.82C15.1642 160.514 14.4583 159.087 13.2939 158.012C12.6513 157.404 11.6549 158.279 12.1978 158.976Z" fill="#00FCFF"/>
<path d="M10.5054 146.283C12.1315 147.766 13.688 149.33 15.3042 150.823C16.6084 151.848 18.5006 154.79 20.3449 153.413C21.0625 152.83 21.6088 151.937 22.2162 151.285C23.7988 149.498 25.5119 147.821 27.1749 146.134C27.463 145.683 27.1602 145.004 26.6002 145.007C26.1803 145.028 25.9219 145.409 25.5727 145.611C23.1404 147.471 21.371 150.038 19.3803 152.297C16.4419 150.279 14.1504 147.488 11.3813 145.28C10.7292 144.782 9.923 145.706 10.5054 146.283Z" fill="#00FCFF"/>
<path d="M10.7522 128.571C12.6211 130.724 14.6199 132.825 16.9567 134.476C18.5912 135.559 19.6122 135.815 21.1866 134.448C23.0506 133.001 24.252 130.916 25.9855 129.328C26.5631 128.756 28.3175 127.379 26.8153 126.855C26.405 126.797 26.1465 127.148 25.8775 127.399C23.3553 129.279 22.0083 132.445 19.2748 134.016C16.2394 132.709 14.1377 129.887 11.8283 127.617C11.2058 127 10.2094 127.884 10.7522 128.571Z" fill="#00FCFF"/>
<path d="M10.4411 113.773C12.1307 116.096 14.209 118.107 16.2872 120.088C18.8886 122.828 20.1793 120.572 21.9908 118.515C23.2142 116.92 24.6786 115.554 26.0727 114.118C26.5604 113.576 26.1961 112.537 25.3874 112.841C25.088 112.992 24.9393 113.313 24.6601 113.504C23.0254 114.781 21.732 116.386 20.4285 117.971C19.761 118.564 19.4257 119.715 18.4764 119.889C17.4037 119.234 16.6493 118.157 15.7059 117.341C14.1401 115.947 12.933 114.212 11.3971 112.809C10.8156 112.441 10.0587 113.184 10.4411 113.773Z" fill="#00FCFF"/>
<path d="M10.5971 100.692C12.0128 102.066 13.2591 103.601 14.7147 104.945C15.7485 105.861 16.7917 106.646 17.696 107.673C18.2088 108.36 18.9098 108.598 19.5973 107.985C21.3593 106.047 22.8602 103.841 24.8129 102.073C25.3908 101.561 25.9989 101.108 26.617 100.646C26.8961 100.424 27.165 100.143 27.1033 99.7536C26.6879 98.4253 25.2634 99.7612 24.5952 100.194C22.2724 101.944 20.5323 104.341 18.8318 106.668C17.2843 104.834 15.2487 103.493 13.6712 101.679C12.999 101.162 11.3595 98.8486 10.5336 99.8321C10.3545 100.073 10.3562 100.483 10.5971 100.692Z" fill="#00FCFF"/>
<path d="M11.8963 85.9763C13.122 87.3413 13.8089 89.0284 14.9448 90.4438C15.759 91.4504 16.643 92.4268 17.6165 93.2828C18.3996 94.0195 19.1921 94.6263 20.088 93.6425C21.5532 92.4665 22.5269 90.9325 23.711 89.5075C24.3382 88.825 25.0055 88.1722 25.7834 87.6589C25.9729 87.5482 26.1524 87.4274 26.2416 87.2171C26.3801 86.8665 26.2086 86.4872 25.8779 86.3286C25.1769 86.1015 24.5396 86.7541 23.9911 87.1063C22.0072 88.5846 20.8665 90.8393 19.0934 92.5266C17.7886 91.352 16.7438 90.1963 15.7381 88.8205C14.8627 87.5141 14.1568 86.087 12.9923 85.0118C12.3498 84.4044 11.3534 85.2785 11.8963 85.9763Z" fill="#00FCFF"/>
<path d="M10.2039 73.2832C11.83 74.7665 13.3865 76.3301 15.0027 77.8234C16.3069 78.848 18.1991 81.7902 20.0434 80.4126C20.761 79.8296 21.3073 78.9374 21.9146 78.2849C23.4973 76.4983 25.2103 74.8212 26.8734 73.1343C27.1615 72.6831 26.8587 72.0044 26.2987 72.0067C25.8788 72.0284 25.6204 72.4095 25.2712 72.6109C22.8389 74.471 21.0695 77.0383 19.0788 79.2966C16.1404 77.2787 13.8489 74.4881 11.0797 72.2796C10.4277 71.7823 9.62148 72.7056 10.2039 73.2832Z" fill="#00FCFF"/>
<path d="M11.4548 56.5684C13.3237 58.7207 15.3224 60.8225 17.6592 62.4729C19.2937 63.5561 20.3147 63.8119 21.8891 62.4454C23.7532 60.9977 24.9546 58.9127 26.688 57.3255C27.2657 56.7531 29.02 55.3759 27.5178 54.8521C27.1076 54.7938 26.849 55.1449 26.58 55.396C24.0578 57.2764 22.7108 60.442 19.9773 62.0133C16.9419 60.7058 14.8402 57.8845 12.5308 55.614C11.9083 54.9966 10.9119 55.8807 11.4548 56.5684Z" fill="#00FCFF"/>
<path d="M11.1436 41.7699C12.8332 44.093 14.9115 46.1044 16.9897 48.0858C19.5911 50.8251 20.8818 48.5698 22.6933 46.5123C23.9167 44.9172 25.3811 43.5511 26.7752 42.1154C27.2629 41.5733 26.8986 40.5348 26.0899 40.8382C25.7905 40.9894 25.6418 41.31 25.3626 41.5012C23.7279 42.778 22.4345 44.3833 21.131 45.9687C20.4635 46.5615 20.1282 47.7129 19.1789 47.8868C18.1062 47.2312 17.3518 46.1543 16.4084 45.3382C14.8426 43.9447 13.6355 42.2096 12.0997 40.806C11.5181 40.4384 10.7612 41.1815 11.1436 41.7699Z" fill="#00FCFF"/>
<path d="M11.2996 28.6884C12.7153 30.0626 13.9617 31.5975 15.4172 32.9415C16.451 33.8572 17.4942 34.6429 18.3985 35.6692C18.9113 36.3571 19.6123 36.5942 20.2998 35.9814C22.0618 34.0441 23.5627 31.8378 25.5154 30.0697C26.0933 29.5574 26.7014 29.1049 27.3195 28.6423C27.5986 28.4211 27.8675 28.14 27.8059 27.7503C27.3904 26.422 25.9659 27.7579 25.2977 28.1906C22.9749 29.9402 21.2348 32.3375 19.5344 34.6645C17.9868 32.8309 15.9512 31.4893 14.3737 29.6758C13.7015 29.1585 12.062 26.8453 11.2361 27.8287C11.0571 28.0695 11.0587 28.4794 11.2996 28.6884Z" fill="#00FCFF"/>
<path d="M12.5988 13.9738C13.8245 15.3387 14.5114 17.0259 15.6473 18.4412C16.4615 19.4479 17.3455 20.4243 18.3191 21.2802C19.1021 22.017 19.8946 22.6237 20.7906 21.64C22.2557 20.464 23.2294 18.9299 24.4135 17.505C25.0407 16.8224 25.708 16.1697 26.4859 15.6564C26.6754 15.5457 26.8549 15.4249 26.9441 15.2146C27.0826 14.864 26.9111 14.4847 26.5804 14.326C25.8795 14.0989 25.2421 14.7516 24.6936 15.1038C22.7097 16.582 21.569 18.8368 19.796 20.5241C18.4911 19.3495 17.4463 18.1938 16.4406 16.818C15.5652 15.5116 14.8593 14.0845 13.6949 13.0093C13.0523 12.4019 12.0559 13.276 12.5988 13.9738Z" fill="#00FCFF"/>
<path d="M10.9064 1.28035C12.5325 2.76365 14.089 4.32723 15.7052 5.82057C17.0094 6.84519 18.9016 9.78738 20.7459 8.40975C21.4635 7.82678 22.0098 6.93452 22.6171 6.28201C24.1998 4.49546 25.9128 2.81836 27.5759 1.13148C27.864 0.680283 27.5612 0.00152324 27.0012 0.0038364C26.5813 0.0255711 26.3229 0.406648 25.9737 0.608092C23.5414 2.46815 21.772 5.03549 19.7813 7.29373C16.8429 5.27585 14.5514 2.48531 11.7822 0.276725C11.1302 -0.220586 10.324 0.702752 10.9064 1.28035Z" fill="#00FCFF"/>
</svg>
