<svg width="303" height="38" viewBox="0 0 303 38" fill="none" xmlns="http://www.w3.org/2000/svg">
<line y1="37" x2="303" y2="37" stroke="white" stroke-width="2"/>
<line y1="1" x2="303" y2="1" stroke="white" stroke-width="2"/>
<path d="M289.5 27.6609C291.66 25.8009 293.77 23.8109 295.43 21.4809C296.52 19.8509 296.78 18.8309 295.42 17.2509C293.98 15.3809 291.9 14.1709 290.32 12.4309C289.75 11.8509 288.38 10.0909 287.85 11.5909C287.79 12.0009 288.14 12.2609 288.39 12.5309C290.26 15.0609 293.42 16.4209 294.98 19.1609C293.66 22.1909 290.83 24.2809 288.55 26.5809C287.93 27.2009 288.81 28.2009 289.5 27.6609Z" fill="#9A00FF"/>
<path d="M274.7 27.9109C277.03 26.2309 279.05 24.1609 281.04 22.0909C283.79 19.5009 281.54 18.2009 279.49 16.3809C277.9 15.1509 276.54 13.6809 275.11 12.2809C274.57 11.7909 273.53 12.1509 273.83 12.9609C273.98 13.2609 274.3 13.4109 274.49 13.6909C275.76 15.3309 277.36 16.6309 278.94 17.9409C279.53 18.6109 280.68 18.9509 280.85 19.9009C280.19 20.9709 279.11 21.7209 278.29 22.6609C276.89 24.2209 275.15 25.4209 273.74 26.9509C273.37 27.5309 274.11 28.2909 274.7 27.9109Z" fill="#9A00FF"/>
<path d="M261.62 27.7009C263 26.2909 264.54 25.0509 265.89 23.6009C266.81 22.5709 267.6 21.5309 268.63 20.6309C269.32 20.1209 269.56 19.4209 268.95 18.7309C267.02 16.9609 264.82 15.4509 263.06 13.4909C262.55 12.9109 262.1 12.3009 261.64 11.6809C261.42 11.4009 261.14 11.1309 260.75 11.1909C259.42 11.6009 260.75 13.0309 261.18 13.7009C262.92 16.0309 265.31 17.7809 267.63 19.4909C265.79 21.0309 264.44 23.0609 262.62 24.6309C262.1 25.3009 259.78 26.9309 260.76 27.7609C261 27.9409 261.41 27.9409 261.62 27.7009Z" fill="#9A00FF"/>
<path d="M246.91 26.3409C248.28 25.1209 249.97 24.4409 251.39 23.3109C252.4 22.5009 253.38 21.6209 254.24 20.6509C254.98 19.8709 255.59 19.0809 254.61 18.1809C253.44 16.7109 251.91 15.7309 250.49 14.5409C249.81 13.9109 249.16 13.2409 248.65 12.4609C248.54 12.2709 248.42 12.0909 248.21 12.0009C247.86 11.8609 247.48 12.0309 247.32 12.3609C247.09 13.0609 247.74 13.7009 248.09 14.2509C249.56 16.2409 251.81 17.3909 253.49 19.1709C252.31 20.4709 251.15 21.5109 249.77 22.5109C248.46 23.3809 247.03 24.0809 245.95 25.2409C245.34 25.8809 246.21 26.8809 246.91 26.3409Z" fill="#9A00FF"/>
<path d="M234.21 27.9809C235.7 26.3609 237.27 24.8109 238.77 23.2009C239.8 21.9009 242.75 20.0209 241.38 18.1709C240.8 17.4509 239.91 16.9009 239.26 16.2909C237.48 14.7009 235.81 12.9809 234.13 11.3109C233.68 11.0209 233 11.3209 233 11.8809C233.02 12.3009 233.4 12.5609 233.6 12.9109C235.45 15.3509 238.01 17.1309 240.26 19.1309C238.23 22.0609 235.43 24.3409 233.21 27.1009C232.71 27.7509 233.63 28.5609 234.21 27.9809Z" fill="#9A00FF"/>
<path d="M216.5 27.6609C218.66 25.8009 220.77 23.8109 222.43 21.4809C223.52 19.8509 223.78 18.8309 222.42 17.2509C220.98 15.3809 218.9 14.1709 217.32 12.4309C216.75 11.8509 215.38 10.0909 214.85 11.5909C214.79 12.0009 215.14 12.2609 215.39 12.5309C217.26 15.0609 220.42 16.4209 221.98 19.1609C220.66 22.1909 217.83 24.2809 215.55 26.5809C214.93 27.2009 215.81 28.2009 216.5 27.6609Z" fill="#9A00FF"/>
<path d="M201.7 27.9109C204.03 26.2309 206.05 24.1609 208.04 22.0909C210.79 19.5009 208.54 18.2009 206.49 16.3809C204.9 15.1509 203.54 13.6809 202.11 12.2809C201.57 11.7909 200.53 12.1509 200.83 12.9609C200.98 13.2609 201.3 13.4109 201.49 13.6909C202.76 15.3309 204.36 16.6309 205.94 17.9409C206.53 18.6109 207.68 18.9509 207.85 19.9009C207.19 20.9709 206.11 21.7209 205.29 22.6609C203.89 24.2209 202.15 25.4209 200.74 26.9509C200.37 27.5309 201.11 28.2909 201.7 27.9109Z" fill="#9A00FF"/>
<path d="M188.62 27.7009C190 26.2909 191.54 25.0509 192.89 23.6009C193.81 22.5709 194.6 21.5309 195.63 20.6309C196.32 20.1209 196.56 19.4209 195.95 18.7309C194.02 16.9609 191.82 15.4509 190.06 13.4909C189.55 12.9109 189.1 12.3009 188.64 11.6809C188.42 11.4009 188.14 11.1309 187.75 11.1909C186.42 11.6009 187.75 13.0309 188.18 13.7009C189.92 16.0309 192.31 17.7809 194.63 19.4909C192.79 21.0309 191.44 23.0609 189.62 24.6309C189.1 25.3009 186.78 26.9309 187.76 27.7609C188 27.9409 188.41 27.9409 188.62 27.7009Z" fill="#9A00FF"/>
<path d="M173.91 26.3409C175.28 25.1209 176.97 24.4409 178.39 23.3109C179.4 22.5009 180.38 21.6209 181.24 20.6509C181.98 19.8709 182.59 19.0809 181.61 18.1809C180.44 16.7109 178.91 15.7309 177.49 14.5409C176.81 13.9109 176.16 13.2409 175.65 12.4609C175.54 12.2709 175.42 12.0909 175.21 12.0009C174.86 11.8609 174.48 12.0309 174.32 12.3609C174.09 13.0609 174.74 13.7009 175.09 14.2509C176.56 16.2409 178.81 17.3909 180.49 19.1709C179.31 20.4709 178.15 21.5109 176.77 22.5109C175.46 23.3809 174.03 24.0809 172.95 25.2409C172.34 25.8809 173.21 26.8809 173.91 26.3409Z" fill="#9A00FF"/>
<path d="M161.21 27.9809C162.7 26.3609 164.27 24.8109 165.77 23.2009C166.8 21.9009 169.75 20.0209 168.38 18.1709C167.8 17.4509 166.91 16.9009 166.26 16.2909C164.48 14.7009 162.81 12.9809 161.13 11.3109C160.68 11.0209 160 11.3209 160 11.8809C160.02 12.3009 160.4 12.5609 160.6 12.9109C162.45 15.3509 165.01 17.1309 167.26 19.1309C165.23 22.0609 162.43 24.3409 160.21 27.1009C159.71 27.7509 160.63 28.5609 161.21 27.9809Z" fill="#9A00FF"/>
<path d="M144.5 26.6609C146.66 24.8009 148.77 22.8109 150.43 20.4809C151.52 18.8509 151.78 17.8309 150.42 16.2509C148.98 14.3809 146.9 13.1709 145.32 11.4309C144.75 10.8509 143.38 9.0909 142.85 10.5909C142.79 11.0009 143.14 11.2609 143.39 11.5309C145.26 14.0609 148.42 15.4209 149.98 18.1609C148.66 21.1909 145.83 23.2809 143.55 25.5809C142.93 26.2009 143.81 27.2009 144.5 26.6609Z" fill="#9A00FF"/>
<path d="M129.7 26.9109C132.03 25.2309 134.05 23.1609 136.04 21.0909C138.79 18.5009 136.54 17.2009 134.49 15.3809C132.9 14.1509 131.54 12.6809 130.11 11.2809C129.57 10.7909 128.53 11.1509 128.83 11.9609C128.98 12.2609 129.3 12.4109 129.49 12.6909C130.76 14.3309 132.36 15.6309 133.94 16.9409C134.53 17.6109 135.68 17.9509 135.85 18.9009C135.19 19.9709 134.11 20.7209 133.29 21.6609C131.89 23.2209 130.15 24.4209 128.74 25.9509C128.37 26.5309 129.11 27.2909 129.7 26.9109Z" fill="#9A00FF"/>
<path d="M116.62 26.7009C118 25.2909 119.54 24.0509 120.89 22.6009C121.81 21.5709 122.6 20.5309 123.63 19.6309C124.32 19.1209 124.56 18.4209 123.95 17.7309C122.02 15.9609 119.82 14.4509 118.06 12.4909C117.55 11.9109 117.1 11.3009 116.64 10.6809C116.42 10.4009 116.14 10.1309 115.75 10.1909C114.42 10.6009 115.75 12.0309 116.18 12.7009C117.92 15.0309 120.31 16.7809 122.63 18.4909C120.79 20.0309 119.44 22.0609 117.62 23.6309C117.1 24.3009 114.78 25.9309 115.76 26.7609C116 26.9409 116.41 26.9409 116.62 26.7009Z" fill="#9A00FF"/>
<path d="M101.91 25.3409C103.28 24.1209 104.97 23.4409 106.39 22.3109C107.4 21.5009 108.38 20.6209 109.24 19.6509C109.98 18.8709 110.59 18.0809 109.61 17.1809C108.44 15.7109 106.91 14.7309 105.49 13.5409C104.81 12.9109 104.16 12.2409 103.65 11.4609C103.54 11.2709 103.42 11.0909 103.21 11.0009C102.86 10.8609 102.48 11.0309 102.32 11.3609C102.09 12.0609 102.74 12.7009 103.09 13.2509C104.56 15.2409 106.81 16.3909 108.49 18.1709C107.31 19.4709 106.15 20.5109 104.77 21.5109C103.46 22.3809 102.03 23.0809 100.95 24.2409C100.34 24.8809 101.21 25.8809 101.91 25.3409Z" fill="#9A00FF"/>
<path d="M89.21 26.9809C90.7 25.3609 92.27 23.8109 93.77 22.2009C94.8 20.9009 97.75 19.0209 96.38 17.1709C95.8 16.4509 94.91 15.9009 94.26 15.2909C92.48 13.7009 90.81 11.9809 89.13 10.3109C88.68 10.0209 88 10.3209 88 10.8809C88.02 11.3009 88.4 11.5609 88.6 11.9109C90.45 14.3509 93.01 16.1309 95.26 18.1309C93.23 21.0609 90.43 23.3409 88.21 26.1009C87.71 26.7509 88.63 27.5609 89.21 26.9809Z" fill="#9A00FF"/>
<path d="M73.5 26.6609C75.66 24.8009 77.77 22.8109 79.43 20.4809C80.52 18.8509 80.78 17.8309 79.42 16.2509C77.98 14.3809 75.9 13.1709 74.32 11.4309C73.75 10.8509 72.38 9.0909 71.85 10.5909C71.79 11.0009 72.14 11.2609 72.39 11.5309C74.26 14.0609 77.42 15.4209 78.98 18.1609C77.66 21.1909 74.83 23.2809 72.55 25.5809C71.93 26.2009 72.81 27.2009 73.5 26.6609Z" fill="#9A00FF"/>
<path d="M58.7 26.9109C61.03 25.2309 63.05 23.1609 65.04 21.0909C67.79 18.5009 65.54 17.2009 63.49 15.3809C61.9 14.1509 60.54 12.6809 59.11 11.2809C58.57 10.7909 57.53 11.1509 57.83 11.9609C57.98 12.2609 58.3 12.4109 58.49 12.6909C59.76 14.3309 61.36 15.6309 62.94 16.9409C63.53 17.6109 64.68 17.9509 64.85 18.9009C64.19 19.9709 63.11 20.7209 62.29 21.6609C60.89 23.2209 59.15 24.4209 57.74 25.9509C57.37 26.5309 58.11 27.2909 58.7 26.9109Z" fill="#9A00FF"/>
<path d="M45.62 26.7009C47 25.2909 48.54 24.0509 49.89 22.6009C50.81 21.5709 51.6 20.5309 52.63 19.6309C53.32 19.1209 53.56 18.4209 52.95 17.7309C51.02 15.9609 48.82 14.4509 47.06 12.4909C46.55 11.9109 46.1 11.3009 45.64 10.6809C45.42 10.4009 45.14 10.1309 44.75 10.1909C43.42 10.6009 44.75 12.0309 45.18 12.7009C46.92 15.0309 49.31 16.7809 51.63 18.4909C49.79 20.0309 48.44 22.0609 46.62 23.6309C46.1 24.3009 43.78 25.9309 44.76 26.7609C45 26.9409 45.41 26.9409 45.62 26.7009Z" fill="#9A00FF"/>
<path d="M30.91 25.3409C32.28 24.1209 33.97 23.4409 35.39 22.3109C36.4 21.5009 37.38 20.6209 38.24 19.6509C38.98 18.8709 39.59 18.0809 38.61 17.1809C37.44 15.7109 35.91 14.7309 34.49 13.5409C33.81 12.9109 33.16 12.2409 32.65 11.4609C32.54 11.2709 32.42 11.0909 32.21 11.0009C31.86 10.8609 31.48 11.0309 31.32 11.3609C31.09 12.0609 31.74 12.7009 32.09 13.2509C33.56 15.2409 35.81 16.3909 37.49 18.1709C36.31 19.4709 35.15 20.5109 33.77 21.5109C32.46 22.3809 31.03 23.0809 29.95 24.2409C29.34 24.8809 30.21 25.8809 30.91 25.3409Z" fill="#9A00FF"/>
<path d="M18.21 26.9809C19.7 25.3609 21.27 23.8109 22.77 22.2009C23.8 20.9009 26.75 19.0209 25.38 17.1709C24.8 16.4509 23.91 15.9009 23.26 15.2909C21.48 13.7009 19.81 11.9809 18.13 10.3109C17.68 10.0209 17 10.3209 17 10.8809C17.02 11.3009 17.4 11.5609 17.6 11.9109C19.45 14.3509 22.01 16.1309 24.26 18.1309C22.23 21.0609 19.43 23.3409 17.21 26.1009C16.71 26.7509 17.63 27.5609 18.21 26.9809Z" fill="#9A00FF"/>
</svg>
