<svg width="39" height="207" viewBox="0 0 39 207" fill="none" xmlns="http://www.w3.org/2000/svg">
<line x1="6.25" x2="6.25" y2="206" stroke="white" stroke-width="0.5"/>
<line x1="10.25" x2="10.25" y2="206" stroke="white" stroke-width="0.5"/>
<line x1="1" x2="1" y2="206" stroke="white" stroke-width="2"/>
<line x1="38" y1="0.00485431" x2="37" y2="206.005" stroke="white" stroke-width="2"/>
<path d="M15.0537 192.571C16.9227 194.724 18.9214 196.825 21.2582 198.476C22.8927 199.559 23.9137 199.815 25.4881 198.448C27.3522 197.001 28.5536 194.916 30.287 193.328C30.8647 192.756 32.619 191.379 31.1168 190.855C30.7066 190.797 30.448 191.148 30.179 191.399C27.6568 193.279 26.3098 196.445 23.5763 198.016C20.5409 196.709 18.4392 193.887 16.1298 191.617C15.5073 191 14.5109 191.884 15.0537 192.571Z" fill="#00FF09"/>
<path d="M14.7426 177.773C16.4322 180.096 18.5106 182.107 20.5888 184.088C23.1901 186.828 24.4808 184.572 26.2923 182.515C27.5157 180.92 28.9801 179.554 30.3742 178.118C30.8619 177.576 30.4977 176.537 29.6889 176.841C29.3895 176.992 29.2408 177.313 28.9616 177.504C27.3269 178.781 26.0335 180.386 24.73 181.971C24.0625 182.564 23.7272 183.715 22.778 183.889C21.7052 183.234 20.9508 182.157 20.0074 181.341C18.4416 179.947 17.2345 178.212 15.6987 176.809C15.1171 176.441 14.3602 177.184 14.7426 177.773Z" fill="#00FF09"/>
<path d="M14.8986 164.692C16.3143 166.066 17.5607 167.601 19.0162 168.945C20.05 169.861 21.0932 170.646 21.9975 171.673C22.5103 172.36 23.2113 172.598 23.8988 171.985C25.6608 170.047 27.1617 167.841 29.1144 166.073C29.6923 165.561 30.3005 165.108 30.9185 164.646C31.1976 164.424 31.4665 164.143 31.4049 163.754C30.9894 162.425 29.5649 163.761 28.8967 164.194C26.5739 165.944 24.8338 168.341 23.1334 170.668C21.5858 168.834 19.5502 167.493 17.9727 165.679C17.3006 165.162 15.661 162.849 14.8351 163.832C14.6561 164.073 14.6577 164.483 14.8986 164.692Z" fill="#00FF09"/>
<path d="M16.1978 149.976C17.4235 151.341 18.1104 153.028 19.2463 154.444C20.0605 155.45 20.9445 156.427 21.9181 157.283C22.7011 158.02 23.4936 158.626 24.3896 157.643C25.8547 156.466 26.8284 154.932 28.0125 153.508C28.6397 152.825 29.307 152.172 30.0849 151.659C30.2744 151.548 30.4539 151.427 30.5431 151.217C30.6816 150.867 30.5101 150.487 30.1794 150.329C29.4785 150.101 28.8411 150.754 28.2926 151.106C26.3087 152.585 25.168 154.839 23.395 156.527C22.0901 155.352 21.0453 154.196 20.0396 152.82C19.1642 151.514 18.4583 150.087 17.2939 149.012C16.6513 148.404 15.6549 149.279 16.1978 149.976Z" fill="#00FF09"/>
<path d="M14.5054 137.283C16.1315 138.766 17.688 140.33 19.3042 141.823C20.6084 142.848 22.5006 145.79 24.3449 144.413C25.0625 143.83 25.6088 142.937 26.2162 142.285C27.7988 140.498 29.5119 138.821 31.1749 137.134C31.463 136.683 31.1602 136.004 30.6002 136.007C30.1803 136.028 29.9219 136.409 29.5727 136.611C27.1404 138.471 25.371 141.038 23.3803 143.297C20.4419 141.279 18.1504 138.488 15.3813 136.28C14.7292 135.782 13.923 136.706 14.5054 137.283Z" fill="#00FF09"/>
<path d="M14.7522 119.571C16.6211 121.724 18.6199 123.825 20.9567 125.476C22.5912 126.559 23.6122 126.815 25.1866 125.448C27.0506 124.001 28.252 121.916 29.9855 120.328C30.5631 119.756 32.3175 118.379 30.8153 117.855C30.405 117.797 30.1465 118.148 29.8775 118.399C27.3553 120.279 26.0083 123.445 23.2748 125.016C20.2394 123.709 18.1377 120.887 15.8283 118.617C15.2058 118 14.2094 118.884 14.7522 119.571Z" fill="#00FF09"/>
<path d="M14.4411 104.773C16.1307 107.096 18.209 109.107 20.2872 111.088C22.8886 113.828 24.1793 111.572 25.9908 109.515C27.2142 107.92 28.6786 106.554 30.0727 105.118C30.5604 104.576 30.1961 103.537 29.3874 103.841C29.088 103.992 28.9393 104.313 28.6601 104.504C27.0254 105.781 25.732 107.386 24.4285 108.971C23.761 109.564 23.4257 110.715 22.4764 110.889C21.4037 110.234 20.6493 109.157 19.7059 108.341C18.1401 106.947 16.933 105.212 15.3971 103.809C14.8156 103.441 14.0587 104.184 14.4411 104.773Z" fill="#00FF09"/>
<path d="M14.5971 91.6918C16.0128 93.0659 17.2591 94.6008 18.7147 95.9448C19.7485 96.8606 20.7917 97.6463 21.696 98.6725C22.2088 99.3604 22.9098 99.5975 23.5973 98.9847C25.3593 97.0474 26.8602 94.8412 28.8129 93.0731C29.3908 92.5607 29.9989 92.1082 30.617 91.6456C30.8961 91.4245 31.165 91.1433 31.1033 90.7536C30.6879 89.4253 29.2634 90.7612 28.5952 91.194C26.2724 92.9436 24.5323 95.3408 22.8318 97.6678C21.2843 95.8342 19.2487 94.4926 17.6712 92.6791C16.999 92.1619 15.3595 89.8486 14.5336 90.8321C14.3545 91.0728 14.3562 91.4828 14.5971 91.6918Z" fill="#00FF09"/>
<path d="M15.8963 76.9763C17.122 78.3413 17.8089 80.0284 18.9448 81.4438C19.759 82.4504 20.643 83.4268 21.6165 84.2828C22.3996 85.0195 23.1921 85.6263 24.088 84.6425C25.5532 83.4665 26.5269 81.9325 27.711 80.5075C28.3382 79.825 29.0055 79.1722 29.7834 78.6589C29.9729 78.5482 30.1524 78.4274 30.2416 78.2171C30.3801 77.8665 30.2086 77.4872 29.8779 77.3286C29.1769 77.1015 28.5396 77.7541 27.9911 78.1063C26.0072 79.5846 24.8665 81.8393 23.0934 83.5266C21.7886 82.352 20.7438 81.1963 19.7381 79.8205C18.8627 78.5141 18.1568 77.087 16.9923 76.0118C16.3498 75.4044 15.3534 76.2785 15.8963 76.9763Z" fill="#00FF09"/>
<path d="M14.2039 64.2832C15.83 65.7665 17.3865 67.3301 19.0027 68.8234C20.3069 69.848 22.1991 72.7902 24.0434 71.4126C24.761 70.8296 25.3073 69.9374 25.9146 69.2849C27.4973 67.4983 29.2103 65.8212 30.8734 64.1343C31.1615 63.6831 30.8587 63.0044 30.2987 63.0067C29.8788 63.0284 29.6204 63.4095 29.2712 63.6109C26.8389 65.471 25.0695 68.0383 23.0788 70.2966C20.1404 68.2787 17.8489 65.4881 15.0797 63.2796C14.4277 62.7823 13.6215 63.7056 14.2039 64.2832Z" fill="#00FF09"/>
<path d="M15.4548 47.5684C17.3237 49.7207 19.3224 51.8225 21.6592 53.4729C23.2937 54.5561 24.3147 54.8119 25.8891 53.4454C27.7532 51.9977 28.9546 49.9127 30.688 48.3255C31.2657 47.7531 33.02 46.3759 31.5178 45.8521C31.1076 45.7938 30.849 46.1449 30.58 46.396C28.0578 48.2764 26.7108 51.442 23.9773 53.0133C20.9419 51.7058 18.8402 48.8845 16.5308 46.614C15.9083 45.9966 14.9119 46.8807 15.4548 47.5684Z" fill="#00FF09"/>
<path d="M15.1436 32.7699C16.8332 35.093 18.9115 37.1044 20.9897 39.0858C23.5911 41.8251 24.8817 39.5698 26.6933 37.5123C27.9167 35.9172 29.3811 34.5511 30.7751 33.1154C31.2629 32.5733 30.8986 31.5348 30.0899 31.8382C29.7905 31.9894 29.6418 32.31 29.3626 32.5012C27.7278 33.778 26.4345 35.3833 25.131 36.9687C24.4634 37.5615 24.1282 38.7129 23.1789 38.8868C22.1062 38.2312 21.3517 37.1543 20.4084 36.3382C18.8426 34.9447 17.6354 33.2096 16.0996 31.806C15.5181 31.4384 14.7611 32.1815 15.1436 32.7699Z" fill="#00FF09"/>
<path d="M15.2996 19.6884C16.7153 21.0626 17.9617 22.5975 19.4172 23.9415C20.451 24.8572 21.4942 25.6429 22.3985 26.6692C22.9113 27.3571 23.6123 27.5942 24.2998 26.9814C26.0618 25.0441 27.5627 22.8378 29.5154 21.0697C30.0933 20.5574 30.7014 20.1049 31.3195 19.6423C31.5986 19.4211 31.8675 19.14 31.8059 18.7503C31.3904 17.422 29.9659 18.7579 29.2977 19.1906C26.9749 20.9402 25.2348 23.3375 23.5344 25.6645C21.9868 23.8309 19.9512 22.4893 18.3737 20.6758C17.7015 20.1585 16.062 17.8453 15.2361 18.8287C15.0571 19.0695 15.0587 19.4794 15.2996 19.6884Z" fill="#00FF09"/>
<path d="M15.2996 6.68845C16.7153 8.06261 17.9617 9.5975 19.4172 10.9415C20.451 11.8572 21.4942 12.6429 22.3985 13.6692C22.9113 14.3571 23.6123 14.5942 24.2998 13.9814C26.0618 12.0441 27.5627 9.83782 29.5154 8.06974C30.0933 7.55735 30.7014 7.10485 31.3195 6.64229C31.5986 6.42114 31.8675 6.14001 31.8059 5.75026C31.3904 4.42197 29.9659 5.75786 29.2977 6.19062C26.9749 7.94023 25.2348 10.3375 23.5344 12.6645C21.9868 10.8309 19.9512 9.48926 18.3737 7.67576C17.7015 7.15853 16.062 4.8453 15.2361 5.82872C15.0571 6.06946 15.0587 6.47944 15.2996 6.68845Z" fill="#00FF09"/>
</svg>
