<svg width="96" height="62" viewBox="0 0 96 62" fill="none" xmlns="http://www.w3.org/2000/svg">
<line x1="6.25" x2="6.25" y2="62" stroke="white" stroke-width="0.5"/>
<line x1="10.25" x2="10.25" y2="62" stroke="white" stroke-width="0.5"/>
<line x1="1" x2="1" y2="62" stroke="white" stroke-width="2"/>
<line x1="95" x2="95" y2="62" stroke="white" stroke-width="2"/>
<path d="M22.1244 42.8552C23.8129 44.9057 25.8903 46.6809 27.9676 48.4296C30.5677 50.8472 31.8594 48.8551 33.6719 47.0375C34.896 45.6284 36.361 44.4215 37.7558 43.153C38.2438 42.6742 37.88 41.7573 37.0711 42.0256C36.7716 42.1593 36.6228 42.4424 36.3435 42.6114C34.7082 43.7395 33.414 45.1577 32.1099 46.5582C31.442 47.0819 31.1063 48.0988 30.1569 48.2528C29.0845 47.6744 28.3305 46.7238 27.3875 46.0036C25.8224 44.7738 24.616 43.2423 23.0809 42.0035C22.4995 41.6792 21.7422 42.3358 22.1244 42.8552Z" fill="#9A00FF"/>
<path d="M22.2864 31.3045C23.7015 32.5173 24.9471 33.872 26.4021 35.0581C27.4354 35.8663 28.4783 36.5596 29.3821 37.4654C29.8946 38.0726 30.5955 38.2816 31.2832 37.7402C33.0461 36.0287 34.548 34.0798 36.5016 32.5177C37.0797 32.065 37.688 31.6651 38.3063 31.2564C38.5855 31.061 38.8545 30.8126 38.7931 30.4685C38.3782 29.2958 36.9531 30.476 36.2847 30.8585C33.9611 32.4045 32.2199 34.5221 30.5184 36.5777C28.9717 34.9593 26.9367 33.7755 25.36 32.1749C24.6881 31.7185 23.0497 29.6766 22.2233 30.5454C22.0441 30.758 22.0456 31.12 22.2864 31.3045Z" fill="#9A00FF"/>
<path d="M23.5924 18.3098C24.8174 19.5145 25.5036 21.004 26.6388 22.2533C27.4525 23.1418 28.3361 24.0035 29.3093 24.7589C30.092 25.4092 30.8842 25.9446 31.7806 25.0755C33.2463 24.0363 34.2207 22.6813 35.4055 21.4226C36.033 20.8195 36.7006 20.2428 37.4787 19.7892C37.6683 19.6913 37.8478 19.5847 37.9371 19.3989C38.0758 19.0892 37.9044 18.7544 37.5738 18.6144C36.873 18.4142 36.2353 18.9908 35.6866 19.3021C33.702 20.6083 32.5603 22.5998 30.7865 24.0906C29.4822 23.054 28.4379 22.034 27.4329 20.8195C26.5581 19.6663 25.8528 18.4065 24.6889 17.4576C24.0466 16.9216 23.0498 17.6939 23.5924 18.3098Z" fill="#9A00FF"/>
<path d="M21.9058 7.10228C23.5313 8.41132 25.087 9.79128 26.7025 11.1092C28.0063 12.0134 29.8971 14.6105 31.7421 13.3932C32.4599 12.8781 33.0067 12.09 33.6143 11.5135C35.1977 9.9352 36.9116 8.4535 38.5754 6.96318C38.8637 6.56463 38.5612 5.96541 38.0012 5.96771C37.5813 5.9871 37.3227 6.32371 36.9734 6.50175C34.5403 8.14535 32.7697 10.4132 30.7779 12.4082C27.8405 10.6277 25.5503 8.16461 22.7822 6.21566C22.1303 5.77682 21.3237 6.59252 21.9058 7.10228Z" fill="#9A00FF"/>
<path d="M22.1244 53.8552C23.8129 55.9057 25.8903 57.6809 27.9676 59.4296C30.5677 61.8472 31.8594 59.8551 33.6719 58.0375C34.896 56.6284 36.361 55.4215 37.7558 54.153C38.2438 53.6742 37.88 52.7573 37.0711 53.0256C36.7716 53.1593 36.6228 53.4424 36.3435 53.6114C34.7082 54.7395 33.414 56.1577 32.1099 57.5582C31.442 58.0819 31.1063 59.0988 30.1569 59.2528C29.0845 58.6744 28.3305 57.7238 27.3875 57.0036C25.8224 55.7738 24.616 54.2423 23.0809 53.0035C22.4995 52.6792 21.7422 53.3358 22.1244 53.8552Z" fill="#9A00FF"/>
<path d="M60.4212 42.686C62.1097 44.7271 64.187 46.4941 66.2643 48.2347C68.8643 50.6412 70.1561 48.6582 71.9686 46.8489C73.1927 45.4463 74.6578 44.2449 76.0525 42.9822C76.5406 42.5056 76.1768 41.5929 75.3679 41.8599C75.0684 41.993 74.9196 42.2749 74.6403 42.4431C73.0049 43.5661 71.7108 44.9777 70.4066 46.3718C69.7387 46.8932 69.4029 47.9054 68.4536 48.0587C67.3812 47.483 66.6272 46.5368 65.6842 45.8199C64.1191 44.5958 62.9128 43.0713 61.3777 41.8383C60.7963 41.5155 60.039 42.169 60.4212 42.686Z" fill="#00FCFF"/>
<path d="M60.5834 31.1884C61.9984 32.3956 63.2441 33.7441 64.699 34.9247C65.7323 35.7291 66.7752 36.4192 67.6789 37.3209C68.1915 37.9252 68.8924 38.1333 69.5801 37.5943C71.3431 35.8907 72.845 33.9508 74.7986 32.3957C75.3767 31.9451 75.985 31.5471 76.6033 31.1402C76.8825 30.9457 77.1515 30.6985 77.0901 30.3559C76.6752 29.1886 75.2501 30.3635 74.5817 30.7442C72.2581 32.2831 70.5168 34.391 68.8153 36.4372C67.2686 34.8263 65.2337 33.648 63.657 32.0547C62.9851 31.6004 61.3467 29.568 60.5203 30.4327C60.3412 30.6444 60.3427 31.0048 60.5834 31.1884Z" fill="#00FCFF"/>
<path d="M61.8897 18.2534C63.1147 19.4525 63.8008 20.9352 64.936 22.1787C65.7497 23.0631 66.6333 23.9209 67.6064 24.6728C68.3891 25.32 69.1813 25.8529 70.0777 24.9878C71.5434 23.9534 72.5179 22.6046 73.7027 21.3516C74.3302 20.7513 74.9978 20.1772 75.7759 19.7258C75.9655 19.6283 76.145 19.5221 76.2343 19.3372C76.373 19.0289 76.2016 18.6956 75.871 18.5564C75.1702 18.3571 74.5326 18.931 73.9839 19.2409C71.9992 20.5411 70.8575 22.5235 69.0836 24.0075C67.7793 22.9757 66.7351 21.9603 65.7301 20.7515C64.8553 19.6036 64.1501 18.3496 62.9861 17.4051C62.3439 16.8715 61.3471 17.6403 61.8897 18.2534Z" fill="#00FCFF"/>
<path d="M60.2033 7.09737C61.8287 8.40036 63.3844 9.77395 64.9999 11.0858C66.3037 11.9858 68.1944 14.571 70.0394 13.3592C70.7573 12.8464 71.304 12.0619 71.9116 11.4881C73.4951 9.91702 75.209 8.44209 76.8728 6.95859C77.1612 6.56187 76.8587 5.96541 76.2987 5.9677C75.8788 5.98701 75.6202 6.32208 75.2709 6.49931C72.8377 8.1354 71.0671 10.3928 69.0753 12.3787C66.1379 10.6065 63.8477 8.15475 61.0796 6.2148C60.4278 5.77799 59.6212 6.58995 60.2033 7.09737Z" fill="#00FCFF"/>
<path d="M60.4212 53.686C62.1097 55.7271 64.187 57.4941 66.2643 59.2347C68.8643 61.6412 70.1561 59.6582 71.9686 57.8489C73.1927 56.4463 74.6578 55.2449 76.0525 53.9822C76.5406 53.5056 76.1768 52.5929 75.3679 52.8599C75.0684 52.993 74.9196 53.2749 74.6403 53.4431C73.0049 54.5661 71.7108 55.9777 70.4066 57.3718C69.7387 57.8932 69.4029 58.9054 68.4536 59.0587C67.3812 58.483 66.6272 57.5368 65.6842 56.8199C64.1191 55.5958 62.9128 54.0713 61.3777 52.8383C60.7963 52.5155 60.039 53.169 60.4212 53.686Z" fill="#00FCFF"/>
</svg>
