<svg width="342" height="68" viewBox="0 0 342 68" fill="none" xmlns="http://www.w3.org/2000/svg">
<path d="M133.596 34.7939C133.755 39.1078 137.044 44.3894 141.316 44.0396C141.866 44.2844 142.5 43.9814 142.976 43.6666C144.087 43.2935 145.07 42.524 145.874 41.6145C148.19 38.8863 149.364 33.3365 146.783 30.4217C143.219 25.4898 133.617 28.0665 133.596 34.7939ZM134.781 34.4791C135.024 29.9553 141.379 28.0082 144.488 29.9087C146.847 31.4477 147.397 33.523 146.963 36.3912C146.466 39.4692 144.531 42.0459 141.802 42.9436C141.665 42.8387 141.496 42.8271 141.348 42.9087C140.798 42.932 140.354 42.9086 139.846 42.7221C136.853 41.4746 134.759 38.0118 134.781 34.4791Z" fill="#00FF09"/>
<path d="M143.557 37.4992C143.356 39.0732 142.055 40.2974 140.596 40.0642C140.162 40.0176 139.633 40.0409 139.316 39.6562C139.158 39.423 139.21 39.1198 139.401 38.9332C139.591 38.7467 139.845 38.8167 140.078 38.8517C140.479 38.8633 140.892 38.8866 141.294 38.8167C142.267 38.6418 142.859 37.0212 142.309 36.1467C142.32 36.1467 142.32 36.1584 142.33 36.1584C142.33 36.1584 142.33 36.1584 142.372 36.1933C141.421 35.692 140.247 36.3566 139.284 36.0768C137.963 35.5638 138.185 33.2086 139.284 32.5207C140.268 31.9144 141.548 31.6463 142.51 32.4158C142.764 32.5907 142.869 32.9637 142.711 33.2552C142.341 33.9081 141.748 33.2785 141.273 33.1852C140.744 33.1503 140.173 33.3602 139.718 33.64C139.454 33.9664 139.359 34.5261 139.528 34.9225C141.516 34.6194 144.064 34.3395 143.557 37.4992Z" fill="#00FF09"/>
<path d="M140.671 32.3108C140.671 32.8938 141.432 33.3018 141.686 32.6839C141.739 32.5323 141.728 32.4041 141.675 32.2642C141.665 32.031 141.728 31.8095 141.728 31.5763C141.739 31.005 140.988 30.8417 140.798 31.3664C140.702 31.6579 140.639 31.9843 140.671 32.3108Z" fill="#00FF09"/>
<path d="M153.541 36.0765C153.594 36.1465 153.647 36.2164 153.71 36.2747C153.827 36.6711 154.324 36.7993 154.62 36.5428C155.064 36.1464 155.17 35.1437 154.62 34.794C153.742 34.176 152.938 35.2021 153.541 36.0765Z" fill="#00FF09"/>
<path d="M120.028 44.2028C119.954 45.427 120.303 45.9634 121.488 45.7768C122.461 45.7535 123.571 45.7418 124.512 45.8234C131.28 46.6279 138.091 47.036 144.88 47.0127C147.756 47.0243 150.654 47.0476 153.509 47.4207C154.598 47.5257 155.687 47.6655 156.766 47.8288C157.422 47.957 158.056 47.7938 157.919 46.8844C157.876 46.2198 157.58 45.4503 157.824 44.8207C158.744 43.6665 160.235 44.0395 161.451 44.2028C162.244 44.3777 162.392 43.4916 162.36 42.8037C162.424 39.7606 163.238 36.7642 163.598 33.8028C163.873 32.462 164.084 31.0979 164.285 29.7454C164.412 29.1508 164.412 28.3229 163.735 28.1597C161.662 27.775 159.167 26.9821 158.596 24.4404C158.553 24.2306 158.5 24.0441 158.342 23.9042C157.813 23.566 157.104 23.8109 156.523 23.7992C155.275 23.9041 154.048 23.9508 152.8 23.9391C148.306 23.8691 143.875 23.4144 139.381 23.5077C135.468 23.2862 131.46 22.9481 127.59 22.7965C125.898 22.6799 124.184 22.2719 122.503 22.4351C121.435 22.9597 121.974 24.6503 121.921 25.653C121.868 26.4808 121.234 29.6638 122.514 29.5122C123.032 29.3373 122.852 28.7893 122.757 28.3929C122.714 27.4485 122.894 26.6324 122.968 25.723C122.989 24.9768 122.767 24.2073 122.894 23.4611C130.561 24.3006 138.207 24.8019 145.895 24.9534C149.808 25.07 153.731 25.4665 157.633 24.9185C158.162 27.705 160.943 28.9292 163.249 29.2557C162.688 32.1122 162.159 34.9104 161.768 37.7902C161.398 39.4808 161.144 41.2063 161.239 42.9436C158.807 42.244 155.857 43.235 156.777 46.5929C150.654 45.357 144.33 45.9167 138.154 45.5669C135.468 45.4619 132.697 45.357 130.043 45.1355C127.05 44.879 124.068 44.331 121.054 44.6342C121.044 43.8763 121.149 43.0835 121.022 42.3373C120.938 42.1275 120.737 41.9992 120.525 42.0225C119.796 42.244 120.113 43.5615 120.028 44.2028Z" fill="#00FF09"/>
<path d="M103.447 36.0415C109.253 36.3563 115.059 36.2281 120.864 36.1814C122.588 36.1465 124.312 36.1931 126.036 36.0998C126.66 35.9949 127.664 36.1698 127.897 35.3187C128.024 34.829 127.442 34.4442 127.125 34.8173C120.177 34.9689 113.198 34.9573 106.239 34.9106C105.33 34.8757 104.431 34.8407 103.521 34.899C103.268 34.9223 103.046 35.0972 103.003 35.4003C102.972 35.6918 103.172 36.0182 103.447 36.0415Z" fill="#00FF09"/>
<path d="M109.084 29.3261C112.098 29.6875 115.048 29.6059 118.062 29.6875C121.489 29.6059 125.021 29.9906 128.415 29.4776C128.976 29.2794 128.775 28.3467 128.183 28.4983C123.582 28.5683 118.972 28.4167 114.372 28.3584C112.563 28.3584 110.914 28.2185 109.158 28.1369C108.502 28.1252 108.428 29.2561 109.084 29.3261Z" fill="#00FF09"/>
<path d="M115.101 45.9052C115.27 47.0012 115.143 48.3303 115.767 49.2398C116.391 49.7877 117.279 49.7528 118.03 49.9043C119.732 50.1842 121.456 50.3008 123.159 50.499C129.758 51.3851 136.367 52.003 142.997 51.8514C148.793 51.9214 154.577 52.1196 160.372 51.8981C161.673 51.8631 162.879 51.9097 164.105 51.6649C164.581 51.5483 165.142 51.3501 165.406 50.8604C165.607 50.5106 165.607 50.1025 165.596 49.7177C165.586 48.8666 165.744 48.0738 165.892 47.246C166.432 44.2612 166.019 41.1949 166.136 38.1635C166.062 33.7563 167.056 29.4308 166.971 25.0236C166.865 23.3097 167.193 21.5025 166.802 19.8469C166.612 19.4738 166.21 19.4389 165.871 19.5088C165.004 19.6137 164.148 19.7187 163.354 19.7769C161.017 19.9169 158.659 19.9052 156.311 19.9519C149.015 20.3716 141.697 19.3106 134.453 18.6344C130.878 18.3079 127.283 18.5295 123.698 18.2263C121.784 18.1214 119.88 17.8882 117.966 18.0631C117.702 18.0864 117.395 18.1447 117.226 18.3895C117.11 18.5527 117.089 18.7393 117.078 18.9375C117.067 20.1967 116.867 21.3393 116.771 22.5635C116.719 24.0093 116.644 25.4433 116.602 26.8658C116.623 27.2971 116.539 27.7518 116.645 28.1716C116.771 28.5097 117.152 28.6146 117.416 28.3931C117.956 27.6236 117.66 26.3994 117.808 25.4783C117.829 23.3214 118.04 21.351 118.114 19.2407C119.394 19.194 120.705 19.2873 121.943 19.3922C126.035 19.8003 130.244 19.6137 134.326 19.9519C138.82 20.3716 143.368 20.8729 147.851 21.2343C150.22 21.4092 152.61 21.3859 154.979 21.3043C158.585 21.211 162.212 21.3509 165.787 20.733C165.787 25.6648 165.417 30.4918 164.93 35.377C164.666 39.8774 165.321 44.4128 164.475 48.8666C164.433 49.2864 164.454 49.7178 164.465 50.1492C164.444 50.2075 164.391 50.2191 164.348 50.2541C162.836 50.7321 161.208 50.4406 159.664 50.5222C157.231 50.5339 154.789 50.6272 152.356 50.6155C146.35 50.2891 140.333 50.6156 134.337 50.2774C130.91 50.1608 127.632 49.6944 124.237 49.3563C121.689 49.0065 119.066 49.0066 116.56 48.3887C116.327 46.9779 116.137 45.5205 116.2 44.1213C116.147 43.4335 116.782 42.1859 115.915 41.9294C114.878 41.7778 115.09 45.1357 115.101 45.9052Z" fill="#00FF09"/>
<path d="M221.118 34.7939C221.274 39.1078 224.512 44.3894 228.717 44.0396C229.259 44.2844 229.883 43.9814 230.352 43.6666C231.445 43.2935 232.413 42.524 233.204 41.6145C235.484 38.8863 236.639 33.3365 234.099 30.4217C230.591 25.4898 221.139 28.0665 221.118 34.7939ZM222.284 34.4791C222.523 29.9553 228.78 28.0082 231.84 29.9087C234.162 31.4477 234.703 33.523 234.276 36.3912C233.787 39.4692 231.882 42.0459 229.196 42.9436C229.061 42.8387 228.894 42.8271 228.748 42.9087C228.207 42.932 227.77 42.9086 227.27 42.7221C224.324 41.4746 222.263 38.0118 222.284 34.4791Z" fill="#00FF09"/>
<path d="M230.923 37.4992C230.725 39.0732 229.445 40.2974 228.008 40.0642C227.582 40.0176 227.061 40.0409 226.749 39.6562C226.593 39.423 226.645 39.1198 226.832 38.9332C227.019 38.7467 227.269 38.8167 227.498 38.8517C227.894 38.8633 228.3 38.8866 228.695 38.8167C229.653 38.6418 230.236 37.0212 229.695 36.1467C229.705 36.1467 229.705 36.1584 229.716 36.1584C229.716 36.1584 229.716 36.1584 229.757 36.1933C228.82 35.692 227.665 36.3566 226.718 36.0768C225.416 35.5638 225.635 33.2086 226.718 32.5207C227.686 31.9144 228.945 31.6463 229.893 32.4158C230.142 32.5907 230.247 32.9637 230.09 33.2552C229.726 33.9081 229.143 33.2785 228.675 33.1852C228.154 33.1503 227.592 33.3602 227.144 33.64C226.884 33.9664 226.79 34.5261 226.957 34.9225C228.914 34.6194 231.423 34.3395 230.923 37.4992Z" fill="#00FF09"/>
<path d="M228.082 32.3108C228.082 32.8938 228.832 33.3018 229.081 32.6839C229.134 32.5323 229.123 32.4041 229.071 32.2642C229.061 32.031 229.123 31.8095 229.123 31.5763C229.134 31.005 228.394 30.8417 228.207 31.3664C228.113 31.6579 228.051 31.9843 228.082 32.3108Z" fill="#00FF09"/>
<path d="M240.751 36.0765C240.803 36.1465 240.856 36.2164 240.918 36.2747C241.033 36.6711 241.522 36.7993 241.813 36.5428C242.25 36.1464 242.355 35.1437 241.813 34.794C240.949 34.176 240.158 35.2021 240.751 36.0765Z" fill="#00FF09"/>
<path d="M207.762 44.2028C207.69 45.427 208.033 45.9634 209.199 45.7768C210.157 45.7535 211.25 45.7418 212.176 45.8234C218.838 46.6279 225.542 47.036 232.225 47.0127C235.057 47.0243 237.909 47.0476 240.72 47.4207C241.792 47.5257 242.864 47.6655 243.926 47.8288C244.571 47.957 245.196 47.7938 245.061 46.8844C245.019 46.2198 244.728 45.4503 244.967 44.8207C245.873 43.6665 247.34 44.0395 248.538 44.2028C249.318 44.3777 249.464 43.4916 249.433 42.8037C249.495 39.7606 250.297 36.7642 250.651 33.8028C250.921 32.462 251.13 31.0979 251.327 29.7454C251.452 29.1508 251.452 28.3229 250.786 28.1597C248.746 27.775 246.289 26.9821 245.727 24.4404C245.685 24.2306 245.633 24.0441 245.477 23.9042C244.957 23.566 244.259 23.8109 243.687 23.7992C242.458 23.9041 241.251 23.9508 240.022 23.9391C235.598 23.8691 231.236 23.4144 226.812 23.5077C222.961 23.2862 219.015 22.9481 215.205 22.7965C213.54 22.6799 211.853 22.2719 210.198 22.4351C209.147 22.9597 209.678 24.6503 209.626 25.653C209.574 26.4808 208.949 29.6638 210.209 29.5122C210.719 29.3373 210.542 28.7893 210.448 28.3929C210.406 27.4485 210.583 26.6324 210.656 25.723C210.677 24.9768 210.459 24.2073 210.583 23.4611C218.131 24.3006 225.657 24.8019 233.225 24.9534C237.076 25.07 240.938 25.4665 244.78 24.9185C245.3 27.705 248.038 28.9292 250.307 29.2557C249.756 32.1122 249.235 34.9104 248.85 37.7902C248.486 39.4808 248.236 41.2063 248.329 42.9436C245.935 42.244 243.031 43.235 243.936 46.5929C237.909 45.357 231.684 45.9167 225.605 45.5669C222.961 45.4619 220.233 45.357 217.62 45.1355C214.675 44.879 211.739 44.331 208.772 44.6342C208.762 43.8763 208.866 43.0835 208.741 42.3373C208.658 42.1275 208.46 41.9992 208.252 42.0225C207.533 42.244 207.846 43.5615 207.762 44.2028Z" fill="#00FF09"/>
<path d="M191.44 36.0415C197.155 36.3563 202.87 36.2281 208.585 36.1814C210.282 36.1465 211.979 36.1931 213.676 36.0998C214.29 35.9949 215.279 36.1698 215.508 35.3187C215.633 34.829 215.06 34.4442 214.748 34.8173C207.909 34.9689 201.038 34.9573 194.189 34.9106C193.293 34.8757 192.409 34.8407 191.513 34.899C191.263 34.9223 191.045 35.0972 191.003 35.4003C190.972 35.6918 191.17 36.0182 191.44 36.0415Z" fill="#00FF09"/>
<path d="M196.989 29.3261C199.956 29.6875 202.86 29.6059 205.827 29.6875C209.2 29.6059 212.677 29.9906 216.018 29.4776C216.57 29.2794 216.372 28.3467 215.789 28.4983C211.261 28.5683 206.722 28.4167 202.194 28.3584C200.414 28.3584 198.79 28.2185 197.062 28.1369C196.416 28.1252 196.344 29.2561 196.989 29.3261Z" fill="#00FF09"/>
<path d="M202.911 45.9052C203.078 47.0012 202.953 48.3303 203.567 49.2398C204.181 49.7877 205.056 49.7528 205.795 49.9043C207.471 50.1842 209.168 50.3008 210.844 50.499C217.339 51.3851 223.846 52.003 230.373 51.8514C236.077 51.9214 241.771 52.1196 247.476 51.8981C248.756 51.8631 249.943 51.9097 251.15 51.6649C251.619 51.5483 252.171 51.3501 252.431 50.8604C252.629 50.5106 252.629 50.1025 252.618 49.7177C252.608 48.8666 252.764 48.0738 252.91 47.246C253.441 44.2612 253.035 41.1949 253.149 38.1635C253.076 33.7563 254.055 29.4308 253.972 25.0236C253.867 23.3097 254.19 21.5025 253.805 19.8469C253.618 19.4738 253.222 19.4389 252.889 19.5088C252.035 19.6137 251.192 19.7187 250.411 19.7769C248.111 19.9169 245.789 19.9052 243.478 19.9519C236.296 20.3716 229.092 19.3106 221.961 18.6344C218.443 18.3079 214.904 18.5295 211.375 18.2263C209.49 18.1214 207.617 17.8882 205.733 18.0631C205.472 18.0864 205.17 18.1447 205.004 18.3895C204.889 18.5527 204.869 18.7393 204.858 18.9375C204.848 20.1967 204.65 21.3393 204.556 22.5635C204.504 24.0093 204.431 25.4433 204.39 26.8658C204.41 27.2971 204.327 27.7518 204.431 28.1716C204.556 28.5097 204.931 28.6146 205.191 28.3931C205.722 27.6236 205.431 26.3994 205.576 25.4783C205.597 23.3214 205.805 21.351 205.878 19.2407C207.138 19.194 208.429 19.2873 209.647 19.3922C213.675 19.8003 217.818 19.6137 221.836 19.9519C226.261 20.3716 230.737 20.8729 235.151 21.2343C237.482 21.4092 239.835 21.3859 242.167 21.3043C245.717 21.211 249.287 21.3509 252.806 20.733C252.806 25.6648 252.441 30.4918 251.962 35.377C251.702 39.8774 252.348 44.4128 251.515 48.8666C251.473 49.2864 251.494 49.7178 251.504 50.1492C251.484 50.2075 251.432 50.2191 251.39 50.2541C249.901 50.7321 248.298 50.4406 246.778 50.5222C244.384 50.5339 241.979 50.6272 239.585 50.6155C233.672 50.2891 227.749 50.6156 221.847 50.2774C218.474 50.1608 215.247 49.6944 211.906 49.3563C209.397 49.0065 206.815 49.0066 204.348 48.3887C204.119 46.9779 203.932 45.5205 203.994 44.1213C203.942 43.4335 204.567 42.1859 203.713 41.9294C202.693 41.7778 202.901 45.1357 202.911 45.9052Z" fill="#00FF09"/>
<path d="M308.596 34.7939C308.755 39.1078 312.044 44.3894 316.316 44.0396C316.866 44.2844 317.5 43.9814 317.976 43.6666C319.087 43.2935 320.07 42.524 320.874 41.6145C323.19 38.8863 324.364 33.3365 321.783 30.4217C318.219 25.4898 308.617 28.0665 308.596 34.7939ZM309.781 34.4791C310.024 29.9553 316.379 28.0082 319.488 29.9087C321.847 31.4477 322.397 33.523 321.963 36.3912C321.466 39.4692 319.531 42.0459 316.802 42.9436C316.665 42.8387 316.496 42.8271 316.348 42.9087C315.798 42.932 315.354 42.9086 314.846 42.7221C311.853 41.4746 309.759 38.0118 309.781 34.4791Z" fill="#00FF09"/>
<path d="M318.557 37.4992C318.356 39.0732 317.055 40.2974 315.596 40.0642C315.162 40.0176 314.633 40.0409 314.316 39.6562C314.158 39.423 314.21 39.1198 314.401 38.9332C314.591 38.7467 314.845 38.8167 315.078 38.8517C315.479 38.8633 315.892 38.8866 316.294 38.8167C317.267 38.6418 317.859 37.0212 317.309 36.1467C317.32 36.1467 317.32 36.1584 317.33 36.1584C317.33 36.1584 317.33 36.1584 317.372 36.1933C316.421 35.692 315.247 36.3566 314.284 36.0768C312.963 35.5638 313.185 33.2086 314.284 32.5207C315.268 31.9144 316.548 31.6463 317.51 32.4158C317.764 32.5907 317.869 32.9637 317.711 33.2552C317.341 33.9081 316.748 33.2785 316.273 33.1852C315.744 33.1503 315.173 33.3602 314.718 33.64C314.454 33.9664 314.359 34.5261 314.528 34.9225C316.516 34.6194 319.064 34.3395 318.557 37.4992Z" fill="#00FF09"/>
<path d="M315.671 32.3108C315.671 32.8938 316.432 33.3018 316.686 32.6839C316.739 32.5323 316.728 32.4041 316.675 32.2642C316.665 32.031 316.728 31.8095 316.728 31.5763C316.739 31.005 315.988 30.8417 315.798 31.3664C315.702 31.6579 315.639 31.9843 315.671 32.3108Z" fill="#00FF09"/>
<path d="M328.541 36.0765C328.594 36.1465 328.647 36.2164 328.71 36.2747C328.827 36.6711 329.324 36.7993 329.62 36.5428C330.064 36.1464 330.17 35.1437 329.62 34.794C328.742 34.176 327.938 35.2021 328.541 36.0765Z" fill="#00FF09"/>
<path d="M295.028 44.2028C294.954 45.427 295.303 45.9634 296.488 45.7768C297.461 45.7535 298.571 45.7418 299.512 45.8234C306.28 46.6279 313.091 47.036 319.88 47.0127C322.756 47.0243 325.654 47.0476 328.509 47.4207C329.598 47.5257 330.687 47.6655 331.766 47.8288C332.422 47.957 333.056 47.7938 332.919 46.8844C332.876 46.2198 332.58 45.4503 332.824 44.8207C333.744 43.6665 335.235 44.0395 336.451 44.2028C337.244 44.3777 337.392 43.4916 337.36 42.8037C337.424 39.7606 338.238 36.7642 338.598 33.8028C338.873 32.462 339.084 31.0979 339.285 29.7454C339.412 29.1508 339.412 28.3229 338.735 28.1597C336.662 27.775 334.167 26.9821 333.596 24.4404C333.553 24.2306 333.5 24.0441 333.342 23.9042C332.813 23.566 332.104 23.8109 331.523 23.7992C330.275 23.9041 329.048 23.9508 327.8 23.9391C323.306 23.8691 318.875 23.4144 314.381 23.5077C310.468 23.2862 306.46 22.9481 302.59 22.7965C300.898 22.6799 299.184 22.2719 297.503 22.4351C296.435 22.9597 296.974 24.6503 296.921 25.653C296.868 26.4808 296.234 29.6638 297.514 29.5122C298.032 29.3373 297.852 28.7893 297.757 28.3929C297.714 27.4485 297.894 26.6324 297.968 25.723C297.989 24.9768 297.767 24.2073 297.894 23.4611C305.561 24.3006 313.207 24.8019 320.895 24.9534C324.808 25.07 328.731 25.4665 332.633 24.9185C333.162 27.705 335.943 28.9292 338.249 29.2557C337.688 32.1122 337.159 34.9104 336.768 37.7902C336.398 39.4808 336.144 41.2063 336.239 42.9436C333.807 42.244 330.857 43.235 331.777 46.5929C325.654 45.357 319.33 45.9167 313.154 45.5669C310.468 45.4619 307.697 45.357 305.043 45.1355C302.05 44.879 299.068 44.331 296.054 44.6342C296.044 43.8763 296.149 43.0835 296.022 42.3373C295.938 42.1275 295.737 41.9992 295.525 42.0225C294.796 42.244 295.113 43.5615 295.028 44.2028Z" fill="#00FF09"/>
<path d="M278.447 36.0415C284.253 36.3563 290.059 36.2281 295.865 36.1814C297.588 36.1465 299.312 36.1931 301.036 36.0998C301.66 35.9949 302.664 36.1698 302.897 35.3187C303.024 34.829 302.442 34.4442 302.125 34.8173C295.177 34.9689 288.198 34.9573 281.239 34.9106C280.33 34.8757 279.431 34.8407 278.521 34.899C278.268 34.9223 278.046 35.0972 278.003 35.4003C277.972 35.6918 278.172 36.0182 278.447 36.0415Z" fill="#00FF09"/>
<path d="M284.084 29.3261C287.098 29.6875 290.048 29.6059 293.062 29.6875C296.489 29.6059 300.021 29.9906 303.415 29.4776C303.976 29.2794 303.775 28.3467 303.183 28.4983C298.582 28.5683 293.972 28.4167 289.372 28.3584C287.563 28.3584 285.914 28.2185 284.158 28.1369C283.502 28.1252 283.428 29.2561 284.084 29.3261Z" fill="#00FF09"/>
<path d="M290.101 45.9052C290.27 47.0012 290.143 48.3303 290.767 49.2398C291.391 49.7877 292.279 49.7528 293.03 49.9043C294.732 50.1842 296.456 50.3008 298.159 50.499C304.758 51.3851 311.367 52.003 317.997 51.8514C323.793 51.9214 329.577 52.1196 335.372 51.8981C336.673 51.8631 337.879 51.9097 339.105 51.6649C339.581 51.5483 340.142 51.3501 340.406 50.8604C340.607 50.5106 340.607 50.1025 340.596 49.7177C340.586 48.8666 340.744 48.0738 340.892 47.246C341.432 44.2612 341.019 41.1949 341.136 38.1635C341.062 33.7563 342.056 29.4308 341.971 25.0236C341.865 23.3097 342.193 21.5025 341.802 19.8469C341.612 19.4738 341.21 19.4389 340.871 19.5088C340.004 19.6137 339.148 19.7187 338.354 19.7769C336.017 19.9169 333.659 19.9052 331.311 19.9519C324.015 20.3716 316.697 19.3106 309.453 18.6344C305.878 18.3079 302.283 18.5295 298.698 18.2263C296.784 18.1214 294.88 17.8882 292.966 18.0631C292.702 18.0864 292.395 18.1447 292.226 18.3895C292.11 18.5527 292.089 18.7393 292.078 18.9375C292.067 20.1967 291.867 21.3393 291.771 22.5635C291.719 24.0093 291.644 25.4433 291.602 26.8658C291.623 27.2971 291.539 27.7518 291.645 28.1716C291.771 28.5097 292.152 28.6146 292.416 28.3931C292.956 27.6236 292.66 26.3994 292.808 25.4783C292.829 23.3214 293.04 21.351 293.114 19.2407C294.394 19.194 295.705 19.2873 296.943 19.3922C301.035 19.8003 305.244 19.6137 309.326 19.9519C313.82 20.3716 318.368 20.8729 322.851 21.2343C325.22 21.4092 327.61 21.3859 329.979 21.3043C333.585 21.211 337.212 21.3509 340.787 20.733C340.787 25.6648 340.417 30.4918 339.93 35.377C339.666 39.8774 340.321 44.4128 339.475 48.8666C339.433 49.2864 339.454 49.7178 339.465 50.1492C339.444 50.2075 339.391 50.2191 339.348 50.2541C337.836 50.7321 336.208 50.4406 334.664 50.5222C332.231 50.5339 329.789 50.6272 327.356 50.6155C321.35 50.2891 315.333 50.6156 309.337 50.2774C305.91 50.1608 302.632 49.6944 299.237 49.3563C296.689 49.0065 294.066 49.0066 291.56 48.3887C291.327 46.9779 291.137 45.5205 291.2 44.1213C291.147 43.4335 291.782 42.1859 290.915 41.9294C289.878 41.7778 290.09 45.1357 290.101 45.9052Z" fill="#00FF09"/>
<path d="M30.5525 36.1848C30.7561 30.6532 30.842 25.1127 31.1724 19.581C31.2513 16.6025 31.4118 13.633 31.7352 10.6634C31.8332 8.69877 31.9402 6.72513 32.2916 4.7875C32.5237 0.803979 36.4882 -0.0503271 39.8107 0.073639C41.7571 0.00864183 43.7036 0.106612 45.6231 0.421863C48.6018 0.82676 51.6705 0.425844 54.6223 1.12951C56.4333 1.56254 57.8375 2.74732 59.314 3.78718C61.1349 5.31561 61.5988 7.90436 61.8361 10.1493C61.9095 11.3261 61.8742 12.5031 61.8209 13.671C61.8304 14.187 61.8673 15.0198 61.1521 15.0204C60.1019 14.9217 60.5894 13.3913 60.4983 12.6672C60.5601 10.7751 60.3773 8.73826 59.7241 6.99158C59.388 5.70633 58.4548 4.80182 57.3317 4.16905C55.701 2.74909 53.5641 2.24389 51.4457 2.23661C49.7616 2.01169 48.0598 2.23946 46.3758 2.0417C42.9896 1.60093 39.4314 1.11505 36.0825 1.94167C35.3494 2.25009 34.6797 2.48602 34.2276 3.12916C33.4773 4.533 33.506 6.3617 33.3172 7.8375C33.2375 10.0465 33.0674 12.2737 32.87 14.4647C32.7101 18.0589 32.6226 21.6801 32.363 25.2653C32.1577 28.6604 32.3053 32.0641 32.109 35.4592C31.8689 40.6649 32.2264 45.8791 32.6018 51.0481C32.7957 55.4748 32.4554 59.9745 33.5454 64.2918C33.7089 64.9888 34.4062 65.2145 35.0579 65.1053C36.3795 64.9594 37.6921 64.7591 39.0228 64.6675C41.9557 64.3753 45.0153 64.0469 47.8938 63.5556C51.2608 62.738 54.7914 62.6536 58.0858 61.5645C60.3215 61.0376 59.9486 59.0371 59.929 57.2356C59.9273 55.1353 59.9346 53.044 59.9781 50.9437C59.7513 50.4188 60.3665 49.9023 60.8194 50.2278C61.2723 50.5353 61.2638 51.1509 61.2823 51.6306C61.319 52.2734 61.3195 52.9161 61.3201 53.5589C61.3303 54.9531 61.3496 56.3472 61.3326 57.7414C61.2886 59.1537 61.4439 60.8284 60.3222 61.8704C58.1418 63.5108 55.2268 63.6581 52.629 64.122C47.4243 65.1131 42.3191 65.8959 37.0506 66.3077C35.3398 66.5898 33.0587 66.9086 32.2785 64.9719C31.6797 63.3519 31.5424 61.5776 31.3871 59.8667C31.1039 56.798 31.219 53.8013 31.0716 50.7415C30.6602 45.9166 30.4117 41.0463 30.5525 36.1848Z" fill="white"/>
<path d="M39.5232 24.291C39.5473 20.5612 40.0058 16.7947 40.1295 13.092C40.1098 11.2271 40.0279 10.6839 42.1283 10.7908C44.8263 11.0601 47.4784 10.5057 50.158 10.4491C51.715 10.2487 51.6081 12.331 51.6994 13.3177C51.6909 13.9333 52.1173 15.0193 51.2393 15.192C50.8953 15.2375 50.5692 14.9934 50.5236 14.6494C50.3961 13.6718 50.3862 12.6851 50.1953 11.7256C48.4933 11.7632 46.8188 12.0815 45.126 12.2096C43.9039 12.274 42.6907 12.103 41.4685 12.1131C41.57 14.4125 41.3005 16.857 41.1484 19.1023C41.0059 21.8545 40.9448 24.6067 40.9743 27.3588C40.9427 32.8631 41.418 38.3487 41.486 43.8439C41.5795 47.474 41.4287 51.1135 41.5675 54.7437C43.3416 54.4163 45.0794 53.9531 46.8809 53.9063C48.1936 53.8961 49.3342 53.8318 50.6015 53.6407C50.9183 53.568 51.2622 53.5043 51.4702 53.2326C51.6687 52.4538 51.0421 50.0372 52.1646 50C52.409 49.9998 52.6264 50.1445 52.7262 50.3708C52.9079 51.0858 52.7818 51.8554 52.7824 52.5887C52.7466 53.0776 52.747 53.5936 52.4667 54.0103C51.0378 55.813 46.6735 54.8571 44.4651 55.5198C43.3427 55.6656 42.2204 56.0377 41.0888 56.0114C40.4731 55.9124 40.2914 55.2245 40.2367 54.6904C39.9341 50.0555 40.1474 45.4021 39.9263 40.7581C39.6229 35.2723 39.4554 29.7772 39.5232 24.291Z" fill="white"/>
<path d="M24.7854 35.8189C24.7731 31.9985 25.1229 28.0693 25.4276 24.2939C25.6501 19.6948 25.5557 15.0869 25.6424 10.4788C25.6688 9.65499 26.9 9.60869 26.9369 10.4777C27.0388 13.1936 26.8057 15.9187 26.8713 18.6346C27.0284 22.4186 26.7148 26.3026 26.3919 29.9965C26.2222 32.7125 26.2517 35.4284 26.1906 38.1444C26.1939 42.1729 26.143 46.2016 26.3907 50.2209C26.4372 51.606 26.4836 52.991 26.5843 54.3761C26.6213 55.3447 26.8123 56.3766 26.5506 57.3183C26.3699 57.8435 25.537 57.7356 25.5094 57.1924C25.4729 56.8666 25.4817 56.5316 25.4542 56.2057C24.67 49.4076 24.6915 42.6449 24.7854 35.8189Z" fill="white"/>
<path d="M9.77679 16.0953C9.80267 14.5653 9.84659 12.9448 10.0083 11.4509C10.1254 10.7537 9.79834 9.35987 10.8304 9.36806C11.1292 9.40402 11.3648 9.6754 11.356 9.97416C11.3657 10.807 11.3032 11.8029 11.2314 12.5906C11.0718 16.5831 11.22 20.5753 11.3048 24.5676C11.2833 31.3936 11.805 38.2011 11.847 45.027C11.8955 48.8926 11.5184 52.7404 11.6212 56.5969C11.5402 57.1402 11.5591 58.1088 10.8258 58.0732C10.5361 58.0373 10.3186 57.7568 10.3636 57.4671C10.4802 56.1452 10.289 54.8236 10.2698 53.4929C10.2222 50.7498 10.4734 48.0066 10.4349 45.2636C10.45 41.6605 10.2387 38.0666 10.0366 34.4727C9.83229 28.353 9.79097 22.2242 9.77679 16.0953Z" fill="white"/>
<path d="M0.382807 8.752C0.435953 7.34874 0.742613 5.97243 1.09455 4.62324C1.29236 2.99353 2.23285 1.78867 3.79858 1.25323C5.52712 0.563757 7.42835 0.688928 9.24792 0.587825C12.878 0.385626 16.4994 0.536523 20.1298 0.71455C24.7742 0.973207 29.4272 0.724886 34.0716 0.983543C34.4066 1.01948 34.814 1.08251 35.0225 1.38108C35.3851 2.00544 34.797 2.42234 34.2084 2.20556C27.0024 2.4198 19.796 2.11802 12.5896 1.94298C11.114 1.95327 9.6384 2.00882 8.1628 2.05531C6.31604 2.12023 4.4058 2.05846 2.97651 3.36328C2.56053 3.90681 2.55211 4.64917 2.37159 5.29208C2.03762 6.47831 1.85758 7.7278 1.78617 8.94096C1.67911 10.8241 2.0428 12.7068 2.16206 14.5807C2.32864 18.926 2.67632 23.2983 2.88816 27.6345C3.14467 31.2555 3.48266 34.8673 3.55811 38.4975C3.50554 40.5888 3.4077 42.6801 3.44566 44.7713C3.60412 50.2302 3.41858 55.6984 3.6042 61.1572C3.65446 67.1321 7.53701 65.7166 11.8918 66.0298C16.7534 66.2158 21.6239 66.248 26.4668 65.6374C28.5941 65.4636 30.685 65.0816 32.7668 64.6182C33.4999 64.4094 33.8992 65.5044 33.1842 65.8128C26.8034 67.6469 20.0229 67.8064 13.423 67.5675C11.9926 67.5416 10.5712 67.4704 9.14083 67.4444C6.98617 67.3919 4.29736 67.2945 3.15488 65.1408C1.54079 61.9555 2.26186 58.1798 2.03266 54.7308C2.10151 50.4577 1.99835 46.1848 2.04004 41.9118C2.19243 40.1011 2.0279 38.191 1.8816 36.462C1.70666 32.9496 1.53172 29.4462 1.38394 25.9338C1.27218 22.204 0.907109 18.6737 0.831606 14.9892C0.694072 12.9071 0.230653 10.8434 0.382807 8.752Z" fill="white"/>
<path d="M10.9939 8.99715C12.5779 8.65181 14.262 9.00351 15.8734 8.97501C18.1366 8.90974 20.355 9.36055 22.5913 9.60311C23.5509 9.67474 24.5196 9.62865 25.4793 9.75459C25.7419 9.79963 25.9774 9.95335 26.05 10.2158C26.1681 10.6231 25.7791 11.058 25.3626 10.9406C22.1581 11.2239 19.0521 10.2307 15.8654 10.2424C14.3445 10.1984 12.8053 9.98243 11.2845 10.0923C10.6509 10.2015 10.3785 9.2421 10.9939 8.99715Z" fill="white"/>
<path d="M15.0901 14.0535C15.2523 13.139 16.8914 13.708 17.5613 13.6441C19.0189 13.7696 20.4765 13.8952 21.9341 14.0116C22.2058 14.0476 22.5045 14.0745 22.7039 14.2735C23.1841 14.7801 22.5964 15.6406 21.9714 15.2428C20.3328 15.2442 18.7032 15.1097 17.0825 14.9119C16.4487 14.7585 15.0547 15.0132 15.0901 14.0535Z" fill="white"/>
<path d="M15.6089 18.77C17.3923 18.7504 19.1759 18.9028 20.9594 18.9375C21.4211 18.9733 21.9733 18.9185 22.3448 19.2622C22.5803 19.4793 22.6078 19.8776 22.3726 20.1041C22.2008 20.2763 21.9292 20.3218 21.7118 20.2043C21.2048 20.1594 20.6888 20.187 20.1818 20.1875C18.6247 20.1978 17.0676 20.181 15.5194 20.0284C15.2116 19.9924 14.976 19.712 14.9757 19.4042C14.9754 19.0511 15.2649 18.7793 15.6089 18.77Z" fill="white"/>
<path d="M15.2974 25.1796C15.4505 24.1293 17.479 24.8971 18.2394 24.8422C19.4616 24.9589 20.5481 25.0304 21.7069 25.1019C21.9966 25.1197 22.3225 25.1014 22.54 25.3275C22.8299 25.626 22.7398 26.1331 22.3507 26.2963C21.2916 26.4602 20.1961 26.3253 19.1278 26.299C18.0052 26.2185 16.8735 26.1198 15.7688 25.8854C15.4519 25.8223 15.2615 25.4874 15.2974 25.1796Z" fill="white"/>
<path d="M14.8862 31.1556C14.9311 30.8025 15.2659 30.5488 15.619 30.6028C16.6602 30.7287 17.7013 30.7821 18.7335 30.8808C19.4396 30.9346 20.0734 30.9612 20.7614 30.9968C21.2865 31.0507 22.065 30.9505 22.31 31.5296C22.4188 31.8011 22.2923 32.1271 22.0661 32.245C21.9394 32.3085 21.7856 32.3358 21.6588 32.3269C20.6358 32.2825 19.6128 32.3376 18.5898 32.266C17.5034 32.2036 16.4079 32.1321 15.3485 31.8795C15.0406 31.7892 14.8412 31.4635 14.8862 31.1556Z" fill="white"/>
<path d="M16.0051 36.8847C16.0501 36.5497 16.3577 36.3231 16.6927 36.359C17.58 36.4216 18.4672 36.4662 19.3455 36.5831C20.097 36.7817 22.849 36.5802 22.1168 37.9297C21.945 38.1381 21.7096 38.2016 21.4742 38.1475C20.6322 38.0305 19.7812 38.0041 18.9301 37.9233C18.2057 37.761 15.9065 37.9621 16.0051 36.8847Z" fill="white"/>
<path d="M44.8303 37.8565C44.9263 33.6468 44.7236 29.4282 45.3357 25.2452C45.4691 22.312 45.5844 19.4149 46.0889 16.5356C45.835 16.056 46.3777 15.4309 46.903 15.6658C47.2652 15.8194 47.3108 16.2268 47.293 16.5708C46.7532 20.6904 46.7567 24.8548 46.2441 28.9653C46.1398 34.1708 46.1352 39.3854 46.2481 44.5908C46.3311 46.3017 46.8032 47.9761 46.7684 49.7052C46.7689 50.2122 46.1082 50.5115 45.7458 50.1316C45.483 49.8602 45.5823 49.4528 45.5458 49.1088C44.7822 45.3886 44.8243 41.6226 44.8303 37.8565Z" fill="white"/>
<path d="M72.6966 32.2445C72.8861 31.4567 73.9998 31.7636 73.9099 32.5151C73.8655 33.5562 72.3715 33.1863 72.6966 32.2445Z" fill="#00FF09"/>
<path d="M56.0181 29.0542C56.642 28.1122 57.7189 27.6587 58.6872 27.1328C60.7049 25.8818 63.3757 26.0696 65.4497 27.109C69.1536 28.5544 69.999 32.7271 68.2998 36.051C67.4589 37.2648 66.3554 38.4155 64.9164 38.8784C64.2015 39.2049 63.4866 39.5495 62.6808 39.5501C61.7483 39.4966 60.7979 39.6966 59.8744 39.4891C58.5251 39.1191 57.1396 38.5861 56.1339 37.5911C55.7443 37.2927 56.115 36.6587 56.5588 36.8575C57.1928 37.201 57.7092 37.7075 58.4246 37.897C59.8013 38.6745 61.2406 38.5736 62.7434 38.518C63.7572 38.3633 64.7073 37.8374 65.6122 37.3931C66.4445 36.6953 67.322 35.9251 67.6561 34.8565C68.1166 33.4439 68.2329 31.769 67.6343 30.3934C67.0811 29.2804 66.148 28.5388 65.0341 28.0509C63.4944 27.2464 61.7561 27.085 60.0998 27.5299C58.9144 28.1827 57.3938 28.6095 56.6162 29.7599C56.1548 30.1495 55.6473 29.4891 56.0181 29.0542Z" fill="#00FF09"/>
<path d="M59.9406 31.8665C59.9214 30.572 60.7712 29.1771 62.2017 29.2664C62.6815 29.2751 63.4058 29.2745 63.4787 29.89C63.5515 30.3155 63.0266 30.5242 62.7547 30.1985C62.139 30.1356 61.3696 30.2087 61.1076 30.8698C60.8998 31.4222 60.7014 32.2099 61.1635 32.6803C61.5983 33.0692 62.2229 32.9691 62.748 33.0501C63.3909 33.1311 63.9164 33.6557 64.0165 34.2893C64.126 35.3847 63.0132 36.1641 62.0174 36.2555C61.5014 36.2921 60.4242 36.4108 60.4145 35.6684C60.4866 35.1976 60.9846 35.2696 61.3286 35.3327C61.9261 35.3413 62.5507 35.3045 62.9577 34.8334C63.2924 34.471 63.0566 33.9824 62.5768 33.9828C61.2552 34.0835 59.8151 33.3694 59.9406 31.8665Z" fill="#00FF09"/>
<path d="M60.9521 28.8779C61.0693 28.3074 61.9747 28.4877 61.7942 29.0582C61.9393 29.4202 61.6319 29.8822 61.2244 29.7105C60.9074 29.584 60.898 29.1676 60.9521 28.8779Z" fill="#00FF09"/>
<path d="M61.7182 36.1201C61.8356 35.8122 62.252 35.7394 62.5056 35.9202C62.6596 36.0378 62.6598 36.2098 62.6418 36.3728C62.633 36.6443 62.6694 36.9521 62.4705 37.1696C62.2624 37.378 61.9093 37.2968 61.7914 37.0344C61.6916 36.7448 61.6189 36.4098 61.7182 36.1201Z" fill="#00FF09"/>
<path d="M53.7144 45.9854C58.7838 45.7095 63.8354 45.7325 68.8776 45.2756C73.3406 45.118 77.8129 45.2591 82.2759 45.0471C82.1644 41.6343 82.3697 38.1849 82.1586 34.7811C81.8763 32.7263 82.1461 30.5624 81.9452 28.5166C81.8803 26.7423 81.39 25.0317 81.1442 23.2937C80.9619 21.8816 81.2595 20.4872 81.4213 19.0929C73.8439 19.0449 66.2759 19.4858 58.7075 19.3925C57.2591 19.3847 55.8106 19.404 54.3712 19.4867C54.1993 19.6045 53.9368 19.5594 53.8189 19.3604C53.3019 18.2382 55.7918 18.553 56.3892 18.4348C58.3265 18.388 60.2548 18.4588 62.1921 18.4209C67.8141 18.4072 73.4175 18.0223 79.0396 18.1624C82.9867 18.1682 82.4974 17.7159 82.1024 21.609C81.9776 23.9901 82.9843 26.1891 82.9863 28.561C83.0443 32.9607 83.4644 37.333 83.2689 41.7239C83.2247 42.9823 83.271 44.2497 83.1996 45.5081C82.8562 46.2507 81.7878 46.0343 81.1089 46.1254C76.2476 46.3468 71.2954 46.0612 66.4615 46.5088C63.4561 46.8101 60.4776 46.6496 57.4902 46.8332C56.2229 46.9067 54.9736 46.9439 53.7061 46.9178C53.4526 46.909 53.2352 46.71 53.235 46.4474C53.2529 46.1849 53.4609 46.0037 53.7144 45.9854Z" fill="#00FF09"/>
<path d="M53.6513 24.1849C54.321 23.8856 55.1268 24.0479 55.851 23.993C57.4896 23.9644 59.1463 24.0174 60.7849 23.9164C63.6998 23.8054 66.4969 23.468 69.3573 23.013C70.9776 22.8306 72.5616 22.4219 74.191 22.2576C74.6707 22.1486 75.3859 22.1842 75.4136 22.8269C75.4051 23.4697 75.0799 24.339 75.7773 24.7368C76.5653 25.1888 77.4977 25.1608 78.3578 25.1692C78.566 25.1509 78.7652 25.1598 78.9192 25.3136C79.2997 25.7116 79.0105 26.3093 79.02 26.7891C78.958 28.4459 79.5206 30.0478 79.6487 31.6862C79.7859 33.2704 80.0316 34.8454 80.3769 36.3932C80.4586 36.6466 80.5584 36.9 80.4409 37.1626C80.3325 37.4253 80.052 37.5794 79.8258 37.7244C78.921 38.2684 78.0343 38.93 77.8723 40.0346C77.747 41.7729 77.4389 41.4201 75.936 41.3308C71.5089 41.0901 67.164 41.7727 62.7919 42.3195C59.9314 42.6025 57.0799 42.8946 54.2194 43.1686C53.6219 43.1781 53.5397 42.2548 54.1552 42.1819C56.0109 41.9721 57.8666 41.7533 59.7223 41.5978C65.4434 41.1404 71.1819 39.7686 76.9221 40.479C76.8392 38.759 78.0512 37.4996 79.4991 36.7742C78.9907 35.0364 78.7809 33.2169 78.6165 31.4155C78.4158 29.6413 77.7987 27.8674 78.1503 26.0746C76.1769 26.2573 73.8949 25.544 74.4542 23.1174C67.7742 24.4628 60.9851 25.1746 54.1589 24.9087C53.6523 25.4342 53.1446 24.5384 53.6513 24.1849Z" fill="#00FF09"/>
</svg>
