<svg width="98" height="95" viewBox="0 0 98 95" fill="none" xmlns="http://www.w3.org/2000/svg">
<g filter="url(#filter0_d_24_3540)">
<path d="M9.32708 52.7644C8.87708 48.5744 9.34712 44.3544 9.74712 40.1844C10.1371 36.6244 10.9371 33.1044 12.0871 29.7244C13.5971 26.4844 15.2871 23.2344 17.6171 20.4944C19.5871 18.2744 21.4071 15.8144 23.8671 14.1144C25.0471 13.3344 26.3271 12.7244 27.5371 11.9844C29.3971 10.8844 31.1571 9.59441 33.1671 8.78441C34.4871 8.27441 35.8871 8.00441 37.2471 7.59441C39.6371 6.79441 42.2571 6.29436 44.7571 6.22436C45.4871 6.25436 47.0471 5.84441 47.1471 6.84441C47.1071 7.57441 46.3171 7.47439 45.7971 7.50439C44.2371 7.70439 42.6671 7.82436 41.1071 8.04436C39.8671 8.28436 38.6671 8.70438 37.4471 9.06438C35.9371 9.51438 34.3571 9.78441 32.9171 10.4644C30.0471 12.0544 27.2371 13.8044 24.4171 15.4644C22.8271 16.6144 21.5971 18.1844 20.2471 19.6044C18.3871 21.7244 16.6071 23.8744 15.3971 26.4244C14.6271 27.8544 13.7071 29.2144 13.1871 30.7644C12.5771 32.6744 12.1271 34.8044 11.6671 36.7044C10.9771 40.7544 10.5671 44.8544 10.4671 48.9644C10.4171 50.2044 10.5071 51.4444 10.5871 52.6844C10.5971 52.9944 10.3471 53.2644 10.0371 53.3144C9.7071 53.3444 9.35708 53.1044 9.32708 52.7644Z" fill="#00FCFF"/>
<path d="M49.087 85.4242C49.067 81.6442 49.117 77.7842 48.777 74.0243C48.567 71.1242 48.667 68.2042 48.467 65.3042C48.047 52.8942 47.8571 40.4842 47.6271 28.0742C46.8371 27.4442 48.107 26.4042 48.657 27.1442C48.927 27.5342 48.9371 28.0442 48.9971 28.5042C49.1771 30.7242 49.147 32.9542 49.207 35.1742C49.277 38.0242 49.347 40.8742 49.387 43.7342C49.447 50.9842 49.777 58.2143 49.907 65.4643C50.047 67.9443 49.977 70.4243 50.097 72.9043C50.217 75.4343 50.437 77.7742 50.397 80.2642C50.397 81.5942 50.387 82.9242 50.387 84.2642C50.327 84.9042 50.647 86.0042 49.727 86.0742C49.377 86.0742 49.087 85.7742 49.087 85.4242Z" fill="#00FCFF"/>
<path d="M47.9966 87.0743C43.1366 86.6143 38.2666 85.6643 33.8666 83.4743C25.6766 80.4043 18.2166 74.7443 13.7366 67.1643C13.4666 66.5443 12.6366 65.4643 13.6066 65.0843C14.4666 64.8743 14.6866 66.3843 15.1466 66.9143C18.7666 72.5743 24.1966 77.1444 30.1066 80.2144C32.9266 81.4844 35.7666 82.6943 38.6466 83.8143C42.3266 84.8743 46.1766 85.5144 49.9766 85.7844C50.2866 85.9544 50.3866 86.4143 50.1666 86.6643C49.6666 87.2843 48.7066 87.0643 47.9966 87.0743Z" fill="#00FCFF"/>
<path d="M47.6971 85.8246C44.8271 83.3046 42.4171 80.0146 39.8671 77.1446C33.4471 69.3846 28.2771 60.1246 27.0771 49.9946C26.6271 42.9446 27.4171 35.7846 29.5271 29.0646C30.4071 25.8746 31.5471 22.7946 33.0271 19.8246C33.7171 18.3146 34.3271 16.7346 35.3371 15.4046C38.1871 12.1146 41.1571 8.54457 45.4771 7.22457C45.9571 7.12457 46.4371 6.94461 46.8171 7.26461C47.3671 7.91461 46.5871 8.38458 45.9971 8.48458C45.2771 8.74458 44.5871 9.09461 43.9871 9.39461C40.8171 11.0646 38.5571 14.0346 36.2471 16.7046C35.2271 18.2546 34.5971 20.0246 33.8271 21.7046C32.0471 25.4546 30.8271 29.5546 29.9071 33.5746C28.5571 39.3046 28.2571 45.2146 28.7671 51.0546C30.0371 58.5946 33.3971 65.6046 37.7171 71.8646C40.3871 75.7046 43.5971 79.1946 46.5371 82.7946C47.0171 83.3346 47.4671 83.8446 47.9871 84.3346C48.3371 84.7046 48.9471 85.1546 48.5471 85.6946C48.3671 85.9846 47.9571 86.0446 47.6971 85.8246Z" fill="#00FCFF"/>
<path d="M52.1369 87.054C51.3169 86.944 47.867 86.414 48.057 85.334C48.047 85.404 48.0469 85.474 48.0669 85.524C48.0069 85.154 48.267 84.794 48.667 84.794C49.397 84.984 50.097 85.254 50.847 85.394C53.907 86.234 56.6769 84.2541 59.5069 83.4041C63.1569 82.1341 66.687 80.564 70.157 78.884C71.567 78.214 72.9669 77.184 74.087 76.184C74.9869 75.384 75.827 74.674 76.727 73.894C78.747 71.944 80.417 69.684 82.247 67.554C85.547 63.234 87.827 58.104 88.867 52.804C89.037 49.884 89.467 46.964 89.407 44.044C89.037 41.034 88.937 37.914 87.917 35.054C87.047 32.394 86.197 29.754 84.537 27.524C83.127 25.674 82.137 23.484 80.477 21.834C78.477 20.234 76.647 18.464 74.657 16.854C71.287 14.344 67.847 11.964 63.797 10.754C60.977 9.70403 58.387 8.24402 55.297 8.36402C53.847 8.26402 52.497 7.66404 51.057 7.51404C49.587 7.41404 48.0869 7.93405 46.6469 7.52405C45.8669 7.32405 46.057 6.04401 46.927 6.17401C47.177 6.23401 47.4369 6.22404 47.6969 6.20404C49.9669 5.85404 52.2069 5.944 54.3869 6.664C55.7669 6.954 57.1969 6.83405 58.5769 7.14405C60.2669 7.51405 61.8269 8.314 63.4469 8.914C65.7869 9.814 68.227 10.564 70.347 11.944C72.567 13.434 74.787 14.944 76.867 16.634C78.707 18.414 80.707 19.7441 82.427 21.5941C84.177 23.8941 85.777 26.364 87.277 28.814C89.197 32.714 90.407 36.974 90.807 41.304C91.277 44.294 91.007 47.2941 90.747 50.2841C90.667 54.6441 89.077 58.794 87.217 62.684C85.837 65.584 83.897 68.174 81.787 70.574C80.017 72.714 78.2569 74.844 76.0669 76.554C74.8069 77.694 73.517 78.834 72.037 79.684C67.547 82.174 62.7069 83.924 57.8969 85.674C56.0569 86.364 54.1469 87.244 52.1369 87.054Z" fill="#00FCFF"/>
<path d="M69.1071 33.5845C68.4271 32.8345 68.527 31.5045 68.137 30.6445C66.177 25.7745 64.5371 20.7545 62.0871 16.0945C60.9171 13.8645 59.3771 11.6344 57.0871 10.4344C55.6271 9.83445 54.1971 9.05448 52.6671 8.65448C50.5771 8.42448 48.4471 8.54447 46.3371 8.45447C45.1771 8.65447 45.2971 7.03447 46.4771 7.14447C49.4371 7.16447 52.597 6.67446 55.317 8.13446C57.307 8.90446 59.257 9.82445 60.647 11.5045C63.427 14.6645 64.9171 18.7344 66.4371 22.6044C67.3371 24.8844 68.1571 27.1845 69.0871 29.4545C69.5471 30.5245 69.7671 31.6545 69.9971 32.7845C70.3471 33.3445 69.6071 34.0145 69.1071 33.5845Z" fill="#00FCFF"/>
<path d="M52.2969 86.354C50.7769 85.174 57.7368 81.144 58.5668 80.224C61.1568 78.054 63.6469 75.624 65.1269 72.584C66.3569 70.114 67.2669 67.494 68.2869 64.944C68.7469 63.824 69.2268 62.704 69.4568 61.514C70.2768 57.124 70.3869 52.624 70.1869 48.174C70.1069 47.124 69.9768 46.094 69.8268 45.044C69.7268 44.374 69.3669 43.154 70.4069 43.124C70.8569 43.144 71.1669 43.584 70.9769 44.014C71.5969 46.714 71.6969 49.494 71.6769 52.254C71.7169 55.744 71.4668 59.294 70.6468 62.694C68.8868 67.244 67.4469 72.064 64.5969 76.084C61.9169 79.824 57.9269 82.324 54.3369 85.084C53.6969 85.524 53.1869 86.874 52.2969 86.354Z" fill="#00FCFF"/>
<path d="M48.837 86.2437C48.587 85.9037 48.6871 85.3638 49.0571 85.1538C49.3871 84.9438 49.747 85.1337 50.097 85.1737C51.087 85.4137 50.587 86.7437 49.657 86.3737C49.397 86.5437 49.037 86.5037 48.837 86.2437Z" fill="#00FCFF"/>
<path d="M48.5568 86.7839C48.1768 86.3039 48.6868 85.5039 49.2768 85.7539C49.9768 85.6939 51.4668 85.0639 51.6868 86.0739C51.7368 86.4139 51.4867 86.7538 51.1367 86.7938C50.4767 86.8538 49.8268 86.9938 49.1568 87.0438C48.9368 87.0438 48.7168 86.9839 48.5568 86.7839Z" fill="#00FCFF"/>
<path d="M49.3268 86.7638C47.9168 86.5838 48.8668 84.6938 49.8268 85.4738C50.5668 85.4838 52.6968 84.7938 52.8468 85.8138C52.8868 86.1438 52.6568 86.4838 52.3168 86.5138C51.3268 86.5838 50.3368 86.8138 49.3268 86.7638Z" fill="#00FCFF"/>
<path d="M49.0169 86.9339C48.5969 86.8439 48.417 86.2739 48.687 85.9539C48.897 85.6539 49.3169 85.7039 49.6469 85.6739C50.4169 85.7339 52.2269 84.8539 52.4469 85.9339C52.4969 86.2939 52.2469 86.5839 51.9069 86.6539C50.9569 86.8039 49.9769 87.0839 49.0169 86.9339Z" fill="#00FCFF"/>
<path d="M48.2371 86.694C47.8771 86.084 48.5671 85.294 49.1571 85.774C50.0371 85.754 52.6471 84.324 52.9971 85.464C53.0871 85.784 52.887 86.154 52.567 86.224C51.407 86.374 49.1171 87.724 48.2371 86.694Z" fill="#00FCFF"/>
<path d="M53.2168 32.0538C45.7568 31.9938 38.2768 31.4038 30.9468 29.9738C28.5468 29.4038 26.3468 28.4238 24.0668 27.5338C21.8368 26.5838 19.5568 25.6138 17.5968 24.1738C17.2568 23.9238 17.3268 23.3938 17.6768 23.1838C18.1568 22.9138 18.5868 23.4038 19.0068 23.5838C19.6468 23.9238 20.2068 24.2138 20.7768 24.5038C23.4568 25.8338 26.2968 26.8738 29.0868 27.9138C31.3568 28.7038 33.7468 29.0238 36.1168 29.3138C41.6368 30.1138 47.1768 30.4938 52.7468 30.5338C58.5668 30.7638 64.2168 29.7538 69.7468 28.0638C72.6568 26.8438 75.3668 25.1738 78.0968 23.6038C78.6868 23.2638 79.2568 22.8138 79.8068 22.4638C80.4468 22.0738 81.1368 23.0238 80.5068 23.5038C77.3968 25.7338 73.9868 27.5238 70.5968 29.2738C65.0468 31.1838 59.0968 32.1638 53.2168 32.0538Z" fill="#00FCFF"/>
<path d="M79.5469 70.7039C77.5469 70.1539 75.9169 68.8139 73.9369 68.2139C69.6469 66.6839 65.4769 65.0439 61.1469 63.6539C50.1669 60.7939 38.6769 62.4439 28.1469 66.1639C25.4269 67.0839 22.8768 68.4339 20.2568 69.5939C19.3968 69.8939 18.5869 70.5739 17.6669 70.5439C17.0969 70.4139 17.0569 69.5239 17.6368 69.3539C19.4969 68.4039 21.2769 67.5539 23.1469 66.6839C27.6769 64.5039 32.5769 63.0939 37.4769 61.9839C47.5069 59.7839 58.1669 60.2739 67.6269 64.4239C70.1169 65.3139 72.6168 66.1839 75.0668 67.1639C76.7468 67.7639 78.1568 68.9539 79.8868 69.4539C80.6768 69.6839 80.3769 70.9139 79.5469 70.7039Z" fill="#00FCFF"/>
<path d="M22.6771 47.3443C20.1871 47.3443 17.6971 47.2943 15.1971 47.3143C13.7671 47.3243 12.2971 47.4443 10.9171 46.9643C10.2071 46.7343 10.4171 45.6043 11.2371 45.7943C13.2471 46.2043 15.3171 45.8143 17.3471 45.8343C19.0571 45.7943 20.7771 45.7843 22.4871 45.7743C27.5971 45.7843 32.6971 45.6943 37.8071 45.4443C44.2371 45.0643 50.6771 45.1443 57.1171 45.1443C61.0871 45.2243 64.8571 45.6043 68.7971 45.5443C71.8571 45.4943 74.8771 45.1343 77.9271 45.1743C80.6571 45.1243 83.3771 45.3343 86.0971 45.3143C87.1771 45.2343 88.2771 45.3343 89.3471 45.1343C89.7071 44.9843 90.1871 44.9643 90.3571 45.3943C90.6571 46.4943 88.8871 46.4943 88.1771 46.5643C84.7371 46.7943 81.2971 46.5043 77.8471 46.6143C73.0471 46.6743 68.3271 47.3443 63.5371 46.9843C49.9171 46.1543 36.2971 47.4443 22.6771 47.3443Z" fill="#00FCFF"/>
<path d="M47.9171 11.8445C47.7571 10.9345 47.647 10.0245 47.517 9.1145C47.397 8.6245 47.4671 7.90453 48.1171 7.89453C48.4671 7.89453 48.727 8.17453 48.757 8.51453C48.967 9.58453 49.1671 10.6645 49.1871 11.7645C49.1871 12.5345 48.0271 12.6145 47.9171 11.8445Z" fill="#00FCFF"/>
<path d="M48.3271 12.6041C47.3471 12.0041 47.5871 10.5941 47.5371 9.60414C47.6171 9.02414 47.3771 8.16417 47.9871 7.82417C47.9671 7.23417 48.6971 6.88416 49.1271 7.31416C49.9371 8.19416 50.2971 13.1241 48.3271 12.6041Z" fill="#00FCFF"/>
<path d="M48.1568 32.8446C47.7368 32.6646 47.6869 32.1446 47.6069 31.7546C47.3869 30.1546 46.8669 28.3446 47.5569 26.8146C47.8469 26.2346 48.7069 26.2146 48.9969 26.8146C49.2869 27.3846 49.3869 28.0246 49.4769 28.6546C49.4669 29.4446 50.2169 31.3146 48.9369 31.3346C48.9369 31.7746 49.2468 32.2446 48.9468 32.6346C48.7568 32.8746 48.4268 32.9546 48.1568 32.8446Z" fill="#00FCFF"/>
<path d="M49.9066 85.3041C49.3966 84.4141 49.6666 83.2941 49.5466 82.3041C49.4866 80.1141 49.4966 77.9241 49.4666 75.7341C49.4966 73.4141 49.1766 71.1141 49.1266 68.8041C49.0966 64.5941 49.2666 60.3841 49.2066 56.1741C49.0666 49.6741 49.4266 43.1342 48.9066 36.6542C48.7566 34.8542 48.6966 33.0442 48.3466 31.2742C48.2566 30.4642 47.7466 29.6041 48.0466 28.8141C48.3766 28.2641 49.2266 28.5341 49.2266 29.1741C50.1166 31.9641 50.2666 34.9641 50.4566 37.8141C50.7866 43.6641 50.5566 49.5141 50.6766 55.3641C50.7266 59.2841 50.6366 63.1941 50.5366 67.1141C50.5966 71.6341 51.0166 76.0941 50.8666 80.6041C50.9266 81.9841 50.8666 83.3841 50.9966 84.7541C51.2866 85.4241 50.2766 85.9741 49.9066 85.3041Z" fill="#00FCFF"/>
<path d="M47.057 84.8338C43.427 81.9338 40.7869 78.0638 38.0969 74.3338C36.0669 71.7838 34.3769 68.9738 32.7969 66.1338C31.2669 63.5038 29.967 60.7538 29.117 57.8238C27.257 51.5638 27.0369 45.0637 27.3369 38.6137C27.5169 35.1937 28.2069 31.8638 29.2969 28.6238C30.4069 24.5038 32.2469 20.6737 34.5669 17.1037C35.3869 15.7137 36.3369 14.4138 37.3969 13.2038C38.8369 11.5538 40.2069 9.76377 42.1569 8.69377C43.0769 8.16377 43.9469 7.55376 44.8569 7.00376C45.3469 6.73376 46.287 6.74378 46.307 7.46378C46.307 7.77378 46.0769 8.02377 45.7769 8.07377C44.5369 8.71377 43.3969 9.68376 42.1569 10.3738C40.0269 12.0638 38.397 14.2837 36.747 16.4137C34.727 19.6537 32.6869 22.8838 31.5169 26.5138C29.6569 31.7338 28.5769 37.2138 28.7569 42.7438C28.6569 51.1938 30.2469 59.3537 34.8269 66.5537C36.2669 69.0337 37.8069 71.4938 39.5769 73.7538C40.9569 75.6438 42.1769 77.6538 43.7569 79.3938C45.0069 81.0138 46.4269 82.4538 47.9469 83.8238C48.5269 84.3738 47.727 85.3638 47.057 84.8338Z" fill="#00FCFF"/>
<path d="M68.9568 33.1538C68.8168 32.5438 68.9468 31.9138 68.8268 31.3038C68.6568 30.5338 68.3068 29.8138 67.9568 29.1138C67.1068 27.3938 66.3468 25.6338 65.3968 23.9638C64.7468 22.5438 64.0868 21.3438 63.4768 19.9638C63.0568 18.9138 62.6868 17.8438 62.0768 16.8838C60.7768 15.2838 59.6968 13.5338 58.4668 11.8838C57.6268 10.9238 56.5468 10.2438 55.4368 9.64381C54.9768 9.38381 54.5168 9.18379 54.1368 8.87379C53.8068 8.55379 53.9568 7.93381 54.4168 7.83381C54.7468 7.74381 55.0668 7.91377 55.3668 8.04377C56.8568 8.69377 58.3068 9.4838 59.4068 10.6938C60.2068 11.5438 60.7968 12.5638 61.4368 13.5438C62.1868 14.6538 63.1768 15.5938 63.7868 16.7938C65.6568 21.3138 67.9968 25.6538 69.9168 30.1338C70.1768 30.9438 70.7168 33.4638 69.6568 33.6438C69.3568 33.6738 69.0268 33.4638 68.9568 33.1538Z" fill="#00FCFF"/>
<path d="M52.5967 85.2847C51.7967 84.0947 54.7167 83.4446 55.3367 82.8546C56.9167 81.9046 58.3067 80.7147 59.5467 79.3347C60.7167 77.7847 62.0267 76.3747 63.4067 75.0147C65.0567 73.2147 66.1867 71.0247 67.6567 69.0847C71.3867 63.6447 70.7867 56.9046 70.7767 50.6646C70.7667 49.2446 70.6367 48.0447 70.5067 46.6747C70.5167 45.8847 70.0967 44.8046 70.7967 44.2246C71.2167 43.9646 71.7967 44.3047 71.7867 44.7847C71.8467 46.3647 72.1967 47.9046 72.2767 49.4846C72.3467 55.6646 73.0467 62.2847 70.1167 67.9647C69.4567 69.3347 68.5267 70.5447 67.6467 71.7747C66.9667 72.8147 66.3667 73.9047 65.5467 74.8447C64.6167 76.0747 63.3767 77.1146 62.3667 78.2246C60.5267 80.7346 58.2667 82.8547 55.5567 84.3947C54.8867 84.7847 54.1467 85.0347 53.5067 85.4547C53.1967 85.6247 52.8067 85.5547 52.5967 85.2847Z" fill="#00FCFF"/>
<path d="M9.80686 63.364C4.48686 62.194 4.88685 53.814 10.1068 52.864C10.5768 52.564 11.1668 52.7241 11.6568 52.8841C12.8668 53.2041 14.0469 53.8141 14.8069 54.8341C17.4969 58.2241 14.2369 64.354 9.80686 63.364ZM10.9269 61.7641C13.3169 61.5141 14.6769 58.6641 13.9369 56.5141C13.4169 55.1441 11.9469 54.434 10.6169 54.164C8.28686 54.804 6.83681 57.724 7.94681 59.934C8.52681 61.034 9.63686 61.8541 10.9269 61.7641Z" fill="#FF00BF"/>
<path d="M47.9771 24.0845C47.9571 24.0845 47.9371 24.0845 47.9071 24.0845C42.9871 23.9545 43.1971 18.0045 46.9071 16.0345C47.5571 15.6445 48.4371 15.2045 49.1571 15.6445C50.4971 15.5345 51.7171 16.3444 52.4271 17.4344C54.5471 20.8044 52.0371 24.9345 47.9771 24.0845ZM49.7671 22.5045C52.0371 21.9445 52.0971 18.5644 50.2671 17.4144C49.7571 17.0744 49.0771 17.1544 48.6171 16.8544C46.5971 17.5644 44.2871 20.8544 46.9271 22.2344C47.8571 22.4644 48.8171 22.4845 49.7671 22.5045Z" fill="#FF00BF"/>
<path d="M67.8468 41.8937C63.8568 40.4837 64.9168 35.5937 68.2268 34.0337C68.9368 33.7637 69.8467 32.9537 70.5767 33.5037C71.9367 33.1637 73.0667 34.3737 73.8267 35.3037C75.1667 36.9237 74.7967 39.5937 73.2567 40.9537C71.7967 42.1137 69.6168 42.3137 67.8468 41.8937ZM69.6868 40.3437C71.0368 40.3637 72.6567 40.0037 72.8867 38.4337C73.4567 36.7437 72.0168 35.2137 70.4968 34.7137C70.3668 34.8137 70.1867 34.8537 70.0167 34.8337C68.8467 35.4637 67.5968 36.2437 67.0568 37.5137C66.2968 39.3137 67.9868 40.5537 69.6868 40.3437Z" fill="#FF00BF"/>
<path d="M70.9871 46.5045C70.8571 45.7445 70.7971 45.0645 70.6671 44.3145C70.3171 44.6645 69.8271 44.3145 69.8371 43.8745C69.6671 43.6745 69.6272 43.3745 69.6172 43.1145C69.5472 42.9145 69.4971 42.6745 69.5771 42.4745C69.7071 42.1945 70.0071 42.0945 70.2971 42.0945C70.4871 42.0045 70.7171 41.9945 70.9271 42.0145C71.3871 42.0545 71.4971 42.6145 71.5671 42.9845C71.6871 44.0945 71.7971 45.2045 71.8571 46.3245C71.9171 46.8545 71.1171 47.0245 70.9871 46.5045Z" fill="#00FCFF"/>
<path d="M69.3367 43.0144C69.2667 42.6744 69.0967 42.2244 69.4667 42.0044C69.6667 41.8944 69.8967 41.9344 70.0367 42.1144C70.1867 42.3244 70.0967 42.6144 70.1867 42.8444C70.2667 43.3544 69.4767 43.5244 69.3367 43.0144Z" fill="#00FCFF"/>
<path d="M70.0269 46.314C69.6769 45.174 69.4269 43.914 69.3169 42.744C69.2169 42.364 69.5869 41.954 69.9669 42.174C70.1769 42.294 70.2269 42.5641 70.2869 42.7841C70.5469 43.8741 70.7569 44.9741 70.9569 46.0741C71.0369 46.6041 70.2269 46.824 70.0269 46.314Z" fill="#00FCFF"/>
<path d="M70.3367 43.8743C70.2467 43.4643 70.1867 43.0543 70.1367 42.6443C69.9867 42.6743 69.8167 42.6743 69.6867 42.5943C69.3367 42.4143 69.4067 41.8743 69.7667 41.7443C69.8867 41.6843 70.0467 41.7043 70.1267 41.5843C70.2667 41.2543 70.7767 41.2343 70.9367 41.5543C71.1867 42.2443 71.2867 43.0043 71.3467 43.7443C71.3767 44.3143 70.4667 44.4443 70.3367 43.8743Z" fill="#00FCFF"/>
<path d="M69.477 34.2842C68.917 34.1642 68.587 32.9842 69.147 32.7142C69.207 32.3142 68.967 31.9242 69.087 31.5342C68.867 30.9942 69.567 30.5442 69.907 31.0642C70.007 31.2342 70.067 31.4341 70.127 31.6141C70.247 32.2041 70.997 34.0042 70.217 34.2542C69.977 34.2842 69.727 34.3542 69.477 34.2842Z" fill="#00FCFF"/>
<path d="M48.837 31.4045C48.677 31.1845 48.657 30.9145 48.617 30.6545C48.587 30.5245 48.557 30.4044 48.537 30.2744C48.547 30.4144 48.547 30.5444 48.567 30.6844C48.807 31.1844 48.217 31.5444 47.847 31.2644C47.247 30.5344 47.367 29.4245 47.197 28.5345C47.217 26.9045 46.917 25.1044 47.617 23.5844C48.057 22.9444 48.687 23.5744 48.737 24.1444C49.237 26.2144 49.487 28.3644 49.637 30.4744C49.657 30.7044 49.727 30.9344 49.697 31.1744C49.657 31.5844 49.077 31.7445 48.837 31.4045Z" fill="#00FCFF"/>
<path d="M48.7269 16.2444C47.6069 15.8044 47.7269 14.2244 47.5169 13.2244C47.3569 11.4844 47.0969 9.7344 47.0469 8.0244C47.0269 7.5744 47.547 7.14439 47.927 7.51439C48.257 8.16439 48.317 9.8844 48.427 10.5844C48.467 9.8344 48.4269 9.1244 48.4869 8.3944C48.5069 8.1244 48.5369 7.73437 48.7269 7.55437C49.2469 7.00437 49.7169 7.66435 49.7069 8.22435C49.8969 9.67435 49.877 11.2544 49.747 12.6744C49.597 13.6544 49.9169 14.7744 49.3969 15.6544C49.3369 15.9644 49.0769 16.2944 48.7269 16.2444Z" fill="#00FCFF"/>
<path d="M41.7067 10.0641C40.9967 9.22406 43.7167 8.20405 44.3067 7.92405C45.1167 7.69405 45.8267 7.55409 46.6267 7.40409C47.0267 7.35409 47.5167 7.22407 47.8567 7.50407C48.2267 7.93407 47.7767 8.32405 47.3367 8.36405C46.7767 8.49405 46.2267 8.67407 45.6767 8.82407C45.1067 8.95407 44.5767 9.12408 44.0667 9.39408C43.8267 9.51408 43.5467 9.6841 43.2867 9.5341C42.7967 9.7041 42.1867 10.4541 41.7067 10.0641Z" fill="#00FCFF"/>
<path d="M63.5666 9.97421C63.3866 9.92421 63.2167 9.85425 63.0567 9.77425C59.5267 8.84425 55.9767 7.67422 52.3067 7.42422C50.0667 7.06422 47.9167 7.24421 45.6867 7.41421C43.8767 7.44421 42.0567 7.61422 40.2867 7.99422C38.7467 8.33422 37.1467 8.61423 35.6767 9.18423C35.1467 9.39423 33.7067 10.0642 33.9667 8.92422C35.2067 7.82422 37.0667 7.65421 38.6267 7.22421C40.8067 6.72421 42.9866 6.21423 45.2066 6.00423C49.0766 5.51423 53.0366 5.35422 56.8966 6.05422C58.3266 6.55422 59.7567 7.07423 61.1667 7.62423C62.1267 8.00423 62.9867 8.58425 63.9067 9.02425C64.5167 9.26425 64.2066 10.1842 63.5666 9.97421Z" fill="#00FCFF"/>
<path d="M17.3968 24.1238C16.8668 23.9838 16.1168 23.3238 16.8068 22.8738C16.8668 22.6038 17.2268 22.4237 17.4668 22.5437C17.8068 22.6337 17.9368 22.9438 18.2068 23.0538C19.0468 23.1938 18.7268 24.2638 17.9268 23.9938C17.7968 24.1338 17.5768 24.1938 17.3968 24.1238Z" fill="#00FCFF"/>
<path d="M29.257 29.1747C26.017 28.1047 22.7971 26.9147 19.6871 25.4947C18.6271 24.9947 17.207 24.8647 16.447 23.9147C16.237 23.5547 16.6371 23.1047 17.0271 23.2847C17.3771 23.5147 17.7571 23.6447 18.1571 23.7747C17.7471 23.4847 16.4971 22.9847 17.1871 22.4047C17.4971 22.1447 17.8571 22.4047 18.1271 22.5847C20.5771 23.6247 22.8271 25.0047 25.2271 26.1147C26.8371 26.8647 28.457 27.6347 30.067 28.3447C30.257 28.4047 30.4471 28.5047 30.4971 28.7047C30.6571 29.4347 29.687 29.3547 29.257 29.1747Z" fill="#00FCFF"/>
<path d="M18.6968 47.6846C17.4868 47.7146 16.2768 47.6246 15.0668 47.5546C13.4668 47.5146 11.8368 47.6946 10.2468 47.3546C9.26681 47.1346 9.42676 45.8046 10.3868 45.6946C11.2568 45.4546 12.0968 45.8746 12.9668 45.7846C16.0768 45.6446 19.2068 45.5946 22.3068 45.5346C23.9468 45.1746 25.5868 45.5046 27.2368 45.5446C27.5268 45.5346 27.8968 45.4646 28.1168 45.7146C28.1668 45.7946 28.2668 45.8246 28.3268 45.9046C29.3068 47.8146 19.8968 47.6546 18.6968 47.6846Z" fill="#00FCFF"/>
<path d="M17.3771 70.9846C16.6771 70.8446 16.7771 69.9646 17.1671 69.5446C17.9671 68.6146 19.2071 68.2446 20.2971 67.7246C22.6171 66.6746 25.0371 65.8446 27.3871 64.8746C28.6071 64.4346 29.7271 63.8546 30.9171 63.3646C31.3171 63.2246 31.8871 62.9146 32.2371 63.2946C32.4871 63.5446 32.3271 64.0047 31.9771 64.0247C31.8871 64.0247 31.8071 64.0646 31.7271 64.1046C31.8771 64.0746 32.0271 64.0646 32.1771 64.0546C32.8471 64.0046 32.8871 64.8546 32.2871 65.0446C30.5671 65.6246 28.7371 66.2447 27.0771 66.9647C24.7471 67.8347 22.6171 69.0146 20.3371 70.0046C19.3871 70.3646 18.4271 70.9846 17.3771 70.9846Z" fill="#00FCFF"/>
<path d="M16.977 70.6042C16.537 70.7742 16.287 70.2743 16.017 70.0143C14.137 68.1843 12.777 65.7543 11.917 63.2843C11.477 61.9343 12.657 61.5843 13.227 62.8143C13.917 64.4343 14.597 66.1143 15.657 67.5243C16.067 68.2043 16.737 68.6443 17.217 69.2543C17.407 69.5043 17.547 69.8142 17.817 69.9942C17.987 69.8642 18.097 69.6943 18.227 69.5243C18.457 69.2543 18.967 69.3343 19.037 69.7043C19.097 69.8943 18.977 70.0743 18.867 70.2143C18.477 70.9943 17.617 71.2842 16.977 70.6042Z" fill="#00FCFF"/>
<path d="M49.9871 86.0045C48.9871 85.8845 47.7071 85.6945 47.1971 84.7045C46.7471 84.2745 47.1071 83.5245 47.7071 83.8245C47.7471 83.8545 47.7871 83.8845 47.8271 83.9145C47.8371 83.9245 47.8471 83.9245 47.8471 83.9345C48.7271 84.0445 49.3371 84.9245 50.2471 84.8145C51.1671 84.8145 52.1071 84.4445 52.8871 84.0345C53.2771 83.8845 53.6971 83.6244 54.1271 83.7244C54.4271 83.8244 54.5571 84.1945 54.3571 84.4545C54.8171 85.5545 50.6471 86.1345 49.9071 86.0145C49.9171 86.0045 49.9871 86.0045 49.9871 86.0045Z" fill="#00FCFF"/>
<path d="M49.977 87.084C49.097 87.014 48.237 86.824 47.367 86.724C47.107 86.684 46.917 86.424 46.967 86.164C47.117 85.304 49.117 86.084 49.757 86.044C51.037 86.184 52.367 85.914 53.597 85.744C54.267 85.624 54.927 85.474 55.577 85.284C55.917 85.094 56.447 85.154 56.447 85.634C56.487 86.704 50.887 87.194 49.977 87.084Z" fill="#00FCFF"/>
<path d="M51.3066 87.1637C50.0466 87.1637 48.8166 86.9338 47.6066 86.5738C47.2166 86.4638 46.5566 86.5538 46.5566 85.9938C46.7466 85.0638 48.1966 85.7438 48.8266 85.7838C51.0366 86.2738 53.1866 86.0038 55.3366 85.4538C55.8466 85.1938 56.5066 85.5037 56.1266 86.1137C54.7266 86.9337 52.9166 87.0237 51.3066 87.1637Z" fill="#00FCFF"/>
<path d="M80.6068 70.8444C80.2168 70.7544 79.9168 70.6643 79.5868 70.4843C79.1268 70.2443 79.3268 69.5244 79.8468 69.5944C80.0468 69.4744 80.2868 69.5143 80.5068 69.4743C80.8468 69.4443 81.2668 69.3643 81.5168 69.6443C81.8568 69.9643 81.6468 70.5643 81.1568 70.4443C81.1568 70.7343 80.8668 70.9244 80.6068 70.8444Z" fill="#00FCFF"/>
<path d="M78.7368 23.7045C78.7068 23.3545 79.0368 23.1045 79.2768 22.9045C79.3568 22.8345 79.4367 22.7745 79.5167 22.7145C79.7167 22.3445 80.1168 22.1044 80.4068 21.8044C80.3668 21.6744 80.3568 21.5345 80.3568 21.3945C80.3568 21.3545 80.3668 21.3045 80.3768 21.2645C80.1868 20.8645 80.6668 20.4745 81.0368 20.6945C81.4068 20.8645 81.5268 21.2844 81.5368 21.6644C82.0968 21.3944 82.5668 22.3245 82.0568 22.6345C81.3668 23.0845 80.6268 23.5045 79.8668 23.8245C79.4968 24.0445 78.8568 24.3345 78.7368 23.7045Z" fill="#00FCFF"/>
<path d="M77.5767 24.8347C77.0667 24.1247 78.4467 23.6247 78.7867 23.2147C79.4367 22.7147 80.0467 22.1847 80.5067 21.5147C80.9567 21.0047 81.7367 21.6146 81.1867 22.1146C80.7267 23.0346 79.8067 23.5846 79.0667 24.2346C78.6367 24.4846 78.0967 25.3147 77.5767 24.8347Z" fill="#00FCFF"/>
<path d="M68.5368 34.9543C67.2468 34.3043 69.4767 33.4442 70.0767 33.3642C70.8067 33.2442 71.8268 33.4242 72.1568 34.1642C72.2068 34.9742 71.4068 34.6143 70.9268 34.5743C70.5368 34.5243 70.1368 34.5942 69.7768 34.7342C69.5168 34.8542 69.2167 35.0442 68.9467 34.8742C68.8267 34.9242 68.6868 34.9843 68.5368 34.9543Z" fill="#FF00BF"/>
<path d="M69.017 42.104C67.377 41.494 66.217 40.374 66.287 38.524C65.877 34.914 70.457 33.094 73.177 34.974C73.747 35.454 73.077 36.274 72.577 35.674C71.767 35.424 70.857 35.044 70.007 35.254C68.667 35.554 67.307 36.644 67.377 38.114C67.337 39.174 67.637 40.294 68.677 40.774C69.487 40.554 70.307 40.974 71.107 40.644C71.587 40.534 72.027 40.094 72.527 40.254C73.877 41.364 69.767 42.584 69.017 42.104Z" fill="#FF00BF"/>
<path d="M68.587 42.1141C67.777 41.9541 66.867 41.6741 66.397 40.9341C66.167 40.6941 66.167 40.2242 66.487 40.0942C66.877 39.8742 67.117 40.2941 67.357 40.5141C67.967 40.9641 68.737 41.2141 69.497 41.1041C70.207 41.0841 70.857 40.7441 71.497 40.4741C71.687 40.3941 71.927 40.4741 72.037 40.6441C72.427 41.2941 71.387 41.6042 70.987 41.7742C70.247 42.1142 69.397 42.2441 68.587 42.1141Z" fill="#FF00BF"/>
<path d="M70.2369 42.3045C69.6369 42.2445 67.2868 41.7146 67.7668 40.8246C68.1168 40.3246 68.6569 40.8446 69.0469 41.0146C69.9669 41.4046 70.9468 41.4045 71.8368 40.9245C72.1868 40.7645 72.5368 40.5446 72.7668 40.2646C73.1068 39.7946 73.4768 38.5546 74.1968 39.0946C74.3368 39.2746 74.3568 39.4945 74.2068 39.6645C73.8368 40.3245 73.5168 41.0745 72.8468 41.4945C72.0268 41.9745 71.1869 42.3045 70.2369 42.3045Z" fill="#FF00BF"/>
<path d="M68.5169 42.344C67.8769 42.154 67.2569 41.884 66.8469 41.324C66.4969 41.004 66.4669 40.354 67.0469 40.334C67.4569 40.374 67.5669 40.874 67.8969 41.064C68.7169 41.544 69.6869 41.664 70.5969 41.374C71.1469 41.194 71.7369 41.004 72.1569 40.584C72.3169 40.384 72.5969 40.314 72.8169 40.454C73.5369 41.084 72.3369 41.7539 71.8069 41.9839C70.7869 42.4239 69.5969 42.704 68.5169 42.344Z" fill="#FF00BF"/>
<path d="M66.417 39.6238C65.987 39.3038 65.827 38.6538 65.797 38.1738C65.597 37.3238 65.707 36.4238 66.127 35.6638C66.997 33.9738 69.1269 32.9738 70.9669 33.3338C71.9269 33.5838 73.0269 34.0339 73.4669 34.9639C73.6569 35.5639 72.747 35.9539 72.597 35.2739C71.917 34.7039 71.067 34.2638 70.177 34.2538C68.697 34.4238 67.1869 35.2539 66.8269 36.7739C66.7169 37.5239 66.787 38.3538 67.167 39.0138C67.407 39.4838 66.817 39.9638 66.417 39.6238Z" fill="#FF00BF"/>
<path d="M48.027 24.1144C47.397 24.1044 46.607 23.9544 46.277 23.3544C45.857 23.1644 45.607 22.5544 46.027 22.2344C46.027 22.2344 46.027 22.2344 46.027 22.2444C45.367 21.2944 44.8769 19.9944 45.3169 18.8544C45.0269 18.5444 45.297 18.1744 45.377 17.8444C45.427 16.9244 46.277 16.4144 47.017 16.0244C48.4369 14.8344 50.587 15.2844 51.797 16.5544C52.657 17.3744 53.2269 18.5944 52.8269 19.7744C52.7669 19.9344 52.747 20.0844 52.797 20.2444C52.877 20.7244 52.647 21.1744 52.457 21.5944C51.917 22.5344 51.1269 23.5344 50.0669 23.8644C49.3669 24.0244 48.737 24.1844 48.027 24.1144ZM48.987 22.0644C49.517 22.0744 49.977 21.8244 50.367 21.4844C50.717 21.2544 51.127 20.8843 51.237 20.4743C51.517 19.2543 50.557 17.9244 49.417 17.5744C47.907 17.3144 46.037 18.7844 46.627 20.3644C46.737 20.7544 46.837 21.1244 47.057 21.4644C47.687 21.8244 48.277 22.0944 48.987 22.0644Z" fill="#FF00BF"/>
<path d="M69.8071 41.3041C68.5571 41.0241 67.227 40.1541 66.787 38.9041C65.367 38.2341 66.747 36.0241 67.657 35.4241C68.987 34.1441 71.9271 33.6141 72.9171 35.5241C73.6671 36.1541 73.8071 37.2141 73.8771 38.1341C73.9171 40.2441 71.7571 41.5341 69.8071 41.3041ZM70.5571 40.0741C71.3071 40.0341 72.1971 39.6641 72.4971 38.9341C72.7871 37.5441 72.347 35.9041 70.697 35.7841C68.837 35.4841 66.777 37.2841 68.217 39.0341C68.887 39.5841 69.6471 40.1941 70.5571 40.0741Z" fill="#FF00BF"/>
<g filter="url(#filter1_d_24_3540)">
<path d="M11.0267 63.0738C9.91667 62.7038 8.61666 62.3138 7.94666 61.2638C7.38666 60.0438 6.85668 58.8638 6.84668 57.5438C6.90668 56.6038 7.40667 55.6938 8.02667 54.9938C7.23667 54.3238 8.45667 53.5038 9.02667 53.1938C10.9567 51.9038 13.4267 53.2739 14.7467 54.8339C16.4867 57.0939 15.9467 60.7239 13.6367 62.3939C13.1067 62.9039 11.6467 63.7038 11.0267 63.0738ZM10.7967 60.7938C12.8567 60.9138 13.8567 58.7938 13.2367 57.0138C12.8767 56.2638 12.4667 55.1639 11.4867 55.1539C9.41669 55.0139 8.28668 56.5438 8.53668 58.5038C8.96668 59.4638 9.58669 60.7738 10.7967 60.7938Z" fill="#FF00BF"/>
</g>
</g>
<defs>
<filter id="filter0_d_24_3540" x="0" y="0.582031" width="97.064" height="93.582" filterUnits="userSpaceOnUse" color-interpolation-filters="sRGB">
<feFlood flood-opacity="0" result="BackgroundImageFix"/>
<feColorMatrix in="SourceAlpha" type="matrix" values="0 0 0 0 0 0 0 0 0 0 0 0 0 0 0 0 0 0 127 0" result="hardAlpha"/>
<feOffset dy="1"/>
<feGaussianBlur stdDeviation="3"/>
<feComposite in2="hardAlpha" operator="out"/>
<feColorMatrix type="matrix" values="0 0 0 0 0 0 0 0 0 0.988235 0 0 0 0 1 0 0 0 1 0"/>
<feBlend mode="normal" in2="BackgroundImageFix" result="effect1_dropShadow_24_3540"/>
<feBlend mode="normal" in="SourceGraphic" in2="effect1_dropShadow_24_3540" result="shape"/>
</filter>
<filter id="filter1_d_24_3540" x="2.84668" y="52.6816" width="16.9263" height="18.624" filterUnits="userSpaceOnUse" color-interpolation-filters="sRGB">
<feFlood flood-opacity="0" result="BackgroundImageFix"/>
<feColorMatrix in="SourceAlpha" type="matrix" values="0 0 0 0 0 0 0 0 0 0 0 0 0 0 0 0 0 0 127 0" result="hardAlpha"/>
<feOffset dy="4"/>
<feGaussianBlur stdDeviation="2"/>
<feComposite in2="hardAlpha" operator="out"/>
<feColorMatrix type="matrix" values="0 0 0 0 0 0 0 0 0 0 0 0 0 0 0 0 0 0 0.25 0"/>
<feBlend mode="normal" in2="BackgroundImageFix" result="effect1_dropShadow_24_3540"/>
<feBlend mode="normal" in="SourceGraphic" in2="effect1_dropShadow_24_3540" result="shape"/>
</filter>
</defs>
</svg>
