<svg width="61" height="7" viewBox="0 0 61 7" fill="none" xmlns="http://www.w3.org/2000/svg">
<path d="M0.222278 6.02153C-1.12844 4.26168 15.3123 1.94009 17.0451 1.54098C22.7828 0.860089 28.537 0.135688 34.4022 0.378982C36.9959 0.452053 39.6623 0.905629 42.2346 1.14753C46.4713 1.75099 50.6745 2.70489 54.9082 3.29911C56.0628 3.48511 57.2133 3.73665 58.3611 3.94903C58.9596 4.09924 59.6328 4.08821 60.1782 4.4195C60.5173 4.66421 60.3548 5.21316 59.949 5.21723C57.668 5.05724 55.2777 4.43571 53.0231 4.20013C45.6436 3.02431 38.2504 1.50896 30.8284 1.6739C27.3372 1.67345 23.9051 2.13621 20.462 2.48722C15.415 3.03881 10.5138 3.92926 5.59229 4.91381C4.47843 5.1505 3.35531 5.37444 2.31747 5.78233C1.68328 5.9135 0.717806 6.73181 0.222278 6.02153Z" fill="url(#paint0_linear_4_4)"/>
<defs>
<linearGradient id="paint0_linear_4_4" x1="60.5" y1="5" x2="1" y2="6" gradientUnits="userSpaceOnUse">
<stop offset="0.336804" stop-color="#470F6C" stop-opacity="0.91"/>
<stop offset="0.480303" stop-color="#E859ED" stop-opacity="0.88"/>
</linearGradient>
</defs>
</svg>
