<svg width="164" height="72" viewBox="0 0 164 72" fill="none" xmlns="http://www.w3.org/2000/svg">
<path d="M1.55145 33.0803C3.57145 32.8903 5.77144 33.2703 7.72144 33.4903C17.3514 33.6703 26.9914 33.3403 36.6114 32.9503C39.9714 32.8703 43.3314 32.9703 46.6614 33.3403C49.0514 33.4203 56.1614 35.1603 57.3814 33.0703H57.3914C57.4014 28.3503 53.6714 23.8603 55.3814 19.0503C56.2414 16.2403 58.4814 13.7603 61.4114 13.1303C64.5614 12.4003 68.1714 14.1303 69.0514 17.3503C70.0214 20.3403 69.9714 23.5703 69.6214 26.6603C69.1914 30.5103 67.9714 34.0003 68.0214 37.8503C68.2714 43.5203 66.9914 57.2803 76.4814 51.3503C87.0314 43.0703 77.9114 26.7703 78.5614 15.7003C78.6314 11.7403 79.2214 7.59029 81.5214 4.27029C83.8414 0.680294 87.4214 -0.659702 91.4014 1.1803C95.4614 2.9703 98.8714 6.6103 100.131 10.9003C100.781 13.3003 100.551 15.8303 100.611 18.2903C100.591 21.8703 100.831 25.4503 100.641 29.0203C99.8614 39.1603 95.9814 57.0203 104.131 64.7903C106.571 66.8403 109.371 69.2103 112.721 69.2003C114.311 69.0503 115.531 67.7903 116.441 66.6103C118.181 64.2203 119.701 61.6003 120.531 58.7503C121.131 56.4903 120.781 54.1303 120.821 51.8303C120.861 48.5103 120.781 45.1803 120.871 41.8703C121.151 39.0903 120.671 34.4603 124.291 33.8703C128.361 33.2603 132.511 33.6103 136.611 33.3703C145.181 32.9003 153.761 33.2003 162.341 32.8603C162.851 32.8803 163.481 32.8703 163.831 33.3003C164.271 33.8803 163.491 34.7103 162.881 34.2903C158.611 34.4503 154.441 34.8303 150.181 34.7803C144.431 34.6803 138.701 34.9603 132.971 35.1703C130.711 35.2303 128.451 35.1403 126.191 35.2403C125.381 35.3503 124.451 35.3303 123.751 35.7903C123.041 36.5603 123.051 37.7103 122.891 38.6903C122.681 40.8303 122.651 42.9803 122.661 45.1303C122.701 47.6803 122.721 50.2303 122.751 52.7803C122.821 55.2503 123.001 57.7803 122.151 60.1503C117.901 70.7603 113.111 75.1603 103.241 66.5903C96.3414 60.3503 96.8814 50.0203 97.3114 41.4903C97.5314 36.9103 98.6014 32.4203 98.7314 27.8303C98.8014 24.6003 98.6214 21.3703 98.6314 18.1403C98.6014 15.1703 98.9414 12.0203 97.4814 9.30029C94.9514 4.40029 87.1614 -1.4797 83.2014 5.1803C81.0314 8.4203 80.6014 12.3203 80.6014 16.1203C80.5414 25.2903 84.8914 34.1403 83.3814 43.3403C82.7714 47.3403 80.6014 51.2803 77.0514 53.3703C74.0514 55.1003 70.1614 55.6603 68.0514 52.3203C65.7114 48.4203 66.1814 43.6003 65.9114 39.2203C65.5814 34.0803 67.5814 29.1903 67.8214 24.1003C67.8214 21.4103 68.0114 18.0103 66.0814 15.9103C64.2014 14.2703 61.2014 14.5103 59.4014 16.1503C55.1714 20.0903 57.4814 24.7103 58.7814 29.3503C60.3414 34.5603 58.1314 36.1903 53.0814 35.9303C48.1014 35.6103 43.1714 34.7503 38.1614 34.8403C28.4014 35.0303 18.6414 35.3903 8.88144 35.1403C6.43144 35.0303 4.01145 34.5003 1.55145 34.5603C1.14145 34.5503 0.801453 34.2303 0.801453 33.8103C0.801453 33.4003 1.14145 33.1103 1.55145 33.0803Z" fill="url(#paint0_linear_3_283)"/>
<defs>
<linearGradient id="paint0_linear_3_283" x1="163.96" y1="35.7386" x2="19.2617" y2="35.4771" gradientUnits="userSpaceOnUse">
<stop offset="0.400004" stop-color="#6D386E" stop-opacity="0.83"/>
<stop offset="1" stop-color="#2E2B3F" stop-opacity="0"/>
</linearGradient>
</defs>
</svg>
