<svg width="79" height="191" viewBox="0 0 79 191" fill="none" xmlns="http://www.w3.org/2000/svg">
<path d="M46.4909 80.5344C36.8399 80.664 27.0332 80.8843 17.6157 83.1647C14.0096 83.9421 10.6239 85.471 7.75718 87.8032C5.59089 89.5265 4.17697 91.2109 4.47532 94.1391C4.59206 105.14 22.2466 107.355 30.6524 107.99C35.5816 108.469 40.5239 107.977 45.4402 107.562C50.3954 107.044 55.3376 106.189 60.1242 104.764C64.1455 103.675 76.1833 98.9591 77.9215 95.4607C80.0748 90.6408 75.7682 85.6005 71.5005 83.7607C66.9085 82.0892 62.07 81.0786 57.1667 81.1563C53.5865 81.0527 50.0582 80.4567 46.4909 80.5344ZM48.6442 83.4238C52.0298 83.6052 55.3766 84.1105 58.7752 83.9032C62.8353 83.955 66.8177 85.0175 70.6703 86.2484C73.7576 87.6218 77.247 91.0165 75.846 94.6574C75.0158 96.2122 73.1998 96.7953 71.7599 97.6504C62.4721 102.354 52.406 104.725 42.0805 105.308C36.0616 105.969 30.0427 105.425 24.0497 104.803C18.0308 103.624 10.6499 102.419 7.21234 96.7694C6.64159 95.2793 6.65458 93.4265 6.99185 91.9235C8.40577 89.9152 10.6758 88.6843 12.7124 87.3756C15.0344 86.2225 17.5638 85.756 20.0674 85.2507C23.6087 84.3696 27.2408 84.2012 30.8599 83.942C36.788 83.67 42.742 83.4108 48.6442 83.4238Z" fill="#D6FF00"/>
<path d="M29.8611 65.2711C21.3905 65.6209 12.5048 67.8754 5.77246 73.2006C4.9293 74.0947 4.43638 75.2219 3.91751 76.3233C3.32081 77.4505 2.94461 78.7332 3.29485 79.99C4.37151 85.2635 9.72885 87.6734 14.0744 89.902C18.7053 91.9492 23.6735 93.3615 28.6417 94.3073C32.4424 94.7867 36.2561 95.2014 40.0958 95.2402C43.9354 95.0848 47.7881 94.7738 51.5888 94.2555C58.373 93.1931 65.1573 91.5994 71.1632 88.1658C72.0583 87.5698 73.4592 87.3495 73.8613 86.2611C76.0276 84.6545 79.2446 82.6851 78.9852 79.6272C78.4663 73.8744 72.5382 70.985 67.8035 68.9897C64.3011 67.8754 60.669 67.1498 57.0629 66.489C54.4685 66.0355 51.8871 65.4395 49.2409 65.3877C42.781 65.271 36.321 64.7528 29.8611 65.2711ZM27.8764 68.3289C30.6134 68.29 33.3375 68.1086 36.0745 68.1086C40.2125 68.1215 44.3375 68.575 48.4885 68.3936C52.0947 68.3807 55.61 69.2618 59.1513 69.8319C62.1348 70.5574 65.2091 70.8813 67.9981 72.0345C70.7481 73.3561 73.9002 74.6907 75.7033 77.2043C76.3649 78.3316 77.1821 79.9123 76.4297 81.1691C75.1455 82.7628 73.4981 84.0455 71.734 85.0691C71.4486 85.2505 71.3059 85.5615 71.2929 85.8854C68.1667 87.2718 64.9368 88.6322 61.7327 89.617C58.3212 90.4721 54.6371 91.1459 51.2126 91.6771C43.7668 92.7136 36.2432 92.7007 28.7974 91.6382C22.6098 90.3685 6.56376 86.3648 5.62979 79.1478C5.53899 78.3704 6.12271 77.7355 6.43404 77.0747C7.03074 75.6754 8.00361 74.587 9.37862 73.9392C12.5308 71.8661 16.2926 70.5315 19.795 69.5598C22.4542 68.9378 25.1393 68.2641 27.8764 68.3289Z" fill="#D6FF00"/>
<path d="M44.2727 51.1226C37.6182 51.4336 30.9118 51.1744 24.2962 52.1073C18.4199 53.2994 12.44 54.8412 7.16045 57.7047C4.37152 59.3631 3.45052 62.8745 3.99533 65.9193C4.55312 67.9795 6.49887 69.1844 8.276 70.0914C9.31375 70.5319 11.506 71.8924 12.0249 70.3247C12.1676 69.7546 11.6746 69.314 11.1817 69.1845C9.93642 68.6014 8.66516 68.0443 7.54959 67.215C6.07081 66.1267 5.78543 64.9475 6.13567 63.1725C6.23944 61.0346 7.92577 59.5834 9.81965 58.8578C15.0473 56.7459 20.4046 55.1392 25.9436 54.2841C32.1311 53.6751 38.4095 53.8824 44.623 53.6362C53.5086 53.7269 62.6277 54.7764 70.774 58.508C72.4344 59.4798 73.7446 60.9309 75.1585 62.2007C75.8849 62.9263 76.5854 63.7555 76.7411 64.805C77.0135 67.8369 74.8861 70.6097 72.188 71.6722C71.8767 72.009 71.9545 72.5662 72.3177 72.8383C73.2257 73.6157 74.5099 72.6958 75.3012 72.1516C77.7788 70.5061 79.1538 67.3964 78.8165 64.4681C78.2458 61.4233 75.4568 59.5186 73.3295 57.5103C65.741 52.5349 53.2362 51.1356 44.2727 51.1226Z" fill="#D6FF00"/>
<path d="M40.7315 38.4118C33.9991 38.9041 27.163 38.4765 20.5214 39.9277C18.3551 40.3294 16.2278 40.8995 14.1263 41.5603C11.9471 42.2211 9.69 42.7523 7.80909 44.0998C5.86333 45.3307 4.00834 47.0799 3.73593 49.4899C3.45056 51.848 3.95648 54.6985 6.31735 55.8258C9.15816 57.4195 12.6216 57.5491 15.5792 56.3959C16.6299 56.1627 16.4094 54.6208 15.3457 54.6726C14.723 54.7244 14.1004 54.854 13.5037 55.0613C12.7254 55.3075 11.8822 55.2557 11.091 55.1261C9.33976 54.9836 7.45883 54.4135 6.33029 53.0012C4.95528 49.5028 6.65459 47.339 9.66405 45.6417C14.269 43.75 19.2502 42.6357 24.1276 41.8583C28.525 41.4048 32.9613 41.3918 37.3717 41.2622C43.0534 40.7958 48.761 40.6015 54.4426 41.2234C59.3978 42.1433 64.5995 42.9855 69.2953 44.7865C71.7729 46.0433 75.1067 46.9892 76.2222 49.7749C76.4428 51.8739 75.7682 54.5042 73.8873 55.6962C72.5123 56.5773 70.9168 55.9424 69.451 55.6573C69.0229 55.5796 68.5819 55.4889 68.1538 55.4759C67.3495 55.3852 66.9993 56.5255 67.6609 56.9271C69.8142 57.7305 72.2658 58.6633 74.471 57.6397C77.4027 56.2663 78.6739 52.5218 78.3107 49.4769C77.8178 47.1965 75.8331 45.6417 73.8873 44.5663C69.9569 42.1693 65.4686 41.055 61.0193 40.0702C54.4037 38.3858 47.5287 38.1656 40.7315 38.4118Z" fill="#D6FF00"/>
<path d="M20.3268 25.8952C17.3433 26.2839 14.4247 26.9188 11.5709 27.8517C9.08032 28.5514 6.60269 29.4454 4.78665 31.376C-0.440982 35.6388 0.0649366 42.8557 7.23833 44.3069C10.0013 44.6567 12.8292 43.9052 15.4235 43.0112C16.0721 42.7002 16.0332 41.6896 15.3457 41.4693C12.9719 41.5212 10.598 42.5318 8.1723 42.3375C3.39869 41.5989 2.07556 37.4009 5.33148 33.9414C6.26545 33.0603 7.16051 32.1015 8.26311 31.4278C9.52137 30.8317 10.8834 30.456 12.1936 29.9766C15.9294 28.7198 19.808 27.9554 23.7384 27.7351C24.2054 27.6962 24.5816 27.3334 24.6205 26.867C24.6335 25.1307 21.2868 25.8822 20.1712 25.9211C20.1842 25.9211 20.3268 25.8952 20.3268 25.8952Z" fill="#D6FF00"/>
<path d="M38.5522 20.1297C38.4484 21.5161 37.1902 22.164 36.2173 22.9414C33.8045 24.6905 30.9248 25.1829 28.0321 25.1958C26.6441 25.3254 25.2821 25.5716 23.9071 25.7141C23.1288 25.8825 22.2207 25.7919 21.5462 26.2583C20.9625 26.7118 21.3387 27.7354 22.0781 27.7095C25.2432 27.554 28.4213 27.1653 31.5215 26.8025C34.5699 26.2454 37.4755 24.6387 39.577 22.3713C40.018 21.5679 40.8742 19.8447 39.59 19.443C39.11 19.3653 38.656 19.6762 38.5522 20.1297Z" fill="#D6FF00"/>
<path d="M45.2793 7.80256C44.0729 8.00987 44.475 9.44808 44.3842 10.3162C44.2805 12.2986 44.2156 14.2421 43.8524 16.1856C42.4514 21.1093 38.7804 19.982 36.3287 16.5225C35.2521 14.7734 34.7332 12.7132 34.357 10.7049C34.8629 9.92747 33.903 9.09825 33.1636 9.59061C31.3087 10.7697 33.6306 16.7039 34.7721 18.0773C37.587 22.1976 42.6071 23.7136 45.383 18.6734C46.304 16.8335 46.317 14.7345 46.4467 12.7262C46.33 11.5212 47.1861 7.64708 45.2793 7.80256Z" fill="#FF7A00"/>
<path d="M27.3134 0.261816C27.041 0.572781 26.9632 0.948538 27.0151 1.36316C27.1837 2.74954 27.6766 4.07112 28.2344 5.35385C29.0776 8.16549 31.1531 10.4589 34.0458 11.2104C36.7828 12.1433 39.7923 12.3635 42.5682 11.4825C44.047 11.0419 45.6815 10.6403 46.7322 9.40935C48.5093 7.20669 50.2086 4.69309 50.5718 1.82963C50.9221 0.715335 49.7546 -0.373067 48.7947 0.508C48.0683 1.54455 47.731 2.81431 47.1732 3.94156C46.3171 5.39273 45.5517 6.8439 44.3194 7.95819C40.83 9.83694 36.6401 9.78511 33.047 8.16551C31.4384 7.43992 30.8418 5.74258 30.1932 4.23958C29.7521 3.22895 29.337 2.20534 29.0127 1.14287C29.2852 0.235893 27.8972 -0.37307 27.3134 0.261816Z" fill="#FF7A00"/>
<path d="M16.0592 39.6039C13.1665 39.6169 13.1146 44.398 15.9035 44.6183C19.0686 44.8256 19.2243 39.591 16.0592 39.6039Z" fill="#9A00FF"/>
<path d="M34.946 37.4531C32.5982 38.5415 34.1678 42.9468 36.6972 41.8325C39.1489 40.783 37.4496 36.3648 34.946 37.4531Z" fill="#9A00FF"/>
<path d="M51.9002 38.0103C49.8377 39.6688 51.6148 43.0246 54.0405 41.2754C56.2717 39.7206 54.2092 36.2481 51.9002 38.0103Z" fill="#9A00FF"/>
<path d="M66.7269 41.3143C65.8578 42.312 66.3767 43.9445 67.3366 44.6442C68.1538 44.9811 69.2564 44.5405 69.6845 43.802C70.7741 41.8196 68.4651 39.5262 66.7269 41.3143Z" fill="#9A00FF"/>
<path d="M14.2042 54.2582C12.4919 55.3077 14.0745 58.6635 15.9554 57.5622C17.7325 56.4738 16.1629 53.0921 14.2042 54.2582Z" fill="#9A00FF"/>
<path d="M35.9319 50.5395C33.8435 50.8764 33.8305 54.5821 36.0616 54.595C37.2291 54.5302 37.9685 53.2475 38.0204 52.198C37.9814 51.1485 36.9697 50.3063 35.9319 50.5395Z" fill="#9A00FF"/>
<path d="M50.8884 51.0967C48.6702 51.1485 49.6301 54.7116 51.4851 54.5173C54.0405 54.3359 53.379 50.2545 50.8884 51.0967Z" fill="#9A00FF"/>
<path d="M64.6774 53.6362C63.8731 54.0249 63.6137 55.1392 64.0547 55.8907C64.1455 56.7588 65.0536 57.3678 65.8578 56.8755C68.3873 56.1499 67.2198 52.6126 64.6774 53.6362Z" fill="#9A00FF"/>
<path d="M76.1314 61.0216C74.7694 61.3974 74.5748 63.8074 76.2871 63.5741C77.5972 64.0924 78.9334 62.5506 77.9605 61.4104C77.5194 60.8662 76.7411 60.5682 76.1314 61.0216Z" fill="#9A00FF"/>
<path d="M76.6114 76.8549C75.5866 77.3213 75.1715 79.1094 76.4039 79.5758C76.9098 79.7443 77.4935 79.9127 77.9734 79.5888C79.5041 78.63 78.3496 76.0257 76.6114 76.8549Z" fill="#9A00FF"/>
<path d="M76.0147 92.1699C75.3142 93.1417 76.1833 94.0875 77.1821 94.243C77.9605 94.3078 78.5572 93.634 78.5831 92.8955C78.635 91.3666 76.8189 90.9001 76.0147 92.1699Z" fill="#9A00FF"/>
<path d="M4.13809 78.6429C3.77488 79.4592 4.37159 81.027 5.44825 80.5735C5.85037 80.2755 6.44708 79.9775 6.38222 79.3815C6.3433 79.0446 6.16168 78.7596 5.8763 78.617C5.51309 77.9822 4.48832 77.9562 4.13809 78.6429Z" fill="#9A00FF"/>
<path d="M3.67113 78.4227C2.82796 79.0835 3.06145 80.6513 4.15108 80.8975C4.56618 80.9493 4.94238 81.1566 5.3445 80.9881C6.05795 80.8974 6.66762 80.1848 6.07092 79.5758C6.14875 78.4227 4.54024 77.6064 3.67113 78.4227Z" fill="#9A00FF"/>
<path d="M5.78552 63.0947C4.82561 63.2373 4.2159 63.7685 4.2159 64.7791C4.31968 65.4011 4.8645 66.1267 5.56498 65.9971C6.17465 65.7509 6.82326 65.3233 7.0827 64.6884C7.41996 63.8722 6.6676 62.9004 5.78552 63.0947Z" fill="#9A00FF"/>
<path d="M5.1888 49.8528C4.25483 49.9953 3.55439 50.993 3.80085 51.9129C3.96948 52.6126 4.90343 53.1568 5.43527 52.496C6.81028 52.0814 6.86216 49.7103 5.1888 49.8528Z" fill="#9A00FF"/>
<path d="M3.03552 37.5438C1.91995 37.9196 1.47887 39.7076 2.34798 40.5109C2.6593 40.7312 3.08741 40.7442 3.39873 40.5109C3.89166 40.4332 4.35863 40.1093 4.64401 39.7206C5.53906 38.5286 4.30676 37.2328 3.03552 37.5438Z" fill="#9A00FF"/>
<path d="M23.6346 65.1031C21.8575 65.8027 22.4023 69.8971 24.6594 69.0808C26.3458 68.3422 25.7101 64.533 23.6346 65.1031Z" fill="#9A00FF"/>
<path d="M42.9237 65.103C42.6643 65.3751 42.5605 65.7379 42.5475 66.1007C42.314 66.5931 42.2102 67.1891 42.3659 67.7333C42.4826 68.7569 43.7668 69.4306 44.5062 68.5366C45.4532 68.1738 45.4921 66.9559 45.077 66.1784C45.077 65.0771 43.7798 64.1961 42.9237 65.103Z" fill="#9A00FF"/>
<path d="M61.5123 66.2821C60.5005 66.5154 59.9037 67.2539 60.1243 68.3163C60.0464 69.0937 60.3448 70.1951 61.2658 70.2987C61.6939 70.3117 62.1608 70.1303 62.3165 69.7157C63.3672 68.8605 63.2505 66.1007 61.5123 66.2821Z" fill="#9A00FF"/>
<path d="M26.1512 81.338C24.426 81.1177 24.6595 84.6808 26.2161 84.5513C28.1489 84.8104 27.9932 81.0659 26.1512 81.338Z" fill="#9A00FF"/>
<path d="M19.0038 89.2806C17.7844 89.8507 18.3292 92.5845 19.821 92.0922C20.8846 91.9885 21.5462 90.5114 20.8587 89.6692C20.6123 89.3842 20.2361 89.2287 19.8599 89.2546C19.5875 89.151 19.2762 89.151 19.0038 89.2806Z" fill="#9A00FF"/>
<path d="M38.0982 92.0663C37.6053 92.2866 37.3199 92.74 37.255 93.2324C37.0345 93.5693 37.0086 94.0616 37.255 94.3985C37.722 94.9816 38.6171 95.5257 39.2916 94.9556C40.7315 94.1005 39.8494 91.3537 38.0982 92.0663Z" fill="#9A00FF"/>
<path d="M39.3435 81.4676C38.2928 82.232 38.6819 83.7998 40.031 83.8128C42.34 83.6443 41.3152 79.835 39.3435 81.4676Z" fill="#9A00FF"/>
<path d="M39.9013 79.8998C38.4355 80.431 38.8376 83.3074 40.3553 83.5147C41.9768 83.6961 42.3789 81.1048 41.1855 80.3533C40.9001 79.9386 40.3683 79.7443 39.9013 79.8998Z" fill="#9A00FF"/>
<path d="M62.6538 81.338C61.9533 81.4287 61.3826 81.8044 61.3177 82.5818C61.3436 83.1131 61.2528 83.722 61.5512 84.2015C61.9274 84.8752 63.004 84.8623 63.3153 84.1626C64.5866 83.5407 64.2363 81.0659 62.6538 81.338Z" fill="#9A00FF"/>
<path d="M52.0169 91.2241C51.7964 91.3666 51.6537 91.5739 51.5499 91.8071C51.4721 92.0015 51.4202 92.2088 51.3813 92.4161C51.1478 92.7012 51.0311 93.0769 51.1089 93.4397C51.1478 93.647 51.2386 93.8414 51.3683 93.9969C51.4332 95.5776 53.366 95.4999 53.4308 93.958C54.4296 92.9344 53.6643 90.356 52.0169 91.2241Z" fill="#9A00FF"/>
<path d="M18.0698 104.57C17.4601 105.658 18.7184 107.109 19.834 106.345C20.8068 105.697 20.7939 103.3 19.4188 103.17C18.6276 103.093 18.1606 103.844 18.0698 104.57Z" fill="#9A00FF"/>
<path d="M36.9956 105.308C35.2833 105.632 36.0097 109.234 37.6442 108.988C38.3706 108.807 39.123 107.887 38.4744 107.239C38.5781 106.345 38.0593 105.127 36.9956 105.308Z" fill="#9A00FF"/>
<path d="M50.5771 103.365C49.9026 103.805 49.8636 104.673 49.8896 105.412C49.682 105.813 49.708 106.306 50.0323 106.682C50.3306 106.967 50.5641 107.342 50.9922 107.42C51.6537 107.55 52.4969 106.993 52.2245 106.267C52.8212 105.088 52.3412 102.471 50.5771 103.365Z" fill="#9A00FF"/>
<path d="M68.2187 98.3763C67.7258 98.9205 67.8165 99.6719 68.2446 100.216C67.8036 101.317 69.0748 102.199 70.0736 101.823C70.8779 101.538 72.5383 99.9441 71.0206 99.3092C70.5276 98.3633 69.1527 97.4304 68.2187 98.3763Z" fill="#9A00FF"/>
<path d="M6.27846 95.3314C5.66878 95.5128 4.98126 95.8497 4.83857 96.5235C4.69588 97.2102 5.17582 97.9617 5.91521 97.8969C6.64163 97.9487 7.08269 97.249 7.75722 97.0806C8.58741 96.7178 8.43175 95.4221 7.54967 95.2407C7.13457 95.15 6.69355 95.2148 6.27846 95.3314Z" fill="#9A00FF"/>
<path d="M75.3013 51.9518C74.7694 52.211 74.4711 52.7811 74.5749 53.3642C74.8602 54.608 76.3779 54.6987 77.4286 54.7376C78.0124 54.6339 78.6609 54.4784 78.8815 53.8306C79.0631 53.3253 78.8555 52.6774 78.3367 52.4313C77.4157 52.0037 76.3131 51.589 75.3013 51.9518Z" fill="#9A00FF"/>
<path d="M44.2728 120.877C37.6182 120.567 30.9118 120.826 24.2962 119.893C18.42 118.701 12.44 117.159 7.16051 114.295C4.37158 112.637 3.45058 109.126 3.99539 106.081C4.55318 104.021 6.49893 102.816 8.27607 101.909C9.31381 101.468 11.5061 100.108 12.0249 101.675C12.1676 102.245 11.6747 102.686 11.1818 102.816C9.93648 103.399 8.66522 103.956 7.54965 104.785C6.07087 105.873 5.78549 107.053 6.13573 108.828C6.2395 110.965 7.92583 112.417 9.81971 113.142C15.0473 115.254 20.4047 116.861 25.9436 117.716C32.1312 118.325 38.4095 118.118 44.623 118.364C53.5087 118.273 62.6278 117.224 70.7741 113.492C72.4345 112.52 73.7446 111.069 75.1586 109.799C75.885 109.074 76.5855 108.245 76.7411 107.195C77.0135 104.163 74.8862 101.39 72.188 100.328C71.8767 99.991 71.9545 99.4339 72.3177 99.1618C73.2258 98.3843 74.51 99.3043 75.3013 99.8485C77.7789 101.494 79.1539 104.604 78.8166 107.532C78.2458 110.577 75.4569 112.481 73.3295 114.49C65.741 119.465 53.2363 120.865 44.2728 120.877Z" fill="#D6FF00"/>
<path d="M40.7315 133.588C33.9991 133.096 27.163 133.523 20.5214 132.072C18.3551 131.671 16.2278 131.1 14.1263 130.44C11.9471 129.779 9.69001 129.248 7.8091 127.9C5.86333 126.669 4.00835 124.92 3.73594 122.51C3.45056 120.152 3.95649 117.301 6.31735 116.174C9.15817 114.58 12.6216 114.451 15.5792 115.604C16.6299 115.837 16.4094 117.379 15.3457 117.327C14.7231 117.275 14.1004 117.146 13.5037 116.939C12.7254 116.692 11.8822 116.744 11.091 116.874C9.33977 117.016 7.45884 117.586 6.3303 118.999C4.95529 122.497 6.6546 124.661 9.66405 126.358C14.269 128.25 19.2502 129.364 24.1276 130.142C28.525 130.595 32.9613 130.608 37.3718 130.738C43.0534 131.204 48.761 131.398 54.4426 130.777C59.3978 129.857 64.5995 129.014 69.2953 127.213C71.7729 125.957 75.1067 125.011 76.2222 122.225C76.4428 120.126 75.7682 117.496 73.8873 116.304C72.5123 115.423 70.9168 116.058 69.451 116.343C69.0229 116.42 68.5819 116.511 68.1538 116.524C67.3495 116.615 66.9993 115.474 67.6609 115.073C69.8142 114.269 72.2658 113.337 74.471 114.36C77.4027 115.734 78.6739 119.478 78.3107 122.523C77.8178 124.803 75.8331 126.358 73.8873 127.434C69.9569 129.831 65.4686 130.945 61.0193 131.93C54.4037 133.614 47.5287 133.834 40.7315 133.588Z" fill="#D6FF00"/>
<path d="M20.3269 146.104C17.3434 145.716 14.4247 145.081 11.5709 144.148C9.08033 143.448 6.60271 142.554 4.78666 140.624C-0.440966 136.361 0.0649519 129.144 7.23835 127.693C10.0013 127.343 12.8292 128.094 15.4235 128.988C16.0721 129.299 16.0332 130.31 15.3457 130.53C12.9719 130.479 10.598 129.468 8.17231 129.662C3.3987 130.401 2.07558 134.599 5.33149 138.058C6.26546 138.939 7.16053 139.898 8.26313 140.572C9.52139 141.168 10.8834 141.544 12.1936 142.023C15.9294 143.28 19.808 144.044 23.7384 144.265C24.2054 144.303 24.5816 144.666 24.6205 145.133C24.6335 146.869 21.2868 146.117 20.1712 146.079C20.1842 146.079 20.3269 146.104 20.3269 146.104Z" fill="#D6FF00"/>
<path d="M38.5522 151.87C38.4484 150.484 37.1902 149.836 36.2173 149.059C33.8045 147.309 30.9248 146.817 28.0321 146.804C26.6441 146.675 25.2821 146.428 23.9071 146.286C23.1288 146.117 22.2207 146.208 21.5462 145.742C20.9625 145.288 21.3387 144.265 22.0781 144.291C25.2432 144.446 28.4213 144.835 31.5215 145.198C34.5699 145.755 37.4755 147.361 39.577 149.629C40.018 150.432 40.8742 152.155 39.59 152.557C39.11 152.635 38.656 152.324 38.5522 151.87Z" fill="#D6FF00"/>
<path d="M16.0592 132.396C13.1665 132.383 13.1146 127.602 15.9035 127.382C19.0687 127.174 19.2243 132.409 16.0592 132.396Z" fill="#9A00FF"/>
<path d="M34.9461 134.547C32.5982 133.458 34.1678 129.053 36.6973 130.167C39.149 131.217 37.4496 135.635 34.9461 134.547Z" fill="#9A00FF"/>
<path d="M51.9002 133.99C49.8377 132.331 51.6148 128.975 54.0406 130.725C56.2717 132.279 54.2092 135.752 51.9002 133.99Z" fill="#9A00FF"/>
<path d="M66.7269 130.686C65.8578 129.688 66.3767 128.055 67.3366 127.356C68.1538 127.019 69.2564 127.459 69.6845 128.198C70.7741 130.18 68.4652 132.474 66.7269 130.686Z" fill="#9A00FF"/>
<path d="M14.2042 117.742C12.492 116.692 14.0745 113.336 15.9554 114.438C17.7326 115.526 16.163 118.908 14.2042 117.742Z" fill="#9A00FF"/>
<path d="M35.932 121.46C33.8435 121.124 33.8305 117.418 36.0617 117.405C37.2291 117.47 37.9685 118.752 38.0204 119.802C37.9815 120.852 36.9697 121.694 35.932 121.46Z" fill="#9A00FF"/>
<path d="M50.8884 120.903C48.6702 120.851 49.6301 117.288 51.4851 117.483C54.0405 117.664 53.379 121.745 50.8884 120.903Z" fill="#9A00FF"/>
<path d="M64.6774 118.364C63.8732 117.975 63.6137 116.861 64.0547 116.109C64.1455 115.241 65.0536 114.632 65.8578 115.125C68.3873 115.85 67.2199 119.387 64.6774 118.364Z" fill="#9A00FF"/>
<path d="M76.1315 110.978C74.7694 110.603 74.5749 108.193 76.2871 108.426C77.5973 107.908 78.9334 109.449 77.9605 110.59C77.5195 111.134 76.7412 111.432 76.1315 110.978Z" fill="#9A00FF"/>
<path d="M76.6114 95.1451C75.5866 94.6787 75.1716 92.8906 76.4039 92.4242C76.9098 92.2557 77.4935 92.0873 77.9735 92.4112C79.5042 93.37 78.3496 95.9743 76.6114 95.1451Z" fill="#9A00FF"/>
<path d="M4.13812 93.3571C3.77491 92.5408 4.37163 90.973 5.44829 91.4265C5.85041 91.7245 6.44712 92.0225 6.38226 92.6185C6.34334 92.9554 6.16172 93.2404 5.87634 93.383C5.51313 94.0178 4.48836 94.0438 4.13812 93.3571Z" fill="#9A00FF"/>
<path d="M3.67117 93.5773C2.828 92.9165 3.06149 91.3487 4.15112 91.1025C4.56621 91.0507 4.94241 90.8434 5.34454 91.0119C6.05799 91.1026 6.66766 91.8152 6.07096 92.4242C6.14879 93.5773 4.54028 94.3936 3.67117 93.5773Z" fill="#9A00FF"/>
<path d="M5.78556 108.905C4.82564 108.763 4.21594 108.231 4.21594 107.221C4.31972 106.599 4.86454 105.873 5.56502 106.003C6.17469 106.249 6.8233 106.677 7.08273 107.312C7.42 108.128 6.66764 109.1 5.78556 108.905Z" fill="#9A00FF"/>
<path d="M5.18884 122.147C4.25487 122.005 3.55443 121.007 3.80089 120.087C3.96952 119.387 4.90346 118.843 5.43531 119.504C6.81032 119.919 6.8622 122.29 5.18884 122.147Z" fill="#9A00FF"/>
<path d="M3.03556 134.456C1.91999 134.08 1.47891 132.292 2.34802 131.489C2.65934 131.269 3.08745 131.256 3.39877 131.489C3.8917 131.567 4.35867 131.891 4.64405 132.279C5.5391 133.471 4.30679 134.767 3.03556 134.456Z" fill="#9A00FF"/>
<path d="M23.6347 106.897C21.8576 106.197 22.4024 102.103 24.6595 102.919C26.3458 103.658 25.7102 107.467 23.6347 106.897Z" fill="#9A00FF"/>
<path d="M42.9237 106.897C42.6643 106.625 42.5605 106.262 42.5476 105.899C42.3141 105.407 42.2103 104.811 42.3659 104.267C42.4827 103.243 43.7669 102.569 44.5063 103.463C45.4532 103.826 45.4921 105.044 45.077 105.822C45.077 106.923 43.7799 107.804 42.9237 106.897Z" fill="#9A00FF"/>
<path d="M61.5123 105.718C60.5005 105.485 59.9038 104.746 60.1243 103.684C60.0465 102.906 60.3448 101.805 61.2658 101.701C61.6939 101.688 62.1609 101.87 62.3165 102.284C63.3672 103.139 63.2505 105.899 61.5123 105.718Z" fill="#9A00FF"/>
<path d="M26.1512 90.662C24.426 90.8823 24.6595 87.3192 26.2161 87.4487C28.1489 87.1896 27.9932 90.9341 26.1512 90.662Z" fill="#9A00FF"/>
<path d="M19.0038 82.7194C17.7845 82.1493 18.3292 79.4155 19.821 79.9078C20.8847 80.0115 21.5463 81.4886 20.8588 82.3308C20.6123 82.6158 20.2361 82.7713 19.8599 82.7454C19.5875 82.849 19.2762 82.849 19.0038 82.7194Z" fill="#9A00FF"/>
<path d="M62.6538 90.662C61.9533 90.5713 61.3826 90.1956 61.3177 89.4182C61.3437 88.8869 61.2529 88.278 61.5512 87.7985C61.9274 87.1248 63.004 87.1377 63.3154 87.8374C64.5866 88.4593 64.2364 90.9341 62.6538 90.662Z" fill="#9A00FF"/>
<path d="M52.0169 80.7759C51.7964 80.6334 51.6537 80.4261 51.55 80.1929C51.4721 79.9985 51.4202 79.7912 51.3813 79.5839C51.1478 79.2988 51.0311 78.9231 51.1089 78.5603C51.1479 78.353 51.2386 78.1586 51.3683 78.0031C51.4332 76.4224 53.366 76.5001 53.4309 78.042C54.4297 79.0656 53.6644 81.644 52.0169 80.7759Z" fill="#9A00FF"/>
<path d="M18.0698 67.4304C17.4602 66.342 18.7184 64.8908 19.834 65.6553C20.8069 66.3031 20.7939 68.7001 19.4189 68.8297C18.6276 68.9074 18.1607 68.156 18.0698 67.4304Z" fill="#9A00FF"/>
<path d="M36.9956 66.6918C35.2834 66.3679 36.0098 62.7659 37.6442 63.0121C38.3706 63.1935 39.123 64.1134 38.4744 64.7612C38.5782 65.6553 38.0593 66.8732 36.9956 66.6918Z" fill="#9A00FF"/>
<path d="M50.5771 68.6353C49.9026 68.1948 49.8637 67.3267 49.8896 66.5882C49.6821 66.1865 49.708 65.6941 50.0323 65.3184C50.3306 65.0333 50.5641 64.6576 50.9922 64.5798C51.6538 64.4503 52.4969 65.0074 52.2245 65.733C52.8212 66.9121 52.3413 69.5294 50.5771 68.6353Z" fill="#9A00FF"/>
<path d="M75.3013 120.048C74.7695 119.789 74.4711 119.219 74.5749 118.636C74.8603 117.392 76.3779 117.301 77.4287 117.262C78.0124 117.366 78.661 117.522 78.8815 118.169C79.0631 118.675 78.8556 119.323 78.3367 119.569C77.4157 119.996 76.3131 120.411 75.3013 120.048Z" fill="#9A00FF"/>
</svg>
