<svg width="78" height="272" viewBox="0 0 78 272" fill="none" xmlns="http://www.w3.org/2000/svg">
<path d="M32.6156 190.94C42.2665 190.807 52.0731 190.583 61.4897 188.299C65.0955 187.52 68.4806 185.989 71.3464 183.656C73.512 181.932 74.9253 180.247 74.6257 177.319C74.5046 166.319 56.8491 164.11 48.4432 163.478C43.5137 163.001 38.5717 163.495 33.6555 163.912C28.7005 164.432 23.7586 165.289 18.9726 166.716C14.9518 167.806 2.91584 172.528 1.17902 176.027C-0.972373 180.847 3.33624 185.886 7.60469 187.724C12.1974 189.394 17.0363 190.402 21.9396 190.323C25.5198 190.425 29.0484 191.02 32.6156 190.94ZM30.4611 188.052C27.0754 187.872 23.7285 187.368 20.33 187.576C16.2698 187.526 12.287 186.465 8.43391 185.236C5.34608 183.864 1.85533 180.471 3.25483 176.829C4.08441 175.274 5.90022 174.69 7.33974 173.834C16.6257 169.127 26.6908 166.752 37.0161 166.165C43.0348 165.502 49.0539 166.044 55.0471 166.663C61.0665 167.84 68.4479 169.042 71.8877 174.69C72.459 176.18 72.4468 178.032 72.1101 179.536C70.697 181.544 68.4274 182.776 66.3914 184.086C64.0699 185.24 61.5406 185.707 59.0372 186.214C55.4963 187.096 51.8642 187.266 48.2452 187.526C42.3172 187.801 36.3633 188.062 30.4611 188.052Z" fill="#D6FF00"/>
<path d="M49.2515 206.198C57.7219 205.844 66.6067 203.586 73.3369 198.258C74.1797 197.364 74.6722 196.237 75.1906 195.135C75.7869 194.008 76.1626 192.725 75.8118 191.468C74.7331 186.195 69.3748 183.787 65.0283 181.56C60.3966 179.515 55.4278 178.105 50.4592 177.161C46.6583 176.683 42.8445 176.27 39.0048 176.232C35.1652 176.39 31.3127 176.702 27.5122 177.222C20.7284 178.287 13.9448 179.883 7.94021 183.319C7.0454 183.916 5.64455 184.137 5.24286 185.225C3.07721 186.833 -0.139019 188.803 0.121635 191.861C0.642799 197.614 6.57205 200.501 11.3075 202.494C14.8104 203.607 18.4427 204.331 22.0492 204.991C24.6437 205.443 27.2253 206.038 29.8716 206.089C36.3316 206.203 42.7917 206.718 49.2515 206.198ZM51.2349 203.139C48.4979 203.179 45.7739 203.361 43.0369 203.363C38.8989 203.351 34.7737 202.899 30.6228 203.082C27.0166 203.097 23.5009 202.217 19.9594 201.648C16.9756 200.924 13.9012 200.601 11.1118 199.449C8.36121 198.129 5.20854 196.796 3.40446 194.283C2.74245 193.156 1.9246 191.575 2.67646 190.318C3.96003 188.724 5.60693 187.441 7.37068 186.416C7.65599 186.235 7.79855 185.924 7.81139 185.6C10.937 184.212 14.1665 182.85 17.3701 181.864C20.7813 181.008 24.4651 180.333 27.8894 179.8C35.3348 178.761 42.8584 178.771 50.3047 179.83C56.4927 181.097 72.5404 185.095 73.4772 192.311C73.5683 193.089 72.9849 193.724 72.6738 194.385C72.0776 195.784 71.1052 196.873 69.7305 197.521C66.5791 199.596 62.8179 200.932 59.3159 201.905C56.6569 202.528 53.972 203.203 51.2349 203.139Z" fill="#D6FF00"/>
<path d="M34.8455 220.352C41.4999 220.038 48.2064 220.294 54.8216 219.359C60.6973 218.164 66.6767 216.62 71.9551 213.755C74.7433 212.095 75.6629 208.583 75.1169 205.539C74.5583 203.479 72.6121 202.275 70.8346 201.368C69.7967 200.928 67.6039 199.569 67.0856 201.137C66.9432 201.707 67.4363 202.147 67.9292 202.276C69.1748 202.859 70.4462 203.416 71.5621 204.244C73.0414 205.332 73.3272 206.511 72.9777 208.286C72.8748 210.424 71.189 211.876 69.2954 212.603C64.0686 214.717 58.7119 216.325 53.1733 217.183C46.986 217.794 40.7076 217.589 34.4942 217.838C25.6085 217.751 16.4889 216.705 8.34118 212.977C6.68041 212.006 5.36967 210.555 3.95524 209.286C3.22854 208.56 2.52773 207.731 2.37165 206.682C2.09803 203.65 4.22427 200.877 6.92198 199.813C7.23317 199.476 7.15515 198.919 6.79183 198.647C5.88349 197.87 4.59963 198.79 3.80857 199.335C1.33161 200.981 -0.0421434 204.092 0.29629 207.02C0.868262 210.064 3.65797 211.968 5.78614 213.975C13.3766 218.948 25.882 220.342 34.8455 220.352Z" fill="#D6FF00"/>
<path d="M38.3919 233.061C45.124 232.566 51.9603 232.991 58.6013 231.537C60.7674 231.135 62.8946 230.564 64.9957 229.902C67.1747 229.24 69.4316 228.708 71.312 227.36C73.2572 226.128 75.1115 224.378 75.383 221.968C75.6674 219.61 75.1603 216.76 72.799 215.633C69.9576 214.041 66.4941 213.913 63.537 215.067C62.4864 215.301 62.7075 216.842 63.7711 216.79C64.3938 216.738 65.0164 216.608 65.613 216.401C66.3912 216.154 67.2344 216.206 68.0257 216.335C69.777 216.477 71.6581 217.046 72.7872 218.458C74.1636 221.956 72.4652 224.12 69.4564 225.819C64.8522 227.712 59.8715 228.829 54.9944 229.608C50.5971 230.063 46.1608 230.078 41.7504 230.209C36.069 230.678 30.3615 230.875 24.6796 230.255C19.724 229.337 14.522 228.497 9.82548 226.698C7.34737 225.442 4.01325 224.497 2.89656 221.712C2.67521 219.613 3.34867 216.983 5.22911 215.79C6.60376 214.908 8.19956 215.542 9.66549 215.827C10.0936 215.904 10.5347 215.995 10.9627 216.008C11.767 216.098 12.1168 214.958 11.4551 214.556C9.30146 213.754 6.84942 212.822 4.64463 213.846C1.71355 215.221 0.443782 218.966 0.808206 222.011C1.30204 224.291 3.28735 225.845 5.23354 226.92C9.16495 229.315 13.6536 230.428 18.1034 231.411C24.7196 233.092 31.5947 233.31 38.3919 233.061Z" fill="#D6FF00"/>
<path d="M58.8014 245.569C61.7847 245.18 64.7031 244.543 67.5565 243.609C70.0468 242.909 72.5241 242.014 74.3394 240.082C79.5653 235.818 79.0565 228.601 71.8826 227.153C69.1194 226.804 66.2919 227.556 63.6979 228.451C63.0494 228.763 63.0887 229.773 63.7763 229.993C66.1501 229.941 68.5236 228.929 70.9494 229.122C75.7233 229.859 77.0481 234.056 73.7935 237.517C72.8599 238.399 71.9652 239.358 70.8629 240.032C69.6049 240.629 68.243 241.005 66.933 241.485C63.1977 242.743 59.3194 243.509 55.3891 243.731C54.9221 243.77 54.5461 244.133 54.5073 244.599C54.4951 246.336 57.8415 245.583 58.957 245.543C58.944 245.543 58.8014 245.569 58.8014 245.569Z" fill="#D6FF00"/>
<path d="M40.5784 251.342C40.6816 249.956 41.9396 249.307 42.9122 248.529C45.3242 246.779 48.2038 246.286 51.0965 246.272C52.4844 246.142 53.8463 245.895 55.2213 245.752C55.9995 245.583 56.9076 245.673 57.5819 245.207C58.1655 244.753 57.7889 243.729 57.0495 243.756C53.8845 243.912 50.7065 244.302 47.6064 244.666C44.5583 245.225 41.6532 246.833 39.5527 249.101C39.112 249.904 38.2565 251.628 39.5409 252.029C40.0209 252.107 40.4748 251.796 40.5784 251.342Z" fill="#D6FF00"/>
<path d="M33.8562 263.672C35.0625 263.464 34.6598 262.026 34.7502 261.158C34.8532 259.176 34.9173 257.232 35.2798 255.289C36.6787 250.364 40.3502 251.49 42.8033 254.949C43.8806 256.697 44.4003 258.757 44.7773 260.766C44.2717 261.543 45.232 262.372 45.9712 261.879C47.8256 260.7 45.5013 254.766 44.3592 253.393C41.5427 249.274 36.5221 247.76 33.7481 252.801C32.8278 254.642 32.8157 256.741 32.6868 258.749C32.804 259.954 31.9494 263.829 33.8562 263.672Z" fill="#FF7A00"/>
<path d="M51.825 271.205C52.0973 270.894 52.175 270.518 52.123 270.104C51.9538 268.717 51.4603 267.396 50.902 266.113C50.0577 263.302 47.9813 261.01 45.0883 260.259C42.3509 259.327 39.3414 259.108 36.5658 259.991C35.0872 260.432 33.4529 260.834 32.4026 262.065C30.6264 264.269 28.9281 266.783 28.566 269.647C28.2162 270.761 29.3841 271.849 30.3437 270.967C31.0697 269.931 31.4064 268.661 31.9638 267.533C32.8193 266.082 33.5841 264.63 34.816 263.516C38.3046 261.635 42.4946 261.686 46.0884 263.304C47.6972 264.029 48.2945 265.726 48.9437 267.228C49.3852 268.239 49.8007 269.262 50.1254 270.325C49.8533 271.232 51.2416 271.84 51.825 271.205Z" fill="#FF7A00"/>
<path d="M63.0636 231.86C65.9563 231.846 66.0063 227.065 63.2173 226.846C60.0521 226.64 59.8985 231.874 63.0636 231.86Z" fill="#9A00FF"/>
<path d="M44.1776 234.018C46.5251 232.929 44.9537 228.524 42.4247 229.639C39.9734 230.69 41.6745 235.107 44.1776 234.018Z" fill="#9A00FF"/>
<path d="M27.2232 233.468C29.285 231.809 27.5065 228.453 25.0815 230.204C22.851 231.759 24.9149 235.231 27.2232 233.468Z" fill="#9A00FF"/>
<path d="M12.3952 230.17C13.2639 229.172 12.7444 227.539 11.7842 226.84C10.9668 226.503 9.86442 226.944 9.43665 227.683C8.34781 229.666 10.6577 231.958 12.3952 230.17Z" fill="#9A00FF"/>
<path d="M64.9127 217.205C66.6246 216.155 65.0407 212.8 63.1602 213.902C61.3835 214.991 62.9545 218.372 64.9127 217.205Z" fill="#9A00FF"/>
<path d="M43.1864 220.932C45.2748 220.594 45.2863 216.889 43.0551 216.877C41.8877 216.942 41.1488 218.225 41.0973 219.274C41.1367 220.324 42.1488 221.166 43.1864 220.932Z" fill="#9A00FF"/>
<path d="M28.2298 220.381C30.448 220.328 29.4867 216.765 27.6318 216.961C25.0764 217.143 25.7396 221.224 28.2298 220.381Z" fill="#9A00FF"/>
<path d="M14.4398 217.847C15.2439 217.458 15.5029 216.344 15.0616 215.592C14.9705 214.724 14.0622 214.116 13.2581 214.608C10.7289 215.335 11.8978 218.872 14.4398 217.847Z" fill="#9A00FF"/>
<path d="M74.9691 192.816C75.3319 192 74.7346 190.432 73.6581 190.886C73.2561 191.184 72.6595 191.482 72.7246 192.078C72.7637 192.415 72.9454 192.7 73.2309 192.843C73.5943 193.477 74.6191 193.503 74.9691 192.816Z" fill="#9A00FF"/>
<path d="M75.4362 193.036C76.2791 192.375 76.045 190.807 74.9552 190.561C74.5401 190.509 74.1638 190.302 73.7618 190.471C73.0484 190.562 72.439 191.275 73.0359 191.884C72.9585 193.037 74.5674 193.852 75.4362 193.036Z" fill="#9A00FF"/>
<path d="M73.3279 208.364C74.2878 208.222 74.8973 207.69 74.8969 206.679C74.7928 206.058 74.2477 205.332 73.5473 205.462C72.9377 205.708 72.2893 206.136 72.0301 206.771C71.6932 207.588 72.4459 208.559 73.3279 208.364Z" fill="#9A00FF"/>
<path d="M73.9299 221.606C74.8638 221.464 75.5638 220.466 75.317 219.546C75.1481 218.846 74.2139 218.302 73.6823 218.963C72.3075 219.378 72.2566 221.75 73.9299 221.606Z" fill="#9A00FF"/>
<path d="M76.088 233.915C77.2035 233.539 77.6438 231.751 76.7744 230.948C76.463 230.727 76.0349 230.715 75.7237 230.948C75.2308 231.026 74.7639 231.35 74.4787 231.739C73.5841 232.931 74.8169 234.226 76.088 233.915Z" fill="#9A00FF"/>
<path d="M55.4779 206.364C57.2548 205.663 56.7083 201.569 54.4516 202.386C52.7655 203.125 53.4027 206.935 55.4779 206.364Z" fill="#9A00FF"/>
<path d="M36.1889 206.371C36.4482 206.099 36.5519 205.736 36.5647 205.373C36.798 204.881 36.9016 204.285 36.7457 203.741C36.6285 202.717 35.3441 202.044 34.605 202.938C33.6582 203.301 33.6198 204.519 34.0352 205.296C34.0357 206.398 35.3331 207.278 36.1889 206.371Z" fill="#9A00FF"/>
<path d="M17.5999 205.199C18.6116 204.966 19.208 204.227 18.9871 203.165C19.0646 202.387 18.7658 201.286 17.8448 201.183C17.4167 201.17 16.9498 201.352 16.7943 201.766C15.7439 202.622 15.8618 205.382 17.5999 205.199Z" fill="#9A00FF"/>
<path d="M52.9549 190.13C54.6802 190.35 54.4453 186.787 52.8888 186.917C50.9559 186.658 51.113 190.403 52.9549 190.13Z" fill="#9A00FF"/>
<path d="M60.0991 182.184C61.3183 181.614 60.7724 178.88 59.2808 179.373C58.2172 179.477 57.5562 180.955 58.244 181.796C58.4906 182.081 58.8669 182.237 59.243 182.211C59.5155 182.314 59.8268 182.314 60.0991 182.184Z" fill="#9A00FF"/>
<path d="M41.0037 179.406C41.4965 179.186 41.7817 178.732 41.8464 178.24C42.0668 177.903 42.0925 177.411 41.8459 177.074C41.3787 176.491 40.4834 175.947 39.8091 176.518C38.3696 177.373 39.2528 180.12 41.0037 179.406Z" fill="#9A00FF"/>
<path d="M39.7626 190.006C40.813 189.241 40.4232 187.673 39.0741 187.661C36.7652 187.83 37.7915 191.639 39.7626 190.006Z" fill="#9A00FF"/>
<path d="M39.2054 191.574C40.671 191.042 40.2677 188.166 38.7499 187.959C37.1284 187.778 36.7273 190.37 37.921 191.121C38.2066 191.535 38.7385 191.729 39.2054 191.574Z" fill="#9A00FF"/>
<path d="M16.4524 190.144C17.1528 190.053 17.7234 189.677 17.788 188.9C17.7618 188.368 17.8524 187.759 17.5538 187.28C17.1774 186.606 16.1007 186.62 15.7897 187.32C14.5187 187.942 14.8699 190.417 16.4524 190.144Z" fill="#9A00FF"/>
<path d="M27.0853 180.254C27.3058 180.112 27.4483 179.904 27.552 179.671C27.6298 179.477 27.6816 179.269 27.7204 179.062C27.9538 178.777 28.0704 178.401 27.9924 178.038C27.9534 177.831 27.8626 177.637 27.7328 177.481C27.6673 175.9 25.7345 175.979 25.6703 177.521C24.6719 178.545 25.4382 181.123 27.0853 180.254Z" fill="#9A00FF"/>
<path d="M61.0271 166.895C61.6363 165.806 60.3775 164.356 59.2622 165.121C58.2896 165.769 58.3035 168.166 59.6786 168.295C60.4699 168.372 60.9366 167.621 61.0271 166.895Z" fill="#9A00FF"/>
<path d="M42.101 166.164C43.8131 165.839 43.0853 162.238 41.4509 162.484C40.7246 162.666 39.9726 163.586 40.6215 164.234C40.5181 165.128 41.0374 166.346 42.101 166.164Z" fill="#9A00FF"/>
<path d="M28.5202 168.113C29.1946 167.672 29.2331 166.804 29.2069 166.065C29.4143 165.664 29.3882 165.171 29.0637 164.796C28.7653 164.511 28.5316 164.135 28.1035 164.057C27.4419 163.928 26.599 164.486 26.8716 165.211C26.2754 166.39 26.7564 169.007 28.5202 168.113Z" fill="#9A00FF"/>
<path d="M10.8806 173.108C11.3733 172.564 11.2823 171.812 10.854 171.268C11.2946 170.167 10.023 169.286 9.0243 169.662C8.22017 169.948 6.56044 171.542 8.07839 172.176C8.57169 173.122 9.94704 174.054 10.8806 173.108Z" fill="#9A00FF"/>
<path d="M72.822 176.129C73.4316 175.947 74.119 175.61 74.2615 174.936C74.4039 174.249 73.9236 173.498 73.1843 173.563C72.4578 173.511 72.0171 174.211 71.3426 174.38C70.5125 174.743 70.6687 176.039 71.5509 176.22C71.966 176.31 72.407 176.245 72.822 176.129Z" fill="#9A00FF"/>
<path d="M34.8177 150.598C41.4723 150.906 48.1786 150.644 54.7946 151.574C60.6713 152.764 66.6519 154.304 71.9325 157.165C74.7221 158.822 75.6445 162.333 75.1009 165.378C74.5439 167.439 72.5987 168.644 70.8219 169.552C69.7843 169.993 67.5926 171.354 67.0731 169.787C66.9302 169.217 67.423 168.776 67.9158 168.646C69.1609 168.063 70.4319 167.505 71.5472 166.675C73.0255 165.587 73.3104 164.407 72.9595 162.632C72.8549 160.495 71.1679 159.044 69.2738 158.319C64.0453 156.209 58.6873 154.605 53.148 153.752C46.9603 153.145 40.682 153.355 34.4684 153.111C25.5828 153.206 16.4641 154.259 8.31927 157.994C6.65927 158.966 5.34969 160.418 3.93627 161.688C3.21014 162.414 2.50999 163.244 2.35475 164.293C2.08355 167.325 4.212 170.097 6.91056 171.158C7.22201 171.495 7.14444 172.052 6.78133 172.325C5.87362 173.102 4.58902 172.183 3.79753 171.639C1.31926 169.995 -0.0569743 166.885 0.279125 163.957C0.848669 160.912 3.63686 159.006 5.76343 156.997C13.3499 152.019 25.8542 150.614 34.8177 150.598Z" fill="#D6FF00"/>
<path d="M38.3538 137.886C45.0864 138.375 51.9224 137.945 58.5645 139.393C60.7309 139.794 62.8585 140.363 64.9602 141.023C67.1397 141.683 69.397 142.214 71.2785 143.56C73.2247 144.791 75.0804 146.539 75.3538 148.949C75.6401 151.307 75.1353 154.158 72.7749 155.286C69.9347 156.881 66.4713 157.012 63.5133 155.86C62.4625 155.627 62.6824 154.085 63.7461 154.136C64.3688 154.188 64.9915 154.317 65.5883 154.524C66.3667 154.77 67.2098 154.718 68.001 154.588C69.7521 154.445 71.6328 153.874 72.7608 152.461C74.1344 148.962 72.4343 146.799 69.4241 145.103C64.8184 143.213 59.8368 142.101 54.9591 141.325C50.5615 140.874 46.1251 140.862 41.7147 140.735C36.0329 140.27 30.3252 140.078 24.6438 140.703C19.689 141.625 14.4876 142.469 9.79253 144.272C7.31542 145.529 3.98206 146.477 2.8676 149.263C2.64791 151.362 3.32348 153.992 5.20486 155.183C6.58022 156.064 8.17551 155.428 9.64121 155.143C10.0692 155.065 10.5103 154.974 10.9383 154.961C11.7425 154.87 12.0932 156.01 11.4318 156.412C9.27883 157.216 6.82754 158.15 4.62193 157.127C1.68976 155.755 0.417005 152.011 0.779001 148.966C1.27102 146.685 3.25509 145.129 5.20042 144.053C9.12992 141.655 13.6177 140.539 18.0667 139.552C24.6816 137.865 31.5565 137.642 38.3538 137.886Z" fill="#D6FF00"/>
<path d="M58.7534 125.361C61.7371 125.748 64.656 126.382 67.5102 127.314C70.001 128.012 72.479 128.906 74.2958 130.835C79.5251 135.096 79.0221 142.313 71.8493 143.767C69.0864 144.118 66.2583 143.368 63.6636 142.475C63.0149 142.164 63.0534 141.153 63.7408 140.933C66.1146 140.984 68.4889 141.994 70.9145 141.798C75.6878 141.058 77.0093 136.859 73.752 133.401C72.8177 132.52 71.9222 131.562 70.8194 130.889C69.5609 130.293 68.1987 129.918 66.8883 129.439C63.152 128.184 59.2731 127.421 55.3426 127.202C54.8756 127.163 54.4993 126.801 54.4602 126.334C54.4465 124.598 57.7935 125.348 58.9091 125.387C58.8961 125.387 58.7534 125.361 58.7534 125.361Z" fill="#D6FF00"/>
<path d="M39.4815 103.122C40.9474 103.368 40.2607 105.247 40.1184 106.231C40.3149 111.103 38.269 120.148 43.0178 123.009C46.0408 124.498 49.5174 124.847 52.7605 125.286C54.4988 125.441 56.3018 125.285 58.0142 125.621C60.2065 125.931 62.36 126.202 64.4746 126.797C65.0584 126.927 65.9146 127.043 65.9408 127.781C65.9929 128.377 65.3186 128.805 64.7996 128.546C62.4645 128.055 60.0645 127.641 57.7165 127.37C53.3839 127.126 49.1421 127.14 44.9647 125.846C37.0382 124.139 37.5798 116.015 37.8626 109.614C38.0047 108.176 37.8225 106.634 38.2111 105.247C38.3535 104.444 38.4048 103.109 39.4815 103.122Z" fill="#D6FF00"/>
<path d="M40.5258 119.602C40.6302 120.989 41.8887 121.636 42.8619 122.413C45.2753 124.161 48.1552 124.653 51.048 124.664C52.436 124.793 53.7981 125.039 55.1732 125.181C55.9515 125.349 56.8595 125.258 57.5343 125.724C58.1182 126.178 57.7424 127.201 57.003 127.176C53.8378 127.021 50.6596 126.634 47.5592 126.272C44.5106 125.717 41.6043 124.111 39.502 121.844C39.0606 121.041 38.2038 119.318 39.4878 118.916C39.9677 118.838 40.4219 119.149 40.5258 119.602Z" fill="#D6FF00"/>
<path d="M33.1851 90.3877C34.3915 90.5946 33.99 92.0329 34.0811 92.901C34.1857 94.8834 34.2513 96.8269 34.6153 98.7703C36.0182 103.693 39.6888 102.565 42.1391 99.1042C43.2151 97.3546 43.7331 95.2942 44.1085 93.2857C43.6023 92.5085 44.5619 91.6789 45.3015 92.171C47.1569 93.3493 44.8373 99.2845 43.6963 100.658C40.8831 104.78 35.8636 106.298 33.0857 101.259C32.1639 99.4191 32.1501 97.3201 32.0196 95.3118C32.1359 94.1068 31.2782 90.233 33.1851 90.3877Z" fill="#FF7A00"/>
<path d="M51.148 82.8401C51.4206 83.1509 51.4986 83.5266 51.4468 83.9413C51.2788 85.3277 50.7864 86.6495 50.2291 87.9325C49.387 90.7444 47.3125 93.0387 44.4201 93.7913C41.6834 94.7253 38.674 94.9468 35.8977 94.0668C34.4188 93.6268 32.7841 93.2258 31.7329 91.9953C29.9549 89.7934 28.2546 87.2805 27.8903 84.4171C27.5396 83.303 28.7066 82.2141 29.6669 83.0948C30.3937 84.1311 30.7315 85.4007 31.2897 86.5277C32.1464 87.9786 32.9124 89.4294 34.1451 90.5432C37.6353 92.4206 41.8252 92.3671 45.4177 90.746C47.0259 90.0198 47.6219 88.3222 48.2699 86.819C48.7105 85.8082 49.1252 84.7844 49.4491 83.7218C49.1763 82.8149 50.5641 82.2054 51.148 82.8401Z" fill="#FF7A00"/>
<path d="M36.4501 80.4745C40.212 80.7969 43.9867 80.4067 47.7486 80.7939C48.8773 81.0267 51.7309 80.598 51.3165 82.438C51.0962 82.9823 50.4736 83.0473 49.9547 82.9568C48.9688 82.9183 47.983 82.9187 46.9971 82.8155C44.5195 82.7258 42.1586 82.7915 39.7199 82.8184C36.6585 82.6382 33.6102 82.7819 30.5489 82.8479C29.6927 82.7705 28.7199 83.0301 27.9286 82.7842C27.189 82.4865 27.1238 81.4111 27.8111 81.0221C30.6128 80.5416 33.5704 80.6182 36.4501 80.4745Z" fill="#FF7A00"/>
<path d="M28.7193 81.514C29.1476 82.0062 28.9274 82.7319 28.9924 83.3278C29.0188 84.2737 27.566 84.4946 27.3451 83.5618C27.0204 82.616 27.3829 80.5687 28.7193 81.514Z" fill="#FF7A00"/>
<path d="M51.5884 81.2585C52.3929 81.9967 52.0173 83.448 51.382 84.1868C50.9152 84.7182 49.9162 84.2522 50.0067 83.5913C50.0196 83.3581 50.0455 83.1249 50.0973 82.9046C49.6692 82.9177 49.2929 82.5291 49.3057 82.1016C49.3572 81.1039 50.8747 80.7534 51.5884 81.2585Z" fill="#FF7A00"/>
<path d="M28.4467 81.2549C28.6673 81.3196 28.8879 81.462 29.0047 81.6693C29.1735 82.0061 29.1477 82.3819 28.9013 82.667C29.1742 83.846 29.8751 84.8822 30.0831 86.0872C30.3817 86.5923 30.5636 87.3567 29.954 87.7068C28.4756 88.4719 28.0852 85.3235 27.527 84.4297C27.2803 83.756 26.7352 83.0177 26.9813 82.2791C27.2405 81.7089 27.7202 81.022 28.4467 81.2549Z" fill="#FF7A00"/>
<path d="M28.7064 81.747C29.2518 83.3017 26.7484 83.6655 26.8255 82.007C26.916 81.0352 28.3298 80.8402 28.7064 81.747Z" fill="#FF7A00"/>
<path d="M51.2514 81.8684C51.3682 82.0109 51.459 82.1534 51.6018 82.2829C52.03 82.6585 51.8875 83.3064 51.7969 83.7988C51.3436 85.5222 50.8772 87.0772 49.9049 88.5288C49.3345 89.3064 48.063 88.5684 48.4518 87.6872C48.7628 86.8708 49.1257 86.2228 49.4108 85.4193C49.151 84.5772 49.6436 83.7089 49.8119 82.8796C49.3705 82.0764 50.6155 81.1819 51.2514 81.8684Z" fill="#FF7A00"/>
<path d="M48.7866 81.4543C50.2395 81.5055 50.9536 83.2026 50.6298 84.4595C50.3968 85.6257 50.3973 87.0121 49.5675 87.9324C48.9192 88.6582 47.8422 87.8294 48.27 86.9871C48.6458 86.1836 48.6973 85.2766 48.8786 84.4084C48.9692 83.9938 49.0599 83.5273 48.7225 83.1905C47.3604 83.1263 47.3596 81.2864 48.7866 81.4543Z" fill="#FF7A00"/>
<path d="M31.5993 82.2383C31.6513 82.64 31.3921 83.0547 31.003 83.1585C30.7695 83.2104 30.536 83.2364 30.3025 83.2754C29.9915 84.1177 30.4589 85.0374 30.8224 85.8018C31.4327 87.2527 32.5747 88.4961 32.8996 90.0508C32.9777 90.867 31.8883 91.3728 31.3692 90.6992C30.4991 88.1341 26.9044 84.5336 29.2513 81.9283C29.8608 81.4616 31.4173 81.1889 31.5993 82.2383Z" fill="#FF7A00"/>
<path d="M33.1813 81.0586C33.5316 81.1103 33.9337 81.0712 34.2062 81.3432C34.6734 81.8095 34.4142 82.5741 33.8046 82.7427C32.9097 82.8986 31.9367 82.6269 31.0936 82.9511C30.6657 83.4048 30.4455 84.1693 30.4587 84.7653C31.017 85.8405 31.8086 86.799 32.1593 87.9909C32.5489 88.9496 31.1871 89.6368 30.6549 88.743C30.2395 87.9269 29.9019 87.0589 29.3568 86.3077C28.5521 85.3233 28.6164 84.0534 29.096 82.939C29.3033 82.3299 29.6922 81.7596 30.2499 81.4225C31.1966 80.9687 32.2084 81.059 33.1813 81.0586Z" fill="#FF7A00"/>
<path d="M33.1945 81.6417C33.1947 82.1211 32.8187 82.4711 32.3517 82.4972C30.86 82.6015 31.0164 84.4801 31.2633 85.5296C31.7572 87.9264 33.7165 89.5322 35.4424 91.0993C35.8186 91.151 36.0912 91.5137 36.0913 91.8895C36.0788 93.0037 34.8335 93.0172 34.2106 92.3307C32.7053 91.0097 31.0574 89.6758 30.2524 87.7974C29.2008 85.7118 28.6936 82.2655 31.2096 81.0465C31.9099 80.7223 33.1552 80.6182 33.1945 81.6417Z" fill="#FF7A00"/>
<path d="M63.0266 139.068C65.9194 139.08 65.9731 143.861 63.1843 144.083C60.0193 144.291 59.8615 139.057 63.0266 139.068Z" fill="#9A00FF"/>
<path d="M44.1388 136.925C46.4872 138.013 44.9193 142.419 42.3894 141.305C39.9373 140.257 41.6348 135.838 44.1388 136.925Z" fill="#9A00FF"/>
<path d="M27.1849 137.489C29.2481 139.147 27.4723 142.503 25.0459 140.755C22.8141 139.201 24.8752 135.728 27.1849 137.489Z" fill="#9A00FF"/>
<path d="M12.3595 140.799C13.229 141.797 12.7108 143.43 11.7511 144.13C10.9341 144.467 9.83129 144.027 9.40292 143.288C8.31251 141.306 10.6206 139.012 12.3595 140.799Z" fill="#9A00FF"/>
<path d="M64.8873 153.722C66.6 154.771 65.0188 158.128 63.1375 157.027C61.3599 155.939 62.9281 152.557 64.8873 153.722Z" fill="#9A00FF"/>
<path d="M43.1582 150.012C45.2468 150.349 45.2612 154.054 43.0301 154.068C41.8626 154.004 41.1227 152.721 41.0704 151.672C41.1089 150.622 42.1204 149.78 43.1582 150.012Z" fill="#9A00FF"/>
<path d="M28.202 150.575C30.4202 150.626 29.4617 154.19 27.6066 153.996C25.0511 153.816 25.711 149.734 28.202 150.575Z" fill="#9A00FF"/>
<path d="M14.4139 153.12C15.2183 153.509 15.4782 154.623 15.0375 155.375C14.947 156.243 14.0392 156.852 13.2348 156.36C10.705 155.635 11.8711 152.098 14.4139 153.12Z" fill="#9A00FF"/>
<path d="M74.9632 178.103C75.3267 178.919 74.7306 180.487 73.6538 180.034C73.2515 179.736 72.6547 179.438 72.7193 178.842C72.7581 178.505 72.9396 178.22 73.225 178.078C73.5879 177.443 74.6127 177.416 74.9632 178.103Z" fill="#9A00FF"/>
<path d="M75.43 177.883C76.2735 178.543 76.0406 180.111 74.9511 180.358C74.536 180.41 74.1599 180.617 73.7577 180.449C73.0442 180.358 72.4343 179.646 73.0307 179.037C72.9524 177.884 74.5606 177.067 75.43 177.883Z" fill="#9A00FF"/>
<path d="M73.3096 162.556C74.2696 162.698 74.8795 163.229 74.8799 164.24C74.7764 164.862 74.2318 165.587 73.5313 165.458C72.9215 165.212 72.2727 164.785 72.0131 164.15C71.6755 163.334 72.4274 162.362 73.3096 162.556Z" fill="#9A00FF"/>
<path d="M73.901 149.313C74.8351 149.455 75.5359 150.452 75.2898 151.372C75.1214 152.072 74.1877 152.617 73.6556 151.956C72.2804 151.542 72.2276 149.171 73.901 149.313Z" fill="#9A00FF"/>
<path d="M76.0494 137.003C77.1651 137.378 77.6069 139.166 76.7381 139.97C76.4269 140.19 75.9988 140.203 75.6874 139.97C75.1944 139.893 74.7273 139.569 74.4418 139.18C73.5463 137.989 74.7781 136.692 76.0494 137.003Z" fill="#9A00FF"/>
<path d="M55.4612 164.571C57.2387 165.27 56.6955 169.364 54.438 168.549C52.7514 167.811 53.3855 164.002 55.4612 164.571Z" fill="#9A00FF"/>
<path d="M36.1722 164.579C36.4317 164.851 36.5357 165.213 36.5488 165.576C36.7825 166.068 36.8865 166.664 36.731 167.209C36.6147 168.232 35.3308 168.907 34.591 168.013C33.6439 167.65 33.6045 166.433 34.0193 165.655C34.0189 164.554 35.3157 163.672 36.1722 164.579Z" fill="#9A00FF"/>
<path d="M17.5842 165.765C18.596 165.997 19.193 166.736 18.9729 167.798C19.0511 168.576 18.7532 169.677 17.8322 169.781C17.4042 169.794 16.9371 169.613 16.7813 169.198C15.7302 168.344 15.8459 165.584 17.5842 165.765Z" fill="#9A00FF"/>
<path d="M52.9512 180.807C54.6764 180.586 54.4443 184.149 52.8876 184.02C50.955 184.28 51.1091 180.535 52.9512 180.807Z" fill="#9A00FF"/>
<path d="M60.1017 188.747C61.3213 189.316 60.7776 192.051 59.2857 191.559C58.2219 191.456 57.5598 189.979 58.2469 189.136C58.4933 188.851 58.8694 188.695 59.2456 188.721C59.518 188.617 59.8293 188.617 60.1017 188.747Z" fill="#9A00FF"/>
<path d="M16.4486 180.821C17.1491 180.911 17.72 181.287 17.7852 182.064C17.7594 182.596 17.8505 183.204 17.5523 183.684C17.1764 184.358 16.0998 184.345 15.7882 183.646C14.5167 183.024 14.8659 180.55 16.4486 180.821Z" fill="#9A00FF"/>
<path d="M27.0894 190.703C27.3099 190.845 27.4527 191.052 27.5566 191.285C27.6345 191.48 27.6865 191.687 27.7254 191.894C27.9591 192.179 28.0759 192.555 27.9983 192.918C27.9594 193.125 27.8687 193.32 27.7391 193.475C27.6748 195.056 25.742 194.979 25.6765 193.437C24.6773 192.414 25.4416 189.835 27.0894 190.703Z" fill="#9A00FF"/>
<path d="M61.0418 204.035C61.652 205.123 60.3943 206.575 59.2784 205.811C58.3053 205.163 58.3173 202.766 59.6922 202.636C60.4835 202.558 60.9508 203.309 61.0418 204.035Z" fill="#9A00FF"/>
<path d="M42.1164 204.781C43.8288 205.104 43.1038 208.707 41.4692 208.461C40.7428 208.28 39.99 207.36 40.6384 206.712C40.5342 205.818 41.0526 204.6 42.1164 204.781Z" fill="#9A00FF"/>
<path d="M28.534 202.843C29.2088 203.283 29.248 204.151 29.2224 204.89C29.4301 205.291 29.4043 205.784 29.0802 206.16C28.782 206.445 28.5486 206.821 28.1206 206.899C27.4591 207.029 26.6157 206.472 26.8878 205.746C26.2906 204.567 26.7695 201.95 28.534 202.843Z" fill="#9A00FF"/>
<path d="M47.6609 56.4996C45.8009 58.6596 43.8109 60.7696 41.4809 62.4296C39.8509 63.5196 38.8309 63.7796 37.2509 62.4196C35.3809 60.9796 34.1709 58.8996 32.4309 57.3196C31.8509 56.7496 30.0909 55.3796 31.5909 54.8496C32.0009 54.7896 32.2609 55.1396 32.5309 55.3896C35.0609 57.2596 36.4209 60.4196 39.1609 61.9796C42.1909 60.6596 44.2809 57.8296 46.5809 55.5496C47.2009 54.9296 48.2009 55.8096 47.6609 56.4996Z" fill="#FF00BF"/>
<path d="M47.9109 41.6996C46.2309 44.0296 44.1609 46.0496 42.0909 48.0396C39.5009 50.7896 38.2009 48.5396 36.3809 46.4896C35.1509 44.8996 33.6809 43.5396 32.2809 42.1096C31.7909 41.5696 32.1509 40.5296 32.9609 40.8296C33.2609 40.9796 33.4109 41.2996 33.6909 41.4896C35.3309 42.7596 36.6309 44.3596 37.9409 45.9396C38.6109 46.5296 38.9509 47.6796 39.9009 47.8496C40.9709 47.1896 41.7209 46.1096 42.6609 45.2896C44.2209 43.8896 45.4209 42.1496 46.9509 40.7396C47.5309 40.3696 48.2909 41.1096 47.9109 41.6996Z" fill="#FF00BF"/>
<path d="M47.7009 28.6196C46.2909 29.9996 45.0509 31.5396 43.6009 32.8896C42.5709 33.8096 41.5309 34.5996 40.6309 35.6296C40.1209 36.3196 39.4209 36.5596 38.7309 35.9496C36.9609 34.0196 35.4509 31.8196 33.4909 30.0596C32.9109 29.5496 32.3009 29.0996 31.6809 28.6396C31.4009 28.4196 31.1309 28.1396 31.1909 27.7496C31.6009 26.4196 33.0309 27.7496 33.7009 28.1796C36.0309 29.9196 37.7809 32.3096 39.4909 34.6296C41.0309 32.7896 43.0609 31.4396 44.6309 29.6196C45.3009 29.0996 46.9309 26.7796 47.7609 27.7596C47.9409 27.9996 47.9409 28.4096 47.7009 28.6196Z" fill="#FF00BF"/>
</svg>
