<svg width="40" height="57" viewBox="0 0 40 57" fill="none" xmlns="http://www.w3.org/2000/svg">
<g filter="url(#filter0_d_2_251)">
<path d="M8.96176 9.47582C8.00176 9.28582 8.50179 7.11583 8.36179 6.35583C8.23179 4.71583 8.31178 3.08579 8.23178 1.44579C8.07178 0.745795 9.16176 0.415829 9.40176 1.10583C9.55176 1.95583 9.60176 2.8458 9.52176 3.7058C9.58176 5.3358 9.73173 6.9458 9.68173 8.5758C9.72173 9.0058 9.49176 9.56582 8.96176 9.47582Z" fill="#FF7A00"/>
<path d="M30.2717 9.38579C29.9617 7.50579 29.9018 5.5458 29.8518 3.6458C29.8118 2.8358 29.7317 2.03581 29.7217 1.22581C29.7117 0.855813 29.7318 0.345815 30.1118 0.165815C30.5918 -0.094185 31.1117 0.375837 31.0017 0.875837C31.2917 3.35584 31.1717 5.86581 31.4417 8.34581C31.4717 8.64581 31.5117 8.93582 31.5017 9.23582C31.5017 9.95582 30.4217 10.0858 30.2717 9.38579Z" fill="#FF7A00"/>
<path d="M8.65173 52.8658C8.44173 52.7358 8.35175 52.5158 8.29175 52.2958C8.03175 51.1958 8.06176 49.9658 7.99176 48.8758C7.86176 46.8958 7.95173 44.8858 7.96173 42.9158C8.03173 42.5758 8.30174 42.3158 8.66174 42.3258C9.47174 42.3558 9.3617 43.3058 9.3717 43.8758C9.4417 45.1258 9.35171 46.3958 9.38171 47.6358C9.47171 49.0958 9.52173 50.5058 9.58173 51.9458C9.74173 52.5658 9.30173 53.2358 8.65173 52.8658Z" fill="#FF7A00"/>
<path d="M30.2717 54.1458C29.3717 53.7158 29.7317 52.4058 29.6217 51.5858C29.6117 50.1558 29.6317 48.7359 29.5617 47.3459C29.5517 46.3159 29.5217 45.2858 29.4417 44.2658C29.3917 43.6858 29.2417 42.7659 30.0417 42.6659C30.4317 42.6159 30.7817 42.9159 30.8317 43.2959C31.1017 46.5559 31.2017 49.8359 31.0817 53.1059C31.6517 53.6559 30.9017 54.3558 30.2717 54.1458Z" fill="#FF7A00"/>
<path d="M9.22171 20.0058C6.81171 20.0258 3.66171 20.0658 1.97171 18.0558C1.40171 17.1058 1.4917 15.9258 1.3917 14.8558C1.3917 13.2358 1.14171 10.9958 2.40171 9.77579C4.09171 8.46579 6.66169 8.5558 8.70169 8.4758C11.0417 8.0458 14.0917 8.30579 15.5317 10.4658C16.9017 12.6958 16.9317 15.7158 16.0617 18.1358C15.6517 19.1558 14.6117 19.8058 13.5317 19.6958C12.1017 19.9158 10.6817 20.1358 9.22171 20.0058ZM8.9617 18.4158C10.4717 18.5958 11.9617 18.3858 13.4717 18.2958C14.4517 18.4858 14.8017 17.9858 14.9517 17.0758C15.3117 15.7358 15.2517 14.2458 15.0617 12.9058C14.5917 9.62579 11.2517 9.6158 8.6417 9.8458C7.3717 10.1058 6.0717 9.9158 4.8317 10.2858C4.2517 10.4158 3.55167 10.5158 3.18167 11.0158C2.61167 12.9558 2.83171 15.0258 3.03171 17.0058C3.78171 18.1258 5.4917 18.1258 6.7117 18.3758C6.7017 18.3758 6.70168 18.3758 6.69168 18.3758C6.66168 18.3758 6.64173 18.3658 6.61173 18.3658C7.39173 18.4558 8.1717 18.3658 8.9617 18.4158Z" fill="#FF7A00"/>
<path d="M25.0217 19.2858C23.6517 19.1758 22.6417 17.9558 22.7217 16.5958C22.6717 15.1658 22.6117 13.7259 22.8817 12.3159C23.3617 8.99588 27.1717 8.45583 29.9217 8.64583C30.6817 8.35583 31.7417 8.71586 32.5117 8.67586C34.0317 8.65586 35.6717 8.90585 36.8217 9.97585C38.4117 11.6058 38.7417 15.5559 37.8217 17.5559C37.0917 18.6459 35.6017 18.5558 34.4417 18.6458C31.3317 19.1958 28.1517 19.0658 25.0217 19.2858ZM25.1317 17.7058C28.9217 17.3158 32.8017 17.4859 36.5417 16.9159C37.1117 15.4759 37.0617 11.4158 35.3617 10.7158C33.8017 9.92584 32.0417 10.4058 30.3917 10.0058C29.3217 10.2758 28.1217 10.0158 27.0717 10.2858C25.5617 10.6158 24.4917 11.0358 24.2917 12.7258C24.1317 13.5958 24.1917 14.6458 24.1317 15.4658C24.1817 16.3158 23.9317 17.7058 25.1317 17.7058Z" fill="#FF7A00"/>
<path d="M12.5417 42.8458C10.6817 42.7358 8.96169 42.8358 7.12169 42.7658C5.42169 42.7558 3.19172 43.1958 2.21172 41.4058C1.15172 39.4458 0.0717041 34.1258 2.3217 32.7558C2.6317 32.0758 3.39173 32.0158 4.03173 31.9258C4.67173 31.8258 5.30171 31.6958 5.95171 31.7158C8.02171 31.2858 10.1317 31.4458 12.1617 31.9758C13.4617 32.1558 14.8717 32.3459 15.8017 33.3759C16.7917 34.8159 16.6317 36.7658 16.4217 38.4258C16.3317 40.8858 15.2717 43.1658 12.4317 42.8458C12.4417 42.8458 12.5417 42.8458 12.5417 42.8458ZM13.4717 41.3258C14.9517 41.0758 14.7517 39.1558 15.0017 38.0258C15.1517 36.8158 15.2717 35.5458 14.8217 34.3958C14.0717 33.6458 12.9417 33.6258 11.9417 33.5758C10.8617 33.4258 9.81172 33.1358 8.71172 33.1058C7.58172 33.0858 6.47173 33.3558 5.35173 33.2858C4.67173 33.3458 4.17174 33.4658 3.54174 33.4858C3.30174 33.5358 3.19172 33.7859 2.96172 33.8759C1.88172 35.1659 2.50171 39.9158 3.76171 41.0358C4.80171 41.5658 6.25172 41.0558 7.34172 41.2058C9.45172 41.2058 11.3917 41.3558 13.4717 41.3258Z" fill="#FF7A00"/>
<path d="M28.7318 43.6259C25.7518 43.3959 22.7118 42.9159 22.4818 39.3159C22.3718 38.2759 22.3018 37.2259 22.4218 36.1859C22.5618 34.9659 22.5118 33.5558 23.3618 32.5858C24.3618 31.6858 25.9417 31.7658 27.1817 31.6958C28.9217 31.6258 30.6818 31.5559 32.4218 31.6859C33.7118 31.9759 35.1518 31.8659 36.2918 32.5459C38.0018 33.7859 37.9117 36.2759 37.8817 38.1859C37.7217 39.3159 37.6718 40.5459 36.9918 41.4959C34.8918 43.6059 31.5418 43.6759 28.7318 43.6259ZM30.2617 42.0758C31.7117 42.0658 33.2017 41.9159 34.5717 41.4359C35.0917 41.1659 35.7718 41.0159 35.9918 40.4159C36.5218 38.5759 36.5918 36.5159 36.1518 34.6759C35.7218 33.0459 33.6717 33.7359 32.4417 33.3159C30.0917 33.1959 27.7018 33.2559 25.3618 33.2459C24.9818 33.3659 24.4517 33.3358 24.2617 33.7558C23.7217 35.4158 23.7817 37.2258 23.8817 38.9458C24.0317 39.6758 24.0617 40.3658 24.5117 40.8958C26.1217 42.1458 28.3917 41.9358 30.3217 42.0858C30.3117 42.0758 30.2617 42.0758 30.2617 42.0758Z" fill="#FF7A00"/>
<path d="M25.6017 32.2658C25.0417 29.8558 25.0317 27.3758 24.9117 24.9258C24.7817 23.1058 24.6217 21.2758 24.5217 19.4558C24.5017 19.0958 24.4517 18.7258 24.6517 18.4158C24.9517 17.9358 25.7417 18.1558 25.7217 18.7158C26.2917 22.1158 26.2217 25.5658 26.4317 28.9958C26.4617 30.0158 26.5617 31.0158 26.6917 32.0058C26.7417 32.6058 25.8317 32.8258 25.6017 32.2658Z" fill="#FF7A00"/>
<path d="M35.2918 32.8458C34.9418 29.6758 34.6718 26.4758 34.8318 23.2858C35.0918 21.5158 34.9417 19.7458 35.1317 18.2558V18.2658C35.2017 17.9958 35.4318 17.8058 35.7218 17.8258C36.0218 17.8558 36.2118 18.1058 36.2118 18.3958V18.3858C36.2118 18.3758 36.2118 18.3658 36.2118 18.3558C36.2118 18.3658 36.2118 18.3758 36.2118 18.3658C36.6518 21.5758 36.0018 24.7958 36.2218 28.0158C36.2718 29.6058 36.3918 31.1558 36.4618 32.7158C36.4818 33.4358 35.4418 33.5658 35.2918 32.8458Z" fill="#FF7A00"/>
<path d="M4.08171 31.9058C3.77171 29.3258 3.78171 26.7158 3.71171 24.1158C3.60171 22.5358 3.57169 20.9458 3.69169 19.4058C3.74169 19.1058 3.7317 18.7658 3.9517 18.5258C4.2317 18.2258 4.76169 18.2858 4.94169 18.6358C4.98169 22.0058 5.0417 25.5158 5.1417 28.9258C5.2117 29.8558 5.1117 30.7858 5.2017 31.7158C5.2417 32.3558 4.26171 32.5358 4.08171 31.9058Z" fill="#FF7A00"/>
<path d="M13.8117 33.2858C13.4817 31.6658 13.7817 29.9758 13.5617 28.3358C13.4717 26.2258 13.2518 23.9658 13.4018 21.8758C13.4218 21.0958 13.3518 20.3058 13.4018 19.5258C13.4118 19.2558 13.4617 18.9458 13.7017 18.7758C14.1217 18.4758 14.6317 18.8658 14.5817 19.3458C14.7917 21.1458 14.7118 22.9558 14.7918 24.7658C14.7818 26.6058 15.0517 28.5258 14.9417 30.3558C14.9217 31.2658 14.8817 32.1758 14.9417 33.0858C14.9617 33.3758 14.7418 33.6258 14.4618 33.6758C14.1818 33.7258 13.8817 33.5558 13.8117 33.2858Z" fill="#FF7A00"/>
<path d="M11.7117 24.5058C9.91172 24.4758 8.13172 24.3658 6.34172 24.1358C5.57172 24.0658 4.6517 24.2458 4.0117 23.7558C3.6617 23.3258 4.07172 22.7458 4.59172 22.8158C5.92172 22.8458 7.18169 22.7758 8.43169 23.0758C10.3517 23.2158 12.2817 23.2058 14.1917 23.3958C14.4717 23.4458 14.6617 23.7458 14.6317 24.0158C14.5917 24.6158 13.8217 24.5558 13.4317 24.5258C12.8617 24.5458 12.2917 24.5558 11.7117 24.5058Z" fill="#FF7A00"/>
<path d="M31.1317 24.6758C29.9517 24.4458 25.2417 25.1158 25.5017 23.3158C25.5917 22.9058 26.1717 22.7758 26.4317 23.0958C28.1417 23.4258 29.8917 23.1758 31.6117 23.4258C32.8117 23.4258 34.0217 23.2958 35.2217 23.4958C35.8317 23.6158 35.8017 24.5658 35.1817 24.6558C33.8417 24.5958 32.4917 24.7558 31.1317 24.6758Z" fill="#FF7A00"/>
<path d="M36.9117 15.1458C33.7817 14.9358 30.7117 15.1259 27.5817 15.0659C26.1517 15.0659 24.6717 15.2659 23.2717 14.9259C22.9417 14.7959 22.7717 14.4058 22.9417 14.0758C23.1317 13.7158 23.5117 13.7458 23.8517 13.7558C26.3117 13.6158 28.9017 13.5759 31.3117 13.6859C33.3017 13.7959 35.2917 13.6858 37.2617 14.0458C38.0717 14.3458 37.6317 15.3258 36.8217 15.1358C36.8417 15.1458 36.9117 15.1458 36.9117 15.1458Z" fill="#FF7A00"/>
<path d="M36.5817 37.6858C33.1817 37.5658 29.9117 37.2558 26.5317 37.0258C25.3017 37.0258 24.2517 36.9858 23.0817 36.7258C22.3517 36.6358 22.4417 35.5358 23.1917 35.5958C26.9717 35.5658 30.5717 35.8558 34.3217 36.3258C35.0517 36.5058 37.2617 36.1858 37.1917 37.1858C37.1617 37.5258 36.8317 37.7358 36.5017 37.6858C36.5117 37.6858 36.5817 37.6858 36.5817 37.6858Z" fill="#FF7A00"/>
<path d="M12.3418 15.8058C10.0618 15.6758 7.81177 15.7558 5.54177 15.6558C4.78177 15.6458 1.99175 15.8058 2.14175 14.6758C2.39175 13.9358 3.29177 14.4258 3.85177 14.3458C5.70177 14.1958 7.61177 14.3158 9.41177 14.3458C11.5018 14.3758 13.5718 14.6458 15.6618 14.6658C15.9318 14.6858 16.1418 14.9258 16.1618 15.1958C16.1418 15.9758 15.1418 15.7658 14.6118 15.8058C13.8218 15.8058 13.0417 15.8358 12.2517 15.8058C12.2517 15.8058 12.3418 15.8058 12.3418 15.8058Z" fill="#FF7A00"/>
<path d="M13.1018 37.8258C10.1918 37.5758 7.34174 37.6059 4.45174 37.3159C3.62174 37.2259 2.68177 37.4858 1.92177 37.1158C1.37177 36.7658 1.74174 35.8459 2.39174 36.0659C3.31174 36.0159 4.33176 35.8958 5.22176 35.9558C8.69176 36.1258 11.9718 36.4858 15.4018 36.7758C15.6818 36.8058 15.9018 37.0359 15.9118 37.3159C15.9418 38.3259 13.7718 37.7558 13.1018 37.8258Z" fill="#FF7A00"/>
<path d="M12.5518 14.8559C9.86177 14.7459 7.22176 14.7059 4.54176 14.6259C3.96176 14.6059 3.10173 14.9058 2.76173 14.2658C2.52173 13.8258 3.04177 13.3059 3.49177 13.5359C7.21177 13.1659 11.0118 13.7058 14.7418 13.7758C15.0118 13.8158 15.2117 14.0758 15.2017 14.3458C15.1817 14.7658 14.7517 14.9259 14.3817 14.8759C13.7717 14.9059 13.1618 14.8959 12.5518 14.8559Z" fill="#D6FF00"/>
<path d="M33.4818 14.2258C30.5118 14.1258 27.5317 14.0658 24.5617 14.1858C24.3217 14.2158 24.0117 14.0758 23.9517 13.8158C23.7917 12.9758 24.7318 12.9858 25.2918 12.9258C27.1618 12.8358 29.0418 12.9058 30.9218 12.9058C32.7818 12.9658 34.6517 13.0558 36.5117 13.1158C37.1217 13.2158 37.0817 14.1558 36.4617 14.1958C35.4517 14.2458 34.4818 14.2358 33.4818 14.2258Z" fill="#D6FF00"/>
<path d="M12.1118 38.7558C10.2918 38.6258 8.41172 38.6359 6.62172 38.4359C5.27172 38.2259 3.61177 38.4559 2.36177 37.9859C1.86177 37.6259 2.27172 36.7758 2.87172 37.0058C6.35172 37.0658 9.84173 37.5858 13.3217 37.5758C13.3117 37.5758 13.3018 37.5758 13.2818 37.5758C13.2718 37.5758 13.2518 37.5758 13.2418 37.5758C13.6918 37.5458 14.1518 37.5958 14.6018 37.5758C15.3018 37.6058 15.3117 38.6458 14.6217 38.7058C13.7817 38.7258 12.9518 38.7658 12.1118 38.7558Z" fill="#D6FF00"/>
<path d="M32.5717 38.4858C30.2617 38.3058 27.9417 38.1058 25.6317 37.9658C24.9117 37.8458 23.9618 38.0758 23.4218 37.4858C23.1018 37.0358 23.5717 36.4358 24.0817 36.6358C26.3117 36.7358 28.5518 36.8458 30.7818 37.0758C32.6518 37.2758 34.5317 37.3158 36.3917 37.3258C36.6717 37.3758 36.8718 37.6258 36.8618 37.9058C36.8118 38.5658 36.0317 38.4558 35.5617 38.4958C34.5517 38.5658 33.5617 38.5558 32.5717 38.4858Z" fill="#D6FF00"/>
</g>
<defs>
<filter id="filter0_d_2_251" x="0" y="0.0917969" width="39.329" height="56.0922" filterUnits="userSpaceOnUse" color-interpolation-filters="sRGB">
<feFlood flood-opacity="0" result="BackgroundImageFix"/>
<feColorMatrix in="SourceAlpha" type="matrix" values="0 0 0 0 0 0 0 0 0 0 0 0 0 0 0 0 0 0 127 0" result="hardAlpha"/>
<feOffset dy="1"/>
<feGaussianBlur stdDeviation="0.5"/>
<feComposite in2="hardAlpha" operator="out"/>
<feColorMatrix type="matrix" values="0 0 0 0 0.839216 0 0 0 0 1 0 0 0 0 0 0 0 0 0.25 0"/>
<feBlend mode="normal" in2="BackgroundImageFix" result="effect1_dropShadow_2_251"/>
<feBlend mode="normal" in="SourceGraphic" in2="effect1_dropShadow_2_251" result="shape"/>
</filter>
</defs>
</svg>
