<svg width="57" height="40" viewBox="0 0 57 40" fill="none" xmlns="http://www.w3.org/2000/svg">
<g filter="url(#filter0_d_2_251)">
<path d="M46.3266 8.43515C46.5166 7.47515 48.6866 7.97517 49.4466 7.83517C51.0866 7.70517 52.7166 7.78517 54.3566 7.70517C55.0566 7.54517 55.3866 8.63515 54.6966 8.87515C53.8466 9.02515 52.9566 9.07514 52.0966 8.99514C50.4666 9.05514 48.8566 9.20512 47.2266 9.15512C46.7966 9.19512 46.2366 8.96515 46.3266 8.43515Z" fill="#931B76"/>
<path d="M46.4166 29.7451C48.2966 29.4351 50.2566 29.3751 52.1566 29.3251C52.9666 29.2851 53.7666 29.2051 54.5766 29.1951C54.9466 29.1851 55.4566 29.2051 55.6366 29.5851C55.8966 30.0651 55.4266 30.5851 54.9266 30.4751C52.4466 30.7651 49.9366 30.6451 47.4566 30.9151C47.1566 30.9451 46.8666 30.9851 46.5666 30.9751C45.8466 30.9751 45.7166 29.8951 46.4166 29.7451Z" fill="#931B76"/>
<path d="M2.9366 8.12512C3.0666 7.91512 3.28661 7.82513 3.50661 7.76513C4.60661 7.50513 5.83659 7.53515 6.92659 7.46515C8.90659 7.33515 10.9166 7.42512 12.8866 7.43512C13.2266 7.50512 13.4866 7.77513 13.4766 8.13513C13.4466 8.94513 12.4966 8.83509 11.9266 8.84509C10.6766 8.91509 9.40664 8.8251 8.16664 8.8551C6.70664 8.9451 5.29664 8.99511 3.85664 9.05511C3.23664 9.21511 2.5666 8.77512 2.9366 8.12512Z" fill="#931B76"/>
<path d="M1.65658 29.7451C2.08658 28.8451 3.39657 29.2051 4.21657 29.0951C5.64657 29.0851 7.06656 29.1051 8.45656 29.0351C9.48656 29.0251 10.5166 28.9951 11.5366 28.9151C12.1166 28.8651 13.0366 28.7151 13.1366 29.5151C13.1866 29.9051 12.8866 30.2551 12.5066 30.3051C9.24655 30.5751 5.96656 30.6751 2.69656 30.5551C2.14656 31.1251 1.44658 30.3751 1.65658 29.7451Z" fill="#931B76"/>
<path d="M35.7966 8.6951C35.7766 6.2851 35.7366 3.1351 37.7466 1.4451C38.6966 0.875098 39.8766 0.965081 40.9466 0.865081C42.5666 0.865081 44.8066 0.615091 46.0266 1.87509C47.3366 3.56509 47.2466 6.13508 47.3266 8.17508C47.7566 10.5151 47.4966 13.5651 45.3366 15.0051C43.1066 16.3751 40.0866 16.4051 37.6666 15.5351C36.6466 15.1251 35.9966 14.0851 36.1066 13.0051C35.8866 11.5751 35.6666 10.1551 35.7966 8.6951ZM37.3866 8.43509C37.2066 9.94509 37.4166 11.4351 37.5066 12.9451C37.3166 13.9251 37.8166 14.2751 38.7266 14.4251C40.0666 14.7851 41.5566 14.7251 42.8966 14.5351C46.1766 14.0651 46.1866 10.7251 45.9566 8.11508C45.6966 6.84508 45.8866 5.54508 45.5166 4.30508C45.3866 3.72508 45.2866 3.02506 44.7866 2.65506C42.8466 2.08506 40.7766 2.3051 38.7966 2.5051C37.6766 3.2551 37.6766 4.96509 37.4266 6.18509C37.4266 6.17509 37.4266 6.17507 37.4266 6.16507C37.4266 6.13507 37.4366 6.11511 37.4366 6.08511C37.3466 6.86511 37.4366 7.64509 37.3866 8.43509Z" fill="#931B76"/>
<path d="M36.5166 24.4951C36.6266 23.1251 37.8466 22.1151 39.2066 22.1951C40.6366 22.1451 42.0765 22.0851 43.4865 22.3551C46.8065 22.8351 47.3466 26.6451 47.1566 29.3951C47.4466 30.1551 47.0866 31.2151 47.1266 31.9851C47.1466 33.5051 46.8966 35.1451 45.8266 36.2951C44.1966 37.8851 40.2466 38.2151 38.2466 37.2951C37.1566 36.5651 37.2466 35.0751 37.1566 33.9151C36.6066 30.8051 36.7366 27.6251 36.5166 24.4951ZM38.0966 24.6051C38.4866 28.3951 38.3166 32.2751 38.8866 36.0151C40.3266 36.5851 44.3866 36.5351 45.0866 34.8351C45.8766 33.2751 45.3966 31.5151 45.7966 29.8651C45.5266 28.7951 45.7866 27.5951 45.5166 26.5451C45.1866 25.0351 44.7666 23.9651 43.0766 23.7651C42.2066 23.6051 41.1566 23.6651 40.3366 23.6051C39.4866 23.6551 38.0966 23.4051 38.0966 24.6051Z" fill="#931B76"/>
<path d="M12.9566 12.0151C13.0666 10.1551 12.9666 8.43508 13.0366 6.59508C13.0466 4.89508 12.6066 2.6651 14.3966 1.6851C16.3566 0.625104 21.6766 -0.454911 23.0466 1.79509C23.7266 2.10509 23.7866 2.86511 23.8766 3.50511C23.9766 4.14511 24.1066 4.77509 24.0866 5.42509C24.5166 7.49509 24.3566 9.60512 23.8266 11.6351C23.6466 12.9351 23.4566 14.3451 22.4266 15.2751C20.9866 16.2651 19.0366 16.1051 17.3766 15.8951C14.9166 15.8051 12.6366 14.7451 12.9566 11.9051C12.9566 11.9151 12.9566 12.0151 12.9566 12.0151ZM14.4766 12.9451C14.7266 14.4251 16.6466 14.2251 17.7766 14.4751C18.9866 14.6251 20.2566 14.7451 21.4066 14.2951C22.1566 13.5451 22.1766 12.4151 22.2266 11.4151C22.3766 10.3351 22.6666 9.2851 22.6966 8.1851C22.7166 7.0551 22.4466 5.94512 22.5166 4.82512C22.4566 4.14512 22.3366 3.64512 22.3166 3.01512C22.2666 2.77512 22.0166 2.6651 21.9266 2.4351C20.6366 1.3551 15.8866 1.97509 14.7666 3.23509C14.2366 4.27509 14.7466 5.72511 14.5966 6.81511C14.5966 8.92511 14.4466 10.8651 14.4766 12.9451Z" fill="#931B76"/>
<path d="M12.1765 28.2052C12.4065 25.2252 12.8865 22.1852 16.4865 21.9552C17.5265 21.8452 18.5765 21.7752 19.6165 21.8952C20.8365 22.0352 22.2466 21.9852 23.2166 22.8352C24.1166 23.8352 24.0366 25.4151 24.1066 26.6551C24.1766 28.3951 24.2465 30.1552 24.1165 31.8952C23.8265 33.1852 23.9366 34.6252 23.2566 35.7652C22.0166 37.4752 19.5265 37.3851 17.6165 37.3551C16.4865 37.1951 15.2565 37.1452 14.3065 36.4652C12.1965 34.3652 12.1265 31.0152 12.1765 28.2052ZM13.7266 29.7351C13.7366 31.1851 13.8865 32.6751 14.3665 34.0451C14.6365 34.5651 14.7866 35.2452 15.3866 35.4652C17.2266 35.9952 19.2865 36.0651 21.1265 35.6251C22.7565 35.1951 22.0665 33.1451 22.4865 31.9151C22.6065 29.5651 22.5465 27.1752 22.5565 24.8352C22.4365 24.4552 22.4666 23.9251 22.0466 23.7351C20.3866 23.1951 18.5766 23.2551 16.8566 23.3551C16.1266 23.5051 15.4366 23.5351 14.9066 23.9851C13.6566 25.5951 13.8666 27.8651 13.7166 29.7951C13.7266 29.7851 13.7266 29.7351 13.7266 29.7351Z" fill="#931B76"/>
<path d="M23.5366 25.0751C25.9466 24.5151 28.4266 24.5051 30.8766 24.3851C32.6966 24.2551 34.5266 24.0951 36.3466 23.9951C36.7066 23.9751 37.0766 23.9251 37.3866 24.1251C37.8666 24.4251 37.6466 25.2151 37.0866 25.1951C33.6866 25.7651 30.2366 25.6951 26.8066 25.9051C25.7866 25.9351 24.7866 26.0351 23.7966 26.1651C23.1966 26.2151 22.9766 25.3051 23.5366 25.0751Z" fill="#931B76"/>
<path d="M22.9566 34.7652C26.1266 34.4152 29.3266 34.1451 32.5166 34.3051C34.2866 34.5651 36.0566 34.4151 37.5466 34.6051H37.5366C37.8066 34.6751 37.9966 34.9052 37.9766 35.1952C37.9466 35.4952 37.6966 35.6851 37.4066 35.6851H37.4166C37.4266 35.6851 37.4366 35.6851 37.4466 35.6851C37.4366 35.6851 37.4266 35.6851 37.4366 35.6851C34.2266 36.1251 31.0066 35.4752 27.7866 35.6952C26.1966 35.7452 24.6466 35.8651 23.0866 35.9351C22.3666 35.9551 22.2366 34.9152 22.9566 34.7652Z" fill="#931B76"/>
<path d="M23.8966 3.55509C26.4766 3.24509 29.0866 3.2551 31.6866 3.1851C33.2666 3.0751 34.8566 3.04508 36.3966 3.16508C36.6966 3.21508 37.0366 3.20509 37.2766 3.42509C37.5766 3.70509 37.5166 4.23508 37.1666 4.41508C33.7966 4.45508 30.2866 4.51509 26.8766 4.61509C25.9466 4.68509 25.0166 4.58509 24.0866 4.67509C23.4466 4.71509 23.2666 3.73509 23.8966 3.55509Z" fill="#931B76"/>
<path d="M22.5166 13.2851C24.1366 12.9551 25.8266 13.2551 27.4666 13.0351C29.5766 12.9451 31.8366 12.7251 33.9266 12.8751C34.7066 12.8951 35.4966 12.8251 36.2766 12.8751C36.5466 12.8851 36.8566 12.9351 37.0266 13.1751C37.3266 13.5951 36.9366 14.1051 36.4566 14.0551C34.6566 14.2651 32.8466 14.1852 31.0366 14.2652C29.1966 14.2552 27.2766 14.5251 25.4466 14.4151C24.5366 14.3951 23.6266 14.3551 22.7166 14.4151C22.4266 14.4351 22.1766 14.2151 22.1266 13.9351C22.0766 13.6551 22.2466 13.3551 22.5166 13.2851Z" fill="#931B76"/>
<path d="M31.2966 11.1851C31.3266 9.3851 31.4366 7.60511 31.6666 5.81511C31.7366 5.04511 31.5566 4.12509 32.0466 3.48509C32.4766 3.13509 33.0566 3.54511 32.9866 4.06511C32.9566 5.39511 33.0266 6.65507 32.7266 7.90507C32.5866 9.82507 32.5966 11.7551 32.4066 13.6651C32.3566 13.9451 32.0566 14.1351 31.7866 14.1051C31.1866 14.0651 31.2466 13.2951 31.2766 12.9051C31.2566 12.3351 31.2466 11.7651 31.2966 11.1851Z" fill="#931B76"/>
<path d="M31.1266 30.6051C31.3566 29.4251 30.6866 24.7151 32.4866 24.9751C32.8966 25.0651 33.0266 25.6451 32.7066 25.9051C32.3766 27.6151 32.6266 29.3651 32.3766 31.0851C32.3766 32.2851 32.5066 33.4951 32.3066 34.6951C32.1866 35.3051 31.2366 35.2751 31.1466 34.6551C31.2066 33.3151 31.0466 31.9651 31.1266 30.6051Z" fill="#931B76"/>
<path d="M40.6566 36.3851C40.8666 33.2551 40.6766 30.1851 40.7366 27.0551C40.7366 25.6251 40.5366 24.1451 40.8766 22.7451C41.0066 22.4151 41.3966 22.2451 41.7266 22.4151C42.0866 22.6051 42.0566 22.9851 42.0466 23.3251C42.1866 25.7851 42.2266 28.3751 42.1166 30.7851C42.0066 32.7751 42.1166 34.7651 41.7566 36.7351C41.4566 37.5451 40.4766 37.1051 40.6666 36.2951C40.6566 36.3151 40.6566 36.3851 40.6566 36.3851Z" fill="#931B76"/>
<path d="M18.1166 36.0551C18.2366 32.6551 18.5466 29.3851 18.7766 26.0051C18.7766 24.7751 18.8166 23.7251 19.0766 22.5551C19.1666 21.8251 20.2666 21.9151 20.2066 22.6651C20.2366 26.4451 19.9466 30.0451 19.4766 33.7951C19.2966 34.5251 19.6166 36.7351 18.6166 36.6651C18.2766 36.6351 18.0666 36.3051 18.1166 35.9751C18.1166 35.9851 18.1166 36.0551 18.1166 36.0551Z" fill="#931B76"/>
<path d="M39.9966 11.8151C40.1266 9.53515 40.0466 7.28516 40.1466 5.01516C40.1566 4.25516 39.9966 1.46514 41.1266 1.61514C41.8666 1.86514 41.3766 2.76516 41.4566 3.32516C41.6066 5.17516 41.4866 7.08515 41.4566 8.88515C41.4266 10.9752 41.1566 13.0452 41.1366 15.1352C41.1166 15.4052 40.8766 15.6152 40.6066 15.6352C39.8266 15.6152 40.0366 14.6152 39.9966 14.0852C39.9966 13.2952 39.9666 12.5151 39.9966 11.7251C39.9966 11.7251 39.9966 11.8151 39.9966 11.8151Z" fill="#931B76"/>
<path d="M17.9766 12.5751C18.2266 9.66515 18.1966 6.81513 18.4866 3.92513C18.5766 3.09513 18.3166 2.15516 18.6866 1.39516C19.0366 0.845157 19.9566 1.21513 19.7366 1.86513C19.7866 2.78513 19.9066 3.80514 19.8466 4.69514C19.6766 8.16514 19.3166 11.4451 19.0266 14.8751C18.9966 15.1551 18.7666 15.3751 18.4866 15.3851C17.4766 15.4151 18.0466 13.2451 17.9766 12.5751Z" fill="#931B76"/>
<path d="M40.9466 12.0252C41.0566 9.33516 41.0965 6.69515 41.1765 4.01515C41.1965 3.43515 40.8966 2.57512 41.5366 2.23512C41.9766 1.99512 42.4966 2.51516 42.2666 2.96516C42.6366 6.68516 42.0966 10.4852 42.0266 14.2152C41.9866 14.4852 41.7266 14.6851 41.4566 14.6751C41.0366 14.6551 40.8765 14.2251 40.9265 13.8551C40.8965 13.2451 40.9066 12.6352 40.9466 12.0252Z" fill="#868E76"/>
<path d="M41.5766 32.9551C41.6766 29.9851 41.7366 27.0051 41.6166 24.0351C41.5866 23.7951 41.7266 23.4851 41.9866 23.4251C42.8266 23.2651 42.8166 24.2051 42.8766 24.7651C42.9666 26.6351 42.8966 28.5151 42.8966 30.3951C42.8366 32.2551 42.7466 34.1251 42.6866 35.9851C42.5866 36.5951 41.6466 36.5551 41.6066 35.9351C41.5566 34.9251 41.5666 33.9551 41.5766 32.9551Z" fill="#868E76"/>
<path d="M17.0466 11.5852C17.1766 9.76515 17.1666 7.8851 17.3666 6.0951C17.5766 4.7451 17.3466 3.08515 17.8166 1.83515C18.1766 1.33515 19.0266 1.7451 18.7966 2.3451C18.7366 5.8251 18.2166 9.31512 18.2266 12.7951C18.2266 12.7851 18.2266 12.7751 18.2266 12.7551C18.2266 12.7451 18.2266 12.7252 18.2266 12.7152C18.2566 13.1652 18.2066 13.6251 18.2266 14.0751C18.1966 14.7751 17.1566 14.7851 17.0966 14.0951C17.0766 13.2551 17.0366 12.4252 17.0466 11.5852Z" fill="#868E76"/>
<path d="M17.3166 32.0451C17.4966 29.7351 17.6966 27.4151 17.8366 25.1051C17.9566 24.3851 17.7266 23.4352 18.3166 22.8952C18.7666 22.5752 19.3666 23.0451 19.1666 23.5551C19.0666 25.7851 18.9566 28.0251 18.7266 30.2551C18.5266 32.1251 18.4866 34.0051 18.4766 35.8651C18.4266 36.1451 18.1766 36.3452 17.8966 36.3352C17.2366 36.2852 17.3466 35.5051 17.3066 35.0351C17.2366 34.0251 17.2466 33.0351 17.3166 32.0451Z" fill="#868E76"/>
</g>
<defs>
<filter id="filter0_d_2_251" x="0.618412" y="0.473385" width="56.0922" height="39.329" filterUnits="userSpaceOnUse" color-interpolation-filters="sRGB">
<feFlood flood-opacity="0" result="BackgroundImageFix"/>
<feColorMatrix in="SourceAlpha" type="matrix" values="0 0 0 0 0 0 0 0 0 0 0 0 0 0 0 0 0 0 127 0" result="hardAlpha"/>
<feOffset dy="1"/>
<feGaussianBlur stdDeviation="0.5"/>
<feComposite in2="hardAlpha" operator="out"/>
<feColorMatrix type="matrix" values="0 0 0 0 0.839216 0 0 0 0 1 0 0 0 0 0 0 0 0 0.25 0"/>
<feBlend mode="normal" in2="BackgroundImageFix" result="effect1_dropShadow_2_251"/>
<feBlend mode="normal" in="SourceGraphic" in2="effect1_dropShadow_2_251" result="shape"/>
</filter>
</defs>
</svg>
