<svg width="56" height="75" viewBox="0 0 56 75" fill="none" xmlns="http://www.w3.org/2000/svg">
<g filter="url(#filter0_d_24_3885)">
<path d="M10.5549 17.4004C10.0999 14.8497 10.1677 12.185 10.0999 9.61359C10.0612 8.18273 9.98369 6.76224 10.0031 5.33138C10.0127 4.95811 10.0127 4.55374 10.2451 4.25306C10.6614 3.69315 11.6005 4.13899 11.4359 4.84405C11.8039 8.20346 11.6102 11.5836 11.8329 14.943C11.7651 15.814 12.4622 17.6699 11.4263 17.981C11.039 18.0743 10.6421 17.8151 10.5549 17.4004Z" fill="#00FF09"/>
<path d="M15.8142 11.9782C12.6441 11.8878 9.47401 11.8606 6.30388 11.6255C5.60412 11.535 4.77712 11.6616 4.20459 11.2456C3.97134 11.0556 3.95014 10.739 4.07737 10.5039C4.31062 10.0607 4.91496 10.0335 5.40267 10.0154C6.68556 9.97021 7.95785 10.0335 9.24074 10.0878C12.2306 10.1873 15.2205 10.2777 18.2104 10.4406C18.5815 10.4406 18.9102 10.7029 18.995 10.9923C19.1222 12.3129 16.8003 11.942 15.8142 11.9782Z" fill="#00FF09"/>
<path d="M42.0446 52.3587C42.0678 50.2812 41.9751 48.2271 41.7663 46.1729C41.7083 43.6169 41.7663 41.1076 41.4647 38.575C41.4879 37.5246 40.8616 36.1357 41.5575 35.2487C42.091 34.7118 43.0884 35.1787 42.9377 35.949C43.9119 40.2206 43.4712 44.5973 43.8539 48.9273C43.9119 50.0594 43.8655 51.1915 43.8307 52.3236C43.8191 52.7672 43.448 53.1407 43.0189 53.1873C42.5549 53.2224 42.0678 52.8605 42.0446 52.3587Z" fill="#00FF09"/>
<path d="M46.2779 45.3205C43.39 45.3905 40.5369 45.2154 37.6954 44.7136C36.4661 44.5035 35.0975 44.7252 33.9377 44.2467C33.4042 43.8966 33.439 43.0796 33.9957 42.7761C36.4081 42.2743 38.9712 42.9745 41.3952 43.243C44.6542 43.4764 47.9364 43.3597 51.1955 43.4647C51.613 43.4998 51.9609 43.8032 51.9957 44.235C52.0421 44.7019 51.6942 45.0987 51.2419 45.1571C49.595 45.3205 47.9364 45.3555 46.2779 45.3205Z" fill="#00FF09"/>
<path d="M21.6807 70.2801C21.5738 67.8661 21.5292 65.452 21.3064 63.0489C21.2262 62.2078 21.1104 61.3885 21.0213 60.5474C20.9767 60.0886 20.9767 59.5643 21.2797 59.2257C21.7787 58.614 22.7857 59.3567 22.3223 60.1323C22.9372 63.453 23.0352 66.8611 22.9907 70.2364C22.9639 71.2305 21.752 71.2633 21.6807 70.2801Z" fill="#00FF09"/>
<path d="M20.0892 66C19.4548 65.9891 18.8312 65.9564 18.2076 65.8911C17.7883 65.8693 17.2292 65.8039 17.0572 65.3464C16.9174 65.0086 17.0357 64.5619 17.3905 64.4094C18.2291 64.1153 19.1968 64.344 20.0784 64.2678C20.7665 64.246 21.4546 64.2242 22.132 64.2242C23.7877 64.2569 25.4542 64.2242 27.0992 64.0063C27.5078 63.9518 27.8948 64.2569 27.9809 64.6491C28.0776 65.074 27.7981 65.5642 27.3573 65.6514C24.9597 66.0654 22.519 65.9891 20.0892 66Z" fill="#00FF09"/>
</g>
<defs>
<filter id="filter0_d_24_3885" x="0" y="0" width="56" height="76" filterUnits="userSpaceOnUse" color-interpolation-filters="sRGB">
<feFlood flood-opacity="0" result="BackgroundImageFix"/>
<feColorMatrix in="SourceAlpha" type="matrix" values="0 0 0 0 0 0 0 0 0 0 0 0 0 0 0 0 0 0 127 0" result="hardAlpha"/>
<feOffset/>
<feGaussianBlur stdDeviation="2"/>
<feComposite in2="hardAlpha" operator="out"/>
<feColorMatrix type="matrix" values="0 0 0 0 0 0 0 0 0 1 0 0 0 0 0.0352941 0 0 0 0.5 0"/>
<feBlend mode="normal" in2="BackgroundImageFix" result="effect1_dropShadow_24_3885"/>
<feBlend mode="normal" in="SourceGraphic" in2="effect1_dropShadow_24_3885" result="shape"/>
</filter>
</defs>
</svg>
