<svg width="61" height="7" viewBox="0 0 61 7" fill="none" xmlns="http://www.w3.org/2000/svg">
<path d="M60.3067 0.827681C61.6423 2.59901 45.1824 4.78003 43.4462 5.16432C37.7028 5.79615 31.9427 6.47136 26.0798 6.17796C23.4869 6.08273 20.8244 5.60638 18.2543 5.34251C14.0228 4.70287 9.82802 3.71309 5.59947 3.08271C4.44652 2.88685 3.29828 2.62549 2.15224 2.40331C1.55511 2.24799 0.881807 2.25327 0.33931 1.91733C0.0023259 1.66973 0.169499 1.12219 0.575309 1.12159C2.85482 1.30107 5.23969 1.94299 7.49224 2.19783C14.8614 3.43667 22.2414 5.01514 29.6646 4.91362C33.1556 4.94391 36.5916 4.51049 40.0375 4.18891C45.089 3.68047 49.9977 2.83193 54.9274 1.88947C56.0433 1.66231 57.1682 1.44798 58.2095 1.04897C58.8448 0.92322 59.8173 0.113196 60.3067 0.827681Z" fill="url(#paint0_linear_4_4)"/>
<defs>
<linearGradient id="paint0_linear_4_4" x1="0.0224415" y1="1.3341" x2="59.5288" y2="0.842566" gradientUnits="userSpaceOnUse">
<stop offset="0.336804" stop-color="#164A7D" stop-opacity="0.91"/>
<stop offset="0.642299" stop-color="#3C1B69" stop-opacity="0.88"/>
</linearGradient>
</defs>
</svg>
