<svg width="164" height="71" viewBox="0 0 164 71" fill="none" xmlns="http://www.w3.org/2000/svg">
<path d="M162.409 38.0391C160.389 38.2291 158.189 37.8491 156.239 37.6291C146.609 37.4491 136.969 37.7791 127.349 38.1691C123.989 38.2491 120.629 38.1491 117.299 37.7791C114.909 37.6991 107.799 35.9591 106.579 38.0491H106.569C106.559 42.7691 110.289 47.2591 108.579 52.0691C107.719 54.8791 105.479 57.3591 102.549 57.9891C99.3988 58.7191 95.7888 56.9891 94.9088 53.7691C93.9388 50.7791 93.9888 47.5491 94.3388 44.4591C94.7688 40.6091 95.9888 37.1191 95.9388 33.2691C95.6888 27.5991 96.9688 13.8391 87.4788 19.7691C76.9288 28.0491 86.0488 44.3491 85.3988 55.4191C85.3288 59.3791 84.7388 63.5291 82.4388 66.8491C80.1188 70.4391 76.5388 71.7791 72.5588 69.9391C68.4988 68.1491 65.0888 64.5091 63.8288 60.2191C63.1788 57.8191 63.4088 55.2891 63.3488 52.8291C63.3688 49.2491 63.1288 45.6691 63.3188 42.0991C64.0988 31.9591 67.9788 14.0991 59.8288 6.32908C57.3888 4.27908 54.5888 1.90908 51.2388 1.91908C49.6488 2.06908 48.4288 3.32907 47.5188 4.50907C45.7788 6.89907 44.2588 9.51908 43.4288 12.3691C42.8288 14.6291 43.1788 16.9891 43.1388 19.2891C43.0988 22.6091 43.1788 25.9391 43.0888 29.2491C42.8088 32.0291 43.2888 36.6591 39.6688 37.2491C35.5988 37.8591 31.4488 37.5091 27.3488 37.7491C18.7788 38.2191 10.1988 37.9191 1.61876 38.2591C1.10876 38.2391 0.478766 38.2491 0.128766 37.8191C-0.311234 37.2391 0.468763 36.4091 1.07876 36.8291C5.34876 36.6691 9.51876 36.2891 13.7788 36.3391C19.5288 36.4391 25.2588 36.1591 30.9888 35.9491C33.2488 35.8891 35.5088 35.9791 37.7688 35.8791C38.5788 35.7691 39.5088 35.7891 40.2088 35.3291C40.9188 34.5591 40.9088 33.4091 41.0688 32.4291C41.2788 30.2891 41.3088 28.1391 41.2988 25.9891C41.2588 23.4391 41.2388 20.8891 41.2088 18.3391C41.1388 15.8691 40.9588 13.3391 41.8088 10.9691C46.0588 0.35909 50.8488 -4.04091 60.7188 4.52909C67.6188 10.7691 67.0788 21.0991 66.6488 29.6291C66.4288 34.2091 65.3588 38.6991 65.2288 43.2891C65.1588 46.5191 65.3388 49.7491 65.3288 52.9791C65.3588 55.9491 65.0188 59.0991 66.4788 61.8191C69.0088 66.7191 76.7988 72.5991 80.7588 65.9391C82.9288 62.6991 83.3588 58.7991 83.3588 54.9991C83.4188 45.8291 79.0688 36.9791 80.5788 27.7791C81.1888 23.7791 83.3588 19.8391 86.9088 17.7491C89.9088 16.0191 93.7988 15.4591 95.9088 18.7991C98.2488 22.6991 97.7788 27.5191 98.0488 31.8991C98.3788 37.0391 96.3788 41.9291 96.1388 47.0191C96.1388 49.7091 95.9488 53.1091 97.8788 55.2091C99.7588 56.8491 102.759 56.6091 104.559 54.9691C108.789 51.0291 106.479 46.4091 105.179 41.7691C103.619 36.5591 105.829 34.9291 110.879 35.1891C115.859 35.5091 120.789 36.3691 125.799 36.2791C135.559 36.0891 145.319 35.7291 155.079 35.9791C157.529 36.0891 159.949 36.6191 162.409 36.5591C162.819 36.5691 163.159 36.8891 163.159 37.3091C163.159 37.7191 162.819 38.0091 162.409 38.0391Z" fill="url(#paint0_linear_3_283)"/>
<defs>
<linearGradient id="paint0_linear_3_283" x1="5.33169e-07" y1="35.3808" x2="144.699" y2="35.6423" gradientUnits="userSpaceOnUse">
<stop offset="0.270558" stop-color="#36435C" stop-opacity="0.83"/>
<stop offset="1" stop-color="#7C9734" stop-opacity="0"/>
</linearGradient>
</defs>
</svg>
