<svg width="214" height="91" viewBox="0 0 214 91" fill="none" xmlns="http://www.w3.org/2000/svg">
<g filter="url(#filter0_d_24_3638)">
<path d="M15.8779 69.0524C15.4879 68.9424 15.2579 68.5724 15.0779 68.2324C14.6179 67.3424 14.3179 66.3624 14.1479 65.3824C14.1279 64.9824 13.7779 63.2624 14.3579 63.2724C14.5079 63.2824 14.6279 63.4124 14.6179 63.5624C14.5779 65.2424 14.9579 67.0924 15.9779 68.4424C16.5279 68.6124 16.9179 67.5724 17.0879 67.2124C18.8679 61.1224 18.5479 54.6224 18.5679 48.3524C18.3379 45.1324 18.2179 35.1824 15.9579 33.3524V33.3424C14.2879 33.7924 14.3079 38.2724 14.1479 39.7524C14.1479 39.8824 14.0279 40.0024 13.8979 40.0124C13.4079 39.9824 13.6379 39.2924 13.6079 38.9724C13.7479 37.2124 13.7779 35.3324 14.6279 33.7424C15.7979 31.7324 17.0779 33.1624 17.5679 34.7624C19.5279 38.0024 20.7579 69.7624 15.8779 69.0524Z" fill="#00FF09"/>
<path d="M16.928 76.6925C13.508 75.5725 12.048 69.7125 11.548 66.5025C11.468 65.9225 11.448 65.3725 11.438 64.8325C11.418 64.6925 11.528 64.5725 11.658 64.5425C11.968 64.4825 12.018 64.8425 12.038 65.0725C12.138 67.9725 14.108 76.3225 17.758 76.1325C20.518 75.7625 21.258 72.7225 22.158 70.5325C23.038 68.0625 23.258 65.4425 23.358 62.8425C23.648 58.9225 23.448 55.0025 23.158 51.0925C22.868 45.9725 23.248 40.8825 22.838 35.7925C22.478 33.1225 21.858 23.8225 18.618 23.6225C16.918 23.9925 15.788 25.5825 14.628 26.7525C11.668 29.9325 10.858 34.4425 10.858 38.6325C10.998 38.7725 10.888 39.0325 10.688 39.0425C10.258 39.0525 10.278 38.4725 10.278 38.1825C10.298 35.1825 10.648 32.0925 12.018 29.3925C13.368 26.9425 15.298 24.5625 17.788 23.2125C22.468 21.4425 23.208 33.3625 23.568 36.2825C23.838 39.7225 23.688 43.2525 23.748 46.6925C23.698 51.3125 24.368 55.9125 24.168 60.5325C24.008 63.9425 23.968 67.4325 22.798 70.6825C21.798 73.3725 20.498 77.1525 16.928 76.6925Z" fill="#00FF09"/>
<path d="M15.6181 81.8129C10.2481 80.5929 8.37807 70.5529 8.18807 65.8429C8.20807 65.5029 8.70807 65.5129 8.72807 65.8429C8.81807 66.8029 8.89807 67.7529 9.03807 68.7029C9.78807 72.2829 10.3781 76.1529 12.7281 79.0729C13.9381 80.7729 15.7881 81.6529 17.8581 81.1829C19.4981 81.0329 21.0081 80.4029 22.1581 79.2229C23.3581 78.0929 24.6781 77.0329 25.6781 75.7229C28.8381 71.6229 29.5481 66.3229 30.0381 61.3129C30.7481 53.4229 29.7381 45.5529 29.3481 37.6729C29.1081 31.3829 29.2781 24.6729 26.4081 18.9229C25.2181 16.6329 23.8381 14.6129 20.9281 15.0429C18.0481 15.3729 15.2581 16.7829 13.3781 19.0029C9.02807 24.0629 7.36807 29.6029 7.62807 36.2029C7.78807 36.7229 7.21806 36.9929 7.08806 36.4329C6.88806 33.7929 7.01806 31.0729 7.58806 28.4829C8.64806 24.4729 10.7381 20.7329 13.5981 17.7429C15.7781 15.6529 18.8481 14.2929 21.8881 14.3329C25.5181 14.4129 27.0581 18.5029 28.1881 21.3829C30.3281 28.1829 29.7481 35.4129 30.3681 42.4229C30.9681 49.5529 31.3781 56.7529 30.4581 63.8629C29.8181 69.4629 28.0581 75.2529 23.4581 78.8629C22.4781 79.7729 21.4881 80.7629 20.2181 81.2529C18.7481 81.7429 17.1581 82.0129 15.6181 81.8129Z" fill="#00FF09"/>
<path d="M63.9179 69.0225C62.4179 68.6525 62.1679 66.0925 61.7779 64.8125C61.6379 64.1725 61.5079 63.5225 61.4179 62.8625C61.3979 62.7025 61.4879 62.5425 61.6579 62.5125C61.8179 62.4825 61.9779 62.5925 62.0079 62.7525C62.2779 63.8925 62.8779 68.1925 64.0279 68.4425C64.0779 68.4325 64.1279 68.4325 64.1679 68.4125C64.1979 68.3925 64.2379 68.3825 64.2379 68.3825C64.7979 67.9325 65.2879 67.4225 65.6879 66.8425C66.2779 65.3725 66.3479 63.7225 66.5779 62.1625C67.2479 55.1525 66.5479 48.1325 66.1079 41.1325C65.6879 37.5325 66.1179 25.0725 63.6079 23.2525C62.6379 22.7625 61.6479 27.2125 61.3279 27.9525C60.6079 30.4925 60.1979 33.1525 60.0479 35.7725C60.3279 36.0425 59.8579 36.3725 59.6279 36.1325C59.4579 35.9925 59.4679 35.6925 59.4679 35.5125C59.4879 34.4025 59.6279 33.2925 59.7779 32.1925C60.2379 29.1125 60.9879 25.9925 62.4379 23.2225C65.0879 20.4125 66.0179 28.1325 66.1179 29.6725C66.5179 34.5525 66.6279 39.4525 66.9879 44.3425C67.4579 50.7325 67.8479 57.2025 67.0179 63.5825C66.7279 65.0625 66.7379 66.7925 65.5779 67.9025C65.1179 68.3725 64.6579 69.0725 63.9179 69.0225Z" fill="#00FF09"/>
<path d="M66.198 74.4432C62.378 74.0932 59.7881 68.6632 58.8881 65.3632C58.8881 64.9832 58.4381 64.0532 58.9381 63.9032C59.0981 63.8732 59.2581 63.9832 59.2881 64.1432C59.3781 64.6232 59.4581 65.1032 59.5681 65.5732C61.1981 71.0932 66.5581 78.3932 70.5981 70.0432C71.4781 67.2532 71.5281 64.3232 71.7881 61.4332C72.0681 57.7532 71.8981 54.0832 71.7681 50.4032C71.6781 46.5432 71.5681 42.6832 71.2081 38.8432C70.6981 31.8032 69.6781 24.7832 66.7681 18.2932C65.9181 15.8532 64.1281 12.4132 61.5781 15.5832C60.1981 17.2132 59.2181 19.1132 58.5081 21.1132C57.5681 23.6732 57.0381 26.4332 56.6081 29.1032C56.4681 30.7332 55.8881 32.4832 56.3181 34.0832C56.6381 34.1332 56.5981 34.6132 56.2781 34.5932C54.4781 34.4332 56.7881 24.6132 57.1781 23.1732C57.9381 20.4032 60.6981 12.7532 64.3881 13.8332C66.1581 14.5832 66.768 16.6232 67.448 18.2532C68.408 20.6932 69.3881 23.1332 70.0081 25.6932C72.0581 34.6632 72.2981 43.9432 72.5781 53.1032C72.7481 57.0432 72.6081 60.9932 72.2081 64.9132C71.9481 67.1232 71.7781 69.4632 70.6481 71.4232C69.6781 72.9532 68.108 74.4532 66.198 74.4432Z" fill="#00FF09"/>
<path d="M65.0879 78.6827C59.0879 78.3627 56.3479 69.3027 55.3779 64.3727C55.3579 64.2127 55.4479 64.0628 55.6079 64.0328C55.7579 64.0028 55.9179 64.1128 55.9479 64.2628C56.0379 64.7428 56.1379 65.1827 56.2579 65.6227C57.4079 70.0827 60.1779 78.7128 65.9679 78.0128C70.4179 77.4628 71.1979 77.5928 73.9979 73.8028C76.8879 69.3728 75.8879 59.7628 75.8979 54.4628C75.6679 48.3128 75.3079 42.1528 74.7079 36.0228C74.3079 30.8428 74.2579 25.5928 73.0479 20.5128C72.4979 18.0228 71.4979 15.6928 70.4879 13.3628C69.7379 11.7528 69.0879 9.86278 67.5279 8.85278C65.7079 7.79278 63.3779 8.25277 61.5379 9.03277C58.8579 10.5728 56.6779 12.9728 54.9279 15.4828C53.0379 18.6328 52.6779 22.3527 52.5079 25.9427C52.4979 28.4127 52.0379 31.0028 52.5279 33.4228C52.8079 33.5328 52.6579 33.9528 52.3779 33.8928C51.9979 33.8228 51.9279 33.3428 51.8679 33.0228C51.5579 30.4328 51.8179 27.8028 51.8979 25.2028C52.0879 20.9228 52.8579 16.3627 55.8879 13.1227C57.4779 11.3527 59.1379 9.54275 61.2779 8.44275C63.2679 7.59275 65.7479 7.14273 67.7279 8.24273C69.3279 9.15273 70.0879 10.9428 70.8379 12.5428C71.8279 14.8328 72.8479 17.1128 73.4779 19.5328C75.3479 26.9228 75.0879 34.6228 75.9279 42.1628C76.3979 49.0128 76.7079 55.8827 76.7479 62.7427C76.6879 65.9627 76.4679 69.2628 75.4879 72.3428C74.8179 74.0928 73.4979 75.5027 72.1879 76.8127C70.3079 78.5627 67.4779 78.3827 65.0879 78.6827Z" fill="#00FF09"/>
<path d="M110.828 71.5527C108.878 70.7627 108.898 67.4127 108.678 65.6127C108.598 64.4027 108.508 63.1926 108.518 61.9726C108.498 61.5826 109.098 61.5626 109.108 61.9426C109.278 64.5326 109.188 67.2426 109.978 69.7226C110.358 70.7326 111.118 71.7526 111.778 70.2326C113.368 66.5626 113.568 62.4826 113.328 58.5426C113.088 54.4526 112.978 50.3526 112.468 46.2826C112.048 42.9726 111.708 39.7126 111.258 36.4326C111.038 34.8926 110.828 33.3126 110.388 31.8226C110.198 31.3326 110.058 30.5426 109.528 30.3726C108.348 32.2826 108.258 34.7026 108.058 36.8826C108.338 37.0026 108.218 37.3026 108.008 37.4126C107.038 37.9626 107.618 35.4926 107.578 35.0326C107.698 32.8126 109.258 26.4926 111.048 31.7926C111.908 35.0726 112.158 38.4926 112.608 41.8326C113.278 46.7726 113.708 51.6826 113.888 56.6626C114.108 60.3926 114.258 64.2026 113.248 67.8326C112.808 68.9726 112.398 71.7327 110.828 71.5527Z" fill="#00FF09"/>
<path d="M110.868 77.1723C105.668 76.0223 105.468 67.6223 104.918 63.3223C104.898 62.9723 105.418 62.9223 105.478 63.2523C105.738 64.9523 105.838 66.5923 106.128 68.2723C106.688 70.9723 107.278 74.7423 109.878 76.1623C110.848 76.7223 112.018 76.7723 112.978 76.1923C115.728 74.5523 117.138 72.4323 117.578 69.2723C118.838 59.6423 117.398 49.9623 116.048 40.4223C115.438 36.8523 114.328 20.2723 109.738 20.7123C108.248 20.9923 107.178 22.2823 106.318 23.4323C103.968 26.8323 103.588 31.2523 103.748 35.2723C103.788 35.6023 103.848 35.9323 103.918 36.2623C103.948 36.3923 103.848 36.5323 103.718 36.5623C103.578 36.5923 103.458 36.4923 103.418 36.3623C102.928 34.5723 103.078 32.6923 103.238 30.8623C103.488 28.0123 104.158 25.1023 105.938 22.8023C111.058 16.3623 113.608 22.5823 114.728 27.7823C116.148 33.7423 116.498 39.9023 117.508 45.9423C118.368 54.4023 119.708 63.1523 117.678 71.5323C117.018 74.0423 113.608 77.6423 110.868 77.1723Z" fill="#00FF09"/>
<path d="M111.418 83.1131C108.118 82.3231 106.208 79.5531 105.028 76.5731C103.628 73.4831 102.468 70.2731 101.908 66.9131C101.718 65.9831 101.498 65.0531 101.378 64.1031C101.358 63.9731 101.478 63.8431 101.598 63.8231C101.738 63.7931 101.888 63.8931 101.918 64.0331C102.648 68.0431 103.588 72.0031 105.318 75.7131C106.318 77.9131 107.268 80.3731 109.498 81.6031C111.668 83.0531 113.108 82.5931 115.318 81.5431C119.898 79.4431 121.708 73.2531 122.228 68.6131C122.558 64.8631 121.988 61.1431 121.758 57.4131C121.188 49.8831 119.858 42.4731 118.878 35.0031C118.148 27.9131 117.408 20.7231 114.878 14.0131C113.878 11.6731 111.628 8.32313 108.728 9.80313C104.878 11.5231 103.218 14.4231 102.028 18.3031C100.598 23.2331 100.188 28.4431 100.108 33.5431C100.158 33.8831 100.218 34.2531 100.398 34.5331C100.578 34.8131 100.158 35.0731 99.9783 34.8031C99.8683 34.6631 99.7883 34.5031 99.7283 34.3331C99.1983 32.1831 99.6882 29.9131 99.7482 27.7331C100.098 23.0431 100.848 18.2631 103.038 14.0531C104.158 11.8231 106.258 10.2331 108.478 9.18308C117.128 5.59308 118.838 28.9331 119.438 34.2231C120.218 40.4931 121.338 46.7231 121.988 53.0131C122.348 56.1931 122.558 59.3831 122.818 62.5731C123.088 65.9531 123.108 69.4331 122.108 72.6931C121.228 75.7831 119.928 78.9431 117.378 81.0231C116.758 81.5131 116.068 81.8931 115.348 82.2031C114.108 82.7431 112.778 83.4031 111.418 83.1131Z" fill="#00FF09"/>
<path d="M194.618 68.8127C192.958 68.2727 192.878 66.0628 192.598 64.6128C192.538 64.4328 192.548 64.2127 192.748 64.1427C192.908 64.0827 193.068 64.1627 193.138 64.3127C193.358 65.0527 193.388 65.8828 193.638 66.6128C194.588 70.0428 196.528 67.0327 196.858 65.1327C197.718 59.6127 197.488 54.0127 196.898 48.4627C196.328 44.8127 196.598 40.9427 195.248 37.4627C195.018 37.0127 194.468 35.7427 193.888 36.0827C193.338 36.7627 193.028 37.6127 192.758 38.4327C192.668 38.8627 192.408 39.3527 192.628 39.7527C192.908 40.0027 192.598 40.4227 192.308 40.1727C191.998 39.9327 191.908 39.5427 191.968 39.1827C192.058 38.4327 192.308 37.7227 192.598 37.0327C193.198 35.5827 194.158 34.6027 195.328 36.2827C196.558 38.2127 196.788 40.5627 196.998 42.7927C197.178 44.9427 197.448 47.0727 197.668 49.2127C198.138 53.5127 198.318 57.8327 197.888 62.1427C197.688 64.4227 197.488 68.4627 194.618 68.8127Z" fill="#00FF09"/>
<path d="M195.088 73.2429C192.258 73.1729 190.788 70.263 190.208 67.843C190.008 66.903 189.788 65.9629 189.658 65.0029C189.618 64.8229 189.668 64.6129 189.868 64.5629C190.018 64.5229 190.198 64.623 190.228 64.783C190.508 66.173 190.758 67.5529 191.218 68.8929C191.738 70.2829 192.528 71.723 193.928 72.343C195.258 72.743 196.828 72.783 198.038 72.053C200.308 70.443 200.158 65.773 200.558 63.223C200.958 56.623 201.448 49.963 200.908 43.353C200.708 40.823 200.048 38.383 199.498 35.913C198.848 32.313 196.878 27.373 192.918 31.473C191.578 32.983 189.878 37.713 190.348 39.673C190.468 39.953 190.038 40.1429 189.898 39.8829C189.368 38.7829 189.888 37.483 190.078 36.363C190.578 34.383 191.238 32.273 192.658 30.783C196.768 26.883 199.338 31.2629 200.098 35.2529C200.848 38.4329 201.628 41.623 201.758 44.903C201.998 48.623 201.828 52.373 201.708 56.103C201.558 59.863 201.388 63.623 200.818 67.343C200.408 70.753 199.088 73.7729 195.088 73.2429Z" fill="#00FF09"/>
<path d="M196.268 79.6424C190.438 79.8324 188.198 73.4424 187.198 68.7024C187.098 67.9924 187.008 67.2924 186.878 66.5924C186.858 66.1724 186.348 64.8924 186.968 64.7824C187.158 64.7724 187.288 64.9524 187.288 65.1324C187.658 66.8124 187.738 68.5724 188.228 70.2124C189.018 72.6124 189.748 75.1424 191.558 76.9924C192.958 78.7523 195.378 79.1624 197.498 78.8824C199.578 78.5124 201.018 76.8524 201.908 75.0424C202.608 73.6924 203.358 72.3524 203.798 70.8824C205.328 66.0624 205.498 60.9924 205.518 55.9824C205.528 52.2124 205.668 48.4324 205.158 44.6924C204.438 40.5824 202.908 21.2924 197.378 22.2824C194.318 22.6924 190.818 25.0224 189.218 27.6524C188.508 28.9224 188.158 30.3524 187.698 31.7324C187.298 33.2624 186.588 34.8424 186.818 36.4424C187.068 36.8124 186.558 37.1324 186.378 36.7324C186.288 36.5724 186.228 36.4024 186.208 36.2224C186.088 34.4724 186.728 32.7724 187.168 31.1124C187.728 29.2224 188.298 27.2324 189.688 25.7624C191.908 23.5524 195.678 20.8424 198.948 21.7824C203.258 23.9124 204.168 34.1924 205.048 38.6524C205.988 44.0824 206.468 49.5724 206.258 55.0824C206.188 58.7624 206.248 62.4624 205.588 66.0924C205.138 69.4624 204.108 72.6524 202.398 75.5924C201.278 77.9424 198.968 79.8324 196.268 79.6424Z" fill="#00FF09"/>
<path d="M156.528 67.2428C155.558 66.6728 155.188 65.4328 154.828 64.4228C154.788 64.0428 154.278 63.3928 154.778 63.1728C154.938 63.1328 155.088 63.2328 155.138 63.3928C155.258 63.7628 155.358 64.1028 155.478 64.4628C155.738 65.2128 156.058 65.9628 156.578 66.5628C156.658 66.6228 156.718 66.7028 156.808 66.7028C157.278 66.3228 157.548 65.8228 157.848 65.3228C158.558 63.4028 158.428 61.2828 158.558 59.2728C158.668 57.1028 158.788 54.9128 158.688 52.7428C158.688 52.7528 158.688 52.7628 158.688 52.7628C158.498 48.8528 157.998 44.9528 157.548 41.0628C157.328 37.9628 156.068 34.0328 154.808 39.6128C154.818 39.9328 154.488 40.1928 154.268 39.8828C154.158 38.9028 154.958 35.8928 156.298 36.1928C158.158 36.8528 158.048 40.5828 158.348 42.2628C158.608 44.3928 158.918 46.5128 159.048 48.6528C159.458 52.1328 159.458 55.6228 159.218 59.1128C158.998 61.7828 159.408 64.9428 157.348 67.0028C157.158 67.2328 156.828 67.3728 156.528 67.2428Z" fill="#00FF09"/>
<path d="M156.128 72.2726C153.878 70.9126 152.708 66.8826 151.938 64.4426C151.848 64.0626 152.428 63.9326 152.518 64.3026C153.358 66.7426 154.118 69.3626 155.848 71.3326C157.148 72.6226 158.888 71.2126 159.738 70.0926C160.958 67.7726 161.408 65.0826 161.828 62.5126C162.268 59.9826 162.488 57.4526 162.318 54.8926C162.048 49.9626 161.368 45.0526 160.408 40.2126C159.938 37.6226 159.498 35.0226 158.588 32.5426C158.058 31.1726 157.428 29.7426 156.318 28.7326C156.148 28.6126 155.958 28.5026 155.748 28.4926C153.328 28.8326 152.618 33.2826 151.818 35.2226C151.558 36.1426 151.118 37.2026 151.508 38.1426C151.568 38.2626 151.528 38.4226 151.408 38.4826C150.548 38.6426 150.818 36.4226 150.988 35.9326C151.638 33.7826 152.188 31.5426 153.308 29.5826C159.758 20.5926 162.758 50.0126 162.958 53.2926C163.318 57.8126 162.838 62.4026 161.638 66.7726C161.148 68.2426 160.918 69.9326 159.718 71.0326C158.818 72.0126 157.458 72.8526 156.128 72.2726Z" fill="#00FF09"/>
<path d="M156.208 80.0926C153.268 79.7626 151.798 76.7326 151.098 74.1826C150.088 70.9326 148.178 67.6926 148.698 64.1826C148.748 63.8526 149.248 63.9126 149.238 64.2326C148.978 67.0626 150.188 69.7026 151.158 72.2826C151.868 74.0126 152.138 75.9626 153.248 77.5026C155.338 80.1526 157.308 79.8426 159.868 78.0126C161.488 76.5626 162.318 74.4827 163.228 72.5527C163.878 71.0527 164.578 69.5826 164.888 67.9826C165.548 64.3326 165.588 60.6126 165.538 56.9126C165.668 52.2326 165.298 47.5826 165.188 42.9026C165.198 37.7626 165.158 32.6026 164.228 27.5326C163.818 24.9826 162.828 22.4626 160.798 20.7726C159.708 19.7326 158.128 18.8026 156.648 19.6026C153.368 21.1326 151.588 24.4226 150.548 27.7326C149.668 30.5526 148.678 33.4626 148.648 36.4426C148.638 36.6526 148.888 36.7426 148.818 36.9526C148.648 37.3626 148.198 36.9726 148.148 36.6826C147.878 34.8526 148.438 32.9526 148.818 31.1826C149.538 28.3926 150.348 25.5526 151.848 23.0626C153.178 20.9726 156.088 18.0826 158.768 18.7826C161.268 19.7426 163.228 22.0326 164.128 24.5226C166.358 31.6526 165.668 39.2426 166.038 46.5926C166.328 51.1726 166.278 55.7626 166.268 60.3426C166.168 64.4026 165.938 68.5626 164.118 72.2626C162.628 75.7726 160.578 79.9926 156.208 80.0926Z" fill="#00FF09"/>
</g>
<defs>
<filter id="filter0_d_24_3638" x="0" y="0.591797" width="213.307" height="89.5918" filterUnits="userSpaceOnUse" color-interpolation-filters="sRGB">
<feFlood flood-opacity="0" result="BackgroundImageFix"/>
<feColorMatrix in="SourceAlpha" type="matrix" values="0 0 0 0 0 0 0 0 0 0 0 0 0 0 0 0 0 0 127 0" result="hardAlpha"/>
<feOffset/>
<feGaussianBlur stdDeviation="3.5"/>
<feComposite in2="hardAlpha" operator="out"/>
<feColorMatrix type="matrix" values="0 0 0 0 0 0 0 0 0 1 0 0 0 0 0.0352941 0 0 0 1 0"/>
<feBlend mode="normal" in2="BackgroundImageFix" result="effect1_dropShadow_24_3638"/>
<feBlend mode="normal" in="SourceGraphic" in2="effect1_dropShadow_24_3638" result="shape"/>
</filter>
</defs>
</svg>
