<svg width="314" height="128" viewBox="0 0 314 128" fill="none" xmlns="http://www.w3.org/2000/svg">
<path d="M268.801 107.206C265.571 106.416 262.181 106.706 258.881 106.656C256.341 106.686 253.791 106.726 251.241 106.746C235.891 106.646 220.531 106.646 205.181 106.466C192.421 106.246 179.701 105.186 166.941 105.016C154.291 104.726 141.631 104.986 128.981 104.576C113.841 104.346 98.7012 104.196 83.5612 104.506C69.7812 105.036 56.0012 105.316 42.2312 105.896C38.2412 106.126 34.2412 106.206 30.2412 106.126C29.8412 106.116 29.5112 105.806 29.5112 105.396C29.5112 104.986 29.8412 104.676 30.2412 104.666C35.2612 104.576 40.2812 104.436 45.2912 104.126C60.1912 103.616 75.0912 102.986 90.0012 102.596C105.201 102.526 120.411 102.426 135.611 102.876C148.151 103.126 160.691 102.936 173.231 103.336C183.381 103.626 193.511 104.356 203.661 104.606C221.041 104.826 238.421 104.936 255.791 105.076C258.231 105.176 270.021 104.656 269.571 106.746C269.481 107.086 269.121 107.306 268.801 107.206Z" fill="#597FFC"/>
<path d="M27.9814 127.437C27.6014 127.427 27.2714 127.157 27.2214 126.777C27.1714 126.377 27.4614 125.957 27.8814 125.917C28.8914 125.827 29.9114 125.797 30.9214 125.767C36.5514 125.557 42.1814 125.567 47.8114 125.357C58.8314 125.067 69.8414 124.277 80.8614 123.827C88.1414 123.547 95.4014 122.927 102.691 122.967C122.451 122.767 142.201 123.187 161.951 123.247C181.881 123.367 201.831 122.627 221.741 123.487C226.641 123.747 231.541 123.707 236.441 123.777C241.401 123.817 246.341 124.467 251.251 124.497C254.401 124.507 257.541 124.507 260.691 124.537C262.651 124.457 264.761 124.947 266.611 124.187C266.991 123.457 266.661 122.467 266.741 121.647C266.681 118.937 267.021 116.247 267.321 113.557C267.391 111.847 267.381 110.117 267.731 108.427C267.821 107.977 267.931 107.537 268.061 107.107C268.061 106.737 268.261 106.347 268.661 106.297C269.271 106.207 269.631 106.937 269.511 107.477C269.001 109.617 269.051 111.767 268.931 113.937C268.821 115.217 268.571 116.557 268.491 117.817C268.371 119.587 268.361 121.367 268.381 123.147C268.431 124.387 268.151 125.447 266.871 125.907C265.011 126.567 262.961 126.277 261.021 126.327C254.551 126.327 248.031 126.437 241.591 125.817C236.651 125.477 231.701 125.607 226.761 125.517C221.751 125.397 216.741 125.147 211.721 125.047C194.301 124.717 176.891 125.147 159.471 125.097C147.111 125.157 134.761 124.727 122.401 124.827C112.751 124.897 103.091 124.647 93.4414 125.007C85.1414 125.577 76.9214 125.777 68.6314 126.217C63.5714 126.397 58.5314 126.867 53.4714 126.947C44.9714 127.217 36.4714 127.157 27.9814 127.437Z" fill="#597FFC"/>
<path d="M27.4213 126.467C27.3313 125.097 27.5113 123.707 27.7013 122.347C28.0313 119.417 28.2713 116.417 28.5713 113.497C28.7013 111.527 28.7313 109.547 29.0313 107.597C29.2013 106.907 29.1913 106.037 29.7313 105.507C30.1813 105.147 30.8713 105.557 30.8713 106.097C30.1913 108.847 30.3313 111.727 30.0513 114.547C29.6613 117.897 29.3913 121.277 28.9213 124.617C28.7513 125.387 29.2513 126.837 28.2313 127.077C27.8413 127.127 27.4813 126.847 27.4213 126.467Z" fill="#597FFC"/>
<path d="M273.961 114.377C273.351 114.347 272.741 114.287 272.131 114.307C271.781 114.317 271.481 114.037 271.431 113.697C271.381 113.327 271.651 112.937 272.041 112.897C275.101 112.987 278.141 112.777 281.071 111.797C286.161 110.357 290.861 107.847 295.311 105.057C299.821 102.307 304.011 99.0468 307.101 94.7368C308.661 92.6368 310.171 90.5868 311.041 88.1368C312.901 82.2768 311.111 74.7368 309.511 68.9268C307.951 64.0468 305.761 59.3468 303.001 55.0468C299.681 49.9668 295.461 45.5568 292.251 40.4068C286.611 31.7068 284.161 20.4468 287.441 10.4368C288.351 7.52681 289.401 4.65682 290.681 1.88682C290.951 1.35682 291.291 0.446792 292.011 0.796792C292.301 0.966792 292.371 1.29681 292.261 1.56681C290.671 5.03681 289.441 8.68681 288.431 12.3768C286.441 19.5268 287.781 27.1668 290.591 33.9068C292.701 38.7068 295.861 42.9468 299.111 47.0268C305.331 54.5368 310.261 63.2968 312.261 72.9068C313.321 78.5068 314.511 84.6568 312.041 90.0368C309.591 94.7268 306.171 98.9768 302.061 102.317C294.701 107.927 283.391 114.547 273.961 114.377Z" fill="white"/>
<path d="M3.8614 112.337C2.8814 112.027 1.8614 111.327 1.0114 110.847C0.601397 110.597 0.0313951 110.267 0.00139514 109.727C-0.0386049 109.097 0.791396 108.747 1.2214 109.187C1.9214 109.937 5.2614 110.647 4.6614 111.957C4.5214 112.257 4.1814 112.397 3.8614 112.337Z" fill="white"/>
<path d="M15.1512 116.507C13.7312 116.387 12.3712 115.797 11.0212 115.347C10.1912 115.117 9.82124 114.067 10.8212 113.797C10.8112 113.797 10.8112 113.807 10.8012 113.807C11.0312 113.727 11.2912 113.777 11.4612 113.947C12.4312 114.317 15.9812 114.627 15.7912 115.967C15.7312 116.257 15.4612 116.517 15.1512 116.507Z" fill="white"/>
<path d="M21.9016 117.747C21.5416 117.667 21.2916 117.456 21.2016 117.086C21.1516 116.866 21.2316 116.617 21.3616 116.437C21.3316 116.487 21.3116 116.526 21.2916 116.576C21.4316 116.186 21.9416 116.006 22.2816 116.266C23.3316 116.126 24.3416 116.076 25.3716 116.276C26.1816 116.456 26.0716 117.657 25.2516 117.697C24.1316 117.747 23.0116 117.767 21.9016 117.747Z" fill="white"/>
</svg>
