<svg width="73" height="42" viewBox="0 0 73 42" fill="none" xmlns="http://www.w3.org/2000/svg">
<g filter="url(#filter0_d_2_145)">
<path d="M5.30897 17.8614C5.42897 14.6314 5.64898 11.4714 6.19898 8.30137C6.47898 7.18137 7.28893 6.05137 8.33893 5.55137C9.25893 5.25137 10.229 5.23137 11.189 5.12137C15.059 4.72137 18.949 5.36138 22.829 5.19138C24.829 5.23138 26.809 5.06137 28.809 4.99137C31.689 4.93137 34.569 5.05136 37.439 4.89136C40.029 4.61136 42.6289 4.74139 45.2289 4.79139C48.8489 4.78139 52.479 4.79138 56.079 5.25138C57.309 5.44138 58.959 5.20137 60.269 5.55137C60.229 5.87137 60.209 6.20138 60.219 6.53138C60.219 6.62138 60.2289 6.71137 60.2289 6.80137C58.8089 6.31137 57.129 6.67137 55.649 6.49137C54.499 6.42137 53.3489 6.28139 52.1989 6.17139C48.7289 6.01139 45.249 6.23138 41.779 6.06138C37.659 6.04138 33.5289 6.37137 29.4089 6.24137C26.0989 6.37137 22.7789 6.53136 19.4689 6.39136C16.4989 6.34136 13.529 5.96137 10.579 6.40137C9.93899 6.48137 9.26894 6.48139 8.65894 6.67139C7.47894 7.59139 7.28894 9.05138 7.21894 10.4414C6.86894 13.1314 6.74894 15.8614 6.71894 18.5714C6.67894 20.0914 6.77897 21.5814 6.87897 23.0714C6.97897 24.5114 7.06895 25.9514 7.03895 27.4114C6.93895 28.6114 7.09894 29.8014 7.09894 31.0014C6.98894 32.0014 7.14898 33.2814 8.38898 33.4014C12.139 33.6814 15.909 33.6514 19.669 33.8014C22.809 33.8614 25.949 34.0714 29.079 33.8114C34.669 33.2214 40.289 33.0914 45.919 33.2314C50.629 33.1614 55.349 33.0114 60.049 32.7014C60.069 33.1214 60.129 33.5414 60.249 33.9514C59.449 34.0414 58.659 34.0314 57.859 34.1514C52.159 34.6114 46.429 34.5614 40.709 34.5314C36.089 34.4514 31.519 34.9914 26.919 35.2814C21.469 35.4014 16.019 35.0114 10.569 34.8014C5.03898 34.9214 5.80893 32.2014 5.64893 27.8414C5.70893 26.2114 5.59895 24.5914 5.47895 22.9714C5.38895 21.6614 5.29896 20.3414 5.29896 19.0314C5.28896 18.6314 5.28897 18.2414 5.30897 17.8614Z" fill="#00FF09"/>
<path d="M12.939 28.1814C13.059 25.3514 12.869 22.5114 13.029 19.6814C13.039 18.2914 13.169 16.9114 13.309 15.5314C13.429 13.9214 13.339 12.2714 13.479 10.6814C13.589 10.3814 14.019 10.2914 14.239 10.5314C14.579 10.9714 14.519 11.7214 14.589 12.2114C14.739 14.1314 14.649 16.0314 14.439 17.9314C14.339 21.6914 14.319 25.4514 14.179 29.2114C14.159 29.6314 13.969 30.1914 13.459 30.1114C12.659 29.9214 13.039 28.8014 12.939 28.1814Z" fill="#00FF09"/>
<path d="M20.949 25.8614C21.129 21.4714 21.0289 17.0814 21.2389 12.6914C21.2589 12.2014 21.2589 11.7014 21.1789 11.2114C21.1489 10.9814 21.069 10.7314 21.199 10.5114C21.379 10.1914 21.889 10.2214 22.019 10.5614C22.019 10.5614 22.0189 10.5614 22.0289 10.5614C22.6089 11.6814 22.4389 12.9814 22.4389 14.2014C22.4289 15.4414 22.5689 16.6714 22.4989 17.9114C22.3489 21.8914 22.359 25.9114 22.139 29.8814C21.959 30.3714 21.1789 30.3214 21.0589 29.8114C20.8789 28.5114 20.929 27.1714 20.949 25.8614Z" fill="#00FF09"/>
<path d="M59.2289 6.06138C59.2389 6.04138 59.249 6.0214 59.249 6.0114C59.379 5.7914 59.639 5.72138 59.879 5.68138C60.089 5.48138 60.409 5.57139 60.649 5.69139C61.039 5.82139 61.139 6.24137 61.179 6.61137C61.299 7.21137 61.2889 7.82138 61.3189 8.43138C61.3489 9.11138 61.369 9.79138 61.279 10.4614C61.239 10.7314 61.179 11.0614 60.879 11.1514C60.619 11.2314 60.3189 11.0414 60.2889 10.7714C60.0889 9.38138 60.229 7.97137 60.129 6.58137C59.989 6.58137 59.869 6.60138 59.739 6.65138C59.399 6.76138 59.0789 6.37138 59.2289 6.06138Z" fill="#00FF09"/>
<path d="M59.6089 33.1814C60.0789 30.8414 59.9089 28.4714 60.0389 26.1114C60.1489 25.6214 60.8989 25.6214 61.0189 26.1014C61.1089 26.9514 60.929 27.8114 61.029 28.6614C61.119 30.1014 60.959 31.5414 60.689 32.9414C60.639 33.3314 60.549 33.9014 60.059 33.9114C59.689 33.9214 59.4189 33.5014 59.6089 33.1814Z" fill="#00FF09"/>
<path d="M60.279 9.22139C60.289 8.44139 60.2689 7.67138 60.2889 6.90138C60.2789 6.69138 60.449 6.50139 60.659 6.47139C60.899 6.43139 61.1089 6.60138 61.1489 6.84138C61.2589 8.29138 61.1389 9.83139 61.2689 11.2614C61.2589 11.8314 61.6389 12.5214 61.2589 13.0314C60.9389 13.3714 60.3189 13.0014 60.5089 12.5714C60.3489 11.4514 60.239 10.3314 60.279 9.22139Z" fill="#00FF09"/>
<path d="M60.609 25.3714C62.379 24.9914 64.219 25.0414 66.009 25.1414C66.079 23.3414 65.999 21.4914 66.119 19.7014C65.849 17.6014 65.599 15.4814 65.599 13.3614C63.979 13.3514 62.239 13.8914 60.659 13.4214C60.439 13.2614 60.399 12.9314 60.569 12.7114C60.909 12.3314 61.479 12.5014 61.929 12.4414C63.409 12.5114 64.889 12.0614 66.349 12.3214C67.029 12.6814 66.639 13.6414 66.789 14.2614C66.939 17.0314 67.479 19.4914 67.229 22.2914C67.129 23.5114 67.509 24.9314 66.879 26.0414C66.359 26.5014 65.549 26.2714 64.919 26.2714C63.529 26.2014 62.129 26.3614 60.739 26.3614C60.249 26.3014 60.129 25.5514 60.609 25.3714Z" fill="#00FF09"/>
<path d="M60.0689 25.8114C60.2489 25.0914 61.549 25.1914 61.219 26.0114C61.029 26.6414 59.8489 26.5914 60.0689 25.8114Z" fill="#00FF09"/>
</g>
<defs>
<filter id="filter0_d_2_145" x="0.292391" y="0.717375" width="72.0017" height="40.5865" filterUnits="userSpaceOnUse" color-interpolation-filters="sRGB">
<feFlood flood-opacity="0" result="BackgroundImageFix"/>
<feColorMatrix in="SourceAlpha" type="matrix" values="0 0 0 0 0 0 0 0 0 0 0 0 0 0 0 0 0 0 127 0" result="hardAlpha"/>
<feOffset dy="1"/>
<feGaussianBlur stdDeviation="2.5"/>
<feComposite in2="hardAlpha" operator="out"/>
<feColorMatrix type="matrix" values="0 0 0 0 0 0 0 0 0 1 0 0 0 0 0.0352941 0 0 0 0.5 0"/>
<feBlend mode="normal" in2="BackgroundImageFix" result="effect1_dropShadow_2_145"/>
<feBlend mode="normal" in="SourceGraphic" in2="effect1_dropShadow_2_145" result="shape"/>
</filter>
</defs>
</svg>
